<svg xmlns="http://www.w3.org/2000/svg" xmlns:xlink="http://www.w3.org/1999/xlink" xml:space="preserve" width="424.812" height="310.389" viewBox="0 0 424.812 310.389"><defs><path id="e" d="M249-22c141 0 211 114 211 342 0 153-32 255-95 305-35 27-74 41-115 41-141 0-211-115-211-346C39 136 88-22 249-22m112 546c7-35 10-99 10-192 0-92-4-160-11-204Q340.5 8 249 8c-23 0-46 9-67 26-27 23-43 70-50 142-3 25-4 77-4 156 0 87 3 148 8 181 9 55 27 90 55 105 22 12 41 18 58 18 65 0 101-53 112-112"/><path id="f" d="M269 666q-61.5-63-180-63v-39c52 0 95 8 128 24V82c0-18-4-30-13-35s-34-8-74-8H95V0q37.5 3 162 3t162-3v39h-35c-41 0-66 3-74 8s-13 17-13 35v554c0 24-2 30-28 30"/><path id="g" d="M237 666c-51 0-94-18-131-54s-56-78-56-129c0-34 25-59 56-59 30 0 55 26 55 56 0 33-24 56-56 56-3 0-5 0-7-1 19 49 63 92 126 92 82 0 128-71 128-157 0-67-34-139-102-215L62 43C49 28 50 29 50 0h371l29 180h-33c-8-51-15-80-21-89-5-5-35-7-90-7H139l97 95c68 64 154 133 183 186q30 52.5 30 105c0 118-92 196-212 196"/><path id="h" d="M303 353c66 25 128 88 128 173 0 43-21 78-62 105-36 23-77 35-123 35-45 0-84-12-119-35-39-26-59-60-59-103 0-33 22-56 54-56s54 23 54 55c0 33-19 51-57 53 26 35 67 53 123 53 60 0 90-35 90-106 0-42-8-77-23-106-27-48-64-57-126-57-12-2-18-7-18-16 0-15 7-15 27-15h43c75 0 113-53 113-160 0-85-31-159-107-159-65 0-113 22-142 66 35-1 61 25 61 59s-25 59-59 59c-39 0-59-20-59-61 0-49 22-88 66-119 39-27 85-40 136-40 57 0 106 19 149 56s64 83 64 139c0 94-74 159-154 180"/><path id="a" d="M524 431H194c-41 0-77-16-106-47-14-15-61-79-61-92 4-7 4-13 16-13 7 0 13 4 19 13 32 49 73 74 122 74h51c-23-87-65-194-125-321-5-12-8-21-8-26 0-20 11-30 32-30 19 0 33 11 42 32 18 57 31 101 38 131l55 214h103c-27-119-41-202-41-249 0-49 11-128 48-128 21 0 44 20 44 41 0 5-2 13-6 23-19 47-28 100-28 161 0 47 6 98 17 152h109c35 0 52 12 52 37 0 23-18 28-43 28"/><path id="b" d="M698 274H413v285q0 24-24 24t-24-24V274H80q-24 0-24-24t24-24h285V-59q0-24 24-24t24 24v285h285q24 0 24 24c0 13-11 24-24 24"/><path id="c" d="M355 442c-44 0-86-23-127-69-11 46-42 69-91 69-41 0-71-33-92-98-10-33-15-52-15-58 0-9 5-14 16-14 5 0 8 1 11 3 5 9 8 16 9 23 18 76 41 114 68 114 18 0 27-14 27-41 0-15-2-32-7-50L44-118c-9-33-10-37-49-37-18 0-27-8-27-23 0-11 6-16 17-16 15 0 67 3 82 3 19 0 79-3 98-3 15 0 22 8 22 24 0 10-9 15-28 15-18 0-45-1-45 11 0 13 41 170 45 187 20-37 50-56 90-56 65 0 122 33 172 100 46 61 69 126 69 193 0 87-52 162-135 162m-3-30c39 0 59-30 59-89 0-27-6-63-17-108-23-87-52-144-87-173-21-17-40-26-59-26-29 0-49 13-60 40-9 21-14 36-14 44l51 209c5 22 23 45 51 68s53 35 76 35"/><path id="d" d="M932 234c7 3 11 9 11 16s-4 13-11 16q-72 24-135 102c-28 35-47 76-56 123-3 13-11 19-24 19-16 0-24-8-24-25l1-2v-1c17-87 61-156 134-208H82q-24 0-24-24t24-24h746c-73-52-117-121-134-208v-1l-1-2c0-17 8-25 24-25 13 0 21 6 24 19 9 47 28 88 56 123q63 78 135 102"/><path id="o" d="M374-11 527 0v38c-36 0-57 2-65 8s-12 21-12 44v604l-149-11v-38c35 0 57-3 65-9s11-20 11-43V390c-32 37-72 55-120 55-62 0-115-22-158-67s-65-99-65-162c0-61 20-114 61-159s91-68 152-68c51 0 94 19 127 58M261 415c43 0 78-19 103-57 7-11 10-22 10-35V121c0-13-3-24-10-35-28-45-66-67-113-67-41 0-74 20-100 61q-27 45-27 135c0 109 37 200 137 200"/><path id="p" d="M525 431H300c-48 0-93-15-134-46-64-49-128-135-128-237 0-90 62-159 152-159 67 0 127 29 178 87 49 56 73 118 73 187 0 41-9 75-27 103h101c35 0 52 12 52 37 0 23-17 28-42 28M107 121c0 59 14 113 43 161 34 56 78 84 133 84 58 0 87-30 87-91 0-25-5-54-15-88-20-71-53-121-99-148-23-14-45-21-65-21-55 0-84 45-84 103"/><path id="q" d="M444 718c1 2 1 5 1 8q0 24-24 24c-11 0-18-5-22-16L57-218c-1-2-1-5-1-8q0-24 24-24c11 0 18 5 22 16z"/><path id="r" d="M267 25c0 48-18 122-53 221-33 89-49 158-49 208 0 122 76 221 195 221s196-99 196-221c0-49-19-126-56-229-31-88-46-155-46-200 0-24 4-25 29-25h161l34 168h-33q-9-48-18-75c-4-11-13-17-26-20-3-1-15-1-36-1h-74q15 57 87 162 87 130.5 87 219c0 75-33 137-98 186-59 44-128 66-206 66q-118.5 0-207-66c-65-48-98-110-98-186q0-87 87-219c38-56 71-105 87-162h-74c-34 0-54 5-59 14-10 32-17 59-21 82H43L77 0h162c23 0 28 2 28 25"/><path id="s" d="M233-202h-74v904h74c15 0 23 8 23 24s-8 24-23 24H114V-250h119c15 0 23 8 23 24 0 12-11 24-23 24"/><path id="t" d="M315 413c46 0 69-35 69-106V79c0-19-3-31-10-35s-30-6-67-6V0l116 3 115-3v38q-55.5 0-66 6c-7 4-11 16-11 35v180c0 80 52 154 129 154 47 0 70-35 70-106V79c0-19-4-31-11-35s-30-6-67-6V0l116 3 115-3v38c-32 0-53 1-63 4s-14 10-14 22v187c0 47-2 80-5 99-10 61-55 92-134 92-63 0-110-29-142-88-14 59-58 88-133 88-63 0-111-30-143-90v90L32 431v-38q54 0 66-9c8-6 11-19 11-42V79c0-19-4-31-11-35q-10.5-6-66-6V0l116 3 115-3v38c-37 0-60 2-67 6s-11 16-11 35v180c0 81 53 154 130 154"/><path id="u" d="M298-11c62 0 115 22 158 67s65 98 65 161c0 61-20 115-61 160s-91 68-152 68c-49 0-93-19-130-58v307L28 683v-38q54 0 66-9c8-6 11-20 11-43V0h31l33 58q48-69 129-69m-4 30c-41 0-75 19-100 58-9 13-13 27-13 40v203c0 13 3 24 10 34 29 41 66 61 113 61 41 0 74-20 100-61 18-30 27-75 27-136 0-108-38-199-137-199"/><path id="v" d="M360 130c0 76-52 124-155 144-47 9-77 20-93 31s-24 27-24 46c0 47 35 70 105 70 68 0 105-38 110-115 1-8 6-12 16-12 11 0 17 9 17 27v99c0 19-5 28-15 28-11 0-26-18-36-26-25 17-56 26-92 26-89 0-160-40-160-125 0-34 14-63 43-86 35-29 68-35 131-46 65-13 98-42 98-87 0-57-35-86-106-86-69 0-113 46-132 137-3 13-8 20-17 20-11 0-17-10-17-29V17c0-19 5-28 15-28 3 0 8 3 16 10 18 16 10 13 28 31 29-27 65-41 107-41 95 0 161 49 161 141"/><path id="w" d="M364 378c0 39-37 64-76 64-51 0-90-30-116-91v91L28 431v-38c35 0 56-3 64-9s12-19 12-42V79c0-19-3-31-10-35q-10.5-6-66-6V0l115 3c42 1 85 0 128-3v38h-24c-33 0-54 3-61 8s-10 17-10 35v151c0 43 8 82 23 115 20 43 49 65 88 66q-15-15-15-36c0-31 15-46 46-46 27 0 46 21 46 47"/><path id="x" d="M45-250h119V750H45c-15 0-23-8-23-24s8-24 23-24h74v-904H45c-15 0-23-8-23-24s8-24 23-24"/><path id="i" d="M249-22c141 0 211 114 211 342 0 153-32 255-95 305-35 27-74 41-115 41-141 0-211-115-211-346C39 136 88-22 249-22m112 546c7-35 10-99 10-192 0-92-4-160-11-204Q340.5 8 249 8c-23 0-46 9-67 26-27 23-43 70-50 142-3 25-4 77-4 156 0 87 3 148 8 181 9 55 27 90 55 105 22 12 41 18 58 18 65 0 101-53 112-112"/><path id="j" d="M192 53c0 29-24 53-53 53S86 82 86 53s24-53 53-53 53 24 53 53"/><path id="k" d="M118 315c5 0 11 4 16 11 30 45 71 67 123 67 35 0 62-20 80-61 11-27 17-68 17-123 0-63-8-107-23-133-25-41-59-62-102-62-67 0-120 48-138 100 3-1 5 0 9 0 30 0 55 23 55 53 0 31-25 52-55 52-35 0-50-19-50-56C50 63 131-22 231-22c61 0 113 22 155 66s63 97 63 158c0 58-17 108-51 151-37 47-83 70-139 70-47 0-88-15-121-45v178c27-8 53-12 80-12 46 0 86 11 120 34 31 19 52 38 64 56 6 8 9 14 9 17q0 15-15 15c-55-21-102-32-140-32-45 0-88 9-129 28-5 2-9 3-13 3-9 0-14-9-14-28V345c0-21 0-30 18-30"/><path id="l" d="M269 666q-61.5-63-180-63v-39c52 0 95 8 128 24V82c0-18-4-30-13-35s-34-8-74-8H95V0q37.5 3 162 3t162-3v39h-35c-41 0-66 3-74 8s-13 17-13 35v554c0 24-2 30-28 30"/><path id="n" d="M237 666c-51 0-94-18-131-54s-56-78-56-129c0-34 25-59 56-59 30 0 55 26 55 56 0 33-24 56-56 56-3 0-5 0-7-1 19 49 63 92 126 92 82 0 128-71 128-157 0-67-34-139-102-215L62 43C49 28 50 29 50 0h371l29 180h-33c-8-51-15-80-21-89-5-5-35-7-90-7H139l97 95c68 64 154 133 183 186q30 52.5 30 105c0 118-92 196-212 196"/><path id="y" d="M555 683H235c-23 0-34-1-34-23 0-11 11-16 33-16 20 0 60 3 60-13 0-2-1-8-4-18L158 82c-6-22-16-35-30-40-7-2-25-3-56-3-22 0-32-2-32-23C40 5 46 0 59 0l125 3 64-1c11 0 51-2 64-2q24 0 24 24c0 10-11 15-32 15-40 0-60 4-60 13 0 0 1 3 3 16l60 244h165c65 0 127 20 185 59 65 43 97 96 97 159 0 99-94 153-199 153m-31-39c87 0 130-30 130-90 0-56-28-131-57-157q-57-51-150-51H313l66 264c8 34 8 34 50 34z"/><path id="A" d="m144 3 111-3v39c-36 0-58 1-65 5s-10 16-10 35v615L33 683v-38c35 0 57-3 64-9s11-20 11-43V79c0-19-3-31-10-35s-29-5-65-5V0Z"/><path id="B" d="M483 91v59h-32V91c0-39-11-59-32-59-20 0-32 25-32 45v197c0 35-4 61-11 79-24 59-93 95-163 95-77 0-153-43-153-115 0-33 17-50 50-50s49 16 49 49c0 29-15 46-46 49 22 25 55 38 98 38 62 0 100-57 100-122v-33c-78-5-137-17-178-36C66 197 32 154 32 97c0-26 10-48 29-65 32-29 76-43 132-43 59 0 101 25 127 76 7-38 35-71 78-71 53 0 85 42 85 97M200 18c-46 0-84 34-84 80 0 93 97 133 195 138v-95c0-67-44-123-111-123"/><path id="C" d="M298-11c62 0 115 22 158 67s65 98 65 161c0 61-20 115-61 160s-91 68-152 68c-49 0-93-19-130-58v307L28 683v-38q54 0 66-9c8-6 11-20 11-43V0h31l33 58q48-69 129-69m-4 30c-41 0-75 19-100 58-9 13-13 27-13 40v203c0 13 3 24 10 34 29 41 66 61 113 61 41 0 74-20 100-61 18-30 27-75 27-136 0-108-38-199-137-199"/><path id="E" d="M233-202h-74v904h74c15 0 23 8 23 24s-8 24-23 24H114V-250h119c15 0 23 8 23 24 0 12-11 24-23 24"/><path id="F" d="M667 443v234c0 19-5 28-15 28-7 0-13-5-19-14l-47-69c-18 18-39 35-62 51-33 21-73 32-120 32-98 0-181-35-248-107S56 441 56 342 90 158 157 86Q257.5-22 406-22c89 0 151 27 185 81 8-13 48-58 63-58 9 0 13 9 13 26v173q0 27 9 33c6 4 26 6 59 6v39l-125-3c-63-2-118-1-163 3v-39h36c41 0 66-3 75-8s13-17 13-35v-64c0-49-22-82-65-98-32-11-60-17-84-17-39 0-79 10-118 31-94 49-138 145-138 294 0 141 49 247 137 294 39 20 76 30 113 30 123 0 195-113 211-231 2-13 9-20 20-20 20 0 20 8 20 28"/><path id="G" d="M415 251c0 115-67 197-179 197-60 0-110-23-151-70-38-44-57-97-57-158 0-63 21-116 63-162q63-69 156-69c57 0 101 20 131 59 25 33 37 57 37 73 0 10-6 15-17 15-8 0-13-5-16-16q-33-99-129-99c-45 0-80 21-107 64-19 31-28 78-29 142h270c22 0 28 2 28 24m-89 98c11-33 16-65 16-94H118c3 66 20 111 50 134 25 20 47 30 68 30 45 0 75-23 90-70"/><path id="H" d="M622 581q24 61.5 108 63v39c-43-3-76-4-100-3l-117 3v-38c49-1 73-17 73-46 0-4-2-10-5-18L404 114 218 603c-3 10-5 16-5 17q0 24 81 24v39c-42-3-90-4-145-3l-130 3v-39c37 0 61-2 72-5s19-13 25-30L346 2c6-16 15-24 28-24q19.5 0 27 21z"/><path id="I" d="M45-250h119V750H45c-15 0-23-8-23-24s8-24 23-24h74v-904H45c-15 0-23-8-23-24s8-24 23-24"/></defs><g style="display:inline"><path d="M717.116 1171.486s4.865 55.48 7.904 83.157c1.906 17.359 4.746 34.61 6.478 51.987.895 8.976.907 18.036 2.02 26.988.982 7.886 2.23 15.762 4.103 23.484 1.66 6.841 3.906 13.537 6.302 20.156 1.132 3.125 2.362 6.222 3.805 9.215 1.153 2.39 2.375 4.762 3.865 6.956 1.266 1.865 2.59 3.744 4.28 5.232 2.106 1.854 4.581 3.301 7.135 4.46a29 29 0 0 0 7.492 2.259c2.291.358 4.641.26 6.956.119 1.997-.122 4.024-.274 5.945-.833a24.7 24.7 0 0 0 6.54-2.972c2.178-1.416 4.04-3.289 5.827-5.173a74.7 74.7 0 0 0 7.967-9.988c2.193-3.293 3.97-6.851 5.708-10.405 2.569-5.256 4.755-10.692 6.956-16.112 4.714-11.613 9.342-23.273 13.377-35.138 3.371-9.913 6.047-20.05 9.038-30.084 3.074-10.319 5.86-20.726 9.156-30.977 3.12-9.708 6.574-19.307 10.047-28.895 2.641-7.288 5.259-14.59 8.205-21.76 2.813-6.844 5.953-13.549 9.037-20.274 3.39-7.39 6.678-14.833 10.405-22.058 2.45-4.747 4.808-9.58 7.848-13.972 1.017-1.469 1.94-3.144 3.449-4.102a4.8 4.8 0 0 1 2.675-.714c.983.033 1.93.481 2.794.951a13.7 13.7 0 0 1 3.687 2.914c1.338 1.511 2.25 3.365 3.15 5.172 1.056 2.118 1.816 4.373 2.617 6.6 1.523 4.234 2.955 8.507 4.162 12.842 2.056 7.392 3.594 14.919 5.232 22.415 1.674 7.666 2.99 15.409 4.697 23.068 2.509 11.265 5.344 22.455 8.145 33.652 3.02 12.073 6.004 24.157 9.334 36.148 3.182 11.456 6.546 22.863 10.167 34.187 1.882 5.886 3.61 11.842 6.005 17.54 1.487 3.537 3.237 6.971 5.173 10.285 1.613 2.762 3.335 5.483 5.35 7.967 2.006 2.47 4.337 4.663 6.66 6.837 3.232 3.026 6.57 5.958 10.107 8.621 3.816 2.873 7.828 5.495 11.95 7.908a135 135 0 0 0 13.437 6.896c4.008 1.777 8.131 3.305 12.307 4.638 2.519.804 5.062 1.588 7.67 2.021 3.002.5 9.106.654 9.106.654" style="display:inline;opacity:1;fill:none;fill-opacity:.4;stroke:#da3;stroke-width:2;stroke-linecap:round;stroke-dasharray:4;stroke-dashoffset:0" transform="translate(-640.749 -1135.232)"/><path d="M717.116 1171.486s4.87 55.48 7.904 83.157c2.031 18.53 4.088 37.067 6.895 55.495 1.994 13.092 4.39 26.127 7.063 39.098.952 4.62 1.988 9.228 3.195 13.79 1.33 5.032 2.616 10.097 4.456 14.966 1.888 4.997 3.916 10.003 6.727 14.546 1.321 2.137 2.88 4.163 4.708 5.886 1.449 1.365 3.148 2.46 4.877 3.447 2.081 1.188 4.26 2.267 6.558 2.943 1.795.528 3.683.71 5.55.84 2.628.185 5.31.376 7.903-.083 2.898-.513 5.716-1.58 8.325-2.943 2.385-1.246 4.588-2.875 6.558-4.709 3.496-3.254 6.471-7.07 9.165-11.014 2.78-4.072 5.033-8.495 7.147-12.95 4.158-8.758 7.508-17.886 10.846-26.99 6.793-18.522 12.488-37.43 18.667-56.166 2.004-6.077 3.914-12.186 5.97-18.246 1.602-4.726 3.018-9.529 4.96-14.126 2.4-5.68 5.391-11.095 8.24-16.564 2.463-4.727 5.36-9.23 7.652-14.042 2.631-5.526 4.887-11.232 6.979-16.984 3.416-9.397 6.214-19.01 9.08-28.588 1.278-4.268 2.531-8.545 3.616-12.865 1.483-5.902 2.077-12.035 3.952-17.825.696-2.15 1.498-4.303 2.69-6.222 1.03-1.655 2.218-3.297 3.784-4.457 1.08-.799 2.369-1.417 3.7-1.597 1.206-.163 2.472.089 3.615.504 1.243.452 2.388 1.21 3.364 2.102 1.713 1.566 2.917 3.618 4.204 5.55.989 1.484 1.981 2.988 2.69 4.624 5.014 11.57 7.312 24.136 10.847 36.24 3.7 12.672 7.333 25.364 10.847 38.089 6.293 22.792 11.694 45.832 18.33 68.527 2.624 8.976 5.175 17.994 8.492 26.738 3.284 8.658 7.13 17.108 11.267 25.393 1.877 3.76 3.953 7.424 6.138 11.014 2.48 4.078 5.048 8.115 7.903 11.94 3.654 4.895 7.713 9.478 11.772 14.042 1.792 2.015 3.529 4.1 5.55 5.886 2.734 2.416 5.723 4.557 8.828 6.474 2.144 1.324 4.43 2.41 6.727 3.447 2.305 1.04 4.608 2.163 7.062 2.775 1.67.416 3.411.49 5.13.589 1.443.083 4.337 0 4.337 0" style="display:inline;opacity:1;fill:none;fill-opacity:.4;stroke:#048;stroke-width:2;stroke-linecap:round;stroke-dasharray:none" transform="translate(-640.749 -1135.232)"/><g aria-level="1" data-latex="{c}" data-latex-item="{c}" data-mml-node="mtr" data-semantic-annotation="depth:2" data-semantic-attributes="latex:{c}" data-semantic-children="13" data-semantic-id="15" data-semantic-owns="13" data-semantic-parent="48" data-semantic-role="multiline" data-semantic-type="line" data-speech-node="true" style="display:inline;fill:#000;fill-opacity:1;stroke:none;stroke-width:0" transform="translate(.003)"><g aria-level="3" data-mml-node="mrow" data-semantic-added="true" data-semantic-annotation="clearspeak:unit;depth:4" data-semantic-children="2,3" data-semantic-content="9" data-semantic-id="10" data-semantic-owns="2 9 3" data-semantic-parent="13" data-semantic-role="implicit" data-semantic-type="infixop" data-speech-node="true" style="fill:#000;fill-opacity:1;stroke:none"><g aria-level="4" data-latex="\pi^+" data-mml-node="msup" data-semantic-annotation="depth:5" data-semantic-attributes="latex:\pi^+" data-semantic-children="0,1" data-semantic-id="2" data-semantic-owns="0 1" data-semantic-parent="10" data-semantic-role="greekletter" data-semantic-type="superscript" data-speech-node="true" style="fill:#000;fill-opacity:1;stroke:none"><use xlink:href="#a" aria-level="5" data-c="1D70B" data-latex="\pi" data-mml-node="mi" data-semantic-annotation="clearspeak:simple;nemeth:number;depth:6" data-semantic-attributes="latex:\pi" data-semantic-font="italic" data-semantic-id="0" data-semantic-parent="2" data-semantic-role="greekletter" data-semantic-type="identifier" data-speech-node="true" style="fill:#000;fill-opacity:1;stroke:none" transform="matrix(.0181 0 0 -.0181 310.637 49.945)"/><use xlink:href="#b" aria-level="5" data-c="2B" data-latex="+" data-mml-node="mo" data-semantic-annotation="depth:6" data-semantic-attributes="latex:+" data-semantic-id="1" data-semantic-parent="2" data-semantic-role="addition" data-semantic-type="operator" data-speech-node="true" style="fill:#000;fill-opacity:1;stroke:none" transform="matrix(.0128 0 0 -.0128 321.55 43.375)"/></g><use xlink:href="#c" aria-level="4" data-c="1D45D" data-latex="p" data-mml-node="mi" data-semantic-annotation="clearspeak:simple;depth:5" data-semantic-attributes="latex:p" data-semantic-font="italic" data-semantic-id="3" data-semantic-parent="10" data-semantic-role="latinletter" data-semantic-type="identifier" data-speech-node="true" style="fill:#000;fill-opacity:1;stroke:none" transform="matrix(.0181 0 0 -.0181 332.412 49.945)"/></g><use xlink:href="#d" aria-level="3" data-c="2192" data-latex="\to" data-mml-node="mo" data-semantic-annotation="nemeth:number;depth:4" data-semantic-attributes="latex:\to" data-semantic-id="4" data-semantic-operator="relseq,→" data-semantic-parent="13" data-semantic-role="arrow" data-semantic-type="relation" data-speech-node="true" style="fill:#000;fill-opacity:1;stroke:none" transform="matrix(.0181 0 0 -.0181 346.544 49.945)"/><g aria-level="3" data-mml-node="mrow" data-semantic-added="true" data-semantic-annotation="clearspeak:unit;depth:4" data-semantic-children="7,8" data-semantic-content="11" data-semantic-id="12" data-semantic-owns="7 11 8" data-semantic-parent="13" data-semantic-role="implicit" data-semantic-type="infixop" data-speech-node="true" style="fill:#000;fill-opacity:1;stroke:none"><g aria-level="4" data-latex="\pi^+" data-mml-node="msup" data-semantic-annotation="depth:5" data-semantic-attributes="latex:\pi^+" data-semantic-children="5,6" data-semantic-id="7" data-semantic-owns="5 6" data-semantic-parent="12" data-semantic-role="greekletter" data-semantic-type="superscript" data-speech-node="true" style="fill:#000;fill-opacity:1;stroke:none"><use xlink:href="#a" aria-level="5" data-c="1D70B" data-latex="\pi" data-mml-node="mi" data-semantic-annotation="clearspeak:simple;nemeth:number;depth:6" data-semantic-attributes="latex:\pi" data-semantic-font="italic" data-semantic-id="5" data-semantic-parent="7" data-semantic-role="greekletter" data-semantic-type="identifier" data-speech-node="true" style="fill:#000;fill-opacity:1;stroke:none" transform="matrix(.0181 0 0 -.0181 369.672 49.945)"/><use xlink:href="#b" aria-level="5" data-c="2B" data-latex="+" data-mml-node="mo" data-semantic-annotation="depth:6" data-semantic-attributes="latex:+" data-semantic-id="6" data-semantic-parent="7" data-semantic-role="addition" data-semantic-type="operator" data-speech-node="true" style="fill:#000;fill-opacity:1;stroke:none" transform="matrix(.0128 0 0 -.0128 380.586 43.375)"/></g><use xlink:href="#c" aria-level="4" data-c="1D45D" data-latex="p" data-mml-node="mi" data-semantic-annotation="clearspeak:simple;depth:5" data-semantic-attributes="latex:p" data-semantic-font="italic" data-semantic-id="8" data-semantic-parent="12" data-semantic-role="latinletter" data-semantic-type="identifier" data-speech-node="true" style="fill:#000;fill-opacity:1;stroke:none" transform="matrix(.0181 0 0 -.0181 391.448 49.945)"/></g></g><g style="fill:#000" transform="translate(-640.749 -1135.232)"><use xlink:href="#e" data-c="30" style="fill:#000;stroke:none;stroke-width:0" transform="matrix(.0181 0 0 -.0181 666.327 1411.239)"/><use xlink:href="#f" data-c="31" style="fill:#000;stroke:none;stroke-width:0" transform="matrix(.0181 0 0 -.0181 666.245 1326.298)"/><use xlink:href="#g" data-c="32" style="fill:#000;stroke:none;stroke-width:0" transform="matrix(.0181 0 0 -.0181 666.318 1241.159)"/><use xlink:href="#h" data-c="33" style="fill:#000;stroke:none;stroke-width:0" transform="matrix(.0181 0 0 -.0181 666.327 1155.82)"/><g aria-level="1" data-latex=".5" data-mml-node="mn" data-semantic-annotation="clearspeak:simple;nemeth:number;depth:2" data-semantic-attributes="latex:.5" data-semantic-font="normal" data-semantic-id="0" data-semantic-parent="13" data-semantic-role="float" data-semantic-type="number" data-speech-node="true" style="display:inline;fill:#000;stroke:#000;stroke-width:0" transform="matrix(.0181 0 0 -.0181 709.711 1421.624)"><use xlink:href="#i" data-c="30" style="fill:#000;stroke:none"/><use xlink:href="#j" data-c="2E" style="fill:#000;stroke:none" transform="translate(500)"/><use xlink:href="#k" data-c="35" style="fill:#000;stroke:none" transform="translate(778)"/></g><g aria-level="1" data-latex="0" data-mml-node="mn" data-semantic-annotation="clearspeak:simple;nemeth:number;depth:2" data-semantic-attributes="latex:.0" data-semantic-font="normal" data-semantic-id="2" data-semantic-parent="13" data-semantic-role="float" data-semantic-type="number" data-speech-node="true" style="display:inline;fill:#000;stroke:#000;stroke-width:0" transform="matrix(.0181 0 0 -.0181 816.04 1421.624)"><use xlink:href="#l" data-c="31" style="fill:#000;stroke:none"/><use xlink:href="#j" data-c="2E" style="fill:#000;stroke:none" transform="translate(500)"/><use xlink:href="#i" data-c="30" style="fill:#000;stroke:none" transform="translate(778)"/></g><g aria-level="1" data-latex=".5" data-mml-node="mn" data-semantic-annotation="clearspeak:simple;nemeth:number;depth:2" data-semantic-attributes="latex:.5" data-semantic-font="normal" data-semantic-id="4" data-semantic-parent="13" data-semantic-role="float" data-semantic-type="number" data-speech-node="true" style="display:inline;fill:#000;stroke:#000;stroke-width:0" transform="matrix(.0181 0 0 -.0181 923.021 1421.624)"><use xlink:href="#l" data-c="31" style="fill:#000;stroke:none"/><use xlink:href="#j" data-c="2E" style="fill:#000;stroke:none" transform="translate(500)"/><use xlink:href="#k" data-c="35" style="fill:#000;stroke:none" transform="translate(778)"/></g><g aria-level="1" data-latex="0" data-mml-node="mn" data-semantic-annotation="clearspeak:simple;nemeth:number;depth:2" data-semantic-attributes="latex:.0" data-semantic-font="normal" data-semantic-id="6" data-semantic-parent="13" data-semantic-role="float" data-semantic-type="number" data-speech-node="true" style="display:inline;fill:#000;stroke:#000;stroke-width:0" transform="matrix(.0181 0 0 -.0181 1030.156 1421.624)"><use xlink:href="#n" data-c="32" style="fill:#000;stroke:none"/><use xlink:href="#j" data-c="2E" style="fill:#000;stroke:none" transform="translate(500)"/><use xlink:href="#i" data-c="30" style="fill:#000;stroke:none" transform="translate(778)"/></g></g><g aria-level="0" data-latex="\mathrm{d}\sigma/\mathrm{d}\Omega \; [\text{mb}/\text{sr}]" data-mml-node="math" data-semantic-annotation="depth:1" data-semantic-attributes="latex:\mathrm{d}\sigma/\mathrm{d}\Omega \\0003B [\text{mb}/\text{sr}]" data-semantic-children="18,20" data-semantic-content="2" data-semantic-id="21" data-semantic-owns="18 2 20" data-semantic-role="division" data-semantic-structure="(21 (18 0 17 1) 2 (20 3 19 (16 4 15 (14 6 (13 7 (11 8 9)) 10))))" data-semantic-type="infixop" data-speech-node="true" style="fill:#000;stroke:#000;stroke-width:0"><g aria-level="1" data-mml-node="mrow" data-semantic-added="true" data-semantic-annotation="clearspeak:simple;clearspeak:unit;depth:2" data-semantic-children="0,1" data-semantic-content="17" data-semantic-id="18" data-semantic-owns="0 17 1" data-semantic-parent="21" data-semantic-role="implicit" data-semantic-type="infixop" data-speech-node="true" style="fill:#000" transform="translate(.003)"><g data-latex="\mathrm{d}" data-mjx-texclass="ORD" data-mml-node="TeXAtom" style="fill:#000"><use xlink:href="#o" aria-level="2" data-c="64" data-latex="d" data-mml-node="mi" data-semantic-annotation="clearspeak:simple;nemeth:number;depth:3" data-semantic-attributes="latex:\mathrm{d};texclass:ORD" data-semantic-font="normal" data-semantic-id="0" data-semantic-parent="18" data-semantic-role="latinletter" data-semantic-type="identifier" data-speech-node="true" style="fill:#000;stroke:none" transform="matrix(0 -.0181 -.0181 0 16.572 203.237)"/></g><use xlink:href="#p" aria-level="2" data-c="1D70E" data-latex="\sigma" data-mml-node="mi" data-semantic-annotation="clearspeak:simple;depth:3" data-semantic-attributes="latex:\sigma" data-semantic-font="italic" data-semantic-id="1" data-semantic-parent="18" data-semantic-role="greekletter" data-semantic-type="identifier" data-speech-node="true" style="fill:#000;stroke:none" transform="matrix(0 -.0181 -.0181 0 16.572 193.175)"/></g><g data-mjx-texclass="ORD" data-mml-node="TeXAtom" style="fill:#000" transform="translate(.003)"><use xlink:href="#q" aria-level="1" data-c="2F" data-latex="/" data-mml-node="mo" data-semantic-annotation="depth:2" data-semantic-attributes="latex:/;texclass:ORD" data-semantic-id="2" data-semantic-operator="infixop,/" data-semantic-parent="21" data-semantic-role="division" data-semantic-type="operator" data-speech-node="true" style="fill:#000;stroke:none" transform="matrix(0 -.0181 -.0181 0 16.572 182.843)"/></g><g aria-level="1" data-mml-node="mrow" data-semantic-added="true" data-semantic-annotation="clearspeak:unit;depth:2" data-semantic-children="3,16" data-semantic-content="19" data-semantic-id="20" data-semantic-owns="3 19 16" data-semantic-parent="21" data-semantic-role="implicit" data-semantic-type="infixop" data-speech-node="true" style="fill:#000"><g data-latex="\mathrm{d}" data-mjx-texclass="ORD" data-mml-node="TeXAtom" style="fill:#000" transform="translate(.003)"><use xlink:href="#o" aria-level="2" data-c="64" data-latex="d" data-mml-node="mi" data-semantic-annotation="clearspeak:simple;depth:3" data-semantic-attributes="latex:\mathrm{d};texclass:ORD" data-semantic-font="normal" data-semantic-id="3" data-semantic-parent="20" data-semantic-role="latinletter" data-semantic-type="identifier" data-speech-node="true" style="fill:#000;stroke:none" transform="matrix(0 -.0181 -.0181 0 16.572 173.795)"/></g><g aria-level="2" data-mml-node="mrow" data-semantic-added="true" data-semantic-annotation="depth:3" data-semantic-children="4,14" data-semantic-content="15,4" data-semantic-id="16" data-semantic-owns="4 15 14" data-semantic-parent="20" data-semantic-role="simple function" data-semantic-type="appl" data-speech-node="true" style="fill:#000" transform="translate(.003)"><use xlink:href="#r" aria-level="3" data-c="3A9" data-latex="\Omega" data-mml-node="mi" data-semantic-annotation="clearspeak:simple;nemeth:number;depth:4" data-semantic-attributes="latex:\Omega" data-semantic-font="normal" data-semantic-id="4" data-semantic-operator="appl" data-semantic-parent="16" data-semantic-role="simple function" data-semantic-type="identifier" data-speech-node="true" style="fill:#000;stroke:none" transform="matrix(0 -.0181 -.0181 0 16.572 163.733)"/><g aria-level="3" data-mml-node="mrow" data-semantic-added="true" data-semantic-annotation="depth:4" data-semantic-children="13" data-semantic-content="6,10" data-semantic-id="14" data-semantic-owns="6 13 10" data-semantic-parent="16" data-semantic-role="leftright" data-semantic-type="fenced" data-speech-node="true" style="fill:#000"><use xlink:href="#s" aria-level="4" data-c="5B" data-latex="[" data-mml-node="mo" data-semantic-annotation="depth:5" data-semantic-attributes="latex:[" data-semantic-id="6" data-semantic-operator="fenced" data-semantic-parent="14" data-semantic-role="open" data-semantic-type="fence" data-speech-node="true" style="fill:#000;stroke:none" transform="matrix(0 -.0181 -.0181 0 16.572 145.637)"/><g aria-level="4" data-mml-node="mrow" data-semantic-added="true" data-semantic-annotation="depth:5" data-semantic-children="7,11" data-semantic-collapsed="(13 (c 12) 7 11)" data-semantic-id="13" data-semantic-owns="7 11" data-semantic-parent="14" data-semantic-role="text" data-semantic-type="punctuated" data-speech-node="true" style="fill:#000"><g aria-level="5" data-latex="\text{mb}" data-mml-node="mtext" data-semantic-annotation="clearspeak:unit;nemeth:number;depth:6" data-semantic-attributes="latex:\text{mb}" data-semantic-font="normal" data-semantic-id="7" data-semantic-parent="13" data-semantic-role="text" data-semantic-type="text" data-speech-node="true" style="fill:#000" transform="matrix(0 -.0181 -.0181 0 16.572 140.607)"><use xlink:href="#t" data-c="6D" style="fill:#000;stroke:none"/><use xlink:href="#u" data-c="62" style="fill:#000;stroke:none" transform="translate(833)"/></g><g aria-level="5" data-mml-node="mrow" data-semantic-added="true" data-semantic-annotation="depth:6" data-semantic-children="9" data-semantic-content="8" data-semantic-id="11" data-semantic-owns="8 9" data-semantic-parent="13" data-semantic-role="division" data-semantic-type="prefixop" data-speech-node="true" style="fill:#000"><g data-mjx-texclass="ORD" data-mml-node="TeXAtom" style="fill:#000"><use xlink:href="#q" aria-level="6" data-c="2F" data-latex="/" data-mml-node="mo" data-semantic-annotation="depth:7" data-semantic-attributes="latex:/;texclass:ORD" data-semantic-id="8" data-semantic-operator="prefixop,/" data-semantic-parent="11" data-semantic-role="division" data-semantic-type="operator" data-speech-node="true" style="fill:#000;stroke:none" transform="matrix(0 -.0181 -.0181 0 16.572 115.471)"/></g><g aria-level="6" data-latex="\text{sr}" data-mml-node="mtext" data-semantic-annotation="clearspeak:unit;depth:7" data-semantic-attributes="latex:\text{sr}" data-semantic-font="normal" data-semantic-id="9" data-semantic-parent="11" data-semantic-role="unit" data-semantic-type="identifier" data-speech-node="true" style="fill:#000" transform="matrix(0 -.0181 -.0181 0 16.572 106.423)"><use xlink:href="#v" data-c="73" style="fill:#000;stroke:none"/><use xlink:href="#w" data-c="72" style="fill:#000;stroke:none" transform="translate(394)"/></g></g></g><use xlink:href="#x" aria-level="4" data-c="5D" data-latex="]" data-mml-node="mo" data-semantic-annotation="depth:5" data-semantic-attributes="latex:]" data-semantic-id="10" data-semantic-operator="fenced" data-semantic-parent="14" data-semantic-role="close" data-semantic-type="fence" data-speech-node="true" style="fill:#000;stroke:none" transform="matrix(0 -.0181 -.0181 0 16.572 92.2)"/></g></g></g><g aria-level="0" data-latex="P_\text{lab} \; [\text{GeV}]" data-mml-node="math" data-semantic-annotation="depth:1" data-semantic-attributes="latex:P_\text{lab} \\0003B [\text{GeV}]" data-semantic-children="2,7" data-semantic-content="8,0" data-semantic-id="9" data-semantic-owns="2 8 7" data-semantic-role="simple function" data-semantic-structure="(9 (2 0 1) 8 (7 4 5 6))" data-semantic-type="appl" data-speech-node="true" style="display:inline;fill:#000;stroke:#000;stroke-width:0"><g aria-level="1" data-latex="\text{lab}" data-mml-node="msub" data-semantic-annotation="depth:2" data-semantic-attributes="latex:\text{lab}" data-semantic-children="0,1" data-semantic-id="2" data-semantic-owns="0 1" data-semantic-parent="9" data-semantic-role="simple function" data-semantic-type="subscript" data-speech-node="true" style="fill:#000" transform="matrix(.0181 0 0 -.0181 177.191 302.864)"><use xlink:href="#y" data-c="1D443" style="fill:#000;stroke:none"/><g aria-level="2" data-latex="{lab}" data-mml-node="mtext" data-semantic-annotation="clearspeak:unit;depth:3" data-semantic-attributes="latex:{lab}" data-semantic-font="normal" data-semantic-id="1" data-semantic-parent="2" data-semantic-role="unknown" data-semantic-type="text" data-speech-node="true" style="fill:#000" transform="translate(675 -150)scale(.707)"><use xlink:href="#A" data-c="6C" style="fill:#000;stroke:none"/><use xlink:href="#B" data-c="61" style="fill:#000;stroke:none" transform="translate(278)"/><use xlink:href="#C" data-c="62" style="fill:#000;stroke:none" transform="translate(778)"/></g></g><g aria-level="1" data-mml-node="mrow" data-semantic-added="true" data-semantic-annotation="depth:2" data-semantic-children="5" data-semantic-content="4,6" data-semantic-id="7" data-semantic-owns="4 5 6" data-semantic-parent="9" data-semantic-role="leftright" data-semantic-type="fenced" data-speech-node="true" style="fill:#000" transform="matrix(.0181 0 0 -.0181 212.411 302.864)"><use xlink:href="#E" data-c="5B" style="fill:#000;stroke:none"/><g aria-level="2" data-latex="\text{GeV}" data-mml-node="mtext" data-semantic-annotation="clearspeak:unit;depth:3" data-semantic-attributes="latex:\text{GeV}" data-semantic-font="normal" data-semantic-id="5" data-semantic-parent="7" data-semantic-role="annotation" data-semantic-type="text" data-speech-node="true" style="fill:#000" transform="translate(278)"><use xlink:href="#F" data-c="47" style="fill:#000;stroke:none"/><use xlink:href="#G" data-c="65" style="fill:#000;stroke:none" transform="translate(785)"/><use xlink:href="#H" data-c="56" style="fill:#000;stroke:none" transform="translate(1229)"/></g><use xlink:href="#I" data-c="5D" style="fill:#000;stroke:none" transform="translate(2257)"/></g></g></g><path d="m186.028 201.094-32.396-.099m33.694-426.172-32.396-.098m33.694-426.173-32.396-.098m33.694-426.172-32.396-.1m1056.35-168.55-1055.827-3.215L153.38 283.7m174.903-1499.863.098-32.396m170.184 32.914.099-32.396m170.183 32.915.099-32.396m170.183 32.914.1-32.396m170.183 32.915.099-32.396m170.183 32.914.1-32.395" style="display:inline;fill:none;fill-opacity:.4;stroke:#000;stroke-width:4;stroke-linecap:round;stroke-linejoin:round;stroke-dasharray:none;stroke-dashoffset:0;stroke-opacity:1" transform="rotate(-90.174 329.468 -20.035)scale(.25)"/></g></svg>