<svg xmlns="http://www.w3.org/2000/svg" xmlns:xlink="http://www.w3.org/1999/xlink" xml:space="preserve" width="649.648" height="249.511" viewBox="0 0 649.648 249.511"><defs><path id="k" d="M249-22c141 0 211 114 211 342 0 153-32 255-95 305-35 27-74 41-115 41-141 0-211-115-211-346C39 136 88-22 249-22m112 546c7-35 10-99 10-192 0-92-4-160-11-204Q340.5 8 249 8c-23 0-46 9-67 26-27 23-43 70-50 142-3 25-4 77-4 156 0 87 3 148 8 181 9 55 27 90 55 105 22 12 41 18 58 18 65 0 101-53 112-112"/><path id="E" d="M249-22c141 0 211 114 211 342 0 153-32 255-95 305-35 27-74 41-115 41-141 0-211-115-211-346C39 136 88-22 249-22m112 546c7-35 10-99 10-192 0-92-4-160-11-204Q340.5 8 249 8c-23 0-46 9-67 26-27 23-43 70-50 142-3 25-4 77-4 156 0 87 3 148 8 181 9 55 27 90 55 105 22 12 41 18 58 18 65 0 101-53 112-112"/><path id="F" d="M192 53c0 29-24 53-53 53S86 82 86 53s24-53 53-53 53 24 53 53"/><path id="H" d="M118 315c5 0 11 4 16 11 30 45 71 67 123 67 35 0 62-20 80-61 11-27 17-68 17-123 0-63-8-107-23-133-25-41-59-62-102-62-67 0-120 48-138 100 3-1 5 0 9 0 30 0 55 23 55 53 0 31-25 52-55 52-35 0-50-19-50-56C50 63 131-22 231-22c61 0 113 22 155 66s63 97 63 158c0 58-17 108-51 151-37 47-83 70-139 70-47 0-88-15-121-45v178c27-8 53-12 80-12 46 0 86 11 120 34 31 19 52 38 64 56 6 8 9 14 9 17q0 15-15 15c-55-21-102-32-140-32-45 0-88 9-129 28-5 2-9 3-13 3-9 0-14-9-14-28V345c0-21 0-30 18-30"/><path id="y" d="M269 666q-61.5-63-180-63v-39c52 0 95 8 128 24V82c0-18-4-30-13-35s-34-8-74-8H95V0q37.5 3 162 3t162-3v39h-35c-41 0-66 3-74 8s-13 17-13 35v554c0 24-2 30-28 30"/><path id="z" d="M192 53c0 29-24 53-53 53S86 82 86 53s24-53 53-53 53 24 53 53"/><path id="A" d="M249-22c141 0 211 114 211 342 0 153-32 255-95 305-35 27-74 41-115 41-141 0-211-115-211-346C39 136 88-22 249-22m112 546c7-35 10-99 10-192 0-92-4-160-11-204Q340.5 8 249 8c-23 0-46 9-67 26-27 23-43 70-50 142-3 25-4 77-4 156 0 87 3 148 8 181 9 55 27 90 55 105 22 12 41 18 58 18 65 0 101-53 112-112"/><path id="a" d="M415 251c0 115-67 197-179 197-60 0-110-23-151-70-38-44-57-97-57-158 0-63 21-116 63-162q63-69 156-69c57 0 101 20 131 59 25 33 37 57 37 73 0 10-6 15-17 15-8 0-13-5-16-16q-33-99-129-99c-45 0-80 21-107 64-19 31-28 78-29 142h270c22 0 28 2 28 24m-89 98c11-33 16-65 16-94H118c3 66 20 111 50 134 25 20 47 30 68 30 45 0 75-23 90-70"/><path id="b" d="M314 413c45 0 68-35 68-106V79c0-19-3-31-10-35q-10.5-6-66-6V0l115 3 114-3v38c-32 0-53 1-63 4s-14 10-14 22v187c0 47-1 80-4 99-10 61-55 92-134 92q-94.5 0-141-90v90L32 431v-38q54 0 66-9c8-6 11-19 11-42V79c0-19-4-31-11-35q-10.5-6-66-6V0l115 3 114-3v38c-37 0-58 2-65 6s-11 16-11 35v180c0 81 51 154 129 154"/><path id="c" d="M364 378c0 39-37 64-76 64-51 0-90-30-116-91v91L28 431v-38c35 0 56-3 64-9s12-19 12-42V79c0-19-3-31-10-35q-10.5-6-66-6V0l115 3c42 1 85 0 128-3v38h-24c-33 0-54 3-61 8s-10 17-10 35v151c0 43 8 82 23 115 20 43 49 65 88 66q-15-15-15-36c0-31 15-46 46-46 27 0 46 21 46 47"/><path id="d" d="M431 453q-57 0-105-45c-30 23-64 34-103 34-86 0-164-64-164-148q0-63 45-102c-19-24-29-51-29-82 0-38 13-67 38-86C71 10 28-26 28-77c0-43 28-77 83-101 42-19 88-28 138-28 51 0 98 9 140 28 55 24 82 58 82 103q0 79.5-66 117c-46 25-97 28-171 28-44 0-68 0-73 1-28 4-48 31-48 62 0 15 4 29 13 41 28-19 60-29 97-29 86 0 163 64 163 148q0 58.5-39 96c25 23 52 34 81 34-5-5-8-13-8-23q0-33 33-33c21 0 32 11 32 34 0 31-24 52-54 52m-208-42q81 0 81-117c0-79-27-119-81-119-55 0-82 39-82 118s27 118 82 118M164 4h58c52 0 94-3 126-10 43-9 64-33 64-71 0-32-20-57-60-76-31-15-65-22-102-22-36 0-70 7-102 22-41 19-61 44-61 76 0 42 36 81 77 81"/><path id="e" d="M113-205c55 0 99 38 130 115l173 422c17 40 47 60 92 60v39q-49.5-4.5-78-3l-89 3v-38c31-1 46-14 46-39 0-6-2-13-6-22L286 98 180 354c-3 8-5 14-6 17 0 14 19 21 56 21v39l-112-3q-36-1.5-99 3v-39c53 0 66 2 80-32L246 1l-24-56c-27-64-46-120-109-120-14 0-26 4-37 11 23 5 34 20 34 44 0 30-15 45-46 45-30 0-45-15-45-46 0-49 45-84 94-84"/><path id="f" d="M233-202h-74v904h74c15 0 23 8 23 24s-8 24-23 24H114V-250h119c15 0 23 8 23 24 0 12-11 24-23 24"/><path id="g" d="M667 443v234c0 19-5 28-15 28-7 0-13-5-19-14l-47-69c-18 18-39 35-62 51-33 21-73 32-120 32-98 0-181-35-248-107S56 441 56 342 90 158 157 86Q257.5-22 406-22c89 0 151 27 185 81 8-13 48-58 63-58 9 0 13 9 13 26v173q0 27 9 33c6 4 26 6 59 6v39l-125-3c-63-2-118-1-163 3v-39h36c41 0 66-3 75-8s13-17 13-35v-64c0-49-22-82-65-98-32-11-60-17-84-17-39 0-79 10-118 31-94 49-138 145-138 294 0 141 49 247 137 294 39 20 76 30 113 30 123 0 195-113 211-231 2-13 9-20 20-20 20 0 20 8 20 28"/><path id="h" d="M622 581q24 61.5 108 63v39c-43-3-76-4-100-3l-117 3v-38c49-1 73-17 73-46 0-4-2-10-5-18L404 114 218 603c-3 10-5 16-5 17q0 24 81 24v39c-42-3-90-4-145-3l-130 3v-39c37 0 61-2 72-5s19-13 25-30L346 2c6-16 15-24 28-24q19.5 0 27 21z"/><path id="j" d="M45-250h119V750H45c-15 0-23-8-23-24s8-24 23-24h74v-904H45c-15 0-23-8-23-24s8-24 23-24"/><path id="l" d="M237 666c-51 0-94-18-131-54s-56-78-56-129c0-34 25-59 56-59 30 0 55 26 55 56 0 33-24 56-56 56-3 0-5 0-7-1 19 49 63 92 126 92 82 0 128-71 128-157 0-67-34-139-102-215L62 43C49 28 50 29 50 0h371l29 180h-33c-8-51-15-80-21-89-5-5-35-7-90-7H139l97 95c68 64 154 133 183 186q30 52.5 30 105c0 118-92 196-212 196"/><path id="m" d="M192 53c0 29-24 53-53 53S86 82 86 53s24-53 53-53 53 24 53 53"/><path id="n" d="M249-22c141 0 211 114 211 342 0 153-32 255-95 305-35 27-74 41-115 41-141 0-211-115-211-346C39 136 88-22 249-22m112 546c7-35 10-99 10-192 0-92-4-160-11-204Q340.5 8 249 8c-23 0-46 9-67 26-27 23-43 70-50 142-3 25-4 77-4 156 0 87 3 148 8 181 9 55 27 90 55 105 22 12 41 18 58 18 65 0 101-53 112-112"/><path id="o" d="M237 666c-51 0-94-18-131-54s-56-78-56-129c0-34 25-59 56-59 30 0 55 26 55 56 0 33-24 56-56 56-3 0-5 0-7-1 19 49 63 92 126 92 82 0 128-71 128-157 0-67-34-139-102-215L62 43C49 28 50 29 50 0h371l29 180h-33c-8-51-15-80-21-89-5-5-35-7-90-7H139l97 95c68 64 154 133 183 186q30 52.5 30 105c0 118-92 196-212 196"/><path id="p" d="M192 53c0 29-24 53-53 53S86 82 86 53s24-53 53-53 53 24 53 53"/><path id="q" d="M118 315c5 0 11 4 16 11 30 45 71 67 123 67 35 0 62-20 80-61 11-27 17-68 17-123 0-63-8-107-23-133-25-41-59-62-102-62-67 0-120 48-138 100 3-1 5 0 9 0 30 0 55 23 55 53 0 31-25 52-55 52-35 0-50-19-50-56C50 63 131-22 231-22c61 0 113 22 155 66s63 97 63 158c0 58-17 108-51 151-37 47-83 70-139 70-47 0-88-15-121-45v178c27-8 53-12 80-12 46 0 86 11 120 34 31 19 52 38 64 56 6 8 9 14 9 17q0 15-15 15c-55-21-102-32-140-32-45 0-88 9-129 28-5 2-9 3-13 3-9 0-14-9-14-28V345c0-21 0-30 18-30"/><path id="r" d="M269 666q-61.5-63-180-63v-39c52 0 95 8 128 24V82c0-18-4-30-13-35s-34-8-74-8H95V0q37.5 3 162 3t162-3v39h-35c-41 0-66 3-74 8s-13 17-13 35v554c0 24-2 30-28 30"/><path id="w" d="M192 53c0 29-24 53-53 53S86 82 86 53s24-53 53-53 53 24 53 53"/><path id="x" d="M118 315c5 0 11 4 16 11 30 45 71 67 123 67 35 0 62-20 80-61 11-27 17-68 17-123 0-63-8-107-23-133-25-41-59-62-102-62-67 0-120 48-138 100 3-1 5 0 9 0 30 0 55 23 55 53 0 31-25 52-55 52-35 0-50-19-50-56C50 63 131-22 231-22c61 0 113 22 155 66s63 97 63 158c0 58-17 108-51 151-37 47-83 70-139 70-47 0-88-15-121-45v178c27-8 53-12 80-12 46 0 86 11 120 34 31 19 52 38 64 56 6 8 9 14 9 17q0 15-15 15c-55-21-102-32-140-32-45 0-88 9-129 28-5 2-9 3-13 3-9 0-14-9-14-28V345c0-21 0-30 18-30"/><path id="I" d="M698 270H80c-16 0-24-7-24-20s8-20 24-20h618c16 0 24 7 24 20 0 12-12 20-24 20"/><path id="J" d="M249-22c141 0 211 114 211 342 0 153-32 255-95 305-35 27-74 41-115 41-141 0-211-115-211-346C39 136 88-22 249-22m112 546c7-35 10-99 10-192 0-92-4-160-11-204Q340.5 8 249 8c-23 0-46 9-67 26-27 23-43 70-50 142-3 25-4 77-4 156 0 87 3 148 8 181 9 55 27 90 55 105 22 12 41 18 58 18 65 0 101-53 112-112"/><path id="K" d="M192 53c0 29-24 53-53 53S86 82 86 53s24-53 53-53 53 24 53 53"/><path id="L" d="M118 315c5 0 11 4 16 11 30 45 71 67 123 67 35 0 62-20 80-61 11-27 17-68 17-123 0-63-8-107-23-133-25-41-59-62-102-62-67 0-120 48-138 100 3-1 5 0 9 0 30 0 55 23 55 53 0 31-25 52-55 52-35 0-50-19-50-56C50 63 131-22 231-22c61 0 113 22 155 66s63 97 63 158c0 58-17 108-51 151-37 47-83 70-139 70-47 0-88-15-121-45v178c27-8 53-12 80-12 46 0 86 11 120 34 31 19 52 38 64 56 6 8 9 14 9 17q0 15-15 15c-55-21-102-32-140-32-45 0-88 9-129 28-5 2-9 3-13 3-9 0-14-9-14-28V345c0-21 0-30 18-30"/><path id="M" d="M611 501c0 57-31 103-92 138-51 29-108 44-170 44H35v-39h28c35 0 56-3 63-8s11-16 11-34V81c0-18-4-30-11-35s-28-8-63-8H35V-1c27 3 76 4 148 4 73 0 122-1 149-4v39h-28c-35 0-56 3-63 8s-11 17-11 35v246h110c64 0 111-38 122-92 2-11 3-35 3-70 0-27 1-47 2-59 6-84 79-128 167-128 38 0 65 16 80 47q18 34.5 18 66c0 13-6 20-17 20-9 0-15-6-16-19-5-56-26-84-61-84s-47 33-53 62c-6 34-10 60-13 77l-13 79c-15 52-52 90-111 113 76 22 163 76 163 162m-141 99c21-19 32-52 32-99 0-38-10-70-29-97-23-31-68-47-137-47H230v252q0 31.5 18 33c7 1 26 2 58 2 79 0 120-3 164-44"/><path id="N" d="M415 251c0 115-67 197-179 197-60 0-110-23-151-70-38-44-57-97-57-158 0-63 21-116 63-162q63-69 156-69c57 0 101 20 131 59 25 33 37 57 37 73 0 10-6 15-17 15-8 0-13-5-16-16q-33-99-129-99c-45 0-80 21-107 64-19 31-28 78-29 142h270c22 0 28 2 28 24m-89 98c11-33 16-65 16-94H118c3 66 20 111 50 134 25 20 47 30 68 30 45 0 75-23 90-70"/><path id="O" d="M555 683H235c-23 0-34-1-34-23 0-11 11-16 33-16 20 0 60 3 60-13 0-2-1-8-4-18L158 82c-6-22-16-35-30-40-7-2-25-3-56-3-22 0-32-2-32-23C40 5 46 0 59 0l125 3 64-1c11 0 51-2 64-2q24 0 24 24c0 10-11 15-32 15-40 0-60 4-60 13 0 0 1 3 3 16l60 244h165c65 0 127 20 185 59 65 43 97 96 97 159 0 99-94 153-199 153m-31-39c87 0 130-30 130-90 0-56-28-131-57-157q-57-51-150-51H313l66 264c8 34 8 34 50 34z"/><path id="P" d="M303 353c66 25 128 88 128 173 0 43-21 78-62 105-36 23-77 35-123 35-45 0-84-12-119-35-39-26-59-60-59-103 0-33 22-56 54-56s54 23 54 55c0 33-19 51-57 53 26 35 67 53 123 53 60 0 90-35 90-106 0-42-8-77-23-106-27-48-64-57-126-57-12-2-18-7-18-16 0-15 7-15 27-15h43c75 0 113-53 113-160 0-85-31-159-107-159-65 0-113 22-142 66 35-1 61 25 61 59s-25 59-59 59c-39 0-59-20-59-61 0-49 22-88 66-119 39-27 85-40 136-40 57 0 106 19 149 56s64 83 64 139c0 94-74 159-154 180"/><path id="T" d="M180 3q115.5 0 153-3v39h-29c-36 0-58 2-65 7s-11 17-11 35v521c0 18 4 29 11 34s29 8 65 8h29v39c-25-2-76-3-152-3q-115.5 0-153 3v-39h29c36 0 58-3 65-8s11-16 11-34V81c0-18-4-30-11-35s-29-7-65-7H28V0c25 2 76 3 152 3"/><path id="V" d="M315 413c46 0 69-35 69-106V79c0-19-3-31-10-35s-30-6-67-6V0l116 3 115-3v38q-55.5 0-66 6c-7 4-11 16-11 35v180c0 80 52 154 129 154 47 0 70-35 70-106V79c0-19-4-31-11-35s-30-6-67-6V0l116 3 115-3v38c-32 0-53 1-63 4s-14 10-14 22v187c0 47-2 80-5 99-10 61-55 92-134 92-63 0-110-29-142-88-14 59-58 88-133 88-63 0-111-30-143-90v90L32 431v-38q54 0 66-9c8-6 11-19 11-42V79c0-19-4-31-11-35q-10.5-6-66-6V0l116 3 115-3v38c-37 0-60 2-67 6s-11 16-11 35v180c0 81 53 154 130 154"/><path id="W" d="M555 683H235c-23 0-34-1-34-23 0-11 11-16 33-16 20 0 60 3 60-13 0-2-1-8-4-18L158 82c-6-22-16-35-30-40-7-2-25-3-56-3-22 0-32-2-32-23C40 5 46 0 59 0l125 3 64-1c11 0 51-2 64-2q24 0 24 24c0 10-11 15-32 15-40 0-60 4-60 13 0 0 1 3 3 16l60 244h165c65 0 127 20 185 59 65 43 97 96 97 159 0 99-94 153-199 153m-31-39c87 0 130-30 130-90 0-56-28-131-57-157q-57-51-150-51H313l66 264c8 34 8 34 50 34z"/><path id="X" d="M303 353c66 25 128 88 128 173 0 43-21 78-62 105-36 23-77 35-123 35-45 0-84-12-119-35-39-26-59-60-59-103 0-33 22-56 54-56s54 23 54 55c0 33-19 51-57 53 26 35 67 53 123 53 60 0 90-35 90-106 0-42-8-77-23-106-27-48-64-57-126-57-12-2-18-7-18-16 0-15 7-15 27-15h43c75 0 113-53 113-160 0-85-31-159-107-159-65 0-113 22-142 66 35-1 61 25 61 59s-25 59-59 59c-39 0-59-20-59-61 0-49 22-88 66-119 39-27 85-40 136-40 57 0 106 19 149 56s64 83 64 139c0 94-74 159-154 180"/><path id="Y" d="M759 0c17 0 26 4 26 13L445 696c-7 13-16 20-29 20s-22-7-29-20L52 25c-3-7-5-11-5-13 0-8 9-12 26-12m311 604L644 83H124Z"/><path id="aa" d="M318-248c9 0 14 5 14 14 0 3-2 7-5 11-52 40-94 106-125 197-27 79-41 157-41 234v84c0 77 14 155 41 234 31 91 73 157 125 197 3 3 5 7 5 11 0 9-5 14-14 14-1 0-4-1-7-3-60-46-110-114-151-205-39-87-59-169-59-248v-84c0-79 20-161 59-248 41-91 91-159 151-205 3-2 6-3 7-3"/><path id="ab" d="M269 666q-61.5-63-180-63v-39c52 0 95 8 128 24V82c0-18-4-30-13-35s-34-8-74-8H95V0q37.5 3 162 3t162-3v39h-35c-41 0-66 3-74 8s-13 17-13 35v554c0 24-2 30-28 30"/><path id="ac" d="M237 666c-51 0-94-18-131-54s-56-78-56-129c0-34 25-59 56-59 30 0 55 26 55 56 0 33-24 56-56 56-3 0-5 0-7-1 19 49 63 92 126 92 82 0 128-71 128-157 0-67-34-139-102-215L62 43C49 28 50 29 50 0h371l29 180h-33c-8-51-15-80-21-89-5-5-35-7-90-7H139l97 95c68 64 154 133 183 186q30 52.5 30 105c0 118-92 196-212 196"/><path id="ae" d="M303 353c66 25 128 88 128 173 0 43-21 78-62 105-36 23-77 35-123 35-45 0-84-12-119-35-39-26-59-60-59-103 0-33 22-56 54-56s54 23 54 55c0 33-19 51-57 53 26 35 67 53 123 53 60 0 90-35 90-106 0-42-8-77-23-106-27-48-64-57-126-57-12-2-18-7-18-16 0-15 7-15 27-15h43c75 0 113-53 113-160 0-85-31-159-107-159-65 0-113 22-142 66 35-1 61 25 61 59s-25 59-59 59c-39 0-59-20-59-61 0-49 22-88 66-119 39-27 85-40 136-40 57 0 106 19 149 56s64 83 64 139c0 94-74 159-154 180"/><path id="af" d="M78-245c60 46 110 114 151 205 39 87 59 169 59 248v84c0 79-20 161-59 248-41 91-91 159-151 205-3 2-6 3-7 3-9 0-14-5-14-14 0-4 2-8 5-11 52-40 94-106 125-197 27-79 41-157 41-234v-84c0-77-14-155-41-234-31-91-73-157-125-197-3-4-5-8-5-11 0-9 5-14 14-14 1 0 4 1 7 3"/></defs><g style="display:inline" transform="translate(-5.86 -56.295)"><g style="stroke:#da3;stroke-width:2;stroke-dasharray:2,6;stroke-dashoffset:0"><path d="M377.348 401.36V160.837" style="font-variation-settings:normal;opacity:1;fill:none;fill-opacity:1;stroke:#e6332a;stroke-width:2;stroke-linecap:round;stroke-linejoin:round;stroke-miterlimit:4;stroke-dasharray:2,6;stroke-dashoffset:0;stroke-opacity:1" transform="translate(-255.249 -100.541)"/></g><path d="M61.176 219.849c9.03-10.358 18.007-24.823 23.595-37.679 4.61-10.607 6.61-17.21 11.479-29.371 1.523-3.804 7.361-14.02 12.592-5.932 1.87 2.891 2.553 4.797 3.61 8.77 1.535 5.772 3.086 19.145 4.711 31.686 1.671 12.925 3.789 25.5 5.935 38.414 2.066 11.645 4.357 23.29 7.592 34.91 2.028 7.282 3.569 14.595 7.407 21.81 1.732 3.26 3.166 6.585 7.037 9.67 1.178.94 5.189 3.728 11.85 4.272 8.015.655 23.915-4.621 29.624-6.633 9.877-3.48 26.212-11.287 34.07-15.853 3.788-2.2 23.775-16.019 25.182-17.09 2.105-1.6 3.8-3.248 5.702-4.872q.472-.405.965-.805c3.941-3.507 8.652-6.916 14.441-10.175 4.013-2.258 6.26-3.424 13.888-6.015 7.124-2.526 16.548-3.92 27.033-4.609 7.045-.447 14.301-.511 21.478-.675 5.237-.12 10.579.074 15.739-.224 7.113-.412 14.309-1.023 20.553-2.137 6.369-1.135 11.363-2.88 16.479-4.497 5.161-1.632 9.738-3.43 14.256-5.228 6.584-2.62 11.595-5.603 18.702-8.095 3.774-1.323 7.688-2.678 12.592-3.598 2.77-.518 5.855-.862 9.072-1.012 4.464-.202 9.133-.1 13.517.225 6.12.453 11.789 1.394 17.221 2.362 6.887 1.226 13.187 2.751 19.255 4.328 4.478 1.162 8.09 2.612 12.592 3.766 7.5 1.923 15.727 3.571 23.886 5.228 6.819 1.385 13.939 2.628 20.924 3.935 14.976 2.803 29.843 5.661 44.993 8.376 7.212 1.292 14.525 2.534 21.849 3.767 9.514 1.602 28.7 4.722 28.7 4.722" style="font-variation-settings:normal;fill:none;fill-opacity:1;stroke:#003560;stroke-width:3;stroke-linecap:round;stroke-linejoin:round;stroke-miterlimit:4;stroke-dasharray:none;stroke-dashoffset:0;stroke-opacity:1;stop-color:#000"/><path d="M307.993 223.474s6.494.108 9.716 0c2.583-.087 5.37-.091 7.64-.52 2.218-.418 3.722-1.185 5.21-1.882 2.198-1.03 3.981-2.172 5.381-3.352 3.285-2.772 5.11-5.725 6.946-8.646 2.28-3.63 3.773-7.314 5.033-11 2.08-6.075 2.904-12.191 4.168-18.292 1.478-7.133 2.61-14.274 3.995-21.41 1.227-6.334 2.658-12.663 3.818-18.998 2.438-13.308 3.665-26.708 6.598-39.938 1.273-5.744 2.297-11.55 3.82-17.233.955-3.561 2.442-9.085 6.03-10.586 1.844-.772 3.759.502 5.084 1.998 3.043 3.436 4.055 9.51 5.902 14.704 1.98 5.57 4.283 11.02 6.425 16.529 3.6 9.263 6.4 18.553 10.939 27.762q3.496 7.074 8.334 14.057c5.3 7.669 10.966 15.322 18.057 22.822 2.468 2.61 5.466 5.164 8.507 7.705 3.962 3.311 8.116 6.6 12.675 9.823 4.267 3.012 8.879 5.97 13.717 8.881 4.447 2.675 8.918 5.355 14.065 7.881 2.878 1.415 5.898 2.809 9.376 4.06a79 79 0 0 0 7.465 2.234c2.674.67 5.336 1.427 8.509 1.765q.68.072 1.388.109c1.425.076 2.91.057 4.341.009 2.025-.068 4.062-.236 5.904-.53 3.604-.574 6.606-1.512 9.724-2.352 3.625-.977 6.852-2.115 10.416-3.117 3.84-1.08 7.595-2.212 11.808-3.118 4.437-.953 9.114-1.814 14.063-2.411a79 79 0 0 1 7.119-.53c3.867-.113 7.824-.078 11.633.177 4.706.314 9.1 1.035 13.546 1.646 5.949.82 11.87 1.68 17.534 2.706 4.744.86 8.983 2.016 13.717 2.882 4.83.884 9.722 1.766 14.932 2.353 3.48.392 7.102.71 10.766.765 4.367.064 8.934-.005 13.021-.53 3.618-.464 6.632-1.374 9.551-2.235 6.455-1.905 11.289-4.367 17.362-6.411a414 414 0 0 1 22.05-6.764c5.559-1.532 11.178-3.069 17.365-4.294 7.467-1.48 15.468-2.658 23.612-3.647 9.529-1.156 19.385-2.033 29.345-2.646 9.155-.564 18.567-.495 27.78-.941 12.474-.606 24.78-1.555 37.157-2.353q23.274-1.515 46.532-3.059" style="fill:none;stroke:#8dae10;stroke-width:3;stroke-linecap:round;stroke-linejoin:round;stroke-dasharray:none;stroke-opacity:1" transform="translate(-255.249 -3.621)"/><g aria-level="0" data-latex="\text{energy [GeV]}" data-mml-node="mtext" data-semantic-annotation="clearspeak:unit;nemeth:number;depth:1" data-semantic-attributes="latex:\text{energy [GeV]}" data-semantic-font="normal" data-semantic-id="0" data-semantic-role="text" data-semantic-type="text" data-speech-node="true" style="fill:#000;stroke:#000;stroke-width:0" transform="matrix(.0181 0 0 -.0181 316.607 255.66)"><use xlink:href="#a" data-c="65"/><use xlink:href="#b" data-c="6E" transform="translate(444)"/><use xlink:href="#a" data-c="65" transform="translate(1000)"/><use xlink:href="#c" data-c="72" transform="translate(1444)"/><use xlink:href="#d" data-c="67" transform="translate(1836)"/><use xlink:href="#e" data-c="79" transform="translate(2336)"/><use xlink:href="#f" data-c="5B" transform="translate(3196)"/><use xlink:href="#g" data-c="47" transform="translate(3474)"/><use xlink:href="#a" data-c="65" transform="translate(4259)"/><use xlink:href="#h" data-c="56" transform="translate(4703)"/><use xlink:href="#j" data-c="5D" transform="translate(5453)"/></g><use xlink:href="#k" data-c="30" style="fill:#000;stroke:#000;stroke-width:0" transform="matrix(.0181 0 0 -.0181 35.505 225.35)"/><path d="M52.744 219.853h588.058" style="display:inline;fill:none;stroke:#000;stroke-width:1.7;stroke-linecap:round;stroke-linejoin:round;stroke-opacity:1"/><g aria-level="0" data-latex="2" data-mml-node="mn" data-semantic-annotation="clearspeak:simple;nemeth:number;depth:1" data-semantic-attributes="latex:2.0" data-semantic-font="normal" data-semantic-id="0" data-semantic-role="float" data-semantic-type="number" data-speech-node="true" style="fill:#000;stroke:#000;stroke-width:0" transform="matrix(.0181 0 0 -.0181 451.94 239.98)"><use xlink:href="#l" data-c="32"/><use xlink:href="#m" data-c="2E" transform="translate(500)"/><use xlink:href="#n" data-c="30" transform="translate(778)"/></g><g aria-level="0" data-latex="2.5" data-mml-node="mn" data-semantic-annotation="clearspeak:simple;nemeth:number;depth:1" data-semantic-attributes="latex:2.5" data-semantic-font="normal" data-semantic-id="0" data-semantic-role="float" data-semantic-type="number" data-speech-node="true" style="fill:#000;stroke:#000;stroke-width:0" transform="matrix(.0181 0 0 -.0181 630.303 238.566)"><use xlink:href="#o" data-c="32"/><use xlink:href="#p" data-c="2E" transform="translate(500)"/><use xlink:href="#q" data-c="35" transform="translate(778)"/></g><g aria-level="0" data-latex="1.5" data-mml-node="mn" data-semantic-annotation="clearspeak:simple;nemeth:number;depth:1" data-semantic-attributes="latex:1.5" data-semantic-font="normal" data-semantic-id="0" data-semantic-role="float" data-semantic-type="number" data-speech-node="true" style="fill:#000;stroke:#000;stroke-width:0" transform="matrix(.0181 0 0 -.0181 230.133 238.865)"><use xlink:href="#r" data-c="31"/><use xlink:href="#w" data-c="2E" transform="translate(500)"/><use xlink:href="#x" data-c="35" transform="translate(778)"/></g><path d="M52.744 219.853v4.077m588.058-4.077v4.077m-44.394-4.077v4.077m-44.393-4.077v4.077m-44.397-4.077v4.077m-44.393-4.077v4.077m-44.394-4.077v4.077m-44.395-4.077v4.077m-44.395-4.077v4.077m-44.392-4.077v4.077m-44.397-4.077v4.077m-44.393-4.077v4.077m-44.395-4.077v4.077m-44.394-4.077v4.077m-44.395-4.077v4.077" style="display:inline;fill:none;stroke:#000;stroke-width:1.7;stroke-linecap:round;stroke-linejoin:round;stroke-opacity:1"/><g aria-level="0" data-latex="1" data-mml-node="mn" data-semantic-annotation="clearspeak:simple;nemeth:number;depth:1" data-semantic-attributes="latex:1.0" data-semantic-font="normal" data-semantic-id="0" data-semantic-role="float" data-semantic-type="number" data-speech-node="true" style="fill:#000;stroke:#000;stroke-width:0" transform="matrix(.0181 0 0 -.0181 20.014 73.39)"><use xlink:href="#y" data-c="31"/><use xlink:href="#z" data-c="2E" transform="translate(500)"/><use xlink:href="#A" data-c="30" transform="translate(778)"/></g><g aria-level="0" data-latex=".5" data-mml-node="mn" data-semantic-annotation="clearspeak:simple;nemeth:number;depth:1" data-semantic-attributes="latex:0.5" data-semantic-font="normal" data-semantic-id="0" data-semantic-role="float" data-semantic-type="number" data-speech-node="true" style="fill:#000;stroke:#000;stroke-width:0" transform="matrix(.0181 0 0 -.0181 21.93 148.995)"><use xlink:href="#E" data-c="30"/><use xlink:href="#F" data-c="2E" transform="translate(500)"/><use xlink:href="#H" data-c="35" transform="translate(778)"/></g><path d="M52.744 257.825h-5.745m5.745 38.638h-5.745m5.745 0h-5.745M52.744 67.09h-5.745m5.745 37.515h-5.745m5.745 38.638h-5.745m5.745 76.61h-5.745m5.745-38.638h-5.745" style="display:inline;fill:none;stroke:#000;stroke-width:1.7;stroke-linecap:round;stroke-linejoin:round;stroke-opacity:1"/><path d="M52.744 296.463V67.09" style="font-variation-settings:normal;vector-effect:none;fill:none;fill-opacity:1;stroke:#000;stroke-width:1.7;stroke-linecap:round;stroke-linejoin:round;stroke-miterlimit:4;stroke-dasharray:none;stroke-dashoffset:0;stroke-opacity:1;-inkscape-stroke:none;stop-color:#000"/><g aria-level="0" data-latex="{-}0.5" data-mml-node="math" data-semantic-annotation="clearspeak:simple;depth:1" data-semantic-attributes="latex:{-}0.5" data-semantic-children="1" data-semantic-content="0" data-semantic-id="2" data-semantic-owns="0 1" data-semantic-role="negative" data-semantic-structure="(2 0 1)" data-semantic-type="prefixop" data-speech-node="true" style="fill:#000;stroke:#000;stroke-width:0"><g data-latex="{-}" data-mjx-texclass="ORD" data-mml-node="TeXAtom"><use xlink:href="#I" aria-level="1" data-c="2212" data-latex="-" data-mml-node="mo" data-semantic-annotation="nemeth:number;depth:2" data-semantic-attributes="latex:{-};texclass:ORD" data-semantic-id="0" data-semantic-operator="prefixop,−" data-semantic-parent="2" data-semantic-role="subtraction" data-semantic-type="operator" data-speech-node="true" transform="matrix(.0181 0 0 -.0181 7.847 302.408)"/></g><g aria-level="1" data-latex=".5" data-mml-node="mn" data-semantic-annotation="clearspeak:simple;nemeth:number;depth:2" data-semantic-attributes="latex:.5" data-semantic-font="normal" data-semantic-id="1" data-semantic-parent="2" data-semantic-role="float" data-semantic-type="number" data-speech-node="true" transform="matrix(.0181 0 0 -.0181 21.93 302.408)"><use xlink:href="#J" data-c="30"/><use xlink:href="#K" data-c="2E" transform="translate(500)"/><use xlink:href="#L" data-c="35" transform="translate(778)"/></g></g><g aria-level="0" data-latex="\mathrm{Re}\,P_{33}" data-mml-node="math" data-semantic-annotation="clearspeak:unit;depth:1" data-semantic-attributes="latex:\mathrm{Re}\,P_{33}" data-semantic-children="0,4" data-semantic-content="5" data-semantic-id="6" data-semantic-owns="0 5 4" data-semantic-role="implicit" data-semantic-structure="(6 0 5 (4 2 3))" data-semantic-type="infixop" data-speech-node="true" style="fill:#003560;fill-opacity:1;stroke:none;stroke-width:0"><g data-latex="\mathrm{Re}" data-mjx-texclass="ORD" data-mml-node="TeXAtom" style="fill:#003560;fill-opacity:1;stroke:none"><g aria-level="1" data-latex="Re" data-mml-node="mi" data-semantic-annotation="nemeth:number;depth:2" data-semantic-attributes="latex:\mathrm{Re};texclass:ORD" data-semantic-font="normal" data-semantic-id="0" data-semantic-parent="6" data-semantic-role="unknown" data-semantic-type="identifier" data-speech-node="true" style="fill:#003560;fill-opacity:1;stroke:none" transform="matrix(.0181 0 0 -.0181 541.725 251.984)"><use xlink:href="#M" data-c="52" style="fill:#003560;fill-opacity:1;stroke:none"/><use xlink:href="#N" data-c="65" style="fill:#003560;fill-opacity:1;stroke:none" transform="translate(736)"/></g></g><g aria-level="1" data-latex="P_{3}" data-mml-node="msub" data-semantic-annotation="depth:2" data-semantic-attributes="latex:P_{3}" data-semantic-children="2,3" data-semantic-id="4" data-semantic-owns="2 3" data-semantic-parent="6" data-semantic-role="latinletter" data-semantic-type="subscript" data-speech-node="true" style="fill:#003560;fill-opacity:1;stroke:none"><use xlink:href="#O" aria-level="2" data-c="1D443" data-latex="P" data-mml-node="mi" data-semantic-annotation="clearspeak:simple;depth:3" data-semantic-attributes="latex:P" data-semantic-font="italic" data-semantic-id="2" data-semantic-parent="4" data-semantic-role="latinletter" data-semantic-type="identifier" data-speech-node="true" style="fill:#003560;fill-opacity:1;stroke:none" transform="matrix(.0181 0 0 -.0181 566.106 251.984)"/><g data-latex="{3}" data-mjx-texclass="ORD" data-mml-node="TeXAtom" style="fill:#003560;fill-opacity:1;stroke:none"><g aria-level="2" data-latex="3" data-mml-node="mn" data-semantic-annotation="clearspeak:simple;depth:3" data-semantic-attributes="latex:{3};texclass:ORD" data-semantic-font="normal" data-semantic-id="3" data-semantic-parent="4" data-semantic-role="integer" data-semantic-type="number" data-speech-node="true" style="fill:#003560;fill-opacity:1;stroke:none" transform="matrix(.0128 0 0 -.0128 578.324 254.7)"><use xlink:href="#P" data-c="33" style="fill:#003560;fill-opacity:1;stroke:none"/><use xlink:href="#P" data-c="33" style="fill:#003560;fill-opacity:1;stroke:none" transform="translate(500)"/></g></g></g></g><g aria-level="0" data-latex="\mathrm{Im}\,P_{33}" data-mml-node="math" data-semantic-annotation="clearspeak:unit;depth:1" data-semantic-attributes="latex:\mathrm{Im}\,P_{33}" data-semantic-children="0,4" data-semantic-content="5" data-semantic-id="6" data-semantic-owns="0 5 4" data-semantic-role="implicit" data-semantic-structure="(6 0 5 (4 2 3))" data-semantic-type="infixop" data-speech-node="true" style="fill:#8dae10;fill-opacity:1;stroke:#000;stroke-width:0"><g data-latex="\mathrm{Im}" data-mjx-texclass="ORD" data-mml-node="TeXAtom" style="fill:#8dae10;fill-opacity:1"><g aria-level="1" data-latex="Im" data-mml-node="mi" data-semantic-annotation="nemeth:number;depth:2" data-semantic-attributes="latex:\mathrm{Im};texclass:ORD" data-semantic-font="normal" data-semantic-id="0" data-semantic-parent="6" data-semantic-role="unknown" data-semantic-type="identifier" data-speech-node="true" style="fill:#8dae10;fill-opacity:1" transform="matrix(.0181 0 0 -.0181 537.609 168.84)"><use xlink:href="#T" data-c="49" style="fill:#8dae10;fill-opacity:1"/><use xlink:href="#V" data-c="6D" style="fill:#8dae10;fill-opacity:1" transform="translate(361)"/></g></g><g aria-level="1" data-latex="P_{3}" data-mml-node="msub" data-semantic-annotation="depth:2" data-semantic-attributes="latex:P_{3}" data-semantic-children="2,3" data-semantic-id="4" data-semantic-owns="2 3" data-semantic-parent="6" data-semantic-role="latinletter" data-semantic-type="subscript" data-speech-node="true" style="fill:#8dae10;fill-opacity:1"><use xlink:href="#W" aria-level="2" data-c="1D443" data-latex="P" data-mml-node="mi" data-semantic-annotation="clearspeak:simple;depth:3" data-semantic-attributes="latex:P" data-semantic-font="italic" data-semantic-id="2" data-semantic-parent="4" data-semantic-role="latinletter" data-semantic-type="identifier" data-speech-node="true" style="fill:#8dae10;fill-opacity:1" transform="matrix(.0181 0 0 -.0181 562.241 168.84)"/><g data-latex="{3}" data-mjx-texclass="ORD" data-mml-node="TeXAtom" style="fill:#8dae10;fill-opacity:1"><g aria-level="2" data-latex="3" data-mml-node="mn" data-semantic-annotation="clearspeak:simple;depth:3" data-semantic-attributes="latex:{3};texclass:ORD" data-semantic-font="normal" data-semantic-id="3" data-semantic-parent="4" data-semantic-role="integer" data-semantic-type="number" data-speech-node="true" style="fill:#8dae10;fill-opacity:1" transform="matrix(.0128 0 0 -.0128 574.458 171.554)"><use xlink:href="#X" data-c="33" style="fill:#8dae10;fill-opacity:1"/><use xlink:href="#X" data-c="33" style="fill:#8dae10;fill-opacity:1" transform="translate(500)"/></g></g></g></g></g><g aria-level="0" data-latex="\Delta(1232)" data-mml-node="math" data-semantic-annotation="clearspeak:simple;depth:1" data-semantic-attributes="latex:\Delta(1232)" data-semantic-children="0,4" data-semantic-content="5,0" data-semantic-id="6" data-semantic-owns="0 5 4" data-semantic-role="simple function" data-semantic-structure="(6 0 5 (4 1 2 3))" data-semantic-type="appl" data-speech-node="true" style="fill:#e6332a;stroke:#000;stroke-width:0"><use xlink:href="#Y" aria-level="1" data-c="394" data-latex="\Delta" data-mml-node="mi" data-semantic-annotation="clearspeak:simple;nemeth:number;depth:2" data-semantic-attributes="latex:\Delta" data-semantic-font="normal" data-semantic-id="0" data-semantic-operator="appl" data-semantic-parent="6" data-semantic-role="simple function" data-semantic-type="identifier" data-speech-node="true" style="fill:#e6332a" transform="matrix(0 -.0181 -.0181 0 106.989 246.524)"/><g aria-level="1" data-mml-node="mrow" data-semantic-added="true" data-semantic-annotation="depth:2" data-semantic-children="2" data-semantic-content="1,3" data-semantic-id="4" data-semantic-owns="1 2 3" data-semantic-parent="6" data-semantic-role="leftright" data-semantic-type="fenced" data-speech-node="true" style="fill:#e6332a"><use xlink:href="#aa" aria-level="2" data-c="28" data-latex="(" data-mml-node="mo" data-semantic-annotation="depth:3" data-semantic-attributes="latex:(" data-semantic-id="1" data-semantic-operator="fenced" data-semantic-parent="4" data-semantic-role="open" data-semantic-type="fence" data-speech-node="true" style="fill:#e6332a" transform="matrix(0 -.0181 -.0181 0 106.989 231.45)"/><g aria-level="2" data-latex="232" data-mml-node="mn" data-semantic-annotation="clearspeak:simple;depth:3" data-semantic-attributes="latex:232" data-semantic-font="normal" data-semantic-id="2" data-semantic-parent="4" data-semantic-role="integer" data-semantic-type="number" data-speech-node="true" style="fill:#e6332a" transform="matrix(0 -.0181 -.0181 0 106.989 224.41)"><use xlink:href="#ab" data-c="31" style="fill:#e6332a"/><use xlink:href="#ac" data-c="32" style="fill:#e6332a" transform="translate(500)"/><use xlink:href="#ae" data-c="33" style="fill:#e6332a" transform="translate(1000)"/><use xlink:href="#ac" data-c="32" style="fill:#e6332a" transform="translate(1500)"/></g><use xlink:href="#af" aria-level="2" data-c="29" data-latex=")" data-mml-node="mo" data-semantic-annotation="depth:3" data-semantic-attributes="latex:)" data-semantic-id="3" data-semantic-operator="fenced" data-semantic-parent="4" data-semantic-role="close" data-semantic-type="fence" data-speech-node="true" style="fill:#e6332a" transform="matrix(0 -.0181 -.0181 0 106.989 188.218)"/></g></g></svg>