<svg xmlns="http://www.w3.org/2000/svg" xmlns:cc="http://creativecommons.org/ns#" xmlns:dc="http://purl.org/dc/elements/1.1/" xmlns:inkscape="http://www.inkscape.org/namespaces/inkscape" xmlns:rdf="http://www.w3.org/1999/02/22-rdf-syntax-ns#" xmlns:sodipodi="http://sodipodi.sourceforge.net/DTD/sodipodi-0.dtd" xmlns:xlink="http://www.w3.org/1999/xlink" inkscape:version="1.4.2 (1:1.4.2+202505120737+ebf0e940d0)" sodipodi:docname="dynamics-propagator-vertices.svg" xml:space="preserve" width="281.737" height="119.245" viewBox="0 0 37.271 15.775"><sodipodi:namedview inkscape:current-layer="svg48" inkscape:cx="140.71" inkscape:cy="59.623" inkscape:deskcolor="#d1d1d1" inkscape:pagecheckerboard="0" inkscape:pageopacity="0" inkscape:showpageshadow="2" inkscape:window-height="1371" inkscape:window-maximized="1" inkscape:window-width="2560" inkscape:window-x="0" inkscape:window-y="32" inkscape:zoom="3.145" bordercolor="#000000" borderopacity=".25" pagecolor="#ffffff"/><defs><path id="a" d="M208 74q0-24 46-28 18 0 18-11 0-1-2-13-3-14-6-18t-13-4h-12q-10 0-34 1t-64 1Q70 2 50 0h-8q-7 7-7 11 2 27 13 35h14q70 3 102 50 6 6 181 305t178 303q7 12 24 12h25q6-9 6-10l28-323q28-323 30-326 5-11 65-11 25 0 25-10 0-2-3-14-3-15-5-18t-14-4h-14q-11 0-39 1t-73 1q-94 0-123-2h-12q-6 6-6 9t2 18q4 13 6 16l4 3h20q54 3 64 17l-12 150H283l-34-58q-41-69-41-81m308 186q0 11-12 156t-14 146l-27-43q-16-27-63-107l-90-152 103-1q103 0 103 1"/><path id="b" d="M231 637q-27 0-32 1t-5 11q0 27 11 33 1 1 130 1 259 0 273-2 63-10 105-45t43-92q0-64-58-115t-133-69l-10-3q64-9 105-46t42-92q0-73-72-141T453 1q-7-1-211-1Q42 0 39 2q-4 3-4 8 0 7 2 14 5 19 10 21 4 1 15 1h6q27 0 60 3 14 3 19 12 3 4 72 278t69 289q0 7-57 9m418-93q0 30-15 56t-49 34q-7 2-92 3h-42q-22 0-35-1h-13q-15-1-19-10-2-4-32-120 0-3-1-6l-31-126h81q81 0 93 2 60 10 107 58t48 110m-54-315q0 44-23 73t-60 34q-6 1-83 1-118 0-119-1 0-2-17-73t-35-141l-18-70q0-4 12-4t81-2q89 0 96 1 62 7 114 58t52 124"/><path id="c" d="M50 252q0 115 67 221t169 168 204 63q90 0 143-51 9-10 15-17t8-10l1-3q3 0 27 26 7 6 15 14l16 16q8 8 10 11l15 15h6q14 0 14-7 0-4-32-137-36-139-36-140-2-5-5-6t-18-2h-16q-6 6-6 9 0 1 1 7t2 20 1 32q0 71-32 124t-109 54q-26 0-56-7t-72-24-83-56-73-93q-32-57-51-133t-19-124q0-114 76-164 48-34 118-34 91 0 162 68t94 148q4 13 6 15t16 2q20 0 20-9 0-5-1-9-29-107-124-184T319-22q-113 0-191 75T50 252"/><path id="d" d="M287 628q0 7-57 9-23 0-30 1t-7 9 4 20 7 15q2 1 199 1 167-1 187-1t40-6q72-17 122-79t51-166q0-156-107-280T444 3l-14-2-194-1H72Q48 0 41 2t-8 9q0 2 3 14 4 16 8 18t23 3q27 0 60 3 14 3 19 12 3 4 72 278t69 289m416-159q0 38-11 68t-26 47-37 29-39 16-35 7h-43q-17 0-33 1h-43q-44 0-50-10-2-4-73-288T242 52q0-4 11-4t77-1h19q14 0 24-1 126 0 208 82 36 36 59 84t43 127 20 130"/><path id="e" d="M447 625q0 12-93 12h-25q-6 5-6 8t2 19q4 13 10 19h17q41-2 146-2h70q27 0 37 1t14 0q14 0 14-10 0-2-3-14-4-16-7-18t-19-3q-52 0-59-14-4-13-62-247-63-248-64-249-22-63-86-106T195-22q-58 0-98 30T57 88q0 42 23 64t52 22q45 0 50-44 0-32-18-50t-41-24q-8-2-8-3t7-9q26-29 75-29 38 0 74 32t53 83q4 12 63 250t60 245"/><path id="f" d="M21 287q1 6 3 16t12 38 20 47 33 37 46 17q36 0 60-18t30-34 6-21q0-2 1-2l11 11q61 64 139 64 54 0 87-27t34-79-38-157-38-127q0-26 17-26 6 0 9 1 29 5 52 38t35 80q2 8 20 8 20 0 20-8 0-1-4-15-8-29-22-57t-46-56-69-27q-47 0-68 27t-21 56q0 19 36 120t37 152q0 59-44 59h-5q-86 0-145-101l-7-12-33-134Q156 26 151 16q-13-27-43-27-13 0-21 6T76 7t-2 10q0 13 38 163t40 163q1 5 1 23 0 39-24 39-38 0-63-100-6-20-6-21-2-6-19-6H27q-6 6-6 9"/><path id="g" d="M345 104h4l12-9 8-15-17-21q-84-79-146-79-36 0-60 23t-33 50-14 51l-5 25q0 1-15-13T48 86 28 70q-6 0-13 9T7 94q0 4 5 9t46 44l33 32v12q0 5 1 9 0 82 36 200t95 212 113 93q61 0 61-69v-9q0-174-203-394-9-10-14-15t-6-7-3-3-6-7l-2-15q-4-44-4-63 0-106 49-106 20 0 45 13t40 26 42 38q10 10 14 10zm15 530q0 21-6 27t-18 7q-8 0-14-2t-20-21-30-53q-20-45-43-125t-37-137l-13-57q0-1 7 7t18 20 17 22q106 131 134 268 5 22 5 44"/><path id="h" d="M29-194q-6 6-6 8 0 3 79 320t84 331q22 68 57 119t66 74q56 47 120 47h2q62 0 102-38t40-97q0-105-104-174l13-13q51-51 51-131 0-113-85-187T257-10q-30 0-54 8t-38 19-22 23-12 19-5 6L62-188q-2-6-20-6zm324 625q39 0 74-12l5 3 7 7 10 10q7 7 12 14t11 18 12 24 9 29 8 36q2 9 2 33 0 18-1 23-15 51-76 51-42 0-79-24t-61-61-39-68-23-59q-5-16-38-147t-34-140q-1-5-1-21 0-48 22-79 31-42 87-42 42 0 89 25t76 86q16 34 24 77t8 65q0 58-35 93-42-14-75-14h-10q-79 0-79 31 0 7 3 14 14 28 92 28"/><path id="i" d="M94 250q0 69 10 131t23 107 37 88 38 67 42 52 33 34 25 21h17q14 0 14-9 0-3-17-21t-41-53-49-86-42-138-17-193 17-192 41-139 49-86 42-53 17-21q0-9-15-9h-16l-28 24q-94 85-137 212T94 250"/><path id="j" d="M131 289q0 32 16 65t56 61 97 27q62 0 90-27t29-60q0-32-17-47t-38-16q-13 0-24 8t-12 26q0 16 9 28t17 18 13 6q1 0 1 1 0 3-7 9t-25 11-39 6q-48 0-70-26t-23-53q0-25 19-35t55-17 52-15q66-29 66-96 0-28-11-56t-33-56-63-44-94-17q-77 0-109 29T53 87q0 39 21 56t44 17q15 0 28-9t14-31q0-26-18-44t-31-18q-2-1-3-1t-1-2q1-3 8-8t31-13 55-7q36 0 62 11t38 28 17 31 5 25q0 28-21 42t-48 17-59 15-47 35q-17 25-17 58"/><path id="k" d="m60 749 4 1h22l28-24q94-85 137-212t43-264q0-68-10-131T261 12t-37-88-38-67-41-51-32-33-23-19l-4-4H63q-3 0-5 3t-3 9q1 1 11 13Q221-64 221 250T66 725q-10 12-11 13 0 8 5 11"/><path id="l" d="M21 287q1 6 3 16t12 38 20 47 33 37 46 17q36 0 60-18t30-34 6-21q0-2 1-2l11 11q61 64 139 64 54 0 87-27t34-79-38-157-38-127q0-26 17-26 6 0 9 1 29 5 52 38t35 80q2 8 20 8 20 0 20-8 0-1-4-15-8-29-22-57t-46-56-69-27q-47 0-68 27t-21 56q0 19 36 120t37 152q0 59-44 59h-5q-86 0-145-101l-7-12-33-134Q156 26 151 16q-13-27-43-27-13 0-21 6T76 7t-2 10q0 13 38 163t40 163q1 5 1 23 0 39-24 39-38 0-63-100-6-20-6-21-2-6-19-6H27q-6 6-6 9"/><path id="m" d="M345 104h4l12-9 8-15-17-21q-84-79-146-79-36 0-60 23t-33 50-14 51l-5 25q0 1-15-13T48 86 28 70q-6 0-13 9T7 94q0 4 5 9t46 44l33 32v12q0 5 1 9 0 82 36 200t95 212 113 93q61 0 61-69v-9q0-174-203-394-9-10-14-15t-6-7-3-3-6-7l-2-15q-4-44-4-63 0-106 49-106 20 0 45 13t40 26 42 38q10 10 14 10zm15 530q0 21-6 27t-18 7q-8 0-14-2t-20-21-30-53q-20-45-43-125t-37-137l-13-57q0-1 7 7t18 20 17 22q106 131 134 268 5 22 5 44"/><path id="n" d="M34 156q0 114 86 200t189 86q70 0 112-40t57-98q6-29 7-67v-29q49 74 75 166 4 14 6 16t16 3q21 0 21-8 0-9-9-39t-36-85-61-100l-11-14 1-24q2-56 8-76t19-21q14 2 26 11t17 23q2 7 5 8t15 2q20 0 20-8 0-6-6-19-12-24-35-38t-44-15h-7q-67 0-91 72l-3 7-11-8q-10-8-30-20t-45-23-58-20-64-9q-79 0-124 50T34 156M208 26q49 0 98 21t73 43l24 22q-2 143-7 178-14 115-92 115-69 0-121-73-27-40-44-108t-18-104q0-49 25-71t62-23"/><path id="o" d="M94 250q0 69 10 131t23 107 37 88 38 67 42 52 33 34 25 21h17q14 0 14-9 0-3-17-21t-41-53-49-86-42-138-17-193 17-192 41-139 49-86 42-53 17-21q0-9-15-9h-16l-28 24q-94 85-137 212T94 250"/><path id="p" d="M131 289q0 32 16 65t56 61 97 27q62 0 90-27t29-60q0-32-17-47t-38-16q-13 0-24 8t-12 26q0 16 9 28t17 18 13 6q1 0 1 1 0 3-7 9t-25 11-39 6q-48 0-70-26t-23-53q0-25 19-35t55-17 52-15q66-29 66-96 0-28-11-56t-33-56-63-44-94-17q-77 0-109 29T53 87q0 39 21 56t44 17q15 0 28-9t14-31q0-26-18-44t-31-18q-2-1-3-1t-1-2q1-3 8-8t31-13 55-7q36 0 62 11t38 28 17 31 5 25q0 28-21 42t-48 17-59 15-47 35q-17 25-17 58"/><path id="q" d="m60 749 4 1h22l28-24q94-85 137-212t43-264q0-68-10-131T261 12t-37-88-38-67-41-51-32-33-23-19l-4-4H63q-3 0-5 3t-3 9q1 1 11 13Q221-64 221 250T66 725q-10 12-11 13 0 8 5 11"/><path id="s" d="m213 578-13-5q-14-5-40-10t-58-7H83v46h19q47 2 87 15t56 24 28 22q2 3 12 3 9 0 17-6V361l1-300q7-7 12-9t24-4 62-2h26V0h-11q-21 3-159 3-136 0-157-3H88v46h64q16 0 25 1t16 3 8 2 6 5 6 4z"/><path id="t" d="M289 629q0 6-57 8-24 0-31 1t-7 10q0 1 2 11 1 3 2 7t1 5 2 5 2 3 4 2 5 2 8 0 12 1h30q24 0 45-1h91q12 0 16-5 1-4 37-282l36-279 23 37q24 36 64 100t88 140q175 279 177 281l3 3q2 2 4 3l6 2h136q23 0 29 1 34 0 34-11 0-5-3-17t-3-13q-4-6-37-6-40-1-51-3t-18-11q-3-5-72-283T797 59q0-4 1-5t7-4 17-2 33-2h31q6-9 6-11 0-16-7-30-5-5-16-5-5 0-41 1t-92 1h-92q-31 0-35-1-17 0-17 10 0 2 2 14 4 16 8 18t23 3q27 0 60 3 14 3 19 12 2 4 38 146t71 283l35 141-194-309Q458 10 453 5l-4-2q-5-3-16-3-15 0-18 7-2 4-41 310l-39 307-68-270Q200 88 200 79q6-33 72-33h10q6-5 7-9t-3-18q-4-16-8-18-4-1-11-1h-12q-10 0-34 1t-64 1q-30 0-62-1T58 0Q43 0 39 2t-4 9q0 2 3 14t5 15q2 6 22 6 70 0 89 40 4 6 69 268t66 275"/><path id="u" d="M109 429q-27 0-43 18t-16 44q0 71 53 123t132 52q91 0 152-56t62-145q0-43-20-82t-48-68-80-74q-36-31-100-92l-59-56 76-1q157 0 167 5 7 2 24 89v3h40v-3q-1-3-13-91T421 3V0H50v31q0 7 6 15t30 35q29 32 50 56 9 10 34 37t34 37 29 33 28 34 23 30 21 32 15 29 13 32 7 30 3 33q0 63-34 109t-97 46q-33 0-58-17t-35-33-10-19q0-1 5-1 18 0 37-14t19-46q0-25-16-42t-45-18"/><path id="v" d="M230 637q-27 0-32 1t-5 11q0 27 11 33 2 1 174 1 172-1 186-3 56-8 94-28t54-46 21-43 6-34q0-45-29-84t-67-60-67-34-38-13l7-5q67-38 67-110 0-11-5-61t-5-82v-9q0-18 1-28t11-18 26-9q28 0 46 22t26 47q5 14 8 17t15 3q20 0 20-12 0-18-24-57-38-57-90-57h-9q-61 0-101 25t-44 78q0 27 15 84t15 73q0 51-43 74-15 7-25 8t-71 2h-69l-32-130Q244 61 244 59q0-4 1-5t7-4 17-2 33-2h31q6-8 6-9t-3-18q-4-13-10-19h-15q-36 2-131 2H71Q54 2 50 1q-17 0-17 9 0 2 3 14 5 19 10 21 4 1 15 1h6q27 0 60 3 14 3 19 12 3 4 72 278t69 289q0 7-57 9m400-83q0 32-21 54t-86 28h-23q-21 0-38 1h-22q-47 0-54-10-1-3-34-133t-33-133q0-1 69-1 78 1 104 7 64 10 100 59 16 23 27 60t11 68"/><path id="w" d="M84 237v13l14 20h581q15-8 15-20t-15-20H98q-14 7-14 20z"/><path id="x" d="M184 600q0 24 19 42t44 19q18 0 30-12t13-30q0-23-20-42t-44-20q-15 0-28 10t-14 33M21 287q0 8 9 31t24 51 44 51 60 22q39 0 65-23t27-62q0-17-14-56t-40-105-42-113q-5-22-5-32 0-25 17-25 9 0 19 3t23 14 27 35 25 59q3 12 5 14t17 2q20 0 20-10 0-8-9-31t-25-51-45-50-62-22q-32 0-59 21T74 74q0 17 5 32t43 114q38 101 44 121t7 39q0 24-17 24h-2q-30 0-55-33t-38-84q-1-1-2-3t-1-3-2-2-3-1H27q-6 6-6 9"/><path id="y" d="M128 619q-7 7-11 9t-16 3-43 3H25v46h529v-4q2-6 14-116t14-116v-4h-40v4q0 1-4 34t-15 67-31 53q-38 36-143 36h-15q-70 0-85-1t-16-12q-1-3-1-282l1-278q7-7 12-9t25-4 63-2h27V0h-12q-24 3-166 3Q51 3 36 0H25v46h33q42 1 51 3t19 12z"/><path id="z" d="M345 104h4l12-9 8-15-17-21q-84-79-146-79-36 0-60 23t-33 50-14 51l-5 25q0 1-15-13T48 86 28 70q-6 0-13 9T7 94q0 4 5 9t46 44l33 32v12q0 5 1 9 0 82 36 200t95 212 113 93q61 0 61-69v-9q0-174-203-394-9-10-14-15t-6-7-3-3-6-7l-2-15q-4-44-4-63 0-106 49-106 20 0 45 13t40 26 42 38q10 10 14 10zm15 530q0 21-6 27t-18 7q-8 0-14-2t-20-21-30-53q-20-45-43-125t-37-137l-13-57q0-1 7 7t18 20 17 22q106 131 134 268 5 22 5 44"/><path id="A" d="M29-194q-6 6-6 8 0 3 79 320t84 331q22 68 57 119t66 74q56 47 120 47h2q62 0 102-38t40-97q0-105-104-174l13-13q51-51 51-131 0-113-85-187T257-10q-30 0-54 8t-38 19-22 23-12 19-5 6L62-188q-2-6-20-6zm324 625q39 0 74-12l5 3 7 7 10 10q7 7 12 14t11 18 12 24 9 29 8 36q2 9 2 33 0 18-1 23-15 51-76 51-42 0-79-24t-61-61-39-68-23-59q-5-16-38-147t-34-140q-1-5-1-21 0-48 22-79 31-42 87-42 42 0 89 25t76 86q16 34 24 77t8 65q0 58-35 93-42-14-75-14h-10q-79 0-79 31 0 7 3 14 14 28 92 28"/><path id="B" d="M94 250q0 69 10 131t23 107 37 88 38 67 42 52 33 34 25 21h17q14 0 14-9 0-3-17-21t-41-53-49-86-42-138-17-193 17-192 41-139 49-86 42-53 17-21q0-9-15-9h-16l-28 24q-94 85-137 212T94 250"/><path id="C" d="M131 289q0 32 16 65t56 61 97 27q62 0 90-27t29-60q0-32-17-47t-38-16q-13 0-24 8t-12 26q0 16 9 28t17 18 13 6q1 0 1 1 0 3-7 9t-25 11-39 6q-48 0-70-26t-23-53q0-25 19-35t55-17 52-15q66-29 66-96 0-28-11-56t-33-56-63-44-94-17q-77 0-109 29T53 87q0 39 21 56t44 17q15 0 28-9t14-31q0-26-18-44t-31-18q-2-1-3-1t-1-2q1-3 8-8t31-13 55-7q36 0 62 11t38 28 17 31 5 25q0 28-21 42t-48 17-59 15-47 35q-17 25-17 58"/><path id="D" d="m60 749 4 1h22l28-24q94-85 137-212t43-264q0-68-10-131T261 12t-37-88-38-67-41-51-32-33-23-19l-4-4H63q-3 0-5 3t-3 9q1 1 11 13Q221-64 221 250T66 725q-10 12-11 13 0 8 5 11"/><marker id="r" markerHeight=".6" markerWidth=".6" orient="auto-start-reverse" overflow="visible" preserveAspectRatio="xMidYMid" viewBox="0 0 1 1"><path fill="context-stroke" fill-rule="evenodd" d="m0 0-2.5 2.5L6.25 0-2.5-2.5Z"/></marker></defs><g fill="#8dae10"><path stroke="#17365c" stroke-linecap="round" stroke-linejoin="round" stroke-miterlimit="6" stroke-width=".819" d="M22.427 15.112h29.196" style="fill:#048;stroke:#048" transform="translate(.3 .3)scale(.50562)"/><g stroke="#000" stroke-width="0"><g data-mml-node="mtr"><g data-mml-node="mtd" transform="translate(-.073 .05)scale(.50562)"><use xlink:href="#a" data-c="1D434" data-mml-node="mi" style="fill:#da3" transform="matrix(.00479 0 0 -.00479 7.696 30.506)"/></g></g><g data-mml-node="mtr"><g data-mml-node="mtd" transform="translate(-.073 .05)scale(.50562)"><use xlink:href="#b" data-c="1D435" data-mml-node="mi" style="fill:#da3" transform="matrix(.00479 0 0 -.00479 7.706 3.976)"/></g></g><g data-mml-node="mtr"><g data-mml-node="mtd" transform="translate(-.073 .05)scale(.50562)"><use xlink:href="#c" data-c="1D436" data-mml-node="mi" style="fill:#da3" transform="matrix(.00479 0 0 -.00479 63.454 3.87)"/></g></g><g data-mml-node="mtr"><g data-mml-node="mtd" transform="translate(-.073 .05)scale(.50562)"><use xlink:href="#d" data-c="1D437" data-mml-node="mi" style="fill:#da3" transform="matrix(.00479 0 0 -.00479 63.623 30.506)"/></g></g></g></g><g stroke="#000" stroke-width="0" transform="translate(-.073 .05)scale(.50562)"><use xlink:href="#e" fill="#17365c" data-c="1D43D" data-mml-node="mi" opacity=".5" style="fill:#048;stroke:none" transform="matrix(.00479 0 0 -.00479 36.11 12.912)"/><g fill="#8dae10" data-mml-node="math"><g data-mml-node="msub"><use xlink:href="#f" data-c="1D45B" data-mml-node="mi" style="fill:#da3" transform="matrix(.00575 0 0 -.00575 59.06 17.277)"/><g data-mjx-texclass="ORD" data-mml-node="TeXAtom"><g data-mml-node="msub"><use xlink:href="#g" data-c="2113" data-mml-node="mi" style="fill:#da3" transform="matrix(.00406 0 0 -.00406 62.697 18.139)"/><use xlink:href="#h" data-c="1D6FD" data-mml-node="mi" style="fill:#da3" transform="matrix(.00287 0 0 -.00287 64.525 18.748)"/></g></g></g><use xlink:href="#i" data-c="28" data-mml-node="mo" style="fill:#da3" transform="matrix(.00575 0 0 -.00575 66.643 17.277)"/><use xlink:href="#j" data-c="1D460" data-mml-node="mi" style="fill:#da3" transform="matrix(.00575 0 0 -.00575 68.878 17.277)"/><use xlink:href="#k" data-c="29" data-mml-node="mo" style="fill:#da3" transform="matrix(.00575 0 0 -.00575 71.574 17.277)"/></g><g fill="#8dae10" data-mml-node="math"><g data-mml-node="msub"><use xlink:href="#l" data-c="1D45B" data-mml-node="mi" style="fill:#da3" transform="matrix(.00575 0 0 -.00575 .616 17.54)"/><g data-mjx-texclass="ORD" data-mml-node="TeXAtom"><g data-mml-node="msub"><use xlink:href="#m" data-c="2113" data-mml-node="mi" style="fill:#da3" transform="matrix(.00406 0 0 -.00406 4.253 18.401)"/><use xlink:href="#n" data-c="1D6FC" data-mml-node="mi" style="fill:#da3" transform="matrix(.00287 0 0 -.00287 6.082 19.01)"/></g></g></g><use xlink:href="#o" data-c="28" data-mml-node="mo" style="fill:#da3" transform="matrix(.00575 0 0 -.00575 8.411 17.54)"/><use xlink:href="#p" data-c="1D460" data-mml-node="mi" style="fill:#da3" transform="matrix(.00575 0 0 -.00575 10.647 17.54)"/><use xlink:href="#q" data-c="29" data-mml-node="mo" style="fill:#da3" transform="matrix(.00575 0 0 -.00575 13.342 17.54)"/></g></g><path fill="none" stroke="#8dae10" stroke-linecap="round" stroke-linejoin="round" stroke-miterlimit="6" stroke-width=".414" d="m26.402 7.942 5.01 5.82" style="fill:none;stroke:#da3"/><path fill="none" stroke="#8dae10" stroke-linecap="round" stroke-linejoin="round" stroke-miterlimit="6" stroke-width=".253" marker-end="url(#r)" d="M30.29 9.673a.833 2.53 0 0 1-.908.629.833 2.53 0 0 1-.533-2.323.833 2.53 0 0 1 .51-2.369.833 2.53 0 0 1 .914.546" opacity=".5" style="fill:none;stroke:#da3"/><path fill="none" stroke="#8dae10" stroke-linecap="round" stroke-linejoin="round" stroke-miterlimit="6" stroke-width=".414" d="m31.411 2.123-5.01 5.819" style="fill:none;stroke:#da3"/><path fill="none" stroke="#17365c" stroke-linecap="round" stroke-linejoin="round" stroke-miterlimit="6" stroke-width=".253" marker-end="url(#r)" d="M20.75 5.745a2.53.833 0 0 1 .63.909 2.53.833 0 0 1-2.322.532 2.53.833 0 0 1-2.37-.51 2.53.833 0 0 1 .547-.913" opacity=".5" style="stroke:#048"/><g fill="#17365c" stroke="#000" stroke-width="0" data-mml-node="mfrac" style="fill:#048;stroke:none" transform="translate(-.073 .05)scale(.50562)"><use xlink:href="#s" fill="#17365c" data-c="31" data-mml-node="mn" style="fill:#048;stroke:none" transform="matrix(.00372 0 0 -.00372 36.968 19.442)"/><g data-mml-node="mrow" style="fill:#048;stroke:none"><g fill="#17365c" data-mml-node="msubsup" style="fill:#048;stroke:none"><use xlink:href="#t" data-c="1D440" data-mml-node="mi" style="fill:#048;stroke:none" transform="matrix(.00372 0 0 -.00372 21.085 24.882)"/><use xlink:href="#u" data-c="32" data-mml-node="mn" style="fill:#048;stroke:none" transform="matrix(.00263 0 0 -.00263 25.323 23.565)"/><use xlink:href="#v" data-c="1D445" data-mml-node="mi" style="fill:#048;stroke:none" transform="matrix(.00263 0 0 -.00263 24.82 26.034)"/></g><use xlink:href="#w" fill="#17365c" data-c="2212" data-mml-node="mo" style="fill:#048;stroke:none" transform="matrix(.00372 0 0 -.00372 27.833 24.882)"/><use xlink:href="#x" fill="#17365c" data-c="1D456" data-mml-node="mi" style="fill:#048;stroke:none" transform="matrix(.00372 0 0 -.00372 31.558 24.882)"/><g fill="#17365c" data-mml-node="msub" style="fill:#048;stroke:none"><use xlink:href="#t" data-c="1D440" data-mml-node="mi" style="fill:#048;stroke:none" transform="matrix(.00372 0 0 -.00372 32.843 24.882)"/><use xlink:href="#v" data-c="1D445" data-mml-node="mi" style="fill:#048;stroke:none" transform="matrix(.00263 0 0 -.00263 36.578 25.44)"/></g><g data-mml-node="msub" style="fill:#048;stroke:none"><use xlink:href="#y" fill="#17365c" data-c="393" data-mml-node="mi" style="fill:#048;stroke:none" transform="matrix(.00372 0 0 -.00372 38.763 24.882)"/><g data-mjx-texclass="ORD" data-mml-node="TeXAtom" style="fill:#048;stroke:none"><g fill="#17365c" data-mml-node="msub" style="fill:#048;stroke:none"><use xlink:href="#z" data-c="2113" data-mml-node="mi" style="fill:#048;stroke:none" transform="matrix(.00263 0 0 -.00263 41.214 25.44)"/><use xlink:href="#A" data-c="1D6FD" data-mml-node="mi" style="fill:#048;stroke:none" transform="matrix(.00186 0 0 -.00186 42.398 25.835)"/></g></g></g><use xlink:href="#B" fill="#17365c" data-c="28" data-mml-node="mo" style="fill:#048;stroke:none" transform="matrix(.00372 0 0 -.00372 43.77 24.882)"/><use xlink:href="#C" fill="#17365c" data-c="1D460" data-mml-node="mi" style="fill:#048;stroke:none" transform="matrix(.00372 0 0 -.00372 45.22 24.882)"/><use xlink:href="#D" fill="#17365c" data-c="29" data-mml-node="mo" style="fill:#048;stroke:none" transform="matrix(.00372 0 0 -.00372 46.966 24.882)"/><use xlink:href="#w" fill="#17365c" data-c="2212" data-mml-node="mo" style="fill:#048;stroke:none" transform="matrix(.00372 0 0 -.00372 49.242 24.882)"/><use xlink:href="#C" fill="#17365c" data-c="1D460" data-mml-node="mi" style="fill:#048;stroke:none" transform="matrix(.00372 0 0 -.00372 52.967 24.882)"/></g><path d="M120 220h9229.8v60H120Z" style="fill:#048;stroke:none" transform="matrix(.00372 0 0 -.00372 20.266 21.96)"/></g><circle cx="26.401" cy="7.942" r=".807" fill="#8dae10" style="fill:#da3;stroke-width:.505619"/><g transform="matrix(-.50562 0 0 .50562 44.107 -3.94)"><path fill="none" stroke="#8dae10" stroke-linecap="round" stroke-linejoin="round" stroke-miterlimit="6" stroke-width=".819" d="m64.214 23.5 9.909 11.509" style="fill:none;stroke:#da3"/><path fill="none" stroke="#8dae10" stroke-linecap="round" stroke-linejoin="round" stroke-miterlimit="6" stroke-width=".5" marker-end="url(#r)" d="M71.906 26.923a1.648 5.005 0 0 1-1.797 1.244 1.648 5.005 0 0 1-1.053-4.592 1.648 5.005 0 0 1 1.007-4.687 1.648 5.005 0 0 1 1.808 1.08" opacity=".5" style="fill:none;stroke:#da3"/><path fill="none" stroke="#8dae10" stroke-linecap="round" stroke-linejoin="round" stroke-miterlimit="6" stroke-width=".819" d="M74.123 11.991 64.214 23.5" style="fill:none;stroke:#da3"/><circle cx="64.214" cy="23.5" r="1.597" fill="#8dae10" style="fill:#da3"/></g><metadata><rdf:RDF><cc:Work><dc:creator><cc:Agent><dc:title>Remco de Boer</dc:title></cc:Agent></dc:creator><cc:license rdf:resource="http://creativecommons.org/licenses/by/4.0/"/></cc:Work><cc:License rdf:about="http://creativecommons.org/licenses/by/4.0/"><cc:permits rdf:resource="http://creativecommons.org/ns#Reproduction"/><cc:permits rdf:resource="http://creativecommons.org/ns#Distribution"/><cc:requires rdf:resource="http://creativecommons.org/ns#Notice"/><cc:requires rdf:resource="http://creativecommons.org/ns#Attribution"/><cc:permits rdf:resource="http://creativecommons.org/ns#DerivativeWorks"/></cc:License></rdf:RDF></metadata></svg>