<svg xmlns="http://www.w3.org/2000/svg" xmlns:cc="http://creativecommons.org/ns#" xmlns:dc="http://purl.org/dc/elements/1.1/" xmlns:inkscape="http://www.inkscape.org/namespaces/inkscape" xmlns:rdf="http://www.w3.org/1999/02/22-rdf-syntax-ns#" xmlns:sodipodi="http://sodipodi.sourceforge.net/DTD/sodipodi-0.dtd" xmlns:xlink="http://www.w3.org/1999/xlink" inkscape:version="1.4.2 (1:1.4.2+202505120737+ebf0e940d0)" sodipodi:docname="k-matrix-nucleon-scattering-11.svg" xml:space="preserve" width="116.047" height="47.055" viewBox="0 0 15.352 6.225"><sodipodi:namedview inkscape:current-layer="svg11" inkscape:cx="58.089" inkscape:cy="23.511" inkscape:deskcolor="#d1d1d1" inkscape:pagecheckerboard="0" inkscape:pageopacity="0" inkscape:showpageshadow="2" inkscape:window-height="1371" inkscape:window-maximized="1" inkscape:window-width="2560" inkscape:window-x="0" inkscape:window-y="32" inkscape:zoom="7.635" bordercolor="#000000" borderopacity=".25" pagecolor="#ffffff"/><defs><path id="c" d="M132-11q-34 0-34 33v11l13 28q75 158 109 273l8 24h-32q-38 0-54-3t-39-19q-11-7-22-18t-19-21-9-12q-2-1-15-1-19 0-19 10 0 6 19 35t55 62 71 38q7 2 225 2 160 0 164-1 20-7 20-28 0-31-32-42-6-2-69-2h-64l-3-17q-12-72-12-119 0-52 9-93t19-64 10-28q0-17-14-32t-36-15q-11 0-18 3t-16 24-16 60q-1 9-1 44 0 49 9 105t18 92l10 40h-98l-1-4q0-3-19-79t-43-161-31-97q-11-28-43-28"/><path id="d" d="M234 637h-8q-25 0-30 1t-5 11q0 27 11 33 2 1 97 1h88q11 0 14-6 211-496 215-509l54 213q53 211 53 225 0 27-64 31-24 0-24 11 0 2 2 12 4 16 6 19t10 4q3 0 31-1t83-2q50 0 76 1t30 1q15 0 15-10 0-22-8-30-2-5-22-5-71-4-89-40L620 7q-2-7-21-7-14 0-17 2-3 3-129 303L326 604l-65-260Q196 88 196 79q5-33 72-33h10q6-5 6-8t-2-19q-4-13-10-19h-13q-31 2-108 2H63Q49 2 46 1q-15 0-15 9 0 4 3 16t5 14q2 6 23 6 68 3 88 39 4 6 71 277l68 272q-2 1-55 3"/><path id="a" d="M285 628q0 7-57 9-23 0-30 1t-7 9q0 2 2 14 6 20 10 21 2 1 11 1h5q41-2 136-2h63q29 0 45 1t20 0q17 0 17-8 0-5-3-14-1-2-1-6t-1-6l-2-4q-1-2-3-3l-4-2q-2-1-7-1t-9-1-14 0q-40-1-51-3t-18-11l-81-318q1 0 184 144t188 148q14 14 14 23 0 15-25 17-16 0-16 11 0 2 3 14t5 15q3 5 17 5 4 0 35-1t80-1q23 0 48 1t30 1q20 0 20-10 0-22-8-30-3-5-19-5-75-5-136-51-16-10-70-52t-100-79l-47-37 9-22q9-22 28-67t35-85q75-177 80-183 2-2 5-4 14-10 51-11h21q6-8 6-9t-3-18q-4-13-10-19h-11q-40 3-95 3-122 0-137-3h-10q-6 6-6 9t2 18q4 13 6 16t11 3h3q50 0 50 25 0 4-27 70t-32 75l-58 138-136-106-23-93q-23-92-23-97 0-7 8-9t50-3h31q6-9 6-11 0-16-7-30-5-5-16-5-3 0-37 1T180 2H85Q52 2 49 1 31 1 31 11q0 2 3 14 4 16 8 18t23 3q27 0 60 3 14 3 19 12 3 4 72 278t69 289"/><path id="b" d="m213 578-13-5q-14-5-40-10t-58-7H83v46h19q47 2 87 15t56 24 28 22q2 3 12 3 9 0 17-6V361l1-300q7-7 12-9t24-4 62-2h26V0h-11q-21 3-159 3-136 0-157-3H88v46h64q16 0 25 1t16 3 8 2 6 5 6 4z"/></defs><g transform="matrix(.5 0 0 .5 -39.16 -60.084)"><circle cx="93.671" cy="126.394" r="5.425" fill="none" stroke="#8dae10" stroke-linecap="round" stroke-linejoin="round" stroke-miterlimit="6" stroke-width=".8" style="stroke:#da3;stroke-opacity:1"/><g fill="#17365c" stroke-width="0" data-mml-node="msub" style="fill:#048;fill-opacity:1" transform="matrix(.00479 0 0 -.00479 89.916 127.67)"><use xlink:href="#a" data-c="1D43E" style="fill:#048;fill-opacity:1"/><g data-mml-node="mn" style="fill:#048;fill-opacity:1" transform="translate(882 -150)scale(.707)"><use xlink:href="#b" data-c="31" style="fill:#048;fill-opacity:1"/><use xlink:href="#b" data-c="31" style="fill:#048;fill-opacity:1" transform="translate(500)"/></g></g><g fill="none" stroke="#8dae10" stroke-linecap="round" stroke-linejoin="round" stroke-miterlimit="6" stroke-width=".8" style="stroke:#da3;stroke-opacity:1"><path d="m98.65 124.24 4.44-1.919" style="stroke:#da3;stroke-opacity:1"/><path d="m93.671 126.394 4.44-1.92" style="stroke:#da3;stroke-opacity:1" transform="matrix(-1 0 0 1 196.76 4.073)"/><path d="m98.65 124.24 4.44-1.919" style="stroke:#da3;stroke-opacity:1" transform="matrix(-1 0 0 1 187.342 0)"/><path d="m93.671 126.394 4.44-1.92" style="stroke:#da3;stroke-opacity:1" transform="translate(-9.418 4.073)"/></g></g><g fill="#17365c" style="fill:#048;fill-opacity:1" transform="matrix(.5 0 0 .5 -39.189 -60.229)"><use xlink:href="#c" data-c="1D70B" style="fill:#048;fill-opacity:1" transform="matrix(.00479 0 0 -.00479 105.211 122.927)"/><use xlink:href="#d" data-c="1D441" style="fill:#048;fill-opacity:1" transform="matrix(.00479 0 0 -.00479 104.428 132.501)"/><use xlink:href="#c" data-c="1D70B" style="fill:#048;fill-opacity:1" transform="matrix(.00479 0 0 -.00479 79.412 122.927)"/><use xlink:href="#d" data-c="1D441" style="fill:#048;fill-opacity:1" transform="matrix(.00479 0 0 -.00479 78.629 132.501)"/></g><metadata><rdf:RDF><cc:Work><dc:creator><cc:Agent><dc:title>Remco de Boer</dc:title></cc:Agent></dc:creator><cc:license rdf:resource="http://creativecommons.org/licenses/by/4.0/"/></cc:Work><cc:License rdf:about="http://creativecommons.org/licenses/by/4.0/"><cc:permits rdf:resource="http://creativecommons.org/ns#Reproduction"/><cc:permits rdf:resource="http://creativecommons.org/ns#Distribution"/><cc:requires rdf:resource="http://creativecommons.org/ns#Notice"/><cc:requires rdf:resource="http://creativecommons.org/ns#Attribution"/><cc:permits rdf:resource="http://creativecommons.org/ns#DerivativeWorks"/></cc:License></rdf:RDF></metadata></svg>