<svg xmlns="http://www.w3.org/2000/svg" xmlns:cc="http://creativecommons.org/ns#" xmlns:dc="http://purl.org/dc/elements/1.1/" xmlns:inkscape="http://www.inkscape.org/namespaces/inkscape" xmlns:rdf="http://www.w3.org/1999/02/22-rdf-syntax-ns#" xmlns:sodipodi="http://sodipodi.sourceforge.net/DTD/sodipodi-0.dtd" xmlns:xlink="http://www.w3.org/1999/xlink" inkscape:version="1.4.2 (1:1.4.2+202505120737+ebf0e940d0)" sodipodi:docname="mandelstam-variable-3body-t.svg" width="46mm" height="27mm" viewBox="0 0 46 27"><sodipodi:namedview inkscape:current-layer="svg14" inkscape:cx="87.027" inkscape:cy="51.117" inkscape:deskcolor="#d1d1d1" inkscape:document-units="mm" inkscape:pagecheckerboard="0" inkscape:pageopacity="0" inkscape:showpageshadow="2" inkscape:window-height="1371" inkscape:window-maximized="1" inkscape:window-width="2560" inkscape:window-x="0" inkscape:window-y="32" inkscape:zoom="5.096" bordercolor="#000000" borderopacity=".25" pagecolor="#ffffff"/><defs><path id="h" d="M23 287q1 3 2 8t5 22 10 31 15 33 20 30 26 22 33 9q75 0 96-64l10 9q62 55 118 55 65 0 102-47t37-114q0-108-76-199T249-10q-22 0-39 6-11 5-23 15t-19 17l-7 8q-1-1-22-87t-21-87q0-6 8-7t37-3h25q6-7 6-9t-3-18q-3-12-6-15t-13-4h-11q-9 0-34 1t-62 1q-70 0-89-2h-8q-7 7-7 11 2 27 13 35h20q34 1 39 12 3 6 61 239t61 247q1 5 1 14 0 41-25 41-22 0-37-28t-23-61-12-36q-2-2-16-2H29q-6 6-6 9m155-185q22-76 74-76 30 0 58 23t46 58q18 34 36 108t19 110v6q0 74-61 74-11 0-22-3t-22-9-20-13-17-15-15-15-11-14-8-10l-3-4q0-1-3-14t-11-44-14-52q-26-106-26-110"/><path id="i" d="M208 74q0-24 46-28 18 0 18-11 0-1-2-13-3-14-6-18t-13-4h-12q-10 0-34 1t-64 1Q70 2 50 0h-8q-7 7-7 11 2 27 13 35h14q70 3 102 50 6 6 181 305t178 303q7 12 24 12h25q6-9 6-10l28-323q28-323 30-326 5-11 65-11 25 0 25-10 0-2-3-14-3-15-5-18t-14-4h-14q-11 0-39 1t-73 1q-94 0-123-2h-12q-6 6-6 9t2 18q4 13 6 16l4 3h20q54 3 64 17l-12 150H283l-34-58q-41-69-41-81m308 186q0 11-12 156t-14 146l-27-43q-16-27-63-107l-90-152 103-1q103 0 103 1"/><path id="a" d="M23 287q1 3 2 8t5 22 10 31 15 33 20 30 26 22 33 9q75 0 96-64l10 9q62 55 118 55 65 0 102-47t37-114q0-108-76-199T249-10q-22 0-39 6-11 5-23 15t-19 17l-7 8q-1-1-22-87t-21-87q0-6 8-7t37-3h25q6-7 6-9t-3-18q-3-12-6-15t-13-4h-11q-9 0-34 1t-62 1q-70 0-89-2h-8q-7 7-7 11 2 27 13 35h20q34 1 39 12 3 6 61 239t61 247q1 5 1 14 0 41-25 41-22 0-37-28t-23-61-12-36q-2-2-16-2H29q-6 6-6 9m155-185q22-76 74-76 30 0 58 23t46 58q18 34 36 108t19 110v6q0 74-61 74-11 0-22-3t-22-9-20-13-17-15-15-15-11-14-8-10l-3-4q0-1-3-14t-11-44-14-52q-26-106-26-110"/><path id="b" d="M231 637q-27 0-32 1t-5 11q0 27 11 33 1 1 130 1 259 0 273-2 63-10 105-45t43-92q0-64-58-115t-133-69l-10-3q64-9 105-46t42-92q0-73-72-141T453 1q-7-1-211-1Q42 0 39 2q-4 3-4 8 0 7 2 14 5 19 10 21 4 1 15 1h6q27 0 60 3 14 3 19 12 3 4 72 278t69 289q0 7-57 9m418-93q0 30-15 56t-49 34q-7 2-92 3h-42q-22 0-35-1h-13q-15-1-19-10-2-4-32-120 0-3-1-6l-31-126h81q81 0 93 2 60 10 107 58t48 110m-54-315q0 44-23 73t-60 34q-6 1-83 1-118 0-119-1 0-2-17-73t-35-141l-18-70q0-4 12-4t81-2q89 0 96 1 62 7 114 58t52 124"/><path id="f" d="M23 287q1 3 2 8t5 22 10 31 15 33 20 30 26 22 33 9q75 0 96-64l10 9q62 55 118 55 65 0 102-47t37-114q0-108-76-199T249-10q-22 0-39 6-11 5-23 15t-19 17l-7 8q-1-1-22-87t-21-87q0-6 8-7t37-3h25q6-7 6-9t-3-18q-3-12-6-15t-13-4h-11q-9 0-34 1t-62 1q-70 0-89-2h-8q-7 7-7 11 2 27 13 35h20q34 1 39 12 3 6 61 239t61 247q1 5 1 14 0 41-25 41-22 0-37-28t-23-61-12-36q-2-2-16-2H29q-6 6-6 9m155-185q22-76 74-76 30 0 58 23t46 58q18 34 36 108t19 110v6q0 74-61 74-11 0-22-3t-22-9-20-13-17-15-15-15-11-14-8-10l-3-4q0-1-3-14t-11-44-14-52q-26-106-26-110"/><path id="g" d="M50 252q0 115 67 221t169 168 204 63q90 0 143-51 9-10 15-17t8-10l1-3q3 0 27 26 7 6 15 14t16 16 10 11l15 15h6q14 0 14-7 0-4-32-137-36-139-36-140-2-5-5-6t-18-2h-16q-6 6-6 9 0 1 1 7t2 20 1 32q0 71-32 124t-109 54q-26 0-56-7t-72-24-83-56-73-93q-32-57-51-133t-19-124q0-114 76-164 48-34 118-34 91 0 162 68t94 148q4 13 6 15t16 2q20 0 20-9 0-5-1-9-29-107-124-184T319-22q-113 0-191 75T50 252"/><path id="d" d="M23 287q1 3 2 8t5 22 10 31 15 33 20 30 26 22 33 9q75 0 96-64l10 9q62 55 118 55 65 0 102-47t37-114q0-108-76-199T249-10q-22 0-39 6-11 5-23 15t-19 17l-7 8q-1-1-22-87t-21-87q0-6 8-7t37-3h25q6-7 6-9t-3-18q-3-12-6-15t-13-4h-11q-9 0-34 1t-62 1q-70 0-89-2h-8q-7 7-7 11 2 27 13 35h20q34 1 39 12 3 6 61 239t61 247q1 5 1 14 0 41-25 41-22 0-37-28t-23-61-12-36q-2-2-16-2H29q-6 6-6 9m155-185q22-76 74-76 30 0 58 23t46 58q18 34 36 108t19 110v6q0 74-61 74-11 0-22-3t-22-9-20-13-17-15-15-15-11-14-8-10l-3-4q0-1-3-14t-11-44-14-52q-26-106-26-110"/><path id="e" d="M287 628q0 7-57 9-23 0-30 1t-7 9 4 20 7 15q2 1 199 1 167-1 187-1t40-6q72-17 122-79t51-166q0-156-107-280T444 3l-14-2-194-1H72Q48 0 41 2t-8 9q0 2 3 14 4 16 8 18t23 3q27 0 60 3 14 3 19 12 3 4 72 278t69 289m416-159q0 38-11 68t-26 47-37 29-39 16-35 7h-43q-17 0-33 1h-43q-44 0-50-10-2-4-73-288T242 52q0-4 11-4t77-1h19q14 0 24-1 126 0 208 82 36 36 59 84t43 127 20 130"/><path id="c" d="M26 385q-7 7-7 10 0 4 3 16t5 14q2 5 9 5t51 1h53l19 80q3 11 7 29t7 26 6 20 8 17 10 12 14 9 18 2q18-1 25-11t7-19q0-7-9-47t-20-79l-10-37q0-2 50-2h51q7-7 7-11 0-22-13-35H210l-36-145Q135 80 135 68q0-42 27-42 35 0 68 34t53 84q2 6 5 7t15 2h4q15 0 15-8 0-3-3-12-5-16-18-38t-34-47-51-42-61-17q-30 0-57 15T59 56q-2 8-2 27v18l35 140q35 141 36 142 0 2-51 2z"/><marker id="k" markerHeight="1" markerWidth="1" orient="auto-start-reverse" overflow="visible" preserveAspectRatio="xMidYMid" viewBox="0 0 1 1"><path fill="context-stroke" fill-rule="evenodd" d="m0 0-2.5 2.5L6.25 0-2.5-2.5z"/></marker><marker id="j" markerHeight="1" markerWidth="1" orient="auto-start-reverse" overflow="visible" preserveAspectRatio="xMidYMid" viewBox="0 0 1 1"><path fill="context-stroke" fill-rule="evenodd" d="m0 0-2.5 2.5L6.25 0-2.5-2.5z"/></marker></defs><g style="opacity:.25"><path stroke="#e7e7e7" stroke-dasharray="1.5, 3" stroke-linecap="round" stroke-linejoin="round" stroke-miterlimit="6" stroke-width="1.5" d="M23.441 2.544v23.161" style="stroke:#bbb;stroke-opacity:1;opacity:1" transform="translate(-.441 -.625)"/><path fill="#e7e7e7" d="M18.4 2.05a2.09 2.09 0 1 0 0 4.179 2.09 2.09 0 0 0 0-4.179m0 3.628c-.975 0-1.538-.564-1.538-1.538S17.425 2.6 18.4 2.6s1.539.564 1.539 1.539c0 .974-.564 1.538-1.539 1.538m-1.564-3.604a.16.16 0 0 1 .059-.22l.278-.16a.16.16 0 0 1 .22.058l.173.3q-.304.122-.556.322zm2.955.3a2.3 2.3 0 0 0-.557-.322l.173-.3a.16.16 0 0 1 .22-.059l.278.16a.16.16 0 0 1 .06.22zm-1.873-.806v-.321a.16.16 0 0 1 .16-.16h.644a.16.16 0 0 1 .16.16v.321a.16.16 0 0 1-.16.16v.187q-.159-.024-.322-.025c-.163-.001-.216.01-.321.025V1.73a.16.16 0 0 1-.161-.16m.482 1.125.322 1.447a.321.321 0 1 1-.643 0z" style="fill:#bbb;fill-opacity:1;opacity:1" transform="translate(.495 .11)scale(.99252)"/></g><g fill="#17365c" stroke-width="0" data-mml-node="msub" style="fill:#048;fill-opacity:1;stroke:none" transform="matrix(.00479 0 0 -.00479 35.817 3.365)"><use xlink:href="#a" data-c="1D45D" style="fill:#048;fill-opacity:1;stroke:none"/><use xlink:href="#b" data-c="1D435" style="fill:#048;fill-opacity:1;stroke:none" transform="translate(559.331 -256.05)scale(.49985)"/></g><g transform="translate(-29.194 -204.604)"><path fill="#8dae10" stroke="#8dae10" stroke-dasharray="1.2, 1.2" stroke-dashoffset=".92" stroke-linecap="round" stroke-linejoin="round" stroke-miterlimit="6" stroke-width=".4" d="m53.057 175.547-8.476 7.392" style="stroke:#da3;stroke-opacity:1" transform="translate(0 37.703)"/><path fill="none" stroke="#8dae10" stroke-linecap="round" stroke-linejoin="round" stroke-miterlimit="6" stroke-width=".4" d="m53.057 175.547 3.725 4.839m1.385 1.8 5.175 7.375m0-19.531-10.285 5.516m-8.476 7.393 18.76-2.423m-27.518-.153 8.758 2.576" style="stroke:#da3;stroke-opacity:1" transform="translate(0 37.703)"/><use xlink:href="#c" fill="#8dae10" data-c="1D461" style="fill:#da3;fill-opacity:1;stroke:none" transform="matrix(.00479 0 0 -.00479 45.833 216.44)"/></g><g fill="#17365c" stroke-width="0"><g data-mml-node="msub" style="fill:#048;fill-opacity:1;stroke:none" transform="matrix(.00479 0 0 -.00479 35.984 24.526)"><use xlink:href="#d" data-c="1D45D" style="fill:#048;fill-opacity:1;stroke:none"/><use xlink:href="#e" data-c="1D437" style="fill:#048;fill-opacity:1;stroke:none" transform="translate(559.331 -256.05)scale(.49985)"/></g><g data-mml-node="msub" style="fill:#048;fill-opacity:1;stroke:none" transform="matrix(.00479 0 0 -.00479 35.817 14.107)"><use xlink:href="#f" data-c="1D45D" style="fill:#048;fill-opacity:1;stroke:none"/><use xlink:href="#g" data-c="1D436" style="fill:#048;fill-opacity:1;stroke:none" transform="translate(559.331 -256.05)scale(.49985)"/></g><g data-mml-node="msub" style="fill:#048;fill-opacity:1;stroke:none" transform="matrix(.00479 0 0 -.00479 .809 13.941)"><use xlink:href="#h" data-c="1D45D" style="fill:#048;fill-opacity:1;stroke:none"/><use xlink:href="#i" data-c="1D434" style="fill:#048;fill-opacity:1;stroke:none" transform="translate(559.331 -257.959)scale(.49985)"/></g></g><g stroke="#d40000" opacity=".5" style="stroke:#283;stroke-opacity:1;fill:none"><path fill="#d40000" stroke-width=".24" d="M70.568 138.662v-.05l.054-.076h1.145v-.575l.004-.575q.038-.05.073-.05.05 0 .076.058v1.142h1.142q.057.03.057.076t-.057.077H71.92v1.141q-.03.054-.069.054h-.015q-.046 0-.069-.054v-1.141h-1.145q-.054-.027-.054-.077z" style="stroke:#283;stroke-opacity:1;fill:none" transform="translate(-27.862 -124.62)"/><path stroke-dashoffset=".51" stroke-linecap="round" stroke-linejoin="round" stroke-miterlimit="6" stroke-width=".25" marker-end="url(#j)" marker-start="url(#k)" d="M68.792 207.824c.804 2.282 1.607 4.565 1.6 7.048-.008 2.484-.827 5.168-1.646 7.853" style="stroke:#283;stroke-opacity:1;fill:none" transform="translate(-28.69 -200.952)"/></g><metadata><rdf:RDF><cc:Work><dc:creator><cc:Agent><dc:title>Remco de Boer</dc:title></cc:Agent></dc:creator><cc:license rdf:resource="http://creativecommons.org/licenses/by/4.0/"/></cc:Work><cc:License rdf:about="http://creativecommons.org/licenses/by/4.0/"><cc:permits rdf:resource="http://creativecommons.org/ns#Reproduction"/><cc:permits rdf:resource="http://creativecommons.org/ns#Distribution"/><cc:requires rdf:resource="http://creativecommons.org/ns#Notice"/><cc:requires rdf:resource="http://creativecommons.org/ns#Attribution"/><cc:permits rdf:resource="http://creativecommons.org/ns#DerivativeWorks"/></cc:License></rdf:RDF></metadata></svg>