<svg xmlns="http://www.w3.org/2000/svg" xmlns:cc="http://creativecommons.org/ns#" xmlns:dc="http://purl.org/dc/elements/1.1/" xmlns:inkscape="http://www.inkscape.org/namespaces/inkscape" xmlns:rdf="http://www.w3.org/1999/02/22-rdf-syntax-ns#" xmlns:sodipodi="http://sodipodi.sourceforge.net/DTD/sodipodi-0.dtd" xmlns:xlink="http://www.w3.org/1999/xlink" inkscape:version="1.4.2 (1:1.4.2+202505120737+ebf0e940d0)" sodipodi:docname="mandelstam-diagram.svg" id="svg35" width="497.28" height="259pt" viewBox="0 0 372.96 259"><sodipodi:namedview inkscape:current-layer="svg35" inkscape:cx="248.359" inkscape:cy="172.589" inkscape:deskcolor="#d1d1d1" inkscape:document-units="pt" inkscape:pagecheckerboard="0" inkscape:pageopacity="0" inkscape:showpageshadow="2" inkscape:window-height="1371" inkscape:window-maximized="1" inkscape:window-width="2560" inkscape:window-x="0" inkscape:window-y="32" inkscape:zoom="1.782" id="namedview1" bordercolor="#000000" borderopacity=".25" pagecolor="#ffffff"/><defs id="defs2"><marker id="b" markerHeight=".4" markerWidth=".4" orient="auto-start-reverse" overflow="visible" preserveAspectRatio="xMidYMid" viewBox="0 0 1 1"><path id="path1" fill="context-stroke" fill-rule="evenodd" d="M-1.4-2.8 6.3 0l-7.7 2.8C0 1.169 0-1.162-1.4-2.8"/></marker><marker id="a" markerHeight="2.5" markerUnits="userSpaceOnUse" markerWidth="2.5" orient="auto-start-reverse" overflow="visible" preserveAspectRatio="xMidYMid" viewBox="0 0 1 1"><path id="path2" fill="context-stroke" fill-rule="evenodd" d="M-1.4-2.8 6.3 0l-7.7 2.8C0 1.169 0-1.162-1.4-2.8"/></marker><style id="style2">*{stroke-linejoin:round;stroke-linecap:butt}</style></defs><defs id="defs3"><clipPath id="c"><path id="path3" d="M7.2 7.2H540v370H7.2z"/></clipPath></defs><g id="g9" fill="none" stroke="#da3" stroke-dashoffset="3.4" stroke-linecap="round" stroke-miterlimit="6" stroke-width="7" opacity=".168"><path id="path4" marker-end="url(#b)" marker-start="url(#a)" d="M55.552 260.222c13.955-36.098 27.909-72.196 50.728-107.967s54.505-71.214 86.19-106.657" opacity="1" transform="scale(.7)"/><path id="path5" marker-end="url(#b)" marker-start="url(#a)" d="M59.96 258.874c12.485-35.65 24.97-71.298 46.597-106.075s52.397-68.682 83.167-102.587" opacity="1" transform="matrix(-.7 0 0 .7 346.998 0)"/><path id="path6" marker-end="url(#b)" marker-start="url(#a)" d="M59.82 262.466c16.892-40.534 33.784-81.068 54.733-118.115s45.955-70.607 70.96-104.167" opacity="1" transform="rotate(120 7.98 251.495)scale(-.7 .7)"/><path id="path7" marker-end="url(#b)" marker-start="url(#a)" d="m52.72 247.939 75.977-42.923" opacity="1" transform="matrix(-.7 0 0 .7 311.495 38.497)"/><path id="path8" marker-end="url(#b)" marker-start="url(#a)" d="m313.074 236.058-40.725-23.888" opacity="1" transform="matrix(-.7 0 0 .7 311.495 38.497)"/><path id="path9" marker-end="url(#a)" marker-start="url(#a)" d="M195.713 41.281v28.734" opacity="1" transform="matrix(-.7 0 0 .7 312.769 37.741)"/></g><path id="path10" fill="#da3" d="m259.15-317.736 122.797 212.691c-19 32.745-37.585 65.785-57.294 98.026-11.13 19.689-23.083 38.779-35.06 57.873-8.43 11.395-15.145 25.422-27.942 32.686-10.823 4.051-18.716-7.583-24.339-14.918-15.51-21.197-28.27-44.338-41.62-67.083C180.66-22.083 167.45-47.027 153.12-71.16c-5.997-10.791-12.927-21.582-18.341-32.373L258.8-318.34zm343.519 611.569c-2.597 7.334-8.732 15.518-12.683 23.177l-102.884 178.2c-8.177-15.779-17.246-31.137-25.278-46.981-15.377-28.99-30.98-57.911-42.374-88.771-4.82-14.314-10.638-33.733 2.562-45.363 13.888-10.507 32.077-11.966 48.67-14.33 13.654-1.508 27.335-2.658 41.107-3.225 9.037-.724 18.143-.936 27.25-1.209 8.136-.706 16.425-.307 24.57-1.007 13.09.288 25.947-1.219 39.06-.491M276.318 168.069c12.842 21.08 25.152 43.35 29.366 67.98 4.53 26.267-25.526 33.544-45.312 34.67-15.108 1.688-30.646 1.839-45.648-.808-9.211-1.46-20.205-6.82-19.279-17.859 2-18.923 12.02-35.725 20.908-52.13 6.767-12.794 14.333-25.326 23.058-36.91 5.096-6.828 14.344-16.481 23.32-10.139 5.81 3.654 9.597 9.829 13.587 15.196M120.856 304.217c7.141 12.216-.558 26.707-5.104 38.53-9.978 22.81-22.052 44.624-33.899 66.54-7.884 14.337-15.878 28.622-23.756 42.962-8.927 15.18-17.579 30.492-25.852 45.987L-88.372 289.322c12.117-.911 24.742-.42 37.005-.248 21.667 1.07 43.607-.132 65.329.605 11.252.958 22.763-.116 34.004 1.007 10.393-.095 20.638.959 30.976 1.411 13.38 1.772 28.227 1.658 39.704 9.892.821.657 1.42 1.535 2.21 2.228" clip-path="url(#c)" transform="matrix(.7 0 0 .7 -5.04 -5.04)"/><g id="g13" fill="none" stroke="#048" stroke-linecap="square" stroke-width="1.5"><path id="path11" d="M321.938-1 98.85 385.4" clip-path="url(#c)" transform="matrix(.7 0 0 .7 -5.04 -5.04)"/><path id="path12" d="M195.662-1 418.75 385.4" clip-path="url(#c)" transform="matrix(.7 0 0 .7 -5.04 -5.04)"/><path id="path13" d="M-1 289.62h549.2" clip-path="url(#c)" transform="matrix(.7 0 0 .7 -5.04 -5.04)"/></g><g id="g23" fill="#17365c"><g id="g16" transform="rotate(120 13.555 112.33)scale(-.14 .14)"><defs id="defs13"><path id="h" d="M1459 1280c109-19 282-57 320-64 83-24 371-126 371-433 0-197-179-713-921-713-135 0-615 0-743 366 256-32 384 167 384 309 0 135-89 205-217 205-141 0-327-109-327-398 0-379 384-616 896-616 973 0 1261 715 1261 1048 0 95 0 274-205 478-160 154-313 186-659 256-173 38-448 96-448 383 0 128 115 588 723 588 269 0 532-100 596-321-282 0-295-243-295-249 0-135 122-173 179-173 90 0 269 69 269 335 0 264-243 535-742 535-839 0-1063-656-1063-917 0-485 474-587 621-619" transform="scale(.01563)"/><path id="d" d="M4115 2017c96 0 192 0 192 108 0 115-109 115-217 115H512c-109 0-218 0-218-115 0-108 96-108 192-108zm-25-1121c108 0 217 0 217 115 0 108-96 108-192 108H486c-96 0-192 0-192-108 0-115 109-115 218-115z" transform="scale(.01563)"/><path id="e" d="M2688 2025c0 391-6 1055-275 1566-237 448-615 607-947 607-308 0-698-140-941-601-256-479-282-1073-282-1572 0-364 7-919 205-1406 275-658 768-747 1018-747 294 0 742 121 1004 728 192 442 218 959 218 1425M1466-26c-410 0-653 351-743 838-70 376-70 926-70 1284 0 492 0 901 83 1291 122 542 480 709 730 709 262 0 601-173 723-696 83-364 89-793 89-1304 0-416 0-927-76-1304-135-697-512-818-736-818" transform="scale(.01563)"/></defs><g id="g15" fill="#048"><use xlink:href="#h" id="use13" transform="scale(.99626)"/><use xlink:href="#d" id="use14" transform="translate(73.624)scale(.99626)"/><use xlink:href="#e" id="use15" transform="translate(173.013)scale(.99626)"/></g></g><g id="g19" transform="rotate(60 -4.07 256.03)scale(.14 -.14)"><defs id="defs16"><path id="g" d="M1286 2566h589c122 0 186 0 186 115 0 71-39 71-167 71h-563l237 940c26 89 26 102 26 148 0 103-84 160-167 160-51 0-198-19-249-225L928 2752H326c-128 0-185 0-185-122 0-64 45-64 166-64h570L454 881c-51-223-70-287-70-370 0-300 211-575 570-575 646 0 992 932 992 976 0 39-26 58-64 58-13 0-39 0-52-26-6-6-12-13-57-115-135-318-429-765-800-765-192 0-205 160-205 300 0 6 0 128 19 204z" transform="scale(.01563)"/></defs><g id="g18" fill="#048"><use xlink:href="#g" id="use16" transform="scale(.99626)"/><use xlink:href="#d" id="use17" transform="translate(62.9)scale(.99626)"/><use xlink:href="#e" id="use18" transform="translate(162.29)scale(.99626)"/></g></g><g id="g22" transform="matrix(.14716 0 0 -.14716 154.784 216.325)"><defs id="defs19"><path id="f" d="M2182 370c84-357 391-434 544-434 205 0 359 134 461 351 109 230 192 607 192 626 0 32-25 58-64 58-57 0-64-32-89-128-116-441-231-779-487-779-192 0-192 211-192 294 0 147 19 210 83 479 45 172 90 344 128 523l263 1041c45 160 45 173 45 192 0 96-77 160-173 160-186 0-231-160-269-320-64-249-410-1622-454-1845-7 0-256-524-724-524-332 0-396 287-396 524 0 364 179 874 345 1302 77 205 109 288 109 415 0 275-198 511-506 511-588 0-825-926-825-977 0-25 25-57 70-57 58 0 64 25 90 114 153 545 403 786 646 786 64 0 167 0 167-204 0-166-71-351-167-594C698 1124 666 881 666 690c0-652 492-754 755-754 409 0 633 281 761 434" transform="scale(.01563)"/></defs><g id="g21" fill="#048"><use xlink:href="#f" id="use19" transform="scale(.99626)"/><use xlink:href="#d" id="use20" transform="translate(83.194)scale(.99626)"/><use xlink:href="#e" id="use21" transform="translate(182.583)scale(.99626)"/></g></g></g><g id="g35" opacity=".5"><g id="g24" stroke="#17365c" stroke-linecap="round" stroke-miterlimit="6" stroke-width="1.401"><path id="path23" fill="#8dae10" stroke-dasharray="1.40100002,2.80200005" stroke-linecap="round" d="m324.626 233.398 17.412-.155" style="stroke-linecap:round"/><path id="path24" fill="none" d="m303.99 250.75 20.66-17.372-20.706-17.37m59.15-.136-20.659 17.371 20.706 17.372"/></g><path id="path25" fill="#048" stroke-width="1.1" d="M331.816 225.81q0-.402.202-.815.2-.415.701-.766.502-.352 1.217-.339.778 0 1.129.34t.364.752q0 .401-.214.59t-.476.2q-.163 0-.301-.1t-.15-.326q0-.202.112-.352.113-.15.214-.226t.162-.075q.014 0 .014-.013 0-.037-.088-.113t-.314-.138-.49-.074q-.601 0-.877.325-.275.327-.288.665 0 .314.238.44.238.125.69.212.451.088.651.188.828.364.828 1.204 0 .352-.137.702t-.415.703-.79.552-1.179.213q-.966 0-1.366-.363t-.415-.853q0-.49.264-.703t.551-.213q.189 0 .352.113.163.112.176.388 0 .327-.226.553-.226.225-.388.225-.026.013-.039.013-.012 0-.012.027.012.037.1.1t.39.164q.3.099.69.088.45 0 .776-.139.326-.138.477-.352.15-.212.214-.388t.062-.314q0-.352-.264-.527t-.601-.213-.74-.187-.59-.44q-.213-.313-.213-.726z"/><g id="g27" stroke="#048" stroke-linecap="round" stroke-miterlimit="6" stroke-width="1.401"><path id="path26" fill="#8dae10" stroke-dasharray="1.40100002,2.80200005" stroke-linecap="round" d="m35.058 219.664.18 14.044" style="stroke-linecap:round"/><path id="path27" fill="none" d="m5.547 244.433 29.691-10.725 29.776 10.702M5.323 208.993l29.735 10.67 29.67-10.705"/></g><path id="path28" fill="#048" stroke-width="1.1" d="M27.494 226.322q-.088-.088-.088-.125 0-.05.038-.2t.063-.177q.025-.061.112-.061.088 0 .64-.014h.665l.238-1.003q.038-.138.088-.363.05-.226.088-.327.037-.1.075-.25.038-.151.1-.214.063-.062.126-.15t.176-.114.225-.026q.226.013.314.138t.088.238q0 .088-.114.59t-.25.99l-.126.465q0 .026.627.026h.64q.088.088.088.138 0 .275-.164.44h-1.342l-.45 1.817q-.49 2.008-.49 2.157 0 .528.339.528.439 0 .852-.427t.665-1.053q.025-.075.062-.088.039-.014.188-.027h.051q.188 0 .188.101 0 .038-.037.15-.063.201-.226.477-.164.275-.427.59-.264.313-.639.526-.376.213-.765.213-.376 0-.715-.187t-.489-.653q-.025-.1-.025-.338v-.227l.439-1.755q.439-1.768.45-1.781 0-.026-.638-.026z"/><g id="g31" stroke="#17365c" stroke-linecap="round" stroke-miterlimit="6" stroke-width="1.401"><path id="path29" fill="#8dae10" stroke-dasharray="1.40100002,2.80200005" stroke-linecap="round" d="m170.385 10.843.18 14.044" style="stroke-linecap:round"/><path id="path30" fill="none" d="m158.743 29.157 11.822-4.27 21.399-17.758"/><path id="path31" fill="none" d="m158.743 6.785 11.642 4.058 7.47 6.171m2.101 1.735 12.055 10.075"/></g><path id="path32" fill="#048" stroke-width="1.1" d="M160.933 16.978q0-.1.112-.389.113-.288.314-.652.2-.363.552-.627t.74-.275q.576 0 .865.312.289.314.289.74 0 .226-.427 1.405t-.427 1.769q0 .539.176.752t.527.226q.352.013.665-.214.313-.225.464-.426l.137-.213q.026-.05.478-1.907.376-1.505.45-1.756t.177-.363q.213-.188.45-.188.214 0 .314.126t.1.237l-.952 3.989q-.013.063-.013.2 0 .314.088.415.088.099.264.112.275-.037.438-.388t.377-1.105q.025-.099.25-.099.238 0 .238.112-.012.063-.025.176-.012.113-.112.4t-.214.54-.313.477-.451.314q-.102.025-.302.025-.828 0-1.142-.702-.024.013-.137.126t-.226.188-.276.188-.363.15-.426.063q-.553 0-.98-.225-.65-.39-.65-1.33 0-.715.438-1.869t.44-1.466v-.177q0-.038-.051-.088t-.138-.05h-.05q-.289 0-.527.238t-.377.514q-.137.275-.213.527-.075.251-.099.275-.026.027-.201.027h-.176q-.075-.075-.075-.112z"/><g id="g34" fill="none" stroke="#17365c" stroke-linecap="round" stroke-miterlimit="6" stroke-width=".706" transform="translate(78.046 -279.55)scale(1.98425)"><path id="path33" d="M37.683 218.667h5.967"/><circle id="circle33" cx="46.518" cy="218.667" r="2.869" stroke-dasharray="0.70599997,1.41199994" stroke-linecap="round" style="stroke-linecap:round"/><path id="path34" d="M49.387 218.667h6.612m-7.482-2.057q3.741-1.867 7.482-3.73m-7.482 7.943 7.282 3.64"/></g></g><metadata id="metadata1"><rdf:RDF><cc:Work><dc:creator><cc:Agent><dc:title>Remco de Boer</dc:title></cc:Agent></dc:creator><cc:license rdf:resource="http://creativecommons.org/licenses/by/4.0/"/></cc:Work><cc:License rdf:about="http://creativecommons.org/licenses/by/4.0/"><cc:permits rdf:resource="http://creativecommons.org/ns#Reproduction"/><cc:permits rdf:resource="http://creativecommons.org/ns#Distribution"/><cc:requires rdf:resource="http://creativecommons.org/ns#Notice"/><cc:requires rdf:resource="http://creativecommons.org/ns#Attribution"/><cc:permits rdf:resource="http://creativecommons.org/ns#DerivativeWorks"/></cc:License></rdf:RDF></metadata></svg>