<svg xmlns="http://www.w3.org/2000/svg" xmlns:cc="http://creativecommons.org/ns#" xmlns:dc="http://purl.org/dc/elements/1.1/" xmlns:inkscape="http://www.inkscape.org/namespaces/inkscape" xmlns:rdf="http://www.w3.org/1999/02/22-rdf-syntax-ns#" xmlns:sodipodi="http://sodipodi.sourceforge.net/DTD/sodipodi-0.dtd" xmlns:xlink="http://www.w3.org/1999/xlink" inkscape:version="1.4.2 (1:1.4.2+202505120737+ebf0e940d0)" sodipodi:docname="mandelstam-blob.svg" xml:space="preserve" width="186.621" height="119.611" viewBox="0 0 49.377 31.647"><sodipodi:namedview inkscape:current-layer="g14" inkscape:cx="73.842" inkscape:cy="96.401" inkscape:deskcolor="#d1d1d1" inkscape:pagecheckerboard="0" inkscape:pageopacity="0" inkscape:showpageshadow="2" inkscape:window-height="1371" inkscape:window-maximized="1" inkscape:window-width="2560" inkscape:window-x="0" inkscape:window-y="32" inkscape:zoom="9.974" bordercolor="#000000" borderopacity=".25" pagecolor="#ffffff"/><defs><path id="r" d="M23 287q1 3 2 8t5 22 10 31 15 33 20 30 26 22 33 9q75 0 96-64l10 9q62 55 118 55 65 0 102-47t37-114q0-108-76-199T249-10q-22 0-39 6-11 5-23 15t-19 17l-7 8q-1-1-22-87t-21-87q0-6 8-7t37-3h25q6-7 6-9t-3-18q-3-12-6-15t-13-4h-11q-9 0-34 1t-62 1q-70 0-89-2h-8q-7 7-7 11 2 27 13 35h20q34 1 39 12 3 6 61 239t61 247q1 5 1 14 0 41-25 41-22 0-37-28t-23-61-12-36q-2-2-16-2H29q-6 6-6 9m155-185q22-76 74-76 30 0 58 23t46 58q18 34 36 108t19 110v6q0 74-61 74-11 0-22-3t-22-9-20-13-17-15l-15-15q-7-7-11-14t-8-10l-3-4q0-1-3-14t-11-44-14-52q-26-106-26-110"/><path id="s" d="M208 74q0-24 46-28 18 0 18-11 0-1-2-13-3-14-6-18t-13-4h-12q-10 0-34 1t-64 1Q70 2 50 0h-8q-7 7-7 11 2 27 13 35h14q70 3 102 50 6 6 181 305t178 303q7 12 24 12h25q6-9 6-10l28-323q28-323 30-326 5-11 65-11 25 0 25-10 0-2-3-14-3-15-5-18t-14-4h-14q-11 0-39 1t-73 1q-94 0-123-2h-12q-6 6-6 9t2 18q4 13 6 16l4 3h20q54 3 64 17l-12 150H283l-34-58q-41-69-41-81m308 186q0 11-12 156t-14 146l-27-43q-16-27-63-107l-90-152 103-1q103 0 103 1"/><path id="p" d="M23 287q1 3 2 8t5 22 10 31 15 33 20 30 26 22 33 9q75 0 96-64l10 9q62 55 118 55 65 0 102-47t37-114q0-108-76-199T249-10q-22 0-39 6-11 5-23 15t-19 17l-7 8q-1-1-22-87t-21-87q0-6 8-7t37-3h25q6-7 6-9t-3-18q-3-12-6-15t-13-4h-11q-9 0-34 1t-62 1q-70 0-89-2h-8q-7 7-7 11 2 27 13 35h20q34 1 39 12 3 6 61 239t61 247q1 5 1 14 0 41-25 41-22 0-37-28t-23-61-12-36q-2-2-16-2H29q-6 6-6 9m155-185q22-76 74-76 30 0 58 23t46 58q18 34 36 108t19 110v6q0 74-61 74-11 0-22-3t-22-9-20-13-17-15l-15-15q-7-7-11-14t-8-10l-3-4q0-1-3-14t-11-44-14-52q-26-106-26-110"/><path id="q" d="M231 637q-27 0-32 1t-5 11q0 27 11 33 1 1 130 1 259 0 273-2 63-10 105-45t43-92q0-64-58-115t-133-69l-10-3q64-9 105-46t42-92q0-73-72-141T453 1q-7-1-211-1Q42 0 39 2q-4 3-4 8 0 7 2 14 5 19 10 21 4 1 15 1h6q27 0 60 3 14 3 19 12 3 4 72 278t69 289q0 7-57 9m418-93q0 30-15 56t-49 34q-7 2-92 3h-42q-22 0-35-1h-13q-15-1-19-10-2-4-32-120 0-3-1-6l-31-126h81q81 0 93 2 60 10 107 58t48 110m-54-315q0 44-23 73t-60 34q-6 1-83 1-118 0-119-1 0-2-17-73t-35-141l-18-70q0-4 12-4t81-2q89 0 96 1 62 7 114 58t52 124"/><path id="n" d="M23 287q1 3 2 8t5 22 10 31 15 33 20 30 26 22 33 9q75 0 96-64l10 9q62 55 118 55 65 0 102-47t37-114q0-108-76-199T249-10q-22 0-39 6-11 5-23 15t-19 17l-7 8q-1-1-22-87t-21-87q0-6 8-7t37-3h25q6-7 6-9t-3-18q-3-12-6-15t-13-4h-11q-9 0-34 1t-62 1q-70 0-89-2h-8q-7 7-7 11 2 27 13 35h20q34 1 39 12 3 6 61 239t61 247q1 5 1 14 0 41-25 41-22 0-37-28t-23-61-12-36q-2-2-16-2H29q-6 6-6 9m155-185q22-76 74-76 30 0 58 23t46 58q18 34 36 108t19 110v6q0 74-61 74-11 0-22-3t-22-9-20-13-17-15l-15-15q-7-7-11-14t-8-10l-3-4q0-1-3-14t-11-44-14-52q-26-106-26-110"/><path id="o" d="M50 252q0 115 67 221t169 168 204 63q90 0 143-51 9-10 15-17t8-10l1-3q3 0 27 26 7 6 15 14l16 16q8 8 10 11l15 15h6q14 0 14-7 0-4-32-137-36-139-36-140-2-5-5-6t-18-2h-16q-6 6-6 9 0 1 1 7t2 20 1 32q0 71-32 124t-109 54q-26 0-56-7t-72-24-83-56-73-93q-32-57-51-133t-19-124q0-114 76-164 48-34 118-34 91 0 162 68t94 148q4 13 6 15t16 2q20 0 20-9 0-5-1-9-29-107-124-184T319-22q-113 0-191 75T50 252"/><path id="k" d="M23 287q1 3 2 8t5 22 10 31 15 33 20 30 26 22 33 9q75 0 96-64l10 9q62 55 118 55 65 0 102-47t37-114q0-108-76-199T249-10q-22 0-39 6-11 5-23 15t-19 17l-7 8q-1-1-22-87t-21-87q0-6 8-7t37-3h25q6-7 6-9t-3-18q-3-12-6-15t-13-4h-11q-9 0-34 1t-62 1q-70 0-89-2h-8q-7 7-7 11 2 27 13 35h20q34 1 39 12 3 6 61 239t61 247q1 5 1 14 0 41-25 41-22 0-37-28t-23-61-12-36q-2-2-16-2H29q-6 6-6 9m155-185q22-76 74-76 30 0 58 23t46 58q18 34 36 108t19 110v6q0 74-61 74-11 0-22-3t-22-9-20-13-17-15l-15-15q-7-7-11-14t-8-10l-3-4q0-1-3-14t-11-44-14-52q-26-106-26-110"/><path id="l" d="M287 628q0 7-57 9-23 0-30 1t-7 9 4 20 7 15q2 1 199 1 167-1 187-1t40-6q72-17 122-79t51-166q0-156-107-280T444 3l-14-2-194-1H72Q48 0 41 2t-8 9q0 2 3 14 4 16 8 18t23 3q27 0 60 3 14 3 19 12 3 4 72 278t69 289m416-159q0 38-11 68t-26 47-37 29-39 16-35 7h-43q-17 0-33 1h-43q-44 0-50-10-2-4-73-288T242 52q0-4 11-4t77-1h19q14 0 24-1 126 0 208 82 36 36 59 84t43 127 20 130"/><path id="c" d="M40 49c0-38 38-59 72-59 71 0 134 53 188 158 29 59 53 123 70 192l55 215c28-41 46-108 53-201 2-27 3-55 3-86 0-75-7-165-20-269l11-10 56 37c95 249 209 428 340 538-7-26-15-60-25-102l-87-362c-9-75 14-113 71-113 52 0 126 69 158 105l-20 21c-14-17-32-35-53-52-16-13-31-19-44-19-29 0-32 37-30 72 3 43 13 95 28 156l80 321c6 26 25 61 56 61 11 0 19-9 19-23 1-2 4-8 9-17 3-4 11-6 22-6 26 0 49 18 57 43 8 30-25 49-54 49-49 0-105-25-170-76-121-95-253-277-329-429 3 83 0 162-11 237-14 99-39 173-75 220h-3c-24 33-58 49-101 49-38 0-75-14-111-43-26-21-53-65-81-130l29 1c31 73 72 110 122 110 29 0 50-12 65-37l-81-324c-12-49-27-90-44-123-35-67-69-100-104-100-17 0-28 8-31 25-5 19-17 28-34 28-29 0-56-28-56-57"/><path id="d" d="M420 354c0 57-58 88-120 88q-94.5 0-135-57c-23-33-35-63-35-90 0-53 35-87 104-102 29-5 51-12 68-20 21-9 31-26 31-50 0-18-8-38-25-61-21-29-58-44-111-44-54 0-89 15-105 44 32-1 59 25 59 57 0 25-13 38-40 38-36 0-59-33-59-69 0-66 72-99 144-99 75 0 129 22 161 67 27 37 40 70 40 100 0 43-21 75-62 96-31 11-55 18-70 21-35 9-71 12-71 55 0 53 50 85 106 85 42 0 69-13 82-38-22-4-45-23-45-48 0-21 11-32 34-32 31 0 49 28 49 59"/><path id="e" d="M330 419c0 9-10 14-31 14h-81q39 156 39 162c0 21-11 31-32 31-23 0-37-13-43-39l-37-154H56c-22 0-33-1-33-22 0-11 10-16 31-16h81C86 200 62 97 62 84c0-56 38-95 94-95 38 0 71 17 100 52 24 29 41 57 52 84 4 11 6 17 6 20 0 9-5 14-15 14-8 0-14-5-18-16-34-83-75-124-124-124-17 0-26 14-26 41 0 15 2 31 6 47l71 288h89c26 0 33 2 33 24"/><path id="f" d="M483 91v59h-32V91c0-39-11-59-32-59-20 0-32 25-32 45v197c0 35-4 61-11 79-24 59-93 95-163 95-77 0-153-43-153-115 0-33 17-50 50-50s49 16 49 49c0 29-15 46-46 49 22 25 55 38 98 38 62 0 100-57 100-122v-33c-78-5-137-17-178-36C66 197 32 154 32 97c0-26 10-48 29-65 32-29 76-43 132-43 59 0 101 25 127 76 7-38 35-71 78-71 53 0 85 42 85 97M200 18c-46 0-84 34-84 80 0 93 97 133 195 138v-95c0-67-44-123-111-123"/><path id="g" d="M314 413c45 0 68-35 68-106V79c0-19-3-31-10-35q-10.5-6-66-6V0l115 3 114-3v38c-32 0-53 1-63 4s-14 10-14 22v187c0 47-1 80-4 99-10 61-55 92-134 92q-94.5 0-141-90v90L32 431v-38q54 0 66-9c8-6 11-19 11-42V79c0-19-4-31-11-35q-10.5-6-66-6V0l115 3 114-3v38c-37 0-58 2-65 6s-11 16-11 35v180c0 81 51 154 129 154"/><path id="h" d="M374-11 527 0v38c-36 0-57 2-65 8s-12 21-12 44v604l-149-11v-38c35 0 57-3 65-9s11-20 11-43V390c-32 37-72 55-120 55-62 0-115-22-158-67s-65-99-65-162c0-61 20-114 61-159s91-68 152-68c51 0 94 19 127 58M261 415c43 0 78-19 103-57 7-11 10-22 10-35V121c0-13-3-24-10-35-28-45-66-67-113-67-41 0-74 20-100 61q-27 45-27 135c0 109 37 200 137 200"/><path id="i" d="M543 144c0 9-5 14-16 14-9 0-14-7-17-21-5-19-10-38-17-57-13-41-31-62-53-62q-27 0-27 42c0 17 7 51 20 101l27 106c9 36 17 61 23 92l6 27q3 10.5 3 15 0 30-33 30c-22 0-36-12-42-37L343 98c-1-3-5-10-13-22-16-26-55-58-95-58-38 0-57 26-57 77 0 41 18 107 53 199 11 30 17 51 17 63 0 50-35 85-85 85q-67.5 0-105-75c-19-39-29-66-29-80 0-9 5-14 16-14 13 0 15 6 19 20q34.5 120 96 120c14 0 21-10 21-29 0-15-6-36-17-65-38-101-57-171-57-208 0-77 48-122 125-122 43 0 82 20 115 61 14-41 44-61 90-61 69 0 90 81 106 155"/><pattern xlink:href="#a" id="b" patternTransform="matrix(.74353 0 0 -.74353 28.664 14.03)"/><pattern id="a" width="4.981" height="4.981" x="0" y="0" patternUnits="userSpaceOnUse"><path d="M0 2.989 3.088-.1" style="fill:none;stroke:#da3;stroke-opacity:1;stroke-width:.3985;stroke-linecap:butt;stroke-linejoin:miter;stroke-miterlimit:10;stroke-dasharray:none" transform="translate(.996 .996)"/></pattern></defs><g stroke="#8dae10" stroke-linecap="round" stroke-linejoin="round" stroke-miterlimit="6" stroke-width=".4" style="stroke:#da3;stroke-opacity:1" transform="translate(-20.932 -207.128)"><path d="M36.568 14.03a7.905 7.905 0 0 0-15.807 0 7.905 7.905 0 0 0 15.808 0z" style="fill:url(#b);fill-opacity:1;fill-rule:nonzero;stroke:#da3;stroke-width:.592778;stroke-linecap:butt;stroke-linejoin:miter;stroke-miterlimit:10;stroke-dasharray:none;stroke-opacity:1" transform="translate(20.138 204.267)"/><path d="m54.425 175.04 9.275-3.346m-29.939.018 9.381 3.366m11.263 11.09 9.439 3.393m-29.97.011 9.352-3.378" style="fill:none;stroke:#da3;stroke-width:.57;stroke-dasharray:none;stroke-opacity:1" transform="translate(0 37.703)"/><use xlink:href="#c" data-c="4D" style="fill:#048;fill-opacity:1;stroke:none;stroke-width:0" transform="matrix(.006 0 0 -.006 45.805 220.034)"/><use xlink:href="#d" data-c="1D460" style="display:inline;fill:#048;fill-opacity:1;stroke:none;stroke-width:0" transform="matrix(.00479 0 0 -.00479 21.212 218.91)"/><g style="display:inline;fill:#048;fill-opacity:1"><g aria-level="0" data-latex="t\text{ and }u" data-mml-node="math" data-semantic-annotation="depth:1" data-semantic-attributes="latex:t\text{ and }u" data-semantic-children="0,1,2" data-semantic-collapsed="(5 (c 3 4) 0 1 2)" data-semantic-id="5" data-semantic-owns="0 1 2" data-semantic-role="text" data-semantic-structure="(5 0 1 2)" data-semantic-type="punctuated" data-speech-node="true" style="fill:#048;fill-opacity:1;stroke:none;stroke-width:0"><use xlink:href="#e" aria-level="1" data-c="1D461" data-latex="t" data-mml-node="mi" data-semantic-annotation="clearspeak:simple;nemeth:number;depth:2" data-semantic-attributes="latex:t" data-semantic-font="italic" data-semantic-id="0" data-semantic-parent="5" data-semantic-role="latinletter" data-semantic-type="identifier" data-speech-node="true" style="fill:#048;fill-opacity:1;stroke:none" transform="matrix(.00479 0 0 -.00479 42.005 238.193)"/><g aria-level="1" data-latex="\text{ and }" data-mml-node="mtext" data-semantic-annotation="clearspeak:unit;nemeth:number;depth:2" data-semantic-attributes="latex:\text{ and }" data-semantic-font="normal" data-semantic-id="1" data-semantic-parent="5" data-semantic-role="text" data-semantic-type="text" data-speech-node="true" style="fill:#048;fill-opacity:1;stroke:none" transform="matrix(.00479 0 0 -.00479 43.733 238.193)"><use xlink:href="#f" data-c="61" style="fill:#048;fill-opacity:1;stroke:none" transform="translate(332)"/><use xlink:href="#g" data-c="6E" style="fill:#048;fill-opacity:1;stroke:none" transform="translate(832)"/><use xlink:href="#h" data-c="64" style="fill:#048;fill-opacity:1;stroke:none" transform="translate(1388)"/></g><use xlink:href="#i" aria-level="1" data-c="1D462" data-latex="u" data-mml-node="mi" data-semantic-annotation="clearspeak:simple;nemeth:number;depth:2" data-semantic-attributes="latex:u" data-semantic-font="italic" data-semantic-id="2" data-semantic-parent="5" data-semantic-role="latinletter" data-semantic-type="identifier" data-speech-node="true" style="fill:#048;fill-opacity:1;stroke:none" transform="matrix(.00479 0 0 -.00479 54.632 238.193)"/></g></g><g fill="gray" data-mml-node="mo" style="display:inline;fill:#bbb;fill-opacity:1;stroke:none"><g style="opacity:1;fill:#bbb;stroke:none"><path d="M61-2121.228c105.226 83.35 172.072 222.387 239.18 341.044 277.414 529.81 289.538 1141.51 281.794 1725.889-2.727 553.656 5.652 339.156-4.52 892.503-22.016 547.74-135.453 1133.304-507.932 1554.444-102.082 6.28 110.876-224.69 64.13-173.683 330.254-584.12 326.86-1274.64 324.362-1926.612-4.304-582.817 10.01-397.663-10.012-979.887-23.928-497.43-123.836-1011.576-417.21-1424.586 3.891-13.271 20.055-8.067 30.208-9.112" style="baseline-shift:baseline;display:inline;overflow:visible;vector-effect:none;fill:#bbb;fill-opacity:1;stroke:none;stroke-linecap:butt;stroke-linejoin:miter;stop-color:#000;stop-opacity:1" transform="matrix(-.00479 0 0 .00482 27.388 217.882)"/></g></g><g fill="gray" data-mml-node="mo" style="display:inline;fill:#bbb;fill-opacity:1;stroke:none"><path d="M30.957-3589.907c0-6 6.43-9.006 19.096-9.006h10.896c7.333 0 12.025.596 14.025 1.93 2 1.333 6.692 6.748 14.025 16.082 81.333 97.333 151.689 204.925 211.022 322.925s106.643 232.415 141.976 343.082c35.333 110.666 63.68 230.58 85.013 359.913 21.333 129.334 35.605 246.754 42.938 352.088 7.333 105.333 11.72 218.937 13.054 340.937-.006.319.006.649 0 .965-.003.156.003.166 0 .321v4222.583c-2 101.333-5.671 196.007-11.004 284.007-5.334 88-14.717 184.976-28.05 290.976s-31.58 206.686-54.913 302.019c-23.334 95.333-52.7 192.31-88.034 290.976-35.333 98.667-79.384 194.748-132.05 288.081s-112.619 180.994-179.952 262.994c-7.333 9.333-12.025 14.641-14.025 15.974s-7.3 2.037-15.967 2.037H48.974c-12 0-18.017-3.71-18.017-11.043l29.992-45.029c17.333-26 30.388-46.337 39.054-61.004 123.334-199.333 213.673-431.658 271.006-696.992s85.984-581.608 85.984-948.942c0-9.11.094-16.672.216-22.621v-4135.312c-.11-4.227-.216-8.852-.216-13.937-.667-367.334-29.317-683.716-85.984-949.05s-147.006-497.657-271.006-696.99c-20.666-34.667-41.67-66.325-63.004-94.991-4-6.667-6.042-10.973-6.042-12.973" style="fill:#bbb;fill-opacity:1;stroke:none" transform="matrix(0 .00479 .00482 0 47.663 231.325)"/></g></g><g fill="#17365c" stroke-width="0"><g data-mml-node="msub" style="fill:#048;fill-opacity:1;stroke:none" transform="matrix(.00479 0 0 -.00479 44.246 22.117)"><use xlink:href="#k" data-c="1D45D" style="fill:#048;fill-opacity:1;stroke:none"/><use xlink:href="#l" data-c="1D437" style="fill:#048;fill-opacity:1;stroke:none" transform="translate(559.331 -256.05)scale(.49985)"/></g><g data-mml-node="msub" style="fill:#048;fill-opacity:1;stroke:none" transform="matrix(.00479 0 0 -.00479 43.878 2.845)"><use xlink:href="#n" data-c="1D45D" style="fill:#048;fill-opacity:1;stroke:none"/><use xlink:href="#o" data-c="1D436" style="fill:#048;fill-opacity:1;stroke:none" transform="translate(559.331 -256.05)scale(.49985)"/></g><g data-mml-node="msub" style="fill:#048;fill-opacity:1;stroke:none" transform="matrix(.00479 0 0 -.00479 7.802 21.597)"><use xlink:href="#p" data-c="1D45D" style="fill:#048;fill-opacity:1;stroke:none"/><use xlink:href="#q" data-c="1D435" style="fill:#048;fill-opacity:1;stroke:none" transform="translate(559.331 -256.05)scale(.49985)"/></g><g data-mml-node="msub" style="fill:#048;fill-opacity:1;stroke:none" transform="matrix(.00479 0 0 -.00479 7.801 2.697)"><use xlink:href="#r" data-c="1D45D" style="fill:#048;fill-opacity:1;stroke:none"/><use xlink:href="#s" data-c="1D434" style="fill:#048;fill-opacity:1;stroke:none" transform="translate(559.331 -257.959)scale(.49985)"/></g></g><metadata><rdf:RDF><cc:Work><dc:creator><cc:Agent><dc:title>Remco de Boer</dc:title></cc:Agent></dc:creator><cc:license rdf:resource="http://creativecommons.org/licenses/by/4.0/"/></cc:Work><cc:License rdf:about="http://creativecommons.org/licenses/by/4.0/"><cc:permits rdf:resource="http://creativecommons.org/ns#Reproduction"/><cc:permits rdf:resource="http://creativecommons.org/ns#Distribution"/><cc:requires rdf:resource="http://creativecommons.org/ns#Notice"/><cc:requires rdf:resource="http://creativecommons.org/ns#Attribution"/><cc:permits rdf:resource="http://creativecommons.org/ns#DerivativeWorks"/></cc:License></rdf:RDF></metadata></svg>