<svg xmlns="http://www.w3.org/2000/svg" xmlns:cc="http://creativecommons.org/ns#" xmlns:dc="http://purl.org/dc/elements/1.1/" xmlns:inkscape="http://www.inkscape.org/namespaces/inkscape" xmlns:rdf="http://www.w3.org/1999/02/22-rdf-syntax-ns#" xmlns:sodipodi="http://sodipodi.sourceforge.net/DTD/sodipodi-0.dtd" xmlns:xlink="http://www.w3.org/1999/xlink" inkscape:version="1.4.2 (1:1.4.2+202505120737+ebf0e940d0)" sodipodi:docname="scattering-process-angles-lab.svg" width="66mm" height="30mm" viewBox="0 0 66 30"><sodipodi:namedview inkscape:current-layer="svg17" inkscape:cx="124.584" inkscape:cy="56.731" inkscape:deskcolor="#d1d1d1" inkscape:document-units="mm" inkscape:pagecheckerboard="0" inkscape:pageopacity="0" inkscape:showpageshadow="2" inkscape:window-height="1371" inkscape:window-maximized="1" inkscape:window-width="2560" inkscape:window-x="0" inkscape:window-y="32" inkscape:zoom="3.552" bordercolor="#000000" borderopacity=".25" pagecolor="#ffffff"/><defs><path id="b" d="M347 338q-10 0-53 11t-63 11-34-4-23-10-12-11-7-11l-2-4q-3-3-15-3-21 0-21 8 0 5 3 14 13 39 43 67t66 34q12 2 17 2 25 0 45-17t38-33 38-17q22 0 44 33t23 33q1 1 15 1h13q6-6 6-8 0-4-5-14t-14-21-17-22-14-19l-7-9q-43-51-136-135T160 106l-12-12 15-1q22 0 64-11t63-11q38 0 70 19t42 50q4 9 7 11t15 2q19 0 19-10 0-5-1-9-17-62-66-103t-98-42q-26 0-46 17t-39 34-38 17q-44 0-79-60-6-8-17-8H41q-6 6-6 9 0 15 58 86 39 45 132 130t115 108q12 16 7 16"/><path id="c" d="M23 287q1 3 2 8t5 22 10 31 15 33 20 30 26 22 33 9q75 0 96-64l10 9q62 55 118 55 65 0 102-47t37-114q0-108-76-199T249-10q-22 0-39 6-11 5-23 15t-19 17l-7 8q-1-1-22-87t-21-87q0-6 8-7t37-3h25q6-7 6-9t-3-18q-3-12-6-15t-13-4h-11q-9 0-34 1t-62 1q-70 0-89-2h-8q-7 7-7 11 2 27 13 35h20q34 1 39 12 3 6 61 239t61 247q1 5 1 14 0 41-25 41-22 0-37-28t-23-61-12-36q-2-2-16-2H29q-6 6-6 9m155-185q22-76 74-76 30 0 58 23t46 58q18 34 36 108t19 110v6q0 74-61 74-11 0-22-3t-22-9-20-13-17-15-15-15-11-14-8-10l-3-4q0-1-3-14t-11-44-14-52q-26-106-26-110"/><path id="d" d="M208 74q0-24 46-28 18 0 18-11 0-1-2-13-3-14-6-18t-13-4h-12q-10 0-34 1t-64 1Q70 2 50 0h-8q-7 7-7 11 2 27 13 35h14q70 3 102 50 6 6 181 305t178 303q7 12 24 12h25q6-9 6-10l28-323q28-323 30-326 5-11 65-11 25 0 25-10 0-2-3-14-3-15-5-18t-14-4h-14q-11 0-39 1t-73 1q-94 0-123-2h-12q-6 6-6 9t2 18q4 13 6 16l4 3h20q54 3 64 17l-12 150H283l-34-58q-41-69-41-81m308 186q0 11-12 156t-14 146l-27-43q-16-27-63-107l-90-152 103-1q103 0 103 1"/><path id="e" d="M231 637q-27 0-32 1t-5 11q0 27 11 33 1 1 130 1 259 0 273-2 63-10 105-45t43-92q0-64-58-115t-133-69l-10-3q64-9 105-46t42-92q0-73-72-141T453 1q-7-1-211-1Q42 0 39 2q-4 3-4 8 0 7 2 14 5 19 10 21 4 1 15 1h6q27 0 60 3 14 3 19 12 3 4 72 278t69 289q0 7-57 9m418-93q0 30-15 56t-49 34q-7 2-92 3h-42q-22 0-35-1h-13q-15-1-19-10-2-4-32-120 0-3-1-6l-31-126h81q81 0 93 2 60 10 107 58t48 110m-54-315q0 44-23 73t-60 34q-6 1-83 1-118 0-119-1 0-2-17-73t-35-141l-18-70q0-4 12-4t81-2q89 0 96 1 62 7 114 58t52 124"/><path id="f" d="M50 252q0 115 67 221t169 168 204 63q90 0 143-51 9-10 15-17t8-10l1-3q3 0 27 26 7 6 15 14t16 16 10 11l15 15h6q14 0 14-7 0-4-32-137-36-139-36-140-2-5-5-6t-18-2h-16q-6 6-6 9 0 1 1 7t2 20 1 32q0 71-32 124t-109 54q-26 0-56-7t-72-24-83-56-73-93q-32-57-51-133t-19-124q0-114 76-164 48-34 118-34 91 0 162 68t94 148q4 13 6 15t16 2q20 0 20-9 0-5-1-9-29-107-124-184T319-22q-113 0-191 75T50 252"/><path id="g" d="M287 628q0 7-57 9-23 0-30 1t-7 9 4 20 7 15q2 1 199 1 167-1 187-1t40-6q72-17 122-79t51-166q0-156-107-280T444 3l-14-2-194-1H72Q48 0 41 2t-8 9q0 2 3 14 4 16 8 18t23 3q27 0 60 3 14 3 19 12 3 4 72 278t69 289m416-159q0 38-11 68t-26 47-37 29-39 16-35 7h-43q-17 0-33 1h-43q-44 0-50-10-2-4-73-288T242 52q0-4 11-4t77-1h19q14 0 24-1 126 0 208 82 36 36 59 84t43 127 20 130"/><marker id="a" markerHeight="1" markerWidth="1" orient="auto-start-reverse" overflow="visible" preserveAspectRatio="xMidYMid" viewBox="0 0 1 1"><path fill="context-stroke" fill-rule="evenodd" d="m0 0-2.5 2.5L6.25 0-2.5-2.5z"/></marker></defs><g fill="#17365c" stroke="#8dae10" stroke-linecap="round" stroke-linejoin="round" stroke-miterlimit="6" marker-end="url(#a)" transform="translate(-33.232 -92.035)"><path stroke-dasharray="1, 2" d="M62.44 106.631h25.055" style="stroke:#da3;fill:none" transform="translate(.206 .466)"/><g stroke-dashoffset="3.477"><path d="m41.384 93.984 15.514 9.758" style="stroke:#da3;fill:none"/><path d="m41.384 93.984 15.514 9.758" style="stroke:#da3;fill:none" transform="matrix(1 0 0 -1 -.033 214.138)"/><path stroke="#17365c" d="m62.646 107.097 15.515 9.758" style="stroke:#048"/><path stroke="#17365c" d="m62.646 107.097 15.515-9.758" style="stroke:#048"/></g></g><g stroke-width="0" transform="translate(-33.232 -92.035)"><use xlink:href="#b" fill="#8dae10" data-c="1D467" style="fill:#da3;stroke:none" transform="matrix(.0069 0 0 -.0069 95.064 108.583)"/><g fill="#8dae10" stroke="#000" data-mml-node="msub" style="fill:#da3;stroke:none"><use xlink:href="#c" data-c="1D45D" data-mml-node="mi" style="fill:#da3;stroke:none" transform="matrix(.00479 0 0 -.00479 34.449 94.799)"/><use xlink:href="#d" data-c="1D434" data-mml-node="mi" style="fill:#da3;stroke:none" transform="matrix(.00339 0 0 -.00339 37.016 95.53)"/></g><g stroke="#000" style="fill:#da3;stroke:none"><g fill="#8dae10" data-mml-node="msub" style="fill:#da3;stroke:none"><use xlink:href="#c" data-c="1D45D" data-mml-node="mi" style="fill:#da3;stroke:none" transform="matrix(.00479 0 0 -.00479 34.36 120.46)"/><use xlink:href="#e" data-c="1D435" data-mml-node="mi" style="fill:#da3;stroke:none" transform="matrix(.00339 0 0 -.00339 36.926 121.179)"/></g><g fill="#17365c" data-mml-node="msub" style="fill:#048;fill-opacity:1;stroke:none" transform="translate(0 -25.703)"><use xlink:href="#c" data-c="1D45D" data-mml-node="mi" style="fill:#048;fill-opacity:1;stroke:none" transform="matrix(.00479 0 0 -.00479 84.63 120.528)"/><use xlink:href="#f" data-c="1D436" data-mml-node="mi" style="fill:#048;fill-opacity:1;stroke:none" transform="matrix(.00339 0 0 -.00339 87.196 121.246)"/></g><g fill="#17365c" data-mml-node="msub" style="fill:#048;fill-opacity:1;stroke:none" transform="translate(.21 25.703)"><use xlink:href="#c" data-c="1D45D" data-mml-node="mi" style="fill:#048;fill-opacity:1;stroke:none" transform="matrix(.00479 0 0 -.00479 84.42 94.825)"/><use xlink:href="#g" data-c="1D437" data-mml-node="mi" style="fill:#048;fill-opacity:1;stroke:none" transform="matrix(.00339 0 0 -.00339 86.987 95.544)"/></g></g></g><metadata><rdf:RDF><cc:Work><dc:creator><cc:Agent><dc:title>Remco de Boer</dc:title></cc:Agent></dc:creator><cc:license rdf:resource="http://creativecommons.org/licenses/by/4.0/"/></cc:Work><cc:License rdf:about="http://creativecommons.org/licenses/by/4.0/"><cc:permits rdf:resource="http://creativecommons.org/ns#Reproduction"/><cc:permits rdf:resource="http://creativecommons.org/ns#Distribution"/><cc:requires rdf:resource="http://creativecommons.org/ns#Notice"/><cc:requires rdf:resource="http://creativecommons.org/ns#Attribution"/><cc:permits rdf:resource="http://creativecommons.org/ns#DerivativeWorks"/></cc:License></rdf:RDF></metadata></svg>