<svg xmlns="http://www.w3.org/2000/svg" xmlns:cc="http://creativecommons.org/ns#" xmlns:dc="http://purl.org/dc/elements/1.1/" xmlns:inkscape="http://www.inkscape.org/namespaces/inkscape" xmlns:rdf="http://www.w3.org/1999/02/22-rdf-syntax-ns#" xmlns:sodipodi="http://sodipodi.sourceforge.net/DTD/sodipodi-0.dtd" xmlns:xlink="http://www.w3.org/1999/xlink" inkscape:version="1.4.2 (1:1.4.2+202505120737+ebf0e940d0)" sodipodi:docname="scattering-process-quantum.svg" xml:space="preserve" width="150mm" height="60mm" viewBox="0 0 150 60"><sodipodi:namedview inkscape:current-layer="svg79" inkscape:cx="283.145" inkscape:cy="113.578" inkscape:deskcolor="#d1d1d1" inkscape:document-units="mm" inkscape:pagecheckerboard="0" inkscape:pageopacity="0" inkscape:showpageshadow="2" inkscape:window-height="1371" inkscape:window-maximized="1" inkscape:window-width="2560" inkscape:window-x="0" inkscape:window-y="32" inkscape:zoom="1.563" bordercolor="#000000" borderopacity=".25" pagecolor="#ffffff"/><defs><path id="a" d="M69 609q0 28 18 44t44 16q23-2 40-17t17-43q0-30-17-45t-42-15-42 15-18 45M247 0q-15 3-104 3h-37Q80 3 56 1L34 0h-8v46h16q28 0 49 3 9 4 11 11t2 42v191q0 52-2 66t-14 19q-14 7-47 7H30v23q0 23 2 23l10 1q10 1 28 2t36 2q17 1 36 2t29 3 11 1h3V62q5-10 12-12t35-4h23V0z"/><path id="b" d="M41 46h14q39 0 47 14v62q0 17 1 39t0 42v66q0 35-1 59v23q-3 19-14 25t-45 9H25v23q0 23 2 23l10 1q10 1 28 2t37 2q17 1 36 2t29 3 11 1h3v-40q0-38 1-38t5 5 12 15 19 18 29 19 38 16 51 5q114-4 127-113 1-7 1-139v-86q0-38 2-45t11-10q21-3 49-3h16V0h-8l-24 1q-23 1-50 1t-38 1Q319 3 310 0h-8v46h16q61 0 61 16 1 2 1 138-1 135-2 143-6 28-20 42t-24 17-26 2q-45 0-79-34-27-27-34-55t-8-83V108q0-30 1-40t3-13 9-6q21-3 49-3h16V0h-8l-23 1q-24 1-51 1t-38 1Q42 3 33 0h-8v46z"/><path id="c" d="M27 422q53 4 82 56t32 122v15h40V431h135v-46H181V241q1-125 1-141t7-32q14-39 49-39 44 0 54 71 1 8 1 46v35h40v-47q0-77-42-117-27-27-70-27-34 0-59 12t-38 31-19 35-7 32q-1 7-1 148v137H18v37z"/><path id="d" d="M28 218q0 55 20 100t50 73 65 42 66 15q53 0 91-18t58-50 28-64 9-71q0-7-7-14H126v-15q0-148 100-180 20-6 44-6 42 0 72 32 17 17 27 42l10 24q3 3 16 3h3q17 0 17-10 0-4-3-13-19-55-63-87t-99-32q-95 0-158 69T28 218m305 57q-11 128-95 136h-2q-8 0-16-1t-25-8-29-21-23-41-16-66v-7h206z"/><path id="e" d="M36 46h14q39 0 47 14v31q0 14 1 31t0 39 0 42v125l-1 23q-3 19-14 25t-45 9H20v23q0 23 2 23l10 1q10 1 28 2t36 2q16 1 35 2t29 3 11 1h3v-69q39 68 97 68h6q45 0 66-22t21-46q0-21-13-36t-38-15-37 16-13 34q0 9 2 16t5 12 3 5q-2 2-23-4-16-8-24-15-47-45-47-179V101q0-12 1-20t0-15v-5q1-2 3-4t5-3 5-3 7-2 7-1 9-1 9 0 10-1 10 0h31V0h-9q-18 3-127 3Q37 3 28 0h-8v46z"/><path id="f" d="M137 305h-22l-37 15-15 39q0 35 34 62t121 27q73 0 118-32t60-76q5-14 5-31t1-115v-70q0-48 5-66t21-18q15 0 20 16t5 53v36h40v-39q-1-40-3-47-9-30-35-47T400-6t-47 18-24 42v4l-2-3q-2-3-5-6t-8-9-12-11-15-12-18-11-22-8-26-6-31-3q-60 0-108 31t-48 87q0 21 7 40t27 41 48 37 78 28 110 15h14v22q0 34-6 50-22 71-97 71-18 0-34-1t-25-4-8-3q22-15 22-44 0-25-16-39zm-11-199q0-31 24-55t59-25q38 0 67 23t39 60q2 7 3 66 0 58-1 58-8 0-21-1t-45-9-58-20-46-37-21-60"/><path id="g" d="M370 305h-21l-36 15-16 38q0 23 15 38 5 5 5 6t-10 2q-26 4-49 4-49 0-80-32-47-47-47-157 0-82 31-129 41-61 110-61 41 0 66 26t36 62q2 8 5 10t16 2h14q6-6 6-9 0-4-4-16t-16-33-29-38-48-31-69-13q-86 0-150 64T34 214q0 104 65 169t151 65 120-27 34-64q0-23-17-37z"/><path id="h" d="M28 214q0 95 65 164t157 70q90 0 155-68t66-165q0-95-64-160T250-10q-97 0-159 67T28 214M250 30q122 0 122 163v57q0 22-1 38t-7 38-16 36-31 28-49 20q-5 1-16 1-30 0-57-12-43-22-56-61t-13-92v-20q0-96 19-135 32-61 105-61"/><path id="i" d="M329 409q44 44 100 44 30 0 43-19t13-38q0-14-9-25t-27-11q-33 0-37 30-2 14 3 21 0 1 1 3v1q-28-3-53-22-8-5-8-7 0-1 4-5t9-12 11-18 9-26 4-33q0-62-49-105t-121-44q-50 0-99 28-11-18-11-38 0-35 26-52 9-6 17-6t72-2q84-1 108-6 61-9 96-41 39-39 39-98 0-67-78-103-60-31-142-31-83 0-143 31-78 35-78 100 0 36 21 60t42 33l11 6q-36 31-36 84 0 47 29 85-44 44-44 99 0 63 50 106t121 44q51 0 95-26zm-30-66q-5 28-26 44t-52 17q-29 0-50-16t-26-45q-3-17-3-51 0-44 7-65t30-35q17-10 43-10 22 0 38 7t23 18 11 20 5 15q3 16 3 50t-3 51M403-75q0 25-14 41t-41 23-49 9-54 2h-27q-67 0-80-6-20-9-31-28T95-74q0-10 6-23t21-30 48-28 80-12q69 0 111 28t42 64"/><path id="j" d="M69 609q0 28 18 44t44 16q23-2 40-17t17-43q0-30-17-45t-42-15-42 15-18 45M247 0q-15 3-104 3h-37Q80 3 56 1L34 0h-8v46h16q28 0 49 3 9 4 11 11t2 42v191q0 52-2 66t-14 19q-14 7-47 7H30v23q0 23 2 23l10 1q10 1 28 2t36 2q17 1 36 2t29 3 11 1h3V62q5-10 12-12t35-4h23V0z"/><path id="k" d="M41 46h14q39 0 47 14v62q0 17 1 39t0 42v66q0 35-1 59v23q-3 19-14 25t-45 9H25v23q0 23 2 23l10 1q10 1 28 2t37 2q17 1 36 2t29 3 11 1h3v-40q0-38 1-38t5 5 12 15 19 18 29 19 38 16 51 5q114-4 127-113 1-7 1-139v-86q0-38 2-45t11-10q21-3 49-3h16V0h-8l-24 1q-23 1-50 1t-38 1Q319 3 310 0h-8v46h16q61 0 61 16 1 2 1 138-1 135-2 143-6 28-20 42t-24 17-26 2q-45 0-79-34-27-27-34-55t-8-83V108q0-30 1-40t3-13 9-6q21-3 49-3h16V0h-8l-23 1q-24 1-51 1t-38 1Q42 3 33 0h-8v46z"/><path id="l" d="M370 305h-21l-36 15-16 38q0 23 15 38 5 5 5 6t-10 2q-26 4-49 4-49 0-80-32-47-47-47-157 0-82 31-129 41-61 110-61 41 0 66 26t36 62q2 8 5 10t16 2h14q6-6 6-9 0-4-4-16t-16-33-29-38-48-31-69-13q-86 0-150 64T34 214q0 104 65 169t151 65 120-27 34-64q0-23-17-37z"/><path id="m" d="M28 214q0 95 65 164t157 70q90 0 155-68t66-165q0-95-64-160T250-10q-97 0-159 67T28 214M250 30q122 0 122 163v57q0 22-1 38t-7 38-16 36-31 28-49 20q-5 1-16 1-30 0-57-12-43-22-56-61t-13-92v-20q0-96 19-135 32-61 105-61"/><path id="n" d="M41 46h14q39 0 47 14v62q0 17 1 39t0 42v66q0 35-1 59v23q-3 19-14 25t-45 9H25v23q0 23 2 23l10 1q10 1 28 2t37 2q17 1 36 2t29 3 11 1h3v-40q0-38 1-38t5 5 12 15 19 18 29 19 38 16 51 5q15 0 28-2t23-6 19-8 15-9 11-11 9-11 7-11 4-10 3-8l2-5 3 4 6 8q3 4 9 11t13 13 15 13 20 12 23 10 26 7 31 3q126 0 137-113 1-7 1-139v-86q0-38 2-45t11-10q21-3 49-3h16V0h-8l-23 1q-24 1-51 1t-38 1Q596 3 587 0h-8v46h16q61 0 61 16 1 2 1 138-1 135-2 143-6 28-20 42t-24 17-26 2q-45 0-79-34-27-27-34-55t-8-83V108q0-30 1-40t3-13 9-6q21-3 49-3h16V0h-8l-24 1q-23 1-50 1t-38 1Q319 3 310 0h-8v46h16q61 0 61 16 1 2 1 138-1 135-2 143-6 28-20 42t-24 17-26 2q-45 0-79-34-27-27-34-55t-8-83V108q0-30 1-40t3-13 9-6q21-3 49-3h16V0h-8l-23 1q-24 1-51 1t-38 1Q42 3 33 0h-8v46z"/><path id="o" d="M329 409q44 44 100 44 30 0 43-19t13-38q0-14-9-25t-27-11q-33 0-37 30-2 14 3 21 0 1 1 3v1q-28-3-53-22-8-5-8-7 0-1 4-5t9-12 11-18 9-26 4-33q0-62-49-105t-121-44q-50 0-99 28-11-18-11-38 0-35 26-52 9-6 17-6t72-2q84-1 108-6 61-9 96-41 39-39 39-98 0-67-78-103-60-31-142-31-83 0-143 31-78 35-78 100 0 36 21 60t42 33l11 6q-36 31-36 84 0 47 29 85-44 44-44 99 0 63 50 106t121 44q51 0 95-26zm-30-66q-5 28-26 44t-52 17q-29 0-50-16t-26-45q-3-17-3-51 0-44 7-65t30-35q17-10 43-10 22 0 38 7t23 18 11 20 5 15q3 16 3 50t-3 51M403-75q0 25-14 41t-41 23-49 9-54 2h-27q-67 0-80-6-20-9-31-28T95-74q0-10 6-23t21-30 48-28 80-12q69 0 111 28t42 64"/><path id="p" d="M295 316q0 40-27 69t-78 29q-36 0-62-13-30-19-30-52-1-5 0-13t16-24 43-25q18-5 44-9t44-9 32-13q17-8 33-20t32-41 17-62q0-62-38-102T198-10h-8q-52 0-96 36l-8-7-9-9Q71 4 65-1L54-11H42q-3 0-9 6v137q0 21 2 25t10 5h9q12 0 16-4t5-12 7-27 19-42q35-51 97-51 97 0 97 78 0 29-18 47-20 24-83 36t-83 23q-36 17-57 46t-21 62q0 39 17 66t43 40 50 18 44 5h11q40 0 70-15l15-8 9 7q10 9 22 17h12q3 0 9-6V310l-6-6h-28q-6 6-6 12"/><path id="q" d="M27 422q53 4 82 56t32 122v15h40V431h135v-46H181V241q1-125 1-141t7-32q14-39 49-39 44 0 54 71 1 8 1 46v35h40v-47q0-77-42-117-27-27-70-27-34 0-59 12t-38 31-19 35-7 32q-1 7-1 148v137H18v37z"/><path id="r" d="M137 305h-22l-37 15-15 39q0 35 34 62t121 27q73 0 118-32t60-76q5-14 5-31t1-115v-70q0-48 5-66t21-18q15 0 20 16t5 53v36h40v-39q-1-40-3-47-9-30-35-47T400-6t-47 18-24 42v4l-2-3q-2-3-5-6t-8-9-12-11-15-12-18-11-22-8-26-6-31-3q-60 0-108 31t-48 87q0 21 7 40t27 41 48 37 78 28 110 15h14v22q0 34-6 50-22 71-97 71-18 0-34-1t-25-4-8-3q22-15 22-44 0-25-16-39zm-11-199q0-31 24-55t59-25q38 0 67 23t39 60q2 7 3 66 0 58-1 58-8 0-21-1t-45-9-58-20-46-37-21-60"/><path id="u" d="M28 218q0 55 20 100t50 73 65 42 66 15q53 0 91-18t58-50 28-64 9-71q0-7-7-14H126v-15q0-148 100-180 20-6 44-6 42 0 72 32 17 17 27 42l10 24q3 3 16 3h3q17 0 17-10 0-4-3-13-19-55-63-87t-99-32q-95 0-158 69T28 218m305 57q-11 128-95 136h-2q-8 0-16-1t-25-8-29-21-23-41-16-66v-7h206z"/><path id="v" d="M28 214q0 95 65 164t157 70q90 0 155-68t66-165q0-95-64-160T250-10q-97 0-159 67T28 214M250 30q122 0 122 163v57q0 22-1 38t-7 38-16 36-31 28-49 20q-5 1-16 1-30 0-57-12-43-22-56-61t-13-92v-20q0-96 19-135 32-61 105-61"/><path id="w" d="M383 58q-56-68-127-68h-7q-125 0-144 99-1 7-2 137-1 109-1 122t-6 21q-10 16-60 16H25v23q0 23 2 23l11 1q10 1 29 2t38 2q17 1 37 2t30 3 12 1h3V261q1-184 3-197 3-15 14-24 20-14 60-14 26 0 47 9t32 23 20 32 12 30 4 24v17q0 16 1 40t0 47v67q0 46-10 57t-50 13h-18v46q2 0 76 5t79 6h7V264q0-180 1-183 3-20 14-26t45-9h18V0q-2 0-75-5t-77-6h-7z"/><path id="x" d="M27 422q53 4 82 56t32 122v15h40V431h135v-46H181V241q1-125 1-141t7-32q14-39 49-39 44 0 54 71 1 8 1 46v35h40v-47q0-77-42-117-27-27-70-27-34 0-59 12t-38 31-19 35-7 32q-1 7-1 148v137H18v37z"/><path id="y" d="M329 409q44 44 100 44 30 0 43-19t13-38q0-14-9-25t-27-11q-33 0-37 30-2 14 3 21 0 1 1 3v1q-28-3-53-22-8-5-8-7 0-1 4-5t9-12 11-18 9-26 4-33q0-62-49-105t-121-44q-50 0-99 28-11-18-11-38 0-35 26-52 9-6 17-6t72-2q84-1 108-6 61-9 96-41 39-39 39-98 0-67-78-103-60-31-142-31-83 0-143 31-78 35-78 100 0 36 21 60t42 33l11 6q-36 31-36 84 0 47 29 85-44 44-44 99 0 63 50 106t121 44q51 0 95-26zm-30-66q-5 28-26 44t-52 17q-29 0-50-16t-26-45q-3-17-3-51 0-44 7-65t30-35q17-10 43-10 22 0 38 7t23 18 11 20 5 15q3 16 3 50t-3 51M403-75q0 25-14 41t-41 23-49 9-54 2h-27q-67 0-80-6-20-9-31-28T95-74q0-10 6-23t21-30 48-28 80-12q69 0 111 28t42 64"/><path id="z" d="M69 609q0 28 18 44t44 16q23-2 40-17t17-43q0-30-17-45t-42-15-42 15-18 45M247 0q-15 3-104 3h-37Q80 3 56 1L34 0h-8v46h16q28 0 49 3 9 4 11 11t2 42v191q0 52-2 66t-14 19q-14 7-47 7H30v23q0 23 2 23l10 1q10 1 28 2t36 2q17 1 36 2t29 3 11 1h3V62q5-10 12-12t35-4h23V0z"/><path id="A" d="M41 46h14q39 0 47 14v62q0 17 1 39t0 42v66q0 35-1 59v23q-3 19-14 25t-45 9H25v23q0 23 2 23l10 1q10 1 28 2t37 2q17 1 36 2t29 3 11 1h3v-40q0-38 1-38t5 5 12 15 19 18 29 19 38 16 51 5q114-4 127-113 1-7 1-139v-86q0-38 2-45t11-10q21-3 49-3h16V0h-8l-24 1q-23 1-50 1t-38 1Q319 3 310 0h-8v46h16q61 0 61 16 1 2 1 138-1 135-2 143-6 28-20 42t-24 17-26 2q-45 0-79-34-27-27-34-55t-8-83V108q0-30 1-40t3-13 9-6q21-3 49-3h16V0h-8l-23 1q-24 1-51 1t-38 1Q42 3 33 0h-8v46z"/><path id="B" d="M295 316q0 40-27 69t-78 29q-36 0-62-13-30-19-30-52-1-5 0-13t16-24 43-25q18-5 44-9t44-9 32-13q17-8 33-20t32-41 17-62q0-62-38-102T198-10h-8q-52 0-96 36l-8-7-9-9Q71 4 65-1L54-11H42q-3 0-9 6v137q0 21 2 25t10 5h9q12 0 16-4t5-12 7-27 19-42q35-51 97-51 97 0 97 78 0 29-18 47-20 24-83 36t-83 23q-36 17-57 46t-21 62q0 39 17 66t43 40 50 18 44 5h11q40 0 70-15l15-8 9 7q10 9 22 17h12q3 0 9-6V310l-6-6h-28q-6 6-6 12"/><path id="C" d="M137 305h-22l-37 15-15 39q0 35 34 62t121 27q73 0 118-32t60-76q5-14 5-31t1-115v-70q0-48 5-66t21-18q15 0 20 16t5 53v36h40v-39q-1-40-3-47-9-30-35-47T400-6t-47 18-24 42v4l-2-3q-2-3-5-6t-8-9-12-11-15-12-18-11-22-8-26-6-31-3q-60 0-108 31t-48 87q0 21 7 40t27 41 48 37 78 28 110 15h14v22q0 34-6 50-22 71-97 71-18 0-34-1t-25-4-8-3q22-15 22-44 0-25-16-39zm-11-199q0-31 24-55t59-25q38 0 67 23t39 60q2 7 3 66 0 58-1 58-8 0-21-1t-45-9-58-20-46-37-21-60"/><path id="D" d="M28 218q0 55 20 100t50 73 65 42 66 15q53 0 91-18t58-50 28-64 9-71q0-7-7-14H126v-15q0-148 100-180 20-6 44-6 42 0 72 32 17 17 27 42l10 24q3 3 16 3h3q17 0 17-10 0-4-3-13-19-55-63-87t-99-32q-95 0-158 69T28 218m305 57q-11 128-95 136h-2q-8 0-16-1t-25-8-29-21-23-41-16-66v-7h206z"/><path id="F" d="M27 422q53 4 82 56t32 122v15h40V431h135v-46H181V241q1-125 1-141t7-32q14-39 49-39 44 0 54 71 1 8 1 46v35h40v-47q0-77-42-117-27-27-70-27-34 0-59 12t-38 31-19 35-7 32q-1 7-1 148v137H18v37z"/><path id="G" d="M137 305h-22l-37 15-15 39q0 35 34 62t121 27q73 0 118-32t60-76q5-14 5-31t1-115v-70q0-48 5-66t21-18q15 0 20 16t5 53v36h40v-39q-1-40-3-47-9-30-35-47T400-6t-47 18-24 42v4l-2-3q-2-3-5-6t-8-9-12-11-15-12-18-11-22-8-26-6-31-3q-60 0-108 31t-48 87q0 21 7 40t27 41 48 37 78 28 110 15h14v22q0 34-6 50-22 71-97 71-18 0-34-1t-25-4-8-3q22-15 22-44 0-25-16-39zm-11-199q0-31 24-55t59-25q38 0 67 23t39 60q2 7 3 66 0 58-1 58-8 0-21-1t-45-9-58-20-46-37-21-60"/><path id="H" d="M36 46h14q39 0 47 14v31q0 14 1 31t0 39 0 42v125l-1 23q-3 19-14 25t-45 9H20v23q0 23 2 23l10 1q10 1 28 2t36 2q16 1 35 2t29 3 11 1h3v-69q39 68 97 68h6q45 0 66-22t21-46q0-21-13-36t-38-15-37 16-13 34q0 9 2 16t5 12 3 5q-2 2-23-4-16-8-24-15-47-45-47-179V101q0-12 1-20t0-15v-5q1-2 3-4t5-3 5-3 7-2 7-1 9-1 9 0 10-1 10 0h31V0h-9q-18 3-127 3Q37 3 28 0h-8v46z"/><path id="I" d="M329 409q44 44 100 44 30 0 43-19t13-38q0-14-9-25t-27-11q-33 0-37 30-2 14 3 21 0 1 1 3v1q-28-3-53-22-8-5-8-7 0-1 4-5t9-12 11-18 9-26 4-33q0-62-49-105t-121-44q-50 0-99 28-11-18-11-38 0-35 26-52 9-6 17-6t72-2q84-1 108-6 61-9 96-41 39-39 39-98 0-67-78-103-60-31-142-31-83 0-143 31-78 35-78 100 0 36 21 60t42 33l11 6q-36 31-36 84 0 47 29 85-44 44-44 99 0 63 50 106t121 44q51 0 95-26zm-30-66q-5 28-26 44t-52 17q-29 0-50-16t-26-45q-3-17-3-51 0-44 7-65t30-35q17-10 43-10 22 0 38 7t23 18 11 20 5 15q3 16 3 50t-3 51M403-75q0 25-14 41t-41 23-49 9-54 2h-27q-67 0-80-6-20-9-31-28T95-74q0-10 6-23t21-30 48-28 80-12q69 0 111 28t42 64"/><path id="J" d="M28 218q0 55 20 100t50 73 65 42 66 15q53 0 91-18t58-50 28-64 9-71q0-7-7-14H126v-15q0-148 100-180 20-6 44-6 42 0 72 32 17 17 27 42l10 24q3 3 16 3h3q17 0 17-10 0-4-3-13-19-55-63-87t-99-32q-95 0-158 69T28 218m305 57q-11 128-95 136h-2q-8 0-16-1t-25-8-29-21-23-41-16-66v-7h206z"/><path id="K" d="M161 441q41 0 65-24t24-59q0-20-32-106t-31-125q3-42 27-66 21-18 43-24 18-8 31-8h1l82 331q84 331 85 332 3 2 16 2 20 0 20-7 0-9-81-331-82-328-82-329t6-1q86 0 163 88t78 164q0 24-8 41t-18 24-18 18-8 23q0 21 17 40t42 19q19 0 35-18t16-59q0-29-11-78t-18-68q-32-95-113-163T329-11h-10l-23-93q-24-94-24-95-2-6-20-6h-13q-6 6-6 8 0 5 23 95t23 93q-7 1-14 1-159 22-159 147 0 35 33 125t34 115v14q0 3-4 7t-11 4h-4q-23 0-42-19t-30-41-17-42-8-22-16-2H27q-6 6-6 9 0 12 13 46t48 71 79 37"/><path id="L" d="M69 609q0 28 18 44t44 16q23-2 40-17t17-43q0-30-17-45t-42-15-42 15-18 45M247 0q-15 3-104 3h-37Q80 3 56 1L34 0h-8v46h16q28 0 49 3 9 4 11 11t2 42v191q0 52-2 66t-14 19q-14 7-47 7H30v23q0 23 2 23l10 1q10 1 28 2t36 2q17 1 36 2t29 3 11 1h3V62q5-10 12-12t35-4h23V0z"/><path id="M" d="M41 46h14q39 0 47 14v62q0 17 1 39t0 42v66q0 35-1 59v23q-3 19-14 25t-45 9H25v23q0 23 2 23l10 1q10 1 28 2t37 2q17 1 36 2t29 3 11 1h3v-40q0-38 1-38t5 5 12 15 19 18 29 19 38 16 51 5q114-4 127-113 1-7 1-139v-86q0-38 2-45t11-10q21-3 49-3h16V0h-8l-24 1q-23 1-50 1t-38 1Q319 3 310 0h-8v46h16q61 0 61 16 1 2 1 138-1 135-2 143-6 28-20 42t-24 17-26 2q-45 0-79-34-27-27-34-55t-8-83V108q0-30 1-40t3-13 9-6q21-3 49-3h16V0h-8l-23 1q-24 1-51 1t-38 1Q42 3 33 0h-8v46z"/><path id="N" d="M161 441q41 0 65-24t24-59q0-20-32-106t-31-125q3-42 27-66 21-18 43-24 18-8 31-8h1l82 331q84 331 85 332 3 2 16 2 20 0 20-7 0-9-81-331-82-328-82-329t6-1q86 0 163 88t78 164q0 24-8 41t-18 24-18 18-8 23q0 21 17 40t42 19q19 0 35-18t16-59q0-29-11-78t-18-68q-32-95-113-163T329-11h-10l-23-93q-24-94-24-95-2-6-20-6h-13q-6 6-6 8 0 5 23 95t23 93q-7 1-14 1-159 22-159 147 0 35 33 125t34 115v14q0 3-4 7t-11 4h-4q-23 0-42-19t-30-41-17-42-8-22-16-2H27q-6 6-6 9 0 12 13 46t48 71 79 37"/><path id="O" d="M28 214q0 95 65 164t157 70q90 0 155-68t66-165q0-95-64-160T250-10q-97 0-159 67T28 214M250 30q122 0 122 163v57q0 22-1 38t-7 38-16 36-31 28-49 20q-5 1-16 1-30 0-57-12-43-22-56-61t-13-92v-20q0-96 19-135 32-61 105-61"/><path id="P" d="M383 58q-56-68-127-68h-7q-125 0-144 99-1 7-2 137-1 109-1 122t-6 21q-10 16-60 16H25v23q0 23 2 23l11 1q10 1 29 2t38 2q17 1 37 2t30 3 12 1h3V261q1-184 3-197 3-15 14-24 20-14 60-14 26 0 47 9t32 23 20 32 12 30 4 24v17q0 16 1 40t0 47v67q0 46-10 57t-50 13h-18v46q2 0 76 5t79 6h7V264q0-180 1-183 3-20 14-26t45-9h18V0q-2 0-75-5t-77-6h-7z"/><path id="Q" d="M27 422q53 4 82 56t32 122v15h40V431h135v-46H181V241q1-125 1-141t7-32q14-39 49-39 44 0 54 71 1 8 1 46v35h40v-47q0-77-42-117-27-27-70-27-34 0-59 12t-38 31-19 35-7 32q-1 7-1 148v137H18v37z"/><filter id="E" width="2.361" height="2.361" x="-.68" y="-.68" style="color-interpolation-filters:sRGB"><feGaussianBlur stdDeviation="3.839"/></filter></defs><g style="stroke:#8dae10;stroke-opacity:1" transform="translate(-14.236 -93.917)"><g fill="#999" stroke-width="0" style="display:inline;stroke:none;stroke-opacity:1"><g data-mml-node="mtable" style="stroke:none;stroke-opacity:1"><g data-mml-node="mtr" style="stroke:none;stroke-opacity:1"><g data-mml-node="mtd" style="stroke:none;stroke-opacity:1"><g data-mml-node="mtext" style="stroke:none;stroke-opacity:1" transform="matrix(.00479 0 0 -.00479 83.825 101.8)"><use xlink:href="#a" data-c="69" style="stroke:none;stroke-opacity:1;fill:#999;fill-opacity:1"/><use xlink:href="#b" data-c="6E" style="stroke:none;stroke-opacity:1;fill:#999;fill-opacity:1" transform="translate(278)"/><use xlink:href="#c" data-c="74" style="stroke:none;stroke-opacity:1;fill:#999;fill-opacity:1" transform="translate(834)"/><use xlink:href="#d" data-c="65" style="stroke:none;stroke-opacity:1;fill:#999;fill-opacity:1" transform="translate(1223)"/><use xlink:href="#e" data-c="72" style="stroke:none;stroke-opacity:1;fill:#999;fill-opacity:1" transform="translate(1667)"/><use xlink:href="#f" data-c="61" style="stroke:none;stroke-opacity:1;fill:#999;fill-opacity:1" transform="translate(2059)"/><use xlink:href="#g" data-c="63" style="stroke:none;stroke-opacity:1;fill:#999;fill-opacity:1" transform="translate(2559)"/><use xlink:href="#c" data-c="74" style="stroke:none;stroke-opacity:1;fill:#999;fill-opacity:1" transform="translate(3003)"/><use xlink:href="#a" data-c="69" style="stroke:none;stroke-opacity:1;fill:#999;fill-opacity:1" transform="translate(3392)"/><use xlink:href="#h" data-c="6F" style="stroke:none;stroke-opacity:1;fill:#999;fill-opacity:1" transform="translate(3670)"/><use xlink:href="#b" data-c="6E" style="stroke:none;stroke-opacity:1;fill:#999;fill-opacity:1" transform="translate(4170)"/></g></g></g><g data-mml-node="mtr" style="stroke:none;stroke-opacity:1"><g data-mml-node="mtd" style="stroke:none;stroke-opacity:1"><g data-mml-node="mtext" style="stroke:none;stroke-opacity:1" transform="matrix(.00479 0 0 -.00479 88.748 106.596)"><use xlink:href="#e" data-c="72" style="stroke:none;stroke-opacity:1;fill:#999;fill-opacity:1"/><use xlink:href="#d" data-c="65" style="stroke:none;stroke-opacity:1;fill:#999;fill-opacity:1" transform="translate(392)"/><use xlink:href="#i" data-c="67" style="stroke:none;stroke-opacity:1;fill:#999;fill-opacity:1" transform="translate(836)"/><use xlink:href="#a" data-c="69" style="stroke:none;stroke-opacity:1;fill:#999;fill-opacity:1" transform="translate(1336)"/><use xlink:href="#h" data-c="6F" style="stroke:none;stroke-opacity:1;fill:#999;fill-opacity:1" transform="translate(1614)"/><use xlink:href="#b" data-c="6E" style="stroke:none;stroke-opacity:1;fill:#999;fill-opacity:1" transform="translate(2114)"/></g></g></g></g><g data-mml-node="mtable" style="stroke:none;stroke-opacity:1"><g data-mml-node="mtr" style="stroke:none;stroke-opacity:1"><g data-mml-node="mtd" style="stroke:none;stroke-opacity:1"><g data-mml-node="mtext" style="stroke:none;stroke-opacity:1" transform="matrix(.00479 0 0 -.00479 19.185 101.46)"><use xlink:href="#j" data-c="69" style="stroke:none;stroke-opacity:1;fill:#999;fill-opacity:1"/><use xlink:href="#k" data-c="6E" style="stroke:none;stroke-opacity:1;fill:#999;fill-opacity:1" transform="translate(278)"/><use xlink:href="#l" data-c="63" style="stroke:none;stroke-opacity:1;fill:#999;fill-opacity:1" transform="translate(834)"/><use xlink:href="#m" data-c="6F" style="stroke:none;stroke-opacity:1;fill:#999;fill-opacity:1" transform="translate(1278)"/><use xlink:href="#n" data-c="6D" style="stroke:none;stroke-opacity:1;fill:#999;fill-opacity:1" transform="translate(1778)"/><use xlink:href="#j" data-c="69" style="stroke:none;stroke-opacity:1;fill:#999;fill-opacity:1" transform="translate(2611)"/><use xlink:href="#k" data-c="6E" style="stroke:none;stroke-opacity:1;fill:#999;fill-opacity:1" transform="translate(2889)"/><use xlink:href="#o" data-c="67" style="stroke:none;stroke-opacity:1;fill:#999;fill-opacity:1" transform="translate(3445)"/></g></g></g><g data-mml-node="mtr" style="stroke:none;stroke-opacity:1"><g data-mml-node="mtd" style="stroke:none;stroke-opacity:1"><g data-mml-node="mtext" style="stroke:none;stroke-opacity:1" transform="matrix(.00479 0 0 -.00479 19.185 106.576)"><use xlink:href="#p" data-c="73" style="stroke:none;stroke-opacity:1;fill:#999;fill-opacity:1"/><use xlink:href="#q" data-c="74" style="stroke:none;stroke-opacity:1;fill:#999;fill-opacity:1" transform="translate(394)"/><use xlink:href="#r" data-c="61" style="stroke:none;stroke-opacity:1;fill:#999;fill-opacity:1" transform="translate(783)"/><use xlink:href="#q" data-c="74" style="stroke:none;stroke-opacity:1;fill:#999;fill-opacity:1" transform="translate(1283)"/><use xlink:href="#u" data-c="65" style="stroke:none;stroke-opacity:1;fill:#999;fill-opacity:1" transform="translate(1672)"/></g></g></g></g><g stroke="#000" data-mml-node="mtable" style="stroke:none;stroke-opacity:1"><g data-mml-node="mtr" style="stroke:none;stroke-opacity:1"><g data-mml-node="mtd" style="stroke:none;stroke-opacity:1"><g data-mml-node="mtext" style="stroke:none;stroke-opacity:1" transform="matrix(.00479 0 0 -.00479 140.56 101.8)"><use xlink:href="#v" data-c="6F" style="stroke:none;stroke-opacity:1;fill:#999;fill-opacity:1"/><use xlink:href="#w" data-c="75" style="stroke:none;stroke-opacity:1;fill:#999;fill-opacity:1" transform="translate(500)"/><use xlink:href="#x" data-c="74" style="stroke:none;stroke-opacity:1;fill:#999;fill-opacity:1" transform="translate(1056)"/><use xlink:href="#y" data-c="67" style="stroke:none;stroke-opacity:1;fill:#999;fill-opacity:1" transform="translate(1445)"/><use xlink:href="#v" data-c="6F" style="stroke:none;stroke-opacity:1;fill:#999;fill-opacity:1" transform="translate(1945)"/><use xlink:href="#z" data-c="69" style="stroke:none;stroke-opacity:1;fill:#999;fill-opacity:1" transform="translate(2445)"/><use xlink:href="#A" data-c="6E" style="stroke:none;stroke-opacity:1;fill:#999;fill-opacity:1" transform="translate(2723)"/><use xlink:href="#y" data-c="67" style="stroke:none;stroke-opacity:1;fill:#999;fill-opacity:1" transform="translate(3279)"/></g></g></g><g data-mml-node="mtr" style="stroke:none;stroke-opacity:1"><g data-mml-node="mtd" style="stroke:none;stroke-opacity:1"><g data-mml-node="mtext" style="stroke:none;stroke-opacity:1" transform="matrix(.00479 0 0 -.00479 148.524 106.916)"><use xlink:href="#B" data-c="73" style="stroke:none;stroke-opacity:1;fill:#999;fill-opacity:1"/><use xlink:href="#x" data-c="74" style="stroke:none;stroke-opacity:1;fill:#999;fill-opacity:1" transform="translate(394)"/><use xlink:href="#C" data-c="61" style="stroke:none;stroke-opacity:1;fill:#999;fill-opacity:1" transform="translate(783)"/><use xlink:href="#x" data-c="74" style="stroke:none;stroke-opacity:1;fill:#999;fill-opacity:1" transform="translate(1283)"/><use xlink:href="#D" data-c="65" style="stroke:none;stroke-opacity:1;fill:#999;fill-opacity:1" transform="translate(1672)"/></g></g></g></g></g><g style="stroke:#8dae10;stroke-opacity:1"><path d="M153.462 110.28q14.52 20.13-12.278 39.681" style="fill:none;fill-opacity:0;stroke:#048;stroke-width:.6;stroke-linecap:round;stroke-linejoin:round;stroke-dasharray:none;stroke-dashoffset:0;stroke-opacity:1"/><g style="stroke:#8dae10;stroke-opacity:1"><path d="M131.822 98.263c21.392 16.209 21.392 36.093 0 51.698" style="fill:none;fill-opacity:0;stroke:#da3;stroke-width:.6;stroke-linecap:round;stroke-linejoin:round;stroke-dasharray:none;stroke-dashoffset:0;stroke-opacity:1"/><path d="M66.27 98.234c3.605 6.761 3.605 45.247 0 51.756" style="fill:none;fill-opacity:0;stroke:#da3;stroke-width:.6;stroke-linecap:round;stroke-linejoin:round;stroke-dasharray:2.40000009,3;stroke-dashoffset:4.02000016;stroke-opacity:1;font-variation-settings:normal;opacity:1;stroke-miterlimit:4;stop-color:#000;stop-opacity:1"/><path d="M122.46 98.263c19.609 14.858 19.609 37.393 0 51.698" style="fill:none;fill-opacity:0;stroke:#da3;stroke-width:.6;stroke-linecap:round;stroke-linejoin:round;stroke-dasharray:none;stroke-dashoffset:0;stroke-opacity:1"/><path d="M109.123 103.656c10.391 13.648 8.596 36.104-5.387 46.305" style="fill:none;fill-opacity:0;stroke:#da3;stroke-width:.6;stroke-linecap:round;stroke-linejoin:round;stroke-dasharray:2.40000009,3;stroke-dashoffset:4.9200002;stroke-opacity:1"/><path d="M113.098 98.263a36 36 0 0 1 4.133 3.656m0 0c12.315 12.724 12.315 32.125 0 44.503m0 0a34.5 34.5 0 0 1-4.133 3.539" style="fill:none;fill-opacity:0;stroke:#da3;stroke-width:.6;stroke-linecap:round;stroke-linejoin:round;stroke-dasharray:none;stroke-dashoffset:0;stroke-opacity:1;font-variation-settings:normal;opacity:1;stroke-miterlimit:4;stop-color:#000;stop-opacity:1"/><path d="M75.644 98.258c8.924 8.106 8.924 43.903 0 51.708" style="fill:none;fill-opacity:0;stroke:#da3;stroke-width:.6;stroke-linecap:round;stroke-linejoin:round;stroke-dasharray:2.40000009,3;stroke-dashoffset:1.80000007;stroke-opacity:1"/><path d="M91.655 110.276c3.711 13.695 1.496 33.06-6.645 39.688" style="fill:none;fill-opacity:0;stroke:#da3;stroke-width:.6;stroke-linecap:round;stroke-linejoin:round;stroke-dasharray:2.40000009,3;stroke-dashoffset:3.54000014;stroke-opacity:1"/><path d="M102.714 110.28c4.917 13.554 2.137 32.038-8.34 39.681" style="fill:none;fill-opacity:0;stroke:#da3;stroke-width:.6;stroke-linecap:round;stroke-linejoin:round;stroke-dasharray:2.40000009,3;stroke-dashoffset:2.40000009;stroke-opacity:1"/><path d="M56.903 98.231c2.489 5.41 2.489 46.554 0 51.762m-9.388-51.777c1.106 4.059 1.106 47.884 0 51.793" style="fill:none;fill-opacity:0;stroke:#da3;stroke-width:.6;stroke-linecap:round;stroke-linejoin:round;stroke-dasharray:none;stroke-dashoffset:0;stroke-opacity:1"/></g><path d="M19.476 110.28v39.681" style="fill:none;fill-opacity:0;stroke:#048;stroke-width:.6;stroke-linecap:round;stroke-linejoin:round;stroke-dasharray:none;stroke-dashoffset:0;stroke-opacity:1"/><path d="M28.823 133.254v16.707m0-39.681v16.742m9.434-16.742v39.681" style="fill:none;fill-opacity:0;stroke:#da3;stroke-width:.6;stroke-linecap:round;stroke-linejoin:round;stroke-dasharray:none;stroke-dashoffset:0;stroke-opacity:1"/></g><circle cx="95.196" cy="127.617" r="6.77" fill="#8dae10" stroke="none" style="display:inline;fill-rule:nonzero;filter:url(#E);stroke:none;stroke-opacity:1;fill:#048;fill-opacity:1"/><g stroke="#000" stroke-width="0" style="display:inline;fill:#17365c;fill-opacity:1;stroke:#8dae10;stroke-opacity:1"><g fill="#8dae10" data-mml-node="mtext" style="fill:#17365c;fill-opacity:1;stroke:#8dae10;stroke-opacity:1" transform="matrix(.00449 0 0 -.00449 89.865 142.158)"><use xlink:href="#F" data-c="74" style="fill:#048;fill-opacity:1;stroke:none;stroke-opacity:1"/><use xlink:href="#G" data-c="61" style="fill:#048;fill-opacity:1;stroke:none;stroke-opacity:1" transform="translate(389)"/><use xlink:href="#H" data-c="72" style="fill:#048;fill-opacity:1;stroke:none;stroke-opacity:1" transform="translate(889)"/><use xlink:href="#I" data-c="67" style="fill:#048;fill-opacity:1;stroke:none;stroke-opacity:1" transform="translate(1281)"/><use xlink:href="#J" data-c="65" style="fill:#048;fill-opacity:1;stroke:none;stroke-opacity:1" transform="translate(1781)"/><use xlink:href="#F" data-c="74" style="fill:#048;fill-opacity:1;stroke:none;stroke-opacity:1" transform="translate(2225)"/></g></g></g><g data-mml-node="msub" style="fill:#17365c;fill-opacity:1;stroke:#000;stroke-width:0"><g data-mml-node="mi" style="fill:#17365c;fill-opacity:1" transform="matrix(.00658 0 0 -.00658 7.166 36.183)"><use xlink:href="#K" data-c="1D713" style="fill:#048;fill-opacity:1;stroke:none"/></g><g data-mml-node="mtext" style="fill:#17365c;fill-opacity:1" transform="matrix(.00466 0 0 -.00466 11.67 37.17)"><use xlink:href="#L" data-c="69" style="fill:#048;fill-opacity:1;stroke:none"/><use xlink:href="#M" data-c="6E" style="fill:#048;fill-opacity:1;stroke:none" transform="translate(278)"/></g></g><g data-mml-node="msub" style="fill:#17365c;fill-opacity:1;stroke:#000;stroke-width:0"><g data-mml-node="mi" style="fill:#17365c;fill-opacity:1" transform="matrix(.00658 0 0 -.00658 135.83 54.931)"><use xlink:href="#N" data-c="1D713" style="fill:#048;fill-opacity:1;stroke:none"/></g><g data-mml-node="mtext" style="fill:#17365c;fill-opacity:1" transform="matrix(.00465 0 0 -.00465 140.334 55.919)"><use xlink:href="#O" data-c="6F" style="fill:#048;fill-opacity:1;stroke:none"/><use xlink:href="#P" data-c="75" style="fill:#048;fill-opacity:1;stroke:none" transform="translate(500)"/><use xlink:href="#Q" data-c="74" style="fill:#048;fill-opacity:1;stroke:none" transform="translate(1056)"/></g></g><metadata><rdf:RDF><cc:Work><dc:creator><cc:Agent><dc:title>Remco de Boer</dc:title></cc:Agent></dc:creator><cc:license rdf:resource="http://creativecommons.org/licenses/by/4.0/"/></cc:Work><cc:License rdf:about="http://creativecommons.org/licenses/by/4.0/"><cc:permits rdf:resource="http://creativecommons.org/ns#Reproduction"/><cc:permits rdf:resource="http://creativecommons.org/ns#Distribution"/><cc:requires rdf:resource="http://creativecommons.org/ns#Notice"/><cc:requires rdf:resource="http://creativecommons.org/ns#Attribution"/><cc:permits rdf:resource="http://creativecommons.org/ns#DerivativeWorks"/></cc:License></rdf:RDF></metadata></svg>