<svg xmlns="http://www.w3.org/2000/svg" xmlns:cc="http://creativecommons.org/ns#" xmlns:dc="http://purl.org/dc/elements/1.1/" xmlns:inkscape="http://www.inkscape.org/namespaces/inkscape" xmlns:rdf="http://www.w3.org/1999/02/22-rdf-syntax-ns#" xmlns:sodipodi="http://sodipodi.sourceforge.net/DTD/sodipodi-0.dtd" xmlns:xlink="http://www.w3.org/1999/xlink" inkscape:version="1.4.2 (1:1.4.2+202505120737+ebf0e940d0)" sodipodi:docname="vertex-factor-plot.svg" xml:space="preserve" id="svg45" width="439.475" height="248.312" viewBox="0 0 329.606 186.234"><sodipodi:namedview inkscape:current-layer="svg45" inkscape:cx="219.986" inkscape:cy="124.253" inkscape:deskcolor="#d1d1d1" inkscape:pagecheckerboard="0" inkscape:pageopacity="0" inkscape:showpageshadow="2" inkscape:window-height="1371" inkscape:window-maximized="1" inkscape:window-width="2560" inkscape:window-x="0" inkscape:window-y="32" inkscape:zoom="2.016" id="namedview1" bordercolor="#000000" borderopacity=".25" pagecolor="#ffffff"/><defs id="defs1"><style id="style1" type="text/css">*{stroke-linejoin:round;stroke-linecap:butt}</style></defs><g id="figure_1"><g id="patch_1"><path id="path1" d="M0 186.234h329.606V0H0z" style="fill:none"/></g><g id="axes_1"><g id="patch_2"><path id="path2" d="M32.5 151.12h282.541V7.2H32.501z" style="fill:none"/></g><g id="matplotlib.axis_1"><g id="xtick_1"><g id="line2d_1"><defs id="defs2"><path id="me38ff7e9b8" d="M0 0v3.5" style="stroke:#000;stroke-width:.8"/></defs><g id="g2"><use xlink:href="#me38ff7e9b8" id="use2" x="32.5" y="151.12" style="stroke:#000;stroke-width:.8"/></g></g><g id="text_1"><g id="g3" transform="matrix(.2 0 0 -.2 27.931 171.957)"><defs id="defs3"><path id="CMR17-30" d="M2688 2025c0 391-6 1055-275 1566-237 448-615 607-947 607-308 0-698-140-941-601-256-479-282-1073-282-1572 0-364 7-919 205-1406 275-658 768-747 1018-747 294 0 742 121 1004 728 192 442 218 959 218 1425M1466-26c-410 0-653 351-743 838-70 376-70 926-70 1284 0 492 0 901 83 1291 122 542 480 709 730 709 262 0 601-173 723-696 83-364 89-793 89-1304 0-416 0-927-76-1304-135-697-512-818-736-818" transform="scale(.01563)"/></defs><use xlink:href="#CMR17-30" id="use3" transform="scale(.99626)"/></g></g></g><g id="text_2"><g id="g4" transform="matrix(.2 0 0 -.2 301.97 166.397)"><defs id="defs4"><path id="CMMI12-73" d="M1459 1280c109-19 282-57 320-64 83-24 371-126 371-433 0-197-179-713-921-713-135 0-615 0-743 366 256-32 384 167 384 309 0 135-89 205-217 205-141 0-327-109-327-398 0-379 384-616 896-616 973 0 1261 715 1261 1048 0 95 0 274-205 478-160 154-313 186-659 256-173 38-448 96-448 383 0 128 115 588 723 588 269 0 532-100 596-321-282 0-295-243-295-249 0-135 122-173 179-173 90 0 269 69 269 335 0 264-243 535-742 535-839 0-1063-656-1063-917 0-485 474-587 621-619" transform="scale(.01563)"/></defs><use xlink:href="#CMMI12-73" id="use4" transform="scale(.99626)"/></g></g></g><g id="matplotlib.axis_2"><g id="text_3"><g id="g21" transform="matrix(0 -.2 -.2 0 23.42 150.422)"><defs id="defs5"><path id="CMSY10-6a" d="M1018 4570c0 115 0 230-128 230s-128-115-128-230v-5940c0-115 0-230 128-230s128 115 128 230z" transform="scale(.01563)"/><path id="CMMI12-61" d="M1926 760c-32-109-32-121-121-243-141-179-423-453-723-453-263 0-410 236-410 613 0 351 198 1066 320 1335 218 447 518 677 768 677 422 0 506-524 506-575 0-6-20-90-26-102zm410 1635c-70 166-243 421-576 421-723 0-1504-932-1504-1877C256 307 627-64 1062-64c352 0 653 275 832 486 64-377 365-486 557-486s346 115 461 345c102 217 192 607 192 632 0 32-26 58-64 58-58 0-64-32-90-128-96-377-217-779-480-779-185 0-198 166-198 294 0 147 19 217 77 466 45 160 77 300 128 485 237 958 294 1188 294 1226 0 90-70 160-166 160-205 0-256-223-269-300" transform="scale(.01563)"/><path id="CMMI12-4a" d="M3418 3912c51 191 64 255 377 255 103 0 167 0 167 115 0 70-58 70-84 70H2362c-58 0-135 0-135-115 0-64 51-64 51-70h160c512 0 512-51 512-147 0-7 0-51-25-152L2189 960C2022 312 1594 0 1286 0c-217 0-524 100-601 431 25-7 57-13 83-13 211 0 378 185 378 370 0 102-64 236-256 236-116 0-384-63-384-475 0-398 332-677 793-677 583 0 1210 439 1363 1043z" transform="scale(.01563)"/><path id="CMR17-32" d="M2669 989h-115c-64-453-116-530-141-569-32-51-493-51-583-51H602c230 250 678 703 1222 1228 390 370 845 805 845 1438 0 755-602 1189-1274 1189-704 0-1133-620-1133-1194 0-250 186-282 263-282 64 0 256 39 256 262 0 197-167 254-256 254-39 0-77-6-103-19 122 545 493 813 884 813 556 0 921-441 921-1023 0-556-326-1035-691-1451L262 146V0h2253z" transform="scale(.01563)"/><path id="CMR17-28" d="M1958-1561c0 6 0 19-19 38C1645-1224 858-407 858 1581s774 2798 1088 3116c0 7 12 20 12 39s-19 32-44 32c-71 0-615-472-928-1174-320-707-410-1395-410-2006 0-460 45-1237 429-2059 307-664 832-1129 909-1129 32 0 44 13 44 39" transform="scale(.01563)"/><path id="CMR17-6e" d="M2656 1933c0 326-64 857-819 857-506 0-768-390-864-646h-7v646l-755-70v-166c378 0 435-39 435-346V428c0-244-25-275-435-275V-13C365 0 646 0 813 0c166 0 454 0 608-13v166c-410 0-435 25-435 275v1230c0 589 358 1030 806 1030 474 0 525-422 525-730V428c0-244-26-275-435-275V-13c153 13 435 13 601 13 167 0 455 0 608-13v166c-409 0-435 25-435 275z" transform="scale(.01563)"/><path id="CMR17-6f" d="M2758 1356c0 820-595 1460-1292 1460-698 0-1293-640-1293-1460C173 551 768-64 1466-64c697 0 1292 615 1292 1420M1466 51c-301 0-557 179-704 429-160 287-180 646-180 928 0 269 13 602 180 890 128 211 377 416 704 416 288 0 531-160 684-384 199-301 199-723 199-922 0-250-13-633-186-941-179-294-454-416-697-416" transform="scale(.01563)"/><path id="CMR17-72" d="M960 1497c0 615 262 1191 742 1191 45 0 90-6 135-26 0 0-141-45-141-210 0-154 122-218 218-218 76 0 217 45 217 224 0 205-205 332-422 332-487 0-698-473-762-697h-6v697l-743-70v-166c378 0 436-39 436-346V428c0-244-26-275-436-275V-13C352 0 646 0 813 0c185 0 512 0 685-13v166c-461 0-538 0-538 287z" transform="scale(.01563)"/><path id="CMR17-6d" d="M4326 1933c0 319-57 857-819 857-435 0-736-294-851-639h-6c-77 525-455 639-813 639-506 0-768-390-864-646h-7v646l-755-70v-166c378 0 435-39 435-346V428c0-244-25-275-435-275V-13C365 0 646 0 813 0c166 0 454 0 608-13v166c-410 0-435 25-435 275v1230c0 589 358 1030 806 1030 474 0 525-422 525-730V428c0-244-26-275-435-275V-13c153 13 435 13 601 13 167 0 455 0 608-13v166c-409 0-435 25-435 275v1230c0 589 358 1030 806 1030 474 0 525-422 525-730V428c0-244-25-275-435-275V-13c154 13 435 13 602 13 166 0 454 0 608-13v166c-410 0-436 25-436 275z" transform="scale(.01563)"/><path id="CMR17-61" d="M2304 1653c0 419 0 641-269 890-237 209-512 273-729 273-506 0-871-409-871-845 0-243 192-243 231-243 83 0 230 50 230 226 0 158-122 227-230 227-26 0-58-7-77-13 134 424 480 546 704 546 320 0 672-285 672-829v-285c-378 0-832-51-1191-243-403-224-518-544-518-787 0-493 576-634 915-634 352 0 679 203 819 575 13-278 192-529 474-529 134 0 474 88 474 585v353h-116V562c0-384-172-434-256-434-262 0-262 330-262 610zm-339-783c0-553-397-832-749-832-320 0-570 237-570 532 0 191 84 530 455 735 307 173 659 199 864 199z" transform="scale(.01563)"/><path id="CMR17-6c" d="m979 4396-761-70v-166c377 0 435-38 435-343V426c0-242-26-273-435-273V-13C371 0 653 0 813 0c166 0 448 0 601-13v166c-409 0-435 25-435 273z" transform="scale(.01563)"/><path id="CMR17-69" d="M992 3909c0 140-115 261-262 261-141 0-263-114-263-261 0-140 115-261 263-261 140 0 262 115 262 261M243 2706v-165c359 0 410-39 410-344V427c0-243-26-274-435-274V-13C371 0 646 0 806 0c154 0 416 0 564-13v166c-378 0-391 38-391 267v2356z" transform="scale(.01563)"/><path id="CMR17-73" d="M1978 2697c0 116-7 122-45 122-26 0-32-6-109-102-19-26-77-91-96-116-205 218-493 218-602 218-710 0-966-372-966-743 0-578 653-711 838-751 404-82 544-108 679-224 83-76 224-217 224-447 0-270-154-616-743-616-556 0-755 422-870 983-19 89-19 96-70 96-52 0-58-7-58-134V63c0-114 6-121 45-121 32 0 38 7 70 58 39 57 135 211 173 276C576 103 800-64 1158-64c634 0 973 347 973 848 0 328-173 501-256 578-192 199-416 244-685 295-352 78-800 168-800 560 0 166 90 520 736 520 685 0 724-643 736-849 7-32 39-39 58-39 58 0 58 20 58 129z" transform="scale(.01563)"/><path id="CMR17-65" d="M2438 1472c26 26 26 39 26 104 0 662-346 1240-1075 1240-679 0-1216-647-1216-1433C173 551 781-64 1459-64c717 0 999 671 999 804 0 44-39 44-52 44-44 0-51-13-76-88-141-431-493-645-826-645-275 0-550 152-723 429-199 323-199 696-199 992zm-1849 96c45 937 537 1146 793 1146 436 0 730-417 736-1146z" transform="scale(.01563)"/><path id="CMR17-64" d="M1869 4326v-166c377 0 435-38 435-340V2345c-26 32-288 445-806 445-653 0-1287-582-1287-1426C211 525 806-64 1434-64c544 0 825 401 857 444V-63h775v191c-378 0-436 38-436 345v3923zm422-3571c0-192-115-365-262-493-218-192-435-224-557-224-186 0-851 96-851 1318 0 1256 742 1332 909 1332 294 0 531-166 678-397 83-134 83-153 83-268z" transform="scale(.01563)"/><path id="CMR17-29" d="M1683 1581c0 459-45 1236-429 2058-307 664-832 1129-908 1129-20 0-45-7-45-39 0-12 6-19 13-32 307-319 1088-1129 1088-3113 0-1991-775-2801-1088-3121-7-12-13-19-13-31 0-32 25-32 45-32 70 0 614 472 928 1174 320 707 409 1395 409 2007" transform="scale(.01563)"/></defs><use xlink:href="#CMSY10-6a" id="use5" transform="scale(.99626)"/><use xlink:href="#CMMI12-61" id="use6" transform="translate(27.674)scale(.99626)"/><use xlink:href="#CMMI12-4a" id="use7" transform="translate(78.882 -25.405)scale(.49813)"/><use xlink:href="#CMSY10-6a" id="use8" transform="translate(111.45)scale(.99626)"/><use xlink:href="#CMR17-32" id="use9" transform="translate(139.124 36.154)scale(.69738)"/><use xlink:href="#CMR17-28" id="use10" transform="translate(201.68)scale(.99626)"/><use xlink:href="#CMR17-6e" id="use11" transform="translate(236.962)scale(.99626)"/><use xlink:href="#CMR17-6f" id="use12" transform="translate(287.857)scale(.99626)"/><use xlink:href="#CMR17-72" id="use13" transform="translate(333.548)scale(.99626)"/><use xlink:href="#CMR17-6d" id="use14" transform="translate(368.828)scale(.99626)"/><use xlink:href="#CMR17-61" id="use15" transform="translate(445.748)scale(.99626)"/><use xlink:href="#CMR17-6c" id="use16" transform="translate(491.438)scale(.99626)"/><use xlink:href="#CMR17-69" id="use17" transform="translate(516.31)scale(.99626)"/><use xlink:href="#CMR17-73" id="use18" transform="translate(541.18)scale(.99626)"/><use xlink:href="#CMR17-65" id="use19" transform="translate(576.982)scale(.99626)"/><use xlink:href="#CMR17-64" id="use20" transform="translate(617.467)scale(.99626)"/><use xlink:href="#CMR17-29" id="use21" transform="translate(668.363)scale(.99626)"/></g></g></g><g id="line2d_2"><path id="path21" d="M98.426 151.12V7.2" clip-path="url(#p8703a85487)" style="fill:none;stroke-dasharray:1.5,2.475;stroke-dashoffset:0;stroke:#048;stroke-width:1.5"/></g><g id="line2d_3"><path id="path22" d="M167.043 151.12V7.2" clip-path="url(#p8703a85487)" style="fill:none;stroke-dasharray:5.55,2.4;stroke-dashoffset:0;stroke:#e6332a;stroke-width:1.5"/></g><g id="line2d_4"><path id="path23" d="m98.643 125.907 2.819-2.213 2.819-2.508 2.602-2.617 2.602-2.95 2.385-3.034 2.385-3.393 2.385-3.795 2.385-4.243 2.386-4.738 2.385-5.28 2.385-5.857 2.385-6.456 2.602-7.722 2.819-9.089 3.903-13.429 4.336-14.806 2.169-6.64 1.734-4.605 1.301-2.913 1.301-2.363 1.084-1.5.868-.872.867-.567.867-.254.651.017.65.194.868.532.867.837.867 1.13 1.085 1.802 1.3 2.685 1.518 3.759 1.735 4.963 2.168 6.915 3.903 13.373 4.337 14.626 2.819 8.771 2.602 7.408 2.385 6.175 2.385 5.594 2.385 5.04 2.385 4.529 2.386 4.061 2.385 3.64 2.385 3.263 2.602 3.178 2.602 2.829 2.819 2.718 2.818 2.407 3.036 2.292 3.253 2.158 3.252 1.895 3.47 1.776 3.902 1.74 4.12 1.592 4.554 1.514 4.987 1.416 5.42 1.307 6.072 1.232 6.722 1.137 7.805 1.087 8.89 1.003 10.192.92 11.925.846 14.094.77 8.023.356h0" clip-path="url(#p8703a85487)" style="fill:none;stroke:#ff7f0e;stroke-width:2;stroke-linecap:square"/></g><g id="line2d_5"><path id="path24" d="m98.643 151.024 3.036-1.478 2.819-1.62 2.602-1.748 2.385-1.857 2.385-2.14 2.168-2.23 2.169-2.542 2.168-2.9 2.168-3.309 1.952-3.37 1.951-3.786 1.952-4.242 1.951-4.738 2.168-5.886 2.169-6.57 2.385-8.018 2.602-9.62 3.252-12.994 5.638-22.728 2.168-7.7 1.735-5.31 1.301-3.362 1.301-2.762 1.084-1.81 1.084-1.348.868-.74.867-.445.867-.153.868.128.867.397.867.65 1.084 1.142 1.085 1.473 1.3 2.147 1.518 2.94 1.952 4.303 2.602 6.32 9.324 23.158 3.035 6.73 2.819 5.726 2.819 5.219 2.819 4.73 2.818 4.277 2.82 3.86 2.818 3.487 2.819 3.15 3.036 3.059 3.035 2.752 3.253 2.65 3.469 2.529 3.686 2.396 3.903 2.255 4.12 2.112 4.337 1.969 4.77 1.91 4.987 1.758 5.42 1.675 6.072 1.637 6.505 1.52 7.155 1.446 8.023 1.39 8.89 1.314 9.975 1.248 11.275 1.184 11.058.978" clip-path="url(#p8703a85487)" style="fill:none;stroke-dasharray:7.4,3.2;stroke-dashoffset:0;stroke:#ff7f0e;stroke-width:2"/></g><g id="patch_3"><path id="path25" d="M32.5 151.12V7.2" style="fill:none;stroke:#000;stroke-width:.8;stroke-linejoin:miter;stroke-linecap:square"/></g><g id="patch_4"><path id="path26" d="M32.5 151.12h282.541" style="fill:none;stroke:#000;stroke-width:.8;stroke-linejoin:miter;stroke-linecap:square"/></g><g id="text_4"><g id="g33" style="fill:#048" transform="matrix(.2 0 0 -.2 47.548 173.546)"><defs id="defs26"><path id="CMMI12-6d" d="M1318 1871c13 39 173 358 410 562 166 153 384 256 634 256 256 0 345-192 345-447 0-39 0-166-77-467l-160-657c-51-192-172-665-185-735-26-96-64-262-64-287 0-90 70-160 166-160 192 0 224 147 282 377l384 1526c13 51 345 850 1049 850 256 0 346-192 346-447 0-358-250-1054-390-1437-58-154-90-237-90-352 0-287 198-517 506-517 595 0 819 939 819 977 0 32-26 58-64 58-58 0-64-19-96-128-147-511-384-779-640-779-64 0-167 0-167 205 0 167 77 371 103 441 115 308 403 1063 403 1435 0 383-224 671-710 671-429 0-775-242-1031-619-19 345-230 619-710 619-570 0-871-401-986-561-19 363-281 561-563 561-186 0-333-89-454-332-116-230-205-619-205-645 0-25 25-57 70-57 51 0 58 6 96 153 96 377 218 754 474 754 147 0 198-103 198-294 0-141-64-390-109-588l-179-689c-25-122-96-409-128-524-45-166-115-466-115-498 0-90 70-160 166-160 77 0 167 38 218 134 13 32 70 256 102 383l141 575z" transform="scale(.01563)"/><path id="CMMI12-43" d="M4781 4423c0 57-45 57-58 57s-38 0-89-64l-442-534c-224 382-576 598-1056 598-1382 0-2816-1392-2816-2885 0-1062 749-1723 1683-1723 512 0 960 216 1331 528 557 463 724 1081 724 1131 0 57-52 57-71 57-57 0-64-38-77-64C3616 534 2752 57 2112 57 1434 57 845 489 845 1391c0 204 64 1309 787 2141 352 407 954 763 1562 763 704 0 1017-578 1017-1227 0-165-19-304-19-330 0-57 64-57 83-57 71 0 77 6 103 120z" transform="scale(.01563)"/><path id="CMR17-2b" d="M2413 1472h1696c89 0 198 0 198 108 0 115-102 115-198 115H2413v1691c0 89 0 198-109 198-115 0-115-102-115-198V1695H493c-90 0-199 0-199-108 0-115 103-115 199-115h1696V-218c0-89 0-198 109-198 115 0 115 102 115 198z" transform="scale(.01563)"/><path id="CMMI12-44" d="M1005 472c-58-223-71-287-519-287-121 0-185 0-185-115 0-70 38-70 166-70h2029c1293 0 2554 1332 2554 2753 0 918-551 1599-1466 1599H1530c-122 0-180 0-180-121 0-64 58-64 154-64 390 0 390-51 390-121 0-12 0-51-25-147zm1350 3459c58 236 83 236 333 236h704c602 0 1152-325 1152-1204 0-319-128-1427-749-2128-179-210-665-650-1401-650h-730c-90 0-102 0-141 7-70 6-77 19-77 70 0 45 13 83 26 140z" transform="scale(.01563)"/></defs><use xlink:href="#CMR17-28" id="use26" transform="scale(.99626)"/><use xlink:href="#CMMI12-6d" id="use27" transform="translate(35.28)scale(.99626)"/><use xlink:href="#CMMI12-43" id="use28" transform="translate(120.608 -14.944)scale(.69738)"/><use xlink:href="#CMR17-2b" id="use29" transform="translate(197.108)scale(.99626)"/><use xlink:href="#CMMI12-6d" id="use30" transform="translate(290.962)scale(.99626)"/><use xlink:href="#CMMI12-44" id="use31" transform="translate(376.29 -14.944)scale(.69738)"/><use xlink:href="#CMR17-29" id="use32" transform="translate(435.38)scale(.99626)"/><use xlink:href="#CMR17-32" id="use33" transform="translate(470.66 36.154)scale(.69738)"/></g></g><g id="text_5"><g id="g36" style="fill:#e6332a" transform="matrix(.2 0 0 -.2 152.409 173.546)"><defs id="defs33"><path id="CMMI12-4d" d="M5811 3886c58 217 71 281 525 281 122 0 179 0 179 121 0 64-45 64-166 64h-768c-160 0-167-6-237-109L3008 562l-480 3649c-19 141-26 141-192 141h-794c-121 0-179 0-179-121 0-64 58-64 154-64 390 0 390-51 390-121 0-12 0-51-25-147L1062 634c-76-307-224-448-652-448-20 0-96 0-96-113 0-73 57-73 83-73h1177c45 0 116 0 116 122 0 58-64 64-90 64-211 0-416 38-416 268 0 64 0 70 26 159l883 3516h6l531-3957c20-153 26-172 84-172 70 0 102 51 134 109l2573 4052h6L4499 473c-57-223-70-287-518-287-122 0-186 0-186-116 0-70 58-70 96-70h1453c51 0 122 0 122 122 0 64-58 64-154 64-390 0-390 48-390 108 0 7 0 51 12 102z" transform="scale(.01563)"/><path id="CMMI12-52" d="M2355 3924c58 236 83 236 333 236h461c550 0 960-165 960-661 0-324-167-1259-1453-1259h-723zm890-1755c793 172 1414 682 1414 1229 0 496-505 954-1395 954H1530c-128 0-186 0-186-126 0-66 45-66 166-66 384 0 384-48 384-115 0-12 0-51-25-146L1005 479c-58-223-71-287-512-287-147 0-192 0-192-121 0-64 70-64 89-64h1492c51 0 121 0 121 121 0 64-57 64-153 64-391 0-391 51-391 114 0 7 0 51 13 101l429 1705h768c608 0 723-381 723-590 0-95-64-343-109-508-70-291-89-362-89-482 0-450 371-660 800-660 518 0 742 629 742 719 0 44-32 63-70 63-52 0-64-38-77-89C4435 114 4173 0 4013 0s-263 70-263 356c0 153 77 732 84 764 32 235 32 260 32 312 0 464-378 661-621 737" transform="scale(.01563)"/></defs><use xlink:href="#CMMI12-4d" id="use34" transform="scale(.99626)"/><use xlink:href="#CMR17-32" id="use35" transform="translate(104.78 36.154)scale(.69738)"/><use xlink:href="#CMMI12-52" id="use36" transform="translate(94.373 -27.44)scale(.69738)"/></g></g><g id="legend_1"><g id="patch_5"><path id="path36" d="M201.898 88.448h116.508q4 0 4-4V30.697q0-4-4-4H201.898q-4 0-4 4v53.75q0 4 4 4z" style="fill:#fff;opacity:.8;stroke:#ccc;stroke-linejoin:miter"/></g><g id="line2d_6"><path id="path37" d="M205.898 41.697h20" style="fill:none;stroke:#ff7f0e;stroke-width:2;stroke-linecap:square"/></g><g id="text_6"><g id="g39" transform="matrix(.2 0 0 -.2 241.898 48.697)"><defs id="defs37"><path id="CMR17-42" d="M333 4352v-166c441 0 512 0 512-286V452c0-286-71-286-512-286V0h2201c820 0 1351 583 1351 1164 0 577-525 1069-1210 1069 615 123 1043 538 1043 1031 0 538-524 1088-1350 1088zm915-2048v1633c0 218 13 249 269 249h819c634 0 915-512 915-909 0-486-390-973-1081-973zm269-2138c-256 0-269 31-269 247v1789h1184c659 0 979-577 979-1040s-365-996-1062-996z" transform="scale(.01563)"/><path id="CMR17-57" d="M5523 3764c58 172 154 396 525 396v166h-448c-160 0-442 0-595 6v-172c288 0 409-160 409-313 0-45-6-70-32-140L4390 555 3347 3873c-19 64-25 90-25 115 0 172 281 172 403 172v166h-704c-160 0-448 0-595 6v-172c294 0 371-19 435-133 25-58 128-389 128-408 0-26-13-64-19-83L2029 561 986 3867c-32 90-32 102-32 115 0 178 281 178 409 178v166H659c-166 0-448 0-601 6v-172c384 0 409-38 473-242L1779-20c32-95 32-108 90-108 51 0 70 13 96 102l1088 3459L4141-26c25-89 45-102 96-102 57 0 57 13 89 108z" transform="scale(.01563)"/><path id="CMR17-31" d="M1702 4058c0 134-6 134-96 134-249-276-627-365-985-365-19 0-51 0-58-19-6-13-6-26-6-160 198 0 531 38 787 191V461c0-225-13-301-563-301H589V0h1869v160h-192c-551 0-564 70-564 298z" transform="scale(.01563)"/></defs><use xlink:href="#CMR17-42" id="use37" transform="scale(.99626)"/><use xlink:href="#CMR17-57" id="use38" transform="translate(65.189)scale(.99626)"/><use xlink:href="#CMR17-31" id="use39" transform="translate(161.587 -14.944)scale(.69738)"/></g></g><g id="line2d_7"><path id="path39" d="M205.898 69.572h20" style="fill:none;stroke-dasharray:7.4,3.2;stroke-dashoffset:0;stroke:#ff7f0e;stroke-width:2"/></g><g id="text_7"><g id="g45" transform="matrix(.2 0 0 -.2 241.898 76.572)"><defs id="defs39"><path id="CMSY10-1" d="M1229 1619c0 186-154 339-339 339-186 0-340-153-340-339s154-339 340-339c185 0 339 153 339 339" transform="scale(.01563)"/><path id="CMMI12-6e" d="M1318 1871c13 39 173 358 410 562 166 153 384 256 634 256 256 0 345-192 345-447 0-364-262-1092-390-1437-58-154-90-237-90-352 0-287 199-517 506-517 595 0 819 939 819 977 0 32-26 58-64 58-58 0-64-19-96-128-147-524-390-779-640-779-64 0-166 0-166 205 0 160 70 352 108 441 128 353 397 1070 397 1435 0 383-224 671-710 671-570 0-871-401-986-561-19 363-281 561-563 561-205 0-346-121-454-338-116-230-205-613-205-639 0-25 25-57 70-57 51 0 58 6 96 153 103 390 218 754 474 754 147 0 198-103 198-294 0-141-64-390-109-588l-179-689c-25-122-96-409-128-524-45-166-115-466-115-498 0-90 70-160 166-160 77 0 167 38 218 134 13 32 70 256 102 383l141 575z" transform="scale(.01563)"/></defs><use xlink:href="#CMR17-42" id="use40" transform="scale(.99626)"/><use xlink:href="#CMR17-57" id="use41" transform="translate(65.189)scale(.99626)"/><use xlink:href="#CMR17-31" id="use42" transform="translate(161.587 -14.944)scale(.69738)"/><use xlink:href="#CMSY10-1" id="use43" transform="translate(216.207)scale(.99626)"/><use xlink:href="#CMMI12-6e" id="use44" transform="translate(266.02)scale(.99626)"/><use xlink:href="#CMR17-31" id="use45" transform="translate(324.25 -14.944)scale(.69738)"/></g></g></g></g></g><defs id="defs45"><clipPath id="p8703a85487"><path id="rect45" d="M32.5 7.2h282.541v143.92H32.5z"/></clipPath></defs><metadata id="metadata1"><rdf:RDF><cc:Work><dc:creator><cc:Agent><dc:title>Remco de Boer</dc:title></cc:Agent></dc:creator><cc:license rdf:resource="http://creativecommons.org/licenses/by/4.0/"/></cc:Work><cc:License rdf:about="http://creativecommons.org/licenses/by/4.0/"><cc:permits rdf:resource="http://creativecommons.org/ns#Reproduction"/><cc:permits rdf:resource="http://creativecommons.org/ns#Distribution"/><cc:requires rdf:resource="http://creativecommons.org/ns#Notice"/><cc:requires rdf:resource="http://creativecommons.org/ns#Attribution"/><cc:permits rdf:resource="http://creativecommons.org/ns#DerivativeWorks"/></cc:License></rdf:RDF></metadata></svg>