<svg xmlns="http://www.w3.org/2000/svg" xmlns:cc="http://creativecommons.org/ns#" xmlns:dc="http://purl.org/dc/elements/1.1/" xmlns:inkscape="http://www.inkscape.org/namespaces/inkscape" xmlns:rdf="http://www.w3.org/1999/02/22-rdf-syntax-ns#" xmlns:sodipodi="http://sodipodi.sourceforge.net/DTD/sodipodi-0.dtd" xmlns:xlink="http://www.w3.org/1999/xlink" inkscape:version="1.4.2 (1:1.4.2+202505120737+ebf0e940d0)" sodipodi:docname="BEPCII.svg" width="546.845" height="371.586" viewBox="0 0 546.845 371.586"><sodipodi:namedview inkscape:current-layer="svg215" inkscape:cx="273.114" inkscape:cy="186.088" inkscape:deskcolor="#d1d1d1" inkscape:pagecheckerboard="0" inkscape:pageopacity="0" inkscape:showpageshadow="2" inkscape:window-height="1371" inkscape:window-maximized="1" inkscape:window-width="2560" inkscape:window-x="0" inkscape:window-y="32" inkscape:zoom="1.62" bordercolor="#000000" borderopacity=".25" pagecolor="#ffffff"/><defs><path id="a" d="M131 622q-7 7-11 9t-16 3-43 3H28v46h318q77 0 113-5t72-27q43-24 68-61t25-78q0-51-41-93t-107-59l-10-3q73-9 129-55t56-115q0-68-51-120T469 3q-13-2-227-3H28v46h33q42 1 51 3t19 12zm380-109q0 47-26 81t-69 42h-45q-20 0-38 1-67 0-82-1t-19-8q-3-4-3-129V374h83l84 1 10 2q4 1 11 3t25 13 32 24 25 39 12 57m26-325q0 51-28 94t-79 54l-101 1H229V116q0-59 5-64 6-5 100-5h49q42 0 60 6 43 14 68 51t26 84"/><path id="b" d="M128 619q-7 7-11 9t-16 3-43 3H25v46h572v-4q2-6 14-116t14-116v-4h-40v4q-1 3-3 21-4 35-12 61t-17 45-25 30-30 18-41 10-46 4-58 1q-87 0-102-1t-18-11 0-1q-1-2-1-124V376h54q73 2 91 9 36 16 39 84v24h40V213h-40v20q-1 35-8 55t-25 29-34 11-52 2h-65V114q0-57 5-62 6-5 52-5h102q37 0 61 3t53 12 47 30 32 54q10 26 15 54t8 47 5 23v3h40v-3q-1-3-20-133T610 3V0H25v46h33q42 1 51 3t19 12z"/><path id="c" d="M55 507q0 83 57 140t131 57h14q85 0 148-63l21 31q5 7 10 15t10 13l3 4h4q3 0 6 1h4q3 0 9-6V462l-6-6h-18q-11 0-13 3t-5 20q-17 126-101 167-37 16-75 16-53 0-86-36t-33-84q0-34 17-62t48-45q10-4 86-23t84-23q57-22 93-75t37-123q0-81-52-146T301-21q-56 0-100 17t-61 31l-18 14q-4-5-15-20T87-7t-9-14q-2-1-10-1h-4q-3 0-9 6v117q0 119 1 121 2 5 20 5h13q6-6 6-13 0-32 10-63t34-61 66-48 100-18q47 0 81 38t34 93q0 43-22 78t-58 48q-56 14-74 19-5 1-27 6t-33 8-32 11-33 18-29 24-27 35q-30 49-30 105"/><path id="d" d="M328 0q-21 3-148 3T32 0H21v46h22q49 0 63 3t20 11q2 3 2 282 0 278-2 281-4 5-8 7t-22 5-53 2H21v46h11q21-3 148-3t148 3h11v-46h-22q-49 0-63-3t-20-11q-2-3-2-281 0-279 2-282 4-5 8-7t22-5 53-2h22V0Z"/><path id="t" d="M28 218q0 55 20 100t50 73 65 42 66 15q53 0 91-18t58-50 28-64 9-71q0-7-7-14H126v-15q0-148 100-180 20-6 44-6 42 0 72 32 17 17 27 42l10 24q3 3 16 3h3q17 0 17-10 0-4-3-13-19-55-63-87t-99-32q-95 0-158 69T28 218m305 57q-11 128-95 136h-2q-8 0-16-1t-25-8-29-21-23-41-16-66v-7h206z"/><path id="s" d="M27 422q53 4 82 56t32 122v15h40V431h135v-46H181V241q1-125 1-141t7-32q14-39 49-39 44 0 54 71 1 8 1 46v35h40v-47q0-77-42-117-27-27-70-27-34 0-59 12t-38 31-19 35-7 32q-1 7-1 148v137H18v37z"/><path id="n" d="M370 305h-21q-21 0-36 15t-16 38q0 23 15 38 5 5 5 6t-10 2q-26 4-49 4-49 0-80-32-47-47-47-157 0-82 31-129 41-61 110-61 41 0 66 26t36 62q2 8 5 10t16 2h14q6-6 6-9 0-4-4-16t-16-33-29-38-48-31-69-13q-86 0-150 64T34 214q0 104 65 169t151 65 120-27 34-64q0-23-17-37z"/><path id="o" d="M28 214q0 95 65 164t157 70q90 0 155-68t66-165q0-95-64-160T250-10q-97 0-159 67T28 214M250 30q122 0 122 163v57q0 22-1 38t-7 38-16 36-31 28-49 20q-5 1-16 1-30 0-57-12-43-22-56-61t-13-92v-20q0-96 19-135 32-61 105-61"/><path id="u" d="M36 46h14q39 0 47 14v31q0 14 1 31t0 39 0 42v125l-1 23q-3 19-14 25t-45 9H20v23q0 23 2 23l10 1q10 1 28 2l36 2q16 1 35 2t29 3 11 1h3v-69q39 68 97 68h6q45 0 66-22t21-46q0-21-13-36t-38-15-37 16-13 34q0 9 2 16t5 12l3 5q-2 2-23-4-16-8-24-15-47-45-47-179V101q0-12 1-20t0-15v-5q1-2 3-4t5-3 5-3 7-2 7-1 9-1h9q2 0 10-1t10 0h31V0h-9q-18 3-127 3Q37 3 28 0h-8v46z"/><path id="p" d="M41 46h14q39 0 47 14v62q0 17 1 39t0 42v66q0 35-1 59v23q-3 19-14 25t-45 9H25v23q0 23 2 23l10 1q10 1 28 2t37 2q17 1 36 2t29 3 11 1h3v-40q0-38 1-38t5 5l12 15q8 10 19 18t29 19 38 16 51 5q15 0 28-2t23-6 19-8 15-9 11-11 9-11 7-11 4-10 3-8l2-5 3 4 6 8q3 4 9 11t13 13 15 13 20 12 23 10 26 7 31 3q126 0 137-113 1-7 1-139v-86q0-38 2-45t11-10q21-3 49-3h16V0h-8l-23 1q-24 1-51 1t-38 1Q596 3 587 0h-8v46h16q61 0 61 16 1 2 1 138-1 135-2 143-6 28-20 42t-24 17-26 2q-45 0-79-34-27-27-34-55t-8-83V108q0-30 1-40t3-13 9-6q21-3 49-3h16V0h-8l-24 1q-23 1-50 1t-38 1Q319 3 310 0h-8v46h16q61 0 61 16 1 2 1 138-1 135-2 143-6 28-20 42t-24 17-26 2q-45 0-79-34-27-27-34-55t-8-83V108q0-30 1-40t3-13 9-6q21-3 49-3h16V0h-8l-23 1q-24 1-51 1t-38 1Q42 3 33 0h-8v46z"/><path id="q" d="M36-148h14q39 0 47 14v57q0 18 1 39t0 44 0 49 0 51v190q0 24-1 39t0 16q-3 19-14 25t-45 9H20v23q0 23 2 23l10 1q10 1 29 2t37 2q17 1 37 2t30 3 11 1h3v-26l1-26 8 7q59 44 138 44 81 0 138-64t58-161q0-101-65-164T310-11q-68 0-120 44l-8 7v-141q0-27 2-33t11-11q21-3 49-3h16v-46h-8l-24 1q-23 1-50 1t-38 1q-103 0-112-3h-8v46zm388 366q0 74-34 129t-85 55q-71 0-123-65V98q40-72 112-72 51 0 90 54t40 138"/><path id="r" d="M383 58q-56-68-127-68h-7q-125 0-144 99-1 7-2 137-1 109-1 122t-6 21q-10 16-60 16H25v23q0 23 2 23l11 1q10 1 29 2l38 2q17 1 37 2t30 3 12 1h3V261q1-184 3-197 3-15 14-24 20-14 60-14 26 0 47 9t32 23 20 32 12 30 4 24v17q0 16 1 40t0 47v67q0 46-10 57t-50 13h-18v46q2 0 76 5t79 6h7V264q0-180 1-183 3-20 14-26t45-9h18V0q-2 0-75-5t-77-6h-7z"/><path id="v" d="M41 46h14q39 0 47 14v62q0 17 1 39t0 42v66q0 35-1 59v23q-3 19-14 25t-45 9H25v23q0 23 2 23l10 1q10 1 28 2t37 2q17 1 36 2t29 3 11 1h3v-40q0-38 1-38t5 5l12 15q8 10 19 18t29 19 38 16 51 5q114-4 127-113 1-7 1-139v-86q0-38 2-45t11-10q21-3 49-3h16V0h-8l-24 1q-23 1-50 1t-38 1Q319 3 310 0h-8v46h16q61 0 61 16 1 2 1 138-1 135-2 143-6 28-20 42t-24 17-26 2q-45 0-79-34-27-27-34-55t-8-83V108q0-30 1-40t3-13 9-6q21-3 49-3h16V0h-8l-23 1q-24 1-51 1t-38 1Q42 3 33 0h-8v46z"/><path id="w" d="M42 46h14q39 0 47 14v64q0 19 1 43t0 50 0 55 0 57v213q0 26-1 44t0 17q-3 19-14 25t-45 9H26v23q0 23 2 23l10 1q10 1 29 2t37 2q17 1 37 2t30 3 11 1h3V379q0-317 1-319 4-8 12-11 21-3 49-3h16V0h-8l-23 1q-23 1-49 1t-38 1-38 0-50-2L34 0h-8v46z"/><path id="E" d="M36 46h14q39 0 47 14v64q0 19 1 43t0 50 0 55 0 57v213q0 26-1 44t0 17q-3 19-14 25t-45 9H20v23q0 23 2 23l10 1q10 1 29 2t37 2q17 1 37 2t30 3 11 1h3V463l1-230 60 54q60 54 64 60 6 9 6 17 0 19-21 21h-5v46h9q15-3 119-3 63 0 72 3h5v-46h-13q-69-5-116-44-74-63-74-67 0-1 63-93t71-102q14-19 31-26t49-7h11V0h-6q-9 3-87 3-96 0-111-3h-8v46h7q24 2 24 19 0 7-4 14-3 5-50 74t-48 69l-52-46V84q0-19 2-25t11-10q21-3 49-3h16V0h-8q-15 3-109 3T28 0h-8v46z"/><path id="F" d="M69-66q22 0 35-14t14-36q0-18-9-29t-18-15q-7-3 6-6 7-2 14-2 20 0 37 9t27 21 22 32 16 31 12 32l17 43-72 183q-20 50-45 114-24 61-29 71t-16 13q-1 1-2 1-12 3-44 3H19v46h7l20-1q19 0 42-1t34-1h20q13 0 29 1t29 1h24l9 1h8v-46h-9q-49 0-47-19l101-254q0 1 46 115l44 114v9q0 15-10 23t-18 10-14 2h-3v46h30q10 0 21-1t23-1h17q55 0 81 2h5v-46h-11q-56-5-75-40-2-2-44-110T289 9t-62-140q-47-73-114-73-44 0-69 27t-25 61q0 27 16 38t34 12"/><path id="A" d="M295 316q0 40-27 69t-78 29q-36 0-62-13-30-19-30-52-1-5 0-13t16-24 43-25q18-5 44-9t44-9 32-13q17-8 33-20t32-41 17-62q0-62-38-102T198-10h-8q-52 0-96 36l-8-7-9-9Q71 4 65-1L54-11H42q-3 0-9 6v137q0 21 2 25t10 5h9q12 0 16-4t5-12 7-27 19-42q35-51 97-51 97 0 97 78 0 29-18 47-20 24-83 36t-83 23q-36 17-57 46t-21 62q0 39 17 66t43 40 50 18 44 5h11q40 0 70-15l15-8 9 7q10 9 22 17h12q3 0 9-6V310l-6-6h-28q-6 6-6 12"/><path id="D" d="M329 409q44 44 100 44 30 0 43-19t13-38q0-14-9-25t-27-11q-33 0-37 30-2 14 3 21 0 1 1 3v1q-28-3-53-22-8-5-8-7 0-1 4-5t9-12 11-18 9-26 4-33q0-62-49-105t-121-44q-50 0-99 28-11-18-11-38 0-35 26-52 9-6 17-6t72-2q84-1 108-6 61-9 96-41 39-39 39-98 0-67-78-103-60-31-142-31-83 0-143 31-78 35-78 100 0 36 21 60t42 33l11 6q-36 31-36 84 0 47 29 85-44 44-44 99 0 63 50 106t121 44q51 0 95-26zm-30-66q-5 28-26 44t-52 17q-29 0-50-16t-26-45q-3-17-3-51 0-44 7-65t30-35q17-10 43-10 22 0 38 7t23 18 11 20 5 15q3 16 3 50t-3 51M403-75q0 25-14 41t-41 23-49 9-54 2h-27q-67 0-80-6-20-9-31-28T95-74q0-10 6-23t21-30 48-28 80-12q69 0 111 28t42 64"/><path id="B" d="M137 305h-22q-22 0-37 15t-15 39q0 35 34 62t121 27q73 0 118-32t60-76q5-14 5-31t1-115v-70q0-48 5-66t21-18q15 0 20 16t5 53v36h40v-39q-1-40-3-47-9-30-35-47T400-6t-47 18-24 42v4l-2-3q-2-3-5-6t-8-9-12-11-15-12-18-11-22-8-26-6-31-3q-60 0-108 31t-48 87q0 21 7 40t27 41 48 37 78 28 110 15h14v22q0 34-6 50-22 71-97 71-18 0-34-1t-25-4-8-3q22-15 22-44 0-25-16-39zm-11-199q0-31 24-55t59-25q38 0 67 23t39 60q2 7 3 66 0 58-1 58-8 0-21-1t-45-9-58-20-46-37-21-60"/><path id="C" d="M69 609q0 28 18 44t44 16q23-2 40-17t17-43q0-30-17-45t-42-15-42 15-18 45M247 0q-15 3-104 3h-37Q80 3 56 1L34 0h-8v46h16q28 0 49 3 9 4 11 11t2 42v191q0 52-2 66t-14 19q-14 7-47 7H30v23q0 23 2 23l10 1q10 1 28 2l36 2q17 1 36 2t29 3 11 1h3V62q5-10 12-12t35-4h23V0Z"/><path id="x" d="M130 622q-7 7-11 9t-16 3-43 3H27v46h273q76 0 117-6t83-29q95-48 109-131 1-5 1-16 0-33-16-62t-38-47-45-31-39-18l-16-5q3-3 11-6 30-16 49-34t29-44 14-43 9-56 10-61q10-48 24-63t38-15h5q15 0 29 16t18 55q0 11 4 14t16 4 16-2 4-13q0-31-16-63t-44-43q-16-6-42-6-149 6-172 112-2 11-2 73t-7 83q-19 58-76 74l-10 2-66 1h-66V192l1-131q6-10 17-12t52-3h33V0h-11q-21 3-142 3Q59 3 38 0H27v46h33q42 1 51 3t19 12zm361-123v10q0 18-1 30t-9 31-19 31-38 22-62 13h-22q-20 0-36 1h-21q-45 0-49-9-3-4-3-136V360h58q101 0 145 18t55 78q2 11 2 43"/><path id="z" d="M128 619q-7 7-11 9t-16 3-43 3H25v46h557v-4q2-6 14-116t14-116v-4h-40v4q-7 49-9 57-6 37-18 62t-27 38-39 21-46 9-57 2h-88q-34 0-42-2t-11-10q-1-2-1-131V363h71q16 0 24 1t22 3 23 6 17 12q18 18 21 74v21h40V200h-40v21q-3 55-21 75-8 7-18 11t-23 6-21 3-24 1h-71V189l1-128q7-7 12-9t25-4 63-2h27V0h-12q-24 3-166 3Q51 3 36 0H25v46h33q42 1 51 3t19 12z"/><path id="e" d="M415 251c0 115-67 197-179 197-60 0-110-23-151-70-38-44-57-97-57-158 0-63 21-116 63-162q63-69 156-69c57 0 101 20 131 59 25 33 37 57 37 73 0 10-6 15-17 15-8 0-13-5-16-16q-33-99-129-99c-45 0-80 21-107 64-19 31-28 78-29 142h270c22 0 28 2 28 24m-89 98c11-33 16-65 16-94H118c3 66 20 111 50 134 25 20 47 30 68 30 45 0 75-23 90-70"/><path id="f" d="M418 3c23 1 56 0 98-3v38c-53 0-73 1-94 29L292 235c43 53 72 89 88 108 28 32 67 49 118 50v38q-42-3-84-3-55.5 0-99 3v-38c19-2 29-11 29-27 0-9-5-20-14-32l-58-72-74 95c-5 7-8 12-8 15 0 13 12 20 35 21v38l-111-3c-26-1-58 0-97 3v-38c36 0 59-3 69-8q15-7.5 48-51l95-124q-73.5-94.5-90-114C107 57 65 38 12 38V0c37 3 65 4 86 3l97-3v38c-19 3-28 12-28 27 0 4 1 9 3 14 6 13 33 47 81 104l72-94c11-14 17-24 20-30q0-19.5-36-21V0Z"/><path id="g" d="M298-13c62 0 115 22 158 67s65 98 65 161c0 61-20 113-59 157-41 47-91 70-151 70-51 0-95-20-133-59v59L28 431v-38c37 0 59-2 66-7s11-18 11-39v-462c0-19-4-31-11-35s-29-5-66-5v-39l114 3 115-3v39c-37 0-58 1-65 5s-11 16-11 35V44c22-31 65-57 117-57m6 422c41 0 73-23 98-69 19-39 29-80 29-125q0-70.5-33-129c-26-47-61-70-104-70-42 0-75 20-100 59-9 13-13 26-13 39v219c29 51 70 76 123 76"/><path id="h" d="M364 378c0 39-37 64-76 64-51 0-90-30-116-91v91L28 431v-38c35 0 56-3 64-9s12-19 12-42V79c0-19-3-31-10-35q-10.5-6-66-6V0l115 3c42 1 85 0 128-3v38h-24c-33 0-54 3-61 8s-10 17-10 35v151c0 43 8 82 23 115 20 43 49 65 88 66q-15-15-15-36c0-31 15-46 46-46 27 0 46 21 46 47"/><path id="j" d="M194 601c0 30-25 56-55 56s-56-26-56-56 25-57 55-57c31 0 56 26 56 57M143 3l104-3v39c-33 0-53 2-59 6s-8 15-8 33v367L37 433v-38c33 0 54-3 61-8s10-19 10-42V79c0-19-3-31-10-35s-29-5-65-5V0Z"/><path id="k" d="M315 413c46 0 69-35 69-106V79c0-19-3-31-10-35s-30-6-67-6V0l116 3 115-3v38q-55.5 0-66 6c-7 4-11 16-11 35v180c0 80 52 154 129 154 47 0 70-35 70-106V79c0-19-4-31-11-35s-30-6-67-6V0l116 3 115-3v38c-32 0-53 1-63 4s-14 10-14 22v187c0 47-2 80-5 99-10 61-55 92-134 92-63 0-110-29-142-88-14 59-58 88-133 88-63 0-111-30-143-90v90L32 431v-38q54 0 66-9c8-6 11-19 11-42V79c0-19-4-31-11-35q-10.5-6-66-6V0l116 3 115-3v38c-37 0-60 2-67 6s-11 16-11 35v180c0 81 53 154 130 154"/><path id="l" d="M314 413c45 0 68-35 68-106V79c0-19-3-31-10-35q-10.5-6-66-6V0l115 3 114-3v38c-32 0-53 1-63 4s-14 10-14 22v187c0 47-1 80-4 99-10 61-55 92-134 92q-94.5 0-141-90v90L32 431v-38q54 0 66-9c8-6 11-19 11-42V79c0-19-4-31-11-35q-10.5-6-66-6V0l115 3 114-3v38c-37 0-58 2-65 6s-11 16-11 35v180c0 81 51 154 129 154"/><path id="m" d="M332 126v60h-32v-58c0-50-18-106-62-106-41 0-61 34-61 102v271h139v38H177v182h-32c-1-33-4-62-11-88-17-66-56-100-115-103v-29h83V126c0-59 18-97 53-116 27-14 52-21 77-21 66 0 100 66 100 137"/></defs><path fill="#747474" stroke="#000" stroke-linecap="round" stroke-linejoin="round" stroke-miterlimit="10" stroke-width=".701" d="M253.487 213.02v6.9l-14.042 9.864.149-6.6z"/><g stroke="#000" stroke-linecap="round" stroke-linejoin="round" stroke-miterlimit="10" stroke-width=".701"><path fill="#747474" d="m25.834 154.213 28.828 19.809-3.423 2.87-25.405-18.115zm62.633 9.357-27.89 20.1v4.048l27.89-19.948z"/><path fill="#a49b9e" d="m25.834 154.213 27.73-19.78 33.965 24.306-2.379 1.769 3.317 3.06-27.89 20.099-9.338-6.777 3.423-2.87z"/><path fill="#747474" d="m87.529 158.741-2.379 1.769 2.379 2.184ZM46.71 193.166l13.867-9.497v7.013l-14.176 9.816z"/><path fill="#a49b9e" d="m6.202 164.348 13.706-9.816 40.67 29.137-13.867 9.497z"/><path fill="#747474" d="m6.202 164.348 40.509 28.818-.31 7.332-40.199-28.67Z"/></g><g fill="#5c8a57" stroke="#000" stroke-linecap="round" stroke-linejoin="round" stroke-miterlimit="10"><ellipse cx="342.006" cy="239.524" stroke-width=".7" rx="13.248" ry="9.379" style="font-variation-settings:normal"/><g stroke-width=".292"><path d="m235.16 101.02-7.903 6.137-93.172-65.696s-1.062-.59.118-1.531c1.179-.945 7.902-5.664 7.902-5.664z" style="font-variation-settings:normal" transform="matrix(2.39994 0 0 -2.39994 -24.618 393.477)"/><path stroke-width=".701" d="m231.024 321.234 7.977 5.945s2.203 2.203 6.113-.507c3.9-2.719 39.543-28.686 39.543-28.686s2.72-2.213-1.183-4.754a105 105 0 0 0-7.807-4.584zm-47.469-13.228-13.041 9.3s-4.79 2.692 1.051 7.192c5.849 4.5 34.77 24.729 34.77 24.729s3.3 3.151 7.649-.149c4.351-3.3 21.431-15.59 21.431-15.59s3.452-2.7-.148-5.09c-3.6-2.4-7.344-5.1-7.344-5.1l-10.488 8.239z"/><path d="M184.21 81.797s2.832-.941.59-2.594c-2.242-1.652-13.328-9.437-13.328-9.437s-1.887-1.77-4.836.473c-2.945 2.242-23.941 18.753-23.941 18.753s-2.36 1.18.238 2.95c2.594 1.769 11.91 8.254 11.91 8.254s1.887 1.18 4.012-.473c2.121-1.648 25.355-17.926 25.355-17.926" style="font-variation-settings:normal" transform="matrix(2.39994 0 0 -2.39994 -24.618 393.477)"/><path stroke-width=".701" d="m3.27 175.157 26.783 19.348-19.032 13.332s-2.484 1.068-4.977-.646l-2.775-1.936m30.636-7.767-19.22 13.274s-2.435 1.078.404 3.243c2.842 2.167 30.731 21.798 30.731 21.798s2.035 2.033 4.471.272c2.439-1.755 18.957-13.267 18.957-13.267L55.026 212.11l36.835-26.126 27.477 19.761 14.625-10.425-36.15-26.4-52.528 36.825z"/><path stroke-width=".701" d="m73.074 225.63-18.967 13.312s-2.165 1.668 1.164 3.826c3.327 2.165 39.438 28.125 39.438 28.125s1.661 1.997 4.155 0c2.503-1.997 18.138-13.81 18.138-13.81zm31.78 52.256 31.451 23.126s14.645-5.99 2.664-14.474c-11.983-8.493-21.3-20.135-34.115-8.652m168.096-71.081 66.796 47.905s3.9 2.345-.967 5.458c-4.875 3.112-44.407 30.57-44.407 30.57s-3.892 3.122-7.012.59c-3.113-2.53-27.648-23.173-27.648-23.173l.188-10.716s19.67-6.816 13.05-50.634"/><path d="m225.26 108.1-26.652 19.105s-1.297 1.297-3.188-.234c-1.886-1.535-33.492-24.18-33.492-24.18s-2.242-1.179.117-2.711c2.36-1.535 24.176-17.457 24.176-17.457s1.063-1.296 3.305.239c2.238 1.531 35.734 25.238 35.734 25.238m11.29 47.68-36.211-25.601s-2.007-1.004.254-2.387c2.258-1.379 36.16-25.738 36.16-25.738" style="font-variation-settings:normal" transform="matrix(2.39994 0 0 -2.39994 -24.618 393.477)"/><path stroke-width=".701" d="m312.55 313.134-17.203-12.6c-2.38-1.339-2.84-3.335-8.342.874l-70.18 49.648s-2.55 1.416.281 3.672c2.83 2.272 18.965 13.588 18.965 13.588z"/></g></g><g stroke="#000" stroke-linecap="round" stroke-linejoin="round" stroke-miterlimit="10" stroke-width=".701"><path fill="#a49b9e" d="m496.241 7.423-2.57-2.052-9.984 7.17 2.822 2.055zM335.421 117.82l110.426-78.701 3.816 3.103-110.49 78.159z"/><path fill="#747474" d="m483.69 12.559.14 3.525 2.082-1.848zM349.1 111.676v8.633l-61.843 43.218.232-8.155z"/><path fill="#747474" d="m438.378 50.334.207 6.515-89.612 63.277v-6.17z"/></g><g stroke="#000" stroke-miterlimit="10" stroke-width=".701"><g stroke-linecap="round" stroke-linejoin="round"><path fill="#a49b9e" d="m216.936 159.09 52.734-2.523 3.571 13.125-54.937 3.468z"/><path fill="#747474" d="m218.304 173.16.151 6.029 54.832-3.526-.046-5.97z"/><path fill="#3d667e" d="m216.936 159.09 1.368 14.07.151 6.029-1.49-7.838z"/></g><path fill="#a6b6a5" d="M337.653 216.088c-.058 7.845 13.516 17.764 18.777.936 2.4-21.448-18.777-.936-18.777-.936z"/><g stroke-linecap="round" stroke-linejoin="round"><path fill="none" d="M340.413 217.888c-.046 4.81 9.919 11.426 13.396 1.171 1.726-13.79-13.396-1.171-13.396-1.171"/><path fill="#a49b9e" d="m306.43 194.534 17.39-12.139 17.858 11.99-18.094 12.61z"/><path fill="#747474" d="m306.43 194.534.15 6.197 16.772 11.98.232-5.717z"/><path fill="#747474" d="m323.565 206.994-.232 5.717 5.239-3.449.244-4.387 12.665-8.963.177-1.527z"/><path fill="#a49b9e" d="m359.3 209.975-11.67 8.222-18.797-13.322 12.665-8.963.177-1.527-12.374-8.467 4.387-3.206 12.686 9.01-.15 7.518 6.421 4.462 2.897 4.941z"/></g><g fill="#747474" stroke-linecap="round" stroke-linejoin="round"><path d="m328.581 209.262 19.041 13.79v-4.855l-18.796-13.322z"/><path d="m347.613 218.197 11.67-8.222-.074 4.771-11.596 8.306z"/><path d="m359.228 214.746 3.132-.31v-13.631l-6.506-1.097-2.973-5.484-6.346-3.832-.158 1.33-.151 7.518 6.422 4.462 2.896 4.941 3.759 1.332z"/></g><g stroke-linecap="round" stroke-linejoin="round"><path fill="#535353" d="m352.869 194.224 2.973 5.484-.31 8.935-2.896-4.941z"/><path fill="#747474" d="m362.348 200.805 34.939-24.674v14.1l-34.939 24.206Z"/><path fill="#747474" d="m363.836 202.063.075 2.896 1.564-.938-.158-2.82zm.864 4.228v3.207l4.313-3.132-.074-2.897zm5.952-9.16.075 2.896 1.564-.945-.149-2.813zm.864 4.228v3.207l4.303-3.132-.074-2.897zm6.264-9.083.086 2.896 1.565-.948-.158-2.812zm.864 4.226v3.206l4.313-3.13-.084-2.896zm5.952-9.168.077 2.897 1.574-.936-.16-2.822zm.864 4.229v3.216l4.312-3.132-.086-2.897zm5.784-8.926.084 2.897 1.564-.936-.158-2.822zm.864 4.23v3.215l4.312-3.141-.074-2.897z"/><path fill="#a49b9e" d="m346.533 190.392 36.505-25.857 6.113 5.09 6.336-.31 1.81 6.816-34.94 24.674-6.505-1.097-3.058-5.642z"/><path fill="#a49b9e" d="m361.556 177.144 7.368-5.006 4.303 2.822-7.828 5.326z"/><path fill="#747474" d="m361.556 177.144-.19 3.442 3.797 3.139.236-3.44zm3.624 6.58 8.11-5.52-.046-3.244-7.829 5.326z"/></g></g><g fill="#747474" stroke="#000" stroke-linecap="round" stroke-linejoin="round" stroke-miterlimit="10" stroke-width=".701"><path d="m93.977 190.305-.168 9.264 11.626 8.933 7.245-5.22z"/><path d="m93.977 190.305-27.29 19.041 6.433 4.635 20.69-14.412z"/><path d="m66.688 209.346 53.072 38.25-.17 9.43-52.545-38.128Zm53.072 38.251 7.416-5.223v9.262l-7.586 5.39zm-7.08-44.315-7.245 5.22-7.068 5.054 6.235 4.298 7.675-5.433zm-14.313 10.274v9.441l12.3 8.417.168-9.262z"/><path d="m110.835 222.152 14.651-9.777v8.712l-14.82 10.327z"/><path d="m125.486 212.375-4.21-2.86 20.393-14.494v8.767l-16.183 11.731zm103.546-25.36s-28.958-13.948-69.102 11.438c-34.254 21.664-23.488 46.03-17.927 49.21l1.54-1.353s-23.267-18.28 17.306-45.109c42.56-28.144 64.75-7.548 64.75-7.548z"/><path d="M121.277 209.514v5.67l4.21-2.809Zm20.392-14.493 11.117 8.4-5.4 4.884-5.717-4.517Zm-14.493 47.353 8.09 5.559-6.583 4.699-1.507-.996Zm8.09 5.559-11.793 8.419 3.532 2.025 8.278-6.028z"/><path d="M123.473 256.352v9.09l3.532 2.374v-9.439zm28.916-25.768v10.023l6.684 4.423v-9.73zm88.066 31.59.207-3.338s-33.647 24.637-64.227 12.664c-1.342-.533-.142 2.683-.142 2.683s26.4 12.665 64.414-12.067zm-76.767-38.789.43 11.138 5.766-6.61z"/></g><path fill="none" stroke="red" stroke-linecap="round" stroke-linejoin="round" stroke-miterlimit="10" stroke-width="1.4" d="M223.038 206.535c0-.183-17.653-16.476-35.659-14.79"/><g stroke="#000" stroke-linecap="round" stroke-linejoin="round" stroke-miterlimit="10" stroke-width=".701"><path fill="#747474" d="m183.733 252.977 11.793-8.457-.103 10.228-11.69 7.959z"/><path fill="none" d="m218.016 215.188-19.32 13.348 9.627 6.91 9.235-7.145-9.01-6.59 17.923 12.957-9.542 6.984-8.606-6.29 9.309-7.135 8.839 6.441 10.012-6.984z"/><path fill="#6e796e" d="m217.56 228.301-9.235 7.06 8.606 6.291 9.542-6.984z"/><path fill="#747474" d="M177.049 248.261v10.023l6.684 4.423v-9.73zm96.238-72.598s-9.703 9.816-25.817 10.829c-20.363 1.284.91 4.216.91 4.216s16.058-1.339 25.132-10.816h0z"/><path fill="#a6b6a5" d="m217.632 228.227-.235 6.516-4.735 3.806-4.34-3.103 9.236-7.145 8.913 6.367-4.649 3.487-4.425-3.328z"/><path fill="#747474" d="m167.214 206.094-.094 9.487 1.397 1.004 3.571-3.339 10.248 7.529 2.962-2.1z"/></g><g fill="#c6c6c6" stroke="#000" stroke-miterlimit="10" stroke-width=".7"><path d="M217.075 232.644c-1.487-1.215-.577-2.33.91-1.115s.578 2.33-.91 1.115zm1.67.053v5.7c0 .548-.717.726-1.67-.053-.534-.436-.759-.86-.759-1.167v-5.7m4.612 4.173c-1.488-1.216-.577-2.33.91-1.115s.577 2.33-.91 1.114zm1.67.052v5.7c0 .548-.717.726-1.67-.052-.535-.437-.76-.86-.76-1.167v-5.7m-7.694 1.415c-1.487-1.215-.577-2.33.91-1.114s.578 2.33-.91 1.114zm1.67.053v5.7c0 .548-.716.726-1.67-.052-.534-.437-.759-.86-.759-1.167v-5.7"/><path d="M216.327 238.903c-1.488-1.215-.577-2.33.91-1.114s.577 2.33-.91 1.114zm1.67.053v5.7c0 .548-.717.727-1.67-.052-.534-.437-.76-.86-.76-1.167v-5.7"/></g><g stroke="#000" stroke-linecap="round" stroke-linejoin="round" stroke-miterlimit="10" stroke-width=".701"><path fill="#747474" d="m150.278 274.025 60.764 41.574-.151 9.158-60.642-41.586Zm60.764 41.576 9.628-6.515v9.158l-9.78 6.516Zm17.702-50.014 29.015 22.545v9.16l-29.157-23.354zm-8.064 43.499 4.19 2.642-.16 9.15-4.03-2.634z"/><path fill="#747474" d="m224.856 311.728 32.896-23.596v9.16l-33.057 23.587z"/><path fill="#a49b9e" d="m172.088 213.246-5.896 4.351 10.163 7.452 5.981-4.274z"/><path fill="#747474" d="m236.495 227.684-.148 9.468-19.632 13.735.226-9.235z"/><path fill="#a49b9e" d="m508.025 12.823-9.732-7.172-59.67 43.022 9.732 6.655z"/><path fill="#747474" d="m508.025 12.823.038 8.56-59.353 41.67-.355-7.725z"/><path fill="#747474" d="m438.618 48.654-.038 8.193 5.364 3.89 4.519-3.261-.113-2.167zM358.7 123.676v8.632l-61.844 43.218.233-8.155z"/><path fill="#a49b9e" d="m337.629 142.011 4.461 3.629 9.826-6.487-4.584-3.984z"/><path fill="#747474" d="m337.629 142.011-.235 5.42 4.406 3.338.29-5.129zm4.464 3.624 9.825-6.487.123 5.12-10.239 6.496zm-175.901 71.962-.075 5.51 6.113 4.604 4.125-2.662zm-39.187 40.78 16.531-11.901v7.185l6.13-3.897v-7.224l10.029-8.088.17 19.21-32.85 22.621Zm71.699-29.841.235 3.723-10.164 7.144-2.69-1.96z"/></g><g stroke-linecap="round" stroke-linejoin="round" stroke-miterlimit="10"><path fill="none" stroke="#000cff" stroke-width="1.399" d="M225.024 204.791c0-.244-26.599-20.392-48.673-11.46"/><path fill="#a6b6a5" stroke="#000" stroke-width=".701" d="m240.671 258.836 44.322 35.953 3.797-2.606-44.641-36.393z"/><path fill="#6e796e" stroke="#000" stroke-width=".701" d="m240.72 258.93.045 4.902 44.212 30.957z"/></g><g fill="#747474" stroke="#000" stroke-linecap="round" stroke-linejoin="round" stroke-miterlimit="10" stroke-width=".701"><path d="m255.407 193.23-.197 3.33c-1.632 1.151-3.71 1.864-5.41 1.862l.022-2.674c1.86-.376 3.723-1.44 5.585-2.517m0 0"/><path d="M251.644 241.642s12.73-13.348 4.358-25.105c-8.361-11.746-.6-23.306-.6-23.306l-.197 3.329s-4.377 8.522 2.194 21.073c3.861 7.375.84 15.804-2.304 21.501-2.21 3.999-5.477 6.286-5.477 6.286Zm-52.94-13.106-.233 9.545 18.24 12.806.227-9.235zm-39.009 5.916 17.522 12.3-.103 18.422-17.249-11.513Z"/></g><g stroke="#000" stroke-linecap="round" stroke-linejoin="round" stroke-miterlimit="10" stroke-width=".701"><path fill="#a6b6a5" d="m198.939 232.259-10.164 7.144 4.267 3.262 10.322-7.529z"/><path fill="#6e796e" d="m208.757 221.864-10.053 6.672 9.628 6.826 9.31-7.135z"/><path fill="none" d="m208.558 221.71-.151 5.974 5.277 3.646 3.958-3.103z"/><path fill="#c6c6c6" d="m213.216 225.05 5.352-4.117 13.66 9.62-5.747 4.115z"/><path fill="#747474" d="m284.021 178.618-19.113 13.451s-9.935 9-2.016 21.722c5.12 9.317 5.739 26.539-6.832 38.651l.158-5.277s15.984-12.264 4.651-32.287c-11.296-19.977 13.61-31.077 13.049-32.015l10.077-7.248zm-32.761 57.005.384 6.02-2.026 3.777c1.066-1.66-3.144-20.71-3.144-20.572l-.014-4.85c.062.095 4.246 6.846 4.8 15.625"/><path fill="none" d="m208.558 221.71-9.854 6.826 4.35 3.103 5.353-3.955z"/></g><g fill="#747474" stroke="#000" stroke-linecap="round" stroke-linejoin="round" stroke-miterlimit="10" stroke-width=".701"><path d="m197.158 193.072-.086 6.365 8.58 5.897.093-3.965 1.726-1.154z"/><path d="m218.328 210.705-.142 3.592-12.532-8.963.096-3.965zm22.103 14.879s14.194 20.24-12.103 34.584c-24.225 13.211-37.508 12.08-51.382 8.119l.271-4.877c24.081 15.208 79.865-10.968 62.23-33.626l.12-5.46c.01-.484.564.816.864 1.26"/></g><g stroke-linecap="round" stroke-linejoin="round"><path fill="#1ed0fd" d="m153.508 243.284 2.68-.47 3.845 3.873-.168 6.974-3.976 5.84-2.775.676-.055-3.957c2.755.093 6.562-8.455.336-8.98.058-2.214.113-3.956.113-3.956"/><path fill="#34a7c4" d="m153.508 243.284-2.455-1.867.055 4.003 2.287 1.82zm-.449 12.936-2.457-1.865.048 4.003 2.464 1.82z"/><path fill="#1ed0fd" d="m151.053 241.417 2.69-.413 2.446 1.81-2.623.525z"/><path fill="#f2662c" d="M153.395 247.24c4.867-.375 4.277 8.173-.336 8.98l-.17-2.316c1.687-.075 3.873-4.19.48-4.527z"/><path fill="#b74f24" d="m153.395 247.24-2.287-1.82v2.27l2.26 1.687zm-.233 6.74-2.56-1.883v2.258l2.503 1.922z"/><path fill="#953c18" d="M151.108 247.69c.994 1.687 1.987 3.327-.506 4.407 2.916 2.342 2.56 1.883 2.56 1.883 4.03-.993 1.988-4.931.207-4.603z"/><path fill="#f2662c" d="m167.214 252.987 2.784-.629 3.741 4.032-.168 6.974-3.976 5.84-2.775.676-.055-3.957c2.755.093 6.562-8.455.336-8.981.058-2.213.113-3.955.113-3.955"/><path fill="#b74f24" d="m167.214 252.987-11.774-7.922v3.693l11.661 8.184zm-.449 12.936L154.99 258v3.687l11.831 8.193z"/><path fill="#f2662c" d="m155.44 245.065 2.633-.526 11.925 7.82-2.784.628z"/><path fill="#a50815" d="m154.989 258 11.776 7.923.036 1.341-11.822-7.977zm.3-10.32 11.776 7.92.036 1.342-11.822-7.968z"/><path fill="#cd0a1a" d="M167.065 255.6c5.174.387 4.358 10.858-.264 11.664l-.036-1.341c2.371.367 4.714-7.968.336-8.981z"/><path fill="#68c02d" d="M167.101 256.942v2.203c1.642.694 1.032 3.948-.216 4.894l-.12 1.884c3.28-.01 4.097-8.71.336-8.981"/><path fill="#599432" d="m167.101 259.145-11.848-8.044.026-2.127 11.822 7.968zm-.336 6.778L154.99 258l-.046-2.258 11.942 8.297z"/></g><path fill="#e5ab14" d="M167.101 259.145c.29-.29 2.467 2.326-.216 4.894-1.742-1.181-11.942-8.297-11.942-8.297 0 .055 2.578-2.729.31-4.641-.545-.459 11.848 8.044 11.848 8.044"/><g stroke-linecap="round" stroke-linejoin="round"><path fill="#1ed0fd" d="m171.827 256.097 2.774-.617 3.742 4.02-.168 6.977-3.968 5.839-2.774.677-.057-3.958c2.747.094 6.563-8.455.338-8.98.057-2.213.113-3.958.113-3.958"/><path fill="#34a7c4" d="m171.827 256.097-2.455-1.855.045 3.994 2.297 1.819zm-.451 12.938-2.465-1.864.057 4.003 2.465 1.819z"/><path fill="#1ed0fd" d="m169.372 254.242 3.055-.638 2.174 1.876-2.774.617Z"/><path fill="#f2662c" d="M171.714 260.055c4.865-.375 4.274 8.174-.338 8.98l-.168-2.306c1.677-.074 3.863-4.19.477-4.536z"/><path fill="#b74f24" d="m171.714 260.055-2.297-1.82v2.269l2.268 1.69zm-.506 6.674-2.297-1.82v2.262l2.465 1.864z"/><path fill="#953c18" d="M169.417 260.504c1.003 1.69 1.997 3.338-.506 4.406 2.925 2.345 2.297 1.819 2.297 1.819 4.031-.994 2.26-4.865.477-4.536z"/></g><path fill="none" stroke="red" stroke-linecap="round" stroke-linejoin="round" stroke-miterlimit="10" stroke-width="1.4" d="m445.948 57.867-180.4 129.739-5.036 4.893s-9.187 9.777-1.116 24.983c8.071 15.216 4.106 24.667-15.028 37.257-24.513 16.142-49.967 27.009-78.84 6.674-29.878-21.048-38.025-34.454-4.191-56.653 48.597-35.29 59.439 8.302 104.211-17.154.439-.25-.387.343 0 0z"/><g stroke="#000" stroke-linecap="round" stroke-linejoin="round" stroke-miterlimit="10" stroke-width=".701"><path fill="#747474" d="M197.158 193.072c.43 1.536-7.932-4.154-37.679 13.133-29.577 17.195-15.964 34.34-13.003 37.312.998 1.065 1.992 2.121 3.192 2.961v-3.465c-5.105-4.085-17.433-17.445 11.088-35.111 22.526-13.958 36.457-11.446 36.457-11.446zm67.273-3.703v6.187l23.502 17.549.075-6.036z"/><path fill="#747474" d="m287.998 207.069 9.797-6.732v5.954l-9.871 6.814z"/><path fill="#a49b9e" d="m264.43 189.37 9.478-6.507 23.896 17.474-9.796 6.732z"/></g><path fill="none" stroke="#000cff" stroke-linecap="round" stroke-linejoin="round" stroke-miterlimit="10" stroke-width="1.4" d="M444.806 57.132 260.874 189.48v0s-10.127 10.82-2.056 26.024c8.061 15.216 3.628 24.713-15.506 37.312-14.131 9.3-28.574 16.85-43.802 17.683-11.19.612-24.18-2.903-36.406-11.516-30.137-17.537-35.648-32.578-2.816-56.143 47.658-34.615 57.974 9.037 100.586-13.36.239-.24 5.684-4.09 7.752-5.578l5.693-4.096z"/><g stroke="#000" stroke-linecap="round" stroke-linejoin="round" stroke-miterlimit="10" stroke-width=".701"><path fill="#747474" d="m249.887 188.001-.11 13.142-25.692 18.151-6.052-4.106.3-4.483z"/><path fill="#747474" d="m239.447 229.784-13.583-9.319.31-7.135 13.422 9.854z"/><path fill="#a49b9e" d="m158.665 235.09-6.196-4.528 12-8.551 7.76 5.7 13.069-9.036-18.084-12.58 19.461-13.961 32.147 22.603-32.737 22.706 9.441 7.077-11.793 8.457-6.684-4.716.168-1.51-17.522-12.299z"/><path fill="#747474" d="m218.822 214.737 17.661 12.947-4.264 2.868-13.649-9.619zm0 0-10.271 6.974 4.502 3.295 5.517-4.073z"/><path fill="#a49b9e" d="m240.071 203.243 13.423 9.778-13.893 10.163-13.423-9.854z"/></g><path fill="none" stroke="red" stroke-linecap="round" stroke-linejoin="round" stroke-miterlimit="10" stroke-width="1.4" d="M244.155 224.147s17.65 21.907-9.2 36.467"/><path fill="none" stroke="#000cff" stroke-linecap="round" stroke-linejoin="round" stroke-miterlimit="10" stroke-width="1.4" d="M242.307 225.436s16.396 19.919-10.453 34.467"/><g stroke="#000" stroke-linecap="round" stroke-linejoin="round" stroke-miterlimit="10" stroke-width=".701"><path fill="#747474" d="m127.005 258.377 16.092 11.316-.22 17.961-15.862-11.37Z"/><path fill="#747474" d="m143.097 269.693 7.21-4.82-.058 18.3-7.373 4.481z"/><path fill="#a49b9e" d="m488.561 27.822 10.246-7.17 4.603 3.328-9.732 7.17z"/></g><g fill="#747474" stroke="#000" stroke-linecap="round" stroke-linejoin="round" stroke-miterlimit="10" stroke-width=".701"><path d="m493.457 36.534 9.825-6.965.113-5.587-9.732 7.171z"/><path d="m488.561 27.822-.141 5.138 5.051 3.572.207-5.381z"/></g><path fill="#a49b9e" stroke="#000" stroke-linecap="round" stroke-linejoin="round" stroke-miterlimit="10" stroke-width=".701" d="m211.2 183.06-14.042 10.012 10.313 7.143 14.286-10.32z"/><path fill="#a49b9e" stroke="#000" stroke-linecap="round" stroke-linejoin="round" stroke-miterlimit="10" stroke-width=".701" d="m205.745 201.369 12.58 9.336L249.88 188l-12.29-9.038z"/><g stroke="#000" stroke-linecap="round" stroke-linejoin="round" stroke-miterlimit="10"><g stroke-width=".701"><path fill="#747474" d="m413.467 90.077-6.01-4.707v5.662l5.775 4.041z"/><path fill="#747474" d="m413.227 95.068 63.157-44.343-.055-5.007-62.867 44.354z"/><path fill="#a49b9e" d="m471.618 41.982 4.706 3.748-62.867 44.354-6.009-4.706z"/><path fill="#747474" d="m416.803 91.805-.065 4.816 17.98-12.616.056-4.587z"/><path fill="#a49b9e" d="m434.779 79.42-2.381-1.78-18.036 12.797 2.446 1.37z"/><path fill="#747474" d="m416.803 91.805-.065 4.816-2.493-1.545.112-4.642z"/></g><g fill="none"><path stroke-width=".701" d="M158.471 251.798c1.447 1.193 2.707 2.537 2.592 4.96"/><path stroke-width=".292" d="M77.37 56.512c-.269.701-.423 1.361.928 2.235" style="font-variation-settings:normal" transform="matrix(2.39994 0 0 -2.39994 -29.037 400.349)"/><path stroke-dasharray=".7,1.4" stroke-width=".7" d="m162.078 259.344 4.766 9.594m-5.141-9.469L163 269.5" style="font-variation-settings:normal"/><path stroke-width=".292" d="M75.84 58.8c1.026-.64 1.524-.14 2.121.144" style="font-variation-settings:normal" transform="matrix(2.39994 0 0 -2.39994 -29.037 400.349)"/><path stroke-width=".701" d="M156.537 267.273c4.132-1.212 4.365-4.351 4.548-7.709"/></g></g><g stroke-width="0"><use xlink:href="#a" data-c="42" transform="matrix(.01629 0 0 -.01629 115.492 343.473)"/><use xlink:href="#b" data-c="45" transform="matrix(.01629 0 0 -.01629 127.025 343.473)"/><use xlink:href="#c" data-c="53" transform="matrix(.01629 0 0 -.01629 138.118 343.473)"/><use xlink:href="#d" data-c="49" transform="matrix(.01629 0 0 -.01629 147.175 343.473)"/><use xlink:href="#d" data-c="49" transform="matrix(.01629 0 0 -.01629 153.055 343.473)"/><use xlink:href="#d" data-c="49" transform="matrix(.01629 0 0 -.01629 158.936 343.473)"/><use xlink:href="#e" data-c="65" transform="matrix(.01629 0 0 -.01629 100.83 360.2)"/><use xlink:href="#f" data-c="78" transform="matrix(.01629 0 0 -.01629 108.061 360.2)"/><use xlink:href="#g" data-c="70" transform="matrix(.01629 0 0 -.01629 116.66 360.2)"/><use xlink:href="#e" data-c="65" transform="matrix(.01629 0 0 -.01629 125.716 360.2)"/><use xlink:href="#h" data-c="72" transform="matrix(.01629 0 0 -.01629 132.947 360.2)"/><use xlink:href="#j" data-c="69" transform="matrix(.01629 0 0 -.01629 139.332 360.2)"/><use xlink:href="#k" data-c="6D" transform="matrix(.01629 0 0 -.01629 143.86 360.2)"/><use xlink:href="#e" data-c="65" transform="matrix(.01629 0 0 -.01629 157.426 360.2)"/><use xlink:href="#l" data-c="6E" transform="matrix(.01629 0 0 -.01629 164.657 360.2)"/><use xlink:href="#m" data-c="74" transform="matrix(.01629 0 0 -.01629 173.713 360.2)"/></g><path fill="none" stroke="#000" stroke-linecap="round" stroke-linejoin="round" stroke-miterlimit="6" stroke-width="1.26" d="m159.81 270.753-18.55 52.44"/><g stroke-width="0"><use xlink:href="#n" data-c="63" transform="matrix(.01629 0 0 -.01629 2.454 106.026)"/><use xlink:href="#o" data-c="6F" transform="matrix(.01629 0 0 -.01629 9.687 106.026)"/><use xlink:href="#p" data-c="6D" transform="matrix(.01629 0 0 -.01629 17.832 106.026)"/><use xlink:href="#q" data-c="70" transform="matrix(.01629 0 0 -.01629 31.401 106.026)"/><use xlink:href="#r" data-c="75" transform="matrix(.01629 0 0 -.01629 40.458 106.026)"/><use xlink:href="#s" data-c="74" transform="matrix(.01629 0 0 -.01629 49.515 106.026)"/><use xlink:href="#t" data-c="65" transform="matrix(.01629 0 0 -.01629 55.852 106.026)"/><use xlink:href="#u" data-c="72" transform="matrix(.01629 0 0 -.01629 63.084 106.026)"/><use xlink:href="#n" data-c="63" transform="matrix(.01629 0 0 -.01629 73.542 106.026)"/><use xlink:href="#t" data-c="65" transform="matrix(.01629 0 0 -.01629 80.775 106.026)"/><use xlink:href="#v" data-c="6E" transform="matrix(.01629 0 0 -.01629 88.008 106.026)"/><use xlink:href="#s" data-c="74" transform="matrix(.01629 0 0 -.01629 97.065 106.026)"/><use xlink:href="#t" data-c="65" transform="matrix(.01629 0 0 -.01629 103.401 106.026)"/><use xlink:href="#u" data-c="72" transform="matrix(.01629 0 0 -.01629 110.634 106.026)"/></g><path fill="none" stroke="#000" stroke-linecap="round" stroke-linejoin="round" stroke-miterlimit="6" stroke-width="1.26" d="m56.895 111.847-2.91 18.639"/><g stroke-width="0"><use xlink:href="#n" data-c="63" transform="matrix(.01629 0 0 -.01629 131.423 149.235)"/><use xlink:href="#o" data-c="6F" transform="matrix(.01629 0 0 -.01629 138.655 149.235)"/><use xlink:href="#v" data-c="6E" transform="matrix(.01629 0 0 -.01629 146.8 149.235)"/><use xlink:href="#s" data-c="74" transform="matrix(.01629 0 0 -.01629 155.857 149.235)"/><use xlink:href="#u" data-c="72" transform="matrix(.01629 0 0 -.01629 162.194 149.235)"/><use xlink:href="#o" data-c="6F" transform="matrix(.01629 0 0 -.01629 168.58 149.235)"/><use xlink:href="#w" data-c="6C" transform="matrix(.01629 0 0 -.01629 176.724 149.235)"/><use xlink:href="#u" data-c="72" transform="matrix(.01629 0 0 -.01629 136.894 162.856)"/><use xlink:href="#o" data-c="6F" transform="matrix(.01629 0 0 -.01629 143.28 162.856)"/><use xlink:href="#o" data-c="6F" transform="matrix(.01629 0 0 -.01629 151.425 162.856)"/><use xlink:href="#p" data-c="6D" transform="matrix(.01629 0 0 -.01629 159.57 162.856)"/></g><path fill="none" stroke="#000" stroke-linecap="round" stroke-linejoin="round" stroke-miterlimit="6" stroke-width="1.26" d="m158.737 170.522 10.345 63.498"/><g stroke-width="0"><use xlink:href="#x" data-c="52" transform="matrix(.01629 0 0 -.01629 219.174 131.559)"/><use xlink:href="#z" data-c="46" transform="matrix(.01629 0 0 -.01629 231.164 131.559)"/><use xlink:href="#A" data-c="73" transform="matrix(.01629 0 0 -.01629 245.873 131.559)"/><use xlink:href="#s" data-c="74" transform="matrix(.01629 0 0 -.01629 252.291 131.559)"/><use xlink:href="#B" data-c="61" transform="matrix(.01629 0 0 -.01629 258.628 131.559)"/><use xlink:href="#s" data-c="74" transform="matrix(.01629 0 0 -.01629 266.773 131.559)"/><use xlink:href="#C" data-c="69" transform="matrix(.01629 0 0 -.01629 273.11 131.559)"/><use xlink:href="#o" data-c="6F" transform="matrix(.01629 0 0 -.01629 277.638 131.559)"/><use xlink:href="#v" data-c="6E" transform="matrix(.01629 0 0 -.01629 285.783 131.559)"/></g><path fill="none" stroke="#000" stroke-linecap="round" stroke-linejoin="round" stroke-miterlimit="6" stroke-width="1.26" d="m253.075 140.246-11.853 72.073"/><g stroke-width="0"><use xlink:href="#A" data-c="73" transform="matrix(.01629 0 0 -.01629 383.748 285.495)"/><use xlink:href="#s" data-c="74" transform="matrix(.01629 0 0 -.01629 390.167 285.495)"/><use xlink:href="#o" data-c="6F" transform="matrix(.01629 0 0 -.01629 396.503 285.495)"/><use xlink:href="#u" data-c="72" transform="matrix(.01629 0 0 -.01629 404.648 285.495)"/><use xlink:href="#B" data-c="61" transform="matrix(.01629 0 0 -.01629 411.034 285.495)"/><use xlink:href="#D" data-c="67" transform="matrix(.01629 0 0 -.01629 419.178 285.495)"/><use xlink:href="#t" data-c="65" transform="matrix(.01629 0 0 -.01629 427.323 285.495)"/><use xlink:href="#u" data-c="72" transform="matrix(.01629 0 0 -.01629 395.494 302.9)"/><use xlink:href="#C" data-c="69" transform="matrix(.01629 0 0 -.01629 401.88 302.9)"/><use xlink:href="#v" data-c="6E" transform="matrix(.01629 0 0 -.01629 406.409 302.9)"/><use xlink:href="#D" data-c="67" transform="matrix(.01629 0 0 -.01629 415.466 302.9)"/></g><path fill="none" stroke="#000" stroke-linecap="round" stroke-linejoin="round" stroke-miterlimit="6" stroke-width="1.26" d="m376.177 278.486-127.129-38.663"/><g stroke-width="0"><use xlink:href="#w" data-c="6C" transform="matrix(.01629 0 0 -.01629 296.358 67.89)"/><use xlink:href="#C" data-c="69" transform="matrix(.01629 0 0 -.01629 300.887 67.89)"/><use xlink:href="#v" data-c="6E" transform="matrix(.01629 0 0 -.01629 305.415 67.89)"/><use xlink:href="#t" data-c="65" transform="matrix(.01629 0 0 -.01629 314.473 67.89)"/><use xlink:href="#B" data-c="61" transform="matrix(.01629 0 0 -.01629 321.705 67.89)"/><use xlink:href="#u" data-c="72" transform="matrix(.01629 0 0 -.01629 329.85 67.89)"/><use xlink:href="#B" data-c="61" transform="matrix(.01629 0 0 -.01629 277.75 86.05)"/><use xlink:href="#n" data-c="63" transform="matrix(.01629 0 0 -.01629 285.896 86.05)"/><use xlink:href="#n" data-c="63" transform="matrix(.01629 0 0 -.01629 293.128 86.05)"/><use xlink:href="#t" data-c="65" transform="matrix(.01629 0 0 -.01629 300.36 86.05)"/><use xlink:href="#w" data-c="6C" transform="matrix(.01629 0 0 -.01629 307.593 86.05)"/><use xlink:href="#t" data-c="65" transform="matrix(.01629 0 0 -.01629 312.122 86.05)"/><use xlink:href="#u" data-c="72" transform="matrix(.01629 0 0 -.01629 319.355 86.05)"/><use xlink:href="#B" data-c="61" transform="matrix(.01629 0 0 -.01629 325.74 86.05)"/><use xlink:href="#s" data-c="74" transform="matrix(.01629 0 0 -.01629 333.885 86.05)"/><use xlink:href="#o" data-c="6F" transform="matrix(.01629 0 0 -.01629 340.222 86.05)"/><use xlink:href="#u" data-c="72" transform="matrix(.01629 0 0 -.01629 348.366 86.05)"/></g><path fill="none" stroke="#000" stroke-linecap="round" stroke-linejoin="round" stroke-miterlimit="6" stroke-width="1.26" d="m323.203 92.582 12.868 39.535"/><g stroke-width="0"><use xlink:href="#E" data-c="6B" transform="matrix(.01629 0 0 -.01629 359.43 14.31)"/><use xlink:href="#w" data-c="6C" transform="matrix(.01629 0 0 -.01629 368.031 14.31)"/><use xlink:href="#F" data-c="79" transform="matrix(.01629 0 0 -.01629 372.56 14.31)"/><use xlink:href="#A" data-c="73" transform="matrix(.01629 0 0 -.01629 381.16 14.31)"/><use xlink:href="#s" data-c="74" transform="matrix(.01629 0 0 -.01629 387.579 14.31)"/><use xlink:href="#u" data-c="72" transform="matrix(.01629 0 0 -.01629 393.916 14.31)"/><use xlink:href="#o" data-c="6F" transform="matrix(.01629 0 0 -.01629 400.301 14.31)"/><use xlink:href="#v" data-c="6E" transform="matrix(.01629 0 0 -.01629 408.446 14.31)"/><use xlink:href="#D" data-c="67" transform="matrix(.01629 0 0 -.01629 365.577 32.472)"/><use xlink:href="#B" data-c="61" transform="matrix(.01629 0 0 -.01629 373.722 32.472)"/><use xlink:href="#w" data-c="6C" transform="matrix(.01629 0 0 -.01629 381.866 32.472)"/><use xlink:href="#w" data-c="6C" transform="matrix(.01629 0 0 -.01629 386.395 32.472)"/><use xlink:href="#t" data-c="65" transform="matrix(.01629 0 0 -.01629 390.923 32.472)"/><use xlink:href="#u" data-c="72" transform="matrix(.01629 0 0 -.01629 398.156 32.472)"/><use xlink:href="#F" data-c="79" transform="matrix(.01629 0 0 -.01629 404.541 32.472)"/></g><path fill="none" stroke="#000" stroke-linecap="round" stroke-linejoin="round" stroke-miterlimit="6" stroke-width="1.26" d="M419.233 24.617q15.68 4.56 31.361 9.117"/><metadata><rdf:RDF><cc:Work><dc:creator><cc:Agent><dc:title>Remco de Boer</dc:title></cc:Agent></dc:creator><cc:license rdf:resource="http://creativecommons.org/licenses/by/4.0/"/></cc:Work><cc:License rdf:about="http://creativecommons.org/licenses/by/4.0/"><cc:permits rdf:resource="http://creativecommons.org/ns#Reproduction"/><cc:permits rdf:resource="http://creativecommons.org/ns#Distribution"/><cc:requires rdf:resource="http://creativecommons.org/ns#Notice"/><cc:requires rdf:resource="http://creativecommons.org/ns#Attribution"/><cc:permits rdf:resource="http://creativecommons.org/ns#DerivativeWorks"/></cc:License></rdf:RDF></metadata></svg>