<svg xmlns="http://www.w3.org/2000/svg" xmlns:cc="http://creativecommons.org/ns#" xmlns:dc="http://purl.org/dc/elements/1.1/" xmlns:inkscape="http://www.inkscape.org/namespaces/inkscape" xmlns:rdf="http://www.w3.org/1999/02/22-rdf-syntax-ns#" xmlns:sodipodi="http://sodipodi.sourceforge.net/DTD/sodipodi-0.dtd" xmlns:xlink="http://www.w3.org/1999/xlink" inkscape:version="1.4.2 (1:1.4.2+202505120737+ebf0e940d0)" sodipodi:docname="array-memory-dark.svg" xml:space="preserve" width="358.266" height="113.649" viewBox="0 0 94.791 30.07"><sodipodi:namedview inkscape:current-layer="svg81" inkscape:cx="179.335" inkscape:cy="56.813" inkscape:deskcolor="#d1d1d1" inkscape:pagecheckerboard="0" inkscape:pageopacity="0" inkscape:showpageshadow="2" inkscape:window-height="1371" inkscape:window-maximized="1" inkscape:window-width="2560" inkscape:window-x="0" inkscape:window-y="32" inkscape:zoom="2.473" bordercolor="#000000" borderopacity=".25" pagecolor="#ffffff"/><defs><path id="a" d="M36-148h14q39 0 47 14v57q0 18 1 39t0 44 0 49 0 51v190q0 24-1 39t0 16q-3 19-14 25t-45 9H20v23q0 23 2 23l10 1q10 1 29 2t37 2q17 1 37 2t30 3 11 1h3v-26l1-26 8 7q59 44 138 44 81 0 138-64t58-161q0-101-65-164T310-11q-68 0-120 44l-8 7v-141q0-27 2-33t11-11q21-3 49-3h16v-46h-8l-24 1q-23 1-50 1t-38 1q-103 0-112-3h-8v46zm388 366q0 74-34 129t-85 55q-71 0-123-65V98q40-72 112-72 51 0 90 54t40 138"/><path id="b" d="M28 214q0 95 65 164t157 70q90 0 155-68t66-165q0-95-64-160T250-10q-97 0-159 67T28 214M250 30q122 0 122 163v57q0 22-1 38t-7 38-16 36-31 28-49 20q-5 1-16 1-30 0-57-12-43-22-56-61t-13-92v-20q0-96 19-135 32-61 105-61"/><path id="c" d="M69 609q0 28 18 44t44 16q23-2 40-17t17-43q0-30-17-45t-42-15-42 15-18 45M247 0q-15 3-104 3h-37Q80 3 56 1L34 0h-8v46h16q28 0 49 3 9 4 11 11t2 42v191q0 52-2 66t-14 19q-14 7-47 7H30v23q0 23 2 23l10 1q10 1 28 2l36 2q17 1 36 2t29 3 11 1h3V62q5-10 12-12t35-4h23V0Z"/><path id="d" d="M41 46h14q39 0 47 14v62q0 17 1 39t0 42v66q0 35-1 59v23q-3 19-14 25t-45 9H25v23q0 23 2 23l10 1q10 1 28 2t37 2q17 1 36 2t29 3 11 1h3v-40q0-38 1-38t5 5l12 15q8 10 19 18t29 19 38 16 51 5q114-4 127-113 1-7 1-139v-86q0-38 2-45t11-10q21-3 49-3h16V0h-8l-24 1q-23 1-50 1t-38 1Q319 3 310 0h-8v46h16q61 0 61 16 1 2 1 138-1 135-2 143-6 28-20 42t-24 17-26 2q-45 0-79-34-27-27-34-55t-8-83V108q0-30 1-40t3-13 9-6q21-3 49-3h16V0h-8l-23 1q-24 1-51 1t-38 1Q42 3 33 0h-8v46z"/><path id="e" d="M27 422q53 4 82 56t32 122v15h40V431h135v-46H181V241q1-125 1-141t7-32q14-39 49-39 44 0 54 71 1 8 1 46v35h40v-47q0-77-42-117-27-27-70-27-34 0-59 12t-38 31-19 35-7 32q-1 7-1 148v137H18v37z"/><path id="f" d="M28 218q0 55 20 100t50 73 65 42 66 15q53 0 91-18t58-50 28-64 9-71q0-7-7-14H126v-15q0-148 100-180 20-6 44-6 42 0 72 32 17 17 27 42l10 24q3 3 16 3h3q17 0 17-10 0-4-3-13-19-55-63-87t-99-32q-95 0-158 69T28 218m305 57q-11 128-95 136h-2q-8 0-16-1t-25-8-29-21-23-41-16-66v-7h206z"/><path id="g" d="M36 46h14q39 0 47 14v31q0 14 1 31t0 39 0 42v125l-1 23q-3 19-14 25t-45 9H20v23q0 23 2 23l10 1q10 1 28 2l36 2q16 1 35 2t29 3 11 1h3v-69q39 68 97 68h6q45 0 66-22t21-46q0-21-13-36t-38-15-37 16-13 34q0 9 2 16t5 12l3 5q-2 2-23-4-16-8-24-15-47-45-47-179V101q0-12 1-20t0-15v-5q1-2 3-4t5-3 5-3 7-2 7-1 9-1h9q2 0 10-1t10 0h31V0h-9q-18 3-127 3Q37 3 28 0h-8v46z"/><path id="s" d="M376 495v40q0 24 1 33 0 45-10 56t-51 13h-18v23q0 23 2 23l10 1q10 1 29 2t37 2q17 1 37 2t30 3 11 1h3V390q0-306 1-309 3-20 14-26t45-9h18V0q-2 0-76-5t-79-6h-7v55l-8-7q-58-48-130-48-77 0-139 61T34 215q0 100 63 163t147 64q75 0 132-49zm-3-153q-45 63-113 63-49 0-87-36-27-28-34-64t-8-94q0-56 7-91t35-61q30-33 78-33 71 0 122 77z"/><path id="t" d="M137 305h-22q-22 0-37 15t-15 39q0 35 34 62t121 27q73 0 118-32t60-76q5-14 5-31t1-115v-70q0-48 5-66t21-18q15 0 20 16t5 53v36h40v-39q-1-40-3-47-9-30-35-47T400-6t-47 18-24 42v4l-2-3q-2-3-5-6t-8-9-12-11-15-12-18-11-22-8-26-6-31-3q-60 0-108 31t-48 87q0 21 7 40t27 41 48 37 78 28 110 15h14v22q0 34-6 50-22 71-97 71-18 0-34-1t-25-4-8-3q22-15 22-44 0-25-16-39zm-11-199q0-31 24-55t59-25q38 0 67 23t39 60q2 7 3 66 0 58-1 58-8 0-21-1t-45-9-58-20-46-37-21-60"/><path id="u" d="M69-66q22 0 35-14t14-36q0-18-9-29t-18-15q-7-3 6-6 7-2 14-2 20 0 37 9t27 21 22 32 16 31 12 32l17 43-72 183q-20 50-45 114-24 61-29 71t-16 13q-1 1-2 1-12 3-44 3H19v46h7l20-1q19 0 42-1t34-1h20q13 0 29 1t29 1h24l9 1h8v-46h-9q-49 0-47-19l101-254q0 1 46 115l44 114v9q0 15-10 23t-18 10-14 2h-3v46h30q10 0 21-1t23-1h17q55 0 81 2h5v-46h-11q-56-5-75-40-2-2-44-110T289 9t-62-140q-47-73-114-73-44 0-69 27t-25 61q0 27 16 38t34 12"/><path id="G" d="M295 316q0 40-27 69t-78 29q-36 0-62-13-30-19-30-52-1-5 0-13t16-24 43-25q18-5 44-9t44-9 32-13q17-8 33-20t32-41 17-62q0-62-38-102T198-10h-8q-52 0-96 36l-8-7-9-9Q71 4 65-1L54-11H42q-3 0-9 6v137q0 21 2 25t10 5h9q12 0 16-4t5-12 7-27 19-42q35-51 97-51 97 0 97 78 0 29-18 47-20 24-83 36t-83 23q-36 17-57 46t-21 62q0 39 17 66t43 40 50 18 44 5h11q40 0 70-15l15-8 9 7q10 9 22 17h12q3 0 9-6V310l-6-6h-28q-6 6-6 12"/><path id="O" d="M41 46h14q39 0 47 14v107q0 24 1 50t0 55 0 57v153q0 34-1 60t0 44 0 17q-3 19-14 25t-45 9H25v23q0 23 2 23l10 1q10 1 29 2t37 2q17 1 37 2t30 3 11 1h3V367q60 75 144 75 123 0 135-113 1-7 1-139v-86q0-38 2-45t11-10q21-3 49-3h16V0h-8l-24 1q-23 1-50 1t-38 1Q319 3 310 0h-8v46h16q61 0 61 16 1 2 1 138-1 135-2 143-6 28-20 42t-24 17-26 2q-45 0-79-34-27-27-34-55t-8-83V108q0-30 1-40t3-13 9-6q21-3 49-3h16V0h-8l-23 1q-24 1-51 1t-38 1Q42 3 33 0h-8v46z"/><path id="i" d="M42 305q0 145 69 230t146 86q78 0 133-59 92-94 92-256 0-132-64-224T262-10 106 82 42 305m215 240q-48 0-89-64t-42-161q0-100 36-173 42-82 100-82 56 0 96 74t40 181v8q-3 83-34 142t-80 73q-14 2-27 2"/><path id="j" d="M99 461v13q0 4 5 13t16 11 31 4q62 15 100 94 13 26 32 26 25 0 36-25V76h82q27 0 38-7t11-31q0-27-22-37H127q-23 9-23 37 0 24 11 31t38 7h82v193q0 192-1 192-50-35-97-37h-4q-9 0-14 1t-10 6-10 16z"/><path id="k" d="M52 462q0 66 58 113t137 47h3q93 0 157-57t65-144q0-50-26-97t-56-76-82-70q-1-1-33-27t-61-50l-29-24q0-1 101-1h102v11q0 18 9 27t33 9 33-9q7-7 8-14t1-39V42q0-18-4-26T450 1H75q-22 9-22 31v16q0 9 10 19t64 55q26 22 42 35l120 99q99 89 99 163 0 54-42 90t-115 36h-7q-48 0-78-46l-2-5q11-18 11-35-1 0 0-4t-1-11-6-14-12-13-22-9h-4q-3 0-6-1-24 0-38 15t-14 40"/><path id="l" d="M260 546q-27 0-49-5t-31-10-9-7l3-10q3-9 3-17 0-21-15-36t-37-15q-19 0-35 13t-17 45q3 36 25 61t52 36 53 15 36 5q2 1 26 1 57-2 97-20t58-44 24-45 7-35q0-92-82-149l6-3q6-3 11-6l15-9q10-6 18-13t17-15 16-20 14-23 9-28 4-32q0-81-63-136T259-11 105 28 44 130q0 24 15 38t36 15q22 0 37-14t16-38q0-12-9-30 36-36 121-36 56 0 95 32t40 82q0 32-20 61-39 52-122 52h-38q-21 0-30 7t-10 31q0 20 9 29 8 9 54 11t71 14q27 14 42 39t16 51q0 22-17 39-29 33-90 33"/><path id="m" d="M235 1q-22 9-22 31v14q0 19 17 27 6 3 44 3h40v92H183l-131 1q-15 6-19 13t-4 23v13l1 26q23 39 125 199t109 170q12 10 34 10h65q15-7 22-22V244h65q24 0 34-7t11-31q0-27-18-35-6-3-48-3h-44V76h57q24 0 34-7t11-31q0-28-22-37zm79 243v310L117 245l98-1z"/><path id="n" d="M387 189q0 55-33 89t-81 35q-43 0-68-12t-42-30-25-22h-18q-18 0-23 2-12 7-14 15t-3 45v48q0 39 1 71 0 157 1 161 6 14 21 19h60q15 0 29 1t33 0 35 0h155q1-1 6-4t7-5 4-6 4-9 1-14v-11q0-5-3-8t-3-6-4-5-4-3-5-2l-3-2-126-1H164V363l6 3q5 2 14 6t23 8 31 6 38 3q81 0 138-58t58-144q0-71-60-134T245-10q-27 0-36 1Q126 5 89 48t-37 89q0 27 16 40t36 14q26 0 39-16t13-34q0-9-2-16t-5-12-3-6q0-3 9-12t33-19 57-11q53 0 97 33t45 91"/><path id="o" d="M357 536q0 10-39 10-60 0-113-49t-72-140v-4l11 8q66 41 141 41 77 0 129-52 65-65 65-157 0-82-61-143T263-11q-29 0-56 8t-58 29-52 55-37 90-15 130q0 143 84 232t190 89q69 0 102-33t33-79q0-19-12-35t-40-17q-29 0-40 17t-12 35q0 10 4 18zm-38-210h-50q-50 0-90-28t-43-75q0-21 7-49t33-62 61-44q9-2 28-2 54 0 95 41 35 39 35 90 0 53-39 92-37 37-87 37z"/><path id="p" d="M204-10q-42 0-42 50 0 106 36 221t112 216q1 1 11 14t21 26 16 18H128v-11q0-18-9-27-8-8-33-8h-8q-23 0-32 19-2 5-2 49v23q0 25 8 36t36 11h5q21 0 32-16h333q16-13 19-18t3-20q0-14-2-20t-9-10-23-22-38-44Q252 290 246 49V27q0-4-1-5-2-11-12-21t-29-11"/><path id="q" d="M58 460q0 63 59 112t137 49q36 0 44-1 78-13 123-60t45-100q0-19-6-36t-17-31-22-23-24-18-23-12-17-8l-7-2 6-2q7-3 15-7t21-11 23-15 24-21 20-25 14-32 6-38q0-77-61-133T262-10 106 46 45 179q0 23 7 43t18 35 26 27 27 21 25 14 19 9l7 2-4 2q-4 1-11 4t-14 7q-41 19-64 50t-23 67m324-2q0 33-33 60t-86 28q-48 0-84-25t-37-63q0-37 36-63t84-27q53 0 86 28t34 62m14-280q0 45-38 79t-95 35q-57 0-96-34t-39-80q0-41 35-76t99-36q62 0 98 35t36 77"/><path id="r" d="M392 259q-59-49-156-49h-3q-70 0-124 52-63 63-63 149t53 139q65 72 165 72 29 0 55-7t57-28 52-55 36-92 15-136q0-137-79-226T217-11q-77 0-112 33t-35 79q0 23 14 37t38 15q28 0 40-16t12-36q0-10-6-25 11-11 48-11 51 0 84 28 22 16 39 37t27 43 14 37 8 32zm-4 130q0 49-31 103t-89 54-83-26q-56-41-56-105 0-31 9-52 7-14 18-29t39-32 60-17q50 0 90 28t43 76"/><path id="v" d="M58 460q0 63 59 112t137 49q36 0 44-1 78-13 123-60t45-100q0-19-6-36t-17-31-22-23-24-18-23-12-17-8l-7-2 6-2q7-3 15-7t21-11 23-15 24-21 20-25 14-32 6-38q0-77-61-133T262-10 106 46 45 179q0 23 7 43t18 35 26 27 27 21 25 14 19 9l7 2-4 2q-4 1-11 4t-14 7q-41 19-64 50t-23 67m324-2q0 33-33 60t-86 28q-48 0-84-25t-37-63q0-37 36-63t84-27q53 0 86 28t34 62m14-280q0 45-38 79t-95 35q-57 0-96-34t-39-80q0-41 35-76t99-36q62 0 98 35t36 77"/><path id="w" d="M57 306q0 27 29 35h352q30-9 30-35t-30-35H86q-29 9-29 35"/><path id="x" d="M4 573q0 23 11 30t37 8h72q22 0 31-3t16-17q2-5 2-100v-95l9 6q35 22 74 29 24 6 53 6 67 0 125-58t58-162q0-55-19-99t-51-71-64-39-65-14q-64 0-119 44-3-25-11-31t-28-6h-13Q99 1 90 23l-1 256v256H58l-31 1q-23 7-23 37m405-358q0 54-32 100t-94 46q-28 0-59-17t-47-47l-4-7V167q16-43 40-70t65-27q52 0 91 41t40 104"/><path id="z" d="M26 393q0 24 11 31t43 7h137q15-9 18-15t4-23q0-14-3-22t-10-11-12-4-17-1l-18-1v-1l9-23q9-24 21-58t26-71 24-68 12-44v-5l3 11q5 27 24 90t37 115 17 54q0 1-21 1-19 0-27 3-16 10-16 35 0 15 3 22t19 16h168q1-1 6-4t7-5 4-6 4-9 1-14q0-17-7-26t-14-10-21-2h-6q-26 0-27-2-5-16-74-229T280-94q-40-101-112-126-21-8-43-8-36 0-59 27t-24 62q0 23 14 37t37 15q24 0 37-15t14-33v-3h-18q-5-10-5-12t9-2q52 5 77 65 4 9 16 47t13 41q-6 9-134 354H75l-26 1q-23 7-23 37"/><path id="A" d="M25 395q1 10 1 13t3 8 6 7 13 8h97v50l1 51q8 15 15 18t23 4h5q29 0 38-20 2-5 2-54v-49h176q1-1 6-4t7-5 4-6 4-9 1-14v-11q0-5-3-8t-3-6-4-5-4-3-5-2l-3-2-88-1h-88V214q0-23-1-35 0-53 13-81t54-28q59 0 70 79 1 18 10 25 8 8 32 8h8q23 0 31-16 2-5 2-18 0-64-50-109T282-6q-56 0-93 35t-43 99q-1 6-1 119v108H72q-27 0-37 7t-10 33"/><path id="B" d="M48 217q0 78 52 144t148 78l10 1h16q55-2 95-24t59-57 28-67 8-64q0-13-3-20t-7-10-12-8l-154-1H135l3-10q15-47 61-77t104-31q33 0 50 15t27 34 18 23q6 3 24 3 31 0 40-20 2-6 2-10 0-32-48-77T285-6q-98 0-167 65T48 217m329 47q-6 27-12 42t-24 32-47 24q-6 1-30 1-39 0-74-27t-51-72z"/><path id="C" d="M202 538v21q0 21 16 37t42 16q23 0 40-15t17-37-17-37-40-16q-25 0-41 15zM411 76q30 0 40-7t11-31V26q0-3-2-8t-7-9-13-8H94Q72 8 72 33v16q0 3 2 9t7 10 13 8h139v279h-66l-65 1q-22 7-22 37 0 25 11 32t47 7h27q20 0 35-1h95q2-2 8-6t7-5 4-5 3-11v-15q0-8 1-26v-49q0-40-1-73V76h61z"/><path id="D" d="M89 431h16q11 0 17 1 51 0 51-33 0-5 2-5 1 0 15 10t43 21 65 11q45 0 73-13 40-21 52-58t13-100v-26q0-18-1-28V76h63q14-9 18-16t4-22q0-29-22-37H308q-22 8-22 31v13q0 20 17 28 6 3 26 3h22v154q0 26 1 36 0 55-11 75t-53 20q-35 0-66-20t-46-67l-2-10-1-94V76h63q14-9 18-16t4-22q0-29-22-37H27Q4 8 4 38q0 15 4 22t19 16h62v279H58l-31 1q-23 7-23 37 0 15 4 22t19 16z"/><path id="E" d="M60 274q0 63 47 112t126 50q45 0 83-19l13-7 9 6q46 26 89 26t62-19 20-42-15-36-34-13q-11 0-20 6-8 3-13 10t-8 12-4 5q-1-1-5-1l-27-9q23-35 23-81 0-63-48-112t-125-50q-44 0-78 16l-9 5q-4-8-4-18 0-16 8-30t25-14q7 1 12-1h31q16 0 36-1h43q6 0 21-1t22-2 21-4 23-5 21-8 23-11q67-39 67-114 0-67-68-110t-165-43q-101 0-168 44T29-73q1 13 4 25t6 22 8 18L57 8q5 8 10 12t10 10 9 8l5 5q0 1-5 10T75 80t-5 37q0 25 19 66l-6 11q-23 38-23 80m261 0q0 38-25 63t-66 25q-33 0-59-24t-26-64q0-39 25-63t63-24q40 0 64 25t24 62M422-78q0 24-14 40t-42 23-51 9-60 2h-62q-5 0-10 1-35 0-58-23t-23-52q0-32 49-54t110-22q60 0 110 22t51 54"/><path id="F" d="M327 76q32 0 42-6t11-32q0-28-21-37H47Q24 8 24 38q0 16 4 23t19 15h98v279H96l-49 1q-23 7-23 37 0 16 4 23t19 15h160q16-12 19-17t3-21v-24q68 68 165 68 42 0 67-20t26-49q0-21-14-36t-35-15q-10 0-18 3t-13 7-9 10-5 10-3 9l-2 5q-40-5-64-16-96-46-96-175v-19q0-10 1-13V76h64z"/><path id="I" d="M437-53q0-29-38-29h-5q-17 0-52 27-83 62-129 157t-47 204q0 106 45 201t131 160q35 27 51 27h6q38 0 38-29 0-11-11-22t-29-23-41-36-45-59q-10-14-21-37t-26-76-14-106q0-115 50-201T422-27q15-10 15-26"/><path id="J" d="M52 462q0 66 58 113t137 47h3q93 0 157-57t65-144q0-50-26-97t-56-76-82-70q-1-1-33-27t-61-50l-29-24q0-1 101-1h102v11q0 18 9 27t33 9 33-9q7-7 8-14t1-39V42q0-18-4-26T450 1H75q-22 9-22 31v16q0 9 10 19t64 55q26 22 42 35l120 99q99 89 99 163 0 54-42 90t-115 36h-7q-48 0-78-46l-2-5q11-18 11-35-1 0 0-4t-1-11-6-14-12-13-22-9h-4q-3 0-6-1-24 0-38 15t-14 40"/><path id="K" d="M235 1q-22 9-22 31v14q0 19 17 27 6 3 44 3h40v92H183l-131 1q-15 6-19 13t-4 23v13l1 26q23 39 125 199t109 170q12 10 34 10h65q15-7 22-22V244h65q24 0 34-7t11-31q0-27-18-35-6-3-48-3h-44V76h57q24 0 34-7t11-31q0-28-22-37zm79 243v310L117 245l98-1z"/><path id="L" d="M193 37v33q0 33 20 51t47 19q42 0 67-32t26-72q0-43-17-79t-42-55-45-30-34-11q-11 0-26 14-12 14-15 24-2 17 9 24t34 16 36 28q8 9 19 34l-7-1q-31 0-51 18z"/><path id="M" d="M58 460q0 63 59 112t137 49q36 0 44-1 78-13 123-60t45-100q0-19-6-36t-17-31-22-23-24-18-23-12-17-8l-7-2 6-2q7-3 15-7t21-11 23-15 24-21 20-25 14-32 6-38q0-77-61-133T262-10 106 46 45 179q0 23 7 43t18 35 26 27 27 21 25 14 19 9l7 2-4 2q-4 1-11 4t-14 7q-41 19-64 50t-23 67m324-2q0 33-33 60t-86 28q-48 0-84-25t-37-63q0-37 36-63t84-27q53 0 86 28t34 62m14-280q0 45-38 79t-95 35q-57 0-96-34t-39-80q0-41 35-76t99-36q62 0 98 35t36 77"/><path id="N" d="M87 664q0 30 39 30 12 0 21-4t36-23q83-62 129-157t46-204q0-113-51-213T161-70q-19-12-35-12-21 0-30 9t-9 20q0 6 1 9 4 8 28 25t57 53 57 85q43 87 43 187 0 102-42 188T109 635q-22 14-22 29"/><path id="P" d="M437-53q0-29-38-29h-5q-17 0-52 27-83 62-129 157t-47 204q0 106 45 201t131 160q35 27 51 27h6q38 0 38-29 0-11-11-22t-29-23-41-36-45-59q-10-14-21-37t-26-76-14-106q0-115 50-201T422-27q15-10 15-26"/><path id="R" d="M235 1q-22 9-22 31v14q0 19 17 27 6 3 44 3h40v92H183l-131 1q-15 6-19 13t-4 23v13l1 26q23 39 125 199t109 170q12 10 34 10h65q15-7 22-22V244h65q24 0 34-7t11-31q0-27-18-35-6-3-48-3h-44V76h57q24 0 34-7t11-31q0-28-22-37zm79 243v310L117 245l98-1z"/><path id="S" d="M193 37v33q0 33 20 51t47 19q42 0 67-32t26-72q0-43-17-79t-42-55-45-30-34-11q-11 0-26 14-12 14-15 24-2 17 9 24t34 16 36 28q8 9 19 34l-7-1q-31 0-51 18z"/><path id="T" d="M260 546q-27 0-49-5t-31-10-9-7l3-10q3-9 3-17 0-21-15-36t-37-15q-19 0-35 13t-17 45q3 36 25 61t52 36 53 15 36 5q2 1 26 1 57-2 97-20t58-44 24-45 7-35q0-92-82-149l6-3q6-3 11-6l15-9q10-6 18-13t17-15 16-20 14-23 9-28 4-32q0-81-63-136T259-11 105 28 44 130q0 24 15 38t36 15q22 0 37-14t16-38q0-12-9-30 36-36 121-36 56 0 95 32t40 82q0 32-20 61-39 52-122 52h-38q-21 0-30 7t-10 31q0 20 9 29 8 9 54 11t71 14q27 14 42 39t16 51q0 22-17 39-29 33-90 33"/><path id="U" d="M87 664q0 30 39 30 12 0 21-4t36-23q83-62 129-157t46-204q0-113-51-213T161-70q-19-12-35-12-21 0-30 9t-9 20q0 6 1 9 4 8 28 25t57 53 57 85q43 87 43 187 0 102-42 188T109 635q-22 14-22 29"/><path id="V" d="M76 230q-8 0-14 7t-6 13q0 7 7 14t28 27q11 9 17 15l51 45q9 5 18 0l41-35 85-77 50-44q23 19 50 44l85 77 41 35q9 5 17 0 2-1 48-41l44-40h210l-7 8q-28 31-49 66t-29 52-8 20q0 1 23 1h23q16-50 55-94t87-73q-48-29-87-73t-55-94h-23q-23 0-23 1 0 2 7 19t29 53 50 66l7 8H737q-112 0-115 2-2 1-23 19t-41 37l-21 18q0-1-86-78t-89-79q-9-3-17 0-4 1-90 78t-86 79q-2 0-40-36-6-5-14-13t-13-12-9-8-9-5-8-2"/><path id="W" d="M137 305h-22q-22 0-37 15t-15 39q0 35 34 62t121 27q73 0 118-32t60-76q5-14 5-31t1-115v-70q0-48 5-66t21-18q15 0 20 16t5 53v36h40v-39q-1-40-3-47-9-30-35-47T400-6t-47 18-24 42v4l-2-3q-2-3-5-6t-8-9-12-11-15-12-18-11-22-8-26-6-31-3q-60 0-108 31t-48 87q0 21 7 40t27 41 48 37 78 28 110 15h14v22q0 34-6 50-22 71-97 71-18 0-34-1t-25-4-8-3q22-15 22-44 0-25-16-39zm-11-199q0-31 24-55t59-25q38 0 67 23t39 60q2 7 3 66 0 58-1 58-8 0-21-1t-45-9-58-20-46-37-21-60"/><path id="Y" d="M36 46h14q39 0 47 14v31q0 14 1 31t0 39 0 42v125l-1 23q-3 19-14 25t-45 9H20v23q0 23 2 23l10 1q10 1 28 2l36 2q16 1 35 2t29 3 11 1h3v-69q39 68 97 68h6q45 0 66-22t21-46q0-21-13-36t-38-15-37 16-13 34q0 9 2 16t5 12l3 5q-2 2-23-4-16-8-24-15-47-45-47-179V101q0-12 1-20t0-15v-5q1-2 3-4t5-3 5-3 7-2 7-1 9-1h9q2 0 10-1t10 0h31V0h-9q-18 3-127 3Q37 3 28 0h-8v46z"/><path id="Z" d="M69-66q22 0 35-14t14-36q0-18-9-29t-18-15q-7-3 6-6 7-2 14-2 20 0 37 9t27 21 22 32 16 31 12 32l17 43-72 183q-20 50-45 114-24 61-29 71t-16 13q-1 1-2 1-12 3-44 3H19v46h7l20-1q19 0 42-1t34-1h20q13 0 29 1t29 1h24l9 1h8v-46h-9q-49 0-47-19l101-254q0 1 46 115l44 114v9q0 15-10 23t-18 10-14 2h-3v46h30q10 0 21-1t23-1h17q55 0 81 2h5v-46h-11q-56-5-75-40-2-2-44-110T289 9t-62-140q-47-73-114-73-44 0-69 27t-25 61q0 27 16 38t34 12"/><marker id="H" markerHeight="1" markerWidth="1" orient="auto-start-reverse" preserveAspectRatio="xMidYMid" refX="0" refY="0" style="overflow:visible" viewBox="0 0 1 1"><path d="m0 0 5-5-17.5 5L5 5Z" style="fill:context-stroke;fill-rule:evenodd;stroke:none" transform="scale(-.5)"/></marker><marker id="h" markerHeight="1.2" markerWidth="1.2" orient="auto-start-reverse" preserveAspectRatio="xMidYMid" refX="0" refY="0" style="overflow:visible" viewBox="0 0 1 1"><path d="m0 0 5-5-17.5 5L5 5Z" style="fill:context-stroke;fill-rule:evenodd;stroke:none" transform="scale(-.5)"/></marker></defs><g transform="matrix(.52 0 0 .52 -12.123 -1.088)"><g data-mml-node="mtr" style="fill:gray;stroke:none;stroke-width:0"><g data-mml-node="mtd" style="fill:gray;stroke:none"><g data-mml-node="mtext" style="fill:gray;stroke:none" transform="matrix(.00933 0 0 -.00933 24.145 53.124)"><use xlink:href="#a" data-c="70" style="fill:gray;stroke:none"/><use xlink:href="#b" data-c="6F" style="fill:gray;stroke:none" transform="translate(556)"/><use xlink:href="#c" data-c="69" style="fill:gray;stroke:none" transform="translate(1056)"/><use xlink:href="#d" data-c="6E" style="fill:gray;stroke:none" transform="translate(1334)"/><use xlink:href="#e" data-c="74" style="fill:gray;stroke:none" transform="translate(1890)"/><use xlink:href="#f" data-c="65" style="fill:gray;stroke:none" transform="translate(2279)"/><use xlink:href="#g" data-c="72" style="fill:gray;stroke:none" transform="translate(2723)"/></g></g></g><path d="M75.606 68.39V56.774" style="fill:none;stroke:gray;stroke-width:.600001;stroke-linecap:round;marker-end:url(#h)" transform="translate(-37.326 -23.23)"/><path d="M177.535 45.923h9.672v9.672h-9.672zm-9.672 0h9.672v9.672h-9.672zm-9.672 0h9.672v9.672h-9.672zm-9.672 0h9.672v9.672h-9.672zm-9.672 0h9.672v9.672h-9.672zm-9.672 0h9.672v9.672h-9.672zm-9.672 0h9.672v9.672h-9.672zm-9.672 0h9.672v9.672h-9.672zm-9.672 0h9.672v9.672h-9.672zm-9.672 0h9.672v9.672h-9.672zm-9.672 0h9.672v9.672h-9.672zm-9.672 0h9.672v9.672h-9.672Z" style="fill:none;stroke:#bfbfbf;stroke-width:.600001;stroke-linecap:round" transform="translate(-37.699 -26.356)"/><g transform="translate(-37.699 -26.356)"><use xlink:href="#i" data-c="1D7F6" style="fill:#bfbfbf;stroke:none;stroke-width:0" transform="matrix(.00796 0 0 -.00796 73.827 53.358)"/><use xlink:href="#j" data-c="1D7F7" style="fill:#bfbfbf;stroke:none;stroke-width:0" transform="matrix(.00796 0 0 -.00796 83.667 53.358)"/><use xlink:href="#k" data-c="1D7F8" style="fill:#bfbfbf;stroke:none;stroke-width:0" transform="matrix(.00796 0 0 -.00796 93.27 53.358)"/><use xlink:href="#l" data-c="1D7F9" style="fill:#bfbfbf;stroke:none;stroke-width:0" transform="matrix(.00796 0 0 -.00796 102.991 53.358)"/><use xlink:href="#m" data-c="1D7FA" style="fill:#bfbfbf;stroke:none;stroke-width:0" transform="matrix(.00796 0 0 -.00796 112.24 53.358)"/><use xlink:href="#n" data-c="1D7FB" style="fill:#bfbfbf;stroke:none;stroke-width:0" transform="matrix(.00796 0 0 -.00796 122.198 53.358)"/><use xlink:href="#o" data-c="1D7FC" style="fill:#bfbfbf;stroke:none;stroke-width:0" transform="matrix(.00796 0 0 -.00796 131.565 53.358)"/><use xlink:href="#p" data-c="1D7FD" style="fill:#bfbfbf;stroke:none;stroke-width:0" transform="matrix(.00796 0 0 -.00796 141.64 53.358)"/><use xlink:href="#q" data-c="1D7FE" style="fill:#bfbfbf;stroke:none;stroke-width:0" transform="matrix(.00796 0 0 -.00796 151.361 53.358)"/><use xlink:href="#r" data-c="1D7FF" style="fill:#bfbfbf;stroke:none;stroke-width:0" transform="matrix(.00796 0 0 -.00796 161.436 53.358)"/><g data-mml-node="mtr" style="fill:#000;stroke:#000;stroke-width:0"><g data-mml-node="mtd"><g data-mml-node="mtext" transform="matrix(.00796 0 0 -.00796 168.237 53.358)"><use xlink:href="#j" data-c="1D7F7" style="stroke:none;fill:#bfbfbf"/><use xlink:href="#i" data-c="1D7F6" style="stroke:none;fill:#bfbfbf" transform="translate(525)"/></g></g></g><g data-mml-node="mtd" style="fill:#000;stroke:#000;stroke-width:0"><g data-mml-node="mtext" transform="matrix(.00796 0 0 -.00796 178.381 53.358)"><use xlink:href="#j" data-c="1D7F7" style="stroke:none;fill:#bfbfbf"/><use xlink:href="#j" data-c="1D7F7" style="stroke:none;fill:#bfbfbf" transform="translate(525)"/></g></g></g><g data-mml-node="mtr" style="fill:gray;stroke:none;stroke-width:0"><g data-mml-node="mtd" style="fill:gray;stroke:none"><g data-mml-node="mtext" style="fill:gray;stroke:none" transform="matrix(.00933 0 0 -.00933 66.823 56.998)"><use xlink:href="#s" data-c="64" style="fill:gray;stroke:none"/><use xlink:href="#t" data-c="61" style="fill:gray;stroke:none" transform="translate(556)"/><use xlink:href="#e" data-c="74" style="fill:gray;stroke:none" transform="translate(1056)"/><use xlink:href="#t" data-c="61" style="fill:gray;stroke:none" transform="translate(1445)"/><use xlink:href="#e" data-c="74" style="fill:gray;stroke:none" transform="translate(2195)"/><use xlink:href="#u" data-c="79" style="fill:gray;stroke:none" transform="translate(2584)"/><use xlink:href="#a" data-c="70" style="fill:gray;stroke:none" transform="translate(3112)"/><use xlink:href="#f" data-c="65" style="fill:gray;stroke:none" transform="translate(3668)"/></g></g></g><g data-mml-node="mtable" style="fill:#000;stroke:#000;stroke-width:0"><g data-mml-node="mtr" transform="matrix(.00583 0 0 -.00583 75.746 38.348)"><use xlink:href="#v" data-c="1D7FE" style="stroke:none;fill:#bfbfbf" transform="translate(262.5)"/><use xlink:href="#w" data-c="2D" style="stroke:none;fill:#bfbfbf" transform="translate(787.5)"/><use xlink:href="#x" data-c="1D68B" style="stroke:none;fill:#bfbfbf" transform="translate(1312.5)"/><use xlink:href="#z" data-c="1D6A2" style="stroke:none;fill:#bfbfbf" transform="translate(1837.5)"/><use xlink:href="#A" data-c="1D69D" style="stroke:none;fill:#bfbfbf" transform="translate(2362.5)"/><use xlink:href="#B" data-c="1D68E" style="stroke:none;fill:#bfbfbf" transform="translate(2887.5)"/></g><g data-mml-node="mtr" transform="matrix(.00583 0 0 -.00583 75.746 44.833)"><use xlink:href="#C" data-c="1D692" style="stroke:none;fill:#bfbfbf"/><use xlink:href="#D" data-c="1D697" style="stroke:none;fill:#bfbfbf" transform="translate(525)"/><use xlink:href="#A" data-c="1D69D" style="stroke:none;fill:#bfbfbf" transform="translate(1050)"/><use xlink:href="#B" data-c="1D68E" style="stroke:none;fill:#bfbfbf" transform="translate(1575)"/><use xlink:href="#E" data-c="1D690" style="stroke:none;fill:#bfbfbf" transform="translate(2100)"/><use xlink:href="#B" data-c="1D68E" style="stroke:none;fill:#bfbfbf" transform="translate(2625)"/><use xlink:href="#F" data-c="1D69B" style="stroke:none;fill:#bfbfbf" transform="translate(3150)"/></g></g><g data-mml-node="mo" style="fill:#000;stroke:#000;stroke-width:0"><path stroke="none" d="m432-213-6 6v35l8 14Q525 2 710 84q74 29 155 35h12q9 0 13 1 14 0 17-3t3-19V25q0-18-3-21t-16-4Q758 0 643-55T475-205q-4-6-7-7t-19-1zM-10 60v51q0 7 5 7 4 2 15 2 86 0 180-36Q375 2 466-158l8-14v-35l-6-6h-34q-3 0-6 4t-5 7-9 15-18 24Q331-82 224-41T9 0Q-4 0-7 3t-3 22zm900 0v35q0 18 3 21t16 4q142 0 241 51t146 113q8 9 16 21t12 19 7 7q2 2 20 2h17l6-6v-35l-8-14q-91-160-276-242Q995 0 908 0q-13 0-15 3t-3 21zM-474 327l6 6h33q4 0 7-4t5-7 8-14 19-24q61-81 171-122t216-42q13 0 16-3t3-22V28Q10 8 7 4T-8 0q-87 0-182 36-185 82-276 242l-8 14z" data-c="E156" style="stroke:none;fill:#bfbfbf" transform="matrix(.00555 0 0 -.00555 84.004 31.604)"/></g><g data-mml-node="mtr" style="fill:gray;stroke:none;stroke-width:0"><g data-mml-node="mtd" style="fill:gray;stroke:none"><g data-mml-node="mtext" style="fill:gray;stroke:none" transform="matrix(.00933 0 0 -.00933 115.227 52.308)"><use xlink:href="#G" data-c="73" style="fill:gray;stroke:none"/><use xlink:href="#e" data-c="74" style="fill:gray;stroke:none" transform="translate(394)"/><use xlink:href="#g" data-c="72" style="fill:gray;stroke:none" transform="translate(783)"/><use xlink:href="#c" data-c="69" style="fill:gray;stroke:none" transform="translate(1175)"/><use xlink:href="#s" data-c="64" style="fill:gray;stroke:none" transform="translate(1453)"/><use xlink:href="#f" data-c="65" style="fill:gray;stroke:none" transform="translate(2009)"/><use xlink:href="#G" data-c="73" style="fill:gray;stroke:none" transform="translate(2453)"/></g></g></g><path d="M44.069 13.366c3.971 2.315 7.943 4.63 11.61 4.873 3.666.241 7.027-1.59 10.389-3.423" style="fill:none;stroke:#bfbfbf;stroke-width:.4;stroke-linecap:round;stroke-dasharray:none;marker-end:url(#H)" transform="translate(73.07 17.57)"/><use xlink:href="#I" data-c="28" style="fill:#bfbfbf;stroke:none;stroke-width:0" transform="matrix(.00553 0 0 -.00553 118.104 42.246)"/><use xlink:href="#J" data-c="1D7F8" style="fill:#bfbfbf;stroke:none;stroke-width:0" transform="matrix(.00553 0 0 -.00553 121.008 42.246)"/><use xlink:href="#K" data-c="1D7FA" style="fill:#bfbfbf;stroke:none;stroke-width:0" transform="matrix(.00553 0 0 -.00553 123.912 42.246)"/><use xlink:href="#L" data-c="2C" style="fill:#bfbfbf;stroke:none;stroke-width:0" transform="matrix(.00553 0 0 -.00553 126.816 42.246)"/><use xlink:href="#M" data-c="1D7FE" style="fill:#bfbfbf;stroke:none;stroke-width:0" transform="matrix(.00553 0 0 -.00553 132.624 42.246)"/><use xlink:href="#N" data-c="29" style="fill:#bfbfbf;stroke:none;stroke-width:0" transform="matrix(.00553 0 0 -.00553 135.528 42.246)"/><g data-mml-node="mtr" style="fill:gray;stroke:none;stroke-width:0"><g data-mml-node="mtd" style="fill:gray;stroke:none"><g data-mml-node="mtext" style="fill:gray;stroke:none" transform="matrix(.00933 0 0 -.00933 114.463 9.59)"><use xlink:href="#G" data-c="73" style="fill:gray;stroke:none"/><use xlink:href="#O" data-c="68" style="fill:gray;stroke:none" transform="translate(394)"/><use xlink:href="#t" data-c="61" style="fill:gray;stroke:none" transform="translate(950)"/><use xlink:href="#a" data-c="70" style="fill:gray;stroke:none" transform="translate(1450)"/><use xlink:href="#f" data-c="65" style="fill:gray;stroke:none" transform="translate(2006)"/></g></g></g><use xlink:href="#P" data-c="28" style="fill:#bfbfbf;stroke:none;stroke-width:0" transform="matrix(.00551 0 0 -.00551 82.912 11.075)"/><use xlink:href="#R" data-c="1D7FA" style="fill:#bfbfbf;stroke:none;stroke-width:0" transform="matrix(.00551 0 0 -.00551 85.805 11.075)"/><use xlink:href="#S" data-c="2C" style="fill:#bfbfbf;stroke:none;stroke-width:0" transform="matrix(.00551 0 0 -.00551 88.698 11.075)"/><use xlink:href="#T" data-c="1D7F9" style="fill:#bfbfbf;stroke:none;stroke-width:0" transform="matrix(.00551 0 0 -.00551 94.483 11.075)"/><use xlink:href="#U" data-c="29" style="fill:#bfbfbf;stroke:none;stroke-width:0" transform="matrix(.00551 0 0 -.00551 97.376 11.075)"/><path d="M72.133 17.74v-2.978m58.031 2.978v-2.978H14.101v2.978m87.048 0v-2.978M43.117 17.74v-2.978" style="fill:none;stroke:#bfbfbf;stroke-width:.4;stroke-linecap:round;stroke-dasharray:none" transform="translate(19.344 -.498)"/><use xlink:href="#V" data-c="21DD" style="fill:#ccc;stroke:none;stroke-width:0" transform="matrix(.02727 0 0 -.03375 145.269 47.623)"/><path d="M62.856 90.904h9.672v9.672h-9.672zm-9.672 0h9.672v9.672h-9.672zm-9.672 0h9.672v9.672h-9.672Zm19.344-9.672h9.672v9.672h-9.672zm-9.672 0h9.672v9.672h-9.672zm-9.672 0h9.672v9.672h-9.672zm19.344-9.672h9.672v9.672h-9.672zm-9.672 0h9.672v9.672h-9.672zm-9.672 0h9.672v9.672h-9.672zm19.344-9.672h9.672v9.672h-9.672zm-9.672 0h9.672v9.672h-9.672zm-9.672 0h9.672v9.672h-9.672z" style="fill:#b56;stroke:#bfbfbf;stroke-width:.600001;stroke-linecap:round;fill-opacity:.2" transform="translate(131.759 -42.32)"/><path d="M46.53 66.896q0-1.154.55-1.83.549-.676 1.162-.684.62 0 1.058.47.732.747.732 2.036 0 1.05-.51 1.783-.509.732-1.24.732-.733 0-1.242-.732-.51-.733-.51-1.775m1.712-1.91q-.382 0-.709.51-.326.509-.334 1.28 0 .796.287 1.377.334.653.795.653.446 0 .764-.589.319-.589.319-1.44v-.064q-.024-.66-.271-1.13t-.637-.58q-.111-.017-.214-.017m8.581.669v-.104q0-.031.04-.103t.128-.088.246-.031q.494-.12.796-.748.103-.207.255-.207.199 0 .286.199v4.145h.653q.214 0 .302.056.087.056.087.247 0 .215-.175.294h-2.395q-.183-.072-.183-.294 0-.191.088-.247.087-.056.302-.056h.653v-1.535q0-1.528-.008-1.528-.398.278-.772.294h-.032q-.072 0-.111-.008t-.08-.048-.08-.127zm9.23-.008q0-.525.461-.9.462-.373 1.09-.373h.024q.74 0 1.25.453.509.454.517 1.146 0 .398-.207.772t-.446.605-.652.557q-.008.008-.263.215-.254.206-.485.397l-.231.191q0 .008.804.008h.811v-.087q0-.143.072-.215t.263-.072.262.072q.056.056.064.111.008.056.008.31v.152q0 .143-.032.207-.032.063-.143.12h-2.984q-.175-.072-.175-.248v-.127q0-.071.08-.151.079-.08.509-.438.206-.175.334-.278l.955-.788q.787-.708.787-1.297 0-.43-.334-.716-.334-.287-.915-.287h-.056q-.382 0-.62.366l-.016.04q.087.143.087.279-.008 0 0 .032.008.031-.008.087t-.047.112-.096.103-.175.072h-.032q-.024 0-.048.008-.19 0-.302-.12t-.111-.318M48.154 74.57q-.215 0-.39.04t-.246.08-.072.055l.024.08q.024.071.024.135 0 .167-.12.286-.119.12-.294.12-.151 0-.278-.104-.128-.103-.136-.358.024-.286.2-.485.174-.2.413-.287t.422-.12q.183-.031.286-.039.016-.008.207-.008.454.016.772.16.318.142.462.35.143.206.19.357.048.152.056.279 0 .732-.652 1.186l.047.023q.048.024.088.048l.12.072q.079.047.142.103l.136.12q.071.063.127.159.056.095.111.183.056.087.072.223l.032.254q0 .645-.501 1.082-.502.438-1.25.438t-1.225-.31-.485-.812q0-.191.119-.302.12-.112.286-.12.175 0 .295.112.12.111.127.302 0 .096-.072.239.287.286.963.286.446 0 .756-.254.31-.255.318-.653 0-.255-.159-.485-.31-.414-.97-.414h-.302q-.168 0-.24-.056-.071-.055-.08-.246 0-.16.072-.231.064-.072.43-.088t.565-.111q.215-.112.334-.31.12-.2.128-.406 0-.175-.136-.31-.23-.263-.716-.263m9.051 4.337q-.175-.072-.175-.247v-.112q0-.15.135-.214.048-.024.35-.024h.318v-.732h-1.042l-1.042-.008q-.12-.048-.152-.104-.031-.055-.031-.183v-.103l.008-.207q.183-.31.994-1.584.812-1.273.868-1.352.095-.08.27-.08h.517q.12.056.175.175v2.84h.518q.19 0 .27.057.08.055.088.246 0 .215-.144.279-.047.024-.381.024h-.35v.732h.453q.19 0 .27.055.08.056.088.247 0 .223-.175.295zm.628-1.934v-2.467l-1.567 2.459.78.008zm10.538.437q0-.437-.262-.708-.263-.27-.645-.278-.342 0-.54.095-.2.096-.335.24-.135.142-.199.174h-.143q-.143 0-.183-.016-.096-.055-.112-.12-.016-.063-.024-.357v-.382q0-.31.008-.565 0-1.25.008-1.281.048-.112.168-.151h.477q.12 0 .23-.008.112-.008.263 0t.279 0h1.233q.008.008.048.031.04.024.056.04t.031.048.032.072.008.111v.088q0 .04-.024.063-.024.024-.024.048t-.031.04-.032.024-.04.015l-.024.016-1.002.008h-.995v1.369l.048-.024q.04-.016.111-.048.072-.031.183-.063t.247-.048.302-.024q.645 0 1.098.462.454.461.462 1.145 0 .565-.478 1.067-.477.501-1.329.501-.214 0-.286-.008-.66-.111-.955-.453-.294-.343-.294-.709 0-.215.127-.318t.286-.111q.207 0 .31.127t.104.27q0 .072-.016.128-.016.055-.04.095-.023.04-.023.048 0 .024.071.096.072.071.263.15.19.08.453.088.422 0 .772-.262.35-.263.358-.724m-19.561 7.08q0-.08-.311-.08-.478 0-.9.39-.421.39-.572 1.114v.032l.087-.063q.525-.327 1.122-.327.613 0 1.027.414.517.517.517 1.25 0 .652-.486 1.137-.485.486-1.233.486-.23 0-.446-.064-.214-.064-.461-.23-.247-.168-.414-.438-.167-.271-.294-.717-.128-.445-.12-1.034 0-1.138.669-1.846.668-.708 1.512-.708.549 0 .811.262.263.263.263.629 0 .151-.096.278-.095.128-.318.136-.23 0-.318-.136-.088-.135-.096-.278 0-.08.032-.143zm-.303 1.671h-.398q-.398 0-.716.223-.319.223-.342.597 0 .167.055.39.056.222.263.493.207.27.485.35.072.016.223.016.43 0 .756-.326.278-.31.278-.716 0-.422-.31-.733-.294-.294-.692-.294zm9.16 2.674q-.335 0-.335-.398 0-.844.287-1.759.286-.915.891-1.718.008-.008.088-.112.08-.103.167-.207.087-.103.127-.143h-1.83v.088q0 .143-.072.214-.063.064-.262.064h-.064q-.183 0-.255-.151-.015-.04-.015-.39v-.183q0-.199.063-.286.064-.088.287-.088h.04q.166 0 .254.127h2.65q.127.104.15.144.025.04.025.159 0 .111-.016.159t-.072.08-.183.174-.302.35q-1.241 1.49-1.29 3.407v.176q0 .031-.007.04-.016.087-.096.166t-.23.088m8.559-3.741q0-.501.47-.891t1.09-.39q.286 0 .35.008.62.103.979.477.358.374.358.796 0 .151-.048.286-.048.136-.135.247t-.175.183-.191.143q-.104.072-.183.096-.08.024-.136.063l-.055.016.047.016q.056.024.12.056l.167.087q.103.056.183.12.08.063.19.167.112.103.16.199.048.095.111.254.064.16.048.303 0 .613-.485 1.058-.486.446-1.242.446t-1.24-.446-.486-1.058q0-.183.055-.342.056-.16.144-.279.087-.12.206-.215.12-.095.215-.167.096-.071.2-.111.103-.04.15-.072l.056-.016-.032-.016q-.031-.008-.087-.031-.056-.024-.112-.056-.326-.151-.509-.398t-.183-.533m2.578.016q0-.263-.262-.478-.263-.215-.685-.222-.382 0-.668.198-.286.2-.294.502 0 .294.286.501t.668.215q.422 0 .685-.223.262-.223.27-.493m.112 2.228q0-.358-.303-.629-.302-.27-.756-.278-.453 0-.764.27-.31.27-.31.637 0 .326.279.604.278.279.787.287.494 0 .78-.279.287-.278.287-.612M49.66 96.273q-.47.39-1.242.39h-.024q-.557 0-.986-.414-.502-.501-.502-1.186t.422-1.106q.517-.573 1.313-.573.23 0 .438.056.207.056.453.223t.414.437.287.732.119 1.083q0 1.09-.629 1.798-.628.708-1.456.708-.613 0-.891-.262-.279-.263-.279-.63 0-.182.112-.293.111-.112.302-.12.223 0 .318.127.096.128.096.287 0 .08-.048.199.088.087.382.087.406 0 .669-.222.175-.128.31-.295t.215-.342.111-.294q.032-.12.064-.255zm-.032-1.035q0-.39-.247-.82-.246-.429-.708-.429t-.66.207q-.446.326-.446.835 0 .247.072.414.055.112.143.23.087.12.31.256.223.135.478.135.397 0 .716-.223t.342-.605m4.502-.573v-.103q0-.032.04-.104.039-.071.126-.087.088-.016.247-.032.493-.12.796-.748.103-.207.254-.207.2 0 .287.2v4.145h.652q.215 0 .303.056.087.055.087.246 0 .215-.175.295h-2.395q-.183-.072-.183-.295 0-.19.088-.246.087-.056.302-.056h.653v-1.536q0-1.528-.009-1.528-.397.279-.771.295H54.4q-.072 0-.112-.008t-.08-.048-.079-.127zm3.723 1.242q0-1.154.55-1.83.548-.677 1.161-.685.62 0 1.058.47.732.748.732 2.037 0 1.05-.509 1.782-.51.732-1.241.732t-1.242-.732q-.509-.732-.509-1.774m1.711-1.91q-.382 0-.708.51-.326.508-.334 1.28 0 .796.286 1.377.334.652.796.652.445 0 .764-.588.318-.59.318-1.44v-.064q-.024-.66-.27-1.13t-.637-.581q-.112-.016-.215-.016m4.709.668v-.103q0-.032.04-.104.04-.071.127-.087.088-.016.247-.032.493-.12.796-.748.103-.207.254-.207.2 0 .287.2v4.145h.652q.215 0 .302.056.088.055.088.246 0 .215-.175.295h-2.395q-.183-.072-.183-.295 0-.19.087-.246.088-.056.303-.056h.653v-1.536q0-1.528-.009-1.528-.398.279-.772.295h-.031q-.072 0-.112-.008t-.08-.048-.079-.127zm4.177 0v-.103q0-.032.04-.104.04-.071.128-.087.087-.016.246-.032.494-.12.796-.748.103-.207.255-.207.199 0 .286.2v4.145h.653q.214 0 .302.056.088.055.088.246 0 .215-.176.295h-2.395q-.183-.072-.183-.295 0-.19.088-.246.087-.056.302-.056h.653v-1.536q0-1.528-.008-1.528-.398.279-.772.295h-.032q-.072 0-.111-.008t-.08-.048-.08-.127z" style="fill:#bfbfbf;stroke:none;stroke-width:0" transform="translate(131.759 -42.32)"/><g data-mml-node="mtext" style="fill:#b56;stroke:#000;stroke-width:0" transform="matrix(.00939 0 0 -.00939 179.625 15.28)"><use xlink:href="#W" data-c="61" style="fill:#b56;stroke:#bfbfbf"/><use xlink:href="#Y" data-c="72" style="fill:#b56;stroke:#bfbfbf" transform="translate(500)"/><use xlink:href="#Y" data-c="72" style="fill:#b56;stroke:#bfbfbf" transform="translate(892)"/><use xlink:href="#W" data-c="61" style="fill:#b56;stroke:#bfbfbf" transform="translate(1284)"/><use xlink:href="#Z" data-c="79" style="fill:#b56;stroke:#bfbfbf" transform="translate(1784)"/></g></g><metadata><rdf:RDF><cc:Work><dc:creator><cc:Agent><dc:title>Remco de Boer</dc:title></cc:Agent></dc:creator><cc:license rdf:resource="http://creativecommons.org/licenses/by/4.0/"/></cc:Work><cc:License rdf:about="http://creativecommons.org/licenses/by/4.0/"><cc:permits rdf:resource="http://creativecommons.org/ns#Reproduction"/><cc:permits rdf:resource="http://creativecommons.org/ns#Distribution"/><cc:requires rdf:resource="http://creativecommons.org/ns#Notice"/><cc:requires rdf:resource="http://creativecommons.org/ns#Attribution"/><cc:permits rdf:resource="http://creativecommons.org/ns#DerivativeWorks"/></cc:License></rdf:RDF></metadata></svg>