<svg xmlns="http://www.w3.org/2000/svg" xmlns:cc="http://creativecommons.org/ns#" xmlns:dc="http://purl.org/dc/elements/1.1/" xmlns:inkscape="http://www.inkscape.org/namespaces/inkscape" xmlns:rdf="http://www.w3.org/1999/02/22-rdf-syntax-ns#" xmlns:sodipodi="http://sodipodi.sourceforge.net/DTD/sodipodi-0.dtd" xmlns:xlink="http://www.w3.org/1999/xlink" inkscape:version="1.4.2 (1:1.4.2+202505120737+ebf0e940d0)" sodipodi:docname="autodiff-forward-mode.svg" xml:space="preserve" width="269.396" height="186.549" viewBox="0 0 71.278 49.358"><sodipodi:namedview inkscape:current-layer="svg111" inkscape:cx="134.546" inkscape:cy="93.194" inkscape:deskcolor="#d1d1d1" inkscape:pagecheckerboard="0" inkscape:pageopacity="0" inkscape:showpageshadow="2" inkscape:window-height="1371" inkscape:window-maximized="1" inkscape:window-width="2560" inkscape:window-x="0" inkscape:window-y="32" inkscape:zoom="3.289" bordercolor="#000000" borderopacity=".25" pagecolor="#ffffff"/><defs><path id="b" d="m618-943-6-6h-30l-14 6q-96 40-157 102t-79 138q-5 21-5 50t-2 303q-1 322-2 332-6 42-22 79t-37 63-43 47-42 34-32 20-15 9q-2 4-2 16v8q0 3 1 6l1 3 2 2q2 2 5 3t5 3q63 33 112 92 54 69 67 152 1 10 2 332 1 273 1 303t6 51q37 153 234 238l16 7h30l6-6v-15q0-16-2-18l-8-5q-9-4-23-13t-33-21-37-29-36-38-30-48-20-57q-4-20-4-48t-2-301q-1-272-1-302t-6-51q-9-39-28-74t-42-60-49-46-47-34-36-20-17-10l-9-3 17-9q85-42 140-104T416 3q5-21 5-51t2-301v-123q1-205 5-222 1-3 1-5 5-23 14-44t22-39 26-34 28-29 29-23 26-18 21-13 15-9l6-2q2-2 2-18z"/><path id="c" d="M52 289q7 42 54 97t116 56q35 0 64-18t43-45q42 63 101 63 37 0 64-22t28-59q0-29-14-47t-27-22-23-4q-19 0-31 11t-12 29q0 46 50 63-11 13-40 13-13 0-19-2-38-16-56-66-60-221-60-258 0-28 16-40t35-12q37 0 73 33t49 81q3 10 6 11t16 2h4q15 0 15-8 0-1-2-11-16-57-62-101T333-11q-70 0-106 63-41-62-94-62h-6q-49 0-70 26T35 71q0 32 19 52t45 20q43 0 43-42 0-20-12-35t-23-20-13-5l-3-1q0-1 6-4t16-7 19-3q36 0 62 45 9 16 23 68t28 108 16 66q5 27 5 39 0 28-15 40t-34 12q-40 0-75-32t-49-82q-2-9-5-10t-16-2H58q-6 6-6 11"/><path id="d" d="M78 35v25q0 25 16 43t43 18q28 0 50-25t23-88q0-35-9-68t-21-57-26-41-24-27-13-9q-4 0-13 9t-9 13 11 16 25 30 26 50 16 73V9l-1-1q-2-1-5-2t-6-3-9-2-12-1q-27 0-44 17Z"/><path id="e" d="M202 508q-23 0-33 12t-11 27q0 10 6 30t21 47 45 51 71 35l32 5h12q33 0 39-1 63-11 105-53t60-93 17-111q0-95-47-217T402 53q-81-75-179-75-100 0-150 78-31 46-31 92v11q0 117 87 211t193 95q61 0 92-31t41-67l3 11q20 83 20 137 0 88-41 124t-93 37q-78 0-121-64 41-6 41-40 0-25-18-44t-44-20m228-202q0 66-29 94t-68 28q-63 0-111-46-25-28-39-59t-33-102q-18-72-18-105 0-95 100-95 12 0 18 1 77 13 124 90 15 25 35 84t21 110"/><path id="f" d="M56 347q0 13 14 20h637q15-8 15-20 0-11-14-19l-318-1H72q-16 5-16 20m0-194q0 15 16 20h636q14-10 14-20 0-13-15-20H70q-14 7-14 20"/><path id="g" d="m213 578-13-5q-14-5-40-10t-58-7H83v46h19q47 2 87 15t56 24 28 22q2 3 12 3 9 0 17-6V361l1-300q7-7 12-9t24-4 62-2h26V0h-11q-21 3-159 3-136 0-157-3H88v46h64q16 0 25 1t16 3 8 2 6 5 6 4z"/><path id="h" d="M131 1414v15q0 15 2 18t15 3h19l15-6q94-40 154-101t79-136q6-23 6-53t2-303l1-320 2-14q8-55 34-102t58-76 53-43 37-22q7-4 8-7t2-16v-13q0-3-3-6t-7-5q-66-33-117-95T426-15l-2-14-1-321q-1-272-1-302t-7-54q-18-74-78-135T182-943l-15-6h-14q-16 0-19 3t-3 18q0 14 1 17t12 7l4 2q151 82 175 222 1 17 2 331t2 330q28 164 214 260l20 9-20 10q-185 95-214 260-1 17-2 330t-2 331q-8 46-30 86t-49 65-51 42-42 27-19 12q-1 1-1 16z"/><path id="i" d="m618-943-6-6h-30l-14 6q-96 40-157 102t-79 138q-5 21-5 50t-2 303q-1 322-2 332-6 42-22 79t-37 63-43 47-42 34-32 20-15 9q-2 4-2 16v8q0 3 1 6l1 3 2 2q2 2 5 3t5 3q63 33 112 92 54 69 67 152 1 10 2 332 1 273 1 303t6 51q37 153 234 238l16 7h30l6-6v-15q0-16-2-18l-8-5q-9-4-23-13t-33-21-37-29-36-38-30-48-20-57q-4-20-4-48t-2-301q-1-272-1-302t-6-51q-9-39-28-74t-42-60-49-46-47-34-36-20-17-10l-9-3 17-9q85-42 140-104T416 3q5-21 5-51t2-301v-123q1-205 5-222 1-3 1-5 5-23 14-44t22-39 26-34 28-29 29-23 26-18 21-13 15-9l6-2q2-2 2-18z"/><path id="j" d="M311 43q-15-13-44-28T206 0q-63 0-101 45T66 160q0 105 77 193t171 89q47 0 87-48l3 4q2 3 5 6t9 8 13 7 16 3q14 0 23-9t10-19q0-15-57-242T363-80q-18-54-77-89t-135-36q-141 0-141 68 0 26 18 46t46 20q15 0 28-9t14-31q0-10-2-19t-7-14-8-10-7-8l-2-2h1q10-3 60-3 38 0 60 12 23 11 43 33t28 47q6 19 16 62 13 48 13 56m73 285-4 11q-3 11-5 15t-6 14-10 14-13 11-18 9-22 3q-44 0-85-53-30-39-50-119t-20-116q0-79 62-79 56 0 110 70l8 10z"/><path id="k" d="M78 35v25q0 25 16 43t43 18q28 0 50-25t23-88q0-35-9-68t-21-57-26-41-24-27-13-9q-4 0-13 9t-9 13 11 16 25 30 26 50 16 73V9l-1-1q-2-1-5-2t-6-3-9-2-12-1q-27 0-44 17Z"/><path id="l" d="M202 508q-23 0-33 12t-11 27q0 10 6 30t21 47 45 51 71 35l32 5h12q33 0 39-1 63-11 105-53t60-93 17-111q0-95-47-217T402 53q-81-75-179-75-100 0-150 78-31 46-31 92v11q0 117 87 211t193 95q61 0 92-31t41-67l3 11q20 83 20 137 0 88-41 124t-93 37q-78 0-121-64 41-6 41-40 0-25-18-44t-44-20m228-202q0 66-29 94t-68 28q-63 0-111-46-25-28-39-59t-33-102q-18-72-18-105 0-95 100-95 12 0 18 1 77 13 124 90 15 25 35 84t21 110"/><path id="m" d="M52 289q7 42 54 97t116 56q35 0 64-18t43-45q42 63 101 63 37 0 64-22t28-59q0-29-14-47t-27-22-23-4q-19 0-31 11t-12 29q0 46 50 63-11 13-40 13-13 0-19-2-38-16-56-66-60-221-60-258 0-28 16-40t35-12q37 0 73 33t49 81q3 10 6 11t16 2h4q15 0 15-8 0-1-2-11-16-57-62-101T333-11q-70 0-106 63-41-62-94-62h-6q-49 0-70 26T35 71q0 32 19 52t45 20q43 0 43-42 0-20-12-35t-23-20-13-5l-3-1q0-1 6-4t16-7 19-3q36 0 62 45 9 16 23 68t28 108 16 66q5 27 5 39 0 28-15 40t-34 12q-40 0-75-32t-49-82q-2-9-5-10t-16-2H58q-6 6-6 11"/><path id="n" d="M131 1414v15q0 15 2 18t15 3h19l15-6q94-40 154-101t79-136q6-23 6-53t2-303l1-320 2-14q8-55 34-102t58-76 53-43 37-22q7-4 8-7t2-16v-13q0-3-3-6t-7-5q-66-33-117-95T426-15l-2-14-1-321q-1-272-1-302t-7-54q-18-74-78-135T182-943l-15-6h-14q-16 0-19 3t-3 18q0 14 1 17t12 7l4 2q151 82 175 222 1 17 2 331t2 330q28 164 214 260l20 9-20 10q-185 95-214 260-1 17-2 330t-2 331q-8 46-30 86t-49 65-51 42-42 27-19 12q-1 1-1 16z"/><path id="o" d="m618-943-6-6h-30l-14 6q-96 40-157 102t-79 138q-5 21-5 50t-2 303q-1 322-2 332-6 42-22 79t-37 63-43 47-42 34-32 20-15 9q-2 4-2 16v8q0 3 1 6l1 3 2 2q2 2 5 3t5 3q63 33 112 92 54 69 67 152 1 10 2 332 1 273 1 303t6 51q37 153 234 238l16 7h30l6-6v-15q0-16-2-18l-8-5q-9-4-23-13t-33-21-37-29-36-38-30-48-20-57q-4-20-4-48t-2-301q-1-272-1-302t-6-51q-9-39-28-74t-42-60-49-46-47-34-36-20-17-10l-9-3 17-9q85-42 140-104T416 3q5-21 5-51t2-301v-123q1-205 5-222 1-3 1-5 5-23 14-44t22-39 26-34 28-29 29-23 26-18 21-13 15-9l6-2q2-2 2-18z"/><path id="p" d="M21 287q0 14 15 48t48 71 74 36q41 0 66-23t26-64q-2-19-3-21 0-3-16-46t-33-97-16-86q0-43 14-60t42-18q23 0 43 11t31 23 27 33q0 1 5 20t14 59 19 74q38 150 42 157 13 27 43 27 13 0 21-7t11-12 2-9q0-13-49-210T391-23q-28-83-97-132t-138-50q-45 0-79 22t-34 66q0 22 7 37t19 22 20 10 17 3q44 0 44-42 0-20-12-35t-23-20-13-5l-3-1q2-5 19-12t34-7h8q17 0 26 2 33 9 61 38t43 62 23 56 8 30l-6-4q-6-4-19-11T270-6q-20-5-39-5-46 0-81 22t-46 71q-1 7-1 31 0 57 35 149t35 117v14q0 3-4 7t-11 4h-4q-23 0-42-19t-30-41-17-42-8-22-16-2H27q-6 6-6 9"/><path id="q" d="M78 35v25q0 25 16 43t43 18q28 0 50-25t23-88q0-35-9-68t-21-57-26-41-24-27-13-9q-4 0-13 9t-9 13 11 16 25 30 26 50 16 73V9l-1-1q-2-1-5-2t-6-3-9-2-12-1q-27 0-44 17Z"/><path id="r" d="M202 508q-23 0-33 12t-11 27q0 10 6 30t21 47 45 51 71 35l32 5h12q33 0 39-1 63-11 105-53t60-93 17-111q0-95-47-217T402 53q-81-75-179-75-100 0-150 78-31 46-31 92v11q0 117 87 211t193 95q61 0 92-31t41-67l3 11q20 83 20 137 0 88-41 124t-93 37q-78 0-121-64 41-6 41-40 0-25-18-44t-44-20m228-202q0 66-29 94t-68 28q-63 0-111-46-25-28-39-59t-33-102q-18-72-18-105 0-95 100-95 12 0 18 1 77 13 124 90 15 25 35 84t21 110"/><path id="s" d="M52 289q7 42 54 97t116 56q35 0 64-18t43-45q42 63 101 63 37 0 64-22t28-59q0-29-14-47t-27-22-23-4q-19 0-31 11t-12 29q0 46 50 63-11 13-40 13-13 0-19-2-38-16-56-66-60-221-60-258 0-28 16-40t35-12q37 0 73 33t49 81q3 10 6 11t16 2h4q15 0 15-8 0-1-2-11-16-57-62-101T333-11q-70 0-106 63-41-62-94-62h-6q-49 0-70 26T35 71q0 32 19 52t45 20q43 0 43-42 0-20-12-35t-23-20-13-5l-3-1q0-1 6-4t16-7 19-3q36 0 62 45 9 16 23 68t28 108 16 66q5 27 5 39 0 28-15 40t-34 12q-40 0-75-32t-49-82q-2-9-5-10t-16-2H58q-6 6-6 11"/><path id="t" d="M56 347q0 13 14 20h637q15-8 15-20 0-11-14-19l-318-1H72q-16 5-16 20m0-194q0 15 16 20h636q14-10 14-20 0-13-15-20H70q-14 7-14 20"/><path id="u" d="M96 585q56 81 153 81 48 0 96-26t78-92q37-83 37-228 0-155-43-237-20-42-55-67t-61-31-51-7q-26 0-52 6t-61 32-55 67q-43 82-43 237 0 174 57 265m225 12q-30 32-71 32-42 0-72-32-25-26-33-72t-8-192q0-158 8-208t36-79q28-30 69-30 40 0 68 30 29 30 36 84t8 203q0 145-8 191t-33 73"/><path id="v" d="M131 1414v15q0 15 2 18t15 3h19l15-6q94-40 154-101t79-136q6-23 6-53t2-303l1-320 2-14q8-55 34-102t58-76 53-43 37-22q7-4 8-7t2-16v-13q0-3-3-6t-7-5q-66-33-117-95T426-15l-2-14-1-321q-1-272-1-302t-7-54q-18-74-78-135T182-943l-15-6h-14q-16 0-19 3t-3 18q0 14 1 17t12 7l4 2q151 82 175 222 1 17 2 331t2 330q28 164 214 260l20 9-20 10q-185 95-214 260-1 17-2 330t-2 331q-8 46-30 86t-49 65-51 42-42 27-19 12q-1 1-1 16z"/><path id="w" d="M52 289q7 42 54 97t116 56q35 0 64-18t43-45q42 63 101 63 37 0 64-22t28-59q0-29-14-47t-27-22-23-4q-19 0-31 11t-12 29q0 46 50 63-11 13-40 13-13 0-19-2-38-16-56-66-60-221-60-258 0-28 16-40t35-12q37 0 73 33t49 81q3 10 6 11t16 2h4q15 0 15-8 0-1-2-11-16-57-62-101T333-11q-70 0-106 63-41-62-94-62h-6q-49 0-70 26T35 71q0 32 19 52t45 20q43 0 43-42 0-20-12-35t-23-20-13-5l-3-1q0-1 6-4t16-7 19-3q36 0 62 45 9 16 23 68t28 108 16 66q5 27 5 39 0 28-15 40t-34 12q-40 0-75-32t-49-82q-2-9-5-10t-16-2H58q-6 6-6 11"/><path id="x" d="M21 287q0 14 15 48t48 71 74 36q41 0 66-23t26-64q-2-19-3-21 0-3-16-46t-33-97-16-86q0-43 14-60t42-18q23 0 43 11t31 23 27 33q0 1 5 20t14 59 19 74q38 150 42 157 13 27 43 27 13 0 21-7t11-12 2-9q0-13-49-210T391-23q-28-83-97-132t-138-50q-45 0-79 22t-34 66q0 22 7 37t19 22 20 10 17 3q44 0 44-42 0-20-12-35t-23-20-13-5l-3-1q2-5 19-12t34-7h8q17 0 26 2 33 9 61 38t43 62 23 56 8 30l-6-4q-6-4-19-11T270-6q-20-5-39-5-46 0-81 22t-46 71q-1 7-1 31 0 57 35 149t35 117v14q0 3-4 7t-11 4h-4q-23 0-42-19t-30-41-17-42-8-22-16-2H27q-6 6-6 9"/><path id="y" d="m618-943-6-6h-30l-14 6q-96 40-157 102t-79 138q-5 21-5 50t-2 303q-1 322-2 332-6 42-22 79t-37 63-43 47-42 34-32 20-15 9q-2 4-2 16v8q0 3 1 6l1 3 2 2q2 2 5 3t5 3q63 33 112 92 54 69 67 152 1 10 2 332 1 273 1 303t6 51q37 153 234 238l16 7h30l6-6v-15q0-16-2-18l-8-5q-9-4-23-13t-33-21-37-29-36-38-30-48-20-57q-4-20-4-48t-2-301q-1-272-1-302t-6-51q-9-39-28-74t-42-60-49-46-47-34-36-20-17-10l-9-3 17-9q85-42 140-104T416 3q5-21 5-51t2-301v-123q1-205 5-222 1-3 1-5 5-23 14-44t22-39 26-34 28-29 29-23 26-18 21-13 15-9l6-2q2-2 2-18z"/><path id="z" d="M118-162q2 0 6-2t11-3 12-1q13 0 24 13t16 29q10 27 34 153t46 240 22 115v3h-47q-47 0-50 2-4 3-4 10l7 28q2 5 8 5t47 1q48 0 48 1 0 2 9 50t12 58q37 165 146 165 37-2 61-22t24-53q0-36-21-52t-42-17q-44 0-44 42 0 19 11 33t24 21l9 5q-16 6-30 6-12 0-23-10t-15-28q-7-29-16-78t-16-83-7-36 55-2q45 0 52-1t11-6q1-4-2-17t-5-16q-2-5-9-5t-54-1h-56l-23-122Q301 15 282-47q-27-85-70-126-37-32-73-32-32 0-58 19t-26 54q0 37 21 54t42 17q44 0 44-42 0-19-11-33t-24-21z"/><path id="A" d="M94 250q0 69 10 131t23 107 37 88 38 67 42 52 33 34 25 21h17q14 0 14-9 0-3-17-21t-41-53-49-86-42-138-17-193 17-192 41-139 49-86 42-53 17-21q0-9-15-9h-16l-28 24q-94 85-137 212T94 250"/><path id="B" d="M311 43q-15-13-44-28T206 0q-63 0-101 45T66 160q0 105 77 193t171 89q47 0 87-48l3 4q2 3 5 6t9 8 13 7 16 3q14 0 23-9t10-19q0-15-57-242T363-80q-18-54-77-89t-135-36q-141 0-141 68 0 26 18 46t46 20q15 0 28-9t14-31q0-10-2-19t-7-14-8-10-7-8l-2-2h1q10-3 60-3 38 0 60 12 23 11 43 33t28 47q6 19 16 62 13 48 13 56m73 285-4 11q-3 11-5 15t-6 14-10 14-13 11-18 9-22 3q-44 0-85-53-30-39-50-119t-20-116q0-79 62-79 56 0 110 70l8 10z"/><path id="C" d="M52 289q7 42 54 97t116 56q35 0 64-18t43-45q42 63 101 63 37 0 64-22t28-59q0-29-14-47t-27-22-23-4q-19 0-31 11t-12 29q0 46 50 63-11 13-40 13-13 0-19-2-38-16-56-66-60-221-60-258 0-28 16-40t35-12q37 0 73 33t49 81q3 10 6 11t16 2h4q15 0 15-8 0-1-2-11-16-57-62-101T333-11q-70 0-106 63-41-62-94-62h-6q-49 0-70 26T35 71q0 32 19 52t45 20q43 0 43-42 0-20-12-35t-23-20-13-5l-3-1q0-1 6-4t16-7 19-3q36 0 62 45 9 16 23 68t28 108 16 66q5 27 5 39 0 28-15 40t-34 12q-40 0-75-32t-49-82q-2-9-5-10t-16-2H58q-6 6-6 11"/><path id="D" d="M78 35v25q0 25 16 43t43 18q28 0 50-25t23-88q0-35-9-68t-21-57-26-41-24-27-13-9q-4 0-13 9t-9 13 11 16 25 30 26 50 16 73V9l-1-1q-2-1-5-2t-6-3-9-2-12-1q-27 0-44 17Z"/><path id="E" d="M21 287q0 14 15 48t48 71 74 36q41 0 66-23t26-64q-2-19-3-21 0-3-16-46t-33-97-16-86q0-43 14-60t42-18q23 0 43 11t31 23 27 33q0 1 5 20t14 59 19 74q38 150 42 157 13 27 43 27 13 0 21-7t11-12 2-9q0-13-49-210T391-23q-28-83-97-132t-138-50q-45 0-79 22t-34 66q0 22 7 37t19 22 20 10 17 3q44 0 44-42 0-20-12-35t-23-20-13-5l-3-1q2-5 19-12t34-7h8q17 0 26 2 33 9 61 38t43 62 23 56 8 30l-6-4q-6-4-19-11T270-6q-20-5-39-5-46 0-81 22t-46 71q-1 7-1 31 0 57 35 149t35 117v14q0 3-4 7t-11 4h-4q-23 0-42-19t-30-41-17-42-8-22-16-2H27q-6 6-6 9"/><path id="F" d="m60 749 4 1h22l28-24q94-85 137-212t43-264q0-68-10-131T261 12t-37-88-38-67-41-51-32-33-23-19l-4-4H63q-3 0-5 3t-3 9q1 1 11 13Q221-64 221 250T66 725q-10 12-11 13 0 8 5 11"/><path id="G" d="M202 508q-23 0-33 12t-11 27q0 10 6 30t21 47 45 51 71 35l32 5h12q33 0 39-1 63-11 105-53t60-93 17-111q0-95-47-217T402 53q-81-75-179-75-100 0-150 78-31 46-31 92v11q0 117 87 211t193 95q61 0 92-31t41-67l3 11q20 83 20 137 0 88-41 124t-93 37q-78 0-121-64 41-6 41-40 0-25-18-44t-44-20m228-202q0 66-29 94t-68 28q-63 0-111-46-25-28-39-59t-33-102q-18-72-18-105 0-95 100-95 12 0 18 1 77 13 124 90 15 25 35 84t21 110"/><path id="H" d="M56 347q0 13 14 20h637q15-8 15-20 0-11-14-19l-318-1H72q-16 5-16 20m0-194q0 15 16 20h636q14-10 14-20 0-13-15-20H70q-14 7-14 20"/><path id="I" d="M78 250q0 24 17 42t43 18q24 0 42-16t19-43q0-25-17-43t-43-18-43 17-18 43"/><path id="J" d="M131 1414v15q0 15 2 18t15 3h19l15-6q94-40 154-101t79-136q6-23 6-53t2-303l1-320 2-14q8-55 34-102t58-76 53-43 37-22q7-4 8-7t2-16v-13q0-3-3-6t-7-5q-66-33-117-95T426-15l-2-14-1-321q-1-272-1-302t-7-54q-18-74-78-135T182-943l-15-6h-14q-16 0-19 3t-3 18q0 14 1 17t12 7l4 2q151 82 175 222 1 17 2 331t2 330q28 164 214 260l20 9-20 10q-185 95-214 260-1 17-2 330t-2 331q-8 46-30 86t-49 65-51 42-42 27-19 12q-1 1-1 16z"/><marker id="a" markerHeight="1" markerWidth="1" orient="auto-start-reverse" preserveAspectRatio="xMidYMid" refX="0" refY="0" style="overflow:visible" viewBox="0 0 1 1"><path d="M-2-4 9 0-2 4c2-2.33 2-5.66 0-8" style="fill:context-stroke;fill-rule:evenodd;stroke:none" transform="scale(.7)"/></marker></defs><g transform="matrix(.64 0 0 .64 -128.795 -66.341)"><path d="m71.926 108.508 28.016-10.625" style="fill:none;fill-opacity:1;stroke:#b56;stroke-width:.599722;stroke-linecap:round;stroke-miterlimit:6;stroke-dasharray:none;marker-end:url(#a)" transform="translate(144.6 61.807)"/><path d="M115.246 86.74v-9.705" style="fill:none;fill-opacity:1;stroke:#b56;stroke-width:.6;stroke-linecap:round;stroke-miterlimit:6;stroke-dasharray:none;marker-end:url(#a)" transform="translate(144.6 61.807)"/><path d="m130.55 98.397 22.333 10.027" style="fill:none;fill-opacity:1;stroke:#b56;stroke-width:.599722;stroke-linecap:round;stroke-miterlimit:6;stroke-dasharray:none;marker-start:url(#a)" transform="translate(144.6 61.807)"/><path d="M115.246 86.74v-2.984" style="fill:none;fill-opacity:1;stroke:#b56;stroke-width:.6;stroke-linecap:round;stroke-miterlimit:6;stroke-dasharray:none;marker-end:url(#a)" transform="translate(144.783 36.418)"/><rect width="24.72" height="12.511" x="247.486" y="148.547" rx="6.996" ry="6.996" style="fill:#69c;fill-opacity:1;stroke:#000;stroke-width:.599722;stroke-linecap:round;stroke-miterlimit:6;stroke-dasharray:none"/><rect width="36.397" height="11.843" x="241.314" y="123.158" rx="6.715" ry="6.715" style="fill:#ec6;stroke:#000;stroke-width:.599722;stroke-linecap:round;stroke-miterlimit:6;stroke-dasharray:none"/><rect width="14.712" height="11.009" x="296.361" y="168.231" rx="8.21" ry="8.21" style="fill:#ec6;stroke:#000;stroke-width:.599722;stroke-linecap:round;stroke-miterlimit:6;stroke-dasharray:none"/><rect width="14.712" height="11.009" x="202.782" y="168.231" rx="8.21" ry="8.21" style="fill:#ec6;stroke:#000;stroke-width:.599722;stroke-linecap:round;stroke-miterlimit:6;stroke-dasharray:none"/><g data-mml-node="mrow" style="fill:#ff2a2a;stroke:#000;stroke-width:0"><g data-mml-node="mo" style="fill:#ff2a2a" transform="matrix(.00479 0 0 -.00479 205.507 157.773)"><use xlink:href="#b" data-c="7B" style="fill:#b56;stroke:none"/></g><g data-mjx-texclass="ORD" data-mml-node="TeXAtom" style="fill:#ff2a2a"><g data-mml-node="mstyle" style="fill:#ff2a2a"><g data-mml-node="mi" style="fill:#ff2a2a" transform="matrix(.00575 0 0 -.00575 209.099 157.77)"><use xlink:href="#c" data-c="1D465" style="fill:#b56;stroke:none"/></g></g></g><g data-mml-node="mo" style="fill:#ff2a2a" transform="matrix(.00479 0 0 -.00479 212.386 157.77)"><use xlink:href="#d" data-c="2C" style="fill:#b56;stroke:none"/></g><g data-mml-node="mfrac" style="fill:#ff2a2a"><g data-mml-node="mrow" style="fill:#ff2a2a"><g data-mml-node="mi" style="fill:#ff2a2a" transform="matrix(.00479 0 0 -.00479 216.9 154.534)"><use xlink:href="#e" data-c="1D715" style="fill:#b56;stroke:none"/></g><g data-mml-node="mi" style="fill:#ff2a2a" transform="matrix(.00479 0 0 -.00479 219.61 154.534)"><use xlink:href="#c" data-c="1D465" style="fill:#b56;stroke:none"/></g></g><g data-mml-node="mrow" style="fill:#ff2a2a"><g data-mml-node="mi" style="fill:#ff2a2a" transform="matrix(.00479 0 0 -.00479 216.9 161.056)"><use xlink:href="#e" data-c="1D715" style="fill:#b56;stroke:none"/></g><g data-mml-node="mi" style="fill:#ff2a2a" transform="matrix(.00479 0 0 -.00479 219.61 161.056)"><use xlink:href="#c" data-c="1D465" style="fill:#b56;stroke:none"/></g></g><path stroke="none" d="M120 220h1338v60H120z" style="fill:#b56;stroke:none" transform="matrix(.00479 0 0 -.00479 215.846 157.77)"/></g><g data-mml-node="mo" style="fill:#ff2a2a" transform="matrix(.00479 0 0 -.00479 224.733 157.77)"><use xlink:href="#f" data-c="3D" style="fill:#b56;stroke:none"/></g><g data-mml-node="mn" style="fill:#ff2a2a" transform="matrix(.00479 0 0 -.00479 229.79 157.77)"><use xlink:href="#g" data-c="31" style="fill:#b56;stroke:none"/></g><g data-mml-node="mo" style="fill:#ff2a2a" transform="matrix(.00479 0 0 -.00479 232.184 157.773)"><use xlink:href="#h" data-c="7D" style="fill:#b56;stroke:none"/></g></g><g data-mml-node="mrow" style="fill:#ff2a2a;stroke:#000;stroke-width:0"><g data-mml-node="mo" style="fill:#ff2a2a" transform="matrix(.00388 0 0 -.00388 262.882 142.923)"><use xlink:href="#i" data-c="7B" style="fill:#b56;stroke:none"/></g><g data-mjx-texclass="ORD" data-mml-node="TeXAtom" style="fill:#ff2a2a"><g data-mml-node="mstyle" style="fill:#ff2a2a"><g data-mml-node="mi" style="fill:#ff2a2a" transform="matrix(.00465 0 0 -.00465 265.792 142.921)"><use xlink:href="#j" data-c="1D454" style="fill:#b56;stroke:none"/></g></g></g><g data-mml-node="mo" style="fill:#ff2a2a" transform="matrix(.00388 0 0 -.00388 268.012 142.921)"><use xlink:href="#k" data-c="2C" style="fill:#b56;stroke:none"/></g><g data-mml-node="mfrac" style="fill:#ff2a2a"><g data-mml-node="mrow" style="fill:#ff2a2a"><g data-mml-node="mi" style="fill:#ff2a2a" transform="matrix(.00388 0 0 -.00388 271.853 140.3)"><use xlink:href="#l" data-c="1D715" style="fill:#b56;stroke:none"/></g><g data-mml-node="mi" style="fill:#ff2a2a" transform="matrix(.00388 0 0 -.00388 274.049 140.3)"><use xlink:href="#j" data-c="1D454" style="fill:#b56;stroke:none"/></g></g><g data-mml-node="mrow" style="fill:#ff2a2a"><g data-mml-node="mi" style="fill:#ff2a2a" transform="matrix(.00388 0 0 -.00388 271.669 145.582)"><use xlink:href="#l" data-c="1D715" style="fill:#b56;stroke:none"/></g><g data-mml-node="mi" style="fill:#ff2a2a" transform="matrix(.00388 0 0 -.00388 273.864 145.582)"><use xlink:href="#m" data-c="1D465" style="fill:#b56;stroke:none"/></g></g><path stroke="none" d="M120 220h1338v60H120z" style="fill:#b56;stroke:none" transform="matrix(.00388 0 0 -.00388 270.815 142.921)"/></g><g data-mml-node="mo" style="fill:#ff2a2a" transform="matrix(.00388 0 0 -.00388 276.936 142.923)"><use xlink:href="#n" data-c="7D" style="fill:#b56;stroke:none"/></g></g><g data-mml-node="mrow" style="fill:#ff2a2a;stroke:#000;stroke-width:0"><g data-mml-node="mo" style="fill:#ff2a2a" transform="matrix(.00479 0 0 -.00479 281.004 157.752)"><use xlink:href="#o" data-c="7B" style="fill:#b56;stroke:none"/></g><g data-mjx-texclass="ORD" data-mml-node="TeXAtom" style="fill:#ff2a2a"><g data-mml-node="mstyle" style="fill:#ff2a2a"><g data-mml-node="mi" style="fill:#ff2a2a" transform="matrix(.00575 0 0 -.00575 284.595 157.75)"><use xlink:href="#p" data-c="1D466" style="fill:#b56;stroke:none"/></g></g></g><g data-mml-node="mo" style="fill:#ff2a2a" transform="matrix(.00479 0 0 -.00479 287.411 157.75)"><use xlink:href="#q" data-c="2C" style="fill:#b56;stroke:none"/></g><g data-mml-node="mfrac" style="fill:#ff2a2a"><g data-mml-node="mrow" style="fill:#ff2a2a"><g data-mml-node="mi" style="fill:#ff2a2a" transform="matrix(.00479 0 0 -.00479 292.122 154.512)"><use xlink:href="#r" data-c="1D715" style="fill:#b56;stroke:none"/></g><g data-mml-node="mi" style="fill:#ff2a2a" transform="matrix(.00479 0 0 -.00479 294.832 154.512)"><use xlink:href="#p" data-c="1D466" style="fill:#b56;stroke:none"/></g></g><g data-mml-node="mrow" style="fill:#ff2a2a"><g data-mml-node="mi" style="fill:#ff2a2a" transform="matrix(.00479 0 0 -.00479 291.925 161.035)"><use xlink:href="#r" data-c="1D715" style="fill:#b56;stroke:none"/></g><g data-mml-node="mi" style="fill:#ff2a2a" transform="matrix(.00479 0 0 -.00479 294.636 161.035)"><use xlink:href="#s" data-c="1D465" style="fill:#b56;stroke:none"/></g></g><path stroke="none" d="M120 220h1338v60H120z" style="fill:#b56;stroke:none" transform="matrix(.00479 0 0 -.00479 290.872 157.75)"/></g><g data-mml-node="mo" style="fill:#ff2a2a" transform="matrix(.00479 0 0 -.00479 299.758 157.75)"><use xlink:href="#t" data-c="3D" style="fill:#b56;stroke:none"/></g><g data-mml-node="mn" style="fill:#ff2a2a" transform="matrix(.00479 0 0 -.00479 304.814 157.75)"><use xlink:href="#u" data-c="30" style="fill:#b56;stroke:none"/></g><g data-mml-node="mo" style="fill:#ff2a2a" transform="matrix(.00479 0 0 -.00479 307.209 157.752)"><use xlink:href="#v" data-c="7D" style="fill:#b56;stroke:none"/></g></g><use xlink:href="#w" data-c="1D465" style="fill:#000;stroke:#000;stroke-width:0" transform="matrix(.00748 0 0 -.00748 208.115 175.55)"/><use xlink:href="#x" data-c="1D466" style="fill:#000;stroke:#000;stroke-width:0" transform="matrix(.00748 0 0 -.00748 301.44 174.94)"/><g data-mml-node="mrow" style="fill:#ff2a2a;stroke:#000;stroke-width:0"><g data-mml-node="mo" style="fill:#ff2a2a" transform="matrix(.00479 0 0 -.00479 224.942 111.842)"><use xlink:href="#y" data-c="7B" style="fill:#b56;stroke:none"/></g><g data-mjx-texclass="ORD" data-mml-node="TeXAtom" style="fill:#ff2a2a"><g data-mml-node="mstyle" style="fill:#ff2a2a"><g data-mml-node="mi" style="fill:#ff2a2a" transform="matrix(.00575 0 0 -.00575 228.534 111.84)"><use xlink:href="#z" data-c="1D453" style="fill:#b56;stroke:none"/></g><g data-mml-node="mrow" style="fill:#ff2a2a"><g data-mml-node="mo" style="fill:#ff2a2a" transform="matrix(.00575 0 0 -.00575 232.652 111.84)"><use xlink:href="#A" data-c="28" style="fill:#b56;stroke:none"/></g><g data-mml-node="mi" style="fill:#ff2a2a" transform="matrix(.00575 0 0 -.00575 234.888 111.84)"><use xlink:href="#B" data-c="1D454" style="fill:#b56;stroke:none"/></g><g data-mml-node="mrow" style="fill:#ff2a2a"><g data-mml-node="mo" style="fill:#ff2a2a" transform="matrix(.00575 0 0 -.00575 238.587 111.84)"><use xlink:href="#A" data-c="28" style="fill:#b56;stroke:none"/></g><g data-mml-node="mi" style="fill:#ff2a2a" transform="matrix(.00575 0 0 -.00575 240.822 111.84)"><use xlink:href="#C" data-c="1D465" style="fill:#b56;stroke:none"/></g><g data-mml-node="mo" style="fill:#ff2a2a" transform="matrix(.00575 0 0 -.00575 244.11 111.84)"><use xlink:href="#D" data-c="2C" style="fill:#b56;stroke:none"/></g><g data-mml-node="mi" style="fill:#ff2a2a" transform="matrix(.00575 0 0 -.00575 246.665 111.84)"><use xlink:href="#E" data-c="1D466" style="fill:#b56;stroke:none"/></g><g data-mml-node="mo" style="fill:#ff2a2a" transform="matrix(.00575 0 0 -.00575 249.48 111.84)"><use xlink:href="#F" data-c="29" style="fill:#b56;stroke:none"/></g></g><g data-mml-node="mo" style="fill:#ff2a2a" transform="matrix(.00575 0 0 -.00575 251.715 111.84)"><use xlink:href="#F" data-c="29" style="fill:#b56;stroke:none"/></g></g></g></g><g data-mml-node="mo" style="fill:#ff2a2a" transform="matrix(.00479 0 0 -.00479 253.95 111.84)"><use xlink:href="#D" data-c="2C" style="fill:#b56;stroke:none"/></g><g data-mml-node="mfrac" style="fill:#ff2a2a"><g data-mml-node="mrow" style="fill:#ff2a2a"><g data-mml-node="mi" style="fill:#ff2a2a" transform="matrix(.00479 0 0 -.00479 258.518 108.603)"><use xlink:href="#G" data-c="1D715" style="fill:#b56;stroke:none"/></g><g data-mml-node="mi" style="fill:#ff2a2a" transform="matrix(.00479 0 0 -.00479 261.228 108.603)"><use xlink:href="#z" data-c="1D453" style="fill:#b56;stroke:none"/></g></g><g data-mml-node="mrow" style="fill:#ff2a2a"><g data-mml-node="mi" style="fill:#ff2a2a" transform="matrix(.00479 0 0 -.00479 258.465 115.125)"><use xlink:href="#G" data-c="1D715" style="fill:#b56;stroke:none"/></g><g data-mml-node="mi" style="fill:#ff2a2a" transform="matrix(.00479 0 0 -.00479 261.176 115.125)"><use xlink:href="#C" data-c="1D465" style="fill:#b56;stroke:none"/></g></g><path stroke="none" d="M120 220h1338v60H120z" style="fill:#b56;stroke:none" transform="matrix(.00479 0 0 -.00479 257.412 111.84)"/></g><g data-mml-node="mo" style="fill:#ff2a2a" transform="matrix(.00479 0 0 -.00479 266.298 111.84)"><use xlink:href="#H" data-c="3D" style="fill:#b56;stroke:none"/></g><g data-mml-node="mfrac" style="fill:#ff2a2a"><g data-mml-node="mrow" style="fill:#ff2a2a"><g data-mml-node="mi" style="fill:#ff2a2a" transform="matrix(.00479 0 0 -.00479 272.408 108.603)"><use xlink:href="#G" data-c="1D715" style="fill:#b56;stroke:none"/></g><g data-mml-node="mi" style="fill:#ff2a2a" transform="matrix(.00479 0 0 -.00479 275.118 108.603)"><use xlink:href="#z" data-c="1D453" style="fill:#b56;stroke:none"/></g></g><g data-mml-node="mrow" style="fill:#ff2a2a"><g data-mml-node="mi" style="fill:#ff2a2a" transform="matrix(.00479 0 0 -.00479 272.583 115.125)"><use xlink:href="#G" data-c="1D715" style="fill:#b56;stroke:none"/></g><g data-mml-node="mi" style="fill:#ff2a2a" transform="matrix(.00479 0 0 -.00479 275.293 115.125)"><use xlink:href="#B" data-c="1D454" style="fill:#b56;stroke:none"/></g></g><path stroke="none" d="M120 220h1316v60H120z" style="fill:#b56;stroke:none" transform="matrix(.00479 0 0 -.00479 271.354 111.84)"/></g><g data-mml-node="mo" style="fill:#ff2a2a" transform="matrix(.00479 0 0 -.00479 279.87 111.84)"><use xlink:href="#I" data-c="22C5" style="fill:#b56;stroke:none"/></g><g data-mml-node="mfrac" style="fill:#ff2a2a"><g data-mml-node="mrow" style="fill:#ff2a2a"><g data-mml-node="mi" style="fill:#ff2a2a" transform="matrix(.00479 0 0 -.00479 283.547 108.603)"><use xlink:href="#G" data-c="1D715" style="fill:#b56;stroke:none"/></g><g data-mml-node="mi" style="fill:#ff2a2a" transform="matrix(.00479 0 0 -.00479 286.257 108.603)"><use xlink:href="#B" data-c="1D454" style="fill:#b56;stroke:none"/></g></g><g data-mml-node="mrow" style="fill:#ff2a2a"><g data-mml-node="mi" style="fill:#ff2a2a" transform="matrix(.00479 0 0 -.00479 283.32 115.125)"><use xlink:href="#G" data-c="1D715" style="fill:#b56;stroke:none"/></g><g data-mml-node="mi" style="fill:#ff2a2a" transform="matrix(.00479 0 0 -.00479 286.03 115.125)"><use xlink:href="#C" data-c="1D465" style="fill:#b56;stroke:none"/></g></g><path stroke="none" d="M120 220h1338v60H120z" style="fill:#b56;stroke:none" transform="matrix(.00479 0 0 -.00479 282.266 111.84)"/></g><g data-mml-node="mo" style="fill:#ff2a2a" transform="matrix(.00479 0 0 -.00479 289.822 111.842)"><use xlink:href="#J" data-c="7D" style="fill:#b56;stroke:none"/></g></g><g data-mjx-texclass="ORD" data-mml-node="TeXAtom" style="fill:#000;stroke:#000;stroke-width:0"><g data-mml-node="mstyle"><use xlink:href="#z" data-c="1D453" data-mml-node="mi" transform="matrix(.00718 0 0 -.00718 243.885 130.833)"/><g data-mml-node="mrow"><use xlink:href="#A" data-c="28" data-mml-node="mo" transform="matrix(.00718 0 0 -.00718 249.033 130.833)"/><use xlink:href="#B" data-c="1D454" data-mml-node="mi" transform="matrix(.00718 0 0 -.00718 251.827 130.833)"/><g data-mml-node="mrow"><use xlink:href="#A" data-c="28" data-mml-node="mo" transform="matrix(.00718 0 0 -.00718 256.451 130.833)"/><use xlink:href="#C" data-c="1D465" data-mml-node="mi" transform="matrix(.00718 0 0 -.00718 259.245 130.833)"/><use xlink:href="#D" data-c="2C" data-mml-node="mo" transform="matrix(.00718 0 0 -.00718 263.354 130.833)"/><use xlink:href="#E" data-c="1D466" data-mml-node="mi" transform="matrix(.00718 0 0 -.00718 266.549 130.833)"/><use xlink:href="#F" data-c="29" data-mml-node="mo" transform="matrix(.00718 0 0 -.00718 270.068 130.833)"/></g><use xlink:href="#F" data-c="29" data-mml-node="mo" transform="matrix(.00718 0 0 -.00718 272.862 130.833)"/></g></g></g><g stroke="none" data-mml-node="math" style="fill:#000;stroke:#000;stroke-width:0"><path d="M252.55 156.24q-.101.088-.299.19t-.415.102q-.428 0-.687-.306-.258-.307-.265-.783 0-.714.524-1.313t1.163-.606q.32 0 .592.327l.02-.027q.014-.02.034-.041.02-.02.062-.054.04-.034.088-.048t.109-.02q.095 0 .156.06.062.062.069.13 0 .102-.388 1.647t-.408 1.578q-.123.367-.524.605-.402.239-.919.245-.96 0-.96-.462 0-.177.123-.313t.313-.136q.102 0 .19.061.09.061.096.21 0 .069-.014.13-.013.061-.047.095t-.055.068-.047.055l-.014.013h.007q.068.02.408.02.259 0 .408-.08.157-.076.293-.225t.19-.32q.041-.13.11-.422.088-.326.088-.38m.497-1.94-.027-.075q-.02-.075-.034-.102-.013-.027-.04-.095t-.069-.095q-.04-.028-.088-.075-.048-.048-.123-.061-.074-.014-.15-.02-.299 0-.578.36-.204.265-.34.81-.136.544-.136.789 0 .537.422.537.381 0 .748-.476l.055-.068z" data-mml-node="mi"/><g data-mml-node="mrow"><path d="M255.454 154.83q0-.469.068-.89t.156-.728q.089-.307.252-.6.163-.292.259-.455.095-.163.285-.354t.225-.231.17-.143h.116q.095 0 .095.061 0 .02-.116.143-.115.123-.279.36-.163.239-.333.586t-.286.939-.116 1.313.116 1.306.28.946q.162.36.332.585t.286.36q.116.137.116.143 0 .062-.102.062h-.109l-.19-.164q-.64-.578-.933-1.442-.292-.864-.292-1.796" data-mml-node="mo"/><path d="M257.815 154.565q.047-.285.367-.66.32-.374.79-.38.237 0 .435.122.197.122.292.306.286-.429.687-.429.252 0 .436.15t.19.402q0 .197-.095.32-.095.122-.184.149-.088.027-.156.027-.13 0-.211-.075-.082-.074-.082-.197 0-.313.34-.429-.074-.088-.272-.088-.088 0-.129.014-.258.108-.38.449-.41 1.503-.41 1.755 0 .19.11.272.109.082.238.082.252 0 .497-.225.245-.224.333-.55.02-.069.04-.076.021-.006.11-.013h.027q.102 0 .102.054 0 .007-.014.075-.109.388-.422.687-.312.3-.728.3-.476 0-.72-.43-.28.423-.64.423h-.041q-.333 0-.476-.177t-.15-.374q0-.218.13-.354.129-.136.305-.136.293 0 .293.286 0 .136-.082.238-.081.102-.156.136t-.089.034l-.02.007q0 .006.04.027.042.02.11.047.068.028.129.02.245 0 .422-.305.061-.11.156-.463.096-.354.19-.735.096-.38.11-.449.034-.184.034-.265 0-.19-.102-.272t-.232-.082q-.272 0-.51.218-.238.217-.333.558-.014.06-.034.068-.02.006-.11.013h-.095q-.04-.04-.04-.075" data-mml-node="mi"/><path d="M261.883 156.294v-.17q0-.17.11-.293.108-.123.292-.123.19 0 .34.17t.156.6q0 .237-.06.462-.062.224-.144.388-.081.163-.177.279-.095.115-.163.183t-.088.062q-.028 0-.089-.062-.061-.06-.061-.088t.075-.109.17-.204.177-.34.109-.497v-.082l-.007.007q-.014.007-.034.014t-.041.02-.061.014-.082.007q-.184 0-.3-.116Z" data-mml-node="mo"/><path d="M264.521 154.579q0-.095.102-.327.102-.23.327-.483.224-.251.503-.245.279 0 .45.157.17.156.176.435-.014.13-.02.143 0 .02-.11.313-.108.293-.224.66-.115.368-.109.585 0 .293.096.409.095.115.285.122.157 0 .293-.075t.21-.156.185-.225q0-.007.034-.136.034-.13.095-.401.061-.272.13-.504.258-1.02.285-1.068.088-.184.292-.184.089 0 .143.048.055.048.075.082t.014.06q0 .09-.334 1.43-.333 1.34-.38 1.47-.191.564-.66.897t-.94.34q-.306 0-.537-.15-.231-.149-.231-.448 0-.15.047-.252.048-.102.13-.15.081-.047.136-.068.054-.02.115-.02.3 0 .3.286 0 .136-.082.238t-.156.136-.089.034l-.02.007q.013.034.129.081.116.048.231.048h.055q.115 0 .177-.014.224-.061.415-.258.19-.198.292-.422.102-.225.157-.381.054-.157.054-.204l-.04.027q-.042.027-.13.075-.088.047-.177.081-.136.035-.265.035-.313 0-.551-.15t-.313-.483q-.007-.048-.007-.211 0-.388.238-1.014t.238-.796v-.095q0-.02-.027-.048-.027-.027-.075-.027h-.027q-.157 0-.286.13-.13.129-.204.278-.075.15-.116.286-.04.136-.054.15t-.109.013h-.095q-.041-.04-.041-.061" data-mml-node="mi"/><path d="m268.12 151.436.027-.007h.15l.19.163q.64.579.933 1.443.292.864.292 1.796 0 .462-.068.891t-.156.728q-.089.3-.252.599-.163.3-.259.456-.095.156-.279.347l-.217.224q-.034.034-.157.13l-.027.027h-.156q-.02 0-.035-.02-.013-.021-.02-.062l.075-.089q1.054-1.095 1.054-3.231t-1.054-3.232q-.068-.082-.075-.088 0-.055.034-.075" data-mml-node="mo"/></g></g></g><metadata><rdf:RDF><cc:Work><dc:creator><cc:Agent><dc:title>Remco de Boer</dc:title></cc:Agent></dc:creator><cc:license rdf:resource="http://creativecommons.org/licenses/by/4.0/"/></cc:Work><cc:License rdf:about="http://creativecommons.org/licenses/by/4.0/"><cc:permits rdf:resource="http://creativecommons.org/ns#Reproduction"/><cc:permits rdf:resource="http://creativecommons.org/ns#Distribution"/><cc:requires rdf:resource="http://creativecommons.org/ns#Notice"/><cc:requires rdf:resource="http://creativecommons.org/ns#Attribution"/><cc:permits rdf:resource="http://creativecommons.org/ns#DerivativeWorks"/></cc:License></rdf:RDF></metadata></svg>