<svg xmlns="http://www.w3.org/2000/svg" xmlns:cc="http://creativecommons.org/ns#" xmlns:dc="http://purl.org/dc/elements/1.1/" xmlns:inkscape="http://www.inkscape.org/namespaces/inkscape" xmlns:rdf="http://www.w3.org/1999/02/22-rdf-syntax-ns#" xmlns:sodipodi="http://sodipodi.sourceforge.net/DTD/sodipodi-0.dtd" xmlns:xlink="http://www.w3.org/1999/xlink" inkscape:version="1.4.2 (1:1.4.2+202505120737+ebf0e940d0)" sodipodi:docname="autodiff-reverse-mode.svg" xml:space="preserve" width="278.149" height="137.778" viewBox="0 0 73.594 36.454"><sodipodi:namedview inkscape:current-layer="svg81" inkscape:cx="138.918" inkscape:cy="68.909" inkscape:deskcolor="#d1d1d1" inkscape:pagecheckerboard="0" inkscape:pageopacity="0" inkscape:showpageshadow="2" inkscape:window-height="1371" inkscape:window-maximized="1" inkscape:window-width="2560" inkscape:window-x="0" inkscape:window-y="32" inkscape:zoom="3.185" bordercolor="#000000" borderopacity=".25" pagecolor="#ffffff"/><defs><path id="b" d="M202 508q-23 0-33 12t-11 27q0 10 6 30t21 47 45 51 71 35l32 5h12q33 0 39-1 63-11 105-53t60-93 17-111q0-95-47-217T402 53q-81-75-179-75-100 0-150 78-31 46-31 92v11q0 117 87 211t193 95q61 0 92-31t41-67l3 11q20 83 20 137 0 88-41 124t-93 37q-78 0-121-64 41-6 41-40 0-25-18-44t-44-20m228-202q0 66-29 94t-68 28q-63 0-111-46-25-28-39-59t-33-102q-18-72-18-105 0-95 100-95 12 0 18 1 77 13 124 90 15 25 35 84t21 110"/><path id="c" d="M118-162q2 0 6-2t11-3 12-1q13 0 24 13t16 29q10 27 34 153t46 240 22 115v3h-47q-47 0-50 2-4 3-4 10l7 28q2 5 8 5t47 1q48 0 48 1 0 2 9 50t12 58q37 165 146 165 37-2 61-22t24-53q0-36-21-52t-42-17q-44 0-44 42 0 19 11 33t24 21l9 5q-16 6-30 6-12 0-23-10t-15-28q-7-29-16-78t-16-83-7-36 55-2q45 0 52-1t11-6q1-4-2-17t-5-16q-2-5-9-5t-54-1h-56l-23-122Q301 15 282-47q-27-85-70-126-37-32-73-32-32 0-58 19t-26 54q0 37 21 54t42 17q44 0 44-42 0-19-11-33t-24-21z"/><path id="d" d="M311 43q-15-13-44-28T206 0q-63 0-101 45T66 160q0 105 77 193t171 89q47 0 87-48l3 4q2 3 5 6t9 8 13 7 16 3q14 0 23-9t10-19q0-15-57-242T363-80q-18-54-77-89t-135-36q-141 0-141 68 0 26 18 46t46 20q15 0 28-9t14-31q0-10-2-19t-7-14-8-10-7-8l-2-2h1q10-3 60-3 38 0 60 12 23 11 43 33t28 47q6 19 16 62 13 48 13 56m73 285-4 11q-3 11-5 15t-6 14-10 14-13 11-18 9-22 3q-44 0-85-53-30-39-50-119t-20-116q0-79 62-79 56 0 110 70l8 10z"/><path id="f" d="M311 43q-15-13-44-28T206 0q-63 0-101 45T66 160q0 105 77 193t171 89q47 0 87-48l3 4q2 3 5 6t9 8 13 7 16 3q14 0 23-9t10-19q0-15-57-242T363-80q-18-54-77-89t-135-36q-141 0-141 68 0 26 18 46t46 20q15 0 28-9t14-31q0-10-2-19t-7-14-8-10-7-8l-2-2h1q10-3 60-3 38 0 60 12 23 11 43 33t28 47q6 19 16 62 13 48 13 56m73 285-4 11q-3 11-5 15t-6 14-10 14-13 11-18 9-22 3q-44 0-85-53-30-39-50-119t-20-116q0-79 62-79 56 0 110 70l8 10z"/><path id="g" d="M94 250q0 69 10 131t23 107 37 88 38 67 42 52 33 34 25 21h17q14 0 14-9 0-3-17-21t-41-53-49-86-42-138-17-193 17-192 41-139 49-86 42-53 17-21q0-9-15-9h-16l-28 24q-94 85-137 212T94 250"/><path id="h" d="M52 289q7 42 54 97t116 56q35 0 64-18t43-45q42 63 101 63 37 0 64-22t28-59q0-29-14-47t-27-22-23-4q-19 0-31 11t-12 29q0 46 50 63-11 13-40 13-13 0-19-2-38-16-56-66-60-221-60-258 0-28 16-40t35-12q37 0 73 33t49 81q3 10 6 11t16 2h4q15 0 15-8 0-1-2-11-16-57-62-101T333-11q-70 0-106 63-41-62-94-62h-6q-49 0-70 26T35 71q0 32 19 52t45 20q43 0 43-42 0-20-12-35t-23-20-13-5l-3-1q0-1 6-4t16-7 19-3q36 0 62 45 9 16 23 68t28 108 16 66q5 27 5 39 0 28-15 40t-34 12q-40 0-75-32t-49-82q-2-9-5-10t-16-2H58q-6 6-6 11"/><path id="i" d="M78 35v25q0 25 16 43t43 18q28 0 50-25t23-88q0-35-9-68t-21-57-26-41-24-27-13-9q-4 0-13 9t-9 13 11 16 25 30 26 50 16 73V9l-1-1q-2-1-5-2t-6-3-9-2-12-1q-27 0-44 17Z"/><path id="j" d="M21 287q0 14 15 48t48 71 74 36q41 0 66-23t26-64q-2-19-3-21 0-3-16-46t-33-97-16-86q0-43 14-60t42-18q23 0 43 11t31 23 27 33q0 1 5 20t14 59 19 74q38 150 42 157 13 27 43 27 13 0 21-7t11-12 2-9q0-13-49-210T391-23q-28-83-97-132t-138-50q-45 0-79 22t-34 66q0 22 7 37t19 22 20 10 17 3q44 0 44-42 0-20-12-35t-23-20-13-5l-3-1q2-5 19-12t34-7h8q17 0 26 2 33 9 61 38t43 62 23 56 8 30l-6-4q-6-4-19-11T270-6q-20-5-39-5-46 0-81 22t-46 71q-1 7-1 31 0 57 35 149t35 117v14q0 3-4 7t-11 4h-4q-23 0-42-19t-30-41-17-42-8-22-16-2H27q-6 6-6 9"/><path id="k" d="m60 749 4 1h22l28-24q94-85 137-212t43-264q0-68-10-131T261 12t-37-88-38-67-41-51-32-33-23-19l-4-4H63q-3 0-5 3t-3 9q1 1 11 13Q221-64 221 250T66 725q-10 12-11 13 0 8 5 11"/><path id="l" d="M202 508q-23 0-33 12t-11 27q0 10 6 30t21 47 45 51 71 35l32 5h12q33 0 39-1 63-11 105-53t60-93 17-111q0-95-47-217T402 53q-81-75-179-75-100 0-150 78-31 46-31 92v11q0 117 87 211t193 95q61 0 92-31t41-67l3 11q20 83 20 137 0 88-41 124t-93 37q-78 0-121-64 41-6 41-40 0-25-18-44t-44-20m228-202q0 66-29 94t-68 28q-63 0-111-46-25-28-39-59t-33-102q-18-72-18-105 0-95 100-95 12 0 18 1 77 13 124 90 15 25 35 84t21 110"/><path id="m" d="M118-162q2 0 6-2t11-3 12-1q13 0 24 13t16 29q10 27 34 153t46 240 22 115v3h-47q-47 0-50 2-4 3-4 10l7 28q2 5 8 5t47 1q48 0 48 1 0 2 9 50t12 58q37 165 146 165 37-2 61-22t24-53q0-36-21-52t-42-17q-44 0-44 42 0 19 11 33t24 21l9 5q-16 6-30 6-12 0-23-10t-15-28q-7-29-16-78t-16-83-7-36 55-2q45 0 52-1t11-6q1-4-2-17t-5-16q-2-5-9-5t-54-1h-56l-23-122Q301 15 282-47q-27-85-70-126-37-32-73-32-32 0-58 19t-26 54q0 37 21 54t42 17q44 0 44-42 0-19-11-33t-24-21z"/><path id="n" d="M52 289q7 42 54 97t116 56q35 0 64-18t43-45q42 63 101 63 37 0 64-22t28-59q0-29-14-47t-27-22-23-4q-19 0-31 11t-12 29q0 46 50 63-11 13-40 13-13 0-19-2-38-16-56-66-60-221-60-258 0-28 16-40t35-12q37 0 73 33t49 81q3 10 6 11t16 2h4q15 0 15-8 0-1-2-11-16-57-62-101T333-11q-70 0-106 63-41-62-94-62h-6q-49 0-70 26T35 71q0 32 19 52t45 20q43 0 43-42 0-20-12-35t-23-20-13-5l-3-1q0-1 6-4t16-7 19-3q36 0 62 45 9 16 23 68t28 108 16 66q5 27 5 39 0 28-15 40t-34 12q-40 0-75-32t-49-82q-2-9-5-10t-16-2H58q-6 6-6 11"/><path id="o" d="M56 347q0 13 14 20h637q15-8 15-20 0-11-14-19l-318-1H72q-16 5-16 20m0-194q0 15 16 20h636q14-10 14-20 0-13-15-20H70q-14 7-14 20"/><path id="p" d="M311 43q-15-13-44-28T206 0q-63 0-101 45T66 160q0 105 77 193t171 89q47 0 87-48l3 4q2 3 5 6t9 8 13 7 16 3q14 0 23-9t10-19q0-15-57-242T363-80q-18-54-77-89t-135-36q-141 0-141 68 0 26 18 46t46 20q15 0 28-9t14-31q0-10-2-19t-7-14-8-10-7-8l-2-2h1q10-3 60-3 38 0 60 12 23 11 43 33t28 47q6 19 16 62 13 48 13 56m73 285-4 11q-3 11-5 15t-6 14-10 14-13 11-18 9-22 3q-44 0-85-53-30-39-50-119t-20-116q0-79 62-79 56 0 110 70l8 10z"/><path id="q" d="M78 250q0 24 17 42t43 18q24 0 42-16t19-43q0-25-17-43t-43-18-43 17-18 43"/><path id="r" d="M202 508q-23 0-33 12t-11 27q0 10 6 30t21 47 45 51 71 35l32 5h12q33 0 39-1 63-11 105-53t60-93 17-111q0-95-47-217T402 53q-81-75-179-75-100 0-150 78-31 46-31 92v11q0 117 87 211t193 95q61 0 92-31t41-67l3 11q20 83 20 137 0 88-41 124t-93 37q-78 0-121-64 41-6 41-40 0-25-18-44t-44-20m228-202q0 66-29 94t-68 28q-63 0-111-46-25-28-39-59t-33-102q-18-72-18-105 0-95 100-95 12 0 18 1 77 13 124 90 15 25 35 84t21 110"/><path id="s" d="M118-162q2 0 6-2t11-3 12-1q13 0 24 13t16 29q10 27 34 153t46 240 22 115v3h-47q-47 0-50 2-4 3-4 10l7 28q2 5 8 5t47 1q48 0 48 1 0 2 9 50t12 58q37 165 146 165 37-2 61-22t24-53q0-36-21-52t-42-17q-44 0-44 42 0 19 11 33t24 21l9 5q-16 6-30 6-12 0-23-10t-15-28q-7-29-16-78t-16-83-7-36 55-2q45 0 52-1t11-6q1-4-2-17t-5-16q-2-5-9-5t-54-1h-56l-23-122Q301 15 282-47q-27-85-70-126-37-32-73-32-32 0-58 19t-26 54q0 37 21 54t42 17q44 0 44-42 0-19-11-33t-24-21z"/><path id="t" d="M21 287q0 14 15 48t48 71 74 36q41 0 66-23t26-64q-2-19-3-21 0-3-16-46t-33-97-16-86q0-43 14-60t42-18q23 0 43 11t31 23 27 33q0 1 5 20t14 59 19 74q38 150 42 157 13 27 43 27 13 0 21-7t11-12 2-9q0-13-49-210T391-23q-28-83-97-132t-138-50q-45 0-79 22t-34 66q0 22 7 37t19 22 20 10 17 3q44 0 44-42 0-20-12-35t-23-20-13-5l-3-1q2-5 19-12t34-7h8q17 0 26 2 33 9 61 38t43 62 23 56 8 30l-6-4q-6-4-19-11T270-6q-20-5-39-5-46 0-81 22t-46 71q-1 7-1 31 0 57 35 149t35 117v14q0 3-4 7t-11 4h-4q-23 0-42-19t-30-41-17-42-8-22-16-2H27q-6 6-6 9"/><path id="u" d="M56 347q0 13 14 20h637q15-8 15-20 0-11-14-19l-318-1H72q-16 5-16 20m0-194q0 15 16 20h636q14-10 14-20 0-13-15-20H70q-14 7-14 20"/><path id="v" d="M311 43q-15-13-44-28T206 0q-63 0-101 45T66 160q0 105 77 193t171 89q47 0 87-48l3 4q2 3 5 6t9 8 13 7 16 3q14 0 23-9t10-19q0-15-57-242T363-80q-18-54-77-89t-135-36q-141 0-141 68 0 26 18 46t46 20q15 0 28-9t14-31q0-10-2-19t-7-14-8-10-7-8l-2-2h1q10-3 60-3 38 0 60 12 23 11 43 33t28 47q6 19 16 62 13 48 13 56m73 285-4 11q-3 11-5 15t-6 14-10 14-13 11-18 9-22 3q-44 0-85-53-30-39-50-119t-20-116q0-79 62-79 56 0 110 70l8 10z"/><path id="w" d="M78 250q0 24 17 42t43 18q24 0 42-16t19-43q0-25-17-43t-43-18-43 17-18 43"/><marker id="e" markerHeight="1" markerWidth="1" orient="auto-start-reverse" preserveAspectRatio="xMidYMid" refX="0" refY="0" style="overflow:visible" viewBox="0 0 1 1"><path d="M-2-4 9 0-2 4c2-2.33 2-5.66 0-8" style="fill:context-stroke;fill-rule:evenodd;stroke:none" transform="scale(.7)"/></marker><marker id="a" markerHeight="1" markerWidth="1" orient="auto-start-reverse" preserveAspectRatio="xMidYMid" refX="0" refY="0" style="overflow:visible" viewBox="0 0 1 1"><path d="m0 0 5-5-17.5 5L5 5Z" style="fill:context-stroke;fill-rule:evenodd;stroke:none" transform="scale(-.5)"/></marker></defs><g transform="translate(-77.34 -72.266)"><path d="M120.403 70.372c1.265 3.685 2.53 7.37 2.892 10.828.362 3.46-.177 6.692-1.171 9.342-.994 2.649-2.443 4.714-3.892 6.78" style="fill:none;fill-opacity:1;stroke:#b56;stroke-width:.599722;stroke-linecap:round;stroke-miterlimit:6;stroke-dasharray:none;marker-end:url(#a)" transform="rotate(-70.532 133.18 36.254)scale(.64)"/><path d="M121.639 75.556c.23.717.46 1.434.567 2.341a12.2 12.2 0 0 1-.03 2.913c-.126.908-.362 1.63-.598 2.351" style="fill:none;fill-opacity:1;stroke:#b56;stroke-width:.599722;stroke-linecap:round;stroke-miterlimit:6;stroke-dasharray:none;marker-end:url(#a)" transform="matrix(.64 0 0 .64 42.904 32.684)"/><rect width="23.294" height="7.58" x="102.986" y="73.252" rx="4.297" ry="4.297" style="fill:#ec6;stroke:#000;stroke-width:.383822;stroke-linecap:round;stroke-miterlimit:6;stroke-dasharray:none"/><g data-mml-node="mfrac" style="fill:#ff2a2a;stroke:#000;stroke-width:0"><g data-mml-node="mrow" style="fill:#ff2a2a"><g data-mml-node="mi" style="fill:#ff2a2a" transform="matrix(.00306 0 0 -.00306 122.9 83.894)"><use xlink:href="#b" data-c="1D715" style="fill:#b56;stroke:none"/></g><g data-mml-node="mi" style="fill:#ff2a2a" transform="matrix(.00306 0 0 -.00306 124.635 83.894)"><use xlink:href="#c" data-c="1D453" style="fill:#b56;stroke:none"/></g></g><g data-mml-node="mrow" style="fill:#ff2a2a"><g data-mml-node="mi" style="fill:#ff2a2a" transform="matrix(.00306 0 0 -.00306 123.012 88.068)"><use xlink:href="#b" data-c="1D715" style="fill:#b56;stroke:none"/></g><g data-mml-node="mi" style="fill:#ff2a2a" transform="matrix(.00306 0 0 -.00306 124.747 88.068)"><use xlink:href="#d" data-c="1D454" style="fill:#b56;stroke:none"/></g></g><path stroke="none" d="M120 220h1316v60H120z" style="fill:#b56;stroke:none" transform="matrix(.00306 0 0 -.00306 122.226 85.966)"/></g><path d="m71.926 108.508 28.016-10.625" style="fill:none;fill-opacity:1;stroke:#000;stroke-width:.599722;stroke-linecap:round;stroke-miterlimit:6;stroke-dasharray:none;marker-end:url(#e)" transform="matrix(.64 0 0 .64 41.089 32.578)"/><path d="M115.246 86.74v-7.556" style="fill:none;fill-opacity:1;stroke:#000;stroke-width:.599722;stroke-linecap:round;stroke-miterlimit:6;stroke-dasharray:none;marker-end:url(#e)" transform="matrix(.64 0 0 .64 41.089 32.578)"/><path d="m130.55 98.397 22.333 10.027" style="fill:none;fill-opacity:1;stroke:#000;stroke-width:.599722;stroke-linecap:round;stroke-miterlimit:6;stroke-dasharray:none;marker-start:url(#e)" transform="matrix(.64 0 0 .64 41.089 32.578)"/><path d="M137.054 117.475c-1.286-4.526-2.571-9.051-4.672-13.2-2.1-4.147-5.015-7.918-7.794-10.09s-5.421-2.747-8.064-3.32" style="fill:none;fill-opacity:1;stroke:#b56;stroke-width:.599722;stroke-linecap:round;stroke-miterlimit:6;stroke-dasharray:none;marker-end:url(#a)" transform="rotate(-70.532 109.282 70.049)scale(.64)"/><rect width="9.416" height="7.046" x="138.216" y="100.688" rx="5.254" ry="5.254" style="fill:#ec6;stroke:#000;stroke-width:.383822;stroke-linecap:round;stroke-miterlimit:6;stroke-dasharray:none"/><path d="M141.567 103.608q0-.067.071-.23.072-.162.23-.34.158-.177.355-.172.196 0 .316.11t.124.307q-.01.09-.014.1 0 .014-.077.22-.076.206-.158.465-.081.259-.076.412 0 .206.067.287.067.082.201.086.11 0 .206-.052.096-.053.148-.11.053-.058.13-.158l.024-.096q.024-.091.067-.283t.09-.354q.183-.719.202-.752.062-.13.206-.13.062 0 .1.034t.053.058q.014.023.01.043 0 .062-.235 1.005-.234.944-.268 1.035-.134.397-.464.632t-.661.24q-.216 0-.379-.106-.162-.105-.162-.316 0-.105.033-.177.034-.072.091-.105.058-.034.096-.048.038-.015.081-.015.211 0 .211.202 0 .095-.058.167-.057.072-.11.096-.052.024-.062.024l-.014.004q.01.024.09.057.082.034.163.034h.039q.081 0 .124-.01.158-.043.292-.182.135-.139.206-.297.072-.158.11-.268t.039-.144l-.029.02q-.029.018-.09.052-.063.033-.125.057-.096.024-.187.024-.22 0-.388-.105-.168-.106-.22-.34-.004-.034-.004-.149 0-.273.167-.713.168-.44.168-.56v-.068q0-.015-.02-.034-.018-.019-.052-.019h-.02q-.11 0-.2.091t-.144.197-.081.2q-.029.097-.039.106-.01.01-.076.01h-.067q-.029-.029-.029-.043z" style="fill:#000;stroke:#000;stroke-width:0"/><rect width="9.416" height="7.046" x="78.325" y="100.688" rx="5.254" ry="5.254" style="fill:#ec6;stroke:#000;stroke-width:.383822;stroke-linecap:round;stroke-miterlimit:6;stroke-dasharray:none"/><path d="M81.988 103.989q.033-.201.258-.465.225-.263.556-.268.167 0 .306.086.14.086.206.216.201-.302.484-.302.177 0 .306.105.13.106.135.283 0 .139-.068.225-.067.086-.129.105t-.11.02q-.091 0-.148-.053-.058-.053-.058-.14 0-.22.24-.3-.053-.063-.192-.063-.062 0-.091.01-.182.076-.268.316-.288 1.058-.288 1.236 0 .134.077.191.077.058.168.058.177 0 .35-.158.172-.158.234-.388.014-.048.029-.053.014-.004.076-.01h.02q.071 0 .071.038l-.01.053q-.076.273-.296.484t-.513.21q-.335 0-.507-.301-.197.297-.45.297h-.03q-.234 0-.335-.125-.1-.124-.105-.263 0-.154.091-.25.091-.095.216-.095.206 0 .206.201 0 .096-.058.168-.057.071-.11.095t-.062.024l-.015.004q0 .004.029.02.029.014.077.033t.09.014q.173 0 .298-.215.043-.077.11-.326t.134-.517.076-.316q.024-.13.024-.187 0-.134-.071-.192-.072-.057-.163-.057-.192 0-.36.153t-.234.393q-.01.043-.024.048-.014.004-.077.01h-.067q-.029-.029-.029-.053z" style="fill:#000;stroke:#000;stroke-width:0"/><g data-mjx-texclass="ORD" data-mml-node="TeXAtom" style="fill:#000;stroke:#000;stroke-width:0"><g stroke="none" data-mml-node="mstyle"><path d="M105.105 79.115q.01 0 .028.01.018.008.05.013.033.005.056.005.06 0 .11-.06t.074-.133q.046-.125.156-.704l.211-1.103.102-.529V76.6h-.217q-.216 0-.23-.009-.018-.014-.018-.046l.032-.128q.01-.023.037-.023l.216-.005q.22 0 .22-.005 0-.009.042-.23.042-.22.055-.266.17-.759.672-.759.17.01.28.101t.11.244q0 .166-.096.24-.097.073-.193.077-.202 0-.202-.193 0-.087.05-.152.05-.064.11-.096l.042-.023q-.074-.028-.138-.028-.055 0-.106.046t-.069.13q-.032.132-.073.358-.042.225-.074.381-.032.157-.032.166t.253.009q.207 0 .239.005.032.004.05.027.005.018-.009.078t-.023.074q-.009.023-.041.023l-.248.004h-.258l-.106.561q-.22 1.14-.308 1.425-.124.391-.321.58-.17.147-.336.147-.147 0-.267-.088-.12-.087-.12-.248 0-.17.097-.248t.193-.078q.203 0 .203.193 0 .087-.05.152-.051.064-.111.096z" data-mml-node="mi"/><g data-mml-node="mrow"><path d="M108.29 77.221q0-.317.046-.602t.106-.492.17-.405.174-.308.194-.239.151-.156.115-.097h.078q.065 0 .065.042 0 .014-.078.096-.079.083-.189.244t-.225.395-.193.635-.078.887.078.883.188.639.225.395.194.244.078.096q0 .042-.07.042h-.073l-.129-.11q-.432-.391-.63-.975-.197-.584-.197-1.214" data-mml-node="mo"/><path d="M111.076 78.173q-.07.06-.202.128-.134.07-.28.07-.29 0-.465-.208-.175-.206-.18-.528 0-.483.355-.887.354-.405.786-.41.216 0 .4.221l.013-.018q.01-.014.023-.028.014-.014.042-.037.027-.023.06-.032.032-.01.073-.014.064 0 .106.042.041.041.046.087 0 .069-.262 1.113-.262 1.043-.276 1.066-.083.248-.354.41-.271.16-.62.165-.649 0-.649-.313 0-.12.083-.211.083-.092.211-.092.07 0 .13.041.059.041.063.143 0 .046-.009.087t-.032.064-.037.046-.032.037l-.01.01h.005q.046.013.276.013.175 0 .276-.055.106-.05.198-.152.092-.1.129-.216.027-.087.073-.285.06-.22.06-.257m.335-1.31-.018-.051q-.014-.05-.023-.07-.01-.017-.027-.063-.019-.046-.046-.065-.028-.018-.06-.05-.032-.033-.083-.042-.05-.009-.101-.014-.202 0-.39.244-.139.18-.23.547-.093.368-.093.533 0 .364.285.364.258 0 .506-.322l.037-.046z" data-mml-node="mi"/><g data-mml-node="mrow"><path d="M113.038 77.221q0-.317.046-.602.045-.285.105-.492t.17-.405.175-.308q.064-.11.193-.239.129-.128.152-.156t.115-.097h.078q.064 0 .064.042 0 .014-.078.096-.078.083-.188.244t-.226.395-.193.635-.078.887.078.883.189.639.225.395.193.244.078.096q0 .042-.069.042h-.073l-.129-.11q-.432-.391-.63-.975-.197-.584-.197-1.214" data-mml-node="mo"/><path d="M114.633 77.042q.032-.193.248-.446t.533-.258q.161 0 .295.083t.197.207q.193-.29.465-.29.17 0 .294.101t.128.272q0 .133-.064.216t-.124.1q-.06.02-.106.02-.087 0-.142-.051t-.055-.134q0-.211.23-.29-.051-.059-.184-.059-.06 0-.088.01-.174.073-.257.303-.276 1.016-.276 1.186 0 .128.073.184.074.055.161.055.17 0 .336-.152.165-.152.225-.372.014-.046.028-.05t.073-.01h.019q.069 0 .069.037l-.01.05q-.073.262-.284.465-.212.202-.492.202-.322 0-.488-.29-.188.285-.432.285h-.027q-.226 0-.322-.12-.097-.119-.101-.252 0-.147.087-.24.087-.091.207-.091.198 0 .198.193 0 .092-.056.16-.055.07-.105.093t-.06.023l-.014.004q0 .005.028.019.027.014.073.032t.088.014q.165 0 .285-.207.041-.074.105-.313.065-.239.129-.496.064-.258.074-.304.023-.124.023-.179 0-.129-.07-.184-.068-.055-.156-.055-.184 0-.344.147-.161.147-.226.377-.009.042-.023.046-.014.005-.073.01h-.065q-.027-.028-.027-.051" data-mml-node="mi"/><path d="M117.382 78.21v-.115q0-.115.073-.198.074-.083.198-.083.129 0 .23.115t.106.405q0 .16-.042.312-.041.152-.096.262t-.12.189-.11.124-.06.041q-.018 0-.06-.041-.04-.042-.04-.06t.05-.073q.05-.056.115-.138.064-.083.12-.23.054-.147.073-.336v-.055l-.005.005-.023.009q-.014.004-.027.014-.014.009-.042.009-.027 0-.055.004-.124 0-.202-.078Z" data-mml-node="mo"/><path d="M119.164 77.05q0-.063.07-.22.068-.156.22-.326t.34-.166q.189 0 .304.106t.12.294q-.01.088-.015.097 0 .014-.073.211-.074.198-.152.446-.078.249-.074.396 0 .197.065.275.064.079.193.083.106 0 .198-.05t.142-.106.124-.152l.023-.092q.023-.087.065-.271.04-.184.087-.34.175-.69.193-.722.06-.124.198-.124.06 0 .096.032t.05.055.01.042q0 .06-.225.965-.226.906-.258.993-.128.382-.446.607-.317.225-.634.23-.207 0-.363-.101-.157-.101-.157-.304 0-.1.033-.17.032-.069.087-.101t.092-.046.078-.014q.202 0 .202.193 0 .092-.055.161-.055.07-.106.092-.05.023-.06.023l-.013.005q.01.023.087.055.078.032.157.032h.036q.078 0 .12-.01.152-.04.28-.174t.198-.285q.069-.152.106-.257t.036-.138l-.027.018q-.028.019-.087.05-.06.033-.12.056-.092.023-.18.023-.21 0-.372-.101-.16-.101-.211-.327-.005-.032-.005-.142 0-.262.161-.685t.161-.538v-.064q0-.014-.018-.033-.019-.018-.05-.018h-.02q-.105 0-.192.087-.088.088-.138.189t-.078.193-.037.101q-.01.01-.074.01h-.064q-.028-.028-.028-.042" data-mml-node="mi"/><path d="m121.596 74.927.019-.005h.101l.129.11q.432.391.63.975.197.584.197 1.214 0 .313-.046.602-.046.29-.106.492t-.17.405-.174.308-.189.234l-.147.152q-.023.023-.106.087l-.018.019h-.106q-.014 0-.023-.014-.01-.014-.014-.042.005-.004.05-.06.713-.74.713-2.183 0-1.444-.712-2.184l-.05-.06q0-.036.022-.05" data-mml-node="mo"/></g><path d="m123.384 74.927.019-.005h.101l.128.11q.433.391.63.975.198.584.198 1.214 0 .313-.046.602-.046.29-.106.492t-.17.405-.175.308-.188.234l-.147.152q-.023.023-.106.087l-.018.019h-.106q-.014 0-.023-.014-.01-.014-.014-.042.005-.004.05-.06.713-.74.713-2.183 0-1.444-.712-2.184l-.05-.06q0-.036.022-.05" data-mml-node="mo"/></g></g></g><rect width="15.821" height="8.007" x="106.936" y="88.091" rx="4.477" ry="4.477" style="fill:#69c;fill-opacity:1;stroke:#000;stroke-width:.383822;stroke-linecap:round;stroke-miterlimit:6;stroke-dasharray:none"/><g data-mml-node="math" style="fill:#000;stroke:#000;stroke-width:0"><use xlink:href="#f" data-c="1D454" data-mml-node="mi" transform="matrix(.00435 0 0 -.00435 108.608 93.317)"/><g data-mml-node="mrow"><use xlink:href="#g" data-c="28" data-mml-node="mo" transform="matrix(.00435 0 0 -.00435 111.411 93.317)"/><use xlink:href="#h" data-c="1D465" data-mml-node="mi" transform="matrix(.00435 0 0 -.00435 113.105 93.317)"/><use xlink:href="#i" data-c="2C" data-mml-node="mo" transform="matrix(.00435 0 0 -.00435 115.596 93.317)"/><use xlink:href="#j" data-c="1D466" data-mml-node="mi" transform="matrix(.00435 0 0 -.00435 117.532 93.317)"/><use xlink:href="#k" data-c="29" data-mml-node="mo" transform="matrix(.00435 0 0 -.00435 119.665 93.317)"/></g></g><g data-mml-node="math" style="fill:#ff2a2a;fill-opacity:1;stroke:#000;stroke-width:0"><g data-mml-node="mfrac" style="fill:#ff2a2a;fill-opacity:1"><g data-mml-node="mrow" style="fill:#ff2a2a;fill-opacity:1"><g data-mml-node="mi" style="fill:#ff2a2a;fill-opacity:1" transform="matrix(.00306 0 0 -.00306 79.614 86.594)"><use xlink:href="#l" data-c="1D715" style="fill:#b56;fill-opacity:1;stroke:none"/></g><g data-mml-node="mi" style="fill:#ff2a2a;fill-opacity:1" transform="matrix(.00306 0 0 -.00306 81.349 86.594)"><use xlink:href="#m" data-c="1D453" style="fill:#b56;fill-opacity:1;stroke:none"/></g></g><g data-mml-node="mrow" style="fill:#ff2a2a;fill-opacity:1"><g data-mml-node="mi" style="fill:#ff2a2a;fill-opacity:1" transform="matrix(.00306 0 0 -.00306 79.58 90.768)"><use xlink:href="#l" data-c="1D715" style="fill:#b56;fill-opacity:1;stroke:none"/></g><g data-mml-node="mi" style="fill:#ff2a2a;fill-opacity:1" transform="matrix(.00306 0 0 -.00306 81.315 90.768)"><use xlink:href="#n" data-c="1D465" style="fill:#b56;fill-opacity:1;stroke:none"/></g></g><path stroke="none" d="M120 220h1338v60H120z" style="fill:#b56;fill-opacity:1;stroke:none" transform="matrix(.00306 0 0 -.00306 78.906 88.665)"/></g><g data-mml-node="mo" style="fill:#ff2a2a;fill-opacity:1" transform="matrix(.00306 0 0 -.00306 84.594 88.665)"><use xlink:href="#o" data-c="3D" style="fill:#b56;fill-opacity:1;stroke:none"/></g><g data-mml-node="mfrac" style="fill:#ff2a2a;fill-opacity:1"><g data-mml-node="mrow" style="fill:#ff2a2a;fill-opacity:1"><g data-mml-node="mi" style="fill:#ff2a2a;fill-opacity:1" transform="matrix(.00306 0 0 -.00306 88.504 86.594)"><use xlink:href="#l" data-c="1D715" style="fill:#b56;fill-opacity:1;stroke:none"/></g><g data-mml-node="mi" style="fill:#ff2a2a;fill-opacity:1" transform="matrix(.00306 0 0 -.00306 90.239 86.594)"><use xlink:href="#m" data-c="1D453" style="fill:#b56;fill-opacity:1;stroke:none"/></g></g><g data-mml-node="mrow" style="fill:#ff2a2a;fill-opacity:1"><g data-mml-node="mi" style="fill:#ff2a2a;fill-opacity:1" transform="matrix(.00306 0 0 -.00306 88.616 90.768)"><use xlink:href="#l" data-c="1D715" style="fill:#b56;fill-opacity:1;stroke:none"/></g><g data-mml-node="mi" style="fill:#ff2a2a;fill-opacity:1" transform="matrix(.00306 0 0 -.00306 90.35 90.768)"><use xlink:href="#p" data-c="1D454" style="fill:#b56;fill-opacity:1;stroke:none"/></g></g><path stroke="none" d="M120 220h1316v60H120z" style="fill:#b56;fill-opacity:1;stroke:none" transform="matrix(.00306 0 0 -.00306 87.83 88.665)"/></g><g data-mml-node="mo" style="fill:#ff2a2a;fill-opacity:1" transform="matrix(.00306 0 0 -.00306 93.28 88.665)"><use xlink:href="#q" data-c="22C5" style="fill:#b56;fill-opacity:1;stroke:none"/></g><g data-mml-node="mfrac" style="fill:#ff2a2a;fill-opacity:1"><g data-mml-node="mrow" style="fill:#ff2a2a;fill-opacity:1"><g data-mml-node="mi" style="fill:#ff2a2a;fill-opacity:1" transform="matrix(.00306 0 0 -.00306 95.632 86.594)"><use xlink:href="#l" data-c="1D715" style="fill:#b56;fill-opacity:1;stroke:none"/></g><g data-mml-node="mi" style="fill:#ff2a2a;fill-opacity:1" transform="matrix(.00306 0 0 -.00306 97.367 86.594)"><use xlink:href="#p" data-c="1D454" style="fill:#b56;fill-opacity:1;stroke:none"/></g></g><g data-mml-node="mrow" style="fill:#ff2a2a;fill-opacity:1"><g data-mml-node="mi" style="fill:#ff2a2a;fill-opacity:1" transform="matrix(.00306 0 0 -.00306 95.487 90.768)"><use xlink:href="#l" data-c="1D715" style="fill:#b56;fill-opacity:1;stroke:none"/></g><g data-mml-node="mi" style="fill:#ff2a2a;fill-opacity:1" transform="matrix(.00306 0 0 -.00306 97.222 90.768)"><use xlink:href="#n" data-c="1D465" style="fill:#b56;fill-opacity:1;stroke:none"/></g></g><path stroke="none" d="M120 220h1338v60H120z" style="fill:#b56;fill-opacity:1;stroke:none" transform="matrix(.00306 0 0 -.00306 94.813 88.665)"/></g></g><g data-mml-node="math" style="fill:#ff2a2a;fill-opacity:1;stroke:#000;stroke-width:0"><g data-mml-node="mfrac" style="fill:#ff2a2a;fill-opacity:1"><g data-mml-node="mrow" style="fill:#ff2a2a;fill-opacity:1"><g data-mml-node="mi" style="fill:#ff2a2a;fill-opacity:1" transform="matrix(.00306 0 0 -.00306 130.757 87.426)"><use xlink:href="#r" data-c="1D715" style="fill:#b56;fill-opacity:1;stroke:none"/></g><g data-mml-node="mi" style="fill:#ff2a2a;fill-opacity:1" transform="matrix(.00306 0 0 -.00306 132.492 87.426)"><use xlink:href="#s" data-c="1D453" style="fill:#b56;fill-opacity:1;stroke:none"/></g></g><g data-mml-node="mrow" style="fill:#ff2a2a;fill-opacity:1"><g data-mml-node="mi" style="fill:#ff2a2a;fill-opacity:1" transform="matrix(.00306 0 0 -.00306 130.849 91.6)"><use xlink:href="#r" data-c="1D715" style="fill:#b56;fill-opacity:1;stroke:none"/></g><g data-mml-node="mi" style="fill:#ff2a2a;fill-opacity:1" transform="matrix(.00306 0 0 -.00306 132.584 91.6)"><use xlink:href="#t" data-c="1D466" style="fill:#b56;fill-opacity:1;stroke:none"/></g></g><path stroke="none" d="M120 220h1316v60H120z" style="fill:#b56;fill-opacity:1;stroke:none" transform="matrix(.00306 0 0 -.00306 130.083 89.498)"/></g><g data-mml-node="mo" style="fill:#ff2a2a;fill-opacity:1" transform="matrix(.00306 0 0 -.00306 135.703 89.498)"><use xlink:href="#u" data-c="3D" style="fill:#b56;fill-opacity:1;stroke:none"/></g><g data-mml-node="mfrac" style="fill:#ff2a2a;fill-opacity:1"><g data-mml-node="mrow" style="fill:#ff2a2a;fill-opacity:1"><g data-mml-node="mi" style="fill:#ff2a2a;fill-opacity:1" transform="matrix(.00306 0 0 -.00306 139.613 87.426)"><use xlink:href="#r" data-c="1D715" style="fill:#b56;fill-opacity:1;stroke:none"/></g><g data-mml-node="mi" style="fill:#ff2a2a;fill-opacity:1" transform="matrix(.00306 0 0 -.00306 141.348 87.426)"><use xlink:href="#s" data-c="1D453" style="fill:#b56;fill-opacity:1;stroke:none"/></g></g><g data-mml-node="mrow" style="fill:#ff2a2a;fill-opacity:1"><g data-mml-node="mi" style="fill:#ff2a2a;fill-opacity:1" transform="matrix(.00306 0 0 -.00306 139.725 91.6)"><use xlink:href="#r" data-c="1D715" style="fill:#b56;fill-opacity:1;stroke:none"/></g><g data-mml-node="mi" style="fill:#ff2a2a;fill-opacity:1" transform="matrix(.00306 0 0 -.00306 141.46 91.6)"><use xlink:href="#v" data-c="1D454" style="fill:#b56;fill-opacity:1;stroke:none"/></g></g><path stroke="none" d="M120 220h1316v60H120z" style="fill:#b56;fill-opacity:1;stroke:none" transform="matrix(.00306 0 0 -.00306 138.939 89.498)"/></g><g data-mml-node="mo" style="fill:#ff2a2a;fill-opacity:1" transform="matrix(.00306 0 0 -.00306 144.389 89.498)"><use xlink:href="#w" data-c="22C5" style="fill:#b56;fill-opacity:1;stroke:none"/></g><g data-mml-node="mfrac" style="fill:#ff2a2a;fill-opacity:1"><g data-mml-node="mrow" style="fill:#ff2a2a;fill-opacity:1"><g data-mml-node="mi" style="fill:#ff2a2a;fill-opacity:1" transform="matrix(.00306 0 0 -.00306 146.616 87.426)"><use xlink:href="#r" data-c="1D715" style="fill:#b56;fill-opacity:1;stroke:none"/></g><g data-mml-node="mi" style="fill:#ff2a2a;fill-opacity:1" transform="matrix(.00306 0 0 -.00306 148.35 87.426)"><use xlink:href="#v" data-c="1D454" style="fill:#b56;fill-opacity:1;stroke:none"/></g></g><g data-mml-node="mrow" style="fill:#ff2a2a;fill-opacity:1"><g data-mml-node="mi" style="fill:#ff2a2a;fill-opacity:1" transform="matrix(.00306 0 0 -.00306 146.596 91.6)"><use xlink:href="#r" data-c="1D715" style="fill:#b56;fill-opacity:1;stroke:none"/></g><g data-mml-node="mi" style="fill:#ff2a2a;fill-opacity:1" transform="matrix(.00306 0 0 -.00306 148.33 91.6)"><use xlink:href="#t" data-c="1D466" style="fill:#b56;fill-opacity:1;stroke:none"/></g></g><path stroke="none" d="M120 220h1256v60H120z" style="fill:#b56;fill-opacity:1;stroke:none" transform="matrix(.00306 0 0 -.00306 145.922 89.498)"/></g></g></g><metadata><rdf:RDF><cc:Work><dc:creator><cc:Agent><dc:title>Remco de Boer</dc:title></cc:Agent></dc:creator><cc:license rdf:resource="http://creativecommons.org/licenses/by/4.0/"/></cc:Work><cc:License rdf:about="http://creativecommons.org/licenses/by/4.0/"><cc:permits rdf:resource="http://creativecommons.org/ns#Reproduction"/><cc:permits rdf:resource="http://creativecommons.org/ns#Distribution"/><cc:requires rdf:resource="http://creativecommons.org/ns#Notice"/><cc:requires rdf:resource="http://creativecommons.org/ns#Attribution"/><cc:permits rdf:resource="http://creativecommons.org/ns#DerivativeWorks"/></cc:License></rdf:RDF></metadata></svg>