<svg xmlns="http://www.w3.org/2000/svg" xmlns:cc="http://creativecommons.org/ns#" xmlns:dc="http://purl.org/dc/elements/1.1/" xmlns:inkscape="http://www.inkscape.org/namespaces/inkscape" xmlns:rdf="http://www.w3.org/1999/02/22-rdf-syntax-ns#" xmlns:sodipodi="http://sodipodi.sourceforge.net/DTD/sodipodi-0.dtd" xmlns:xlink="http://www.w3.org/1999/xlink" inkscape:version="1.4.2 (1:1.4.2+202505120737+ebf0e940d0)" sodipodi:docname="cpu.svg" xml:space="preserve" width="237.219" height="196.347" viewBox="0 0 62.764 51.95"><sodipodi:namedview inkscape:current-layer="svg46" inkscape:cx="118.476" inkscape:cy="98.127" inkscape:deskcolor="#d1d1d1" inkscape:pagecheckerboard="0" inkscape:pageopacity="0" inkscape:showpageshadow="2" inkscape:window-height="1371" inkscape:window-maximized="1" inkscape:window-width="2560" inkscape:window-x="0" inkscape:window-y="32" inkscape:zoom="3.735" bordercolor="#000000" borderopacity=".25" pagecolor="#ffffff"/><defs><path id="b" d="M56 342q0 86 33 158t85 115 109 66 108 24h9q6 0 8-1 91 0 161-68l13-12 30 39q27 37 31 41h4q3 0 6 1h4q3 0 9-6V419l-6-6h-34q-6 6-7 17-9 82-48 142t-95 79q-19 7-50 7-104 0-174-70-79-79-79-246 0-121 38-191 21-40 52-67t65-39 56-16 44-5q89 0 143 69t55 151q0 7 6 13h28l6-6v-15q-5-103-76-180T403-21Q262-21 159 83T56 342"/><path id="c" d="M137 305h-22q-22 0-37 15t-15 39q0 35 34 62t121 27q73 0 118-32t60-76q5-14 5-31t1-115v-70q0-48 5-66t21-18q15 0 20 16t5 53v36h40v-39q-1-40-3-47-9-30-35-47T400-6t-47 18-24 42v4l-2-3q-2-3-5-6t-8-9-12-11-15-12-18-11-22-8-26-6-31-3q-60 0-108 31t-48 87q0 21 7 40t27 41 48 37 78 28 110 15h14v22q0 34-6 50-22 71-97 71-18 0-34-1t-25-4-8-3q22-15 22-44 0-25-16-39zm-11-199q0-31 24-55t59-25q38 0 67 23t39 60q2 7 3 66 0 58-1 58-8 0-21-1t-45-9-58-20-46-37-21-60"/><path id="d" d="M370 305h-21q-21 0-36 15t-16 38q0 23 15 38 5 5 5 6t-10 2q-26 4-49 4-49 0-80-32-47-47-47-157 0-82 31-129 41-61 110-61 41 0 66 26t36 62q2 8 5 10t16 2h14q6-6 6-9 0-4-4-16t-16-33-29-38-48-31-69-13q-86 0-150 64T34 214q0 104 65 169t151 65 120-27 34-64q0-23-17-37z"/><path id="e" d="M41 46h14q39 0 47 14v107q0 24 1 50t0 55 0 57v153q0 34-1 60t0 44 0 17q-3 19-14 25t-45 9H25v23q0 23 2 23l10 1q10 1 29 2t37 2q17 1 37 2t30 3 11 1h3V367q60 75 144 75 123 0 135-113 1-7 1-139v-86q0-38 2-45t11-10q21-3 49-3h16V0h-8l-24 1q-23 1-50 1t-38 1Q319 3 310 0h-8v46h16q61 0 61 16 1 2 1 138-1 135-2 143-6 28-20 42t-24 17-26 2q-45 0-79-34-27-27-34-55t-8-83V108q0-30 1-40t3-13 9-6q21-3 49-3h16V0h-8l-23 1q-24 1-51 1t-38 1Q42 3 33 0h-8v46z"/><path id="f" d="M28 218q0 55 20 100t50 73 65 42 66 15q53 0 91-18t58-50 28-64 9-71q0-7-7-14H126v-15q0-148 100-180 20-6 44-6 42 0 72 32 17 17 27 42l10 24q3 3 16 3h3q17 0 17-10 0-4-3-13-19-55-63-87t-99-32q-95 0-158 69T28 218m305 57q-11 128-95 136h-2q-8 0-16-1t-25-8-29-21-23-41-16-66v-7h206z"/><path id="g" d="M130 622q-7 7-11 9t-16 3-43 3H27v46h273q76 0 117-6t83-29q95-48 109-131 1-5 1-16 0-33-16-62t-38-47-45-31-39-18l-16-5q3-3 11-6 30-16 49-34t29-44 14-43 9-56 10-61q10-48 24-63t38-15h5q15 0 29 16t18 55q0 11 4 14t16 4 16-2 4-13q0-31-16-63t-44-43q-16-6-42-6-149 6-172 112-2 11-2 73t-7 83q-19 58-76 74l-10 2-66 1h-66V192l1-131q6-10 17-12t52-3h33V0h-11q-21 3-142 3Q59 3 38 0H27v46h33q42 1 51 3t19 12zm361-123v10q0 18-1 30t-9 31-19 31-38 22-62 13h-22q-20 0-36 1h-21q-45 0-49-9-3-4-3-136V360h58q101 0 145 18t55 78q2 11 2 43"/><path id="h" d="M255 0q-15 3-115 3Q48 3 39 0h-7v46h15q72 3 92 42 1 3 53 157t103 308 53 155q3 8 18 8h10q20-1 24-7 2-2 108-319L617 67q7-13 19-16t51-5h30V0h-9q-9 3-127 3-123 0-144-3h-10v46h13q70 0 70 18 0 2-24 74l-24 71H229l-20-59q-20-59-20-65 0-13 20-26t50-13h5V0Zm192 255L345 557 244 256q0-1 101-1z"/><path id="i" d="M132 622q-7 7-11 9t-16 3-43 3H29v46h106q86 0 97-1t17-7q1-1 105-277l104-274 104 274q104 276 106 277 3 6 15 7t98 1h106v-46h-33q-40-1-51-3t-18-12V61q6-10 17-12t52-3h33V0h-11q-21 3-140 3-131 0-140-3h-11v46h33q42 1 51 3t19 12v552l-1 19Q454 14 450 7q-4-6-20-6t-20 6q-1 2-118 309L176 624v-18q-1-18-1-63V356l1-270q11-36 85-40h17V0h-9q-15 3-115 3Q52 3 37 0h-8v46h17q32 2 52 10t24 13 10 17z"/><path id="j" d="M255 0q-15 3-115 3Q48 3 39 0h-7v46h15q72 3 92 42 1 3 53 157t103 308 53 155q3 8 18 8h10q20-1 24-7 2-2 108-319L617 67q7-13 19-16t51-5h30V0h-9q-9 3-127 3-123 0-144-3h-10v46h13q70 0 70 18 0 2-24 74l-24 71H229l-20-59q-20-59-20-65 0-13 20-26t50-13h5V0Zm192 255L345 557 244 256q0-1 101-1z"/><path id="k" d="M128 622q-7 7-11 9t-16 3-43 3H25v46h11q12-3 146-3 142 0 166 3h12v-46h-27q-60 0-75-2t-25-13l-1-280V129q0-72 5-77 6-5 76-5 71 0 97 6 60 17 88 57t38 111q0 5 1 17t3 23l2 11 20 1h20v-5q-2-3-14-131T554 5V0H25v46h33q42 1 51 3t19 12z"/><path id="l" d="M128 622q-7 7-11 9t-16 3-43 3H25v46h11q21-3 144-3 135 0 144 3h11v-46h-33q-40-1-51-3t-18-12l-1-204V291q0-102 8-146t40-78q45-43 109-43 65 0 117 40t65 119q4 23 4 227v188q-6 10-10 15t-24 14-52 10h-17v46h9q15-3 117-3t117 3h9v-46h-17q-73-4-85-39l-1-199q-1-205-4-219 0-1-2-9-20-88-84-140T389-22q-85 0-163 55t-96 159q-1 9-2 220z"/><path id="m" d="M56 342q0 86 33 158t85 115 109 66 108 24h9q6 0 8-1 91 0 161-68l13-12 30 39q27 37 31 41h4q3 0 6 1h4q3 0 9-6V419l-6-6h-34q-6 6-7 17-9 82-48 142t-95 79q-19 7-50 7-104 0-174-70-79-79-79-246 0-121 38-191 21-40 52-67t65-39 56-16 44-5q89 0 143 69t55 151q0 7 6 13h28l6-6v-15q-5-103-76-180T403-21Q262-21 159 83T56 342"/><path id="n" d="M28 214q0 95 65 164t157 70q90 0 155-68t66-165q0-95-64-160T250-10q-97 0-159 67T28 214M250 30q122 0 122 163v57q0 22-1 38t-7 38-16 36-31 28-49 20q-5 1-16 1-30 0-57-12-43-22-56-61t-13-92v-20q0-96 19-135 32-61 105-61"/><path id="o" d="M41 46h14q39 0 47 14v62q0 17 1 39t0 42v66q0 35-1 59v23q-3 19-14 25t-45 9H25v23q0 23 2 23l10 1q10 1 28 2t37 2q17 1 36 2t29 3 11 1h3v-40q0-38 1-38t5 5l12 15q8 10 19 18t29 19 38 16 51 5q114-4 127-113 1-7 1-139v-86q0-38 2-45t11-10q21-3 49-3h16V0h-8l-24 1q-23 1-50 1t-38 1Q319 3 310 0h-8v46h16q61 0 61 16 1 2 1 138-1 135-2 143-6 28-20 42t-24 17-26 2q-45 0-79-34-27-27-34-55t-8-83V108q0-30 1-40t3-13 9-6q21-3 49-3h16V0h-8l-23 1q-24 1-51 1t-38 1Q42 3 33 0h-8v46z"/><path id="p" d="M27 422q53 4 82 56t32 122v15h40V431h135v-46H181V241q1-125 1-141t7-32q14-39 49-39 44 0 54 71 1 8 1 46v35h40v-47q0-77-42-117-27-27-70-27-34 0-59 12t-38 31-19 35-7 32q-1 7-1 148v137H18v37z"/><path id="q" d="M36 46h14q39 0 47 14v31q0 14 1 31t0 39 0 42v125l-1 23q-3 19-14 25t-45 9H20v23q0 23 2 23l10 1q10 1 28 2l36 2q16 1 35 2t29 3 11 1h3v-69q39 68 97 68h6q45 0 66-22t21-46q0-21-13-36t-38-15-37 16-13 34q0 9 2 16t5 12l3 5q-2 2-23-4-16-8-24-15-47-45-47-179V101q0-12 1-20t0-15v-5q1-2 3-4t5-3 5-3 7-2 7-1 9-1h9q2 0 10-1t10 0h31V0h-9q-18 3-127 3Q37 3 28 0h-8v46z"/><path id="r" d="M42 46h14q39 0 47 14v64q0 19 1 43t0 50 0 55 0 57v213q0 26-1 44t0 17q-3 19-14 25t-45 9H26v23q0 23 2 23l10 1q10 1 29 2t37 2q17 1 37 2t30 3 11 1h3V379q0-317 1-319 4-8 12-11 21-3 49-3h16V0h-8l-23 1q-23 1-49 1t-38 1-38 0-50-2L34 0h-8v46z"/><path id="s" d="M128 622q-7 7-11 9t-16 3-43 3H25v46h11q21-3 144-3 135 0 144 3h11v-46h-33q-40-1-51-3t-18-12l-1-204V291q0-102 8-146t40-78q45-43 109-43 65 0 117 40t65 119q4 23 4 227v188q-6 10-10 15t-24 14-52 10h-17v46h9q15-3 117-3t117 3h9v-46h-17q-73-4-85-39l-1-199q-1-205-4-219 0-1-2-9-20-88-84-140T389-22q-85 0-163 55t-96 159q-1 9-2 220z"/><path id="t" d="M69 609q0 28 18 44t44 16q23-2 40-17t17-43q0-30-17-45t-42-15-42 15-18 45M247 0q-15 3-104 3h-37Q80 3 56 1L34 0h-8v46h16q28 0 49 3 9 4 11 11t2 42v191q0 52-2 66t-14 19q-14 7-47 7H30v23q0 23 2 23l10 1q10 1 28 2l36 2q17 1 36 2t29 3 11 1h3V62q5-10 12-12t35-4h23V0Z"/><marker id="a" markerHeight="1" markerWidth="1" orient="auto-start-reverse" preserveAspectRatio="xMidYMid" refX="0" refY="0" style="overflow:visible" viewBox="0 0 1 1"><path d="m0 0 5-5-17.5 5L5 5Z" style="fill:context-stroke;fill-rule:evenodd;stroke:none" transform="scale(-.5)"/></marker></defs><path d="M41.908 49.953h119.737v62.113H41.908z" style="opacity:1;fill:#ccc;fill-opacity:.494118;stroke:#666;stroke-width:.499999;stroke-linecap:round;stroke-miterlimit:6;stroke-dasharray:none;stroke-opacity:1" transform="matrix(.5 0 0 .5 -19.506 -23.528)"/><path d="M101.426 134.536v-27.269" style="opacity:1;fill:#ec6;fill-opacity:1;stroke:#666;stroke-width:.5;stroke-linecap:round;stroke-miterlimit:6;stroke-dasharray:none;stroke-opacity:1;marker-start:url(#a);marker-end:url(#a)" transform="matrix(.50287 0 0 .37584 -19.796 -8.96)"/><path d="M101.426 134.536v-27.269" style="opacity:1;fill:#ec6;fill-opacity:1;stroke:#666;stroke-width:.5;stroke-linecap:round;stroke-miterlimit:6;stroke-dasharray:none;stroke-opacity:1;marker-start:url(#a);marker-end:url(#a)" transform="matrix(.50287 0 0 .37584 -13.956 -8.96)"/><path d="M101.426 134.536v-27.269" style="opacity:1;fill:#ec6;fill-opacity:1;stroke:#666;stroke-width:.5;stroke-linecap:round;stroke-miterlimit:6;stroke-dasharray:none;stroke-opacity:1;marker-start:url(#a);marker-end:url(#a)" transform="matrix(.50287 0 0 .37584 -8.15 -8.96)"/><path d="M101.426 134.536v-27.269" style="opacity:1;fill:#ec6;fill-opacity:1;stroke:#666;stroke-width:.5;stroke-linecap:round;stroke-miterlimit:6;stroke-dasharray:none;stroke-opacity:1;marker-start:url(#a);marker-end:url(#a)" transform="matrix(.50287 0 0 .37584 -2.548 -8.96)"/><path d="M101.426 134.536v-27.269" style="opacity:1;fill:#ec6;fill-opacity:1;stroke:#666;stroke-width:.5;stroke-linecap:round;stroke-miterlimit:6;stroke-dasharray:none;stroke-opacity:1;marker-start:url(#a);marker-end:url(#a)" transform="matrix(.50287 0 0 .37584 3.053 -8.96)"/><path d="M101.426 134.536v-27.269" style="opacity:1;fill:#ec6;fill-opacity:1;stroke:#666;stroke-width:.49915211;stroke-linecap:round;stroke-miterlimit:6;stroke-dasharray:none;stroke-opacity:1;marker-start:url(#a);marker-end:url(#a)" transform="matrix(.50287 0 0 .37584 -42.933 -8.96)"/><path d="M101.426 134.536v-27.269" style="opacity:1;fill:#ec6;fill-opacity:1;stroke:#666;stroke-width:.5;stroke-linecap:round;stroke-miterlimit:6;stroke-dasharray:none;stroke-opacity:1;marker-start:url(#a);marker-end:url(#a)" transform="matrix(.50287 0 0 .37584 -37.127 -8.96)"/><path d="M101.426 134.536v-27.269" style="opacity:1;fill:#ec6;fill-opacity:1;stroke:#666;stroke-width:.5;stroke-linecap:round;stroke-miterlimit:6;stroke-dasharray:none;stroke-opacity:1;marker-start:url(#a);marker-end:url(#a)" transform="matrix(.50287 0 0 .37584 -31.525 -8.96)"/><path d="M101.426 134.536v-27.269" style="opacity:1;fill:#ec6;fill-opacity:1;stroke:#666;stroke-width:.5;stroke-linecap:round;stroke-miterlimit:6;stroke-dasharray:none;stroke-opacity:1;marker-start:url(#a);marker-end:url(#a)" transform="matrix(.50287 0 0 .37584 -25.923 -8.96)"/><path d="M45.847 53.232h39.134v34.38H45.847z" style="opacity:1;fill:#e9a;fill-opacity:1;stroke:#000;stroke-width:.645442;stroke-linecap:round;stroke-miterlimit:6;stroke-opacity:1" transform="matrix(.5 0 0 .5 -19.506 -23.528)"/><path d="M45.847 91.938h111.158v15.33H45.847z" style="opacity:1;fill:#ec6;fill-opacity:1;stroke:#000;stroke-width:.645442;stroke-linecap:round;stroke-miterlimit:6;stroke-opacity:1" transform="matrix(.5 0 0 .5 -19.506 -23.528)"/><g data-mml-node="mtext" style="fill:#000;stroke:#000;stroke-width:0" transform="matrix(.00479 0 0 -.00479 24.821 28.07)"><use xlink:href="#b" data-c="43"/><use xlink:href="#c" data-c="61" transform="translate(722)"/><use xlink:href="#d" data-c="63" transform="translate(1222)"/><use xlink:href="#e" data-c="68" transform="translate(1666)"/><use xlink:href="#f" data-c="65" transform="translate(2222)"/></g><g style="fill:#ffd42a;fill-opacity:1"><path d="M45.847 91.938h111.158v15.33H45.847z" style="opacity:1;fill:#ec6;fill-opacity:1;stroke:#000;stroke-width:.645442;stroke-linecap:round;stroke-miterlimit:6;stroke-opacity:1" transform="matrix(.5 0 0 .5 -19.506 -3.168)"/></g><g data-mml-node="mtext" style="fill:#000;stroke:#000;stroke-width:0" transform="matrix(.00479 0 0 -.00479 24.838 48.155)"><use xlink:href="#g" data-c="52"/><use xlink:href="#h" data-c="41" transform="translate(736)"/><use xlink:href="#i" data-c="4D" transform="translate(1486)"/></g><path d="M90.429 53.232h30.402v14.536H90.429z" style="opacity:1;fill:#69c;fill-opacity:1;stroke:#000;stroke-width:.645442;stroke-linecap:round;stroke-miterlimit:6;stroke-opacity:1" transform="matrix(.5 0 0 .5 -19.506 -23.528)"/><g data-mml-node="mtext" style="fill:#000;stroke:#000;stroke-width:0" transform="matrix(.00479 0 0 -.00479 28.058 8.465)"><use xlink:href="#j" data-c="41"/><use xlink:href="#k" data-c="4C" transform="translate(750)"/><use xlink:href="#l" data-c="55" transform="translate(1375)"/></g><g data-mml-node="mtable" style="fill:#000;stroke:#000;stroke-width:0"><g data-mml-node="mtr"><g data-mml-node="mtd"><g data-mml-node="mtext" transform="matrix(.00479 0 0 -.00479 5.03 10.215)"><use xlink:href="#m" data-c="43"/><use xlink:href="#n" data-c="6F" transform="translate(722)"/><use xlink:href="#o" data-c="6E" transform="translate(1222)"/><use xlink:href="#p" data-c="74" transform="translate(1778)"/><use xlink:href="#q" data-c="72" transform="translate(2167)"/><use xlink:href="#n" data-c="6F" transform="translate(2559)"/><use xlink:href="#r" data-c="6C" transform="translate(3059)"/></g></g></g><g data-mml-node="mtr"><g data-mml-node="mtd"><g data-mml-node="mtext" transform="matrix(.00479 0 0 -.00479 8.296 16.92)"><use xlink:href="#s" data-c="55"/><use xlink:href="#o" data-c="6E" transform="translate(750)"/><use xlink:href="#t" data-c="69" transform="translate(1306)"/><use xlink:href="#p" data-c="74" transform="translate(1584)"/></g></g></g></g><path d="M90.429 73.076h30.402v14.536H90.429z" style="opacity:1;fill:#69c;fill-opacity:1;stroke:#000;stroke-width:.645442;stroke-linecap:round;stroke-miterlimit:6;stroke-opacity:1" transform="matrix(.5 0 0 .5 -19.506 -23.528)"/><g data-mml-node="mtext" style="fill:#000;stroke:#000;stroke-width:0" transform="matrix(.00479 0 0 -.00479 28.058 18.306)"><use xlink:href="#j" data-c="41"/><use xlink:href="#k" data-c="4C" transform="translate(750)"/><use xlink:href="#l" data-c="55" transform="translate(1375)"/></g><path d="M90.429 53.232h30.402v14.536H90.429z" style="opacity:1;fill:#69c;fill-opacity:1;stroke:#000;stroke-width:.645442;stroke-linecap:round;stroke-miterlimit:6;stroke-opacity:1" transform="matrix(.5 0 0 .5 -1.58 -23.528)"/><g data-mml-node="mtext" style="fill:#000;stroke:#000;stroke-width:0" transform="matrix(.00479 0 0 -.00479 45.984 8.465)"><use xlink:href="#j" data-c="41"/><use xlink:href="#k" data-c="4C" transform="translate(750)"/><use xlink:href="#l" data-c="55" transform="translate(1375)"/></g><path d="M90.429 73.076h30.402v14.536H90.429z" style="opacity:1;fill:#69c;fill-opacity:1;stroke:#000;stroke-width:.645442;stroke-linecap:round;stroke-miterlimit:6;stroke-opacity:1" transform="matrix(.5 0 0 .5 -1.58 -23.528)"/><g data-mml-node="mtext" style="fill:#000;stroke:#000;stroke-width:0" transform="matrix(.00479 0 0 -.00479 45.984 18.306)"><use xlink:href="#j" data-c="41"/><use xlink:href="#k" data-c="4C" transform="translate(750)"/><use xlink:href="#l" data-c="55" transform="translate(1375)"/></g><metadata><rdf:RDF><cc:Work><dc:creator><cc:Agent><dc:title>Remco de Boer</dc:title></cc:Agent></dc:creator><cc:license rdf:resource="http://creativecommons.org/licenses/by/4.0/"/></cc:Work><cc:License rdf:about="http://creativecommons.org/licenses/by/4.0/"><cc:permits rdf:resource="http://creativecommons.org/ns#Reproduction"/><cc:permits rdf:resource="http://creativecommons.org/ns#Distribution"/><cc:requires rdf:resource="http://creativecommons.org/ns#Notice"/><cc:requires rdf:resource="http://creativecommons.org/ns#Attribution"/><cc:permits rdf:resource="http://creativecommons.org/ns#DerivativeWorks"/></cc:License></rdf:RDF></metadata></svg>