<svg xmlns="http://www.w3.org/2000/svg" xmlns:cc="http://creativecommons.org/ns#" xmlns:dc="http://purl.org/dc/elements/1.1/" xmlns:inkscape="http://www.inkscape.org/namespaces/inkscape" xmlns:rdf="http://www.w3.org/1999/02/22-rdf-syntax-ns#" xmlns:sodipodi="http://sodipodi.sourceforge.net/DTD/sodipodi-0.dtd" xmlns:xlink="http://www.w3.org/1999/xlink" inkscape:version="1.4.2 (1:1.4.2+202505120737+ebf0e940d0)" sodipodi:docname="gpu.svg" xml:space="preserve" width="277.569" height="128.229" viewBox="0 0 73.44 33.927"><sodipodi:namedview inkscape:current-layer="svg82" inkscape:cx="138.628" inkscape:cy="64.066" inkscape:deskcolor="#d1d1d1" inkscape:pagecheckerboard="0" inkscape:pageopacity="0" inkscape:showpageshadow="2" inkscape:window-height="1371" inkscape:window-maximized="1" inkscape:window-width="2560" inkscape:window-x="0" inkscape:window-y="32" inkscape:zoom="3.192" bordercolor="#000000" borderopacity=".25" pagecolor="#ffffff"/><defs><path id="b" d="M130 622q-7 7-11 9t-16 3-43 3H27v46h273q76 0 117-6t83-29q95-48 109-131 1-5 1-16 0-33-16-62t-38-47-45-31-39-18l-16-5q3-3 11-6 30-16 49-34t29-44 14-43 9-56 10-61q10-48 24-63t38-15h5q15 0 29 16t18 55q0 11 4 14t16 4 16-2 4-13q0-31-16-63t-44-43q-16-6-42-6-149 6-172 112-2 11-2 73t-7 83q-19 58-76 74l-10 2-66 1h-66V192l1-131q6-10 17-12t52-3h33V0h-11q-21 3-142 3Q59 3 38 0H27v46h33q42 1 51 3t19 12zm361-123v10q0 18-1 30t-9 31-19 31-38 22-62 13h-22q-20 0-36 1h-21q-45 0-49-9-3-4-3-136V360h58q101 0 145 18t55 78q2 11 2 43"/><path id="c" d="M255 0q-15 3-115 3Q48 3 39 0h-7v46h15q72 3 92 42 1 3 53 157t103 308 53 155q3 8 18 8h10q20-1 24-7 2-2 108-319L617 67q7-13 19-16t51-5h30V0h-9q-9 3-127 3-123 0-144-3h-10v46h13q70 0 70 18 0 2-24 74l-24 71H229l-20-59q-20-59-20-65 0-13 20-26t50-13h5V0Zm192 255L345 557 244 256q0-1 101-1z"/><path id="d" d="M132 622q-7 7-11 9t-16 3-43 3H29v46h106q86 0 97-1t17-7q1-1 105-277l104-274 104 274q104 276 106 277 3 6 15 7t98 1h106v-46h-33q-40-1-51-3t-18-12V61q6-10 17-12t52-3h33V0h-11q-21 3-140 3-131 0-140-3h-11v46h33q42 1 51 3t19 12v552l-1 19Q454 14 450 7q-4-6-20-6t-20 6q-1 2-118 309L176 624v-18q-1-18-1-63V356l1-270q11-36 85-40h17V0h-9q-15 3-115 3Q52 3 37 0h-8v46h17q32 2 52 10t24 13 10 17z"/><marker id="a" markerHeight="1" markerWidth="1" orient="auto-start-reverse" preserveAspectRatio="xMidYMid" refX="0" refY="0" style="overflow:visible" viewBox="0 0 1 1"><path d="m0 0 5-5-17.5 5L5 5Z" style="fill:context-stroke;fill-rule:evenodd;stroke:none" transform="scale(-.5)"/></marker></defs><path d="M41.908 49.953h115.42v61.717H41.908z" style="opacity:1;fill:#ccc;fill-opacity:.494118;stroke:#666;stroke-width:.499999;stroke-linecap:round;stroke-miterlimit:6;stroke-dasharray:none;stroke-opacity:1" transform="matrix(.5 0 0 .5 -6.672 -23.367)"/><g style="display:inline"><path d="m83.115 104.054 4.057.054" style="opacity:1;fill:#ec6;fill-opacity:1;stroke:#666;stroke-width:.5;stroke-linecap:round;stroke-miterlimit:6;stroke-dasharray:none;stroke-opacity:1;marker-start:url(#a);marker-end:url(#a)" transform="matrix(.50287 0 0 .37584 -31.128 -8.799)"/><path d="m83.115 104.054 4.057.054" style="opacity:1;fill:#ec6;fill-opacity:1;stroke:#666;stroke-width:.5;stroke-linecap:round;stroke-miterlimit:6;stroke-dasharray:none;stroke-opacity:1;marker-start:url(#a);marker-end:url(#a)" transform="matrix(.50287 0 0 .37584 -31.128 -12.056)"/><path d="m83.115 104.054 4.057.054" style="opacity:1;fill:#ec6;fill-opacity:1;stroke:#666;stroke-width:.5;stroke-linecap:round;stroke-miterlimit:6;stroke-dasharray:none;stroke-opacity:1;marker-start:url(#a);marker-end:url(#a)" transform="matrix(.50287 0 0 .37584 -31.128 -15.43)"/><path d="m83.115 104.054 4.057.054" style="opacity:1;fill:#ec6;fill-opacity:1;stroke:#666;stroke-width:.49915211;stroke-linecap:round;stroke-miterlimit:6;stroke-dasharray:none;stroke-opacity:1;marker-start:url(#a);marker-end:url(#a)" transform="matrix(.50287 0 0 .37584 -31.128 -18.668)"/><path d="m83.115 104.054 4.057.054" style="opacity:1;fill:#ec6;fill-opacity:1;stroke:#666;stroke-width:.5;stroke-linecap:round;stroke-miterlimit:6;stroke-dasharray:none;stroke-opacity:1;marker-start:url(#a);marker-end:url(#a)" transform="matrix(.50287 0 0 .37584 -31.128 -21.925)"/><path d="m83.115 104.054 4.057.054" style="opacity:1;fill:#ec6;fill-opacity:1;stroke:#666;stroke-width:.5;stroke-linecap:round;stroke-miterlimit:6;stroke-dasharray:none;stroke-opacity:1;marker-start:url(#a);marker-end:url(#a)" transform="matrix(.50287 0 0 .37584 -31.128 -25.299)"/><path d="m83.115 104.054 4.057.054" style="opacity:1;fill:#ec6;fill-opacity:1;stroke:#666;stroke-width:.5;stroke-linecap:round;stroke-miterlimit:6;stroke-dasharray:none;stroke-opacity:1;marker-start:url(#a);marker-end:url(#a)" transform="matrix(.50287 0 0 .37584 -31.128 -28.654)"/><path d="m83.115 104.054 4.057.054" style="opacity:1;fill:#ec6;fill-opacity:1;stroke:#666;stroke-width:.5;stroke-linecap:round;stroke-miterlimit:6;stroke-dasharray:none;stroke-opacity:1;marker-start:url(#a);marker-end:url(#a)" transform="matrix(.50287 0 0 .37584 -31.128 -31.888)"/><path d="m83.115 104.054 4.057.054" style="opacity:1;fill:#ec6;fill-opacity:1;stroke:#666;stroke-width:.5;stroke-linecap:round;stroke-miterlimit:6;stroke-dasharray:none;stroke-opacity:1;marker-start:url(#a);marker-end:url(#a)" transform="matrix(.50287 0 0 .37584 -31.128 -35.074)"/></g><g style="stroke-width:.331264;stroke-dasharray:none"><path d="M45.797 89.173h5.799v2.715h-5.799z" style="opacity:1;fill:#e9a;fill-opacity:1;stroke:#000;stroke-width:.331264;stroke-linecap:round;stroke-miterlimit:6;stroke-dasharray:none;stroke-opacity:1" transform="translate(-6.612 -13.726)scale(.47922)"/><path d="M45.797 91.888h5.799v2.799h-5.799z" style="fill:#ec6;fill-opacity:1;stroke:#000;stroke-width:.331264;stroke-linecap:round;stroke-miterlimit:6;stroke-dasharray:none;stroke-opacity:1" transform="translate(-6.612 -13.726)scale(.47922)"/></g><path d="M-98.415 18.37h61.917V33.7h-61.917z" style="fill:#ec6;fill-opacity:1;stroke:#000;stroke-width:.645442;stroke-linecap:round;stroke-miterlimit:6;stroke-opacity:1" transform="matrix(0 -.5 .5 0 -7.7 -16.765)"/><g data-mml-node="mtext" style="fill:#000;stroke:#000;stroke-width:0" transform="matrix(0 -.00479 -.00479 0 6.838 22.72)"><use xlink:href="#b" data-c="52"/><use xlink:href="#c" data-c="41" transform="translate(736)"/><use xlink:href="#d" data-c="4D" transform="translate(1486)"/></g><g style="stroke-width:.331264;stroke-dasharray:none"><path d="M45.797 89.173h5.799v2.715h-5.799z" style="opacity:1;fill:#e9a;fill-opacity:1;stroke:#000;stroke-width:.331264;stroke-linecap:round;stroke-miterlimit:6;stroke-dasharray:none;stroke-opacity:1" transform="translate(-6.612 -16.999)scale(.47922)"/><path d="M45.797 91.888h5.799v2.799h-5.799z" style="fill:#ec6;fill-opacity:1;stroke:#000;stroke-width:.331264;stroke-linecap:round;stroke-miterlimit:6;stroke-dasharray:none;stroke-opacity:1" transform="translate(-6.612 -16.999)scale(.47922)"/></g><g style="stroke-width:.331264;stroke-dasharray:none"><path d="M45.797 89.173h5.799v2.715h-5.799z" style="opacity:1;fill:#e9a;fill-opacity:1;stroke:#000;stroke-width:.331264;stroke-linecap:round;stroke-miterlimit:6;stroke-dasharray:none;stroke-opacity:1" transform="translate(-6.612 -20.316)scale(.47922)"/><path d="M45.797 91.888h5.799v2.799h-5.799z" style="fill:#ec6;fill-opacity:1;stroke:#000;stroke-width:.331264;stroke-linecap:round;stroke-miterlimit:6;stroke-dasharray:none;stroke-opacity:1" transform="translate(-6.612 -20.316)scale(.47922)"/></g><g style="stroke-width:.331264;stroke-dasharray:none"><path d="M45.797 89.173h5.799v2.715h-5.799z" style="opacity:1;fill:#ff7f2a;fill-opacity:.494118;stroke:#000;stroke-width:.331264;stroke-linecap:round;stroke-miterlimit:6;stroke-dasharray:none;stroke-opacity:1" transform="translate(-6.612 -23.589)scale(.47922)"/><path d="M45.797 91.888h5.799v2.799h-5.799z" style="fill:#ec6;fill-opacity:1;stroke:#000;stroke-width:.331264;stroke-linecap:round;stroke-miterlimit:6;stroke-dasharray:none;stroke-opacity:1" transform="translate(-6.612 -23.589)scale(.47922)"/></g><g style="stroke-width:.331264;stroke-dasharray:none"><path d="M45.797 89.173h5.799v2.715h-5.799z" style="opacity:1;fill:#e9a;fill-opacity:1;stroke:#000;stroke-width:.331264;stroke-linecap:round;stroke-miterlimit:6;stroke-dasharray:none;stroke-opacity:1" transform="translate(-6.612 -23.589)scale(.47922)"/><path d="M45.797 91.888h5.799v2.799h-5.799z" style="fill:#ec6;fill-opacity:1;stroke:#000;stroke-width:.331264;stroke-linecap:round;stroke-miterlimit:6;stroke-dasharray:none;stroke-opacity:1" transform="translate(-6.612 -23.589)scale(.47922)"/></g><g style="stroke-width:.331264;stroke-dasharray:none"><path d="M45.797 89.173h5.799v2.715h-5.799z" style="opacity:1;fill:#e9a;fill-opacity:1;stroke:#000;stroke-width:.331264;stroke-linecap:round;stroke-miterlimit:6;stroke-dasharray:none;stroke-opacity:1" transform="translate(-6.612 -26.906)scale(.47922)"/><path d="M45.797 91.888h5.799v2.799h-5.799z" style="fill:#ec6;fill-opacity:1;stroke:#000;stroke-width:.331264;stroke-linecap:round;stroke-miterlimit:6;stroke-dasharray:none;stroke-opacity:1" transform="translate(-6.612 -26.906)scale(.47922)"/></g><g style="stroke-width:.331264;stroke-dasharray:none"><path d="M45.797 89.173h5.799v2.715h-5.799z" style="opacity:1;fill:#ff7f2a;fill-opacity:.494118;stroke:#000;stroke-width:.331264;stroke-linecap:round;stroke-miterlimit:6;stroke-dasharray:none;stroke-opacity:1" transform="translate(-6.612 -30.178)scale(.47922)"/><path d="M45.797 91.888h5.799v2.799h-5.799z" style="fill:#ec6;fill-opacity:1;stroke:#000;stroke-width:.331264;stroke-linecap:round;stroke-miterlimit:6;stroke-dasharray:none;stroke-opacity:1" transform="translate(-6.612 -30.178)scale(.47922)"/></g><g style="stroke-width:.331264;stroke-dasharray:none"><path d="M45.797 89.173h5.799v2.715h-5.799z" style="opacity:1;fill:#e9a;fill-opacity:1;stroke:#000;stroke-width:.331264;stroke-linecap:round;stroke-miterlimit:6;stroke-dasharray:none;stroke-opacity:1" transform="translate(-6.612 -30.178)scale(.47922)"/><path d="M45.797 91.888h5.799v2.799h-5.799z" style="fill:#ec6;fill-opacity:1;stroke:#000;stroke-width:.331264;stroke-linecap:round;stroke-miterlimit:6;stroke-dasharray:none;stroke-opacity:1" transform="translate(-6.612 -30.178)scale(.47922)"/></g><g style="stroke-width:.331264;stroke-dasharray:none"><path d="M45.797 89.173h5.799v2.715h-5.799z" style="opacity:1;fill:#e9a;fill-opacity:1;stroke:#000;stroke-width:.331264;stroke-linecap:round;stroke-miterlimit:6;stroke-dasharray:none;stroke-opacity:1" transform="translate(-6.612 -33.496)scale(.47922)"/><path d="M45.797 91.888h5.799v2.799h-5.799z" style="fill:#ec6;fill-opacity:1;stroke:#000;stroke-width:.331264;stroke-linecap:round;stroke-miterlimit:6;stroke-dasharray:none;stroke-opacity:1" transform="translate(-6.612 -33.496)scale(.47922)"/></g><g style="stroke-width:.331264;stroke-dasharray:none"><path d="M45.797 89.173h5.799v2.715h-5.799z" style="opacity:1;fill:#ff7f2a;fill-opacity:.494118;stroke:#000;stroke-width:.331264;stroke-linecap:round;stroke-miterlimit:6;stroke-dasharray:none;stroke-opacity:1" transform="translate(-6.612 -36.768)scale(.47922)"/><path d="M45.797 91.888h5.799v2.799h-5.799z" style="fill:#ec6;fill-opacity:1;stroke:#000;stroke-width:.331264;stroke-linecap:round;stroke-miterlimit:6;stroke-dasharray:none;stroke-opacity:1" transform="translate(-6.612 -36.768)scale(.47922)"/></g><g style="stroke-width:.331264;stroke-dasharray:none"><path d="M45.797 89.173h5.799v2.715h-5.799z" style="opacity:1;fill:#e9a;fill-opacity:1;stroke:#000;stroke-width:.331264;stroke-linecap:round;stroke-miterlimit:6;stroke-dasharray:none;stroke-opacity:1" transform="translate(-6.612 -36.768)scale(.47922)"/><path d="M45.797 91.888h5.799v2.799h-5.799z" style="fill:#ec6;fill-opacity:1;stroke:#000;stroke-width:.331264;stroke-linecap:round;stroke-miterlimit:6;stroke-dasharray:none;stroke-opacity:1" transform="translate(-6.612 -36.768)scale(.47922)"/></g><g style="stroke-width:.331264;stroke-dasharray:none"><path d="M45.797 89.173h5.799v2.715h-5.799z" style="opacity:1;fill:#e9a;fill-opacity:1;stroke:#000;stroke-width:.331264;stroke-linecap:round;stroke-miterlimit:6;stroke-dasharray:none;stroke-opacity:1" transform="translate(-6.612 -39.938)scale(.47922)"/><path d="M45.797 91.888h5.799v2.799h-5.799z" style="fill:#ec6;fill-opacity:1;stroke:#000;stroke-width:.331264;stroke-linecap:round;stroke-miterlimit:6;stroke-dasharray:none;stroke-opacity:1" transform="translate(-6.612 -39.938)scale(.47922)"/></g><g style="fill:#84c1d0;fill-opacity:1;stroke:#000"><path d="M49.573 52.326h5.887v5.285h-5.887zm5.887 0h5.887v5.285H55.46z" style="fill:#69c;fill-opacity:1;stroke:#000;stroke-width:.3175;stroke-linecap:round;stroke-miterlimit:6;stroke-dasharray:none;stroke-opacity:1" transform="matrix(.5 0 0 .5 -6.672 -23.367)"/><path d="M61.347 52.326h5.887v5.285h-5.887z" style="fill:#69c;fill-opacity:1;stroke:#000;stroke-width:.3175;stroke-linecap:round;stroke-miterlimit:6;stroke-dasharray:none;stroke-opacity:1" transform="matrix(.5 0 0 .5 -6.672 -23.367)"/><path d="M67.233 52.326h5.887v5.285h-5.887zm5.887 0h5.887v5.285H73.12zm5.887 0h5.887v5.285h-5.887zm5.887 0h5.887v5.285h-5.887zm5.887 0h5.887v5.285h-5.887zm5.887 0h5.887v5.285h-5.887zm5.887 0h5.887v5.285h-5.887z" style="fill:#69c;fill-opacity:1;stroke:#000;stroke-width:.3175;stroke-linecap:round;stroke-miterlimit:6;stroke-dasharray:none;stroke-opacity:1" transform="matrix(.5 0 0 .5 -6.672 -23.367)"/><path d="M108.442 52.326h5.887v5.285h-5.887zm5.887 0h5.887v5.285h-5.887zm5.887 0h5.887v5.285h-5.887z" style="fill:#69c;fill-opacity:1;stroke:#000;stroke-width:.3175;stroke-linecap:round;stroke-miterlimit:6;stroke-dasharray:none;stroke-opacity:1" transform="matrix(.5 0 0 .5 -6.672 -23.367)"/><path d="M126.103 52.326h5.887v5.285h-5.887zm5.887 0h5.887v5.285h-5.887zm5.887 0h5.887v5.285h-5.887zm5.887 0h5.887v5.285h-5.887zm5.887 0h5.887v5.285h-5.887z" style="fill:#69c;fill-opacity:1;stroke:#000;stroke-width:.3175;stroke-linecap:round;stroke-miterlimit:6;stroke-dasharray:none;stroke-opacity:1" transform="matrix(.5 0 0 .5 -6.672 -23.367)"/></g><g style="fill:#84c1d0;fill-opacity:1;stroke:#000"><path d="M49.573 52.326h5.887v5.285h-5.887zm5.887 0h5.887v5.285H55.46z" style="fill:#69c;fill-opacity:1;stroke:#000;stroke-width:.3175;stroke-linecap:round;stroke-miterlimit:6;stroke-dasharray:none;stroke-opacity:1" transform="matrix(.5 0 0 .5 -6.672 -20.197)"/><path d="M61.347 52.326h5.887v5.285h-5.887z" style="fill:#69c;fill-opacity:1;stroke:#000;stroke-width:.3175;stroke-linecap:round;stroke-miterlimit:6;stroke-dasharray:none;stroke-opacity:1" transform="matrix(.5 0 0 .5 -6.672 -20.197)"/><path d="M67.233 52.326h5.887v5.285h-5.887zm5.887 0h5.887v5.285H73.12zm5.887 0h5.887v5.285h-5.887zm5.887 0h5.887v5.285h-5.887zm5.887 0h5.887v5.285h-5.887zm5.887 0h5.887v5.285h-5.887zm5.887 0h5.887v5.285h-5.887z" style="fill:#69c;fill-opacity:1;stroke:#000;stroke-width:.3175;stroke-linecap:round;stroke-miterlimit:6;stroke-dasharray:none;stroke-opacity:1" transform="matrix(.5 0 0 .5 -6.672 -20.197)"/><path d="M108.442 52.326h5.887v5.285h-5.887zm5.887 0h5.887v5.285h-5.887zm5.887 0h5.887v5.285h-5.887z" style="fill:#69c;fill-opacity:1;stroke:#000;stroke-width:.3175;stroke-linecap:round;stroke-miterlimit:6;stroke-dasharray:none;stroke-opacity:1" transform="matrix(.5 0 0 .5 -6.672 -20.197)"/><path d="M126.103 52.326h5.887v5.285h-5.887zm5.887 0h5.887v5.285h-5.887zm5.887 0h5.887v5.285h-5.887zm5.887 0h5.887v5.285h-5.887zm5.887 0h5.887v5.285h-5.887z" style="fill:#69c;fill-opacity:1;stroke:#000;stroke-width:.3175;stroke-linecap:round;stroke-miterlimit:6;stroke-dasharray:none;stroke-opacity:1" transform="matrix(.5 0 0 .5 -6.672 -20.197)"/></g><g style="fill:#84c1d0;fill-opacity:1;stroke:#000"><path d="M49.573 52.326h5.887v5.285h-5.887zm5.887 0h5.887v5.285H55.46z" style="fill:#69c;fill-opacity:1;stroke:#000;stroke-width:.3175;stroke-linecap:round;stroke-miterlimit:6;stroke-dasharray:none;stroke-opacity:1" transform="matrix(.5 0 0 .5 -6.672 -16.925)"/><path d="M61.347 52.326h5.887v5.285h-5.887z" style="fill:#69c;fill-opacity:1;stroke:#000;stroke-width:.3175;stroke-linecap:round;stroke-miterlimit:6;stroke-dasharray:none;stroke-opacity:1" transform="matrix(.5 0 0 .5 -6.672 -16.925)"/><path d="M67.233 52.326h5.887v5.285h-5.887zm5.887 0h5.887v5.285H73.12zm5.887 0h5.887v5.285h-5.887zm5.887 0h5.887v5.285h-5.887zm5.887 0h5.887v5.285h-5.887zm5.887 0h5.887v5.285h-5.887zm5.887 0h5.887v5.285h-5.887z" style="fill:#69c;fill-opacity:1;stroke:#000;stroke-width:.3175;stroke-linecap:round;stroke-miterlimit:6;stroke-dasharray:none;stroke-opacity:1" transform="matrix(.5 0 0 .5 -6.672 -16.925)"/><path d="M108.442 52.326h5.887v5.285h-5.887zm5.887 0h5.887v5.285h-5.887zm5.887 0h5.887v5.285h-5.887z" style="fill:#69c;fill-opacity:1;stroke:#000;stroke-width:.3175;stroke-linecap:round;stroke-miterlimit:6;stroke-dasharray:none;stroke-opacity:1" transform="matrix(.5 0 0 .5 -6.672 -16.925)"/><path d="M126.103 52.326h5.887v5.285h-5.887zm5.887 0h5.887v5.285h-5.887zm5.887 0h5.887v5.285h-5.887zm5.887 0h5.887v5.285h-5.887zm5.887 0h5.887v5.285h-5.887z" style="fill:#69c;fill-opacity:1;stroke:#000;stroke-width:.3175;stroke-linecap:round;stroke-miterlimit:6;stroke-dasharray:none;stroke-opacity:1" transform="matrix(.5 0 0 .5 -6.672 -16.925)"/></g><g style="fill:#84c1d0;fill-opacity:1;stroke:#000"><path d="M49.573 52.326h5.887v5.285h-5.887zm5.887 0h5.887v5.285H55.46z" style="fill:#69c;fill-opacity:1;stroke:#000;stroke-width:.3175;stroke-linecap:round;stroke-miterlimit:6;stroke-dasharray:none;stroke-opacity:1" transform="matrix(.5 0 0 .5 -6.672 -13.607)"/><path d="M61.347 52.326h5.887v5.285h-5.887z" style="fill:#69c;fill-opacity:1;stroke:#000;stroke-width:.3175;stroke-linecap:round;stroke-miterlimit:6;stroke-dasharray:none;stroke-opacity:1" transform="matrix(.5 0 0 .5 -6.672 -13.607)"/><path d="M67.233 52.326h5.887v5.285h-5.887zm5.887 0h5.887v5.285H73.12zm5.887 0h5.887v5.285h-5.887zm5.887 0h5.887v5.285h-5.887zm5.887 0h5.887v5.285h-5.887zm5.887 0h5.887v5.285h-5.887zm5.887 0h5.887v5.285h-5.887z" style="fill:#69c;fill-opacity:1;stroke:#000;stroke-width:.3175;stroke-linecap:round;stroke-miterlimit:6;stroke-dasharray:none;stroke-opacity:1" transform="matrix(.5 0 0 .5 -6.672 -13.607)"/><path d="M108.442 52.326h5.887v5.285h-5.887zm5.887 0h5.887v5.285h-5.887zm5.887 0h5.887v5.285h-5.887z" style="fill:#69c;fill-opacity:1;stroke:#000;stroke-width:.3175;stroke-linecap:round;stroke-miterlimit:6;stroke-dasharray:none;stroke-opacity:1" transform="matrix(.5 0 0 .5 -6.672 -13.607)"/><path d="M126.103 52.326h5.887v5.285h-5.887zm5.887 0h5.887v5.285h-5.887zm5.887 0h5.887v5.285h-5.887zm5.887 0h5.887v5.285h-5.887zm5.887 0h5.887v5.285h-5.887z" style="fill:#69c;fill-opacity:1;stroke:#000;stroke-width:.3175;stroke-linecap:round;stroke-miterlimit:6;stroke-dasharray:none;stroke-opacity:1" transform="matrix(.5 0 0 .5 -6.672 -13.607)"/></g><g style="fill:#84c1d0;fill-opacity:1;stroke:#000"><path d="M49.573 52.326h5.887v5.285h-5.887zm5.887 0h5.887v5.285H55.46z" style="fill:#69c;fill-opacity:1;stroke:#000;stroke-width:.3175;stroke-linecap:round;stroke-miterlimit:6;stroke-dasharray:none;stroke-opacity:1" transform="matrix(.5 0 0 .5 -6.672 -10.335)"/><path d="M61.347 52.326h5.887v5.285h-5.887z" style="fill:#69c;fill-opacity:1;stroke:#000;stroke-width:.3175;stroke-linecap:round;stroke-miterlimit:6;stroke-dasharray:none;stroke-opacity:1" transform="matrix(.5 0 0 .5 -6.672 -10.335)"/><path d="M67.233 52.326h5.887v5.285h-5.887zm5.887 0h5.887v5.285H73.12zm5.887 0h5.887v5.285h-5.887zm5.887 0h5.887v5.285h-5.887zm5.887 0h5.887v5.285h-5.887zm5.887 0h5.887v5.285h-5.887zm5.887 0h5.887v5.285h-5.887z" style="fill:#69c;fill-opacity:1;stroke:#000;stroke-width:.3175;stroke-linecap:round;stroke-miterlimit:6;stroke-dasharray:none;stroke-opacity:1" transform="matrix(.5 0 0 .5 -6.672 -10.335)"/><path d="M108.442 52.326h5.887v5.285h-5.887zm5.887 0h5.887v5.285h-5.887zm5.887 0h5.887v5.285h-5.887z" style="fill:#69c;fill-opacity:1;stroke:#000;stroke-width:.3175;stroke-linecap:round;stroke-miterlimit:6;stroke-dasharray:none;stroke-opacity:1" transform="matrix(.5 0 0 .5 -6.672 -10.335)"/><path d="M126.103 52.326h5.887v5.285h-5.887zm5.887 0h5.887v5.285h-5.887zm5.887 0h5.887v5.285h-5.887zm5.887 0h5.887v5.285h-5.887zm5.887 0h5.887v5.285h-5.887z" style="fill:#69c;fill-opacity:1;stroke:#000;stroke-width:.3175;stroke-linecap:round;stroke-miterlimit:6;stroke-dasharray:none;stroke-opacity:1" transform="matrix(.5 0 0 .5 -6.672 -10.335)"/></g><g style="fill:#84c1d0;fill-opacity:1;stroke:#000"><path d="M49.573 52.326h5.887v5.285h-5.887zm5.887 0h5.887v5.285H55.46z" style="fill:#69c;fill-opacity:1;stroke:#000;stroke-width:.3175;stroke-linecap:round;stroke-miterlimit:6;stroke-dasharray:none;stroke-opacity:1" transform="matrix(.5 0 0 .5 -6.672 -7.018)"/><path d="M61.347 52.326h5.887v5.285h-5.887z" style="fill:#69c;fill-opacity:1;stroke:#000;stroke-width:.3175;stroke-linecap:round;stroke-miterlimit:6;stroke-dasharray:none;stroke-opacity:1" transform="matrix(.5 0 0 .5 -6.672 -7.018)"/><path d="M67.233 52.326h5.887v5.285h-5.887zm5.887 0h5.887v5.285H73.12zm5.887 0h5.887v5.285h-5.887zm5.887 0h5.887v5.285h-5.887zm5.887 0h5.887v5.285h-5.887zm5.887 0h5.887v5.285h-5.887zm5.887 0h5.887v5.285h-5.887z" style="fill:#69c;fill-opacity:1;stroke:#000;stroke-width:.3175;stroke-linecap:round;stroke-miterlimit:6;stroke-dasharray:none;stroke-opacity:1" transform="matrix(.5 0 0 .5 -6.672 -7.018)"/><path d="M108.442 52.326h5.887v5.285h-5.887zm5.887 0h5.887v5.285h-5.887zm5.887 0h5.887v5.285h-5.887z" style="fill:#69c;fill-opacity:1;stroke:#000;stroke-width:.3175;stroke-linecap:round;stroke-miterlimit:6;stroke-dasharray:none;stroke-opacity:1" transform="matrix(.5 0 0 .5 -6.672 -7.018)"/><path d="M126.103 52.326h5.887v5.285h-5.887zm5.887 0h5.887v5.285h-5.887zm5.887 0h5.887v5.285h-5.887zm5.887 0h5.887v5.285h-5.887zm5.887 0h5.887v5.285h-5.887z" style="fill:#69c;fill-opacity:1;stroke:#000;stroke-width:.3175;stroke-linecap:round;stroke-miterlimit:6;stroke-dasharray:none;stroke-opacity:1" transform="matrix(.5 0 0 .5 -6.672 -7.018)"/></g><g style="fill:#84c1d0;fill-opacity:1;stroke:#000"><path d="M49.573 52.326h5.887v5.285h-5.887zm5.887 0h5.887v5.285H55.46z" style="fill:#69c;fill-opacity:1;stroke:#000;stroke-width:.3175;stroke-linecap:round;stroke-miterlimit:6;stroke-dasharray:none;stroke-opacity:1" transform="matrix(.5 0 0 .5 -6.672 -3.745)"/><path d="M61.347 52.326h5.887v5.285h-5.887z" style="fill:#69c;fill-opacity:1;stroke:#000;stroke-width:.3175;stroke-linecap:round;stroke-miterlimit:6;stroke-dasharray:none;stroke-opacity:1" transform="matrix(.5 0 0 .5 -6.672 -3.745)"/><path d="M67.233 52.326h5.887v5.285h-5.887zm5.887 0h5.887v5.285H73.12zm5.887 0h5.887v5.285h-5.887zm5.887 0h5.887v5.285h-5.887zm5.887 0h5.887v5.285h-5.887zm5.887 0h5.887v5.285h-5.887zm5.887 0h5.887v5.285h-5.887z" style="fill:#69c;fill-opacity:1;stroke:#000;stroke-width:.3175;stroke-linecap:round;stroke-miterlimit:6;stroke-dasharray:none;stroke-opacity:1" transform="matrix(.5 0 0 .5 -6.672 -3.745)"/><path d="M108.442 52.326h5.887v5.285h-5.887zm5.887 0h5.887v5.285h-5.887zm5.887 0h5.887v5.285h-5.887z" style="fill:#69c;fill-opacity:1;stroke:#000;stroke-width:.3175;stroke-linecap:round;stroke-miterlimit:6;stroke-dasharray:none;stroke-opacity:1" transform="matrix(.5 0 0 .5 -6.672 -3.745)"/><path d="M126.103 52.326h5.887v5.285h-5.887zm5.887 0h5.887v5.285h-5.887zm5.887 0h5.887v5.285h-5.887zm5.887 0h5.887v5.285h-5.887zm5.887 0h5.887v5.285h-5.887z" style="fill:#69c;fill-opacity:1;stroke:#000;stroke-width:.3175;stroke-linecap:round;stroke-miterlimit:6;stroke-dasharray:none;stroke-opacity:1" transform="matrix(.5 0 0 .5 -6.672 -3.745)"/></g><g style="fill:#84c1d0;fill-opacity:1"><path d="M49.573 52.326h5.887v5.285h-5.887zm5.887 0h5.887v5.285H55.46z" style="fill:#69c;fill-opacity:1;stroke:#000;stroke-width:.3175;stroke-linecap:round;stroke-miterlimit:6;stroke-dasharray:none;stroke-opacity:1" transform="matrix(.5 0 0 .5 -6.672 -.428)"/><path d="M61.347 52.326h5.887v5.285h-5.887z" style="fill:#69c;fill-opacity:1;stroke:#000;stroke-width:.3175;stroke-linecap:round;stroke-miterlimit:6;stroke-dasharray:none;stroke-opacity:1" transform="matrix(.5 0 0 .5 -6.672 -.428)"/><path d="M67.233 52.326h5.887v5.285h-5.887zm5.887 0h5.887v5.285H73.12zm5.887 0h5.887v5.285h-5.887zm5.887 0h5.887v5.285h-5.887zm5.887 0h5.887v5.285h-5.887zm5.887 0h5.887v5.285h-5.887zm5.887 0h5.887v5.285h-5.887z" style="fill:#69c;fill-opacity:1;stroke:#000;stroke-width:.3175;stroke-linecap:round;stroke-miterlimit:6;stroke-dasharray:none;stroke-opacity:1" transform="matrix(.5 0 0 .5 -6.672 -.428)"/><path d="M108.442 52.326h5.887v5.285h-5.887zm5.887 0h5.887v5.285h-5.887zm5.887 0h5.887v5.285h-5.887z" style="fill:#69c;fill-opacity:1;stroke:#000;stroke-width:.3175;stroke-linecap:round;stroke-miterlimit:6;stroke-dasharray:none;stroke-opacity:1" transform="matrix(.5 0 0 .5 -6.672 -.428)"/><path d="M126.103 52.326h5.887v5.285h-5.887zm5.887 0h5.887v5.285h-5.887zm5.887 0h5.887v5.285h-5.887zm5.887 0h5.887v5.285h-5.887zm5.887 0h5.887v5.285h-5.887z" style="fill:#69c;fill-opacity:1;stroke:#000;stroke-width:.3175;stroke-linecap:round;stroke-miterlimit:6;stroke-dasharray:none;stroke-opacity:1" transform="matrix(.5 0 0 .5 -6.672 -.428)"/></g><g style="opacity:1;fill:#84c1d0;fill-opacity:1;stroke:#000;stroke-opacity:1"><path d="M49.573 52.326h5.887v5.285h-5.887zm5.887 0h5.887v5.285H55.46z" style="fill:#69c;fill-opacity:1;stroke:#000;stroke-width:.3175;stroke-linecap:round;stroke-miterlimit:6;stroke-dasharray:none;stroke-opacity:1" transform="matrix(.5 0 0 .5 -6.672 2.845)"/><path d="M61.347 52.326h5.887v5.285h-5.887z" style="fill:#69c;fill-opacity:1;stroke:#000;stroke-width:.3175;stroke-linecap:round;stroke-miterlimit:6;stroke-dasharray:none;stroke-opacity:1" transform="matrix(.5 0 0 .5 -6.672 2.845)"/><path d="M67.233 52.326h5.887v5.285h-5.887zm5.887 0h5.887v5.285H73.12zm5.887 0h5.887v5.285h-5.887zm5.887 0h5.887v5.285h-5.887zm5.887 0h5.887v5.285h-5.887zm5.887 0h5.887v5.285h-5.887zm5.887 0h5.887v5.285h-5.887z" style="fill:#69c;fill-opacity:1;stroke:#000;stroke-width:.3175;stroke-linecap:round;stroke-miterlimit:6;stroke-dasharray:none;stroke-opacity:1" transform="matrix(.5 0 0 .5 -6.672 2.845)"/><path d="M108.442 52.326h5.887v5.285h-5.887zm5.887 0h5.887v5.285h-5.887zm5.887 0h5.887v5.285h-5.887z" style="fill:#69c;fill-opacity:1;stroke:#000;stroke-width:.3175;stroke-linecap:round;stroke-miterlimit:6;stroke-dasharray:none;stroke-opacity:1" transform="matrix(.5 0 0 .5 -6.672 2.845)"/><path d="M126.103 52.326h5.887v5.285h-5.887zm5.887 0h5.887v5.285h-5.887zm5.887 0h5.887v5.285h-5.887zm5.887 0h5.887v5.285h-5.887zm5.887 0h5.887v5.285h-5.887z" style="fill:#69c;fill-opacity:1;stroke:#000;stroke-width:.3175;stroke-linecap:round;stroke-miterlimit:6;stroke-dasharray:none;stroke-opacity:1" transform="matrix(.5 0 0 .5 -6.672 2.845)"/></g><metadata><rdf:RDF><cc:Work><dc:creator><cc:Agent><dc:title>Remco de Boer</dc:title></cc:Agent></dc:creator><cc:license rdf:resource="http://creativecommons.org/licenses/by/4.0/"/></cc:Work><cc:License rdf:about="http://creativecommons.org/licenses/by/4.0/"><cc:permits rdf:resource="http://creativecommons.org/ns#Reproduction"/><cc:permits rdf:resource="http://creativecommons.org/ns#Distribution"/><cc:requires rdf:resource="http://creativecommons.org/ns#Notice"/><cc:requires rdf:resource="http://creativecommons.org/ns#Attribution"/><cc:permits rdf:resource="http://creativecommons.org/ns#DerivativeWorks"/></cc:License></rdf:RDF></metadata></svg>