<svg xmlns="http://www.w3.org/2000/svg" xmlns:cc="http://creativecommons.org/ns#" xmlns:dc="http://purl.org/dc/elements/1.1/" xmlns:inkscape="http://www.inkscape.org/namespaces/inkscape" xmlns:rdf="http://www.w3.org/1999/02/22-rdf-syntax-ns#" xmlns:sodipodi="http://sodipodi.sourceforge.net/DTD/sodipodi-0.dtd" xmlns:xlink="http://www.w3.org/1999/xlink" inkscape:version="1.4.2 (1:1.4.2+202505120737+ebf0e940d0)" sodipodi:docname="programming-languages-dark.svg" id="svg170" width="564.051" height="309.195" viewBox="0 0 423.038 231.897"><sodipodi:namedview inkscape:current-layer="svg170" inkscape:cx="281.707" inkscape:cy="154.382" inkscape:deskcolor="#d1d1d1" inkscape:pagecheckerboard="0" inkscape:pageopacity="0" inkscape:showpageshadow="2" inkscape:window-height="1371" inkscape:window-maximized="1" inkscape:window-width="2560" inkscape:window-x="0" inkscape:window-y="32" inkscape:zoom="1.571" id="namedview1" bordercolor="#000000" borderopacity=".25" pagecolor="#ffffff"/><defs id="defs1"><style id="style1">*{stroke-linejoin:round;stroke-linecap:butt}</style></defs><g id="figure_1" transform="translate(-5.796 -5.3)"><g id="axes_1"><path id="line2d_1" d="M42.394 16.036h374.4" clip-path="url(#p8bc7e3d8e6)" style="fill:#bfbfbf;stroke:#bfbfbf;stroke-width:.5;stroke-dasharray:1.85,.8;stroke-dashoffset:0"/><path id="patch_3" d="M103.343 201.6h95.776V7.2h-95.776z" clip-path="url(#p8bc7e3d8e6)" style="opacity:.15;fill:#1f77b4;stroke:#1f77b4;stroke-linejoin:miter"/><path id="patch_4" d="M268.775 201.6h148.019V7.2H268.775Z" clip-path="url(#p8bc7e3d8e6)" style="opacity:.15;fill:#ff7f0e;stroke:#ff7f0e;stroke-linejoin:miter"/><g id="matplotlib.axis_1"><g id="xtick_1"><g id="line2d_2"><defs id="defs2"><path id="mcdabfe37c5" d="M0 0v3.5" style="stroke:#000;stroke-width:.8"/></defs><use xlink:href="#mcdabfe37c5" id="use2" x="68.515" y="201.6" style="stroke:#bfbfbf;stroke-width:.8;fill:#bfbfbf"/></g><g id="text_1" transform="matrix(.13 0 0 -.13 55.833 217.594)"><defs id="defs3"><path id="CMR17-31" d="M1702 4058c0 134-6 134-96 134-249-276-627-365-985-365-19 0-51 0-58-19-6-13-6-26-6-160 198 0 531 38 787 191V461c0-225-13-301-563-301H589V0h1869v160h-192c-551 0-564 70-564 298z" transform="scale(.01563)"/><path id="CMR17-39" d="M2253 1864C2253 464 1670 31 1190 31c-147 0-505 0-652 263 166-26 288 63 288 224 0 174-141 231-231 231-57 0-230-26-230-243 0-435 377-634 838-634 736 0 1485 802 1485 2201 0 1744-717 2106-1203 2106-634 0-1242-551-1242-1401 0-787 519-1370 1171-1370 538 0 775 495 839 704zm-826-354c-173 0-416 32-614 412-135 247-135 539-135 849 0 375 0 634 180 913 89 133 256 348 627 348 755 0 755-1147 755-1400 0-450-205-1122-813-1122" transform="scale(.01563)"/><path id="CMR17-38" d="M1741 2264c403 203 813 509 813 999 0 578-564 916-1082 916-582 0-1094-420-1094-999 0-159 38-433 288-675 64-63 332-254 505-375-288-147-960-496-960-1196 0-655 627-1062 1248-1062 685 0 1261 490 1261 1138 0 580-390 847-646 1019zm-839 558c-51 32-307 229-307 529 0 388 403 681 864 681 506 0 877-356 877-770 0-593-666-931-698-931-6 0-12 0-64 39zm1178-1303c96-70 403-279 403-668 0-470-473-826-1011-826C890 25 448 438 448 940c0 503 390 922 832 1120z" transform="scale(.01563)"/><path id="CMR17-35" d="M730 3692c64-26 326-108 595-108 595 0 921 327 1107 516 0 57 0 92-38 92-7 0-20 0-71-29-224-105-486-190-806-190-192 0-480 26-794 166-70 32-83 32-89 32-32 0-39-7-39-134V2203c0-114 0-146 64-146 32 0 45 13 77 57 205 287 486 408 806 408 224 0 704-140 704-1233 0-204 0-574-192-868-160-262-409-396-684-396-423 0-852 295-967 789 26-7 77-19 103-19 83 0 243 45 243 243 0 172-122 242-243 242-148 0-244-90-244-269 0-557 442-1139 1120-1139 660 0 1287 568 1287 1392 0 766-499 1360-1120 1360-327 0-602-121-819-350z" transform="scale(.01563)"/></defs><use xlink:href="#CMR17-31" id="use3" style="stroke:none;fill:#bfbfbf" transform="scale(.99626)"/><use xlink:href="#CMR17-39" id="use4" style="stroke:none;fill:#bfbfbf" transform="translate(45.69)scale(.99626)"/><use xlink:href="#CMR17-38" id="use5" style="stroke:none;fill:#bfbfbf" transform="translate(91.381)scale(.99626)"/><use xlink:href="#CMR17-35" id="use6" style="stroke:none;fill:#bfbfbf" transform="translate(137.071)scale(.99626)"/></g></g><g id="xtick_2"><use xlink:href="#mcdabfe37c5" id="line2d_3" x="112.05" y="201.6" style="stroke:#bfbfbf;stroke-width:.8;fill:#bfbfbf"/><g id="text_2" transform="matrix(.13 0 0 -.13 99.368 217.594)"><defs id="defs6"><path id="CMR17-30" d="M2688 2025c0 391-6 1055-275 1566-237 448-615 607-947 607-308 0-698-140-941-601-256-479-282-1073-282-1572 0-364 7-919 205-1406 275-658 768-747 1018-747 294 0 742 121 1004 728 192 442 218 959 218 1425M1466-26c-410 0-653 351-743 838-70 376-70 926-70 1284 0 492 0 901 83 1291 122 542 480 709 730 709 262 0 601-173 723-696 83-364 89-793 89-1304 0-416 0-927-76-1304-135-697-512-818-736-818" transform="scale(.01563)"/></defs><use xlink:href="#CMR17-31" id="use7" style="stroke:none;fill:#bfbfbf" transform="scale(.99626)"/><use xlink:href="#CMR17-39" id="use8" style="stroke:none;fill:#bfbfbf" transform="translate(45.69)scale(.99626)"/><use xlink:href="#CMR17-39" id="use9" style="stroke:none;fill:#bfbfbf" transform="translate(91.381)scale(.99626)"/><use xlink:href="#CMR17-30" id="use10" style="stroke:none;fill:#bfbfbf" transform="translate(137.071)scale(.99626)"/></g></g><g id="xtick_3"><use xlink:href="#mcdabfe37c5" id="line2d_4" x="155.585" y="201.6" style="stroke:#bfbfbf;stroke-width:.8;fill:#bfbfbf"/><g id="text_3" transform="matrix(.13 0 0 -.13 142.903 217.594)"><use xlink:href="#CMR17-31" id="use11" style="stroke:none;fill:#bfbfbf" transform="scale(.99626)"/><use xlink:href="#CMR17-39" id="use12" style="stroke:none;fill:#bfbfbf" transform="translate(45.69)scale(.99626)"/><use xlink:href="#CMR17-39" id="use13" style="stroke:none;fill:#bfbfbf" transform="translate(91.381)scale(.99626)"/><use xlink:href="#CMR17-35" id="use14" style="stroke:none;fill:#bfbfbf" transform="translate(137.071)scale(.99626)"/></g></g><g id="xtick_4"><use xlink:href="#mcdabfe37c5" id="line2d_5" x="199.119" y="201.6" style="stroke:#bfbfbf;stroke-width:.8;fill:#bfbfbf"/><g id="text_4" transform="matrix(.13 0 0 -.13 186.438 217.594)"><defs id="defs14"><path id="CMR17-32" d="M2669 989h-115c-64-453-116-530-141-569-32-51-493-51-583-51H602c230 250 678 703 1222 1228 390 370 845 805 845 1438 0 755-602 1189-1274 1189-704 0-1133-620-1133-1194 0-250 186-282 263-282 64 0 256 39 256 262 0 197-167 254-256 254-39 0-77-6-103-19 122 545 493 813 884 813 556 0 921-441 921-1023 0-556-326-1035-691-1451L262 146V0h2253z" transform="scale(.01563)"/></defs><use xlink:href="#CMR17-32" id="use15" style="stroke:none;fill:#bfbfbf" transform="scale(.99626)"/><use xlink:href="#CMR17-30" id="use16" style="stroke:none;fill:#bfbfbf" transform="translate(45.69)scale(.99626)"/><use xlink:href="#CMR17-30" id="use17" style="stroke:none;fill:#bfbfbf" transform="translate(91.381)scale(.99626)"/><use xlink:href="#CMR17-30" id="use18" style="stroke:none;fill:#bfbfbf" transform="translate(137.071)scale(.99626)"/></g></g><g id="xtick_5"><use xlink:href="#mcdabfe37c5" id="line2d_6" x="242.654" y="201.6" style="stroke:#bfbfbf;stroke-width:.8;fill:#bfbfbf"/><g id="text_5" transform="matrix(.13 0 0 -.13 229.973 217.594)"><use xlink:href="#CMR17-32" id="use19" style="stroke:none;fill:#bfbfbf" transform="scale(.99626)"/><use xlink:href="#CMR17-30" id="use20" style="stroke:none;fill:#bfbfbf" transform="translate(45.69)scale(.99626)"/><use xlink:href="#CMR17-30" id="use21" style="stroke:none;fill:#bfbfbf" transform="translate(91.381)scale(.99626)"/><use xlink:href="#CMR17-35" id="use22" style="stroke:none;fill:#bfbfbf" transform="translate(137.071)scale(.99626)"/></g></g><g id="xtick_6"><use xlink:href="#mcdabfe37c5" id="line2d_7" x="286.189" y="201.6" style="stroke:#bfbfbf;stroke-width:.80025169;fill:#bfbfbf;stroke-dasharray:none"/><g id="text_6" transform="matrix(.13 0 0 -.13 273.508 217.594)"><use xlink:href="#CMR17-32" id="use23" style="stroke:none;fill:#bfbfbf" transform="scale(.99626)"/><use xlink:href="#CMR17-30" id="use24" style="stroke:none;fill:#bfbfbf" transform="translate(45.69)scale(.99626)"/><use xlink:href="#CMR17-31" id="use25" style="stroke:none;fill:#bfbfbf" transform="translate(91.381)scale(.99626)"/><use xlink:href="#CMR17-30" id="use26" style="stroke:none;fill:#bfbfbf" transform="translate(137.071)scale(.99626)"/></g></g><g id="xtick_7"><use xlink:href="#mcdabfe37c5" id="line2d_8" x="329.724" y="201.6" style="stroke:#bfbfbf;stroke-width:.8;fill:#bfbfbf"/><g id="text_7" transform="matrix(.13 0 0 -.13 317.043 217.594)"><use xlink:href="#CMR17-32" id="use27" style="stroke:none;fill:#bfbfbf" transform="scale(.99626)"/><use xlink:href="#CMR17-30" id="use28" style="stroke:none;fill:#bfbfbf" transform="translate(45.69)scale(.99626)"/><use xlink:href="#CMR17-31" id="use29" style="stroke:none;fill:#bfbfbf" transform="translate(91.381)scale(.99626)"/><use xlink:href="#CMR17-35" id="use30" style="stroke:none;fill:#bfbfbf" transform="translate(137.071)scale(.99626)"/></g></g><g id="xtick_8"><use xlink:href="#mcdabfe37c5" id="line2d_9" x="373.259" y="201.6" style="stroke:#bfbfbf;stroke-width:.8;fill:#bfbfbf"/><g id="text_8" transform="matrix(.13 0 0 -.13 360.577 217.594)"><use xlink:href="#CMR17-32" id="use31" style="stroke:none;fill:#bfbfbf" transform="scale(.99626)"/><use xlink:href="#CMR17-30" id="use32" style="stroke:none;fill:#bfbfbf" transform="translate(45.69)scale(.99626)"/><use xlink:href="#CMR17-32" id="use33" style="stroke:none;fill:#bfbfbf" transform="translate(91.381)scale(.99626)"/><use xlink:href="#CMR17-30" id="use34" style="stroke:none;fill:#bfbfbf" transform="translate(137.071)scale(.99626)"/></g></g><g id="xtick_9"><use xlink:href="#mcdabfe37c5" id="line2d_10" x="416.794" y="201.6" style="stroke:#bfbfbf;stroke-width:.8;fill:#bfbfbf"/><g id="text_9" transform="matrix(.13 0 0 -.13 404.112 217.594)"><use xlink:href="#CMR17-32" id="use35" style="stroke:none;fill:#bfbfbf" transform="scale(.99626)"/><use xlink:href="#CMR17-30" id="use36" style="stroke:none;fill:#bfbfbf" transform="translate(45.69)scale(.99626)"/><use xlink:href="#CMR17-32" id="use37" style="stroke:none;fill:#bfbfbf" transform="translate(91.381)scale(.99626)"/><use xlink:href="#CMR17-35" id="use38" style="stroke:none;fill:#bfbfbf" transform="translate(137.071)scale(.99626)"/></g></g><g id="text_10" style="fill:#000;fill-opacity:1" transform="matrix(.13 0 0 -.13 217.97 233.106)"><defs id="defs38"><path id="CMR17-79" d="M2496 2197c160 389 448 389 538 389v166h-404c-134 0-345 0-473 6v-166c243-19 249-198 249-249 0-63-12-95-44-172L1664 449 902 2306c-32 76-32 120-32 127 0 140 148 153 301 153v172c-153-6-429-6-589-6-172 0-377 0-518 6v-172c346 0 384-32 467-236L1485 15c-288-753-455-1193-858-1193-70 0-230 19-345 134 147 13 211 102 211 211 0 108-77 204-205 204-141 0-211-96-211-211 0-255 262-440 550-440 371 0 602 358 730 676z" transform="scale(.01563)"/><path id="CMR17-65" d="M2438 1472c26 26 26 39 26 104 0 662-346 1240-1075 1240-679 0-1216-647-1216-1433C173 551 781-64 1459-64c717 0 999 671 999 804 0 44-39 44-52 44-44 0-51-13-76-88-141-431-493-645-826-645-275 0-550 152-723 429-199 323-199 696-199 992Zm-1849 96c45 937 537 1146 793 1146 436 0 730-417 736-1146z" transform="scale(.01563)"/><path id="CMR17-61" d="M2304 1653c0 419 0 641-269 890-237 209-512 273-729 273-506 0-871-409-871-845 0-243 192-243 231-243 83 0 230 50 230 226 0 158-122 227-230 227-26 0-58-7-77-13 134 424 480 546 704 546 320 0 672-285 672-829v-285c-378 0-832-51-1191-243-403-224-518-544-518-787 0-493 576-634 915-634 352 0 679 203 819 575 13-278 192-529 474-529 134 0 474 88 474 585v353h-116V562c0-384-172-434-256-434-262 0-262 330-262 610zm-339-783c0-553-397-832-749-832-320 0-570 237-570 532 0 191 84 530 455 735 307 173 659 199 864 199z" transform="scale(.01563)"/><path id="CMR17-72" d="M960 1497c0 615 262 1191 742 1191 45 0 90-6 135-26 0 0-141-45-141-210 0-154 122-218 218-218 76 0 217 45 217 224 0 205-205 332-422 332-487 0-698-473-762-697h-6v697l-743-70v-166c378 0 436-39 436-346V428c0-244-26-275-436-275V-13C352 0 646 0 813 0c185 0 512 0 685-13v166c-461 0-538 0-538 287z" transform="scale(.01563)"/></defs><use xlink:href="#CMR17-79" id="use39" style="fill:#bfbfbf;fill-opacity:1;stroke:none" transform="scale(.99626)"/><use xlink:href="#CMR17-65" id="use40" style="fill:#bfbfbf;fill-opacity:1;stroke:none" transform="translate(45.69)scale(.99626)"/><use xlink:href="#CMR17-61" id="use41" style="fill:#bfbfbf;fill-opacity:1;stroke:none" transform="translate(86.176)scale(.99626)"/><use xlink:href="#CMR17-72" id="use42" style="fill:#bfbfbf;fill-opacity:1;stroke:none" transform="translate(131.867)scale(.99626)"/></g></g><g id="matplotlib.axis_2"><g id="ytick_1"><g id="line2d_11"><defs id="defs42"><path id="m78bc3d2642" d="M0 0h-3.5" style="stroke:#000;stroke-width:.8"/></defs><use xlink:href="#m78bc3d2642" id="use43" x="42.394" y="16.036" style="stroke:#bfbfbf;stroke-width:.8;fill:#bfbfbf"/></g><use xlink:href="#CMR17-31" id="text_11" style="stroke:none;fill:#bfbfbf" transform="matrix(.12951 0 0 -.12951 29.053 20.533)"/></g><g id="ytick_2"><use xlink:href="#m78bc3d2642" id="line2d_12" x="42.394" y="39.6" style="stroke:#bfbfbf;stroke-width:.8;fill:#bfbfbf"/><use xlink:href="#CMR17-35" id="text_12" style="stroke:none;fill:#bfbfbf" transform="matrix(.12951 0 0 -.12951 29.053 44.097)"/></g><g id="ytick_3"><use xlink:href="#m78bc3d2642" id="line2d_13" x="42.394" y="69.055" style="stroke:#bfbfbf;stroke-width:.8;fill:#bfbfbf"/><g id="text_13" transform="matrix(.13 0 0 -.13 22.712 73.552)"><use xlink:href="#CMR17-31" id="use44" style="stroke:none;fill:#bfbfbf" transform="scale(.99626)"/><use xlink:href="#CMR17-30" id="use45" style="stroke:none;fill:#bfbfbf" transform="translate(45.69)scale(.99626)"/></g></g><g id="ytick_4"><use xlink:href="#m78bc3d2642" id="line2d_14" x="42.394" y="127.964" style="stroke:#bfbfbf;stroke-width:.8;fill:#bfbfbf"/><g id="text_14" transform="matrix(.13 0 0 -.13 22.712 132.46)"><use xlink:href="#CMR17-32" id="use46" style="stroke:none;fill:#bfbfbf" transform="scale(.99626)"/><use xlink:href="#CMR17-30" id="use47" style="stroke:none;fill:#bfbfbf" transform="translate(45.69)scale(.99626)"/></g></g><g id="ytick_5"><use xlink:href="#m78bc3d2642" id="line2d_15" x="42.394" y="186.873" style="stroke:#bfbfbf;stroke-width:.8;fill:#bfbfbf"/><g id="text_15" transform="matrix(.13 0 0 -.13 22.712 191.37)"><defs id="defs47"><path id="CMR17-33" d="M1414 2157c570 0 820-495 820-1067 0-770-410-1065-781-1065-339 0-890 169-1063 668 32-13 64-13 96-13 154 0 269 102 269 268 0 185-141 268-269 268-108 0-275-51-275-290 0-591 576-1054 1255-1054 710 0 1254 558 1254 1213 0 622-512 1072-1120 1142 486 101 954 529 954 1102 0 491-506 850-1082 850-582 0-1094-350-1094-850 0-219 166-257 249-257 135 0 250 83 250 249 0 165-115 248-250 248-25 0-57 0-83-12 186 402 691 475 915 475s647-107 647-712c0-177-26-492-244-770-192-246-409-246-620-266-32 0-180-15-205-15-45-6-71-12-71-61 0-45 7-51 135-51z" transform="scale(.01563)"/></defs><use xlink:href="#CMR17-33" id="use48" style="stroke:none;fill:#bfbfbf" transform="scale(.99626)"/><use xlink:href="#CMR17-30" id="use49" style="stroke:none;fill:#bfbfbf" transform="translate(45.69)scale(.99626)"/></g></g><g id="text_16" transform="rotate(-90 83.194 67)scale(.13 -.13)"><defs id="defs49"><path id="CMR17-70" d="M1408-1063c-410 0-435 26-435 274V402c185-268 454-440 793-440 640 0 1287 561 1287 1426 0 803-557 1414-1216 1414-384 0-698-210-877-464v464l-762-70v-165c378 0 436-39 436-344V-789c0-242-26-274-436-274v-165c154 12 436 12 602 12s454 0 608-12zM973 2012c0 90 0 223 249 459 32 26 250 217 570 217 467 0 851-580 851-1306S2234 64 1728 64c-230 0-480 108-672 408-83 140-83 178-83 280Z" transform="scale(.01563)"/><path id="CMR17-6f" d="M2758 1356c0 820-595 1460-1292 1460-698 0-1293-640-1293-1460C173 551 768-64 1466-64c697 0 1292 615 1292 1420M1466 51c-301 0-557 179-704 429-160 287-180 646-180 928 0 269 13 602 180 890 128 211 377 416 704 416 288 0 531-160 684-384 199-301 199-723 199-922 0-250-13-633-186-941-179-294-454-416-697-416" transform="scale(.01563)"/><path id="CMR17-75" d="M1882 2693v-165c377 0 435-39 435-342V1032c0-532-288-994-762-994-525 0-569 310-569 640v2085l-775-70v-165c256 0 429 0 435-254V1058c0-425 0-697 167-875 83-82 243-247 704-247 544 0 755 441 806 570h7V-63h761v191c-377 0-435 38-435 345v2290z" transform="scale(.01563)"/><path id="CMR17-6c" d="m979 4396-761-70v-166c377 0 435-38 435-343V426c0-242-26-273-435-273V-13C371 0 653 0 813 0c166 0 448 0 601-13v166c-409 0-435 25-435 273z" transform="scale(.01563)"/><path id="CMR17-69" d="M992 3909c0 140-115 261-262 261-141 0-263-114-263-261 0-140 115-261 263-261 140 0 262 115 262 261M243 2706v-165c359 0 410-39 410-344V427c0-243-26-274-435-274V-13C371 0 646 0 806 0c154 0 416 0 564-13v166c-378 0-391 38-391 267v2356z" transform="scale(.01563)"/><path id="CMR17-74" d="M966 2560h896v165H966v1179H851c-13-659-237-1236-781-1236v-108h557V771c0-121 0-835 743-835 377 0 595 370 595 841v363h-115V783c0-439-173-732-442-732-186 0-442 127-442 707Z" transform="scale(.01563)"/><path id="CMR17-6e" d="M2656 1933c0 326-64 857-819 857-506 0-768-390-864-646h-7v646l-755-70v-166c378 0 435-39 435-346V428c0-244-25-275-435-275V-13C365 0 646 0 813 0c166 0 454 0 608-13v166c-410 0-435 25-435 275v1230c0 589 358 1030 806 1030 474 0 525-422 525-730V428c0-244-26-275-435-275V-13c153 13 435 13 601 13 167 0 455 0 608-13v166c-409 0-435 25-435 275z" transform="scale(.01563)"/><path id="CMR17-64" d="M1869 4326v-166c377 0 435-38 435-340V2345c-26 32-288 445-806 445-653 0-1287-582-1287-1426C211 525 806-64 1434-64c544 0 825 401 857 444V-63h775v191c-378 0-436 38-436 345v3923Zm422-3571c0-192-115-365-262-493-218-192-435-224-557-224-186 0-851 96-851 1318 0 1256 742 1332 909 1332 294 0 531-166 678-397 83-134 83-153 83-268z" transform="scale(.01563)"/><path id="CMR17-78" d="M1664 1477c192 249 410 529 589 739 211 242 454 344 736 344v166h-448c-173 0-371 0-519 6v-166c90-13 141-77 141-166 0-115-64-185-96-229l-473-598-564 733c-57 70-57 82-57 114 0 77 64 140 173 140v172c-154-6-429-6-589-6-173 0-378 0-519 6v-172c346 0 423-26 576-217l736-948c13-13 45-51 45-70 0-26-557-706-627-795C480 185 179 160 6 160V0h448c128 0 410 0 525-6v166c-38 6-141 19-141 165 0 115 52 185 109 261l531 650 557-724c51-70 128-166 128-211 0-90-77-141-179-141V-6c154 6 429 6 589 6 173 0 377 0 518-6v166c-320 0-416 12-569 210z" transform="scale(.01563)"/></defs><use xlink:href="#CMR17-70" id="use50" style="stroke:none;fill:#bfbfbf" transform="scale(.99626)"/><use xlink:href="#CMR17-6f" id="use51" style="stroke:none;fill:#bfbfbf" transform="translate(53.498)scale(.99626)"/><use xlink:href="#CMR17-70" id="use52" style="stroke:none;fill:#bfbfbf" transform="translate(99.188)scale(.99626)"/><use xlink:href="#CMR17-75" id="use53" style="stroke:none;fill:#bfbfbf" transform="translate(150.084)scale(.99626)"/><use xlink:href="#CMR17-6c" id="use54" style="stroke:none;fill:#bfbfbf" transform="translate(200.979)scale(.99626)"/><use xlink:href="#CMR17-61" id="use55" style="stroke:none;fill:#bfbfbf" transform="translate(225.85)scale(.99626)"/><use xlink:href="#CMR17-72" id="use56" style="stroke:none;fill:#bfbfbf" transform="translate(271.54)scale(.99626)"/><use xlink:href="#CMR17-69" id="use57" style="stroke:none;fill:#bfbfbf" transform="translate(306.821)scale(.99626)"/><use xlink:href="#CMR17-74" id="use58" style="stroke:none;fill:#bfbfbf" transform="translate(331.692)scale(.99626)"/><use xlink:href="#CMR17-79" id="use59" style="stroke:none;fill:#bfbfbf" transform="translate(364.37)scale(.99626)"/><use xlink:href="#CMR17-69" id="use60" style="stroke:none;fill:#bfbfbf" transform="translate(442.74)scale(.99626)"/><use xlink:href="#CMR17-6e" id="use61" style="stroke:none;fill:#bfbfbf" transform="translate(467.61)scale(.99626)"/><use xlink:href="#CMR17-64" id="use62" style="stroke:none;fill:#bfbfbf" transform="translate(518.506)scale(.99626)"/><use xlink:href="#CMR17-65" id="use63" style="stroke:none;fill:#bfbfbf" transform="translate(569.401)scale(.99626)"/><use xlink:href="#CMR17-78" id="use64" style="stroke:none;fill:#bfbfbf" transform="translate(609.887)scale(.99626)"/></g></g><g id="line2d_16"><path id="path64" d="m155.585 145.636 43.534 11.782 43.535-106.036h87.07l43.535-23.564 43.535-11.782" clip-path="url(#p8bc7e3d8e6)" style="fill:none;stroke:#1f77b4;stroke-width:1.5;stroke-linecap:square"/><defs id="defs64"><path id="m013185af21" d="M0 2.5a2.5 2.5 0 1 0 0-5 2.5 2.5 0 0 0 0 5z" style="stroke:#1f77b4"/></defs><g id="g71" clip-path="url(#p8bc7e3d8e6)"><use xlink:href="#m013185af21" id="use65" x="155.585" y="145.636" style="fill:#1f77b4;stroke:#1f77b4"/><use xlink:href="#m013185af21" id="use66" x="199.119" y="157.418" style="fill:#1f77b4;stroke:#1f77b4"/><use xlink:href="#m013185af21" id="use67" x="242.654" y="51.382" style="fill:#1f77b4;stroke:#1f77b4"/><use xlink:href="#m013185af21" id="use68" x="286.189" y="51.382" style="fill:#1f77b4;stroke:#1f77b4"/><use xlink:href="#m013185af21" id="use69" x="329.724" y="51.382" style="fill:#1f77b4;stroke:#1f77b4"/><use xlink:href="#m013185af21" id="use70" x="373.259" y="27.818" style="fill:#1f77b4;stroke:#1f77b4"/><use xlink:href="#m013185af21" id="use71" x="416.794" y="16.036" style="fill:#1f77b4;stroke:#1f77b4"/></g></g><g id="line2d_17"><path id="path71" d="m68.515 74.945 43.535-11.781L155.585 39.6l43.534 76.582 43.535-17.673 43.535 58.91 43.535 35.345 43.535-11.782 43.535-111.927" clip-path="url(#p8bc7e3d8e6)" style="fill:none;stroke:#ff7f0e;stroke-width:1.5;stroke-linecap:square"/><defs id="defs71"><path id="m494665db37" d="M0 2.5a2.5 2.5 0 1 0 0-5 2.5 2.5 0 0 0 0 5z" style="stroke:#ff7f0e"/></defs><g id="g80" clip-path="url(#p8bc7e3d8e6)"><use xlink:href="#m494665db37" id="use72" x="68.515" y="74.945" style="fill:#ff7f0e;stroke:#ff7f0e"/><use xlink:href="#m494665db37" id="use73" x="112.05" y="63.164" style="fill:#ff7f0e;stroke:#ff7f0e"/><use xlink:href="#m494665db37" id="use74" x="155.585" y="39.6" style="fill:#ff7f0e;stroke:#ff7f0e"/><use xlink:href="#m494665db37" id="use75" x="199.119" y="116.182" style="fill:#ff7f0e;stroke:#ff7f0e"/><use xlink:href="#m494665db37" id="use76" x="242.654" y="98.509" style="fill:#ff7f0e;stroke:#ff7f0e"/><use xlink:href="#m494665db37" id="use77" x="286.189" y="157.418" style="fill:#ff7f0e;stroke:#ff7f0e"/><use xlink:href="#m494665db37" id="use78" x="329.724" y="192.764" style="fill:#ff7f0e;stroke:#ff7f0e"/><use xlink:href="#m494665db37" id="use79" x="373.259" y="180.982" style="fill:#ff7f0e;stroke:#ff7f0e"/><use xlink:href="#m494665db37" id="use80" x="416.794" y="69.055" style="fill:#ff7f0e;stroke:#ff7f0e"/></g></g><g id="line2d_18"><path id="path80" d="m68.515 86.727 43.535-64.8 43.535-5.89 43.534 5.89 43.535 5.891h43.535l43.535 5.891h43.535l43.535-11.782" clip-path="url(#p8bc7e3d8e6)" style="fill:none;stroke:#2ca02c;stroke-width:1.5;stroke-linecap:square"/><defs id="defs80"><path id="me7a7a48989" d="M0 2.5a2.5 2.5 0 1 0 0-5 2.5 2.5 0 0 0 0 5z" style="stroke:#2ca02c"/></defs><g id="g89" clip-path="url(#p8bc7e3d8e6)"><use xlink:href="#me7a7a48989" id="use81" x="68.515" y="86.727" style="fill:#2ca02c;stroke:#2ca02c"/><use xlink:href="#me7a7a48989" id="use82" x="112.05" y="21.927" style="fill:#2ca02c;stroke:#2ca02c"/><use xlink:href="#me7a7a48989" id="use83" x="155.585" y="16.036" style="fill:#2ca02c;stroke:#2ca02c"/><use xlink:href="#me7a7a48989" id="use84" x="199.119" y="21.927" style="fill:#2ca02c;stroke:#2ca02c"/><use xlink:href="#me7a7a48989" id="use85" x="242.654" y="27.818" style="fill:#2ca02c;stroke:#2ca02c"/><use xlink:href="#me7a7a48989" id="use86" x="286.189" y="27.818" style="fill:#2ca02c;stroke:#2ca02c"/><use xlink:href="#me7a7a48989" id="use87" x="329.724" y="33.709" style="fill:#2ca02c;stroke:#2ca02c"/><use xlink:href="#me7a7a48989" id="use88" x="373.259" y="33.709" style="fill:#2ca02c;stroke:#2ca02c"/><use xlink:href="#me7a7a48989" id="use89" x="416.794" y="21.927" style="fill:#2ca02c;stroke:#2ca02c"/></g></g><g id="line2d_19"><path id="path89" d="M68.515 16.036h43.535l43.535 5.891 43.534-5.89h43.535l43.535 5.89 43.535-5.89 43.535 5.89 43.535 5.891" clip-path="url(#p8bc7e3d8e6)" style="fill:none;stroke:#d62728;stroke-width:1.5;stroke-linecap:square"/><defs id="defs89"><path id="mcb5092300d" d="M0 2.5a2.5 2.5 0 1 0 0-5 2.5 2.5 0 0 0 0 5z" style="stroke:#d62728"/></defs><g id="g98" clip-path="url(#p8bc7e3d8e6)"><use xlink:href="#mcb5092300d" id="use90" x="68.515" y="16.036" style="fill:#d62728;stroke:#d62728"/><use xlink:href="#mcb5092300d" id="use91" x="112.05" y="16.036" style="fill:#d62728;stroke:#d62728"/><use xlink:href="#mcb5092300d" id="use92" x="155.585" y="21.927" style="fill:#d62728;stroke:#d62728"/><use xlink:href="#mcb5092300d" id="use93" x="199.119" y="16.036" style="fill:#d62728;stroke:#d62728"/><use xlink:href="#mcb5092300d" id="use94" x="242.654" y="16.036" style="fill:#d62728;stroke:#d62728"/><use xlink:href="#mcb5092300d" id="use95" x="286.189" y="21.927" style="fill:#d62728;stroke:#d62728"/><use xlink:href="#mcb5092300d" id="use96" x="329.724" y="16.036" style="fill:#d62728;stroke:#d62728"/><use xlink:href="#mcb5092300d" id="use97" x="373.259" y="21.927" style="fill:#d62728;stroke:#d62728"/><use xlink:href="#mcb5092300d" id="use98" x="416.794" y="27.818" style="fill:#d62728;stroke:#d62728"/></g></g><path id="patch_5" d="M42.394 201.6V7.2" style="fill:#bfbfbf;stroke:#bfbfbf;stroke-width:.8;stroke-linecap:square;stroke-linejoin:miter"/><path id="patch_6" d="M416.794 201.6V7.2" style="fill:#bfbfbf;stroke:#bfbfbf;stroke-width:.8;stroke-linecap:square;stroke-linejoin:miter"/><path id="patch_7" d="M42.394 201.6h374.4" style="fill:#bfbfbf;stroke:#bfbfbf;stroke-width:.8;stroke-linecap:square;stroke-linejoin:miter"/><path id="patch_8" d="M42.394 7.2h374.4" style="fill:#bfbfbf;stroke:#bfbfbf;stroke-width:.8;stroke-linecap:square;stroke-linejoin:miter"/><path id="patch_9" d="M67.765 114.983V99.188h-2.25l3-12.002 3 12.002h-2.25v15.795z" style="stroke:none;stroke-linecap:round;fill:#bfbfbf"/><g id="text_17"><g id="g101" transform="matrix(.13 0 0 -.13 54.072 126.434)"><defs id="defs98"><path id="CMR17-43" d="M3974 4289c0 114-6 121-44 121-26 0-32-7-77-83l-282-535c-313 395-697 624-1190 624-1095 0-2087-960-2087-2268 0-1322 992-2276 2093-2276 979 0 1587 858 1587 1589 0 63 0 89-57 89-51 0-51-19-58-76C3808 585 3168 38 2477 38 1824 38 781 495 781 2147c0 1658 1062 2103 1683 2103 723 0 1248-622 1370-1505 12-77 12-90 70-90 70 0 70 13 70 128z" transform="scale(.01563)"/><path id="CMR17-2b" d="M2413 1472h1696c89 0 198 0 198 108 0 115-102 115-198 115H2413v1691c0 89 0 198-109 198-115 0-115-102-115-198V1695H493c-90 0-199 0-199-108 0-115 103-115 199-115h1696V-218c0-89 0-198 109-198 115 0 115 102 115 198z" transform="scale(.01563)"/></defs><use xlink:href="#CMR17-43" id="use99" style="stroke:none;fill:#bfbfbf" transform="scale(.99626)"/><use xlink:href="#CMR17-2b" id="use100" style="stroke:none;fill:#bfbfbf" transform="translate(66.51)scale(.99626)"/><use xlink:href="#CMR17-2b" id="use101" style="stroke:none;fill:#bfbfbf" transform="translate(138.225)scale(.99626)"/></g><g id="g109" transform="matrix(.13 0 0 -.13 46.64 139.745)"><defs id="defs101"><path id="CMR17-73" d="M1978 2697c0 116-7 122-45 122-26 0-32-6-109-102-19-26-77-91-96-116-205 218-493 218-602 218-710 0-966-372-966-743 0-578 653-711 838-751 404-82 544-108 679-224 83-76 224-217 224-447 0-270-154-616-743-616-556 0-755 422-870 983-19 89-19 96-70 96-52 0-58-7-58-134V63c0-114 6-121 45-121 32 0 38 7 70 58 39 57 135 211 173 276C576 103 800-64 1158-64c634 0 973 347 973 848 0 328-173 501-256 578-192 199-416 244-685 295-352 78-800 168-800 560 0 166 90 520 736 520 685 0 724-643 736-849 7-32 39-39 58-39 58 0 58 20 58 129z" transform="scale(.01563)"/></defs><use xlink:href="#CMR17-72" id="use102" style="stroke:none;fill:#bfbfbf" transform="scale(.99626)"/><use xlink:href="#CMR17-65" id="use103" style="stroke:none;fill:#bfbfbf" transform="translate(35.28)scale(.99626)"/><use xlink:href="#CMR17-6c" id="use104" style="stroke:none;fill:#bfbfbf" transform="translate(75.766)scale(.99626)"/><use xlink:href="#CMR17-65" id="use105" style="stroke:none;fill:#bfbfbf" transform="translate(100.637)scale(.99626)"/><use xlink:href="#CMR17-61" id="use106" style="stroke:none;fill:#bfbfbf" transform="translate(141.123)scale(.99626)"/><use xlink:href="#CMR17-73" id="use107" style="stroke:none;fill:#bfbfbf" transform="translate(186.814)scale(.99626)"/><use xlink:href="#CMR17-65" id="use108" style="stroke:none;fill:#bfbfbf" transform="translate(222.615)scale(.99626)"/><use xlink:href="#CMR17-64" id="use109" style="stroke:none;fill:#bfbfbf" transform="translate(263.1)scale(.99626)"/></g></g><path id="patch_10" d="M146.128 79.553V58.04h-2.25l3-11.997 3 11.997h-2.25v21.512z" style="stroke:none;stroke-linecap:round;fill:#bfbfbf"/><g id="text_18"><g id="g113" transform="matrix(.13 0 0 -.13 127.945 91.089)"><defs id="defs109"><path id="CMR17-52" d="M2509 2146c608 122 1120 530 1120 1040 0 599-679 1140-1575 1140H333v-166c441 0 512 0 512-287V415c0-287-71-287-512-287V-26h1433v154c-441 0-512 0-512 289v1695h749c365 0 570-148 659-231 256-249 256-422 256-857 0-429 0-647 192-864 244-262 570-288 711-288 473 0 544 524 544 631 0 37 0 82-58 82-51 0-57-38-57-63-32-410-218-548-416-548-352 0-391 401-429 790-19 134-32 229-45 369-38 319-90 784-851 1013m-525 68h-730v1699c0 216 13 247 269 247h467c532 0 1152-183 1152-970 0-818-678-976-1158-976" transform="scale(.01563)"/><path id="CMR17-4f" d="M4307 2135c0 1302-941 2281-2003 2281-1088 0-2010-992-2010-2281 0-1290 935-2263 2004-2263 1094 0 2009 992 2009 2263M2304-13C1574-13 781 711 781 2217c0 1499 870 2084 1517 2084 678 0 1523-603 1523-2084C3821 686 3008-13 2304-13" transform="scale(.01563)"/><path id="CMR17-54" d="M3981 4326H288L179 2918h115c84 1058 173 1242 1159 1242 115 0 301 0 352-6 121-19 121-96 121-242V459c0-229-19-299-550-299h-179V0h1881v160h-179c-531 0-550 70-550 299v3453c0 140 0 217 115 242 51 6 237 6 352 6 979 0 1075-184 1158-1242h116z" transform="scale(.01563)"/></defs><use xlink:href="#CMR17-52" id="use110" style="stroke:none;fill:#bfbfbf" transform="scale(.99626)"/><use xlink:href="#CMR17-4f" id="use111" style="stroke:none;fill:#bfbfbf" transform="translate(65.189)scale(.99626)"/><use xlink:href="#CMR17-4f" id="use112" style="stroke:none;fill:#bfbfbf" transform="translate(136.903)scale(.99626)"/><use xlink:href="#CMR17-54" id="use113" style="stroke:none;fill:#bfbfbf" transform="translate(208.618)scale(.99626)"/></g><g id="g121" transform="matrix(.13 0 0 -.13 125.002 104.4)"><use xlink:href="#CMR17-72" id="use114" style="stroke:none;fill:#bfbfbf" transform="scale(.99626)"/><use xlink:href="#CMR17-65" id="use115" style="stroke:none;fill:#bfbfbf" transform="translate(35.28)scale(.99626)"/><use xlink:href="#CMR17-6c" id="use116" style="stroke:none;fill:#bfbfbf" transform="translate(75.766)scale(.99626)"/><use xlink:href="#CMR17-65" id="use117" style="stroke:none;fill:#bfbfbf" transform="translate(100.637)scale(.99626)"/><use xlink:href="#CMR17-61" id="use118" style="stroke:none;fill:#bfbfbf" transform="translate(141.123)scale(.99626)"/><use xlink:href="#CMR17-73" id="use119" style="stroke:none;fill:#bfbfbf" transform="translate(186.814)scale(.99626)"/><use xlink:href="#CMR17-65" id="use120" style="stroke:none;fill:#bfbfbf" transform="translate(222.615)scale(.99626)"/><use xlink:href="#CMR17-64" id="use121" style="stroke:none;fill:#bfbfbf" transform="translate(263.1)scale(.99626)"/></g></g><path id="patch_11" d="M224.49 148.554v-31.45h-2.25l3-12 3 12h-2.25v31.45z" style="stroke:none;stroke-linecap:round;fill:#bfbfbf"/><g id="text_19"><g id="g125" transform="matrix(.13 0 0 -.13 206.927 160.25)"><defs id="defs121"><path id="CMR17-45" d="M3885 1615h-115C3629 676 3546 166 2419 166h-889c-256 0-269 31-269 248v1762h601c602 0 660-216 660-746h115v1651h-115c0-524-58-739-660-739h-601v1571c0 215 13 247 269 247h876c992 0 1108-391 1197-1231h115l-153 1396H326v-165c442 0 512 0 512-286V451c0-285-70-285-512-285V0h3328z" transform="scale(.01563)"/><path id="CMR17-4e" d="M1312 4250c-45 70-51 70-173 70H326v-160h122c256 0 371-31 390-38V610c0-159 0-457-512-457V-13C474 0 742 0 902 0s429 0 576-13v166c-512 0-512 298-512 457v3423c45-38 45-51 90-114L3430 76c45-76 64-76 96-76 64 0 64 19 64 139v3566c0 158 0 455 512 455v166c-147-6-416-6-576-6s-428 0-576 6v-166c512 0 512-298 512-457V763Z" transform="scale(.01563)"/></defs><use xlink:href="#CMR17-43" id="use122" style="stroke:none;fill:#bfbfbf" transform="scale(.99626)"/><use xlink:href="#CMR17-45" id="use123" style="stroke:none;fill:#bfbfbf" transform="translate(66.51)scale(.99626)"/><use xlink:href="#CMR17-52" id="use124" style="stroke:none;fill:#bfbfbf" transform="translate(129.096)scale(.99626)"/><use xlink:href="#CMR17-4e" id="use125" style="stroke:none;fill:#bfbfbf" transform="translate(196.887)scale(.99626)"/></g><g id="g137" transform="matrix(.13 0 0 -.13 191.705 173.562)"><defs id="defs125"><path id="CMR17-63" d="M2234 2240c-122 0-301 0-301-223 0-179 147-230 230-230 45 0 231 20 231 237 0 443-436 779-928 779-679 0-1255-625-1255-1440C211 516 813-64 1466-64c793 0 992 741 992 812 0 26-7 45-52 45-44 0-51-6-76-90-167-523-532-652-807-652-409 0-902 376-902 1318 0 969 473 1319 851 1319 250 0 621-115 762-448" transform="scale(.01563)"/></defs><use xlink:href="#CMR17-64" id="use126" style="stroke:none;fill:#bfbfbf" transform="scale(.99626)"/><use xlink:href="#CMR17-69" id="use127" style="stroke:none;fill:#bfbfbf" transform="translate(50.895)scale(.99626)"/><use xlink:href="#CMR17-73" id="use128" style="stroke:none;fill:#bfbfbf" transform="translate(75.766)scale(.99626)"/><use xlink:href="#CMR17-63" id="use129" style="stroke:none;fill:#bfbfbf" transform="translate(111.568)scale(.99626)"/><use xlink:href="#CMR17-6f" id="use130" style="stroke:none;fill:#bfbfbf" transform="translate(152.053)scale(.99626)"/><use xlink:href="#CMR17-6e" id="use131" style="stroke:none;fill:#bfbfbf" transform="translate(197.744)scale(.99626)"/><use xlink:href="#CMR17-74" id="use132" style="stroke:none;fill:#bfbfbf" transform="translate(246.037)scale(.99626)"/><use xlink:href="#CMR17-69" id="use133" style="stroke:none;fill:#bfbfbf" transform="translate(281.318)scale(.99626)"/><use xlink:href="#CMR17-6e" id="use134" style="stroke:none;fill:#bfbfbf" transform="translate(306.189)scale(.99626)"/><use xlink:href="#CMR17-75" id="use135" style="stroke:none;fill:#bfbfbf" transform="translate(354.482)scale(.99626)"/><use xlink:href="#CMR17-65" id="use136" style="stroke:none;fill:#bfbfbf" transform="translate(405.377)scale(.99626)"/><use xlink:href="#CMR17-73" id="use137" style="stroke:none;fill:#bfbfbf" transform="translate(445.863)scale(.99626)"/></g><g id="g144" transform="matrix(.13 0 0 -.13 204.37 186.873)"><defs id="defs137"><path id="CMR17-46" d="M3482 4325H326v-165c442 0 512 0 512-286V446c0-286-70-286-512-286V0h1575v160h-141c-486 0-499 63-499 292v1623h576c595 0 653-210 653-743h115v1655h-115c0-537-58-747-653-747h-576v1671c0 217 13 249 269 249h825c967 0 1075-395 1165-1244h115z" transform="scale(.01563)"/></defs><use xlink:href="#CMR17-46" id="use138" style="stroke:none;fill:#bfbfbf" transform="scale(.99626)"/><use xlink:href="#CMR17-6f" id="use139" style="stroke:none;fill:#bfbfbf" transform="translate(52.177)scale(.99626)"/><use xlink:href="#CMR17-72" id="use140" style="stroke:none;fill:#bfbfbf" transform="translate(97.867)scale(.99626)"/><use xlink:href="#CMR17-74" id="use141" style="stroke:none;fill:#bfbfbf" transform="translate(133.148)scale(.99626)"/><use xlink:href="#CMR17-72" id="use142" style="stroke:none;fill:#bfbfbf" transform="translate(168.429)scale(.99626)"/><use xlink:href="#CMR17-61" id="use143" style="stroke:none;fill:#bfbfbf" transform="translate(203.71)scale(.99626)"/><use xlink:href="#CMR17-6e" id="use144" style="stroke:none;fill:#bfbfbf" transform="translate(249.4)scale(.99626)"/></g></g><g id="legend_1"><path id="patch_12" d="M309.83 174.91h76.84q2.6 0 2.6-2.6V64.9q0-2.6-2.6-2.6h-76.84q-2.6 0-2.6 2.6v107.41q0 2.6 2.6 2.6" style="opacity:0;fill:none"/><g id="line2d_20"><path id="path144" d="M312.43 72.05h19.5" style="fill:none;stroke:#1f77b4;stroke-width:1.5;stroke-linecap:square"/><use xlink:href="#m013185af21" id="use145" x="322.18" y="72.05" style="fill:#1f77b4;stroke:#1f77b4"/></g><g id="text_20" transform="matrix(.13 0 0 -.13 342.33 76.6)"><defs id="defs145"><path id="CMR17-50" d="M1267 2042h1024c826 0 1427 536 1427 1142 0 607-588 1168-1427 1168H333v-166c441 0 512 0 512-287V446c0-286-71-286-512-286V0h1446v160c-441 0-512 0-512 286zm-13 134v1762c0 217 13 248 269 248h647c825 0 1062-472 1062-1002 0-580-282-1008-1062-1008z" transform="scale(.01563)"/><path id="CMR17-68" d="M2656 1933c0 326-64 857-819 857-525 0-781-422-858-633h-6v2239l-762-70v-166c378 0 435-38 435-343V426c0-242-25-273-435-273V-13C365 0 646 0 813 0c166 0 454 0 608-13v166c-410 0-435 25-435 275v1230c0 589 358 1030 806 1030 474 0 525-422 525-730V428c0-244-26-275-435-275V-13c153 13 435 13 601 13 167 0 455 0 608-13v166c-409 0-435 25-435 275z" transform="scale(.01563)"/></defs><use xlink:href="#CMR17-50" id="use146" style="stroke:none;fill:#bfbfbf" transform="scale(.99626)"/><use xlink:href="#CMR17-79" id="use147" style="stroke:none;fill:#bfbfbf" transform="translate(62.586)scale(.99626)"/><use xlink:href="#CMR17-74" id="use148" style="stroke:none;fill:#bfbfbf" transform="translate(110.88)scale(.99626)"/><use xlink:href="#CMR17-68" id="use149" style="stroke:none;fill:#bfbfbf" transform="translate(146.16)scale(.99626)"/><use xlink:href="#CMR17-6f" id="use150" style="stroke:none;fill:#bfbfbf" transform="translate(197.055)scale(.99626)"/><use xlink:href="#CMR17-6e" id="use151" style="stroke:none;fill:#bfbfbf" transform="translate(242.746)scale(.99626)"/></g><g id="line2d_21"><path id="path151" d="M312.43 90.168h19.5" style="fill:none;stroke:#ff7f0e;stroke-width:1.5;stroke-linecap:square"/><use xlink:href="#m494665db37" id="use152" x="322.18" y="90.168" style="fill:#ff7f0e;stroke:#ff7f0e"/></g><g id="text_21" transform="matrix(.13 0 0 -.13 342.33 94.718)"><use xlink:href="#CMR17-46" id="use153" style="stroke:none;fill:#bfbfbf" transform="scale(.99626)"/><use xlink:href="#CMR17-6f" id="use154" style="stroke:none;fill:#bfbfbf" transform="translate(52.177)scale(.99626)"/><use xlink:href="#CMR17-72" id="use155" style="stroke:none;fill:#bfbfbf" transform="translate(97.867)scale(.99626)"/><use xlink:href="#CMR17-74" id="use156" style="stroke:none;fill:#bfbfbf" transform="translate(133.148)scale(.99626)"/><use xlink:href="#CMR17-72" id="use157" style="stroke:none;fill:#bfbfbf" transform="translate(168.429)scale(.99626)"/><use xlink:href="#CMR17-61" id="use158" style="stroke:none;fill:#bfbfbf" transform="translate(203.71)scale(.99626)"/><use xlink:href="#CMR17-6e" id="use159" style="stroke:none;fill:#bfbfbf" transform="translate(249.4)scale(.99626)"/></g><g id="line2d_22"><path id="path159" d="M312.43 108.287h19.5" style="fill:none;stroke:#2ca02c;stroke-width:1.5;stroke-linecap:square"/><use xlink:href="#me7a7a48989" id="use160" x="322.18" y="108.287" style="fill:#2ca02c;stroke:#2ca02c"/></g><g id="text_22" transform="matrix(.13 0 0 -.13 342.33 112.837)"><use xlink:href="#CMR17-43" id="use161" style="stroke:none;fill:#bfbfbf" transform="scale(.99626)"/><use xlink:href="#CMR17-2b" id="use162" style="stroke:none;fill:#bfbfbf" transform="translate(66.51)scale(.99626)"/><use xlink:href="#CMR17-2b" id="use163" style="stroke:none;fill:#bfbfbf" transform="translate(138.225)scale(.99626)"/></g><g id="line2d_23"><path id="path163" d="M312.43 126.405h19.5" style="fill:none;stroke:#d62728;stroke-width:1.5;stroke-linecap:square"/><use xlink:href="#mcb5092300d" id="use164" x="322.18" y="126.405" style="fill:#d62728;stroke:#d62728"/></g><use xlink:href="#CMR17-43" id="text_23" style="stroke:none;fill:#bfbfbf" transform="matrix(.12951 0 0 -.12951 342.33 130.955)"/><path id="patch_13" d="M312.43 149.073h19.5v-9.1h-19.5z" style="opacity:.15;fill:#1f77b4;stroke:#1f77b4;stroke-linejoin:miter"/><g id="text_24" transform="matrix(.13 0 0 -.13 342.33 149.073)"><defs id="defs164"><path id="CMR17-4c" d="M3469 1615h-115c-52-632-135-1449-1229-1449h-595c-256 0-269 31-269 248v3484c0 231 13 294 499 294h141v160H326v-160c442 0 512 0 512-287V452c0-286-70-286-512-286V0h2989z" transform="scale(.01563)"/></defs><use xlink:href="#CMR17-4c" id="use165" style="stroke:none;fill:#bfbfbf" transform="scale(.99626)"/><use xlink:href="#CMR17-45" id="use166" style="stroke:none;fill:#bfbfbf" transform="translate(57.381)scale(.99626)"/><use xlink:href="#CMR17-50" id="use167" style="stroke:none;fill:#bfbfbf" transform="translate(119.968)scale(.99626)"/></g><path id="patch_14" d="M312.43 167.192h19.5v-9.1h-19.5z" style="opacity:.15;fill:#ff7f0e;stroke:#ff7f0e;stroke-linejoin:miter"/><g id="text_25" transform="matrix(.13 0 0 -.13 342.33 167.192)"><defs id="defs167"><path id="CMR17-48" d="M3590 3905c0 287 71 287 512 287v160H2656v-160c442 0 512 0 512-288V2341H1261v1563c0 288 70 288 512 288v160H326v-160c442 0 512 0 512-287V447c0-287-70-287-512-287V0h1447v160c-442 0-512 0-512 286v1730h1907V446c0-286-70-286-512-286V0h1446v160c-441 0-512 0-512 287z" transform="scale(.01563)"/></defs><use xlink:href="#CMR17-4c" id="use168" style="stroke:none;fill:#bfbfbf" transform="scale(.99626)"/><use xlink:href="#CMR17-48" id="use169" style="stroke:none;fill:#bfbfbf" transform="translate(57.381)scale(.99626)"/><use xlink:href="#CMR17-43" id="use170" style="stroke:none;fill:#bfbfbf" transform="translate(126.454)scale(.99626)"/></g></g></g></g><defs id="defs170"><clipPath id="p8bc7e3d8e6"><path id="path170" d="M42.394 7.2h374.4v194.4h-374.4z"/></clipPath></defs><metadata id="metadata1"><rdf:RDF><cc:Work><dc:creator><cc:Agent><dc:title>Remco de Boer</dc:title></cc:Agent></dc:creator><cc:license rdf:resource="http://creativecommons.org/licenses/by/4.0/"/></cc:Work><cc:License rdf:about="http://creativecommons.org/licenses/by/4.0/"><cc:permits rdf:resource="http://creativecommons.org/ns#Reproduction"/><cc:permits rdf:resource="http://creativecommons.org/ns#Distribution"/><cc:requires rdf:resource="http://creativecommons.org/ns#Notice"/><cc:requires rdf:resource="http://creativecommons.org/ns#Attribution"/><cc:permits rdf:resource="http://creativecommons.org/ns#DerivativeWorks"/></cc:License></rdf:RDF></metadata></svg>