<svg xmlns="http://www.w3.org/2000/svg" xmlns:cc="http://creativecommons.org/ns#" xmlns:dc="http://purl.org/dc/elements/1.1/" xmlns:inkscape="http://www.inkscape.org/namespaces/inkscape" xmlns:rdf="http://www.w3.org/1999/02/22-rdf-syntax-ns#" xmlns:sodipodi="http://sodipodi.sourceforge.net/DTD/sodipodi-0.dtd" xmlns:xlink="http://www.w3.org/1999/xlink" inkscape:version="1.4.2 (1:1.4.2+202505120737+ebf0e940d0)" sodipodi:docname="sisd.svg" xml:space="preserve" width="334.739" height="136.756" viewBox="0 0 88.567 36.183"><sodipodi:namedview inkscape:current-layer="svg37" inkscape:cx="167.181" inkscape:cy="68.195" inkscape:deskcolor="#d1d1d1" inkscape:pagecheckerboard="0" inkscape:pageopacity="0" inkscape:showpageshadow="2" inkscape:window-height="1371" inkscape:window-maximized="1" inkscape:window-width="2560" inkscape:window-x="0" inkscape:window-y="32" inkscape:zoom="2.647" bordercolor="#000000" borderopacity=".25" pagecolor="#ffffff"/><defs><path id="b" d="M328 0q-21 3-148 3T32 0H21v46h22q49 0 63 3t20 11q2 3 2 282 0 278-2 281-4 5-8 7t-22 5-53 2H21v46h11q21-3 148-3t148 3h11v-46h-22q-49 0-63-3t-20-11q-2-3-2-281 0-279 2-282 4-5 8-7t22-5 53-2h22V0Z"/><path id="c" d="M41 46h14q39 0 47 14v62q0 17 1 39t0 42v66q0 35-1 59v23q-3 19-14 25t-45 9H25v23q0 23 2 23l10 1q10 1 28 2t37 2q17 1 36 2t29 3 11 1h3v-40q0-38 1-38t5 5l12 15q8 10 19 18t29 19 38 16 51 5q114-4 127-113 1-7 1-139v-86q0-38 2-45t11-10q21-3 49-3h16V0h-8l-24 1q-23 1-50 1t-38 1Q319 3 310 0h-8v46h16q61 0 61 16 1 2 1 138-1 135-2 143-6 28-20 42t-24 17-26 2q-45 0-79-34-27-27-34-55t-8-83V108q0-30 1-40t3-13 9-6q21-3 49-3h16V0h-8l-23 1q-24 1-51 1t-38 1Q42 3 33 0h-8v46z"/><path id="d" d="M295 316q0 40-27 69t-78 29q-36 0-62-13-30-19-30-52-1-5 0-13t16-24 43-25q18-5 44-9t44-9 32-13q17-8 33-20t32-41 17-62q0-62-38-102T198-10h-8q-52 0-96 36l-8-7-9-9Q71 4 65-1L54-11H42q-3 0-9 6v137q0 21 2 25t10 5h9q12 0 16-4t5-12 7-27 19-42q35-51 97-51 97 0 97 78 0 29-18 47-20 24-83 36t-83 23q-36 17-57 46t-21 62q0 39 17 66t43 40 50 18 44 5h11q40 0 70-15l15-8 9 7q10 9 22 17h12q3 0 9-6V310l-6-6h-28q-6 6-6 12"/><path id="e" d="M27 422q53 4 82 56t32 122v15h40V431h135v-46H181V241q1-125 1-141t7-32q14-39 49-39 44 0 54 71 1 8 1 46v35h40v-47q0-77-42-117-27-27-70-27-34 0-59 12t-38 31-19 35-7 32q-1 7-1 148v137H18v37z"/><path id="f" d="M36 46h14q39 0 47 14v31q0 14 1 31t0 39 0 42v125l-1 23q-3 19-14 25t-45 9H20v23q0 23 2 23l10 1q10 1 28 2l36 2q16 1 35 2t29 3 11 1h3v-69q39 68 97 68h6q45 0 66-22t21-46q0-21-13-36t-38-15-37 16-13 34q0 9 2 16t5 12l3 5q-2 2-23-4-16-8-24-15-47-45-47-179V101q0-12 1-20t0-15v-5q1-2 3-4t5-3 5-3 7-2 7-1 9-1h9q2 0 10-1t10 0h31V0h-9q-18 3-127 3Q37 3 28 0h-8v46z"/><path id="g" d="M383 58q-56-68-127-68h-7q-125 0-144 99-1 7-2 137-1 109-1 122t-6 21q-10 16-60 16H25v23q0 23 2 23l11 1q10 1 29 2l38 2q17 1 37 2t30 3 12 1h3V261q1-184 3-197 3-15 14-24 20-14 60-14 26 0 47 9t32 23 20 32 12 30 4 24v17q0 16 1 40t0 47v67q0 46-10 57t-50 13h-18v46q2 0 76 5t79 6h7V264q0-180 1-183 3-20 14-26t45-9h18V0q-2 0-75-5t-77-6h-7z"/><path id="h" d="M370 305h-21q-21 0-36 15t-16 38q0 23 15 38 5 5 5 6t-10 2q-26 4-49 4-49 0-80-32-47-47-47-157 0-82 31-129 41-61 110-61 41 0 66 26t36 62q2 8 5 10t16 2h14q6-6 6-9 0-4-4-16t-16-33-29-38-48-31-69-13q-86 0-150 64T34 214q0 104 65 169t151 65 120-27 34-64q0-23-17-37z"/><path id="i" d="M69 609q0 28 18 44t44 16q23-2 40-17t17-43q0-30-17-45t-42-15-42 15-18 45M247 0q-15 3-104 3h-37Q80 3 56 1L34 0h-8v46h16q28 0 49 3 9 4 11 11t2 42v191q0 52-2 66t-14 19q-14 7-47 7H30v23q0 23 2 23l10 1q10 1 28 2l36 2q17 1 36 2t29 3 11 1h3V62q5-10 12-12t35-4h23V0Z"/><path id="j" d="M28 214q0 95 65 164t157 70q90 0 155-68t66-165q0-95-64-160T250-10q-97 0-159 67T28 214M250 30q122 0 122 163v57q0 22-1 38t-7 38-16 36-31 28-49 20q-5 1-16 1-30 0-57-12-43-22-56-61t-13-92v-20q0-96 19-135 32-61 105-61"/><path id="s" d="M130 622q-7 7-11 9t-16 3-43 3H27v46h201q171-1 191-1t42-6q43-9 85-35t80-68 59-103 23-134q0-126-74-220T442 3q-13-2-214-3H27v46h33q42 1 51 3t19 12zm463-284q0 101-22 163t-78 101q-54 35-138 35h-61q-56 0-60-9-3-4-3-284 0-282 1-285 1-10 16-11t91-2h11q106 0 165 49 46 38 62 96t16 147"/><path id="t" d="M137 305h-22q-22 0-37 15t-15 39q0 35 34 62t121 27q73 0 118-32t60-76q5-14 5-31t1-115v-70q0-48 5-66t21-18q15 0 20 16t5 53v36h40v-39q-1-40-3-47-9-30-35-47T400-6t-47 18-24 42v4l-2-3q-2-3-5-6t-8-9-12-11-15-12-18-11-22-8-26-6-31-3q-60 0-108 31t-48 87q0 21 7 40t27 41 48 37 78 28 110 15h14v22q0 34-6 50-22 71-97 71-18 0-34-1t-25-4-8-3q22-15 22-44 0-25-16-39zm-11-199q0-31 24-55t59-25q38 0 67 23t39 60q2 7 3 66 0 58-1 58-8 0-21-1t-45-9-58-20-46-37-21-60"/><path id="u" d="M27 422q53 4 82 56t32 122v15h40V431h135v-46H181V241q1-125 1-141t7-32q14-39 49-39 44 0 54 71 1 8 1 46v35h40v-47q0-77-42-117-27-27-70-27-34 0-59 12t-38 31-19 35-7 32q-1 7-1 148v137H18v37z"/><path id="v" d="M36-148h14q39 0 47 14v57q0 18 1 39t0 44 0 49 0 51v190q0 24-1 39t0 16q-3 19-14 25t-45 9H20v23q0 23 2 23l10 1q10 1 29 2t37 2q17 1 37 2t30 3 11 1h3v-26l1-26 8 7q59 44 138 44 81 0 138-64t58-161q0-101-65-164T310-11q-68 0-120 44l-8 7v-141q0-27 2-33t11-11q21-3 49-3h16v-46h-8l-24 1q-23 1-50 1t-38 1q-103 0-112-3h-8v46zm388 366q0 74-34 129t-85 55q-71 0-123-65V98q40-72 112-72 51 0 90 54t40 138"/><path id="w" d="M28 214q0 95 65 164t157 70q90 0 155-68t66-165q0-95-64-160T250-10q-97 0-159 67T28 214M250 30q122 0 122 163v57q0 22-1 38t-7 38-16 36-31 28-49 20q-5 1-16 1-30 0-57-12-43-22-56-61t-13-92v-20q0-96 19-135 32-61 105-61"/><path id="x" d="M42 46h14q39 0 47 14v64q0 19 1 43t0 50 0 55 0 57v213q0 26-1 44t0 17q-3 19-14 25t-45 9H26v23q0 23 2 23l10 1q10 1 29 2t37 2q17 1 37 2t30 3 11 1h3V379q0-317 1-319 4-8 12-11 21-3 49-3h16V0h-8l-23 1q-23 1-49 1t-38 1-38 0-50-2L34 0h-8v46z"/><path id="k" d="M89 431h15q11 0 17 1 52 0 52-31v-5l9 6q55 35 123 35 71 0 129-59t58-161q0-71-33-124t-77-76-91-23q-30 0-59 11t-44 21l-14 11q-1 0-1-91v-92h63q14-9 18-16t4-22q0-29-22-37H27q-23 7-23 37 0 15 4 22t19 16h62v501H58l-31 1q-23 7-23 37 0 15 4 22t19 16zm320-216q0 54-32 100t-94 46q-28 0-59-17t-47-47l-4-7V167q16-43 40-70t65-27q52 0 91 41t40 104"/><path id="l" d="M52 216q0 102 66 163t143 61q82 0 146-62t65-162q0-95-62-158T262-6q-86 0-148 64T52 216m336 9q0 56-37 97t-90 42q-48 0-86-39t-39-100q0-67 38-111t88-44 88 44 38 111"/><path id="m" d="M54 355q-38 0-38 33v5q0 30 21 37 4 1 88 1h37q44 0 56-6t12-32q0-27-18-35-6-3-38-3-33 0-33-1l9-58q31-186 31-207v-5q1 1 2 12 2 22 16 77t19 64q5 10 27 22h23q26 0 41-19 6-11 20-66t14-82q0-8 1-8v7q0 3 1 6 2 28 11 90t18 114 9 53-33 1h-17q-19 0-29 7t-10 31q0 27 18 35 6 3 89 3h39q45 0 56-6t12-32v-16q0-5-10-14t-28-8l-15-1q0-1-14-83t-28-167-17-88Q384-4 355-4h-4q-36 0-46 13t-25 70q-2 11-4 17-11 53-11 73 0 7-1 0-1-3-1-7-2-32-15-83t-18-61Q220-4 183-4h-8l-24 1q-17 8-24 20l-15 85q-15 86-29 168t-14 84q-7 1-15 1"/><path id="n" d="M437-53q0-29-38-29h-5q-17 0-52 27-83 62-129 157t-47 204q0 106 45 201t131 160q35 27 51 27h6q38 0 38-29 0-11-11-22t-29-23-41-36-45-59q-10-14-21-37t-26-76-14-106q0-115 50-201T422-27q15-10 15-26"/><path id="o" d="M52 462q0 66 58 113t137 47h3q93 0 157-57t65-144q0-50-26-97t-56-76-82-70q-1-1-33-27t-61-50l-29-24q0-1 101-1h102v11q0 18 9 27t33 9 33-9q7-7 8-14t1-39V42q0-18-4-26T450 1H75q-22 9-22 31v16q0 9 10 19t64 55q26 22 42 35l120 99q99 89 99 163 0 54-42 90t-115 36h-7q-48 0-78-46l-2-5q11-18 11-35-1 0 0-4t-1-11-6-14-12-13-22-9h-4q-3 0-6-1-24 0-38 15t-14 40"/><path id="p" d="M87 664q0 30 39 30 12 0 21-4t36-23q83-62 129-157t46-204q0-113-51-213T161-70q-19-12-35-12-21 0-30 9t-9 20q0 6 1 9 4 8 28 25t57 53 57 85q43 87 43 187 0 102-42 188T109 635q-22 14-22 29"/><path id="r" d="M392 259q-59-49-156-49h-3q-70 0-124 52-63 63-63 149t53 139q65 72 165 72 29 0 55-7t57-28 52-55 36-92 15-136q0-137-79-226T217-11q-77 0-112 33t-35 79q0 23 14 37t38 15q28 0 40-16t12-36q0-10-6-25 11-11 48-11 51 0 84 28 22 16 39 37t27 43 14 37 8 32zm-4 130q0 49-31 103t-89 54-83-26q-56-41-56-105 0-31 9-52 7-14 18-29t39-32 60-17q50 0 90 28t43 76"/><marker id="a" markerHeight="1" markerWidth="1" orient="auto-start-reverse" preserveAspectRatio="xMidYMid" refX="0" refY="0" style="overflow:visible" viewBox="0 0 1 1"><path d="m0 0 5-5-17.5 5L5 5Z" style="fill:context-stroke;fill-rule:evenodd;stroke:none" transform="scale(-.5)"/></marker></defs><g style="display:inline"><g style="display:inline" transform="translate(.793 .794)"><path d="M57.765 73.82h29.016v38.688H57.765Z" style="fill:#bbb;fill-opacity:.25;stroke:none;stroke-width:0;stroke-linecap:round;stroke-miterlimit:6;stroke-dasharray:none" transform="matrix(.74 0 0 .74 -35.954 -49.84)"/><path d="M103.692 68.316h61.47v44.821h-61.47z" style="fill:#b7b7b7;fill-opacity:.25098;stroke:#000;stroke-width:.499999;stroke-linecap:round;stroke-miterlimit:6;stroke-dasharray:none" transform="matrix(.74 0 0 .74 -35.954 -49.84)"/><path d="M118.476 95.494h28.266" style="fill:none;fill-opacity:1;stroke:#da3;stroke-width:.675676;stroke-linecap:round;stroke-miterlimit:6;stroke-dasharray:none;marker-end:url(#a)" transform="matrix(.74 0 0 .74 -35.954 -42.682)"/><path d="m136.893 95.167-.011 9.998" style="fill:none;fill-opacity:1;stroke:#da3;stroke-width:.675676;stroke-linecap:round;stroke-miterlimit:6;stroke-dasharray:none" transform="matrix(.74 0 0 .74 -37.823 -49.84)"/><g data-mml-node="mtext" style="fill:#000;stroke:#000;stroke-width:0" transform="matrix(.00496 0 0 -.00496 51.548 7.464)"><use xlink:href="#b" data-c="49"/><use xlink:href="#c" data-c="6E" transform="translate(361)"/><use xlink:href="#d" data-c="73" transform="translate(917)"/><use xlink:href="#e" data-c="74" transform="translate(1311)"/><use xlink:href="#f" data-c="72" transform="translate(1700)"/><use xlink:href="#g" data-c="75" transform="translate(2092)"/><use xlink:href="#h" data-c="63" transform="translate(2648)"/><use xlink:href="#e" data-c="74" transform="translate(3092)"/><use xlink:href="#i" data-c="69" transform="translate(3481)"/><use xlink:href="#j" data-c="6F" transform="translate(3759)"/><use xlink:href="#c" data-c="6E" transform="translate(4259)"/></g><path d="M120.905 49.942h37.162v16.192h-37.162z" style="fill:#da3;fill-opacity:.6;stroke:#000;stroke-width:.4;stroke-linecap:round" transform="matrix(.74 0 0 .74 -39.741 -28.355)"/><g data-mml-node="mtext" style="fill:#000;stroke:#000;stroke-width:0" transform="matrix(.00663 0 0 -.00663 54.142 16.32)"><use xlink:href="#k" data-c="1D699"/><use xlink:href="#l" data-c="1D698" transform="translate(525)"/><use xlink:href="#m" data-c="1D6A0" transform="translate(1050)"/><use xlink:href="#n" data-c="28" transform="translate(1575)"/><use xlink:href="#o" data-c="1D7F8" transform="translate(2100)"/><use xlink:href="#p" data-c="29" transform="translate(2625)"/></g><g style="display:inline"><path d="M43.512 81.232h9.672zm9.672-9.672v9.672zm-9.672 0h9.672v9.672h-9.672zm9.672 0h-9.672z" style="fill:#048;fill-opacity:.25;stroke:#000;stroke-width:.600001;stroke-linecap:round" transform="matrix(.74 0 0 .74 12.362 -28.55)"/><path d="M48.154 74.57q-.215 0-.39.04t-.246.08-.072.055l.024.08q.024.071.024.135 0 .167-.12.286-.119.12-.294.12-.151 0-.278-.104-.128-.103-.136-.358.024-.286.2-.485.174-.2.413-.287t.422-.12q.183-.031.286-.039.016-.008.207-.008.454.016.772.16.318.142.462.35.143.206.19.357.048.152.056.279 0 .732-.652 1.186l.047.023q.048.024.088.048l.12.072q.079.047.142.103l.136.12q.071.063.127.159.056.095.111.183.056.087.072.223l.032.254q0 .645-.501 1.082-.502.438-1.25.438t-1.225-.31-.485-.812q0-.191.119-.302.12-.112.286-.12.175 0 .295.112.12.111.127.302 0 .096-.072.239.287.286.963.286.446 0 .756-.254.31-.255.318-.653 0-.255-.159-.485-.31-.414-.97-.414h-.302q-.168 0-.24-.056-.071-.055-.08-.246 0-.16.072-.231.064-.072.43-.088t.565-.111q.215-.112.334-.31.12-.2.128-.406 0-.175-.136-.31-.23-.263-.716-.263z" style="fill:#000;stroke:#000;stroke-width:0" transform="matrix(.74 0 0 .74 12.362 -28.55)"/></g><path d="M151.163 110.001h9.672zm9.672-9.672v9.672zm-9.672 0h9.672v9.672h-9.672zm9.672 0h-9.672z" style="display:inline;fill:#048;fill-opacity:.25;stroke:#000;stroke-width:.600001;stroke-linecap:round" transform="matrix(.74 0 0 .74 -35.954 -49.84)"/><use xlink:href="#r" data-c="1D7FF" data-mml-node="mtext" style="display:inline;fill:#000;stroke:#000;stroke-width:0" transform="matrix(.00593 0 0 -.00593 77.95 29.814)"/></g><g style="display:inline"><path d="M43.512 81.232h9.672zm9.672-9.672v9.672zm-9.672 0h9.672v9.672h-9.672zm9.672 0h-9.672z" style="display:inline;fill:#048;fill-opacity:.25;stroke:#000;stroke-width:.600001;stroke-linecap:round" transform="matrix(.74 0 0 .74 -24.614 -40.216)"/><path d="M48.154 74.57q-.215 0-.39.04t-.246.08-.072.055l.024.08q.024.071.024.135 0 .167-.12.286-.119.12-.294.12-.151 0-.278-.104-.128-.103-.136-.358.024-.286.2-.485.174-.2.413-.287t.422-.12q.183-.031.286-.039.016-.008.207-.008.454.016.772.16.318.142.462.35.143.206.19.357.048.152.056.279 0 .732-.652 1.186l.047.023q.048.024.088.048l.12.072q.079.047.142.103l.136.12q.071.063.127.159.056.095.111.183.056.087.072.223l.032.254q0 .645-.501 1.082-.502.438-1.25.438t-1.225-.31-.485-.812q0-.191.119-.302.12-.112.286-.12.175 0 .295.112.12.111.127.302 0 .096-.072.239.287.286.963.286.446 0 .756-.254.31-.255.318-.653 0-.255-.159-.485-.31-.414-.97-.414h-.302q-.168 0-.24-.056-.071-.055-.08-.246 0-.16.072-.231.064-.072.43-.088t.565-.111q.215-.112.334-.31.12-.2.128-.406 0-.175-.136-.31-.23-.263-.716-.263z" style="display:inline;fill:#000;stroke:#000;stroke-width:0" transform="matrix(.74 0 0 .74 -24.614 -40.216)"/></g><g data-mml-node="mtext" style="fill:#000;stroke:#000;stroke-width:0" transform="matrix(0 -.00496 -.00496 0 4.767 29.688)"><use xlink:href="#s" data-c="44"/><use xlink:href="#t" data-c="61" transform="translate(764)"/><use xlink:href="#u" data-c="74" transform="translate(1264)"/><use xlink:href="#t" data-c="61" transform="translate(1653)"/><use xlink:href="#v" data-c="70" transform="translate(2403)"/><use xlink:href="#w" data-c="6F" transform="translate(2959)"/><use xlink:href="#w" data-c="6F" transform="translate(3459)"/><use xlink:href="#x" data-c="6C" transform="translate(3959)"/></g><g style="display:inline"><path d="M62.856 90.904h9.672v9.672h-9.672zm-9.672 0h9.672v9.672h-9.672zm0 0v9.672zm9.672-9.672h9.672v9.672h-9.672zm-9.672 0h9.672v9.672h-9.672zm0 0v9.672zm9.672-9.672h9.672v9.672h-9.672zm-9.672 0h9.672v9.672h-9.672zm0 0v9.672zm9.672-9.672h9.672v9.672h-9.672zm-9.672 0h9.672v9.672h-9.672zm0 0v9.672zm0 29.016v9.672zm-9.672 0h9.672v9.672h-9.672zm9.672-9.672v9.672zm-9.672 0h9.672v9.672h-9.672zm9.672 0h-9.672Zm-9.672-9.672h9.672zm9.672-9.672v9.672zm-9.672 0h9.672v9.672h-9.672z" style="display:inline;fill:none;stroke:#000;stroke-width:.600001;stroke-linecap:round" transform="matrix(.74 0 0 .74 -24.614 -40.216)"/><g style="display:inline"><path d="M46.53 66.896q0-1.154.55-1.83.549-.676 1.162-.684.62 0 1.058.47.732.747.732 2.036 0 1.05-.51 1.783-.509.732-1.24.732-.733 0-1.242-.732-.51-.733-.51-1.775zm1.712-1.91q-.382 0-.709.51-.326.509-.334 1.28 0 .796.287 1.377.334.653.795.653.446 0 .764-.589.319-.589.319-1.44v-.064q-.024-.66-.271-1.13t-.637-.58q-.111-.017-.214-.017zm.568 19.505q0-.08-.311-.08-.478 0-.9.39-.421.39-.572 1.114v.032l.087-.063q.525-.327 1.122-.327.613 0 1.027.414.517.517.517 1.25 0 .652-.486 1.137-.485.486-1.233.486-.23 0-.446-.064-.214-.064-.461-.23-.247-.168-.414-.438-.167-.271-.294-.717-.128-.445-.12-1.034 0-1.138.669-1.846.668-.708 1.512-.708.549 0 .811.262.263.263.263.629 0 .151-.096.278-.095.128-.318.136-.23 0-.318-.136-.088-.135-.096-.278 0-.08.032-.143zm-.303 1.671h-.398q-.398 0-.716.223-.319.223-.342.597 0 .167.055.39.056.222.263.493.207.27.485.35.072.016.223.016.43 0 .756-.326.278-.31.278-.716 0-.422-.31-.733-.294-.294-.692-.294zm1.153 10.111q-.47.39-1.242.39h-.024q-.557 0-.986-.414-.502-.501-.502-1.186t.422-1.106q.517-.573 1.313-.573.23 0 .438.056.207.056.453.223t.414.437.287.732.119 1.083q0 1.09-.629 1.798-.628.708-1.456.708-.613 0-.891-.262-.279-.263-.279-.63 0-.182.112-.293.111-.112.302-.12.223 0 .318.127.096.128.096.287 0 .08-.048.199.088.087.382.087.406 0 .669-.222.175-.128.31-.295t.215-.342.111-.294q.032-.12.064-.255zm-.032-1.035q0-.39-.247-.82-.246-.429-.708-.429t-.66.207q-.446.326-.446.835 0 .247.072.414.055.112.143.23.087.12.31.256.223.135.478.135.397 0 .716-.223t.342-.605z" style="fill:#000;stroke:#000;stroke-width:0" transform="matrix(.74 0 0 .74 -24.614 -40.216)"/><path d="M48.81 84.491q0-.08-.311-.08-.478 0-.9.39-.421.39-.572 1.114v.032l.087-.063q.525-.327 1.122-.327.613 0 1.027.414.517.517.517 1.25 0 .652-.486 1.137-.485.486-1.233.486-.23 0-.446-.064-.214-.064-.461-.23-.247-.168-.414-.438-.167-.271-.294-.717-.128-.445-.12-1.034 0-1.138.669-1.846.668-.708 1.512-.708.549 0 .811.262.263.263.263.629 0 .151-.096.278-.095.128-.318.136-.23 0-.318-.136-.088-.135-.096-.278 0-.08.032-.143zm-.303 1.671h-.398q-.398 0-.716.223-.319.223-.342.597 0 .167.055.39.056.222.263.493.207.27.485.35.072.016.223.016.43 0 .756-.326.278-.31.278-.716 0-.422-.31-.733-.294-.294-.692-.294zm1.153 10.111q-.47.39-1.242.39h-.024q-.557 0-.986-.414-.502-.501-.502-1.186t.422-1.106q.517-.573 1.313-.573.23 0 .438.056.207.056.453.223t.414.437.287.732.119 1.083q0 1.09-.629 1.798-.628.708-1.456.708-.613 0-.891-.262-.279-.263-.279-.63 0-.182.112-.293.111-.112.302-.12.223 0 .318.127.096.128.096.287 0 .08-.048.199.088.087.382.087.406 0 .669-.222.175-.128.31-.295t.215-.342.111-.294q.032-.12.064-.255zm-.032-1.035q0-.39-.247-.82-.246-.429-.708-.429t-.66.207q-.446.326-.446.835 0 .247.072.414.055.112.143.23.087.12.31.256.223.135.478.135.397 0 .716-.223t.342-.605zM46.53 66.896q0-1.154.55-1.83.549-.676 1.162-.684.62 0 1.058.47.732.747.732 2.036 0 1.05-.51 1.783-.509.732-1.24.732-.733 0-1.242-.732-.51-.733-.51-1.775zm1.712-1.91q-.382 0-.709.51-.326.509-.334 1.28 0 .796.287 1.377.334.653.795.653.446 0 .764-.589.319-.589.319-1.44v-.064q-.024-.66-.271-1.13t-.637-.58q-.111-.017-.214-.017z" style="display:inline;fill:#000;stroke:#000;stroke-width:0" transform="matrix(.74 0 0 .74 -24.614 -40.216)"/></g><g style="display:inline"><path d="M56.823 65.655v-.104q0-.031.04-.103t.128-.088.246-.031q.494-.12.796-.748.103-.207.255-.207.199 0 .286.199v4.145h.653q.214 0 .302.056.087.056.087.247 0 .215-.175.294h-2.395q-.183-.072-.183-.294 0-.191.088-.247.087-.056.302-.056h.653v-1.535q0-1.528-.008-1.528-.398.278-.772.294h-.032q-.072 0-.111-.008t-.08-.048-.08-.127zm9.23-.008q0-.525.461-.9.462-.373 1.09-.373h.024q.74 0 1.25.453.509.454.517 1.146 0 .398-.207.772t-.446.605-.652.557q-.008.008-.263.215-.254.206-.485.397l-.231.191q0 .008.804.008h.811v-.087q0-.143.072-.215t.263-.072.262.072q.056.056.064.111.008.056.008.31v.152q0 .143-.032.207-.032.063-.143.12h-2.984q-.175-.072-.175-.248v-.127q0-.071.08-.151.079-.08.509-.438.206-.175.334-.278l.955-.788q.787-.708.787-1.297 0-.43-.334-.716-.334-.287-.915-.287h-.056q-.382 0-.62.366l-.016.04q.087.143.087.279-.008 0 0 .032.008.031-.008.087t-.047.112-.096.103-.175.072h-.032q-.024 0-.048.008-.19 0-.302-.12t-.111-.318zm-8.848 13.26q-.175-.072-.175-.247v-.112q0-.15.135-.214.048-.024.35-.024h.318v-.732h-1.042l-1.042-.008q-.12-.048-.152-.104-.031-.055-.031-.183v-.103l.008-.207q.183-.31.994-1.584.812-1.273.868-1.352.095-.08.27-.08h.517q.12.056.175.175v2.84h.518q.19 0 .27.057.08.055.088.246 0 .215-.144.279-.047.024-.381.024h-.35v.732h.453q.19 0 .27.055.08.056.088.247 0 .223-.175.295zm.628-1.934v-2.467l-1.567 2.459.78.008zm10.538.437q0-.437-.262-.708-.263-.27-.645-.278-.342 0-.54.095-.2.096-.335.24-.135.142-.199.174h-.143q-.143 0-.183-.016-.096-.055-.112-.12-.016-.063-.024-.357v-.382q0-.31.008-.565 0-1.25.008-1.281.048-.112.168-.151h.477q.12 0 .23-.008.112-.008.263 0t.279 0h1.233q.008.008.048.031.04.024.056.04t.031.048l.032.072q.017.04.008.111v.088q0 .04-.024.063-.024.024-.024.048t-.031.04-.032.024-.04.015l-.024.016-1.002.008h-.995v1.369l.048-.024q.04-.016.111-.048.072-.031.183-.063t.247-.048.302-.024q.645 0 1.098.462.454.461.462 1.145 0 .565-.478 1.067-.477.501-1.329.501-.214 0-.286-.008-.66-.111-.955-.453-.294-.343-.294-.709 0-.215.127-.318t.286-.111q.207 0 .31.127t.104.27q0 .072-.016.128-.016.055-.04.095-.023.04-.023.048 0 .024.071.096.072.071.263.15.19.08.453.088.422 0 .772-.262.35-.263.358-.724zM57.667 88.836q-.335 0-.335-.398 0-.844.287-1.759.286-.915.891-1.718.008-.008.088-.112.08-.103.167-.207.087-.103.127-.143h-1.83v.088q0 .143-.072.214-.063.064-.262.064h-.064q-.183 0-.255-.151-.015-.04-.015-.39v-.183q0-.199.063-.286.064-.088.287-.088h.04q.166 0 .254.127h2.65q.127.104.15.144.025.04.025.159 0 .111-.016.159t-.072.08-.183.174-.302.35q-1.241 1.49-1.29 3.407v.176q0 .031-.007.04-.016.087-.096.166t-.23.088zm8.559-3.74q0-.501.47-.891t1.09-.39q.286 0 .35.008.62.103.979.477.358.374.358.796 0 .151-.048.286-.048.136-.135.247t-.175.183-.191.143q-.104.072-.183.096-.08.024-.136.063l-.055.016.047.016q.056.024.12.056l.167.087q.103.056.183.12.08.063.19.167.112.103.16.199.048.095.111.254.064.16.048.303 0 .613-.485 1.058-.486.446-1.242.446t-1.24-.446-.486-1.058q0-.183.055-.342.056-.16.144-.279.087-.12.206-.215.12-.095.215-.167.096-.071.2-.111.103-.04.15-.072l.056-.016-.032-.016q-.031-.008-.087-.031-.056-.024-.112-.056-.326-.151-.509-.398t-.183-.533Zm2.578.016q0-.263-.262-.478-.263-.215-.685-.222-.382 0-.668.198-.286.2-.294.502 0 .294.286.501t.668.215q.422 0 .685-.223.262-.223.27-.493zm.112 2.228q0-.358-.303-.629-.302-.27-.756-.278-.453 0-.764.27-.31.27-.31.637 0 .326.279.604.278.279.787.287.494 0 .78-.279.287-.278.287-.612zM54.13 94.665v-.103q0-.032.04-.104.039-.071.126-.087.088-.016.247-.032.493-.12.796-.748.103-.207.254-.207.2 0 .287.2v4.145h.652q.215 0 .303.056.087.055.087.246 0 .215-.175.295h-2.395q-.183-.072-.183-.295 0-.19.088-.246.087-.056.302-.056h.653v-1.536q0-1.528-.009-1.528-.397.279-.771.295H54.4q-.072 0-.112-.008t-.08-.048-.079-.127zm3.723 1.242q0-1.154.55-1.83.548-.677 1.161-.685.62 0 1.058.47.732.748.732 2.037 0 1.05-.509 1.782-.51.732-1.241.732t-1.242-.732q-.509-.732-.509-1.774zm1.711-1.91q-.382 0-.708.51-.326.508-.334 1.28 0 .796.286 1.377.334.652.796.652.445 0 .764-.588.318-.59.318-1.44v-.064q-.024-.66-.27-1.13t-.637-.581q-.112-.016-.215-.016zm4.709.668v-.103q0-.032.04-.104.04-.071.127-.087.088-.016.247-.032.493-.12.796-.748.103-.207.254-.207.2 0 .287.2v4.145h.652q.215 0 .302.056.088.055.088.246 0 .215-.175.295h-2.395q-.183-.072-.183-.295 0-.19.087-.246.088-.056.303-.056h.653v-1.536q0-1.528-.009-1.528-.398.279-.772.295h-.031q-.072 0-.112-.008t-.08-.048-.079-.127zm4.177 0v-.103q0-.032.04-.104.04-.071.128-.087.087-.016.246-.032.494-.12.796-.748.103-.207.255-.207.199 0 .286.2v4.145h.653q.214 0 .302.056.088.055.088.246 0 .215-.176.295h-2.395q-.183-.072-.183-.295 0-.19.088-.246.087-.056.302-.056h.653v-1.536q0-1.528-.008-1.528-.398.279-.772.295h-.032q-.072 0-.111-.008t-.08-.048-.08-.127z" style="fill:#000;stroke:#000;stroke-width:0" transform="matrix(.74 0 0 .74 -24.614 -40.216)"/></g></g><path d="M66.801 74.205c9.417-2.183 17.568-4.072 25.597-2.268s11.82 6.093 16.872 11.81" style="opacity:1;fill:none;fill-opacity:.494118;stroke:#47a;stroke-width:.8;stroke-linecap:round;stroke-dasharray:none;stroke-opacity:1;marker-end:url(#a)" transform="matrix(.74 0 0 .74 -35.846 -41.018)"/></g><metadata><rdf:RDF><cc:Work><dc:creator><cc:Agent><dc:title>Remco de Boer</dc:title></cc:Agent></dc:creator><cc:license rdf:resource="http://creativecommons.org/licenses/by/4.0/"/></cc:Work><cc:License rdf:about="http://creativecommons.org/licenses/by/4.0/"><cc:permits rdf:resource="http://creativecommons.org/ns#Reproduction"/><cc:permits rdf:resource="http://creativecommons.org/ns#Distribution"/><cc:requires rdf:resource="http://creativecommons.org/ns#Notice"/><cc:requires rdf:resource="http://creativecommons.org/ns#Attribution"/><cc:permits rdf:resource="http://creativecommons.org/ns#DerivativeWorks"/></cc:License></rdf:RDF></metadata></svg>