<svg xmlns="http://www.w3.org/2000/svg" xmlns:cc="http://creativecommons.org/ns#" xmlns:dc="http://purl.org/dc/elements/1.1/" xmlns:inkscape="http://www.inkscape.org/namespaces/inkscape" xmlns:rdf="http://www.w3.org/1999/02/22-rdf-syntax-ns#" xmlns:sodipodi="http://sodipodi.sourceforge.net/DTD/sodipodi-0.dtd" xmlns:xlink="http://www.w3.org/1999/xlink" inkscape:version="1.4.2 (ebf0e94, 2025-05-08)" sodipodi:docname="eightfold-way-vector-mesons.svg" width="60mm" height="59mm" viewBox="0 0 60 59"><sodipodi:namedview inkscape:current-layer="svg85" inkscape:cx="113.365" inkscape:cy="111.496" inkscape:deskcolor="#d1d1d1" inkscape:document-units="mm" inkscape:pagecheckerboard="0" inkscape:pageopacity="0" inkscape:showpageshadow="2" inkscape:window-height="1369" inkscape:window-maximized="1" inkscape:window-width="2560" inkscape:window-x="-8" inkscape:window-y="-8" inkscape:zoom="5.35" bordercolor="#000000" borderopacity=".25" pagecolor="#ffffff"/><defs><path id="f" d="M96 585q56 81 153 81 48 0 96-26t78-92q37-83 37-228 0-155-43-237-20-42-55-67t-61-31-51-7q-26 0-52 6t-61 32-55 67q-43 82-43 237 0 174 57 265m225 12q-30 32-71 32-42 0-72-32-25-26-33-72t-8-192q0-158 8-208t36-79q28-30 69-30 40 0 68 30 29 30 36 84t8 203q0 145-8 191t-33 73"/><path id="d" d="M56 237v13l14 20h299v150l1 150q10 13 19 13 13 0 20-15V270h298q15-8 15-20t-15-20H409V-68q-8-14-18-14h-4q-12 0-18 14v298H70q-14 7-14 20z"/><path id="g" d="M84 237v13l14 20h581q15-8 15-20t-15-20H98q-14 7-14 20z"/><path id="e" d="m213 578-13-5q-14-5-40-10t-58-7H83v46h19q47 2 87 15t56 24 28 22q2 3 12 3 9 0 17-6V361l1-300q7-7 12-9t24-4 62-2h26V0h-11q-21 3-159 3-136 0-157-3H88v46h64q16 0 25 1t16 3 8 2 6 5 6 4z"/><path id="n" d="M84 237v13l14 20h581q15-8 15-20t-15-20H98q-14 7-14 20z"/><path id="b" d="m213 578-13-5q-14-5-40-10t-58-7H83v46h19q47 2 87 15t56 24 28 22q2 3 12 3 9 0 17-6V361l1-300q7-7 12-9t24-4 62-2h26V0h-11q-21 3-159 3-136 0-157-3H88v46h64q16 0 25 1t16 3 8 2 6 5 6 4z"/><path id="c" d="M109 429q-27 0-43 18t-16 44q0 71 53 123t132 52q91 0 152-56t62-145q0-43-20-82t-48-68-80-74q-36-31-100-92l-59-56 76-1q157 0 167 5 7 2 24 89v3h40v-3q-1-3-13-91T421 3V0H50v31q0 7 6 15t30 35q29 32 50 56 9 10 34 37t34 37 29 33 28 34 23 30 21 32 15 29 13 32 7 30 3 33q0 63-34 109t-97 46q-33 0-58-17t-35-33-10-19q0-1 5-1 18 0 37-14t19-46q0-25-16-42t-45-18"/><path id="p" d="M96 585q56 81 153 81 48 0 96-26t78-92q37-83 37-228 0-155-43-237-20-42-55-67t-61-31-51-7q-26 0-52 6t-61 32-55 67q-43 82-43 237 0 174 57 265m225 12q-30 32-71 32-42 0-72-32-25-26-33-72t-8-192q0-158 8-208t36-79q28-30 69-30 40 0 68 30 29 30 36 84t8 203q0 145-8 191t-33 73"/><path id="a" d="M56 237v13l14 20h299v150l1 150q10 13 19 13 13 0 20-15V270h298q15-8 15-20t-15-20H409V-68q-8-14-18-14h-4q-12 0-18 14v298H70q-14 7-14 20z"/><path id="h" d="M370 305h-21l-36 15-16 38q0 23 15 38 5 5 5 6t-10 2q-26 4-49 4-49 0-80-32-47-47-47-157 0-82 31-129 41-61 110-61 41 0 66 26t36 62q2 8 5 10t16 2h14q6-6 6-9 0-4-4-16t-16-33-29-38-48-31-69-13q-86 0-150 64T34 214q0 104 65 169t151 65 120-27 34-64q0-23-17-37z"/><path id="i" d="M41 46h14q39 0 47 14v107q0 24 1 50t0 55 0 57v153q0 34-1 60t0 44 0 17q-3 19-14 25t-45 9H25v23q0 23 2 23l10 1q10 1 29 2t37 2q17 1 37 2t30 3 11 1h3V367q60 75 144 75 123 0 135-113 1-7 1-139v-86q0-38 2-45t11-10q21-3 49-3h16V0h-8l-24 1q-23 1-50 1t-38 1Q319 3 310 0h-8v46h16q61 0 61 16 1 2 1 138-1 135-2 143-6 28-20 42t-24 17-26 2q-45 0-79-34-27-27-34-55t-8-83V108q0-30 1-40t3-13 9-6q21-3 49-3h16V0h-8l-23 1q-24 1-51 1t-38 1Q42 3 33 0h-8v46z"/><path id="j" d="M137 305h-22l-37 15-15 39q0 35 34 62t121 27q73 0 118-32t60-76q5-14 5-31t1-115v-70q0-48 5-66t21-18q15 0 20 16t5 53v36h40v-39q-1-40-3-47-9-30-35-47T400-6t-47 18-24 42v4l-2-3q-2-3-5-6t-8-9-12-11-15-12-18-11-22-8-26-6-31-3q-60 0-108 31t-48 87q0 21 7 40t27 41 48 37 78 28 110 15h14v22q0 34-6 50-22 71-97 71-18 0-34-1t-25-4-8-3q22-15 22-44 0-25-16-39zm-11-199q0-31 24-55t59-25q38 0 67 23t39 60q2 7 3 66 0 58-1 58-8 0-21-1t-45-9-58-20-46-37-21-60"/><path id="k" d="M36 46h14q39 0 47 14v31q0 14 1 31t0 39 0 42v125l-1 23q-3 19-14 25t-45 9H20v23q0 23 2 23l10 1q10 1 28 2t36 2q16 1 35 2t29 3 11 1h3v-69q39 68 97 68h6q45 0 66-22t21-46q0-21-13-36t-38-15-37 16-13 34q0 9 2 16t5 12 3 5q-2 2-23-4-16-8-24-15-47-45-47-179V101q0-12 1-20t0-15v-5q1-2 3-4t5-3 5-3 7-2 7-1 9-1 9 0 10-1 10 0h31V0h-9q-18 3-127 3Q37 3 28 0h-8v46z"/><path id="l" d="M329 409q44 44 100 44 30 0 43-19t13-38q0-14-9-25t-27-11q-33 0-37 30-2 14 3 21 0 1 1 3v1q-28-3-53-22-8-5-8-7 0-1 4-5t9-12 11-18 9-26 4-33q0-62-49-105t-121-44q-50 0-99 28-11-18-11-38 0-35 26-52 9-6 17-6t72-2q84-1 108-6 61-9 96-41 39-39 39-98 0-67-78-103-60-31-142-31-83 0-143 31-78 35-78 100 0 36 21 60t42 33l11 6q-36 31-36 84 0 47 29 85-44 44-44 99 0 63 50 106t121 44q51 0 95-26zm-30-66q-5 28-26 44t-52 17q-29 0-50-16t-26-45q-3-17-3-51 0-44 7-65t30-35q17-10 43-10 22 0 38 7t23 18 11 20 5 15q3 16 3 50t-3 51M403-75q0 25-14 41t-41 23-49 9-54 2h-27q-67 0-80-6-20-9-31-28T95-74q0-10 6-23t21-30 48-28 80-12q69 0 111 28t42 64"/><path id="m" d="M28 218q0 55 20 100t50 73 65 42 66 15q53 0 91-18t58-50 28-64 9-71q0-7-7-14H126v-15q0-148 100-180 20-6 44-6 42 0 72 32 17 17 27 42l10 24q3 3 16 3h3q17 0 17-10 0-4-3-13-19-55-63-87t-99-32q-95 0-158 69T28 218m305 57q-11 128-95 136h-2q-8 0-16-1t-25-8-29-21-23-41-16-66v-7h206z"/><path id="q" d="M295 316q0 40-27 69t-78 29q-36 0-62-13-30-19-30-52-1-5 0-13t16-24 43-25q18-5 44-9t44-9 32-13q17-8 33-20t32-41 17-62q0-62-38-102T198-10h-8q-52 0-96 36l-8-7-9-9Q71 4 65-1L54-11H42q-3 0-9 6v137q0 21 2 25t10 5h9q12 0 16-4t5-12 7-27 19-42q35-51 97-51 97 0 97 78 0 29-18 47-20 24-83 36t-83 23q-36 17-57 46t-21 62q0 39 17 66t43 40 50 18 44 5h11q40 0 70-15l15-8 9 7q10 9 22 17h12q3 0 9-6V310l-6-6h-28q-6 6-6 12"/><path id="s" d="M27 422q53 4 82 56t32 122v15h40V431h135v-46H181V241q1-125 1-141t7-32q14-39 49-39 44 0 54 71 1 8 1 46v35h40v-47q0-77-42-117-27-27-70-27-34 0-59 12t-38 31-19 35-7 32q-1 7-1 148v137H18v37z"/><path id="t" d="M36 46h14q39 0 47 14v31q0 14 1 31t0 39 0 42v125l-1 23q-3 19-14 25t-45 9H20v23q0 23 2 23l10 1q10 1 28 2t36 2q16 1 35 2t29 3 11 1h3v-69q39 68 97 68h6q45 0 66-22t21-46q0-21-13-36t-38-15-37 16-13 34q0 9 2 16t5 12 3 5q-2 2-23-4-16-8-24-15-47-45-47-179V101q0-12 1-20t0-15v-5q1-2 3-4t5-3 5-3 7-2 7-1 9-1 9 0 10-1 10 0h31V0h-9q-18 3-127 3Q37 3 28 0h-8v46z"/><path id="u" d="M137 305h-22l-37 15-15 39q0 35 34 62t121 27q73 0 118-32t60-76q5-14 5-31t1-115v-70q0-48 5-66t21-18q15 0 20 16t5 53v36h40v-39q-1-40-3-47-9-30-35-47T400-6t-47 18-24 42v4l-2-3q-2-3-5-6t-8-9-12-11-15-12-18-11-22-8-26-6-31-3q-60 0-108 31t-48 87q0 21 7 40t27 41 48 37 78 28 110 15h14v22q0 34-6 50-22 71-97 71-18 0-34-1t-25-4-8-3q22-15 22-44 0-25-16-39zm-11-199q0-31 24-55t59-25q38 0 67 23t39 60q2 7 3 66 0 58-1 58-8 0-21-1t-45-9-58-20-46-37-21-60"/><path id="v" d="M41 46h14q39 0 47 14v62q0 17 1 39t0 42v66q0 35-1 59v23q-3 19-14 25t-45 9H25v23q0 23 2 23l10 1q10 1 28 2t37 2q17 1 36 2t29 3 11 1h3v-40q0-38 1-38t5 5 12 15 19 18 29 19 38 16 51 5q114-4 127-113 1-7 1-139v-86q0-38 2-45t11-10q21-3 49-3h16V0h-8l-24 1q-23 1-50 1t-38 1Q319 3 310 0h-8v46h16q61 0 61 16 1 2 1 138-1 135-2 143-6 28-20 42t-24 17-26 2q-45 0-79-34-27-27-34-55t-8-83V108q0-30 1-40t3-13 9-6q21-3 49-3h16V0h-8l-23 1q-24 1-51 1t-38 1Q42 3 33 0h-8v46z"/><path id="w" d="M329 409q44 44 100 44 30 0 43-19t13-38q0-14-9-25t-27-11q-33 0-37 30-2 14 3 21 0 1 1 3v1q-28-3-53-22-8-5-8-7 0-1 4-5t9-12 11-18 9-26 4-33q0-62-49-105t-121-44q-50 0-99 28-11-18-11-38 0-35 26-52 9-6 17-6t72-2q84-1 108-6 61-9 96-41 39-39 39-98 0-67-78-103-60-31-142-31-83 0-143 31-78 35-78 100 0 36 21 60t42 33l11 6q-36 31-36 84 0 47 29 85-44 44-44 99 0 63 50 106t121 44q51 0 95-26zm-30-66q-5 28-26 44t-52 17q-29 0-50-16t-26-45q-3-17-3-51 0-44 7-65t30-35q17-10 43-10 22 0 38 7t23 18 11 20 5 15q3 16 3 50t-3 51M403-75q0 25-14 41t-41 23-49 9-54 2h-27q-67 0-80-6-20-9-31-28T95-74q0-10 6-23t21-30 48-28 80-12q69 0 111 28t42 64"/><path id="y" d="M28 218q0 55 20 100t50 73 65 42 66 15q53 0 91-18t58-50 28-64 9-71q0-7-7-14H126v-15q0-148 100-180 20-6 44-6 42 0 72 32 17 17 27 42l10 24q3 3 16 3h3q17 0 17-10 0-4-3-13-19-55-63-87t-99-32q-95 0-158 69T28 218m305 57q-11 128-95 136h-2q-8 0-16-1t-25-8-29-21-23-41-16-66v-7h206z"/><path id="z" d="M69 609q0 28 18 44t44 16q23-2 40-17t17-43q0-30-17-45t-42-15-42 15-18 45M247 0q-15 3-104 3h-37Q80 3 56 1L34 0h-8v46h16q28 0 49 3 9 4 11 11t2 42v191q0 52-2 66t-14 19q-14 7-47 7H30v23q0 23 2 23l10 1q10 1 28 2t36 2q17 1 36 2t29 3 11 1h3V62q5-10 12-12t35-4h23V0z"/><path id="A" d="M295 316q0 40-27 69t-78 29q-36 0-62-13-30-19-30-52-1-5 0-13t16-24 43-25q18-5 44-9t44-9 32-13q17-8 33-20t32-41 17-62q0-62-38-102T198-10h-8q-52 0-96 36l-8-7-9-9Q71 4 65-1L54-11H42q-3 0-9 6v137q0 21 2 25t10 5h9q12 0 16-4t5-12 7-27 19-42q35-51 97-51 97 0 97 78 0 29-18 47-20 24-83 36t-83 23q-36 17-57 46t-21 62q0 39 17 66t43 40 50 18 44 5h11q40 0 70-15l15-8 9 7q10 9 22 17h12q3 0 9-6V310l-6-6h-28q-6 6-6 12"/><path id="B" d="M28 214q0 95 65 164t157 70q90 0 155-68t66-165q0-95-64-160T250-10q-97 0-159 67T28 214M250 30q122 0 122 163v57q0 22-1 38t-7 38-16 36-31 28-49 20q-5 1-16 1-30 0-57-12-43-22-56-61t-13-92v-20q0-96 19-135 32-61 105-61"/><path id="C" d="M36-148h14q39 0 47 14v57q0 18 1 39t0 44 0 49 0 51v190q0 24-1 39t0 16q-3 19-14 25t-45 9H20v23q0 23 2 23l10 1q10 1 29 2t37 2q17 1 37 2t30 3 11 1h3v-26l1-26 8 7q59 44 138 44 81 0 138-64t58-161q0-101-65-164T310-11q-68 0-120 44l-8 7v-141q0-27 2-33t11-11q21-3 49-3h16v-46h-8l-24 1q-23 1-50 1t-38 1q-103 0-112-3h-8v46zm388 366q0 74-34 129t-85 55q-71 0-123-65V98q40-72 112-72 51 0 90 54t40 138"/><path id="D" d="M41 46h14q39 0 47 14v62q0 17 1 39t0 42v66q0 35-1 59v23q-3 19-14 25t-45 9H25v23q0 23 2 23l10 1q10 1 28 2t37 2q17 1 36 2t29 3 11 1h3v-40q0-38 1-38t5 5 12 15 19 18 29 19 38 16 51 5q114-4 127-113 1-7 1-139v-86q0-38 2-45t11-10q21-3 49-3h16V0h-8l-24 1q-23 1-50 1t-38 1Q319 3 310 0h-8v46h16q61 0 61 16 1 2 1 138-1 135-2 143-6 28-20 42t-24 17-26 2q-45 0-79-34-27-27-34-55t-8-83V108q0-30 1-40t3-13 9-6q21-3 49-3h16V0h-8l-23 1q-24 1-51 1t-38 1Q42 3 33 0h-8v46z"/><path id="E" d="M804 680c-21 0-89 3-110 3-15 0-23-8-23-24 0-8 7-13 21-16s22-8 22-15c0-11-11-26-34-43L302 296l77 306q7.5 31.5 27 39c6 2 23 3 52 3 26 0 38 0 38 24q0 15-18 15l-127-3-128 3c-16 1-24-7-24-23 0-11 11-16 33-16 20 0 61 3 61-13 0-2-1-8-4-18L156 82c-5-22-15-35-30-40-7-2-25-3-56-3-22 0-32-2-32-23C38 5 44 0 57 0l126 3 63-1c11 0 53-2 64-2q24 0 24 24c0 10-10 15-31 15-41 0-61 4-61 13 0 5 3 20 9 43l39 154 143 110L546 98c7-17 11-28 11-33 0-17-16-26-47-26-18 0-26-4-26-24q0-15 18-15c22 0 98 3 120 3 19 0 79-3 98-3q21 0 21 24c0 9-8 14-23 15-41 0-51 11-65 42L512 404c-1 5-3 9-4 12l200 154c49 38 91 61 125 69 24 4 56 3 56 29q0 15-15 15c-14 0-56-3-70-3"/><path id="F" d="M404 372c-7 0-14-2-19-6l-118-87 15 146c3 20-13 37-32 37s-35-17-32-37l15-146-118 87c-5 4-12 6-19 6-18 0-33-15-33-33 0-14 7-24 20-30l134-59-134-59c-13-6-20-16-20-30 0-18 15-33 33-33 7 0 14 2 19 6l118 87-15-146c-3-20 13-36 32-36s35 16 32 36l-15 146 118-87c5-4 12-6 19-6 11 0 20 5 27 14 15 20 4 41-14 49l-134 59 134 59c13 6 20 16 20 30 0 18-15 33-33 33"/><path id="G" d="M249-22c141 0 211 114 211 342 0 153-32 255-95 305-35 27-74 41-115 41-141 0-211-115-211-346C39 136 88-22 249-22m112 546c7-35 10-99 10-192 0-92-4-160-11-204Q340.5 8 249 8c-23 0-46 9-67 26-27 23-43 70-50 142-3 25-4 77-4 156 0 87 3 148 8 181 9 55 27 90 55 105 22 12 41 18 58 18 65 0 101-53 112-112"/><path id="H" d="M698 274H413v285q0 24-24 24c-24 0-24-8-24-24V274H80q-24 0-24-24c0-24 8-24 24-24h285V-59q0-24 24-24c24 0 24 8 24 24v285h285q24 0 24 24c0 13-11 24-24 24"/><path id="I" d="M361 442c-113 0-207-122-232-222L33-169c-2-8-3-13-3-16 0-21 10-31 31-31 15 0 28 8 38 23l61 239c23-39 55-59 96-59 66 0 124 32 175 97 47 61 71 126 71 193 0 91-53 165-141 165m-2-30c43 0 64-31 64-93 0-27-6-62-17-107-22-85-53-142-92-172-21-16-40-24-59-24s-36 7-49 20c-21 21-31 43-31 64 1 7 3 19 7 36 23 95 43 156 59 184 35 61 74 92 118 92"/><path id="J" d="M698 270H80c-16 0-24-7-24-20s8-20 24-20h618c16 0 24 7 24 20 0 12-12 20-24 20"/><path id="K" d="M505 391c0-11 4-21 12-28 25-21 37-49 37-83 0-13-1-25-4-36-20-76-73-176-154-176q-78 0-93 84c13 27 23 55 30 86 3 11 4 20 4 26 0 20-8 30-23 30-38 0-48-96-50-138-37-59-80-88-131-88-55 0-82 36-82 107 0 20 3 41 8 63 11 44 40 99 87 164q6 7.5 6 15c0 13-7 20-22 20-7 0-14-3-20-10-49-67-97-185-97-294Q13-11 121-11c57 0 106 33 149 98 14-65 52-98 113-98 33 0 64 13 92 39 47 44 82 114 106 210 15 61 23 104 23 131q0 43.5-21 63c-7 7-16 10-25 10-26 0-53-25-53-51"/><path id="L" d="M385 445c19 79 39 156 57 235v3c-3 7-8 11-16 11-9 0-15-8-18-23l-57-226c-75-3-143-31-204-83-65-55-98-119-98-192C49 62 132-7 237-13c-19-79-33-136-42-170-1-3-1-6-1-7 0-10 5-15 16-15s14 6 17 18l44 173c75 3 143 31 204 83 65 56 98 120 98 193 0 107-85 174-188 183m-8-30c76-5 124-52 124-132 0-40-9-80-27-119C442 92 369 26 278 17M121 149c0 40 9 80 27 119 32 72 105 137 195 147L244 16c-75 6-123 53-123 133"/><path id="M" d="M804 680c-21 0-89 3-110 3-15 0-23-8-23-24 0-8 7-13 21-16s22-8 22-15c0-11-11-26-34-43L302 296l77 306q7.5 31.5 27 39c6 2 23 3 52 3 26 0 38 0 38 24q0 15-18 15l-127-3-128 3c-16 1-24-7-24-23 0-11 11-16 33-16 20 0 61 3 61-13 0-2-1-8-4-18L156 82c-5-22-15-35-30-40-7-2-25-3-56-3-22 0-32-2-32-23C38 5 44 0 57 0l126 3 63-1c11 0 53-2 64-2q24 0 24 24c0 10-10 15-31 15-41 0-61 4-61 13 0 5 3 20 9 43l39 154 143 110L546 98c7-17 11-28 11-33 0-17-16-26-47-26-18 0-26-4-26-24q0-15 18-15c22 0 98 3 120 3 19 0 79-3 98-3q21 0 21 24c0 9-8 14-23 15-41 0-51 11-65 42L512 404c-1 5-3 9-4 12l200 154c49 38 91 61 125 69 24 4 56 3 56 29q0 15-15 15c-14 0-56-3-70-3"/><path id="N" d="M70 589h361v31H70z"/><path id="O" d="M404 372c-7 0-14-2-19-6l-118-87 15 146c3 20-13 37-32 37s-35-17-32-37l15-146-118 87c-5 4-12 6-19 6-18 0-33-15-33-33 0-14 7-24 20-30l134-59-134-59c-13-6-20-16-20-30 0-18 15-33 33-33 7 0 14 2 19 6l118 87-15-146c-3-20 13-36 32-36s35 16 32 36l-15 146 118-87c5-4 12-6 19-6 11 0 20 5 27 14 15 20 4 41-14 49l-134 59 134 59c13 6 20 16 20 30 0 18-15 33-33 33"/><path id="P" d="M249-22c141 0 211 114 211 342 0 153-32 255-95 305-35 27-74 41-115 41-141 0-211-115-211-346C39 136 88-22 249-22m112 546c7-35 10-99 10-192 0-92-4-160-11-204Q340.5 8 249 8c-23 0-46 9-67 26-27 23-43 70-50 142-3 25-4 77-4 156 0 87 3 148 8 181 9 55 27 90 55 105 22 12 41 18 58 18 65 0 101-53 112-112"/></defs><g fill="#8dae10" stroke-width="0"><use xlink:href="#a" data-c="2B" data-mml-node="mo" style="stroke:none;fill:#da3" transform="matrix(0 .00383 .00383 0 49.722 2.686)"/><use xlink:href="#b" data-c="31" data-mml-node="mn" style="stroke:none;fill:#da3" transform="matrix(0 .00383 .00383 0 49.722 5.666)"/><use xlink:href="#a" data-c="2B" data-mml-node="mo" style="stroke:none;fill:#da3" transform="matrix(0 .00383 .00383 0 40.876 1.74)"/><g data-mml-node="mfrac"><use xlink:href="#b" data-c="31" data-mml-node="mn" style="stroke:none;fill:#da3" transform="matrix(0 .0027 .0027 0 42.385 5.564)"/><use xlink:href="#c" data-c="32" data-mml-node="mn" style="stroke:none;fill:#da3" transform="matrix(0 .0027 .0027 0 39.554 5.564)"/><path d="M41.719 5.181v2.121h.23v-2.12z" style="stroke:none;fill:#da3"/></g></g><g fill="#e7e7e7" stroke="#8dae10" stroke-linejoin="round" stroke-miterlimit="6"><g stroke-dasharray="0.083909, 0.0419545" stroke-width=".042"><path d="m77.732 106.302-2.052-3.553" style="paint-order:fill markers stroke;stroke:#da3" transform="matrix(2.79963 3.51482 -1.61637 6.08785 -29.988 -882.763)"/><path d="m77.547 105.982-2.04-3.532" style="paint-order:fill markers stroke;stroke:#da3" transform="matrix(2.79963 3.51482 -1.61637 6.08785 5.008 -880.337)"/><path d="m80.988 111.942-2.88-4.99" style="paint-order:stroke fill markers;stroke:#da3" transform="matrix(2.79963 3.51482 -1.61637 6.08785 -12.572 -916.88)"/><path d="m79.867 110-3.062-5.304" style="paint-order:stroke fill markers;stroke:#da3" transform="matrix(2.79963 3.51482 -1.61637 6.08785 -21.212 -898.57)"/><path d="m78.534 107.69-3.06-5.3" style="paint-order:fill markers stroke;stroke:#da3" transform="matrix(2.79963 3.51482 -1.61637 6.08785 -3.863 -879.848)"/></g><path stroke-linecap="round" stroke-width=".201" d="M49.501 44.93H16.355M48.61 14.763H13.165m44.513 15.083H8.946m45.447 6.497L38.668 9.105m6.517 41.455L21.251 9.105m6.869 42.064L11.882 23.045" style="stroke:#da3"/></g><path fill="none" stroke="#8dae10" stroke-linecap="round" stroke-linejoin="round" stroke-miterlimit="6" stroke-width=".5" d="M41.934 44.93H24.518l-8.709-15.084 8.709-15.083h17.416l8.709 15.083z" style="stroke:#da3"/><g fill="#e7e7e7"><g transform="translate(-43.795 -81.1)"><circle cx="85.73" cy="95.862" r="4.327"/><circle cx="68.313" cy="95.862" r="4.327"/></g><circle cx="33.226" cy="32.099" r="4.327"/><circle cx="30.189" cy="27.064" r="4.327"/></g><g fill="#8dae10" stroke-width="0"><use xlink:href="#d" data-c="2B" data-mml-node="mo" style="stroke:none;fill:#da3" transform="matrix(.00383 0 0 -.00383 7.282 15.776)"/><use xlink:href="#e" data-c="31" data-mml-node="mn" style="stroke:none;fill:#da3" transform="matrix(.00383 0 0 -.00383 10.262 15.776)"/><use xlink:href="#f" data-c="30" data-mml-node="mn" style="stroke:none;fill:#da3" transform="matrix(.00383 0 0 -.00383 5.65 31.08)"/><use xlink:href="#g" data-c="2212" data-mml-node="mo" style="stroke:none;fill:#da3" transform="matrix(.00383 0 0 -.00383 10.035 46.21)"/><use xlink:href="#e" data-c="31" data-mml-node="mn" style="stroke:none;fill:#da3" transform="matrix(.00383 0 0 -.00383 13.015 46.21)"/><use xlink:href="#d" data-c="2B" data-mml-node="mo" style="stroke:none;fill:#da3" transform="rotate(60 -6.243 66.725)scale(.00383 -.00383)"/><use xlink:href="#e" data-c="31" data-mml-node="mn" style="stroke:none;fill:#da3" transform="rotate(60 -7.733 69.306)scale(.00383 -.00383)"/><g data-mml-node="mtr"><g data-mml-node="mtd"><use xlink:href="#f" data-c="30" data-mml-node="mn" style="stroke:none;fill:#da3" transform="rotate(60 -22.952 64.878)scale(.00383 -.00383)"/><use xlink:href="#g" data-c="2212" data-mml-node="mo" style="stroke:none;fill:#da3" transform="rotate(60 -32.028 51.435)scale(.00383 -.00383)"/><use xlink:href="#e" data-c="31" data-mml-node="mn" style="stroke:none;fill:#da3" transform="rotate(60 -33.518 54.016)scale(.00383 -.00383)"/></g></g></g><g fill="#e7e7e7" transform="translate(-43.795 -81.1)"><circle cx="94.438" cy="110.946" r="4.327"/><circle cx="85.73" cy="126.029" r="4.327"/><circle cx="68.313" cy="126.029" r="4.327"/><circle cx="59.605" cy="110.946" r="4.327"/></g><g fill="#8dae10" stroke-width="0"><g stroke="#000" data-mml-node="mtext" transform="rotate(150 13.959 35.352)scale(-.00383 .00383)"><use xlink:href="#h" data-c="63" style="stroke:none;fill:#da3"/><use xlink:href="#i" data-c="68" style="stroke:none;fill:#da3" transform="translate(444)"/><use xlink:href="#j" data-c="61" style="stroke:none;fill:#da3" transform="translate(1000)"/><use xlink:href="#k" data-c="72" style="stroke:none;fill:#da3" transform="translate(1500)"/><use xlink:href="#l" data-c="67" style="stroke:none;fill:#da3" transform="translate(1892)"/><use xlink:href="#m" data-c="65" style="stroke:none;fill:#da3" transform="translate(2392)"/></g><use xlink:href="#n" data-c="2212" data-mml-node="mo" style="stroke:none;fill:#da3" transform="matrix(0 .00383 .00383 0 14.483 2.686)"/><use xlink:href="#b" data-c="31" data-mml-node="mn" style="stroke:none;fill:#da3" transform="matrix(0 .00383 .00383 0 14.483 5.666)"/><use xlink:href="#n" data-c="2212" data-mml-node="mo" style="stroke:none;fill:#da3" transform="matrix(0 .00383 .00383 0 23.618 1.74)"/><g data-mml-node="mfrac"><use xlink:href="#b" data-c="31" data-mml-node="mn" style="stroke:none;fill:#da3" transform="matrix(0 .0027 .0027 0 25.128 5.564)"/><use xlink:href="#c" data-c="32" data-mml-node="mn" style="stroke:none;fill:#da3" transform="matrix(0 .0027 .0027 0 22.297 5.564)"/><path d="M24.461 5.181v2.121h.23v-2.12z" style="stroke:none;fill:#da3"/></g><use xlink:href="#p" data-c="30" data-mml-node="mn" style="stroke:none;fill:#da3" transform="matrix(0 .00383 .00383 0 31.915 5.54)"/><g data-mml-node="mtext" transform="matrix(0 -.00383 -.00383 0 3.432 38.789)"><use xlink:href="#q" data-c="73" style="stroke:none;fill:#da3"/><use xlink:href="#s" data-c="74" style="stroke:none;fill:#da3" transform="translate(394)"/><use xlink:href="#t" data-c="72" style="stroke:none;fill:#da3" transform="translate(783)"/><use xlink:href="#u" data-c="61" style="stroke:none;fill:#da3" transform="translate(1175)"/><use xlink:href="#v" data-c="6E" style="stroke:none;fill:#da3" transform="translate(1675)"/><use xlink:href="#w" data-c="67" style="stroke:none;fill:#da3" transform="translate(2231)"/><use xlink:href="#y" data-c="65" style="stroke:none;fill:#da3" transform="translate(2731)"/><use xlink:href="#v" data-c="6E" style="stroke:none;fill:#da3" transform="translate(3175)"/><use xlink:href="#y" data-c="65" style="stroke:none;fill:#da3" transform="translate(3731)"/><use xlink:href="#q" data-c="73" style="stroke:none;fill:#da3" transform="translate(4175)"/><use xlink:href="#q" data-c="73" style="stroke:none;fill:#da3" transform="translate(4569)"/></g><g stroke="#000" data-mml-node="mtext" transform="matrix(.00383 0 0 -.00383 27.665 2.907)"><use xlink:href="#z" data-c="69" style="stroke:none;fill:#da3"/><use xlink:href="#A" data-c="73" style="stroke:none;fill:#da3" transform="translate(278)"/><use xlink:href="#B" data-c="6F" style="stroke:none;fill:#da3" transform="translate(672)"/><use xlink:href="#A" data-c="73" style="stroke:none;fill:#da3" transform="translate(1172)"/><use xlink:href="#C" data-c="70" style="stroke:none;fill:#da3" transform="translate(1566)"/><use xlink:href="#z" data-c="69" style="stroke:none;fill:#da3" transform="translate(2122)"/><use xlink:href="#D" data-c="6E" style="stroke:none;fill:#da3" transform="translate(2400)"/></g></g><circle cx="36.135" cy="27.064" r="4.327" fill="#e7e7e7"/><g fill="#17365c"><g transform="matrix(.9 0 0 1 1.978 0)"><use xlink:href="#E" data-c="1D43E" style="stroke:none;fill:#048" transform="matrix(.00479 0 0 -.00479 21.289 16.791)"/><use xlink:href="#F" data-c="2217" style="stroke:none;fill:#048" transform="matrix(.00339 0 0 -.00339 25.424 15.053)"/><use xlink:href="#G" data-c="30" style="stroke:none;fill:#048" transform="matrix(.00339 0 0 -.00339 27.117 15.053)"/></g><g stroke-width="0"><g aria-level="1" data-latex="{c}" data-latex-item="{c}" data-mml-node="mtr" data-semantic-annotation="depth:2" data-semantic-attributes="latex:{c}" data-semantic-children="11" data-semantic-id="13" data-semantic-owns="11" data-semantic-parent="51" data-semantic-role="multiline" data-semantic-type="line" data-speech-node="true" transform="matrix(.00431 0 0 -.00479 36.067 16.416)"><use xlink:href="#E" data-c="1D43E" style="stroke:none;fill:#048" transform="translate(500)"/><use xlink:href="#F" data-c="2217" style="stroke:none;fill:#048" transform="translate(1363.5 363)scale(.707)"/><use xlink:href="#H" data-c="2B" style="stroke:none;fill:#048" transform="translate(1717 363)scale(.707)"/></g><g aria-level="1" data-latex="{c}" data-latex-item="{c}" data-mml-node="mtr" data-semantic-annotation="depth:2" data-semantic-attributes="latex:{c}" data-semantic-children="16" data-semantic-id="18" data-semantic-owns="16" data-semantic-parent="51" data-semantic-role="multiline" data-semantic-type="line" data-speech-node="true"><g data-mml-node="mtd"><g aria-level="2" data-latex="\rho^-" data-mml-node="msup" data-semantic-annotation="depth:3" data-semantic-attributes="latex:\rho^-" data-semantic-children="14,15" data-semantic-id="16" data-semantic-owns="14 15" data-semantic-parent="18" data-semantic-role="greekletter" data-semantic-type="superscript" data-speech-node="true"><use xlink:href="#I" aria-level="3" data-c="1D70C" data-latex="\rho" data-mml-node="mi" data-semantic-annotation="clearspeak:simple;nemeth:number;depth:4" data-semantic-attributes="latex:\rho" data-semantic-font="italic" data-semantic-id="14" data-semantic-parent="16" data-semantic-role="greekletter" data-semantic-type="identifier" data-speech-node="true" style="stroke:none;fill:#048" transform="matrix(.00479 0 0 -.00479 13.416 31.339)"/><use xlink:href="#J" aria-level="3" data-c="2212" data-latex="-" data-mml-node="mo" data-semantic-annotation="depth:4" data-semantic-attributes="latex:-" data-semantic-id="15" data-semantic-parent="16" data-semantic-role="subtraction" data-semantic-type="operator" data-speech-node="true" style="stroke:none;fill:#048" transform="matrix(.00339 0 0 -.00339 16.05 29.6)"/></g></g></g><g aria-level="1" data-latex="{c}" data-latex-item="{c}" data-mml-node="mtr" data-semantic-annotation="depth:2" data-semantic-attributes="latex:{c}" data-semantic-children="21" data-semantic-id="23" data-semantic-owns="21" data-semantic-parent="51" data-semantic-role="multiline" data-semantic-type="line" data-speech-node="true"><g data-mml-node="mtd"><g aria-level="2" data-latex="\rho^0" data-mml-node="msup" data-semantic-annotation="depth:3" data-semantic-attributes="latex:\rho^0" data-semantic-children="19,20" data-semantic-id="21" data-semantic-owns="19 20" data-semantic-parent="23" data-semantic-role="greekletter" data-semantic-type="superscript" data-speech-node="true"><use xlink:href="#I" aria-level="3" data-c="1D70C" data-latex="\rho" data-mml-node="mi" data-semantic-annotation="clearspeak:simple;nemeth:number;depth:4" data-semantic-attributes="latex:\rho" data-semantic-font="italic" data-semantic-id="19" data-semantic-parent="21" data-semantic-role="greekletter" data-semantic-type="identifier" data-speech-node="true" style="stroke:none;fill:#048" transform="matrix(.00479 0 0 -.00479 33.997 28.05)"/><use xlink:href="#G" aria-level="3" data-c="30" data-latex="0" data-mml-node="mn" data-semantic-annotation="clearspeak:simple;depth:4" data-semantic-attributes="latex:0" data-semantic-font="normal" data-semantic-id="20" data-semantic-parent="21" data-semantic-role="integer" data-semantic-type="number" data-speech-node="true" style="stroke:none;fill:#048" transform="matrix(.00339 0 0 -.00339 36.63 26.312)"/></g></g></g><g aria-level="1" data-latex="{c}" data-latex-item="{c}" data-mml-node="mtr" data-semantic-annotation="depth:2" data-semantic-attributes="latex:{c}" data-semantic-children="24" data-semantic-id="26" data-semantic-owns="24" data-semantic-parent="51" data-semantic-role="multiline" data-semantic-type="line" data-speech-node="true"><g data-mml-node="mtd"><use xlink:href="#K" aria-level="2" data-c="1D714" data-latex="\omega" data-mml-node="mi" data-semantic-annotation="clearspeak:simple;nemeth:number;depth:3" data-semantic-attributes="latex:\omega" data-semantic-font="italic" data-semantic-id="24" data-semantic-parent="26" data-semantic-role="greekletter" data-semantic-type="identifier" data-speech-node="true" style="stroke:none;fill:#048" transform="matrix(.00479 0 0 -.00479 28.663 28.06)"/></g></g><g aria-level="1" data-latex="{c}" data-latex-item="{c}" data-mml-node="mtr" data-semantic-annotation="depth:2" data-semantic-attributes="latex:{c}" data-semantic-children="27" data-semantic-id="29" data-semantic-owns="27" data-semantic-parent="51" data-semantic-role="multiline" data-semantic-type="line" data-speech-node="true"><g data-mml-node="mtd"><use xlink:href="#L" aria-level="2" data-c="1D719" data-latex="\phi" data-mml-node="mi" data-semantic-annotation="clearspeak:simple;nemeth:number;depth:3" data-semantic-attributes="latex:\phi" data-semantic-font="italic" data-semantic-id="27" data-semantic-parent="29" data-semantic-role="greekletter" data-semantic-type="identifier" data-speech-node="true" style="stroke:none;fill:#048" transform="matrix(.00479 0 0 -.00479 31.737 33.42)"/></g></g><g aria-level="1" data-latex="{c}" data-latex-item="{c}" data-mml-node="mtr" data-semantic-annotation="depth:2" data-semantic-attributes="latex:{c}" data-semantic-children="32" data-semantic-id="34" data-semantic-owns="32" data-semantic-parent="51" data-semantic-role="multiline" data-semantic-type="line" data-speech-node="true"><g data-mml-node="mtd"><g aria-level="2" data-latex="\rho^+" data-mml-node="msup" data-semantic-annotation="depth:3" data-semantic-attributes="latex:\rho^+" data-semantic-children="30,31" data-semantic-id="32" data-semantic-owns="30 31" data-semantic-parent="34" data-semantic-role="greekletter" data-semantic-type="superscript" data-speech-node="true"><use xlink:href="#I" aria-level="3" data-c="1D70C" data-latex="\rho" data-mml-node="mi" data-semantic-annotation="clearspeak:simple;nemeth:number;depth:4" data-semantic-attributes="latex:\rho" data-semantic-font="italic" data-semantic-id="30" data-semantic-parent="32" data-semantic-role="greekletter" data-semantic-type="identifier" data-speech-node="true" style="stroke:none;fill:#048" transform="matrix(.00479 0 0 -.00479 48.314 31.339)"/><use xlink:href="#H" aria-level="3" data-c="2B" data-latex="+" data-mml-node="mo" data-semantic-annotation="depth:4" data-semantic-attributes="latex:+" data-semantic-id="31" data-semantic-parent="32" data-semantic-role="addition" data-semantic-type="operator" data-speech-node="true" style="stroke:none;fill:#048" transform="matrix(.00339 0 0 -.00339 50.948 29.6)"/></g></g></g></g><g transform="matrix(.9 0 0 1 2 0)"><use xlink:href="#E" data-c="1D43E" style="stroke:none;fill:#048" transform="matrix(.00479 0 0 -.00479 21.06 46.652)"/><use xlink:href="#F" data-c="2217" style="stroke:none;fill:#048" transform="matrix(.00339 0 0 -.00339 25.196 44.914)"/><use xlink:href="#J" data-c="2212" style="stroke:none;fill:#048" transform="matrix(.00339 0 0 -.00339 26.888 44.914)"/></g></g><g fill="#17365c" transform="matrix(.9 0 0 1 18.426 -1.194)"><use xlink:href="#M" data-c="1D43E" style="stroke:none;fill:#048" transform="matrix(.00479 0 0 -.00479 22.243 47.846)"/><use xlink:href="#N" data-c="AF" style="stroke:none;fill:#048" transform="matrix(.00479 0 0 -.00479 23.653 46.889)"/><use xlink:href="#O" data-c="2217" style="stroke:none;fill:#048" transform="matrix(.00338 0 0 -.00338 26.377 45.869)"/><use xlink:href="#P" data-c="30" style="stroke:none;fill:#048" transform="matrix(.00338 0 0 -.00338 28.07 45.869)"/></g><metadata><rdf:RDF><cc:Work><dc:creator><cc:Agent><dc:title>Remco de Boer</dc:title></cc:Agent></dc:creator><cc:license rdf:resource="http://creativecommons.org/licenses/by/4.0/"/></cc:Work><cc:License rdf:about="http://creativecommons.org/licenses/by/4.0/"><cc:permits rdf:resource="http://creativecommons.org/ns#Reproduction"/><cc:permits rdf:resource="http://creativecommons.org/ns#Distribution"/><cc:requires rdf:resource="http://creativecommons.org/ns#Notice"/><cc:requires rdf:resource="http://creativecommons.org/ns#Attribution"/><cc:permits rdf:resource="http://creativecommons.org/ns#DerivativeWorks"/></cc:License></rdf:RDF></metadata></svg>