<svg xmlns="http://www.w3.org/2000/svg" xmlns:cc="http://creativecommons.org/ns#" xmlns:dc="http://purl.org/dc/elements/1.1/" xmlns:inkscape="http://www.inkscape.org/namespaces/inkscape" xmlns:rdf="http://www.w3.org/1999/02/22-rdf-syntax-ns#" xmlns:sodipodi="http://sodipodi.sourceforge.net/DTD/sodipodi-0.dtd" xmlns:xlink="http://www.w3.org/1999/xlink" inkscape:version="1.4.2 (ebf0e94, 2025-05-08)" sodipodi:docname="eightfold-way-baryons-spin-half.svg" xml:space="preserve" width="60mm" height="59mm" viewBox="0 0 60 59"><sodipodi:namedview inkscape:current-layer="svg69" inkscape:cx="113.365" inkscape:cy="111.496" inkscape:deskcolor="#d1d1d1" inkscape:document-units="mm" inkscape:pagecheckerboard="0" inkscape:pageopacity="0" inkscape:showpageshadow="2" inkscape:window-height="1369" inkscape:window-maximized="1" inkscape:window-width="2560" inkscape:window-x="-8" inkscape:window-y="-8" inkscape:zoom="5.35" bordercolor="#000000" borderopacity=".25" pagecolor="#ffffff"/><defs><path id="f" d="M96 585q56 81 153 81 48 0 96-26t78-92q37-83 37-228 0-155-43-237-20-42-55-67t-61-31-51-7q-26 0-52 6t-61 32-55 67q-43 82-43 237 0 174 57 265m225 12q-30 32-71 32-42 0-72-32-25-26-33-72t-8-192q0-158 8-208t36-79q28-30 69-30 40 0 68 30 29 30 36 84t8 203q0 145-8 191t-33 73"/><path id="d" d="M56 237v13l14 20h299v150l1 150q10 13 19 13 13 0 20-15V270h298q15-8 15-20t-15-20H409V-68q-8-14-18-14h-4q-12 0-18 14v298H70q-14 7-14 20z"/><path id="g" d="M84 237v13l14 20h581q15-8 15-20t-15-20H98q-14 7-14 20z"/><path id="e" d="m213 578-13-5q-14-5-40-10t-58-7H83v46h19q47 2 87 15t56 24 28 22q2 3 12 3 9 0 17-6V361l1-300q7-7 12-9t24-4 62-2h26V0h-11q-21 3-159 3-136 0-157-3H88v46h64q16 0 25 1t16 3 8 2 6 5 6 4z"/><path id="n" d="M84 237v13l14 20h581q15-8 15-20t-15-20H98q-14 7-14 20z"/><path id="b" d="m213 578-13-5q-14-5-40-10t-58-7H83v46h19q47 2 87 15t56 24 28 22q2 3 12 3 9 0 17-6V361l1-300q7-7 12-9t24-4 62-2h26V0h-11q-21 3-159 3-136 0-157-3H88v46h64q16 0 25 1t16 3 8 2 6 5 6 4z"/><path id="c" d="M109 429q-27 0-43 18t-16 44q0 71 53 123t132 52q91 0 152-56t62-145q0-43-20-82t-48-68-80-74q-36-31-100-92l-59-56 76-1q157 0 167 5 7 2 24 89v3h40v-3q-1-3-13-91T421 3V0H50v31q0 7 6 15t30 35q29 32 50 56 9 10 34 37t34 37 29 33 28 34 23 30 21 32 15 29 13 32 7 30 3 33q0 63-34 109t-97 46q-33 0-58-17t-35-33-10-19q0-1 5-1 18 0 37-14t19-46q0-25-16-42t-45-18"/><path id="o" d="M96 585q56 81 153 81 48 0 96-26t78-92q37-83 37-228 0-155-43-237-20-42-55-67t-61-31-51-7q-26 0-52 6t-61 32-55 67q-43 82-43 237 0 174 57 265m225 12q-30 32-71 32-42 0-72-32-25-26-33-72t-8-192q0-158 8-208t36-79q28-30 69-30 40 0 68 30 29 30 36 84t8 203q0 145-8 191t-33 73"/><path id="a" d="M56 237v13l14 20h299v150l1 150q10 13 19 13 13 0 20-15V270h298q15-8 15-20t-15-20H409V-68q-8-14-18-14h-4q-12 0-18 14v298H70q-14 7-14 20z"/><path id="h" d="M370 305h-21l-36 15-16 38q0 23 15 38 5 5 5 6t-10 2q-26 4-49 4-49 0-80-32-47-47-47-157 0-82 31-129 41-61 110-61 41 0 66 26t36 62q2 8 5 10t16 2h14q6-6 6-9 0-4-4-16t-16-33-29-38-48-31-69-13q-86 0-150 64T34 214q0 104 65 169t151 65 120-27 34-64q0-23-17-37z"/><path id="i" d="M41 46h14q39 0 47 14v107q0 24 1 50t0 55 0 57v153q0 34-1 60t0 44 0 17q-3 19-14 25t-45 9H25v23q0 23 2 23l10 1q10 1 29 2t37 2q17 1 37 2t30 3 11 1h3V367q60 75 144 75 123 0 135-113 1-7 1-139v-86q0-38 2-45t11-10q21-3 49-3h16V0h-8l-24 1q-23 1-50 1t-38 1Q319 3 310 0h-8v46h16q61 0 61 16 1 2 1 138-1 135-2 143-6 28-20 42t-24 17-26 2q-45 0-79-34-27-27-34-55t-8-83V108q0-30 1-40t3-13 9-6q21-3 49-3h16V0h-8l-23 1q-24 1-51 1t-38 1Q42 3 33 0h-8v46z"/><path id="j" d="M137 305h-22l-37 15-15 39q0 35 34 62t121 27q73 0 118-32t60-76q5-14 5-31t1-115v-70q0-48 5-66t21-18q15 0 20 16t5 53v36h40v-39q-1-40-3-47-9-30-35-47T400-6t-47 18-24 42v4l-2-3q-2-3-5-6t-8-9-12-11-15-12-18-11-22-8-26-6-31-3q-60 0-108 31t-48 87q0 21 7 40t27 41 48 37 78 28 110 15h14v22q0 34-6 50-22 71-97 71-18 0-34-1t-25-4-8-3q22-15 22-44 0-25-16-39zm-11-199q0-31 24-55t59-25q38 0 67 23t39 60q2 7 3 66 0 58-1 58-8 0-21-1t-45-9-58-20-46-37-21-60"/><path id="k" d="M36 46h14q39 0 47 14v31q0 14 1 31t0 39 0 42v125l-1 23q-3 19-14 25t-45 9H20v23q0 23 2 23l10 1q10 1 28 2t36 2q16 1 35 2t29 3 11 1h3v-69q39 68 97 68h6q45 0 66-22t21-46q0-21-13-36t-38-15-37 16-13 34q0 9 2 16t5 12 3 5q-2 2-23-4-16-8-24-15-47-45-47-179V101q0-12 1-20t0-15v-5q1-2 3-4t5-3 5-3 7-2 7-1 9-1 9 0 10-1 10 0h31V0h-9q-18 3-127 3Q37 3 28 0h-8v46z"/><path id="l" d="M329 409q44 44 100 44 30 0 43-19t13-38q0-14-9-25t-27-11q-33 0-37 30-2 14 3 21 0 1 1 3v1q-28-3-53-22-8-5-8-7 0-1 4-5t9-12 11-18 9-26 4-33q0-62-49-105t-121-44q-50 0-99 28-11-18-11-38 0-35 26-52 9-6 17-6t72-2q84-1 108-6 61-9 96-41 39-39 39-98 0-67-78-103-60-31-142-31-83 0-143 31-78 35-78 100 0 36 21 60t42 33l11 6q-36 31-36 84 0 47 29 85-44 44-44 99 0 63 50 106t121 44q51 0 95-26zm-30-66q-5 28-26 44t-52 17q-29 0-50-16t-26-45q-3-17-3-51 0-44 7-65t30-35q17-10 43-10 22 0 38 7t23 18 11 20 5 15q3 16 3 50t-3 51M403-75q0 25-14 41t-41 23-49 9-54 2h-27q-67 0-80-6-20-9-31-28T95-74q0-10 6-23t21-30 48-28 80-12q69 0 111 28t42 64"/><path id="m" d="M28 218q0 55 20 100t50 73 65 42 66 15q53 0 91-18t58-50 28-64 9-71q0-7-7-14H126v-15q0-148 100-180 20-6 44-6 42 0 72 32 17 17 27 42l10 24q3 3 16 3h3q17 0 17-10 0-4-3-13-19-55-63-87t-99-32q-95 0-158 69T28 218m305 57q-11 128-95 136h-2q-8 0-16-1t-25-8-29-21-23-41-16-66v-7h206z"/><path id="p" d="M295 316q0 40-27 69t-78 29q-36 0-62-13-30-19-30-52-1-5 0-13t16-24 43-25q18-5 44-9t44-9 32-13q17-8 33-20t32-41 17-62q0-62-38-102T198-10h-8q-52 0-96 36l-8-7-9-9Q71 4 65-1L54-11H42q-3 0-9 6v137q0 21 2 25t10 5h9q12 0 16-4t5-12 7-27 19-42q35-51 97-51 97 0 97 78 0 29-18 47-20 24-83 36t-83 23q-36 17-57 46t-21 62q0 39 17 66t43 40 50 18 44 5h11q40 0 70-15l15-8 9 7q10 9 22 17h12q3 0 9-6V310l-6-6h-28q-6 6-6 12"/><path id="r" d="M27 422q53 4 82 56t32 122v15h40V431h135v-46H181V241q1-125 1-141t7-32q14-39 49-39 44 0 54 71 1 8 1 46v35h40v-47q0-77-42-117-27-27-70-27-34 0-59 12t-38 31-19 35-7 32q-1 7-1 148v137H18v37z"/><path id="s" d="M36 46h14q39 0 47 14v31q0 14 1 31t0 39 0 42v125l-1 23q-3 19-14 25t-45 9H20v23q0 23 2 23l10 1q10 1 28 2t36 2q16 1 35 2t29 3 11 1h3v-69q39 68 97 68h6q45 0 66-22t21-46q0-21-13-36t-38-15-37 16-13 34q0 9 2 16t5 12 3 5q-2 2-23-4-16-8-24-15-47-45-47-179V101q0-12 1-20t0-15v-5q1-2 3-4t5-3 5-3 7-2 7-1 9-1 9 0 10-1 10 0h31V0h-9q-18 3-127 3Q37 3 28 0h-8v46z"/><path id="t" d="M137 305h-22l-37 15-15 39q0 35 34 62t121 27q73 0 118-32t60-76q5-14 5-31t1-115v-70q0-48 5-66t21-18q15 0 20 16t5 53v36h40v-39q-1-40-3-47-9-30-35-47T400-6t-47 18-24 42v4l-2-3q-2-3-5-6t-8-9-12-11-15-12-18-11-22-8-26-6-31-3q-60 0-108 31t-48 87q0 21 7 40t27 41 48 37 78 28 110 15h14v22q0 34-6 50-22 71-97 71-18 0-34-1t-25-4-8-3q22-15 22-44 0-25-16-39zm-11-199q0-31 24-55t59-25q38 0 67 23t39 60q2 7 3 66 0 58-1 58-8 0-21-1t-45-9-58-20-46-37-21-60"/><path id="u" d="M41 46h14q39 0 47 14v62q0 17 1 39t0 42v66q0 35-1 59v23q-3 19-14 25t-45 9H25v23q0 23 2 23l10 1q10 1 28 2t37 2q17 1 36 2t29 3 11 1h3v-40q0-38 1-38t5 5 12 15 19 18 29 19 38 16 51 5q114-4 127-113 1-7 1-139v-86q0-38 2-45t11-10q21-3 49-3h16V0h-8l-24 1q-23 1-50 1t-38 1Q319 3 310 0h-8v46h16q61 0 61 16 1 2 1 138-1 135-2 143-6 28-20 42t-24 17-26 2q-45 0-79-34-27-27-34-55t-8-83V108q0-30 1-40t3-13 9-6q21-3 49-3h16V0h-8l-23 1q-24 1-51 1t-38 1Q42 3 33 0h-8v46z"/><path id="v" d="M329 409q44 44 100 44 30 0 43-19t13-38q0-14-9-25t-27-11q-33 0-37 30-2 14 3 21 0 1 1 3v1q-28-3-53-22-8-5-8-7 0-1 4-5t9-12 11-18 9-26 4-33q0-62-49-105t-121-44q-50 0-99 28-11-18-11-38 0-35 26-52 9-6 17-6t72-2q84-1 108-6 61-9 96-41 39-39 39-98 0-67-78-103-60-31-142-31-83 0-143 31-78 35-78 100 0 36 21 60t42 33l11 6q-36 31-36 84 0 47 29 85-44 44-44 99 0 63 50 106t121 44q51 0 95-26zm-30-66q-5 28-26 44t-52 17q-29 0-50-16t-26-45q-3-17-3-51 0-44 7-65t30-35q17-10 43-10 22 0 38 7t23 18 11 20 5 15q3 16 3 50t-3 51M403-75q0 25-14 41t-41 23-49 9-54 2h-27q-67 0-80-6-20-9-31-28T95-74q0-10 6-23t21-30 48-28 80-12q69 0 111 28t42 64"/><path id="w" d="M28 218q0 55 20 100t50 73 65 42 66 15q53 0 91-18t58-50 28-64 9-71q0-7-7-14H126v-15q0-148 100-180 20-6 44-6 42 0 72 32 17 17 27 42l10 24q3 3 16 3h3q17 0 17-10 0-4-3-13-19-55-63-87t-99-32q-95 0-158 69T28 218m305 57q-11 128-95 136h-2q-8 0-16-1t-25-8-29-21-23-41-16-66v-7h206z"/><path id="x" d="M69 609q0 28 18 44t44 16q23-2 40-17t17-43q0-30-17-45t-42-15-42 15-18 45M247 0q-15 3-104 3h-37Q80 3 56 1L34 0h-8v46h16q28 0 49 3 9 4 11 11t2 42v191q0 52-2 66t-14 19q-14 7-47 7H30v23q0 23 2 23l10 1q10 1 28 2t36 2q17 1 36 2t29 3 11 1h3V62q5-10 12-12t35-4h23V0z"/><path id="y" d="M295 316q0 40-27 69t-78 29q-36 0-62-13-30-19-30-52-1-5 0-13t16-24 43-25q18-5 44-9t44-9 32-13q17-8 33-20t32-41 17-62q0-62-38-102T198-10h-8q-52 0-96 36l-8-7-9-9Q71 4 65-1L54-11H42q-3 0-9 6v137q0 21 2 25t10 5h9q12 0 16-4t5-12 7-27 19-42q35-51 97-51 97 0 97 78 0 29-18 47-20 24-83 36t-83 23q-36 17-57 46t-21 62q0 39 17 66t43 40 50 18 44 5h11q40 0 70-15l15-8 9 7q10 9 22 17h12q3 0 9-6V310l-6-6h-28q-6 6-6 12"/><path id="z" d="M28 214q0 95 65 164t157 70q90 0 155-68t66-165q0-95-64-160T250-10q-97 0-159 67T28 214M250 30q122 0 122 163v57q0 22-1 38t-7 38-16 36-31 28-49 20q-5 1-16 1-30 0-57-12-43-22-56-61t-13-92v-20q0-96 19-135 32-61 105-61"/><path id="A" d="M36-148h14q39 0 47 14v57q0 18 1 39t0 44 0 49 0 51v190q0 24-1 39t0 16q-3 19-14 25t-45 9H20v23q0 23 2 23l10 1q10 1 29 2t37 2q17 1 37 2t30 3 11 1h3v-26l1-26 8 7q59 44 138 44 81 0 138-64t58-161q0-101-65-164T310-11q-68 0-120 44l-8 7v-141q0-27 2-33t11-11q21-3 49-3h16v-46h-8l-24 1q-23 1-50 1t-38 1q-103 0-112-3h-8v46zm388 366q0 74-34 129t-85 55q-71 0-123-65V98q40-72 112-72 51 0 90 54t40 138"/><path id="B" d="M41 46h14q39 0 47 14v62q0 17 1 39t0 42v66q0 35-1 59v23q-3 19-14 25t-45 9H25v23q0 23 2 23l10 1q10 1 28 2t37 2q17 1 36 2t29 3 11 1h3v-40q0-38 1-38t5 5 12 15 19 18 29 19 38 16 51 5q114-4 127-113 1-7 1-139v-86q0-38 2-45t11-10q21-3 49-3h16V0h-8l-24 1q-23 1-50 1t-38 1Q319 3 310 0h-8v46h16q61 0 61 16 1 2 1 138-1 135-2 143-6 28-20 42t-24 17-26 2q-45 0-79-34-27-27-34-55t-8-83V108q0-30 1-40t3-13 9-6q21-3 49-3h16V0h-8l-23 1q-24 1-51 1t-38 1Q42 3 33 0h-8v46z"/><path id="C" d="M21 287q1 6 3 16t12 38 20 47 33 37 46 17q36 0 60-18t30-34 6-21q0-2 1-2l11 11q61 64 139 64 54 0 87-27t34-79-38-157-38-127q0-26 17-26 6 0 9 1 29 5 52 38t35 80q2 8 20 8 20 0 20-8 0-1-4-15-8-29-22-57t-46-56-69-27q-47 0-68 27t-21 56q0 19 36 120t37 152q0 59-44 59h-5q-86 0-145-101l-7-12-33-134Q156 26 151 16q-13-27-43-27-13 0-21 6T76 7t-2 10q0 13 38 163t40 163q1 5 1 23 0 39-24 39-38 0-63-100-6-20-6-21-2-6-19-6H27q-6 6-6 9"/><path id="D" d="M23 287q1 3 2 8t5 22 10 31 15 33 20 30 26 22 33 9q75 0 96-64l10 9q62 55 118 55 65 0 102-47t37-114q0-108-76-199T249-10q-22 0-39 6-11 5-23 15t-19 17l-7 8q-1-1-22-87t-21-87q0-6 8-7t37-3h25q6-7 6-9t-3-18q-3-12-6-15t-13-4h-11q-9 0-34 1t-62 1q-70 0-89-2h-8q-7 7-7 11 2 27 13 35h20q34 1 39 12 3 6 61 239t61 247q1 5 1 14 0 41-25 41-22 0-37-28t-23-61-12-36q-2-2-16-2H29q-6 6-6 9m155-185q22-76 74-76 30 0 58 23t46 58q18 34 36 108t19 110v6q0 74-61 74-11 0-22-3t-22-9-20-13-17-15-15-15-11-14-8-10l-3-4q0-1-3-14t-11-44-14-52q-26-106-26-110"/><path id="F" d="M84 237v13l14 20h581q15-8 15-20t-15-20H98q-14 7-14 20z"/><path id="E" d="M96 585q56 81 153 81 48 0 96-26t78-92q37-83 37-228 0-155-43-237-20-42-55-67t-61-31-51-7q-26 0-52 6t-61 32-55 67q-43 82-43 237 0 174 57 265m225 12q-30 32-71 32-42 0-72-32-25-26-33-72t-8-192q0-158 8-208t36-79q28-30 69-30 40 0 68 30 29 30 36 84t8 203q0 145-8 191t-33 73"/><path id="G" d="m213 578-13-5q-14-5-40-10t-58-7H83v46h19q47 2 87 15t56 24 28 22q2 3 12 3 9 0 17-6V361l1-300q7-7 12-9t24-4 62-2h26V0h-11q-21 3-159 3-136 0-157-3H88v46h64q16 0 25 1t16 3 8 2 6 5 6 4z"/><path id="H" d="M109 429q-27 0-43 18t-16 44q0 71 53 123t132 52q91 0 152-56t62-145q0-43-20-82t-48-68-80-74q-36-31-100-92l-59-56 76-1q157 0 167 5 7 2 24 89v3h40v-3q-1-3-13-91T421 3V0H50v31q0 7 6 15t30 35q29 32 50 56 9 10 34 37t34 37 29 33 28 34 23 30 21 32 15 29 13 32 7 30 3 33q0 63-34 109t-97 46q-33 0-58-17t-35-33-10-19q0-1 5-1 18 0 37-14t19-46q0-25-16-42t-45-18"/><path id="K" d="m219 659 155-354L71 33c-9-8-13-14-13-18C58 5 69 0 90 0h521c23 0 28 0 34 19l72 189c1 3 3 9 5 17 0 10-5 15-16 15-7 0-13-5-17-16-31-73-66-122-106-145-36-21-96-31-180-31H145l304 274c9 8 14 15 14 21L331 644h235c66 0 110-5 133-15 37-17 56-53 56-109 0-10-4-42-4-51v-4c3-8 8-12 16-12 10 0 16 9 18 28 7 62 13 124 21 185 0 11-11 17-32 17H253c-23 0-34-1-34-24"/><path id="L" d="M698 274H413v285q0 24-24 24t-24-24V274H80q-24 0-24-24t24-24h285V-59q0-24 24-24t24 24v285h285q24 0 24 24c0 13-11 24-24 24"/><path id="M" d="m219 659 155-354L71 33c-9-8-13-14-13-18C58 5 69 0 90 0h521c23 0 28 0 34 19l72 189c1 3 3 9 5 17 0 10-5 15-16 15-7 0-13-5-17-16-31-73-66-122-106-145-36-21-96-31-180-31H145l304 274c9 8 14 15 14 21L331 644h235c66 0 110-5 133-15 37-17 56-53 56-109 0-10-4-42-4-51v-4c3-8 8-12 16-12 10 0 16 9 18 28 7 62 13 124 21 185 0 11-11 17-32 17H253c-23 0-34-1-34-24"/><path id="N" d="M249-22c141 0 211 114 211 342 0 153-32 255-95 305-35 27-74 41-115 41-141 0-211-115-211-346C39 136 88-22 249-22m112 546c7-35 10-99 10-192 0-92-4-160-11-204Q340.5 8 249 8c-23 0-46 9-67 26-27 23-43 70-50 142-3 25-4 77-4 156 0 87 3 148 8 181 9 55 27 90 55 105 22 12 41 18 58 18 65 0 101-53 112-112"/><path id="O" d="m219 659 155-354L71 33c-9-8-13-14-13-18C58 5 69 0 90 0h521c23 0 28 0 34 19l72 189c1 3 3 9 5 17 0 10-5 15-16 15-7 0-13-5-17-16-31-73-66-122-106-145-36-21-96-31-180-31H145l304 274c9 8 14 15 14 21L331 644h235c66 0 110-5 133-15 37-17 56-53 56-109 0-10-4-42-4-51v-4c3-8 8-12 16-12 10 0 16 9 18 28 7 62 13 124 21 185 0 11-11 17-32 17H253c-23 0-34-1-34-24"/><path id="P" d="M698 270H80c-16 0-24-7-24-20s8-20 24-20h618c16 0 24 7 24 20 0 12-12 20-24 20"/><path id="Q" d="M128 3c19 0 79-3 98-3q21 0 21 24c0 9-6 14-17 15-31 1-46 11-46 31 0 7 4 19 13 35l262 458 35-482c3-10 0-20-7-29s-28-13-62-13c-18 0-27-8-27-23 0-11 6-16 19-16 23 0 99 3 122 3 19 0 85-3 104-3 15 0 23 8 23 23 0 11-10 16-29 16-40 0-44 0-47 32l-44 616c-2 19-10 29-23 29q-18 0-30-21L163 119c-24-43-49-76-105-80-15-1-23-9-23-23C35 5 40 0 51 0c15 0 62 3 77 3"/><path id="R" d="M180 534c0-10 5-15 16-15 9 0 15 7 19 20 9 33 18 52 25 59q4.5 6 72 6h351c29 0 50-1 62-3 3-1 4-4 4-10 0-9-2-23-6-43-1-7-2-11-2-13 0-11 5-16 16-16 9 0 15 8 18 25l20 101 2 17c0 10-10 15-31 15H252c-26 0-30-2-36-23l-32-105c0-2-4-12-4-15m451-127c3 8 4 13 4 16 0 11-5 16-16 16-6 0-10-2-13-5-5-14-11-35-13-46H268l6 27c1 3 1 6 2 8 0 11-5 16-16 16-9 0-15-8-19-23l-31-120q-3-12-3-15c0-11 5-16 16-16 6 0 10 2 13 5 5 14 11 34 13 45h325l-8-34c0-11 5-16 16-16 9 0 15 8 19 23m20-273c28 84 42 130 42 139 0 10-6 15-17 15-5 0-9-3-14-8-3-7-5-13-6-17-13-41-22-63-27-65q-7.5-6-75-6H171c-29 0-52 1-69 4 1 23 4 48 10 76 0 11-5 16-16 16-9 0-15-8-18-25C61 69 53 26 53 16 53 5 64 0 85 0h504c17 0 28 5 32 15"/><path id="S" d="M249-22c141 0 211 114 211 342 0 153-32 255-95 305-35 27-74 41-115 41-141 0-211-115-211-346C39 136 88-22 249-22m112 546c7-35 10-99 10-192 0-92-4-160-11-204Q340.5 8 249 8c-23 0-46 9-67 26-27 23-43 70-50 142-3 25-4 77-4 156 0 87 3 148 8 181 9 55 27 90 55 105 22 12 41 18 58 18 65 0 101-53 112-112"/><path id="T" d="M180 534c0-10 5-15 16-15 9 0 15 7 19 20 9 33 18 52 25 59q4.5 6 72 6h351c29 0 50-1 62-3 3-1 4-4 4-10 0-9-2-23-6-43-1-7-2-11-2-13 0-11 5-16 16-16 9 0 15 8 18 25l20 101 2 17c0 10-10 15-31 15H252c-26 0-30-2-36-23l-32-105c0-2-4-12-4-15m451-127c3 8 4 13 4 16 0 11-5 16-16 16-6 0-10-2-13-5-5-14-11-35-13-46H268l6 27c1 3 1 6 2 8 0 11-5 16-16 16-9 0-15-8-19-23l-31-120q-3-12-3-15c0-11 5-16 16-16 6 0 10 2 13 5 5 14 11 34 13 45h325l-8-34c0-11 5-16 16-16 9 0 15 8 19 23m20-273c28 84 42 130 42 139 0 10-6 15-17 15-5 0-9-3-14-8-3-7-5-13-6-17-13-41-22-63-27-65q-7.5-6-75-6H171c-29 0-52 1-69 4 1 23 4 48 10 76 0 11-5 16-16 16-9 0-15-8-18-25C61 69 53 26 53 16 53 5 64 0 85 0h504c17 0 28 5 32 15"/><path id="U" d="M698 270H80c-16 0-24-7-24-20s8-20 24-20h618c16 0 24 7 24 20 0 12-12 20-24 20"/></defs><g fill="#8dae10" stroke-width="0"><use xlink:href="#a" data-c="2B" data-mml-node="mo" style="fill:#da3" transform="matrix(0 .00383 .00383 0 49.987 2.686)"/><use xlink:href="#b" data-c="31" data-mml-node="mn" style="fill:#da3" transform="matrix(0 .00383 .00383 0 49.987 5.666)"/></g><g fill="#8dae10" stroke-width="0"><use xlink:href="#a" data-c="2B" data-mml-node="mo" style="fill:#da3" transform="matrix(0 .00383 .00383 0 41.14 1.74)"/><g data-mml-node="mfrac"><use xlink:href="#b" data-c="31" data-mml-node="mn" style="fill:#da3" transform="matrix(0 .0027 .0027 0 42.65 5.564)"/><use xlink:href="#c" data-c="32" data-mml-node="mn" style="fill:#da3" transform="matrix(0 .0027 .0027 0 39.819 5.564)"/><path d="M41.983 5.181v2.121h.23v-2.12z" style="fill:#da3"/></g></g><path d="M16.074 37.598V8.758M51.07 37.432V8.759" style="fill:#e7e7e7;stroke:#da3;stroke-width:.2;stroke-linejoin:round;stroke-miterlimit:6;stroke-dasharray:.4,.2;paint-order:fill markers stroke"/><path d="M33.49 49.267V8.759M24.85 51.81V8.76" style="fill:#e7e7e7;stroke:#da3;stroke-width:.2;stroke-linejoin:round;stroke-miterlimit:6;stroke-dasharray:.4,.2;paint-order:stroke fill markers"/><path d="M42.199 51.788V8.758" style="fill:#e7e7e7;stroke:#da3;stroke-width:.2;stroke-linejoin:round;stroke-miterlimit:6;stroke-dasharray:.4,.2;paint-order:fill markers stroke"/><path d="M49.766 44.93H16.619m32.256-30.167H13.43m44.513 15.083H9.21" style="fill:#e7e7e7;stroke:#da3;stroke-width:.2;stroke-linecap:round;stroke-linejoin:round;stroke-miterlimit:6"/><path d="M54.658 36.343 38.932 9.105" style="display:inline;fill:#e7e7e7;stroke:#da3;stroke-width:.2;stroke-linecap:round;stroke-linejoin:round;stroke-miterlimit:6"/><path d="M45.45 50.56 21.516 9.105m6.869 42.064L12.147 23.045" style="fill:#e7e7e7;stroke:#da3;stroke-width:.2;stroke-linecap:round;stroke-linejoin:round;stroke-miterlimit:6"/><path fill="none" stroke="#8dae10" stroke-linecap="round" stroke-linejoin="round" stroke-miterlimit="6" stroke-width=".5" d="M42.199 44.93H24.782l-8.708-15.084 8.708-15.083H42.2l8.708 15.083z" style="stroke:#da3"/><g fill="#e7e7e7" transform="translate(-43.53 -81.1)"><circle cx="85.73" cy="95.862" r="4.327"/><circle cx="68.313" cy="95.862" r="4.327"/></g><g fill="#8dae10" stroke-width="0"><use xlink:href="#d" data-c="2B" data-mml-node="mo" style="fill:#da3" transform="rotate(60 -6.11 66.954)scale(.00383 -.00383)"/><use xlink:href="#e" data-c="31" data-mml-node="mn" style="fill:#da3" transform="rotate(60 -7.6 69.535)scale(.00383 -.00383)"/><g data-mml-node="mtr"><g data-mml-node="mtd"><use xlink:href="#f" data-c="30" data-mml-node="mn" style="fill:#da3" transform="rotate(60 -22.82 65.107)scale(.00383 -.00383)"/></g></g><g data-mml-node="mtr"><g data-mml-node="mtd"><use xlink:href="#g" data-c="2212" data-mml-node="mo" style="fill:#da3" transform="rotate(60 -31.895 51.664)scale(.00383 -.00383)"/><use xlink:href="#e" data-c="31" data-mml-node="mn" style="fill:#da3" transform="rotate(60 -33.386 54.245)scale(.00383 -.00383)"/></g></g></g><circle cx="50.907" cy="29.846" r="4.327" style="fill:#e7e7e7"/><circle cx="42.199" cy="44.93" r="4.327" style="fill:#e7e7e7"/><circle cx="24.782" cy="44.93" r="4.327" style="fill:#e7e7e7"/><circle cx="16.074" cy="29.846" r="4.327" style="fill:#e7e7e7"/><g fill="#8dae10" stroke-width="0"><g stroke="#000" data-mml-node="mtext" transform="rotate(150 14.091 35.388)scale(-.00383 .00383)"><use xlink:href="#h" data-c="63" style="fill:#da3"/><use xlink:href="#i" data-c="68" style="fill:#da3" transform="translate(444)"/><use xlink:href="#j" data-c="61" style="fill:#da3" transform="translate(1000)"/><use xlink:href="#k" data-c="72" style="fill:#da3" transform="translate(1500)"/><use xlink:href="#l" data-c="67" style="fill:#da3" transform="translate(1892)"/><use xlink:href="#m" data-c="65" style="fill:#da3" transform="translate(2392)"/></g><use xlink:href="#n" data-c="2212" data-mml-node="mo" style="fill:#da3" transform="matrix(0 .00383 .00383 0 14.747 2.686)"/><use xlink:href="#b" data-c="31" data-mml-node="mn" style="fill:#da3" transform="matrix(0 .00383 .00383 0 14.747 5.666)"/><use xlink:href="#n" data-c="2212" data-mml-node="mo" style="fill:#da3" transform="matrix(0 .00383 .00383 0 23.883 1.74)"/><g data-mml-node="mfrac"><use xlink:href="#b" data-c="31" data-mml-node="mn" style="fill:#da3" transform="matrix(0 .0027 .0027 0 25.392 5.564)"/><use xlink:href="#c" data-c="32" data-mml-node="mn" style="fill:#da3" transform="matrix(0 .0027 .0027 0 22.561 5.564)"/><path d="M24.726 5.181v2.121h.23v-2.12z" style="fill:#da3"/></g><use xlink:href="#o" data-c="30" data-mml-node="mn" style="fill:#da3" transform="matrix(0 .00383 .00383 0 32.18 5.54)"/><g data-mml-node="mtext" transform="matrix(0 -.00383 -.00383 0 3.168 38.789)"><use xlink:href="#p" data-c="73" style="fill:#da3"/><use xlink:href="#r" data-c="74" style="fill:#da3" transform="translate(394)"/><use xlink:href="#s" data-c="72" style="fill:#da3" transform="translate(783)"/><use xlink:href="#t" data-c="61" style="fill:#da3" transform="translate(1175)"/><use xlink:href="#u" data-c="6E" style="fill:#da3" transform="translate(1675)"/><use xlink:href="#v" data-c="67" style="fill:#da3" transform="translate(2231)"/><use xlink:href="#w" data-c="65" style="fill:#da3" transform="translate(2731)"/><use xlink:href="#u" data-c="6E" style="fill:#da3" transform="translate(3175)"/><use xlink:href="#w" data-c="65" style="fill:#da3" transform="translate(3731)"/><use xlink:href="#p" data-c="73" style="fill:#da3" transform="translate(4175)"/><use xlink:href="#p" data-c="73" style="fill:#da3" transform="translate(4569)"/></g><g stroke="#000" data-mml-node="mtext" transform="matrix(.00383 0 0 -.00383 27.93 2.907)"><use xlink:href="#x" data-c="69" style="fill:#da3"/><use xlink:href="#y" data-c="73" style="fill:#da3" transform="translate(278)"/><use xlink:href="#z" data-c="6F" style="fill:#da3" transform="translate(672)"/><use xlink:href="#y" data-c="73" style="fill:#da3" transform="translate(1172)"/><use xlink:href="#A" data-c="70" style="fill:#da3" transform="translate(1566)"/><use xlink:href="#x" data-c="69" style="fill:#da3" transform="translate(2122)"/><use xlink:href="#B" data-c="6E" style="fill:#da3" transform="translate(2400)"/></g></g><use xlink:href="#C" fill="#17365c" data-c="1D45B" style="stroke-width:0;fill:#048;stroke:none" transform="matrix(.00479 0 0 -.00479 23.272 15.894)"/><use xlink:href="#D" fill="#17365c" data-c="1D45D" style="stroke-width:0;fill:#048;stroke:none" transform="matrix(.00479 0 0 -.00479 41.114 15.88)"/><circle cx="33.491" cy="32.628" r="4.327" fill="#e7e7e7"/><circle cx="33.491" cy="27.064" r="4.327" fill="#e7e7e7"/><g fill="#8dae10" stroke-width="0"><use xlink:href="#E" data-c="30" data-mml-node="mn" style="fill:#da3" transform="matrix(.00383 0 0 -.00383 10.247 15.75)"/><use xlink:href="#F" data-c="2212" data-mml-node="mo" style="fill:#da3" transform="matrix(.00383 0 0 -.00383 4.155 31.061)"/><use xlink:href="#G" data-c="31" data-mml-node="mn" style="fill:#da3" transform="matrix(.00383 0 0 -.00383 7.135 31.061)"/><use xlink:href="#F" data-c="2212" data-mml-node="mo" style="fill:#da3" transform="matrix(.00383 0 0 -.00383 10.276 46.252)"/><use xlink:href="#H" data-c="32" data-mml-node="mn" style="fill:#da3" transform="matrix(.00383 0 0 -.00383 13.257 46.252)"/></g><g style="fill:#17365c;fill-opacity:1" transform="translate(46.928 22.488)"><use xlink:href="#K" data-c="1D6F4" style="fill:#048;fill-opacity:1;stroke:none;stroke-width:0" transform="matrix(.00479 0 0 -.00479 .74 9.384)"/><use xlink:href="#L" data-c="2B" style="fill:#048;fill-opacity:1;stroke:none;stroke-width:0" transform="matrix(.00339 0 0 -.00339 5.004 7.406)"/></g><g style="fill:#17365c;fill-opacity:1" transform="translate(-.499 -.017)"><use xlink:href="#M" data-c="1D6F4" style="fill:#048;fill-opacity:1;stroke:none;stroke-width:0" transform="matrix(.00479 0 0 -.00479 30.945 28.723)"/><use xlink:href="#N" data-c="30" style="fill:#048;fill-opacity:1;stroke:none;stroke-width:0" transform="matrix(.00339 0 0 -.00339 35.207 26.746)"/></g><g style="fill:#17365c;fill-opacity:1" transform="translate(-3.116 22.248)"><use xlink:href="#O" data-c="1D6F4" style="fill:#048;fill-opacity:1;stroke:none;stroke-width:0" transform="matrix(.00479 0 0 -.00479 15.822 9.308)"/><use xlink:href="#P" data-c="2212" style="fill:#048;fill-opacity:1;stroke:none;stroke-width:0" transform="matrix(.00339 0 0 -.00339 20.085 7.33)"/></g><use xlink:href="#Q" data-c="1D6EC" style="fill:#048;fill-opacity:1;stroke:none;stroke-width:0" transform="matrix(.00479 0 0 -.00479 31.657 34.682)"/><g style="fill:#17365c;fill-opacity:1;stroke:none" transform="translate(47.294 45.685)"><use xlink:href="#R" data-c="1D6EF" style="fill:#048;fill-opacity:1;stroke:none;stroke-width:0" transform="matrix(.00479 0 0 -.00479 -7.732 1.323)"/><use xlink:href="#S" data-c="30" style="fill:#048;fill-opacity:1;stroke:none;stroke-width:0" transform="matrix(.00339 0 0 -.00339 -3.604 -.655)"/></g><g style="fill:#17365c;fill-opacity:1;stroke:none" transform="translate(32.969 40.44)"><use xlink:href="#T" data-c="1D6EF" style="fill:#048;fill-opacity:1;stroke:none;stroke-width:0" transform="matrix(.00479 0 0 -.00479 -11.423 6.25)"/><use xlink:href="#U" data-c="2212" style="fill:#048;fill-opacity:1;stroke:none;stroke-width:0" transform="matrix(.00339 0 0 -.00339 -7.296 4.272)"/></g><metadata><rdf:RDF><cc:Work><dc:creator><cc:Agent><dc:title>Remco de Boer</dc:title></cc:Agent></dc:creator><cc:license rdf:resource="http://creativecommons.org/licenses/by/4.0/"/></cc:Work><cc:License rdf:about="http://creativecommons.org/licenses/by/4.0/"><cc:permits rdf:resource="http://creativecommons.org/ns#Reproduction"/><cc:permits rdf:resource="http://creativecommons.org/ns#Distribution"/><cc:requires rdf:resource="http://creativecommons.org/ns#Notice"/><cc:requires rdf:resource="http://creativecommons.org/ns#Attribution"/><cc:permits rdf:resource="http://creativecommons.org/ns#DerivativeWorks"/></cc:License></rdf:RDF></metadata></svg>