<svg xmlns="http://www.w3.org/2000/svg" xml:space="preserve" width="226.215" height="213.114" viewBox="0 0 59.853 56.387"><defs><clipPath id="G"><path d="M1291.2 7779.52V2143.99h3313.55v5635.53z"/></clipPath><clipPath id="H"><path d="M1291.2 7779.52V2143.99h3313.55v5635.53z"/></clipPath><clipPath id="J"><path d="M1291.2 7779.52V2143.99h3313.55v5635.53z"/></clipPath><clipPath id="K"><path d="M1291.2 7779.52V2143.99h3313.55v5635.53z"/></clipPath><clipPath id="M"><path d="M186.217 1112.899h460.11V517.463h-460.11z"/></clipPath><clipPath id="N"><path d="M4199.62 6302.2h59.58v59.59h-59.58z"/></clipPath><clipPath id="L"><path stroke-width=".752" d="M283.201 952.01h249.602V527.989H283.201Z"/></clipPath><clipPath id="I"><path stroke-width=".752" d="M283.201 952.01h249.602V527.989H283.201Z"/></clipPath><clipPath id="F"><path stroke-width=".752" d="M283.201 952.01h249.602V527.989H283.201Z"/></clipPath><clipPath id="aM"><path stroke-width="10" d="M1290 2140h3320v5639.999H1290Z"/></clipPath><clipPath id="aJ"><path stroke-width="10" d="M1290 2140h3320v5639.999H1290Z"/></clipPath><clipPath id="aI"><path stroke-width="10" d="M1290 2140h3320v5639.999H1290Z"/></clipPath><clipPath id="aH"><path stroke-width="10" d="M1290 2140h3320v5639.999H1290Z"/></clipPath><clipPath id="aG"><path stroke-width="10" d="M1290 2140h3320v5639.999H1290Z"/></clipPath><clipPath id="aF"><path stroke-width="10" d="M1290 2140h3320v5639.999H1290Z"/></clipPath><clipPath id="aE"><path stroke-width="10" d="M1290 2140h3320v5639.999H1290Z"/></clipPath><clipPath id="aw"><path stroke-width="10" d="M1290 2140h3320v5639.999H1290Z"/></clipPath><clipPath id="aL"><path stroke-width="10" d="M1290 2140h3320v5639.999H1290Z"/></clipPath><clipPath id="aK"><path stroke-width="10" d="M1290 2140h3320v5639.999H1290Z"/></clipPath><clipPath id="av"><path stroke-width="10" d="M1290 2140h3320v5639.999H1290Z"/></clipPath><clipPath id="au"><path stroke-width="10" d="M1290 2140h3320v5639.999H1290Z"/></clipPath><clipPath id="at"><path stroke-width="10" d="M1290 2140h3320v5639.999H1290Z"/></clipPath><clipPath id="as"><path stroke-width="10" d="M1290 2140h3320v5639.999H1290Z"/></clipPath><clipPath id="ar"><path stroke-width="10" d="M1290 2140h3320v5639.999H1290Z"/></clipPath><clipPath id="aq"><path stroke-width="10" d="M1290 2140h3320v5639.999H1290Z"/></clipPath><clipPath id="ap"><path stroke-width="10" d="M1290 2140h3320v5639.999H1290Z"/></clipPath><clipPath id="ao"><path stroke-width="10" d="M1290 2140h3320v5639.999H1290Z"/></clipPath><clipPath id="an"><path stroke-width="10" d="M1290 2140h3320v5639.999H1290Z"/></clipPath><clipPath id="am"><path stroke-width="10" d="M1290 2140h3320v5639.999H1290Z"/></clipPath><clipPath id="al"><path stroke-width="10" d="M1290 2140h3320v5639.999H1290Z"/></clipPath><clipPath id="ak"><path stroke-width="10" d="M1290 2140h3320v5639.999H1290Z"/></clipPath><clipPath id="aj"><path stroke-width="10" d="M1290 2140h3320v5639.999H1290Z"/></clipPath><clipPath id="ai"><path stroke-width="10" d="M1290 2140h3320v5639.999H1290Z"/></clipPath><clipPath id="af"><path stroke-width="10" d="M1290 2140h3320v5639.999H1290Z"/></clipPath><clipPath id="ae"><path stroke-width="10" d="M1290 2140h3320v5639.999H1290Z"/></clipPath><clipPath id="ad"><path stroke-width="10" d="M1290 2140h3320v5639.999H1290Z"/></clipPath><clipPath id="ab"><path stroke-width="10" d="M1290 2140h3320v5639.999H1290Z"/></clipPath><clipPath id="aa"><path stroke-width="10" d="M1290 2140h3320v5639.999H1290Z"/></clipPath><clipPath id="Z"><path stroke-width="10" d="M1290 2140h3320v5639.999H1290Z"/></clipPath><clipPath id="Y"><path stroke-width="10" d="M1290 2140h3320v5639.999H1290Z"/></clipPath><clipPath id="X"><path stroke-width="10" d="M1290 2140h3320v5639.999H1290Z"/></clipPath><clipPath id="W"><path stroke-width="10" d="M1290 2140h3320v5639.999H1290Z"/></clipPath><clipPath id="V"><path stroke-width="10" d="M1290 2140h3320v5639.999H1290Z"/></clipPath><clipPath id="S"><path stroke-width="10" d="M1290 2140h3320v5639.999H1290Z"/></clipPath><clipPath id="R"><path stroke-width="10" d="M1290 2140h3320v5639.999H1290Z"/></clipPath><clipPath id="Q"><path stroke-width="10" d="M1290 2140h3320v5639.999H1290Z"/></clipPath><clipPath id="P"><path stroke-width="10" d="M1290 2140h3320v5639.999H1290Z"/></clipPath><clipPath id="O"><path stroke-width="10" d="M1290 2140h3320v5639.999H1290Z"/></clipPath><clipPath id="A"><path stroke-width="10" d="M1290 2140h3320v5639.999H1290Z"/></clipPath><clipPath id="ac"><path stroke-width="10" d="M1290 2140h3320v5639.999H1290Z"/></clipPath><clipPath id="z"><path stroke-width="10" d="M1290 2140h3320v5639.999H1290Z"/></clipPath><clipPath id="y"><path stroke-width="10" d="M1290 2140h3320v5639.999H1290Z"/></clipPath><clipPath id="x"><path stroke-width="10" d="M1290 2140h3320v5639.999H1290Z"/></clipPath><clipPath id="w"><path stroke-width="10" d="M1290 2140h3320v5639.999H1290Z"/></clipPath><clipPath id="v"><path stroke-width="10" d="M1290 2140h3320v5639.999H1290Z"/></clipPath><clipPath id="u"><path stroke-width="10" d="M1290 2140h3320v5639.999H1290Z"/></clipPath><clipPath id="U"><path stroke-width="10" d="M1290 2140h3320v5639.999H1290Z"/></clipPath><clipPath id="T"><path stroke-width="10" d="M1290 2140h3320v5639.999H1290Z"/></clipPath><clipPath id="t"><path stroke-width="10" d="M1290 2140h3320v5639.999H1290Z"/></clipPath><clipPath id="s"><path stroke-width="10" d="M1290 2140h3320v5639.999H1290Z"/></clipPath><clipPath id="ah"><path stroke-width="10" d="M1290 2140h3320v5639.999H1290Z"/></clipPath><clipPath id="ag"><path stroke-width="10" d="M1290 2140h3320v5639.999H1290Z"/></clipPath><clipPath id="r"><path stroke-width="10" d="M1290 2140h3320v5639.999H1290Z"/></clipPath><clipPath id="q"><path stroke-width="10" d="M1290 2140h3320v5639.999H1290Z"/></clipPath><clipPath id="p"><path stroke-width="10" d="M1290 2140h3320v5639.999H1290Z"/></clipPath><clipPath id="o"><path stroke-width="10" d="M1290 2140h3320v5639.999H1290Z"/></clipPath><clipPath id="n"><path stroke-width="10" d="M1290 2140h3320v5639.999H1290Z"/></clipPath><clipPath id="m"><path stroke-width="10" d="M1290 2140h3320v5639.999H1290Z"/></clipPath><clipPath id="l"><path stroke-width="10" d="M1290 2140h3320v5639.999H1290Z"/></clipPath><clipPath id="k"><path stroke-width="10" d="M1290 2140h3320v5639.999H1290Z"/></clipPath><clipPath id="j"><path stroke-width="10" d="M1290 2140h3320v5639.999H1290Z"/></clipPath><clipPath id="i"><path stroke-width="10" d="M1290 2140h3320v5639.999H1290Z"/></clipPath><clipPath id="h"><path stroke-width="10" d="M1290 2140h3320v5639.999H1290Z"/></clipPath><clipPath id="g"><path stroke-width="10" d="M1290 2140h3320v5639.999H1290Z"/></clipPath><clipPath id="f"><path stroke-width="10" d="M1290 2140h3320v5639.999H1290Z"/></clipPath><clipPath id="e"><path stroke-width="10" d="M1290 2140h3320v5639.999H1290Z"/></clipPath><clipPath id="d"><path stroke-width="10" d="M1290 2140h3320v5639.999H1290Z"/></clipPath><clipPath id="c"><path stroke-width="10" d="M1290 2140h3320v5639.999H1290Z"/></clipPath><clipPath id="b"><path stroke-width="10" d="M1290 2140h3320v5639.999H1290Z"/></clipPath><clipPath id="a"><path stroke-width="10" d="M1290 2140h3320v5639.999H1290Z"/></clipPath><clipPath id="E"><path stroke-width="10" d="M1290 2140h3320v5639.999H1290Z"/></clipPath><clipPath id="D"><path stroke-width="10" d="M1290 2140h3320v5639.999H1290Z"/></clipPath><clipPath id="C"><path stroke-width="10" d="M1290 2140h3320v5639.999H1290Z"/></clipPath><clipPath id="B"><path stroke-width="10" d="M1290 2140h3320v5639.999H1290Z"/></clipPath></defs><g stroke-linecap="round" stroke-linejoin="round"><g fill="none" stroke="#8dae10" stroke-width="4.166"><path d="m3717.54 5613.89 550.42 733.9" clip-path="url(#a)" style="stroke:#da3" transform="matrix(.0199 0 0 -.0199 -32.31 155.342)"/><path stroke-width=".083" d="m44.765 35.302 1.034-13.58m-1.627 21.356.37-4.844" style="stroke:#da3" transform="translate(-2.535 .594)"/><path d="m2532.36 5658.52 81.83 1073.59" clip-path="url(#b)" style="stroke:#da3" transform="matrix(.0199 0 0 -.0199 -32.31 155.342)"/><path stroke-width=".083" d="M14.063 34.145 8.02 26.704M20.597 42.19l-4.752-5.851" style="stroke:#da3" transform="translate(-2.535 .594)"/><path d="m3167.11 7466.02-552.92-733.91" clip-path="url(#c)" style="stroke:#da3" transform="matrix(.0199 0 0 -.0199 -32.31 155.342)"/><path stroke-width=".083" d="m44.92 20.64.88 1.082M33.223 6.236l9.38 11.55" style="stroke:#da3" transform="translate(-2.535 .594)"/></g><path fill="#fbfbfb" stroke="#231f20" stroke-width="8.332" d="m3799.35 6687.49-1185.16 44.62" clip-path="url(#d)" transform="matrix(.0199 0 0 -.0199 -32.31 155.342)"/><path fill="none" stroke="#8dae10" stroke-width="16.665" d="m3635.72 7126.34-1185.17 44.63" clip-path="url(#e)" style="stroke:#da3" transform="matrix(.0199 0 0 -.0199 -32.31 155.342)"/></g><path fill="#e7e7e7" fill-opacity=".3" d="m3167.11 7466.02 468.61-339.68-1185.17 44.63z" clip-path="url(#f)" transform="matrix(.0199 0 0 -.0199 -32.31 155.342)"/><path fill="none" stroke="#8dae10" stroke-linecap="round" stroke-linejoin="round" stroke-width="12.499" d="m3167.11 7466.02 468.61-339.68-1185.17 44.63z" clip-path="url(#g)" style="stroke:#da3" transform="matrix(.0199 0 0 -.0199 -32.31 155.342)"/><path fill="#e7e7e7" fill-opacity=".3" d="m2532.36 5658.52 468.61-339.67 716.57 295.04z" clip-path="url(#h)" transform="matrix(.0199 0 0 -.0199 -32.31 155.342)"/><path fill="none" stroke="#8dae10" stroke-linecap="round" stroke-linejoin="round" stroke-width="12.499" d="m2532.36 5658.52 468.61-339.67 716.57 295.04z" clip-path="url(#i)" style="stroke:#da3" transform="matrix(.0199 0 0 -.0199 -32.31 155.342)"/><path fill="#e7e7e7" fill-opacity=".3" d="m3799.35 6687.49-1185.16 44.62-714.08-295.06 468.61-339.67 1185.16-44.64 714.08 295.05z" clip-path="url(#j)" transform="matrix(.0199 0 0 -.0199 -32.31 155.342)"/><g fill="none" stroke="#8dae10" stroke-linecap="round" stroke-linejoin="round"><path stroke-width="8.332" d="m3799.35 6687.49-1185.16 44.62-714.08-295.06 468.61-339.67 1185.16-44.64 714.08 295.05z" clip-path="url(#k)" style="stroke:#da3" transform="matrix(.0199 0 0 -.0199 -32.31 155.342)"/><path stroke-width="16.665" d="m2532.36 5658.52 468.61-339.67" clip-path="url(#l)" style="stroke:#da3" transform="matrix(.0199 0 0 -.0199 -32.31 155.342)"/><path stroke-width="16.665" d="m3000.97 5318.85 716.57 295.04" clip-path="url(#m)" style="stroke:#da3" transform="matrix(.0199 0 0 -.0199 -32.31 155.342)"/><path stroke-width="8.332" d="m2450.55 7170.97-81.83-1073.59" clip-path="url(#n)" style="stroke:#da3" transform="matrix(.0199 0 0 -.0199 -32.31 155.342)"/><g stroke-width="4.166"><path d="m2450.55 7170.97-550.44-733.92" clip-path="url(#o)" style="stroke:#da3" transform="matrix(.0199 0 0 -.0199 -32.31 155.342)"/><path stroke-width=".083" d="m46.67 18.074 8.45 10.406M42.545 12.993l2.875 3.54" style="stroke:#da3" transform="translate(-2.535 .594)"/></g><g stroke-width="8.332"><path d="m3635.72 7126.34-81.84-1073.6" clip-path="url(#p)" style="stroke:#da3" transform="matrix(.0199 0 0 -.0199 -32.31 155.342)"/><path d="m3000.97 5318.85-632.25 778.53" clip-path="url(#q)" style="stroke:#da3" transform="matrix(.0199 0 0 -.0199 -32.31 155.342)"/><path d="m3000.97 5318.85 552.91 733.89" clip-path="url(#r)" style="stroke:#da3" transform="matrix(.0199 0 0 -.0199 -32.31 155.342)"/></g></g><g fill="#17365c"><path d="M2432.22 7273.28c5.71 15.3 8.56 29.94 8.56 43.93 0 4.84-.52 8.75-1.56 11.72-1.88 5.65-5.44 8.48-10.68 8.48-9.67 0-17.84-10.41-24.54-31.21-5.1-15.92-7.64-29.17-7.64-39.77 0-4.47.52-8.21 1.55-11.23 1.99-5.83 5.61-8.75 10.9-8.75 9.01 0 16.81 8.94 23.41 26.83m16.12 54.73q3.87-8.82 3.87-20.55 0-25.845-13.62-45.48c-8.95-12.8-19.04-19.2-30.29-19.2-6.55 0-12.08 2.78-16.6 8.36q-6.78 8.37-6.78 23.13c0 16.43 4.45 31.66 13.34 45.69 9.13 14.36 19.31 21.54 30.51 21.54 9.04 0 15.56-4.5 19.57-13.49" clip-path="url(#s)" style="fill:#048" transform="matrix(.0199 0 0 -.0199 -32.31 155.342)"/><path d="M2320.99 7184.24c7.76 15.96 11.65 32.2 11.65 48.74 0 15.95-3.93 29.4-11.78 40.34-7.86 10.95-22.02 16.42-42.49 16.42-5.6 0-9.6-.55-11.98-1.63-2.38-1.09-3.94-3-4.7-5.76l-35.06-125.68c-.67-2.5-1.08-4.34-1.25-5.51s-.25-2.34-.25-3.51c0-3.67 1.13-6.18 3.38-7.51 2.26-1.34 6.89-2.01 13.92-2.01 37.25 0 63.43 15.37 78.56 46.11m-141.84-50.12c6.01.5 10.15 1.59 12.4 3.26 3.5 2.5 6.39 7.72 8.64 15.66l31.44 113.51c.92 3.43 1.66 6.38 2.19 8.84.55 2.46.82 4.62.82 6.45 0 4.18-1.42 7.08-4.26 8.71q-4.26 2.445-15.66 2.7v4.13h66.29c12.28 0 23.06-1.08 32.33-3.26 9.27-2.17 17.88-6.64 25.82-13.4 5.59-5.02 10.27-10.95 14.03-17.8 5.51-10.36 8.27-22.01 8.27-34.96 0-25.72-9.9-48.02-29.7-66.91-21.72-20.71-49.95-31.07-84.7-31.07h-67.91z" clip-path="url(#t)" style="fill:#048" transform="matrix(.0199 0 0 -.0199 -32.31 155.342)"/><path d="M2515.36 5553.18h93.42l-1.72-8.62h-93.43z" clip-path="url(#u)" style="fill:#048" transform="matrix(.0199 0 0 -.0199 -32.31 155.342)"/><path d="M2456.87 5449.06c7.76 15.95 11.65 32.21 11.65 48.75 0 15.95-3.93 29.39-11.78 40.35-7.85 10.92-22.02 16.4-42.49 16.4-5.61 0-9.6-.55-11.97-1.63-2.39-1.09-3.95-3.01-4.71-5.77l-35.06-125.66c-.67-2.51-1.08-4.35-1.25-5.52-.17-1.16-.25-2.33-.25-3.5 0-3.67 1.13-6.2 3.38-7.52 2.26-1.34 6.89-2.01 13.91-2.01q55.875 0 78.57 46.11m-141.84-50.11c6.02.5 10.15 1.58 12.4 3.25q5.265 3.75 8.64 15.66l31.44 113.52c.92 3.43 1.65 6.37 2.19 8.83.55 2.47.82 4.63.82 6.45 0 4.19-1.42 7.08-4.25 8.71-2.85 1.63-8.07 2.52-15.67 2.71v4.12h66.29c12.28 0 23.06-1.08 32.33-3.25 9.26-2.18 17.88-6.64 25.82-13.41 5.59-5.01 10.26-10.95 14.03-17.79 5.51-10.37 8.27-22.01 8.27-34.96 0-25.72-9.9-48.04-29.7-66.91-21.72-20.71-49.95-31.08-84.7-31.08h-67.91z" clip-path="url(#v)" style="fill:#048" transform="matrix(.0199 0 0 -.0199 -32.31 155.342)"/><path d="M2725.88 6948.76c5.7 15.3 8.56 29.94 8.56 43.93 0 4.84-.51 8.75-1.55 11.72-1.9 5.65-5.47 8.48-10.7 8.48-9.66 0-17.83-10.41-24.52-31.21-5.11-15.92-7.65-29.17-7.65-39.77 0-4.48.51-8.21 1.55-11.23 1.98-5.83 5.62-8.75 10.9-8.75 8.99 0 16.81 8.95 23.41 26.83m16.11 54.73c2.58-5.88 3.89-12.74 3.89-20.54 0-17.24-4.55-32.4-13.65-45.49-8.94-12.8-19.02-19.2-30.28-19.2-6.54 0-12.07 2.78-16.6 8.36-4.51 5.58-6.77 13.29-6.77 23.13 0 16.43 4.45 31.66 13.34 45.7 9.13 14.35 19.3 21.53 30.51 21.53 9.03 0 15.57-4.5 19.56-13.49" clip-path="url(#w)" style="fill:#048" transform="matrix(.0199 0 0 -.0199 -32.31 155.342)"/><path d="M2466.38 6797.1c6.02.5 10.15 1.59 12.4 3.26 3.52 2.5 6.39 7.72 8.65 15.66l31.44 113.52c.92 3.42 1.65 6.39 2.19 8.89.55 2.52.82 4.85.82 7.02 0 3.93-1.52 6.66-4.58 8.21-3.04 1.54-8.16 2.4-15.35 2.57v4.13h70.22v-4.13q-10.53-.885-15.03-3.39c-5.1-2.75-8.74-7.93-10.91-15.54l-13.98-48.64 2.35.06 31.9 22.13c10.44 7.26 18.92 13.62 25.43 19.05 11.11 9.28 16.66 15.79 16.66 19.56 0 2.59-1.1 4.26-3.32 5.01-2.21.75-6.32 1.33-12.34 1.76v4.13h57.01v-4.13c-2.42-.34-4.67-.88-6.76-1.64-3.59-1.5-7.77-4-12.53-7.51l-76.9-57.89 44.46-77.93c3.33-5.85 6.59-9.61 9.77-11.28 3.16-1.67 8.22-2.63 15.15-2.88v-4.14h-70.65v4.14c7.01.5 11.65 1.09 13.9 1.77 3.59 1.01 5.39 2.94 5.39 5.79 0 2.44-1.3 6.54-3.89 12.3s-6.05 12.38-10.4 19.86l-24.92 42.68-2.63.81-15.14-56.53-2.38-9.77c-.26-1-.42-1.95-.5-2.82-.09-.88-.13-1.77-.13-2.69q0-6.885 5.64-9.39c2.26-1.01 6.44-1.68 12.53-2.01v-4.14h-63.57z" clip-path="url(#x)" style="fill:#048" transform="matrix(.0199 0 0 -.0199 -32.31 155.342)"/><path d="M1804.58 6548.58H1898l-1.72-8.62h-93.43z" clip-path="url(#y)" style="fill:#048" transform="matrix(.0199 0 0 -.0199 -32.31 155.342)"/><path d="M1718.18 6505.65c-16.92-47.99-29.08-76.22-35.85-90.08-4.66-9.77-10.01-15.42-18.78-17.47-7.41-1.79-13.59 3.85-13.3 9.77.28 8.71 6.25 12.82 10.42 16.93 5.54 5.4 14.57 11.3 18.72 22.06l23.13 58.79h-12.06c-7.18 0-15.2-4.1-19.12-8.21l-7.52-7.95h-4.35c2.23 3.59 7.62 14.11 18.19 24.9 6 6.16 15.87 13.33 27.69 13.33h95.71l-5.9-22.07h-32.34c-11.09-30.03-16.57-50.56-19.17-60.31-1.92-7.19-1.47-15.14 1.41-18.75 2.51-3.07 8.8-7.44 18.71-1.02 7.72 4.87 9.13 12.07 10.93 15.91h5.39c-6.76-23.36-21.07-35.68-29.02-39.53-5.97-3.07-16.07-5.39-21.7-.5-3.29 3.07-6.89 9.75-7.51 18.98-.66 10.01 5.07 30.55 9.91 43.9l15.4 41.32z" clip-path="url(#z)" style="fill:#048" transform="matrix(.0199 0 0 -.0199 -32.31 155.342)"/></g><path fill="#fff" d="m2368.72 6097.38 1185.16-44.64" clip-path="url(#A)" transform="matrix(.0199 0 0 -.0199 -32.31 155.342)"/><path fill="none" stroke="#8dae10" stroke-linecap="round" stroke-linejoin="round" stroke-width="20.831" d="m2368.72 6097.38 1185.16-44.64" clip-path="url(#B)" style="stroke:#da3" transform="matrix(.0199 0 0 -.0199 -32.31 155.342)"/><path fill="#fff" stroke="#000" d="m3553.88 6052.74 714.08 295.05" clip-path="url(#C)" transform="matrix(.0199 0 0 -.0199 -32.31 155.342)"/><path fill="none" stroke="#8dae10" stroke-linecap="round" stroke-linejoin="round" stroke-width="16.665" d="m3553.88 6052.74 714.08 295.05" clip-path="url(#D)" style="stroke:#da3" transform="matrix(.0199 0 0 -.0199 -32.31 155.342)"/><path fill="#fff" d="m1900.11 6437.05 468.61-339.67" clip-path="url(#E)" transform="matrix(.0199 0 0 -.0199 -32.31 155.342)"/><g stroke="#8dae10" clip-path="url(#F)" transform="translate(-81.58 -139.112)scale(.26458)"><path fill="none" stroke-linecap="round" stroke-linejoin="round" stroke-width="16.665" d="m1900.11 6437.05 468.61-339.67" clip-path="url(#G)" style="stroke:#da3" transform="matrix(.07518 0 0 -.07518 186.217 1112.899)"/><path fill="#fff" d="m2614.19 6732.11-714.08-295.06" clip-path="url(#H)" style="stroke:#da3" transform="matrix(.07518 0 0 -.07518 186.217 1112.899)"/></g><g stroke="#8dae10" stroke-width="13.322" clip-path="url(#I)" transform="translate(-81.58 -139.112)scale(.26458)"><path fill="none" stroke-linecap="round" stroke-linejoin="round" d="m2614.19 6732.11-714.08-295.06" clip-path="url(#J)" style="stroke:#da3" transform="matrix(.07518 0 0 -.07518 186.217 1112.899)"/><path fill="#fff" d="m4267.96 6347.79-468.61 339.7" clip-path="url(#K)" style="stroke:#da3" transform="matrix(.07518 0 0 -.07518 186.217 1112.899)"/></g><g clip-path="url(#L)" transform="translate(-81.58 -139.112)scale(.26458)"><g clip-path="url(#M)"><path fill="#231f20" d="M4259.21 6358.81c1.63 0 2.97 1.33 2.97 2.98s-1.34 2.98-2.97 2.98a2.981 2.981 0 0 1 0-5.96" clip-path="url(#N)" transform="matrix(.07518 0 0 -.07518 186.217 1112.899)"/></g></g><path fill="none" stroke="#8dae10" stroke-linecap="round" stroke-linejoin="round" stroke-width="12.499" d="m4267.96 6347.79-468.61 339.7" clip-path="url(#O)" style="stroke:#da3" transform="matrix(.0199 0 0 -.0199 -32.31 155.342)"/><g fill="#17365c"><path d="M3922.14 6987.94v-43.72h44.07V6934h-44.07v-45.21h-10.24V6934h-44.09v10.22h44.09v43.72z" clip-path="url(#P)" style="fill:#048" transform="matrix(.0199 0 0 -.0199 -32.31 155.342)"/><path d="M3651.86 6762.62c6 .5 10.14 1.59 12.39 3.26 3.52 2.5 6.39 7.72 8.66 15.66l31.43 113.51c.93 3.43 1.64 6.4 2.21 8.9q.81 3.765.81 7.02c0 3.93-1.53 6.66-4.57 8.21-3.06 1.54-8.17 2.4-15.36 2.57v4.13h70.22v-4.13q-10.545-.885-15.03-3.39c-5.1-2.75-8.74-7.94-10.92-15.55l-13.98-48.63 2.36.05 31.9 22.14c10.42 7.26 18.91 13.62 25.43 19.05 11.11 9.28 16.68 15.79 16.68 19.56 0 2.59-1.13 4.26-3.34 5.01-2.22.75-6.33 1.33-12.34 1.76v4.13h57.01v-4.13c-2.42-.34-4.67-.88-6.77-1.64-3.58-1.5-7.76-4-12.51-7.51l-76.92-57.89 44.46-77.93c3.35-5.85 6.6-9.61 9.78-11.28q4.755-2.505 15.15-2.88v-4.14h-70.66v4.14c7.01.5 11.65 1.09 13.91 1.77 3.59 1 5.4 2.94 5.4 5.79 0 2.44-1.31 6.54-3.9 12.3s-6.06 12.38-10.4 19.86l-24.92 42.68-2.62.81-15.16-56.54-2.37-9.76c-.25-1-.43-1.95-.5-2.82-.1-.88-.14-1.77-.14-2.69 0-4.59 1.89-7.72 5.64-9.4 2.27-1 6.44-1.67 12.54-2v-4.14h-63.57z" clip-path="url(#Q)" style="fill:#048" transform="matrix(.0199 0 0 -.0199 -32.31 155.342)"/><path d="m2406.86 6025.75-2.98-11.34h-96.73l2.98 11.34z" clip-path="url(#R)" style="fill:#048" transform="matrix(.0199 0 0 -.0199 -32.31 155.342)"/><path d="M2074.46 5845.73c6.02.52 10.15 1.6 12.41 3.27 3.51 2.5 6.39 7.72 8.65 15.66l31.44 113.52c.91 3.43 1.65 6.4 2.19 8.89.54 2.52.82 4.84.82 7.04 0 3.91-1.52 6.64-4.58 8.2-3.05 1.53-8.17 2.39-15.35 2.57v4.12h70.21v-4.12c-7.01-.59-12.03-1.72-15.03-3.4-5.1-2.75-8.73-7.94-10.9-15.55l-13.99-48.63 2.35.07 31.9 22.13c10.44 7.25 18.92 13.62 25.44 19.05 11.1 9.27 16.66 15.78 16.66 19.56 0 2.59-1.11 4.26-3.32 5-2.22.75-6.32 1.34-12.34 1.77v4.12h57.01v-4.12c-2.42-.34-4.67-.88-6.76-1.65-3.59-1.5-7.77-4-12.53-7.51l-76.91-57.88 44.46-77.94c3.34-5.84 6.59-9.6 9.78-11.28 3.16-1.67 8.22-2.63 15.15-2.89v-4.12h-70.66v4.12c7.02.52 11.65 1.1 13.9 1.79 3.59 1 5.39 2.93 5.39 5.79 0 2.44-1.29 6.53-3.88 12.3-2.59 5.75-6.05 12.37-10.4 19.84l-24.93 42.69-2.62.81-15.14-56.54-2.39-9.75c-.25-1.01-.41-1.95-.49-2.84-.09-.86-.13-1.76-.13-2.67 0-4.6 1.88-7.73 5.64-9.41 2.26-1 6.44-1.67 12.53-2.01v-4.12h-63.58z" clip-path="url(#S)" style="fill:#048" transform="matrix(.0199 0 0 -.0199 -32.31 155.342)"/><path d="M3020.09 5028.89h3c1.32-7.32 2.91-12.68 4.71-16.07 3.34-6.24 8.3-9.34 14.89-9.34 3.7 0 6.8 1.29 9.31 3.9 2.52 2.6 3.78 6.05 3.78 10.34 0 2.67-.33 4.86-.96 6.55-.64 1.69-1.43 3.22-2.41 4.62l-7.53 11.18c-4.55 6.77-7.38 11.32-8.55 13.62-1.75 3.45-2.62 6.89-2.62 10.35 0 5.26 1.9 9.9 5.68 13.94 3.79 4.01 9.15 6.02 16.1 6.02 2.98 0 6.36-.55 10.18-1.67 3.81-1.13 6.41-1.68 7.81-1.68 1.52 0 2.63.31 3.36.9.72.61 1.39 1.43 1.98 2.45h2.65l-3.73-25.78h-2.98c-.8 5.87-1.98 10.29-3.56 13.26-2.9 5.5-7.51 8.26-13.79 8.26-2.68 0-5.04-.84-7.14-2.49-2.07-1.66-3.14-4.11-3.14-7.31 0-2.49.49-4.67 1.42-6.55.94-1.87 3.07-5.2 6.41-9.98l6.45-9.25c3.32-4.8 5.68-8.69 7.08-11.72s2.08-6.3 2.08-9.8c0-6.55-2.78-12.05-8.34-16.53-5.59-4.47-12.2-6.73-19.89-6.73-2.48 0-6.03.52-10.62 1.56q-6.915 1.53-8.01 1.53c-1.2 0-2.09-.27-2.66-.8-.58-.56-1.11-1.37-1.6-2.47h-2.98z" clip-path="url(#T)" style="fill:#048" transform="matrix(.0199 0 0 -.0199 -32.31 155.342)"/><path d="M3001.83 5110.73c7.78 15.95 11.65 32.2 11.65 48.74 0 15.95-3.92 29.39-11.79 40.35-7.85 10.93-22.01 16.41-42.49 16.41-5.59 0-9.59-.55-11.97-1.63-2.37-1.08-3.95-3-4.7-5.77l-35.05-125.67c-.68-2.51-1.11-4.35-1.26-5.52-.17-1.16-.26-2.33-.26-3.5 0-3.67 1.13-6.18 3.4-7.52 2.25-1.34 6.89-2.01 13.91-2.01 37.25 0 63.44 15.37 78.56 46.12M2860 5060.61c6 .5 10.14 1.58 12.39 3.26 3.5 2.51 6.39 7.71 8.64 15.66l31.45 113.52c.91 3.42 1.64 6.36 2.19 8.83.53 2.46.8 4.62.8 6.45 0 4.18-1.41 7.09-4.24 8.7-2.85 1.63-8.07 2.53-15.68 2.71v4.13h66.3c12.28 0 23.07-1.08 32.32-3.26 9.27-2.18 17.88-6.64 25.81-13.41 5.6-5 10.29-10.94 14.05-17.79 5.51-10.36 8.26-22.01 8.26-34.96 0-25.72-9.89-48.03-29.69-66.9-21.72-20.71-49.95-31.08-84.71-31.08H2860Z" clip-path="url(#U)" style="fill:#048" transform="matrix(.0199 0 0 -.0199 -32.31 155.342)"/><path d="M3081.13 5218.6h97.465v10.227h-97.465z" clip-path="url(#V)" style="fill:#048" transform="matrix(.0199 0 0 -.0199 -32.31 155.342)"/><path d="M3012.46 5275.55c25.72 0 46.59 20.85 46.59 46.57 0 25.74-20.87 46.59-46.59 46.59-25.71 0-46.57-20.85-46.57-46.59 0-25.72 20.86-46.57 46.57-46.57" clip-path="url(#W)" style="fill:#048" transform="matrix(.0199 0 0 -.0199 -32.31 155.342)"/><path d="M3720.73 5567.19c25.72 0 46.57 20.85 46.57 46.58 0 25.71-20.85 46.57-46.57 46.57s-46.59-20.86-46.59-46.57c0-25.73 20.87-46.58 46.59-46.58" clip-path="url(#X)" style="fill:#048" transform="matrix(.0199 0 0 -.0199 -32.31 155.342)"/><path d="M2537.52 5613.02c25.72 0 46.57 20.85 46.57 46.57s-20.85 46.59-46.57 46.59-46.58-20.87-46.58-46.59 20.86-46.57 46.58-46.57" clip-path="url(#Y)" style="fill:#048" transform="matrix(.0199 0 0 -.0199 -32.31 155.342)"/><path d="M3170.77 7417c25.74 0 46.59 20.84 46.59 46.56 0 25.73-20.85 46.58-46.59 46.58-25.7 0-46.57-20.85-46.57-46.58 0-25.72 20.87-46.56 46.57-46.56" clip-path="url(#Z)" style="fill:#048" transform="matrix(.0199 0 0 -.0199 -32.31 155.342)"/><path d="M2454.2 7121.19c25.72 0 46.57 20.86 46.57 46.58s-20.85 46.57-46.57 46.57-46.59-20.85-46.59-46.57 20.87-46.58 46.59-46.58" clip-path="url(#aa)" style="fill:#048" transform="matrix(.0199 0 0 -.0199 -32.31 155.342)"/><path d="M3637.41 7075.36c25.72 0 46.57 20.85 46.57 46.59 0 25.71-20.85 46.57-46.57 46.57s-46.59-20.86-46.59-46.57c0-25.74 20.87-46.59 46.59-46.59" clip-path="url(#ab)" style="fill:#048" transform="matrix(.0199 0 0 -.0199 -32.31 155.342)"/><path d="M4403.63 6376.77c-16.91-48.01-29.07-76.24-35.84-90.1-4.66-9.76-10-15.4-18.78-17.46-7.42-1.79-13.6 3.84-13.31 9.76.29 8.72 6.26 12.83 10.43 16.94 5.54 5.39 14.57 11.29 18.71 22.07l23.16 58.79h-12.07c-7.2 0-15.2-4.11-19.13-8.22l-7.52-7.95h-4.35c2.22 3.58 7.61 14.11 18.18 24.9 6.01 6.16 15.88 13.34 27.7 13.34h95.72l-5.91-22.07h-32.34c-11.09-30.05-16.57-50.58-19.17-60.33-1.92-7.18-1.48-15.14 1.43-18.74 2.49-3.07 8.78-7.44 18.68-1.02 7.74 4.87 9.14 12.06 10.93 15.91h5.4c-6.77-23.36-21.07-35.68-29.03-39.54-5.95-3.06-16.06-5.37-21.69-.49-3.29 3.07-6.88 9.75-7.52 18.98-.64 10.01 5.08 30.54 9.92 43.89l15.42 41.34z" clip-path="url(#ac)" style="fill:#048" transform="matrix(.0199 0 0 -.0199 -32.31 155.342)"/><path d="M4560.67 6458.83v-43.72h44.08v-10.22h-44.08v-45.21h-10.24v45.21h-44.09v10.22h44.09v43.72z" clip-path="url(#ad)" style="fill:#048" transform="matrix(.0199 0 0 -.0199 -32.31 155.342)"/><path d="M3900.62 7094.27c7.76 15.95 11.64 32.19 11.64 48.74 0 15.94-3.92 29.39-11.78 40.34-7.85 10.94-22.02 16.42-42.49 16.42-5.58 0-9.59-.56-11.96-1.64-2.39-1.09-3.96-3-4.7-5.76l-35.07-125.67c-.68-2.51-1.09-4.34-1.26-5.52-.15-1.17-.24-2.33-.24-3.51 0-3.67 1.12-6.18 3.37-7.51 2.27-1.34 6.9-2.01 13.91-2.01 37.28 0 63.45 15.37 78.58 46.12m-141.84-50.13c6.01.51 10.13 1.59 12.4 3.26 3.5 2.51 6.39 7.72 8.65 15.66l31.42 113.52c.93 3.42 1.66 6.37 2.21 8.83.53 2.47.81 4.62.81 6.46 0 4.17-1.42 7.08-4.26 8.7-2.83 1.63-8.07 2.53-15.66 2.7v4.13h66.29c12.27 0 23.06-1.08 32.32-3.25 9.27-2.18 17.87-6.65 25.82-13.41 5.6-5.01 10.29-10.94 14.04-17.79 5.51-10.36 8.27-22.02 8.27-34.96 0-25.73-9.91-48.03-29.7-66.91-21.71-20.71-49.96-31.07-84.7-31.07h-67.91z" clip-path="url(#ae)" style="fill:#048" transform="matrix(.0199 0 0 -.0199 -32.31 155.342)"/><path d="M4013.56 7267.08v-43.72h44.09v-10.23h-44.09v-45.2h-10.22v45.2h-44.09v10.23h44.09v43.72z" clip-path="url(#af)" style="fill:#048" transform="matrix(.0199 0 0 -.0199 -32.31 155.342)"/><path d="M3266.61 7527.56h3.01c1.33-7.33 2.9-12.68 4.7-16.07 3.34-6.24 8.3-9.35 14.9-9.35q5.535 0 9.3 3.9c2.52 2.6 3.78 6.06 3.78 10.35 0 2.66-.32 4.85-.94 6.54-.65 1.7-1.45 3.23-2.43 4.63l-7.53 11.17c-4.55 6.78-7.38 11.32-8.54 13.61-1.76 3.46-2.63 6.91-2.63 10.36 0 5.26 1.9 9.91 5.68 13.94 3.79 4.02 9.14 6.03 16.11 6.03 2.97 0 6.35-.56 10.17-1.68 3.81-1.12 6.41-1.68 7.81-1.68 1.52 0 2.63.31 3.36.91.73.61 1.4 1.42 2 2.45h2.64l-3.74-25.78h-2.98c-.8 5.87-1.98 10.29-3.55 13.25-2.91 5.51-7.5 8.27-13.8 8.27-2.67 0-5.04-.84-7.13-2.5-2.08-1.66-3.13-4.1-3.13-7.3 0-2.5.47-4.67 1.4-6.54.94-1.88 3.09-5.21 6.41-9.99l6.45-9.26c3.32-4.79 5.68-8.69 7.07-11.72 1.41-3.03 2.11-6.3 2.11-9.8 0-6.54-2.81-12.05-8.36-16.53-5.57-4.47-12.21-6.72-19.89-6.72-2.48 0-6.03.52-10.63 1.55-4.61 1.02-7.27 1.54-7.98 1.54-1.21 0-2.11-.27-2.68-.81-.58-.55-1.1-1.37-1.6-2.45h-2.98z" clip-path="url(#ag)" style="fill:#048" transform="matrix(.0199 0 0 -.0199 -32.31 155.342)"/><path d="M3245.77 7606.81c7.78 15.96 11.66 32.2 11.66 48.74 0 15.95-3.93 29.4-11.79 40.34-7.84 10.94-22.01 16.42-42.5 16.42-5.58 0-9.57-.55-11.96-1.63-2.37-1.09-3.94-3.01-4.68-5.77l-35.07-125.67c-.68-2.51-1.09-4.34-1.26-5.51s-.26-2.34-.26-3.51c0-3.67 1.14-6.18 3.39-7.52 2.25-1.33 6.9-2 13.91-2 37.26 0 63.45 15.37 78.56 46.11m-141.82-50.13c5.99.51 10.13 1.6 12.39 3.27 3.51 2.5 6.39 7.72 8.66 15.66l31.42 113.51c.93 3.43 1.66 6.37 2.21 8.84.53 2.46.79 4.61.79 6.45 0 4.18-1.4 7.08-4.24 8.71s-8.07 2.52-15.66 2.7v4.13h66.27c12.28 0 23.08-1.09 32.33-3.25 9.28-2.18 17.88-6.65 25.83-13.41 5.6-5.02 10.27-10.95 14.03-17.8 5.52-10.36 8.26-22.01 8.26-34.95 0-25.73-9.89-48.04-29.69-66.92-21.72-20.71-49.95-31.07-84.69-31.07h-67.91z" clip-path="url(#ah)" style="fill:#048" transform="matrix(.0199 0 0 -.0199 -32.31 155.342)"/><path d="M3356.61 7779.52v-43.72h44.09v-10.23h-44.09v-45.2h-10.22v45.2h-44.09v10.23h44.09v43.72z" clip-path="url(#ai)" style="fill:#048" transform="matrix(.0199 0 0 -.0199 -32.31 155.342)"/><path d="M2583.14 6740.41c-.52-13.11 19.9-24.54 45.6-25.55 25.71-.98 46.95 8.83 47.47 21.92.99 25.72-19.04 47.36-44.74 48.35-25.7 1.01-47.35-19.02-48.33-44.72" clip-path="url(#aj)" style="fill:#048" transform="matrix(.0199 0 0 -.0199 -32.31 155.342)"/><path d="M1908.43 6396.27c25.72 0 46.56 20.85 46.56 46.57 0 25.71-20.84 46.58-46.56 46.58-25.74 0-46.59-20.87-46.59-46.58 0-25.72 20.85-46.57 46.59-46.57" clip-path="url(#ak)" style="fill:#048" transform="matrix(.0199 0 0 -.0199 -32.31 155.342)"/><path d="M2379.2 6054.64c25.71 0 46.58 20.86 46.58 46.57 0 25.73-20.87 46.58-46.58 46.58-25.72 0-46.58-20.85-46.58-46.58 0-25.71 20.86-46.57 46.58-46.57" clip-path="url(#al)" style="fill:#048" transform="matrix(.0199 0 0 -.0199 -32.31 155.342)"/><path d="M3558.24 6008.8c25.73 0 46.58 20.86 46.58 46.58 0 25.73-20.85 46.58-46.58 46.58-25.71 0-46.57-20.85-46.57-46.58 0-25.72 20.86-46.58 46.57-46.58" clip-path="url(#am)" style="fill:#048" transform="matrix(.0199 0 0 -.0199 -32.31 155.342)"/><path d="M4266.5 6300.45c25.72 0 46.57 20.85 46.57 46.57s-20.85 46.57-46.57 46.57c-25.71 0-46.57-20.85-46.57-46.57s20.86-46.57 46.57-46.57" clip-path="url(#an)" style="fill:#048" transform="matrix(.0199 0 0 -.0199 -32.31 155.342)"/><path d="M3733.01 6694.58c-.51-13.1 19.9-24.53 45.61-25.54 25.71-.99 46.95 8.82 47.47 21.93.99 25.69-19.04 47.33-44.74 48.33-25.71 1.01-47.35-19.03-48.34-44.72" clip-path="url(#ao)" style="fill:#048" transform="matrix(.0199 0 0 -.0199 -32.31 155.342)"/><path d="M3108.07 6427.94c-.5-13.12 19.92-24.53 45.63-25.53 25.7-1.02 46.95 8.82 47.45 21.91 1.01 25.7-19.02 47.36-44.73 48.35-25.7.99-47.35-19.04-48.35-44.73" clip-path="url(#ap)" style="fill:#048" transform="matrix(.0199 0 0 -.0199 -32.31 155.342)"/><path d="M2999.76 6432.09c-.52-13.1 19.9-24.53 45.61-25.52 25.7-1 46.95 8.82 47.47 21.92.99 25.7-19.04 47.34-44.75 48.35-25.72.99-47.34-19.04-48.33-44.75" clip-path="url(#aq)" style="fill:#048" transform="matrix(.0199 0 0 -.0199 -32.31 155.342)"/><path d="M2974.75 6357.11c-.5-13.1 19.92-24.54 45.63-25.54 25.7-.99 46.95 8.83 47.45 21.93 1.01 25.69-19.02 47.35-44.73 48.34-25.7 1-47.34-19.02-48.35-44.73" clip-path="url(#ar)" style="fill:#048" transform="matrix(.0199 0 0 -.0199 -32.31 155.342)"/><path d="M3083.08 6352.94c-.52-13.11 19.91-24.53 45.61-25.52 25.71-1.01 46.95 8.81 47.47 21.91.99 25.71-19.04 47.35-44.74 48.34-25.71 1-47.35-19.02-48.34-44.73" clip-path="url(#as)" style="fill:#048" transform="matrix(.0199 0 0 -.0199 -32.31 155.342)"/><path d="M3520.18 5773.05c6.01.5 10.13 1.58 12.4 3.25 3.5 2.52 6.39 7.72 8.64 15.66l31.44 113.52c.92 3.43 1.65 6.4 2.2 8.89.54 2.51.82 4.86.82 7.03 0 3.93-1.54 6.65-4.58 8.21-3.05 1.53-8.16 2.39-15.36 2.57v4.12h70.24v-4.12c-7.03-.59-12.04-1.72-15.05-3.39-5.1-2.76-8.73-7.93-10.9-15.54l-13.99-48.64 2.36.05 31.9 22.13c10.43 7.26 18.92 13.62 25.41 19.06 11.13 9.27 16.68 15.78 16.68 19.56 0 2.58-1.1 4.26-3.33 5-2.2.75-6.33 1.34-12.33 1.77v4.12h57.02v-4.12c-2.42-.34-4.69-.89-6.78-1.64-3.59-1.5-7.76-4.01-12.52-7.51l-76.9-57.89 44.45-77.94c3.34-5.84 6.59-9.6 9.77-11.28 3.17-1.67 8.22-2.63 15.14-2.87v-4.14h-70.64v4.14c7.02.5 11.64 1.08 13.91 1.76 3.59 1.01 5.39 2.94 5.39 5.8 0 2.44-1.31 6.53-3.9 12.3-2.59 5.75-6.04 12.37-10.38 19.86l-24.93 42.67-2.63.81-15.14-56.52-2.38-9.77c-.26-1.01-.42-1.95-.5-2.84-.09-.86-.14-1.76-.14-2.67 0-4.6 1.89-7.74 5.65-9.41 2.25-.99 6.44-1.66 12.53-1.99v-4.14h-63.57z" clip-path="url(#at)" style="fill:#048" transform="matrix(.0199 0 0 -.0199 -32.31 155.342)"/><path d="M3791.62 5918.04c5.69 15.31 8.56 29.95 8.56 43.94 0 4.84-.51 8.75-1.56 11.72-1.89 5.64-5.44 8.47-10.68 8.47-9.67 0-17.85-10.41-24.53-31.21-5.1-15.92-7.64-29.16-7.64-39.77 0-4.48.51-8.2 1.56-11.23 1.97-5.83 5.6-8.75 10.87-8.75 9.01 0 16.82 8.95 23.42 26.83m16.12 54.74c2.58-5.89 3.88-12.74 3.88-20.54 0-17.25-4.55-32.4-13.64-45.49-8.94-12.82-19.03-19.21-30.28-19.21-6.56 0-12.09 2.78-16.61 8.37s-6.77 13.29-6.77 23.12c0 16.43 4.45 31.67 13.35 45.7 9.15 14.35 19.31 21.54 30.51 21.54 9.04 0 15.55-4.51 19.56-13.49" clip-path="url(#au)" style="fill:#048" transform="matrix(.0199 0 0 -.0199 -32.31 155.342)"/></g><path fill="none" stroke="#17365c" stroke-linecap="round" stroke-linejoin="round" stroke-width="12.499" d="m3558.71 5985.09 172.87-.89" clip-path="url(#av)" style="stroke:#048" transform="matrix(.0199 0 0 -.0199 -32.31 155.342)"/><path fill="#17365c" d="M3320.64 6473.03h-21.81l23.56 88.3c3.36 12.58 3.48 18.74.86 23.36-2.75 5.13-8.81 6.41-14.8 1.28-6-5.13-8.19-13.34-11.39-20.53h-4.61c3.29 9.49 3.65 14.63 13.84 25.92 8.38 9.24 25.29 15.92 36.37 8.47 7.82-5.39 6.13-14.63 6.19-22.07 7.05 7.19 20.44 21.81 37.77 26.17 8.51 2.06 21.4 1.29 27.14-4.1 8.85-8.22 11.38-16.94 7.67-31.82l-31.23-127.57c-1.44-6.42-.61-12.84-1.03-19.26h-22.85c.63 6.16.16 12.06 3.28 25.67l27.35 115c2.55 10.52 1.76 16.17-2.03 20.27-3.58 3.85-11.19 6.16-17.94 4.87-15.89-2.81-25.46-14.62-31.25-20.01z" clip-path="url(#aw)" style="fill:#048" transform="matrix(.0199 0 0 -.0199 -32.31 155.342)"/><g fill="#17365c"><path d="M3245.76 6217.34h-21.81l23.56 88.3c3.36 12.58 3.48 18.74.87 23.37-2.76 5.12-8.82 6.4-14.81 1.28-6-5.13-8.19-13.34-11.39-20.54h-4.61c3.29 9.49 3.66 14.63 13.84 25.91 8.38 9.26 25.29 15.93 36.37 8.48 7.82-5.39 6.13-14.64 6.2-22.07 7.04 7.19 20.43 21.81 37.77 26.18 8.51 2.05 21.4 1.29 27.13-4.11 8.85-8.21 11.39-16.94 7.67-31.82l-31.21-127.58c-1.48-6.41-.63-12.83-1.05-19.25h-22.84c.62 6.16.15 12.06 3.27 25.67l27.35 115c2.55 10.52 1.76 16.16-2.03 20.28-3.59 3.85-11.18 6.15-17.94 4.86-15.89-2.82-25.45-14.62-31.24-20.01z" clip-path="url(#aE)" style="fill:#048" transform="matrix(.0199 0 0 -.0199 -32.31 155.342)"/><path d="M3368.84 6323.8c-2.7-3.32-9.11.2-7.45 3.92l22.33 49.6c1.64 3.52 10.53 2.28 13.42.41 2.07-1.23 7.66-8.47 4.98-11.78z" clip-path="url(#aF)" style="fill:#048" transform="matrix(.0199 0 0 -.0199 -32.31 155.342)"/><path d="M2817.02 6256.07h-21.81l23.58 88.31c3.35 12.57 3.45 18.74.83 23.36-2.72 5.12-8.79 6.42-14.8 1.28-5.98-5.14-8.17-13.36-11.37-20.54h-4.62c3.3 9.49 3.66 14.64 13.84 25.92 8.37 9.25 25.29 15.93 36.4 8.48 7.78-5.39 6.09-14.64 6.17-22.08 7.05 7.18 20.45 21.82 37.77 26.18 8.51 2.06 21.4 1.3 27.12-4.1 8.86-8.22 11.42-16.93 7.69-31.83l-31.22-127.56c-1.46-6.43-.6-12.85-1.05-19.26h-22.84c.61 6.15.14 12.06 3.27 25.68l27.35 114.98c2.56 10.53 1.76 16.18-2.04 20.28-3.56 3.85-11.17 6.16-17.93 4.88-15.89-2.82-25.46-14.63-31.26-20.03z" clip-path="url(#aG)" style="fill:#048" transform="matrix(.0199 0 0 -.0199 -32.31 155.342)"/><path d="M2980.11 6257.29c3.27-3.31 4.9-6.53 4.9-9.67 0-2.83-.82-5.03-2.53-6.6-1.69-1.57-3.71-2.36-5.99-2.36-2.24 0-4.11.7-5.62 2.1-1.52 1.38-2.3 3.12-2.3 5.17 0 1.57.52 3.26 1.52 5.09.98 1.81 1.5 3 1.5 3.53 0 1.09-.63 2.02-1.88 2.77q-1.845 1.14-5.94 1.14c-9.73 0-18.19-5.55-25.36-16.64-7.2-11.09-10.76-22.72-10.76-34.91 0-6.85 1.46-12.2 4.33-16.08 2.91-3.88 7.3-5.83 13.08-5.83 4.67 0 9.19 1.35 13.59 4.05 4.37 2.69 8.42 6.13 12.13 10.3l.62.73 2.65-1.99c-4.26-5.39-8.32-9.55-12.28-12.45-6.95-5.03-14.69-7.54-23.15-7.54-8.12 0-14.69 2.59-19.71 7.76-5.02 5.18-7.52 12.26-7.52 21.21 0 13.74 5.59 26.4 16.79 37.95 11.1 11.51 23.07 17.25 35.96 17.25 7.39 0 12.7-1.65 15.97-4.98" clip-path="url(#aH)" style="fill:#048" transform="matrix(.0199 0 0 -.0199 -32.31 155.342)"/><path d="M2926.07 6591.46c-16.91-48-29.07-76.24-35.84-90.08-4.66-9.77-10-15.42-18.78-17.47-7.42-1.8-13.59 3.85-13.31 9.77.29 8.71 6.26 12.81 10.43 16.92 5.54 5.4 14.56 11.31 18.73 22.07l23.14 58.79h-12.07c-7.2 0-15.21-4.11-19.13-8.21l-7.52-7.96h-4.35c2.22 3.59 7.61 14.12 18.18 24.91 6.01 6.15 15.88 13.33 27.7 13.33h95.71l-5.9-22.07h-32.34c-11.1-30.03-16.58-50.57-19.18-60.32-1.92-7.18-1.46-15.14 1.43-18.74 2.5-3.08 8.78-7.44 18.69-1.02 7.73 4.87 9.13 12.07 10.93 15.91h5.4c-6.77-23.36-21.08-35.68-29.04-39.53-5.95-3.08-16.05-5.39-21.68-.51-3.29 3.08-6.88 9.75-7.5 18.99-.66 10.01 5.08 30.54 9.9 43.9l15.42 41.32z" clip-path="url(#aI)" style="fill:#048" transform="matrix(.0199 0 0 -.0199 -32.31 155.342)"/><path d="M3075.02 6597.13c5.7 15.3 8.56 29.94 8.56 43.93 0 4.84-.5 8.75-1.55 11.72-1.9 5.65-5.46 8.48-10.7 8.48-9.65 0-17.83-10.41-24.51-31.22-5.12-15.91-7.64-29.16-7.64-39.76 0-4.48.5-8.21 1.55-11.23 1.98-5.83 5.61-8.75 10.86-8.75 9.01 0 16.84 8.95 23.43 26.83m16.11 54.73c2.59-5.88 3.9-12.74 3.9-20.54q0-25.86-13.65-45.48c-8.93-12.82-19.03-19.22-30.29-19.22-6.53 0-12.07 2.79-16.59 8.38-4.52 5.57-6.77 13.28-6.77 23.12 0 16.43 4.43 31.67 13.35 45.7 9.13 14.35 19.3 21.53 30.49 21.53 9.05 0 15.57-4.49 19.56-13.49" clip-path="url(#aJ)" style="fill:#048" transform="matrix(.0199 0 0 -.0199 -32.31 155.342)"/><path d="M4053.8 5633.67c5.69 15.29 8.54 29.94 8.54 43.92 0 4.86-.5 8.75-1.54 11.72-1.89 5.66-5.45 8.48-10.68 8.48-9.67 0-17.85-10.4-24.55-31.2-5.08-15.92-7.62-29.18-7.62-39.77 0-4.47.51-8.22 1.55-11.23 1.98-5.83 5.6-8.75 10.88-8.75 9.01 0 16.8 8.95 23.42 26.83m16.12 54.73c2.57-5.89 3.87-12.74 3.87-20.55 0-17.23-4.54-32.39-13.63-45.47-8.95-12.82-19.04-19.21-30.28-19.21-6.56 0-12.09 2.79-16.61 8.36-4.52 5.58-6.77 13.28-6.77 23.13 0 16.42 4.45 31.66 13.35 45.69 9.13 14.36 19.29 21.53 30.5 21.53 9.04 0 15.56-4.49 19.57-13.48" clip-path="url(#aK)" style="fill:#048" transform="matrix(.0199 0 0 -.0199 -32.31 155.342)"/><path d="M3934.21 5544.62c7.76 15.97 11.64 32.21 11.64 48.75 0 15.95-3.92 29.4-11.78 40.34-7.85 10.95-22.02 16.41-42.49 16.41-5.58 0-9.59-.55-11.96-1.63-2.39-1.08-3.96-2.99-4.71-5.75l-35.06-125.68c-.68-2.51-1.1-4.34-1.26-5.51-.15-1.17-.25-2.34-.25-3.51 0-3.67 1.13-6.18 3.38-7.52 2.27-1.32 6.91-2 13.91-2 37.28 0 63.45 15.36 78.58 46.1m-141.84-50.11c6.01.5 10.13 1.58 12.4 3.26 3.5 2.5 6.39 7.73 8.64 15.66l31.43 113.52c.93 3.42 1.66 6.35 2.21 8.84.53 2.44.81 4.61.81 6.43 0 4.19-1.42 7.1-4.27 8.73-2.82 1.62-8.06 2.52-15.66 2.69v4.12h66.3c12.27 0 23.06-1.08 32.32-3.24 9.27-2.19 17.87-6.65 25.82-13.41 5.59-5.02 10.28-10.95 14.04-17.81 5.51-10.34 8.27-22 8.27-34.95 0-25.72-9.91-48.02-29.7-66.9-21.71-20.72-49.96-31.08-84.71-31.08h-67.9z" clip-path="url(#aL)" style="fill:#048" transform="matrix(.0199 0 0 -.0199 -32.31 155.342)"/></g><path fill="none" stroke="#17365c" stroke-linecap="round" stroke-linejoin="round" stroke-width="12.499" d="m3829.52 5705.96 172.87-.9" clip-path="url(#aM)" style="stroke:#048" transform="matrix(.0199 0 0 -.0199 -32.31 155.342)"/></svg>