<svg xmlns="http://www.w3.org/2000/svg" xml:space="preserve" width="240.66" height="192.835" viewBox="0 0 63.675 51.021"><defs><clipPath id="a"><path d="M152.157 877.913h511.694V98.656H152.157Z"/></clipPath><clipPath id="b"><path d="M-43.948-198.405h190.415V91.578H-43.948Z"/></clipPath><clipPath id="c"><path d="M-43.948-198.405h190.415V91.578H-43.948Z"/></clipPath><clipPath id="d"><path d="M-89.623-216.076h190.415V73.907H-89.623Z"/></clipPath><clipPath id="e"><path d="M-125.408-277.421H65.007V12.562h-190.415z"/></clipPath><clipPath id="f"><path d="M-129.075-209.629H61.34V80.354h-190.415z"/></clipPath><clipPath id="g"><path d="M-150.079-194.404H40.336V95.579h-190.415z"/></clipPath><clipPath id="h"><path d="M-118.073-181.179H72.342v289.983h-190.415z"/></clipPath><clipPath id="i"><path d="M-64.951-183.18h190.415v289.983H-64.951Z"/></clipPath><clipPath id="j"><path d="M-43.948-198.405h190.415V91.578H-43.948Z"/></clipPath><clipPath id="k"><path d="M-153.746-242.525H36.669V47.458h-190.415z"/></clipPath><clipPath id="l"><path d="M-89.623-216.076h190.415V73.907H-89.623Z"/></clipPath><clipPath id="m"><path d="M-47.615-246.525H142.8V43.458H-47.615Z"/></clipPath><clipPath id="n"><path d="M-47.615-246.525H142.8V43.458H-47.615Z"/></clipPath><clipPath id="o"><path d="M-153.746-242.525H36.669V47.458h-190.415z"/></clipPath><clipPath id="p"><path d="M-89.623-216.076h190.415V73.907H-89.623Z"/></clipPath><clipPath id="q"><path d="M-125.408-277.421H65.007V12.562h-190.415z"/></clipPath><clipPath id="aE"><path d="M152.157 877.913h511.694V98.656H152.157Z"/></clipPath><clipPath id="aF"><path d="M-122.117 65.711H68.298v-289.983h-190.415z"/></clipPath><clipPath id="aG"><path d="M-129.11-226.127H61.305V63.856H-129.11Z"/></clipPath><clipPath id="aH"><path d="M-130.784-220.331H59.631V69.652h-190.415z"/></clipPath><clipPath id="r"><path d="M-159.155-246.03H31.26V43.953h-190.415z"/></clipPath><clipPath id="s"><path d="M-166.025-245.484H24.39V44.499h-190.415z"/></clipPath><clipPath id="t"><path d="M-171.648-245.484H18.767V44.499h-190.415z"/></clipPath><clipPath id="u"><path d="M-166.773-239.688H23.642V50.295h-190.415z"/></clipPath><clipPath id="v"><path d="M-115.544-174.698H74.871v289.983h-190.415z"/></clipPath><clipPath id="x"><path d="M-124.138-176.79H66.277v289.983h-190.415z"/></clipPath><clipPath id="y"><path d="M-65.531-210.306h190.415V79.677H-65.531Z"/></clipPath><clipPath id="z"><path d="M-139.749-214.009H50.666V75.974h-190.415z"/></clipPath><clipPath id="A"><path d="M-77.966-258.33h190.415V31.653H-77.966Z"/></clipPath><clipPath id="B"><path d="M-86.087-267.865h190.415V22.118H-86.087Z"/></clipPath><clipPath id="C"><path d="M-85.965-259.465H104.45V30.518H-85.965Z"/></clipPath><clipPath id="D"><path d="M-89.664-259.465h190.415V30.518H-89.664Z"/></clipPath><clipPath id="E"><path d="M-132.685-280.192H57.73V9.791h-190.415z"/></clipPath><clipPath id="F"><path d="M-141.244-284.651H49.171V5.332h-190.415z"/></clipPath><clipPath id="G"><path d="M-145.82-284.651H44.595V5.332H-145.82Z"/></clipPath><clipPath id="I"><path d="M-140.89-276.251H49.525V13.732H-140.89Z"/></clipPath><clipPath id="J"><path d="M-144.59-276.251H45.825V13.732H-144.59Z"/></clipPath><clipPath id="K"><path d="M-55.252-282.276h190.415V7.707H-55.252Z"/></clipPath><clipPath id="L"><path d="M-64.502-286.735h190.415V3.248H-64.502Z"/></clipPath><clipPath id="M"><path d="M-63.454-278.335h190.415V11.648H-63.454Z"/></clipPath><clipPath id="N"><path d="M-67.154-278.335h190.415V11.648H-67.154Z"/></clipPath><clipPath id="O"><path d="M-35.854-251.175h190.415V38.808H-35.854Z"/></clipPath><clipPath id="P"><path d="M-44.326-250.121h190.415V39.862H-44.326Z"/></clipPath><clipPath id="Q"><path d="M-44.398-244.835h190.415V45.148H-44.398Z"/></clipPath><clipPath id="R"><path d="M-60.744-176.879h190.415v289.983H-60.744Z"/></clipPath><clipPath id="S"><path d="M-67.338-179.295h190.415v289.983H-67.338Z"/></clipPath><clipPath id="T"><path d="M-31.179-203.044h190.415V86.939H-31.179Z"/></clipPath><clipPath id="U"><path d="M-37.883-203.061h190.415V86.922H-37.883Z"/></clipPath><clipPath id="V"><path d="M-155.246-197.391H35.169V92.592h-190.415z"/></clipPath><clipPath id="W"><path d="M-164.377-199.217H26.038V90.766h-190.415z"/></clipPath><clipPath id="aV"><path d="M-106.172-192.907H84.243V97.076h-190.415z"/></clipPath><clipPath id="aW"><path d="M-112.912-199.236H77.503V90.747h-190.415z"/></clipPath><clipPath id="aX"><path d="M-119.873-198.938H70.542V91.045h-190.415z"/></clipPath><clipPath id="X"><path d="M-109.364-256.048H81.051V33.935h-190.415z"/></clipPath><clipPath id="Y"><path d="M-118.495-258.108H71.92V31.875h-190.415z"/></clipPath><clipPath id="Z"><path d="M-117.561-250.402H72.854V39.581h-190.415z"/></clipPath><clipPath id="aa"><path d="M-99.15-249.836H91.265V40.147H-99.15Z"/></clipPath><clipPath id="ab"><path d="M-102.519-258.338H87.896V31.645h-190.415z"/></clipPath><clipPath id="ac"><path d="M-103.67-250.633H86.745V39.35H-103.67Z"/></clipPath><clipPath id="ad"><path d="M-105.06-249.62H85.355V40.363H-105.06Z"/></clipPath><clipPath id="ae"><path d="M-67.096-230.147h190.415V59.836H-67.096Z"/></clipPath><clipPath id="af"><path d="M-70.832-227.658h190.415V62.325H-70.832Z"/></clipPath><clipPath id="ag"><path d="M-47.888-244.322h190.415V45.661H-47.888Z"/></clipPath><clipPath id="ah"><path d="M-44.183-196.281h190.415V93.702H-44.183Z"/></clipPath><clipPath id="ai"><path d="M-65.252-181.116h190.415v289.983H-65.252Z"/></clipPath><clipPath id="aj"><path d="M-118.04-179.147H72.375v289.983H-118.04Z"/></clipPath><clipPath id="ak"><path d="M-149.991-192.46H40.424V97.523h-190.415z"/></clipPath><clipPath id="al"><path d="M-129.27-207.509H61.145V82.474H-129.27Z"/></clipPath><clipPath id="am"><path d="M-153.696-240.155H36.719V49.828h-190.415z"/></clipPath><clipPath id="an"><path d="M-123.61-227.658H66.805V62.325H-123.61Z"/></clipPath><clipPath id="ao"><path d="M-119.238-226.056H71.177V63.927h-190.415z"/></clipPath><clipPath id="ap"><path d="M-93.267-262.15H97.148V27.833H-93.267Z"/></clipPath><clipPath id="aq"><path d="M-125.334-275.231H65.081V14.752h-190.415z"/></clipPath><clipPath id="ar"><path d="M-96.38-244.419H94.035V45.564H-96.38Z"/></clipPath><clipPath id="as"><path d="M-100.766-244.251H89.649V45.732h-190.415z"/></clipPath><clipPath id="at"><path d="M-72.314-277.257h190.415V12.726H-72.314Z"/></clipPath><clipPath id="av"><path d="M-97.201-196.363H93.214V93.62H-97.201Z"/></clipPath><clipPath id="au"><path d="M-89.679-213.993h190.415V75.99H-89.679Z"/></clipPath><clipPath id="aw"><path d="M-92.976-196.538H97.439V93.445H-92.976Z"/></clipPath><clipPath id="ax"><path d="M-75.846-209.536h190.415V80.447H-75.846Z"/></clipPath><clipPath id="ay"><path d="M-94.496-225.195H95.919V64.788H-94.496Z"/></clipPath><clipPath id="aC"><path d="M-102.886-231.619H87.529V58.364h-190.415z"/></clipPath><clipPath id="aD"><path d="M-102.495-226.332H87.92V63.651h-190.415z"/></clipPath><clipPath id="aN"><path d="M-37.439-226.033h190.415V63.95H-37.439Z"/></clipPath><clipPath id="aO"><path d="M-46.106-222.092h190.415V67.891H-46.106Z"/></clipPath><clipPath id="aP"><path d="M-46.034-227.379h190.415V62.604H-46.034Z"/></clipPath><clipPath id="aI"><path d="M-137.815-224.297H52.6V65.686h-190.415z"/></clipPath><clipPath id="aJ"><path d="M-147.527-220.357H42.888V69.626h-190.415z"/></clipPath><clipPath id="aK"><path d="M-146.151-228.885H44.264V61.098h-190.415z"/></clipPath><clipPath id="aL"><path d="M-146.517-226.067H43.898V63.916h-190.415z"/></clipPath><clipPath id="aM"><path d="M-132.814-219.028H57.601V70.955h-190.415z"/></clipPath><clipPath id="aQ"><path d="M-48.34-220.732h190.415V69.251H-48.34Z"/></clipPath><clipPath id="aR"><path d="M-53.275-226.042H137.14V63.941H-53.275Z"/></clipPath><clipPath id="aS"><path d="M-61.612-230.629h190.415V59.354H-61.612Z"/></clipPath><clipPath id="aT"><path d="M-63.339-222.102h190.415V67.881H-63.339Z"/></clipPath><clipPath id="aU"><path d="M-64.317-227.388h190.415V62.595H-64.317Z"/></clipPath></defs><g fill="#e7e7e7" clip-path="url(#a)" transform="translate(-36.018 -16.518)scale(.15875)"><path fill-opacity=".3" d="m0 0 21-15.23 53.12-2L106.13-4l-21 15.23-53.12 2z" clip-path="url(#b)" transform="matrix(2.68725 0 0 -2.68725 270.257 344.749)"/></g><g stroke="#8dae10" stroke-linecap="round" stroke-linejoin="round"><g stroke-width=".548"><path fill="none" d="m0 0 21-15.23 53.12-2L106.13-4l-21 15.23-53.12 2z" clip-path="url(#c)" style="stroke:#da3" transform="matrix(.427 0 0 -.427 6.885 38.21)"/><path fill="#e7e7e7" fill-opacity=".3" d="m0 0-21 15.23-21.01 15.22 53.12-2 53.01-2-32-13.23z" clip-path="url(#d)" style="stroke:#da3" transform="matrix(.427 0 0 -.427 26.37 30.672)"/><path fill="#e7e7e7" fill-opacity=".3" d="m0 0-32.12-13.23-21 15.22z" clip-path="url(#e)" style="stroke:#da3" transform="matrix(.427 0 0 -.427 41.635 4.502)"/></g><g fill="none"><path stroke-width=".548" d="m0 0 21-15.23" clip-path="url(#f)" style="stroke:#da3" transform="matrix(.427 0 0 -.427 43.2 33.423)"/><path stroke-width=".821" d="m0 0-32.01-13.23" clip-path="url(#g)" style="stroke:#da3" transform="matrix(.427 0 0 -.427 52.161 39.918)"/><path stroke-width="1.095" d="m0 0-53.12 2" clip-path="url(#h)" style="stroke:#da3" transform="matrix(.427 0 0 -.427 38.507 45.559)"/><path stroke-width=".821" d="m0 0-21 15.23" clip-path="url(#i)" style="stroke:#da3" transform="matrix(.427 0 0 -.427 15.845 44.706)"/><path stroke-width=".548" d="m0 0 32.01 13.23" clip-path="url(#j)" style="stroke:#da3" transform="matrix(.427 0 0 -.427 6.885 38.21)"/><g stroke-width=".274"><path stroke-width=".195" d="m25.585 43.837 7.765 9.56M13.2 28.59l8.55 10.524M11.589 49.721l-.998 13.082m1.449-19.009-.104 1.38M13.2 28.59l-.8 10.505" style="stroke:#da3" transform="matrix(.6 0 0 .6 .53 .529)"/><path d="m0 0-3.67-48.12" clip-path="url(#k)" style="stroke:#da3" transform="matrix(.427 0 0 -.427 53.725 19.389)"/><path stroke-width=".195" d="m75.7 48.712-4.58 6.106m17.54-23.385L80.862 41.83" style="stroke:#da3" transform="matrix(.6 0 0 .6 .53 .529)"/></g><g stroke-width=".548"><path d="m0 0-24.67-32.89" clip-path="url(#l)" style="stroke:#da3" transform="matrix(.427 0 0 -.427 26.37 30.672)"/><path stroke-width=".39" d="m58.13 68.709 5.166 6.337M43.068 50.239l9.224 11.311" style="stroke:#da3" transform="matrix(.6 0 0 .6 .53 .529)"/></g><path stroke-width="1.095" d="m0 0 21-15.23 21.01-15.22 32.12 13.22 32 13.23" clip-path="url(#m)" style="stroke:#da3" transform="matrix(.427 0 0 -.427 8.45 17.683)"/><path stroke-width=".274" d="m0 0 24.67 32.89" clip-path="url(#n)" style="stroke:#da3" transform="matrix(.427 0 0 -.427 8.45 17.683)"/><path stroke-width=".274" d="m0 0-28.34 34.89" clip-path="url(#o)" style="stroke:#da3" transform="matrix(.427 0 0 -.427 53.725 19.389)"/><path stroke-width=".548" d="m0 0 3.67 48.12" clip-path="url(#p)" style="stroke:#da3" transform="matrix(.427 0 0 -.427 26.37 30.672)"/><path stroke-width="1.095" d="m0 0-32.12-13.23-21 15.22" clip-path="url(#q)" style="stroke:#da3" transform="matrix(.427 0 0 -.427 41.635 4.502)"/></g></g><g fill="#17365c"><path d="M0 0h5.76l-.34-1.68h-.21c0 .42.01 1.17-1.09 1.17H1.68l1.46-2.87-3.43-3.05h3.25c.71 0 1.17.15 1.79 1.24h.22L3.95-7.48h-6.08l4.09 3.63z" clip-path="url(#r)" style="fill:#048;stroke:none" transform="matrix(.427 0 0 -.427 56.033 17.894)"/><path d="M0 0v.49h1.84v1.84h.49V.49h1.85V0H2.33v-1.84h-.49V0Z" clip-path="url(#s)" style="fill:#048;stroke:none" transform="matrix(.427 0 0 -.427 58.963 18.127)"/><path d="M0 0v.49h1.84v1.84h.49V.49h1.85V0H2.33v-1.84h-.49V0Z" clip-path="url(#t)" style="fill:#048;stroke:none" transform="matrix(.427 0 0 -.427 61.362 18.127)"/><path d="M0 0c.15-.15.22-.29.22-.43 0-.13-.04-.23-.11-.3a.45.45 0 0 0-.27-.1c-.1 0-.19.04-.26.09-.06.06-.1.15-.1.23 0 .07.03.15.07.23.04.09.07.13.07.16q0 .075-.09.12c-.05.04-.14.05-.26.05-.44 0-.82-.24-1.14-.74s-.48-1.02-.48-1.57c0-.31.06-.55.19-.72s.33-.26.59-.26c.21 0 .41.06.61.18.19.12.38.28.54.47l.03.03.12-.09c-.19-.24-.38-.43-.55-.56-.31-.23-.66-.34-1.04-.34-.36 0-.66.12-.88.36-.23.22-.34.54-.34.94 0 .61.25 1.18.75 1.7.5.51 1.04.77 1.61.77C-.39.22-.15.15 0 0" clip-path="url(#u)" style="fill:#048;stroke:none" transform="matrix(.427 0 0 -.427 59.283 20.599)"/><path d="M0 0h.19c-.1-.53.03-.62.42-.62h2.28c.39 0 .57.09.75.62h.19l-.61-2.29h-.2c.11.52-.03.61-.41.61H.33c-.39 0-.57-.09-.74-.61h-.2zm-.29 2.39h5.71L4.97.72h-.18c.02.2.18.67-.56.67H.35c-.73 0-.84-.47-.92-.67h-.18zm-1.68-5.31h.2c-.1-.76-.12-1.12.68-1.12h3.87c.8 0 .96.36 1.26 1.12h.2l-.57-2.16h-6.22z" clip-path="url(#v)" style="fill:#048;stroke:none" transform="matrix(.427 0 0 -.427 37.428 48.324)"/><path d="M0 0c.26.69.38 1.34.38 1.97 0 .22-.02.39-.07.52q-.12.39-.48.39c-.42 0-.79-.47-1.1-1.4-.22-.72-.34-1.31-.34-1.79 0-.2.02-.37.07-.5.09-.26.25-.38.49-.38.4 0 .76.4 1.05 1.19m.72 2.45c.12-.26.17-.57.17-.92Q.89.375.29-.51c-.41-.57-.86-.86-1.36-.86-.29 0-.54.13-.75.38-.2.25-.3.6-.3 1.04q0 1.095.6 2.04c.41.65.86.97 1.37.97.4 0 .69-.2.87-.61" clip-path="url(#x)" style="fill:#048;stroke:none" transform="matrix(.427 0 0 -.427 41.095 47.432)"/><path d="m0 0 .96 3.47c.08.3.13.47.15.54.01.06.01.12.01.18 0 .12-.03.2-.09.27-.06.06-.18.1-.36.1-.05 0-.09-.01-.13-.01-.05-.01-.09-.02-.15-.02v.18c.25.04.42.07.52.08.1.03.21.05.33.07l1 .22a.12.12 0 0 0 .05-.05l-.75-2.41c.45.7.85 1.22 1.15 1.56.55.6 1.03.9 1.46.9.17 0 .31-.03.43-.09.23-.13.35-.35.35-.67 0-.09-.01-.18-.04-.28-.01-.1-.03-.2-.06-.32l-.74-2.69c-.02-.05-.03-.12-.05-.2a1 1 0 0 1-.03-.17c0-.07.01-.11.04-.15.02-.05.07-.07.12-.07.1 0 .2.05.32.17.13.11.33.36.6.73l.17-.15Q4.81.575 4.54.32c-.3-.3-.59-.44-.86-.44a.6.6 0 0 0-.36.12c-.13.09-.18.24-.18.46 0 .06 0 .13.01.2s.03.13.04.19l.72 2.73c.04.15.06.27.07.37.01.09.02.16.02.2 0 .09-.02.17-.06.23-.05.07-.12.1-.23.1-.28 0-.64-.25-1.08-.76-.25-.3-.51-.67-.77-1.08-.19-.33-.35-.65-.47-.95C1.29 1.38 1.11.82.86 0Z" clip-path="url(#y)" style="fill:#048;stroke:none" transform="matrix(.427 0 0 -.427 16.093 33.134)"/><path d="M0 0c-.11.27-.32.41-.62.41q-.39 0-.84-.39c-.31-.26-.56-.68-.77-1.28-.16-.47-.31-.96-.46-1.47-.14-.51-.2-.81-.2-.9 0-.14.05-.25.16-.32.12-.07.26-.1.42-.1.66 0 1.23.42 1.73 1.26.44.74.66 1.48.66 2.21C.08-.33.06-.14 0 0m-5.18-6.35q.345 0 .51.12c.11.09.2.24.25.44l1.55 5.48c.04.13.06.23.08.29 0 .06.01.11.01.14 0 .13-.05.22-.14.27-.09.07-.23.1-.4.1h-.11c-.03-.01-.06-.01-.11-.02l-.01.19 1.82.26c.02.01.04-.01.05-.04-.01-.07-.03-.12-.04-.16l-.31-1.03c.25.33.47.58.68.75.37.32.76.48 1.16.48C.22.92.54.79.77.54s.35-.63.35-1.13c0-.89-.37-1.73-1.11-2.53-.74-.79-1.5-1.17-2.29-1.17-.15 0-.29 0-.39.04-.11.03-.24.08-.4.16l-.09-.35c-.1-.38-.17-.65-.2-.82-.1-.43-.15-.68-.15-.73 0-.16.05-.25.15-.29.09-.05.29-.07.57-.09v-.17h-2.39z" clip-path="url(#z)" style="fill:#048;stroke:none" transform="matrix(.427 0 0 -.427 47.754 31.554)"/><path d="M0 0h-3.28l.49 1.79h.16c-.01-.53.08-.67.55-.67h1.76l.06.31c-.79.26-1.26.55-1.53 1.22-.48 1.14 0 2.44.7 3.27.65.81 1.24 1.06 1.58 1.23.6.31 1.38.5 2.17.5s1.48-.19 1.91-.5c.25-.17.71-.42.92-1.23.26-.83.04-2.13-1.04-3.27-.63-.67-1.26-.96-2.18-1.22l-.1-.31h1.75c.47 0 .64.14.92.67H5L4.52 0H1.25l.62 1.69c.4.15.95.27 1.65 1.27.6.83 1.23 2.76.51 3.75-.34.46-.89.58-1.46.58S1.38 7.17.79 6.71C-.45 5.72-.84 3.79-.69 2.96c.16-1 .65-1.12.96-1.27z" clip-path="url(#A)" style="fill:#048;stroke:none" transform="matrix(.427 0 0 -.427 21.397 12.647)"/><path d="M0 0v-1.96h1.98v-.46H0v-2.02h-.46v2.02h-1.97v.46h1.97V0Z" clip-path="url(#B)" style="fill:#048;stroke:none" transform="matrix(.427 0 0 -.427 24.862 8.58)"/><path d="M0 0c.15-.15.22-.29.22-.43 0-.13-.04-.23-.11-.3a.46.46 0 0 0-.27-.11c-.1 0-.19.05-.26.1-.06.06-.1.15-.1.23 0 .07.03.15.07.23.04.09.07.13.07.16q0 .075-.09.12c-.05.04-.14.05-.26.05-.44 0-.82-.24-1.14-.74s-.48-1.02-.48-1.57c0-.31.06-.55.19-.72s.33-.26.59-.26c.21 0 .41.06.61.18.19.12.38.27.54.47l.03.02.12-.08c-.19-.24-.38-.43-.55-.56-.31-.23-.66-.34-1.04-.34-.36 0-.66.12-.88.36-.23.22-.34.54-.34.94 0 .61.25 1.18.75 1.7.5.51 1.04.77 1.61.77C-.39.22-.15.15 0 0" clip-path="url(#C)" style="fill:#048;stroke:none" transform="matrix(.427 0 0 -.427 24.81 12.162)"/><path d="M0 0c.15-.15.22-.29.22-.43 0-.13-.04-.23-.11-.3a.46.46 0 0 0-.27-.11c-.1 0-.19.05-.26.1-.06.06-.1.15-.1.23 0 .07.03.15.07.23.06.09.07.13.07.16q0 .075-.09.12c-.05.04-.14.05-.26.05-.44 0-.82-.24-1.14-.74s-.48-1.02-.48-1.57c0-.31.06-.55.19-.72s.33-.26.59-.26c.21 0 .41.06.61.18.19.12.38.27.54.47l.03.02.12-.08c-.19-.24-.38-.43-.55-.56-.31-.23-.66-.34-1.04-.34-.36 0-.66.12-.88.36-.23.22-.34.54-.34.94 0 .61.25 1.18.75 1.7.5.51 1.04.77 1.61.77C-.39.22-.15.15 0 0" clip-path="url(#D)" style="fill:#048;stroke:none" transform="matrix(.427 0 0 -.427 26.388 12.162)"/><path d="M0 0h.19c-.1-.53.03-.62.42-.62h2.28c.39 0 .57.09.75.62h.2l-.62-2.29h-.2c.11.52-.03.61-.41.61H.33c-.39 0-.57-.09-.74-.61h-.2zm-.29 2.39h5.71L4.97.72h-.18c.03.2.18.67-.56.67H.35c-.73 0-.84-.47-.92-.67h-.18zm-1.68-5.31h.2c-.1-.76-.12-1.13.68-1.13h3.87c.8 0 .96.37 1.26 1.13h.2l-.57-2.16h-6.21z" clip-path="url(#E)" style="fill:#048;stroke:none" transform="matrix(.427 0 0 -.427 44.74 3.32)"/><path d="M0 0v-1.96h1.98v-.46H0v-2.02h-.46v2.02h-1.98v.46h1.98V0Z" clip-path="url(#F)" style="fill:#048;stroke:none" transform="matrix(.427 0 0 -.427 48.391 1.418)"/><path d="M0 0v-1.96h1.98v-.46H0v-2.02h-.46v2.02h-1.98v.46h1.98V0Z" clip-path="url(#G)" style="fill:#048;stroke:none" transform="matrix(.427 0 0 -.427 50.344 1.418)"/><path d="M0 0c.15-.15.22-.29.22-.43 0-.13-.04-.23-.11-.3a.45.45 0 0 0-.27-.1c-.1 0-.19.04-.26.09-.06.06-.1.15-.1.23 0 .07.03.15.07.23.04.09.07.13.07.16q0 .075-.09.12c-.05.04-.14.05-.26.05-.44 0-.82-.24-1.14-.74s-.48-1.02-.48-1.57c0-.31.06-.55.19-.72s.33-.26.59-.26c.21 0 .41.06.61.18.19.12.38.28.54.47l.03.03.12-.09c-.19-.24-.38-.43-.55-.56-.31-.23-.66-.34-1.04-.34-.36 0-.66.12-.88.36-.23.22-.34.54-.34.94 0 .61.25 1.18.75 1.7s1.04.77 1.61.77C-.39.22-.15.15 0 0" clip-path="url(#I)" style="fill:#048;stroke:none" transform="matrix(.427 0 0 -.427 48.241 5.001)"/><path d="M0 0c.15-.15.22-.29.22-.43 0-.13-.04-.23-.13-.3a.36.36 0 0 0-.25-.1c-.1 0-.19.04-.26.09-.06.06-.1.15-.1.23 0 .07.03.15.07.23.04.09.07.13.07.16q0 .075-.09.12c-.05.04-.14.05-.26.05-.44 0-.82-.24-1.14-.74s-.48-1.02-.48-1.57c0-.31.06-.55.19-.72s.33-.26.59-.26c.21 0 .41.06.61.18.19.12.37.28.54.47l.03.03.12-.09c-.19-.24-.38-.43-.55-.56-.32-.23-.66-.34-1.04-.34-.37 0-.66.12-.88.36-.23.22-.34.54-.34.94 0 .61.25 1.18.75 1.7s1.04.77 1.61.77C-.39.22-.15.15 0 0" clip-path="url(#J)" style="fill:#048;stroke:none" transform="matrix(.427 0 0 -.427 49.82 5.001)"/><path d="M0 0h.19c-.1-.53.03-.62.42-.62h2.28c.39 0 .57.09.74.62h.2l-.61-2.29h-.2c.11.52-.03.61-.41.61H.33c-.39 0-.57-.09-.75-.61h-.19Zm-.29 2.39h5.71L4.97.72h-.18c.02.2.17.67-.56.67H.35c-.73 0-.84-.47-.92-.67h-.18zm-1.68-5.31h.2c-.1-.76-.12-1.13.68-1.13h3.87c.8 0 .96.37 1.26 1.13h.2l-.57-2.16h-6.22z" clip-path="url(#K)" style="fill:#048;stroke:none" transform="matrix(.427 0 0 -.427 11.707 2.431)"/><path d="M0 0v-1.96h1.98v-.46H0v-2.02h-.46v2.02h-1.97v.46h1.97V0Z" clip-path="url(#L)" style="fill:#048;stroke:none" transform="matrix(.427 0 0 -.427 15.654 .529)"/><path d="M0 0c.15-.15.22-.29.22-.43 0-.13-.04-.23-.11-.3a.46.46 0 0 0-.27-.11c-.1 0-.19.05-.26.1-.06.06-.1.15-.1.23 0 .07.03.15.07.23.06.09.07.13.07.16q0 .075-.09.12c-.05.04-.14.05-.26.05-.44 0-.82-.24-1.14-.74s-.48-1.02-.48-1.57c0-.31.06-.55.19-.72s.33-.26.59-.26c.21 0 .41.06.61.18.19.12.38.27.54.47l.03.02.12-.08c-.19-.24-.38-.43-.55-.56-.31-.23-.66-.34-1.04-.34-.36 0-.66.12-.88.36-.23.22-.34.54-.34.94 0 .61.25 1.18.75 1.7.5.51 1.04.77 1.61.77C-.39.22-.15.15 0 0" clip-path="url(#M)" style="fill:#048;stroke:none" transform="matrix(.427 0 0 -.427 15.207 4.112)"/><path d="M0 0c.15-.15.22-.29.22-.43 0-.13-.04-.23-.13-.3a.36.36 0 0 0-.25-.11c-.1 0-.19.05-.26.1-.06.06-.1.15-.1.23 0 .07.03.15.07.23.04.09.07.13.07.16q0 .075-.09.12c-.05.04-.14.05-.26.05-.44 0-.82-.24-1.14-.74s-.48-1.02-.48-1.57c0-.31.06-.55.19-.72s.33-.26.59-.26c.21 0 .41.06.61.18.19.12.37.27.54.47l.03.02.12-.08c-.19-.24-.38-.43-.55-.56-.31-.23-.66-.34-1.04-.34-.36 0-.66.12-.88.36-.23.22-.34.54-.34.94 0 .61.25 1.18.75 1.7.5.51 1.04.77 1.61.77C-.39.22-.15.15 0 0" clip-path="url(#N)" style="fill:#048;stroke:none" transform="matrix(.427 0 0 -.427 16.785 4.112)"/><path d="M0 0h5.76l-.34-1.68h-.21c0 .42.01 1.17-1.09 1.17H1.68l1.46-2.87-3.43-3.05h3.25c.71 0 1.17.15 1.79 1.24h.22L3.95-7.48h-6.08l4.09 3.63z" clip-path="url(#O)" style="fill:#048;stroke:none" transform="matrix(.427 0 0 -.427 3.432 15.699)"/><path d="M0 0c.26.69.38 1.34.38 1.97 0 .22-.02.39-.07.52-.08.26-.24.39-.47.39-.43 0-.8-.47-1.11-1.4-.22-.72-.34-1.31-.34-1.79 0-.2.03-.37.07-.5.09-.26.25-.38.49-.38.4 0 .76.4 1.05 1.19m.72 2.45c.12-.26.17-.57.17-.92Q.89.375.29-.51c-.41-.57-.86-.86-1.36-.86-.3 0-.54.13-.75.38-.2.25-.3.6-.3 1.03 0 .74.2 1.42.6 2.05.41.65.86.97 1.37.97.4 0 .69-.2.87-.61" clip-path="url(#P)" style="fill:#048;stroke:none" transform="matrix(.427 0 0 -.427 7.047 16.149)"/><path d="M0 0c.15-.15.22-.29.22-.43 0-.13-.04-.23-.11-.3a.46.46 0 0 0-.27-.11c-.1 0-.19.03-.26.1-.06.06-.1.15-.1.23 0 .07.03.15.07.23.04.09.07.13.07.16q0 .075-.09.12c-.05.04-.14.05-.26.05-.44 0-.82-.24-1.14-.74s-.48-1.02-.48-1.57c0-.31.06-.55.19-.72s.33-.26.59-.26c.21 0 .41.06.61.18.19.12.38.28.54.47l.03.03.12-.09c-.19-.24-.38-.43-.55-.56-.31-.23-.66-.34-1.04-.34-.36 0-.66.12-.88.36-.23.22-.34.54-.34.94 0 .61.25 1.18.75 1.7.5.51 1.04.77 1.61.77C-.39.22-.15.15 0 0" clip-path="url(#Q)" style="fill:#048;stroke:none" transform="matrix(.427 0 0 -.427 7.077 18.404)"/><path d="M0 0h.19c-.1-.53.03-.62.42-.62h2.28c.39 0 .57.09.75.62h.2l-.62-2.29h-.2c.11.52-.03.61-.41.61H.33c-.39 0-.57-.09-.75-.61h-.2zm-.29 2.39h5.71L4.97.72h-.18c.03.2.17.67-.56.67H.35c-.73 0-.84-.47-.92-.67h-.18zm-1.68-5.31h.2c-.1-.76-.12-1.12.68-1.12h3.87c.8 0 .96.36 1.26 1.12h.2l-.57-2.16h-6.21z" clip-path="url(#R)" style="fill:#048;stroke:none" transform="matrix(.427 0 0 -.427 14.05 47.394)"/><path d="M0 0h4.37v-.46H0Z" clip-path="url(#S)" style="fill:#048;stroke:none" transform="matrix(.427 0 0 -.427 16.864 46.363)"/><path d="M0 0h5.76l-.34-1.68h-.21c0 .42.01 1.17-1.09 1.17H1.68l1.46-2.87-3.43-3.05h3.25c.71 0 1.17.15 1.79 1.24h.22L3.95-7.48h-6.08l4.09 3.63z" clip-path="url(#T)" style="fill:#048;stroke:none" transform="matrix(.427 0 0 -.427 1.438 36.232)"/><path d="M0 0h4.37v-.46H0Z" clip-path="url(#U)" style="fill:#048;stroke:none" transform="matrix(.427 0 0 -.427 4.297 36.224)"/><path d="M0 0h5.76l-.34-1.68h-.21c0 .42.01 1.17-1.09 1.17H1.68l1.46-2.87-3.43-3.05h3.25c.71 0 1.17.15 1.79 1.24h.22L3.95-7.48h-6.08l4.09 3.64z" clip-path="url(#V)" style="fill:#048;stroke:none" transform="matrix(.427 0 0 -.427 54.365 38.643)"/><path d="M0 0v-1.96h1.98v-.46H0v-2.02h-.46v2.02h-1.97v.46h1.97V0Z" clip-path="url(#W)" style="fill:#048;stroke:none" transform="matrix(.427 0 0 -.427 58.26 37.865)"/><path d="M0 0h5.76l-.34-1.68h-.21c0 .42.01 1.17-1.09 1.17H1.68l1.46-2.87-3.43-3.05h3.25c.71 0 1.17.15 1.79 1.24h.22L3.95-7.48h-6.08l4.09 3.64z" clip-path="url(#X)" style="fill:#048;stroke:none" transform="matrix(.427 0 0 -.427 35.11 13.62)"/><path d="M0 0v-1.96h1.98v-.46H0v-2.02h-.46v2.02h-1.98v.46h1.98V0Z" clip-path="url(#Y)" style="fill:#048;stroke:none" transform="matrix(.427 0 0 -.427 39.004 12.741)"/><path d="M0 0c.15-.15.22-.29.22-.43 0-.13-.04-.23-.11-.3a.45.45 0 0 0-.27-.1c-.1 0-.19.04-.26.09-.06.06-.1.15-.1.23 0 .07.03.15.07.23.06.09.07.13.07.16q0 .075-.09.12c-.05.04-.14.05-.26.05-.44 0-.82-.24-1.14-.74s-.48-1.02-.48-1.57c0-.31.06-.55.19-.72s.33-.26.59-.26c.21 0 .41.06.61.18.19.12.38.28.54.47l.03.03.12-.09c-.19-.24-.38-.43-.55-.56-.31-.23-.66-.34-1.04-.34-.36 0-.66.12-.88.36-.23.22-.34.54-.34.94 0 .61.25 1.18.75 1.7s1.04.77 1.61.77C-.39.22-.15.15 0 0" clip-path="url(#Z)" style="fill:#048;stroke:none" transform="matrix(.427 0 0 -.427 38.605 16.029)"/><path d="M0 0c.12-.79.69-.83.82-.83l-.05-.2h-3.03l.07.2c.22 0 1.06.04.94.9l-.62 4.41-2.8-4.39c-.59-.92-.04-.92.39-.92l-.05-.2h-2.39l.05.2c.2 0 1 .18 1.39.81l4.27 6.63z" clip-path="url(#aa)" style="fill:#048;stroke:none" transform="matrix(.427 0 0 -.427 30.751 16.27)"/><path d="M0 0v-1.96h1.98v-.46H0v-2.02h-.46v2.02h-1.97v.46h1.97V0Z" clip-path="url(#ab)" style="fill:#048;stroke:none" transform="matrix(.427 0 0 -.427 32.19 12.643)"/><path d="M0 0c.15-.15.22-.29.22-.43 0-.13-.04-.23-.13-.3a.36.36 0 0 0-.25-.11c-.1 0-.19.05-.26.1-.06.06-.1.15-.1.23 0 .07.03.15.07.23.04.09.07.13.07.16 0 .04-.03.09-.09.12-.05.04-.14.05-.26.05-.44 0-.82-.24-1.14-.74s-.48-1.02-.48-1.57c0-.31.06-.55.19-.72s.33-.26.59-.26c.21 0 .41.06.61.18.19.12.38.28.54.47l.03.02.12-.08c-.19-.24-.38-.43-.55-.56-.31-.23-.66-.34-1.04-.34-.37 0-.66.12-.88.36-.23.22-.34.54-.34.94 0 .61.25 1.18.75 1.7.5.51 1.04.77 1.61.77C-.39.22-.15.15 0 0" clip-path="url(#ac)" style="fill:#048;stroke:none" transform="matrix(.427 0 0 -.427 32.68 15.93)"/><path d="M0 0c.09.11.24.17.44.17S.79.09.92-.07c.12-.15.19-.34.19-.58 0-.38-.15-.72-.44-1.03s-.58-.55-.88-.71l-.17-.1-.11.2c.23.16.41.3.53.41.22.22.34.41.34.59 0 .04-.01.1-.03.14s-.06.08-.08.11l-.11.11c-.14.14-.22.24-.25.32-.04.07-.06.18-.06.32 0 .08.06.18.15.29" clip-path="url(#ad)" style="fill:#048;stroke:none" transform="matrix(.427 0 0 -.427 33.273 16.362)"/><path d="M0 0c1.15 0 2.09.94 2.09 2.09S1.15 4.18 0 4.18s-2.09-.94-2.09-2.09S-1.15 0 0 0" clip-path="url(#ae)" style="fill:#048;stroke:none" transform="matrix(.427 0 0 -.427 16.76 24.67)"/><path d="M0 0a2.09 2.09 0 1 1 .002 4.178A2.09 2.09 0 0 1 0 0" clip-path="url(#af)" style="fill:#048;stroke:none" transform="matrix(.427 0 0 -.427 18.354 25.731)"/><path d="M0 0c1.15 0 2.09.94 2.09 2.09S1.15 4.18 0 4.18s-2.09-.94-2.09-2.09S-1.15 0 0 0" clip-path="url(#ag)" style="fill:#048;stroke:none" transform="matrix(.427 0 0 -.427 8.566 18.623)"/><path d="M0 0c1.15 0 2.09.93 2.09 2.09 0 1.15-.94 2.08-2.09 2.08s-2.09-.93-2.09-2.08C-2.09.93-1.15 0 0 0" clip-path="url(#ah)" style="fill:#048;stroke:none" transform="matrix(.427 0 0 -.427 6.985 39.117)"/><path d="M0 0a2.09 2.09 0 1 1 .002 4.178A2.09 2.09 0 0 1 0 0" clip-path="url(#ai)" style="fill:#048;stroke:none" transform="matrix(.427 0 0 -.427 15.973 45.586)"/><path d="M0 0c1.15 0 2.09.94 2.09 2.09S1.15 4.18 0 4.18s-2.09-.94-2.09-2.09S-1.15 0 0 0" clip-path="url(#aj)" style="fill:#048;stroke:none" transform="matrix(.427 0 0 -.427 38.493 46.426)"/><path d="M0 0c1.15 0 2.09.94 2.09 2.09S1.15 4.18 0 4.18s-2.09-.94-2.09-2.09S-1.15 0 0 0" clip-path="url(#ak)" style="fill:#048;stroke:none" transform="matrix(.427 0 0 -.427 52.123 40.747)"/><path d="M0 0c1.15 0 2.09.94 2.09 2.09S1.15 4.17 0 4.17s-2.09-.93-2.09-2.08S-1.15 0 0 0" clip-path="url(#al)" style="fill:#048;stroke:none" transform="matrix(.427 0 0 -.427 43.284 34.327)"/><path d="M0 0c1.15 0 2.09.94 2.09 2.09S1.15 4.18 0 4.18s-2.09-.94-2.09-2.09S-1.15 0 0 0" clip-path="url(#am)" style="fill:#048;stroke:none" transform="matrix(.427 0 0 -.427 53.704 20.4)"/><path d="M0 0a2.09 2.09 0 1 1 .002 4.178A2.09 2.09 0 0 1 0 0" clip-path="url(#an)" style="fill:#048;stroke:none" transform="matrix(.427 0 0 -.427 40.87 25.731)"/><path d="M0 0c1.15 0 2.09.93 2.09 2.09 0 1.15-.94 2.08-2.09 2.08s-2.09-.93-2.09-2.08C-2.09.93-1.15 0 0 0" clip-path="url(#ao)" style="fill:#048;stroke:none" transform="matrix(.427 0 0 -.427 39.004 26.415)"/><path d="M0 0a2.09 2.09 0 1 1 .002 4.178A2.09 2.09 0 0 1 0 0" clip-path="url(#ap)" style="fill:#048;stroke:none" transform="matrix(.427 0 0 -.427 27.925 11.017)"/><path d="M0 0c1.15 0 2.09.94 2.09 2.09S1.15 4.17 0 4.17s-2.09-.93-2.09-2.08S-1.15 0 0 0" clip-path="url(#aq)" style="fill:#048;stroke:none" transform="matrix(.427 0 0 -.427 41.605 5.437)"/><path d="M0 0c-.02-.59.89-1.09 2.04-1.14s2.11.39 2.13.98m.001-.002c.05 1.15-.85 2.12-2 2.17-1.16.04-2.13-.86-2.17-2.01" clip-path="url(#ar)" style="fill:#048;stroke:none" transform="matrix(.427 0 0 -.427 29.253 18.581)"/><path d="M0 0c-.02-.59.89-1.09 2.05-1.14 1.14-.05 2.1.39 2.12.98m.003-.002c.04 1.15-.85 2.12-2.01 2.17-1.15.04-2.12-.86-2.16-2.01" clip-path="url(#as)" style="fill:#048;stroke:none" transform="matrix(.427 0 0 -.427 31.123 18.653)"/><path d="M0 0c1.15 0 2.09.94 2.09 2.09S1.15 4.18 0 4.18s-2.09-.94-2.09-2.09S-1.15 0 0 0" clip-path="url(#at)" style="fill:#048;stroke:none" transform="matrix(.427 0 0 -.427 18.987 4.572)"/><path d="M0 0c1.15 0 2.09.93 2.09 2.09 0 1.15-.94 2.08-2.09 2.08s-2.09-.93-2.09-2.08C-2.09.93-1.15 0 0 0" clip-path="url(#au)" style="fill:#048;stroke:none" transform="matrix(.427 0 0 -.427 26.394 31.561)"/><path d="M0 0c-.02-.59.89-1.09 2.04-1.14s2.11.39 2.13.98m.001-.001a2.09 2.09 0 0 1-2.01 2.17c-1.15.04-2.12-.86-2.16-2.01" clip-path="url(#av)" style="fill:#048;stroke:none" transform="matrix(.427 0 0 -.427 29.603 39.082)"/><path d="M0 0c-.02-.59.89-1.09 2.04-1.14s2.11.39 2.13.98m.001-.002c.05 1.15-.85 2.12-2 2.17-1.16.04-2.13-.86-2.17-2.01" clip-path="url(#aw)" style="fill:#048;stroke:none" transform="matrix(.427 0 0 -.427 27.8 39.007)"/><path d="M0 0c1.15 0 2.09.94 2.09 2.09S1.15 4.17 0 4.17s-2.09-.93-2.09-2.08S-1.15 0 0 0" clip-path="url(#ax)" style="fill:#048;stroke:none" transform="matrix(.427 0 0 -.427 20.493 33.462)"/><path d="M0 0h-3.28l.49 1.79h.16c-.01-.53.08-.67.55-.67h1.76l.06.31c-.79.26-1.26.55-1.53 1.21-.48 1.15 0 2.45.7 3.28.65.81 1.24 1.06 1.58 1.24.6.3 1.39.49 2.18.49.78 0 1.47-.19 1.9-.49.25-.18.71-.43.94-1.24.24-.83.03-2.13-1.06-3.28-.63-.66-1.26-.95-2.18-1.21l-.1-.31h1.75c.47 0 .64.14.92.67H5L4.52 0H1.25l.63 1.69c.39.15.94.27 1.64 1.27.6.83 1.23 2.76.51 3.75-.34.46-.89.58-1.46.58S1.38 7.17.79 6.71C-.45 5.72-.84 3.79-.69 2.96c.16-1 .65-1.12.96-1.27z" clip-path="url(#ay)" style="fill:#048;stroke:none" transform="matrix(.427 0 0 -.427 28.45 26.782)"/><path d="M0 0c.26.69.39 1.34.39 1.97 0 .22-.03.39-.08.52-.08.26-.24.38-.47.38-.43 0-.8-.46-1.1-1.39-.23-.72-.35-1.31-.35-1.79 0-.2.03-.37.07-.5.09-.26.25-.38.49-.38.4 0 .76.4 1.05 1.19m.72 2.45c.12-.26.17-.57.17-.92Q.89.375.29-.51c-.4-.57-.86-.86-1.36-.86-.29 0-.54.13-.74.38-.21.25-.31.6-.31 1.03 0 .74.2 1.42.6 2.05.41.65.86.97 1.37.97.4 0 .69-.2.87-.61" clip-path="url(#aC)" style="fill:#048;stroke:none" transform="matrix(.427 0 0 -.427 32.028 24.042)"/><path d="M0 0c.15-.15.22-.29.22-.43 0-.13-.04-.23-.11-.3a.46.46 0 0 0-.27-.11c-.1 0-.19.05-.26.1-.06.06-.1.15-.1.23 0 .07.03.15.07.23.04.09.07.13.07.16q0 .075-.09.12c-.05.04-.14.05-.26.05-.44 0-.82-.24-1.14-.74s-.48-1.02-.48-1.57c0-.31.06-.55.19-.72s.33-.26.59-.26c.21 0 .41.06.61.18.19.12.38.27.54.47l.03.02.12-.08c-.19-.24-.38-.43-.55-.56-.31-.23-.66-.34-1.04-.34-.36 0-.66.12-.88.36-.23.22-.34.54-.34.94 0 .61.25 1.18.75 1.7.5.51 1.04.77 1.61.77C-.39.22-.15.15 0 0" clip-path="url(#aD)" style="fill:#048;stroke:none" transform="matrix(.427 0 0 -.427 31.861 26.297)"/><g clip-path="url(#aE)" transform="translate(-36.018 -16.518)scale(.15875)"><path d="M0 0h.19c-.1-.53.03-.62.42-.62h2.28c.39 0 .57.09.75.62h.2l-.62-2.29h-.2c.11.52-.03.61-.41.61H.33c-.39 0-.57-.09-.74-.61h-.2zm-.29 2.39h5.71L4.97.72h-.18c.03.2.18.67-.56.67H.35c-.73 0-.84-.47-.92-.67h-.18zm-1.68-5.31h.2c-.1-.76-.12-1.12.68-1.12h3.87c.8 0 .96.36 1.27 1.12h.19l-.57-2.16h-6.21z" clip-path="url(#aF)" style="fill:#048;stroke:none" transform="matrix(2.68725 0 0 -2.68725 480.317 275.238)"/></g><path d="M0 0v.49h1.84v1.84h.49V.49h1.85V0H2.33v-1.84h-.49V0Z" clip-path="url(#aG)" style="fill:#048;stroke:none" transform="matrix(.427 0 0 -.427 43.216 26.384)"/><path d="M0 0c.15-.15.22-.29.22-.43 0-.13-.04-.23-.11-.3a.46.46 0 0 0-.27-.11c-.1 0-.19.05-.25.1-.07.06-.11.15-.11.23 0 .07.03.15.07.23.06.09.07.13.07.16q0 .075-.09.12c-.05.04-.14.05-.26.05-.44 0-.82-.24-1.14-.74s-.48-1.02-.48-1.57c0-.31.06-.55.19-.72s.33-.26.59-.26c.21 0 .41.06.61.18.19.12.38.27.54.47l.03.03.12-.1c-.19-.23-.38-.42-.55-.55-.31-.23-.66-.34-1.04-.34-.36 0-.66.12-.88.36-.23.22-.34.54-.34.94 0 .61.25 1.18.75 1.7.5.51 1.04.77 1.61.77C-.39.22-.15.15 0 0" clip-path="url(#aH)" style="fill:#048;stroke:none" transform="matrix(.427 0 0 -.427 43.93 28.857)"/><path d="M0 0h.19c-.1-.53.03-.62.42-.62h2.28c.39 0 .57.09.75.62h.2l-.62-2.29h-.2c.11.52-.03.61-.41.61H.33c-.39 0-.57-.09-.74-.61h-.2zm-.29 2.39h5.71L4.97.72h-.18c.03.2.18.67-.56.67H.35c-.73 0-.84-.47-.92-.67h-.18zm-1.68-5.31h.2c-.1-.76-.12-1.12.68-1.12h3.87c.8 0 .96.36 1.26 1.12h.2l-.57-2.16h-6.21z" clip-path="url(#aI)" style="fill:#048;stroke:none" transform="matrix(.427 0 0 -.427 46.93 27.165)"/><path d="M0 0c.15-.15.22-.29.22-.43 0-.13-.04-.23-.11-.3a.46.46 0 0 0-.27-.11c-.1 0-.19.05-.26.1-.06.06-.1.15-.1.23 0 .07.03.15.07.23.04.09.07.13.07.16q0 .075-.09.12c-.05.04-.14.05-.26.05-.44 0-.82-.24-1.14-.74s-.48-1.02-.48-1.57c0-.31.06-.55.19-.72s.33-.26.59-.26c.21 0 .41.06.61.18.19.12.38.27.54.47l.03.02.12-.08c-.19-.24-.38-.43-.55-.56-.31-.23-.66-.34-1.04-.34-.36 0-.66.12-.88.36-.23.22-.34.54-.34.94 0 .61.25 1.18.75 1.7.5.51 1.04.77 1.61.77C-.39.22-.15.15 0 0" clip-path="url(#aJ)" style="fill:#048;stroke:none" transform="matrix(.427 0 0 -.427 51.072 28.846)"/><path d="M0 0q-.03-.255-.27-.84l-1.27-3.08c-.14-.34-.24-.51-.3-.5-.03 0-.05.04-.04.13.01.03.03.17.09.41l.74 3.36c.09.4.18.66.26.8q.195.3.45.27C-.08.52.04.34 0 0" clip-path="url(#aK)" style="fill:#048;stroke:none" transform="matrix(.427 0 0 -.427 50.485 25.208)"/><path d="M0 0v.49h1.84v1.84h.49V.49h1.85V0H2.33v-1.84h-.49V0Z" clip-path="url(#aL)" style="fill:#048;stroke:none" transform="matrix(.427 0 0 -.427 50.641 26.41)"/><path d="M0 0c.09.11.24.17.44.17S.79.09.92-.07c.12-.15.19-.34.19-.58 0-.38-.15-.72-.44-1.03s-.58-.55-.88-.71l-.17-.1-.11.2c.23.16.41.3.53.41.22.22.34.41.34.59 0 .04-.01.1-.03.14s-.06.08-.08.11l-.11.11c-.14.14-.22.24-.25.32-.04.07-.06.18-.06.32 0 .08.06.18.15.29" clip-path="url(#aM)" style="fill:#048;stroke:none" transform="matrix(.427 0 0 -.427 44.796 29.413)"/><path d="M0 0h.19c-.1-.53.03-.62.42-.62h2.28c.39 0 .57.09.75.62h.2l-.62-2.29h-.2c.11.52-.03.61-.41.61H.33c-.39 0-.57-.09-.74-.61h-.2zm-.29 2.39h5.71L4.97.72h-.18c.03.2.18.67-.56.67H.35c-.73 0-.84-.47-.92-.67h-.18zm-1.68-5.31h.2c-.1-.76-.12-1.12.68-1.12h3.87c.8 0 .96.36 1.26 1.12h.2l-.57-2.16h-6.21z" clip-path="url(#aN)" style="fill:#048;stroke:none" transform="matrix(.427 0 0 -.427 4.108 26.425)"/><path d="M0 0c.15-.15.22-.29.22-.43 0-.13-.04-.23-.11-.3a.45.45 0 0 0-.27-.1c-.1 0-.19.04-.26.09-.06.06-.1.15-.1.23 0 .07.03.15.07.23.04.09.07.13.07.16q0 .075-.09.12c-.05.04-.14.05-.26.05-.44 0-.82-.24-1.14-.74s-.48-1.02-.48-1.57c0-.31.06-.55.19-.72s.33-.26.59-.26c.21 0 .41.06.61.18.19.12.38.28.54.47l.03.03.12-.09c-.19-.24-.38-.43-.55-.56-.31-.23-.66-.34-1.04-.34-.36 0-.66.12-.88.36-.23.22-.34.54-.34.94 0 .61.25 1.18.75 1.7s1.04.77 1.61.77C-.39.22-.15.15 0 0" clip-path="url(#aO)" style="fill:#048;stroke:none" transform="matrix(.427 0 0 -.427 7.806 28.106)"/><path d="M0 0c.26.69.38 1.34.38 1.97 0 .21-.02.39-.07.52-.08.26-.24.38-.48.38-.42 0-.8-.46-1.1-1.39-.22-.72-.34-1.31-.34-1.79 0-.2.02-.37.07-.5.09-.26.25-.38.49-.38.4 0 .76.4 1.05 1.19m.72 2.45c.12-.26.17-.57.17-.92Q.89.375.29-.51c-.41-.57-.86-.86-1.36-.86-.3 0-.54.13-.75.38-.2.25-.3.6-.3 1.03 0 .74.2 1.42.6 2.05.41.65.86.97 1.36.97.41 0 .7-.2.88-.61" clip-path="url(#aP)" style="fill:#048;stroke:none" transform="matrix(.427 0 0 -.427 7.775 25.85)"/><path d="M0 0c.09.11.24.17.44.17S.79.09.92-.06c.12-.16.19-.35.19-.59 0-.38-.15-.72-.44-1.03s-.58-.55-.88-.71l-.17-.1-.11.2c.23.16.41.3.53.41.22.22.34.41.34.59 0 .04-.01.1-.03.14s-.06.08-.08.11l-.11.11c-.14.14-.22.24-.25.32-.04.07-.06.18-.06.32 0 .08.06.18.15.29" clip-path="url(#aQ)" style="fill:#048;stroke:none" transform="matrix(.427 0 0 -.427 8.759 28.686)"/><path d="M0 0h.19c-.1-.53.03-.62.42-.62h2.28c.39 0 .57.09.75.62h.2l-.62-2.29h-.2c.11.52-.03.61-.41.61H.33c-.39 0-.57-.09-.74-.61h-.2zm-.29 2.39h5.71L4.97.72h-.18c.03.2.18.67-.56.67H.35c-.73 0-.84-.47-.92-.67h-.18zm-1.68-5.31h.2c-.1-.76-.12-1.12.68-1.12h3.87c.8 0 .96.36 1.26 1.12h.2l-.57-2.16h-6.21z" clip-path="url(#aR)" style="fill:#048;stroke:none" transform="matrix(.427 0 0 -.427 10.864 26.42)"/><path d="M0 0c-.02-.17-.11-.45-.26-.84l-1.28-3.08c-.14-.34-.24-.51-.29-.5-.04 0-.06.04-.05.13.01.03.04.17.09.41l.75 3.36c.08.4.17.67.25.8q.195.3.45.27C-.08.52.04.34 0 0" clip-path="url(#aS)" style="fill:#048;stroke:none" transform="matrix(.427 0 0 -.427 14.42 24.464)"/><path d="M0 0c.15-.15.22-.29.22-.43 0-.13-.04-.23-.11-.3a.46.46 0 0 0-.27-.11c-.1 0-.19.05-.26.1-.06.06-.1.15-.1.23 0 .07.03.15.07.23.04.09.07.13.07.16q0 .075-.09.12c-.05.04-.14.05-.26.05-.44 0-.82-.24-1.14-.74s-.48-1.02-.48-1.57c0-.31.06-.55.19-.72s.33-.26.59-.26c.21 0 .41.06.61.18.19.12.38.27.54.47l.03.02.12-.08c-.19-.24-.38-.43-.55-.56-.31-.23-.66-.34-1.04-.34-.36 0-.66.12-.88.36-.23.22-.34.54-.34.94 0 .61.25 1.18.75 1.7.5.51 1.04.77 1.61.77C-.39.22-.15.15 0 0" clip-path="url(#aT)" style="fill:#048;stroke:none" transform="matrix(.427 0 0 -.427 15.157 28.101)"/><path d="M0 0c.26.69.38 1.34.38 1.97 0 .22-.02.39-.07.52-.08.26-.24.38-.48.38-.42 0-.8-.46-1.1-1.39-.22-.72-.34-1.31-.34-1.79 0-.2.02-.37.07-.5.09-.26.25-.38.49-.38.4 0 .76.4 1.05 1.19m.72 2.45c.12-.26.17-.57.17-.92Q.89.375.29-.51c-.41-.57-.86-.86-1.36-.86-.3 0-.54.13-.75.38-.2.25-.3.6-.3 1.03 0 .74.2 1.42.6 2.05.41.65.86.97 1.36.97.41 0 .7-.2.88-.61" clip-path="url(#aU)" style="fill:#048;stroke:none" transform="matrix(.427 0 0 -.427 15.575 25.847)"/><path d="M0 0c.12-.79.69-.83.82-.83l-.05-.2h-3.02l.06.2c.22 0 1.06.04.94.9l-.62 4.41-2.8-4.39c-.59-.92-.04-.92.39-.92l-.05-.2h-2.39l.05.2c.2 0 1 .18 1.39.81l4.27 6.63z" clip-path="url(#aV)" style="fill:#048;stroke:none" transform="matrix(.427 0 0 -.427 33.43 40.556)"/><path d="M0 0h5.76l-.34-1.68h-.21c0 .42.01 1.17-1.09 1.17H1.68l1.46-2.87-3.43-3.05h3.25c.71 0 1.17.15 1.79 1.24h.22L3.95-7.48h-6.08l4.09 3.63z" clip-path="url(#aW)" style="fill:#048;stroke:none" transform="matrix(.427 0 0 -.427 36.306 37.856)"/><path d="M0 0c0-1.09.34-1.72.86-1.72.57 0 .85.68.85 1.76 0 1.04-.26 1.72-.85 1.72C.36 1.76 0 1.15 0 0m2.29.07c0-1.44-.54-2.23-1.47-2.23-.82 0-1.38.77-1.4 2.17 0 1.42.62 2.18 1.47 2.18.89 0 1.4-.78 1.4-2.12" clip-path="url(#aX)" style="fill:#048;stroke:none" transform="matrix(.427 0 0 -.427 39.275 37.983)"/><path d="M0 0c.09.11.24.17.44.17S.79.09.92-.07c.12-.15.19-.34.19-.58 0-.38-.15-.72-.44-1.03s-.58-.55-.88-.71l-.17-.1-.11.2c.23.16.41.3.53.41.22.22.34.41.34.59 0 .04-.01.1-.03.14s-.06.08-.08.11l-.11.11c-.14.14-.22.24-.25.32-.04.07-.06.18-.06.32 0 .08.06.18.15.29" clip-path="url(#aM)" style="fill:#048;stroke:none" transform="matrix(.427 0 0 -.427 34.354 40.57)"/></g></svg>