<svg xmlns="http://www.w3.org/2000/svg" xmlns:cc="http://creativecommons.org/ns#" xmlns:dc="http://purl.org/dc/elements/1.1/" xmlns:inkscape="http://www.inkscape.org/namespaces/inkscape" xmlns:rdf="http://www.w3.org/1999/02/22-rdf-syntax-ns#" xmlns:sodipodi="http://sodipodi.sourceforge.net/DTD/sodipodi-0.dtd" xmlns:xlink="http://www.w3.org/1999/xlink" inkscape:version="1.4.2 (ebf0e94, 2025-05-08)" sodipodi:docname="rutherford-scattering.svg" width="365.587" height="142.82" viewBox="0 0 96.728 37.788"><sodipodi:namedview inkscape:current-layer="svg17" inkscape:cx="155.502" inkscape:cy="77.226" inkscape:deskcolor="#d1d1d1" inkscape:pagecheckerboard="0" inkscape:pageopacity="0" inkscape:showpageshadow="2" inkscape:window-height="1369" inkscape:window-maximized="1" inkscape:window-width="2560" inkscape:window-x="-8" inkscape:window-y="-8" inkscape:zoom="3.334" bordercolor="#000000" borderopacity=".25" pagecolor="#ffffff"/><defs><path id="f" d="M34 156q0 114 86 200t189 86q70 0 112-40t57-98q6-29 7-67v-29q49 74 75 166 4 14 6 16t16 3q21 0 21-8 0-9-9-39t-36-85-61-100l-11-14 1-24q2-56 8-76t19-21q14 2 26 11t17 23q2 7 5 8t15 2q20 0 20-8 0-6-6-19-12-24-35-38t-44-15h-7q-67 0-91 72l-3 7-11-8q-10-8-30-20t-45-23-58-20-64-9q-79 0-124 50T34 156M208 26q49 0 98 21t73 43l24 22q-2 143-7 178-14 115-92 115-69 0-121-73-27-40-44-108t-18-104q0-49 25-71t62-23"/><path id="b" d="M255 0q-15 3-115 3Q48 3 39 0h-7v46h15q72 3 92 42 1 3 53 157t103 308 53 155q3 8 18 8h10q20-1 24-7 2-2 108-319L617 67q7-13 19-16t51-5h30V0h-9q-9 3-127 3-123 0-144-3h-10v46h13q70 0 70 18 0 2-24 74l-24 71H229l-20-59q-20-59-20-65 0-13 20-26t50-13h5V0zm192 255L345 557 244 256q0-1 101-1z"/><path id="c" d="M383 58q-56-68-127-68h-7q-125 0-144 99-1 7-2 137-1 109-1 122t-6 21q-10 16-60 16H25v23q0 23 2 23l11 1q10 1 29 2t38 2q17 1 37 2t30 3 12 1h3V261q1-184 3-197 3-15 14-24 20-14 60-14 26 0 47 9t32 23 20 32 12 30 4 24v17q0 16 1 40t0 47v67q0 46-10 57t-50 13h-18v46q2 0 76 5t79 6h7V264q0-180 1-183 3-20 14-26t45-9h18V0q-2 0-75-5t-77-6h-7z"/><marker id="e" markerHeight="1" markerWidth="1" orient="auto-start-reverse" overflow="visible" preserveAspectRatio="xMidYMid" refX="5.5" viewBox="0 0 1 1"><path fill="context-stroke" fill-rule="evenodd" d="m0 0-2.5 2.5L6.25 0-2.5-2.5z"/></marker><marker id="a" markerHeight=".4" markerUnits="userSpaceOnUse" markerWidth=".4" orient="auto" overflow="visible" preserveAspectRatio="xMidYMid" viewBox="0 0 1 1"><path fill="context-stroke" fill-rule="evenodd" d="M2.5 0a2.5 2.5 0 0 1-5 0c0-1.38 1.15-2.5 2.5-2.5A2.5 2.5 0 0 1 2.5 0"/></marker><radialGradient id="d" cx="32.18" cy="80.476" r="5.92" gradientTransform="translate(10.66 15.896)" gradientUnits="userSpaceOnUse"><stop offset="0" stop-color="#17365c"/><stop offset=".22" stop-color="#17365c"/><stop offset="1" stop-color="#17365c" stop-opacity="0"/></radialGradient></defs><g transform="matrix(.7 0 0 .7 -25.844 -38.465)"><g stroke-linecap="round" stroke-linejoin="round" stroke-miterlimit="6"><path fill="#b3b3b3" fill-opacity=".502" stroke="#000" stroke-width=".5" d="M174.85 72.117c.18-5.349-8.652-9.094-14.18-10.91-19.167-6.297-52.131-7.849-77.84-3.665-10.445 1.7-18.406 4.205-23.52 6.956-6.742 3.627-6.361 7.348-6.361 7.348 0 2.459 1.317 4.176 4.216 6.205v7.76c4.811-3.37 13.605-6.323 25.664-8.286 31.804-5.175 65.218-1.031 79.972 4.406 7.88-2.904 11.915-6.355 12.049-9.814" style="paint-order:normal"/><path fill="none" stroke="gray" stroke-width=".2" d="M81.932 96.18c41.137 6.96 92.919-1.445 92.92-14.16.178-5.26-8.654-9.005-14.183-10.822-28.233-9.275-81.35-7.474-101.36 3.292-6.74 3.626-6.36 7.347-6.36 7.347 0 2.46 1.317 4.176 4.216 6.206" style="paint-order:normal"/><g fill="red" stroke="#17365c" stroke-width=".5" marker-end="url(#a)"><path d="m109.614 80.585-16.315-14.37" style="paint-order:normal"/><path d="m109.614 80.585 50.788 12.146" style="paint-order:normal"/><path d="m109.614 80.585 44.528-11.234" style="paint-order:normal"/><path d="m109.614 80.585 52.748-8.804" style="paint-order:normal"/><path d="m109.614 80.585 30.769-13.75" style="paint-order:normal"/><path d="m109.614 80.585 38.773-12.473" style="paint-order:normal"/></g></g><rect width="18.201" height="19.045" x="109.572" y="25.587" fill="#fc0" fill-opacity=".9" rx="0" ry="0" style="paint-order:normal" transform="scale(.92366 1)skewY(20.967)"/><g stroke="#000" stroke-width="0" data-mml-node="mtext" transform="matrix(.00444 .00205 0 -.00543 102.047 73.267)"><use xlink:href="#b" data-c="41"/><use xlink:href="#c" data-c="75" transform="translate(750)"/></g><path fill="red" stroke="#17365c" stroke-linecap="round" stroke-linejoin="round" stroke-miterlimit="6" stroke-width=".5" marker-end="url(#a)" d="m109.614 80.585-6.11 17.62" style="paint-order:normal"/><path fill="#b3b3b3" fill-opacity=".5" stroke="#000" stroke-linecap="round" stroke-linejoin="round" stroke-miterlimit="6" stroke-width=".5" d="M57.165 98.034c-2.979-2.085-4.151-3.987-4.21-6.111l-.006-20.077c-.045 2.073 1.317 4.176 4.216 6.205z" style="paint-order:normal"/><g stroke-width=".9"><circle cx="42.839" cy="96.373" r="5.92" fill="url(#d)" fill-opacity=".9" opacity=".9" style="paint-order:normal"/><path fill="none" stroke="#17365c" stroke-linejoin="round" stroke-miterlimit="6" marker-end="url(#e)" d="m42.84 96.373 66.774-15.788" style="paint-order:normal"/><use xlink:href="#f" fill="#17365c" data-c="1D6FC" transform="matrix(.00718 0 0 -.00718 66.647 95.442)"/></g><path fill="#b3b3b3" fill-opacity=".5" stroke="#000" stroke-linecap="round" stroke-linejoin="round" stroke-miterlimit="6" stroke-width=".5" d="M174.853 91.923c-.001 12.803-51.783 21.208-92.921 14.248V86.188c41.137 6.96 92.919-1.445 92.92-14.249-.007 6.661 0 13.323 0 19.984" style="paint-order:normal"/><path fill="#17365c" fill-opacity=".4" d="M150.358 94.095c6.148-1.328 10.482-4.292 14.666-5.25 3.753-.858 9.827-4.3 9.827-6.825.046-1.36-.51-2.617-1.454-3.767-1.171-1.426-4.026-5.32-5.989-6.4-1.766-.97-2.79-1.868-4.894-3.706-1.795-1.568-6.52-3.23-7.105-3.735-5.913-5.094-5.221-1.38-10.977-2.317-2.416-.393-8.041 2.294-10.586 2.003-4.696-.538-6.137 1.318-11.22.825-3.348-.324-11.934-.413-15.205-.708-3.323-.3-7.014-1.028-10.291-.864-6.271.314-5.46.7-11.164 1.966-1.45.322-7.98 2.288-9.405 2.618-8.99 2.085-12 3.729-17.252 6.555-6.74 3.626-6.36 7.347-6.36 7.347 0 2.46 1.317 4.176 4.216 6.206-2.9-2.03-4.216-3.747-4.216-6.206 0 0-.38-3.72 6.36-7.347 20.01-10.766 73.127-12.567 101.36-3.292 5.529 1.817 14.361 5.562 14.182 10.822 0 12.715-51.782 21.12-92.92 14.16 10.08 1.705 16.839.531 26.74.385 3.936-.058 5.076 1.237 9.234 1.16 5.677-.104 12.204.027 18.23-.698 5.498-.66 10.58-2.145 14.223-2.932" style="paint-order:normal"/></g><metadata><rdf:RDF><cc:Work><dc:creator><cc:Agent><dc:title>Remco de Boer</dc:title></cc:Agent></dc:creator><cc:license rdf:resource="http://creativecommons.org/licenses/by/4.0/"/></cc:Work><cc:License rdf:about="http://creativecommons.org/licenses/by/4.0/"><cc:permits rdf:resource="http://creativecommons.org/ns#Reproduction"/><cc:permits rdf:resource="http://creativecommons.org/ns#Distribution"/><cc:requires rdf:resource="http://creativecommons.org/ns#Notice"/><cc:requires rdf:resource="http://creativecommons.org/ns#Attribution"/><cc:permits rdf:resource="http://creativecommons.org/ns#DerivativeWorks"/></cc:License></rdf:RDF></metadata></svg>