<svg xmlns="http://www.w3.org/2000/svg" xmlns:cc="http://creativecommons.org/ns#" xmlns:dc="http://purl.org/dc/elements/1.1/" xmlns:inkscape="http://www.inkscape.org/namespaces/inkscape" xmlns:rdf="http://www.w3.org/1999/02/22-rdf-syntax-ns#" xmlns:sodipodi="http://sodipodi.sourceforge.net/DTD/sodipodi-0.dtd" xmlns:xlink="http://www.w3.org/1999/xlink" inkscape:version="1.4.2 (ebf0e94, 2025-05-08)" sodipodi:docname="amplitude-subsystem3.svg" xml:space="preserve" width="265.935" height="142.969" viewBox="0 0 70.362 37.827"><sodipodi:namedview inkscape:current-layer="svg36" inkscape:cx="132.962" inkscape:cy="71.484" inkscape:deskcolor="#d1d1d1" inkscape:pagecheckerboard="0" inkscape:pageopacity="0" inkscape:showpageshadow="2" inkscape:window-height="1369" inkscape:window-maximized="1" inkscape:window-width="2560" inkscape:window-x="-8" inkscape:window-y="-8" inkscape:zoom="8.344" bordercolor="#000000" borderopacity=".25" pagecolor="#ffffff"/><defs><path id="e" d="M447 625q0 12-93 12h-25q-6 5-6 8t2 19q4 13 10 19h17q41-2 146-2h70q27 0 37 1t14 0q14 0 14-10 0-2-3-14-4-16-7-18t-19-3q-52 0-59-14-4-13-62-247-63-248-64-249-22-63-86-106T195-22q-58 0-98 30T57 88q0 42 23 64t52 22q45 0 50-44 0-32-18-50t-41-24q-8-2-8-3t7-9q26-29 75-29 38 0 74 32t53 83q4 12 63 250t60 245"/><path id="f" d="M423 750q9 0 15-6t6-14q0-5-173-482T92-240q-7-10-17-10-7 0-13 5t-6 14q0 10 174 488t177 483q4 10 16 10"/><path id="g" d="M161 441q41 0 65-24t24-59q0-20-32-106t-31-125q3-42 27-66 21-18 43-24 18-8 31-8h1l82 331q84 331 85 332 3 2 16 2 20 0 20-7 0-9-81-331-82-328-82-329t6-1q86 0 163 88t78 164q0 24-8 41t-18 24-18 18-8 23q0 21 17 40t42 19q19 0 35-18t16-59q0-29-11-78t-18-68q-32-95-113-163T329-11h-10l-23-93q-24-94-24-95-2-6-20-6h-13q-6 6-6 8 0 5 23 95t23 93q-7 1-14 1-159 22-159 147 0 35 33 125t34 115v14q0 3-4 7t-11 4h-4q-23 0-42-19t-30-41-17-42-8-22-16-2H27q-6 6-6 9 0 12 13 46t48 71 79 37"/><path id="h" d="M285 628q0 7-57 9-23 0-30 1t-7 9q0 2 2 14 6 20 10 21 2 1 11 1h5q41-2 136-2h63q29 0 45 1t20 0q17 0 17-8 0-5-3-14-1-2-1-6t-1-6l-2-4q-1-2-3-3l-4-2q-2-1-7-1t-9-1-14 0q-40-1-51-3t-18-11l-81-318q1 0 184 144t188 148q14 14 14 23 0 15-25 17-16 0-16 11 0 2 3 14t5 15q3 5 17 5 4 0 35-1t80-1q23 0 48 1t30 1q20 0 20-10 0-22-8-30-3-5-19-5-75-5-136-51-16-10-70-52t-100-79l-47-37 9-22q9-22 28-67t35-85q75-177 80-183 2-2 5-4 14-10 51-11h21q6-8 6-9t-3-18q-4-13-10-19h-11q-40 3-95 3-122 0-137-3h-10q-6 6-6 9t2 18q4 13 6 16t11 3h3q50 0 50 25 0 4-27 70t-32 75l-58 138-136-106-23-93q-23-92-23-97 0-7 8-9t50-3h31q6-9 6-11 0-16-7-30-5-5-16-5-3 0-37 1T180 2H85Q52 2 49 1 31 1 31 11q0 2 3 14 4 16 8 18t23 3q27 0 60 3 14 3 19 12 3 4 72 278t69 289"/><path id="i" d="M96 585q56 81 153 81 48 0 96-26t78-92q37-83 37-228 0-155-43-237-20-42-55-67t-61-31-51-7q-26 0-52 6t-61 32-55 67q-43 82-43 237 0 174 57 265m225 12q-30 32-71 32-42 0-72-32-25-26-33-72t-8-192q0-158 8-208t36-79q28-30 69-30 40 0 68 30 29 30 36 84t8 203q0 145-8 191t-33 73"/><path id="j" d="M308 24q59 0 108 52t50 121q0 63-52 87-106 27-136 37t-42 20q-60 42-60 121 0 61 32 111t65 75q29 25 70 40t64 16h18q96 0 139-64 1 0 13 13t26 29 20 22h4q3 0 5 1 13 0 13-7t-28-121-32-118-16-3q-20 0-20 9 0 6 1 10 0 3 1 19t2 26q0 34-9 59t-18 37-25 25q-36 21-82 21-57 0-106-46t-50-106q0-30 15-52t41-31q4-2 70-19t67-18q34-11 66-48t32-100q0-26-8-56-5-22-18-49t-36-59-66-60-94-38q-12-2-34-2-99 0-154 55l-10 11-28-31Q83-14 78-18t-13-4q-13 0-13 8 0 3 58 235 2 6 20 6h13q6-6 6-11 0-2-1-9t-4-21-2-33q2-39 18-66t43-40 52-18 53-5"/><path id="k" d="M23 287q1 3 2 8t5 22 10 31 15 33 20 30 26 22 33 9q75 0 96-64l10 9q62 55 118 55 65 0 102-47t37-114q0-108-76-199T249-10q-22 0-39 6-11 5-23 15t-19 17l-7 8q-1-1-22-87t-21-87q0-6 8-7t37-3h25q6-7 6-9t-3-18q-3-12-6-15t-13-4h-11q-9 0-34 1t-62 1q-70 0-89-2h-8q-7 7-7 11 2 27 13 35h20q34 1 39 12 3 6 61 239t61 247q1 5 1 14 0 41-25 41-22 0-37-28t-23-61-12-36q-2-2-16-2H29q-6 6-6 9m155-185q22-76 74-76 30 0 58 23t46 58q18 34 36 108t19 110v6q0 74-61 74-11 0-22-3t-22-9-20-13-17-15l-15-15q-7-7-11-14t-8-10l-3-4q0-1-3-14t-11-44-14-52q-26-106-26-110"/><path id="l" d="M69 544v46h361v-46z"/><path id="m" d="M56 237v13q0 13 14 20h299v150l1 150q10 13 19 13 13 0 20-15V270h298q15-8 15-20t-15-20H409V-68q-8-14-18-14h-4q-12 0-18 14v298H70q-14 7-14 20z"/><path id="o" d="M228 637q-34 0-36 4-1 2-1 8 0 24 11 33 2 1 15 1 54-3 127-3 141 0 162 3h12q6-6 6-9t-2-18q-5-15-9-19h-38q-69-1-81-9-7-4-14-28t-67-264q-16-65-34-138T252 88l-9-36q0-4 9-4t59-2h17q32 0 51 1t49 7 50 18 44 34 42 55q16 30 30 67t17 42q5 3 17 3h13q6-9 6-11t-20-59-44-120-26-74q-2-5-4-6t-16-3-43-1h-76q-65 0-124 1H116Q32 0 32 10q0 7 2 14 5 19 10 21 4 1 15 1h6q27 0 60 3 14 3 19 12 3 4 72 278t69 289q0 7-57 9"/><path id="p" d="M78 35v25q0 25 16 43t43 18q28 0 50-25t23-88q0-35-9-68t-21-57-26-41-24-27-13-9q-4 0-13 9t-9 13 11 16 25 30 26 50 16 73V9l-1-1q-2-1-5-2t-6-3-9-2-12-1q-27 0-44 17Z"/><path id="q" d="M308 24q59 0 108 52t50 121q0 63-52 87-106 27-136 37t-42 20q-60 42-60 121 0 61 32 111t65 75q29 25 70 40t64 16h18q96 0 139-64 1 0 13 13t26 29 20 22h4q3 0 5 1 13 0 13-7t-28-121-32-118-16-3q-20 0-20 9 0 6 1 10 0 3 1 19t2 26q0 34-9 59t-18 37-25 25q-36 21-82 21-57 0-106-46t-50-106q0-30 15-52t41-31q4-2 70-19t67-18q34-11 66-48t32-100q0-26-8-56-5-22-18-49t-36-59-66-60-94-38q-12-2-34-2-99 0-154 55l-10 11-28-31Q83-14 78-18t-13-4q-13 0-13 8 0 3 58 235 2 6 20 6h13q6-6 6-11 0-2-1-9t-4-21-2-33q2-39 18-66t43-40 52-18 53-5"/><path id="r" d="M345 104h4q4 0 12-9t8-15-17-21q-84-79-146-79-36 0-60 23t-33 50-14 51l-5 25q0 1-15-13T48 86 28 70q-6 0-13 9T7 94q0 4 5 9t46 44l33 32v12q0 5 1 9 0 82 36 200t95 212 113 93q61 0 61-69v-9q0-174-203-394-9-10-14-15t-6-7-3-3-6-7l-2-15q-4-44-4-63 0-106 49-106 20 0 45 13t40 26 42 38q10 10 14 10zm15 530q0 21-6 27t-18 7q-8 0-14-2t-20-21-30-53q-20-45-43-125t-37-137l-13-57q0-1 7 7t18 20 17 22q106 131 134 268 5 22 5 44"/><path id="s" d="M131 289q0 32 16 65t56 61 97 27q62 0 90-27t29-60q0-32-17-47t-38-16q-13 0-24 8t-12 26q0 16 9 28t17 18 13 6q1 0 1 1 0 3-7 9t-25 11-39 6q-48 0-70-26t-23-53q0-25 19-35t55-17 52-15q66-29 66-96 0-28-11-56t-33-56-63-44-94-17q-77 0-109 29T53 87q0 39 21 56t44 17q15 0 28-9t14-31q0-26-18-44t-31-18q-2-1-3-1t-1-2q1-3 8-8t31-13 55-7q36 0 62 11t38 28 17 31 5 25q0 28-21 42t-48 17-59 15-47 35q-17 25-17 58"/><path id="a" d="M184-11q-68 0-110 45T31 147q0 100 73 186t170 97q1 1 140 1h138q1-1 3-2l4-2q2-1 3-2l3-3 2-2 2-4q2-4 1-4t1-5 1-6q0-44-65-44h-17q-10 0-14 1h-60l5-10q18-38 18-85 0-110-80-192T184-11m177 289q0 80-85 80-124 0-161-174-1-4-1-6-8-37-8-61 0-50 25-70t57-21q54 0 99 47 29 30 47 80t22 80 5 45"/><path id="b" d="M94 250q0 69 10 131t23 107 37 88 38 67 42 52 33 34 25 21h17q14 0 14-9 0-3-17-21t-41-53-49-86-42-138-17-193 17-192 41-139 49-86 42-53 17-21q0-9-15-9h-16l-28 24q-94 85-137 212T94 250"/><path id="d" d="m60 749 4 1h22l28-24q94-85 137-212t43-264q0-68-10-131T261 12t-37-88-38-67-41-51-32-33-23-19l-4-4H63q-3 0-5 3t-3 9q1 1 11 13Q221-64 221 250T66 725q-10 12-11 13 0 8 5 11"/><path id="c" d="M127 463q-27 0-42 17t-16 44q0 55 48 98t116 43q35 0 44-1 74-12 113-53t40-89q0-52-34-101t-94-71l-3-2q0-1 9-3t29-9 38-21q82-53 82-140 0-79-62-138T238-22q-80 0-138 43T42 130q0 28 18 45t45 18q28 0 46-18t18-45q0-11-3-20t-7-16-11-12-12-8-10-4-8-3l-4-1q51-45 124-45 55 0 83 53 17 33 17 101v20q0 95-64 127-15 6-61 7l-42 1-3 2q-2 3-2 16 0 18 8 18 28 0 58 5 34 5 62 42t28 112v8q0 57-35 79-22 14-47 14-32 0-59-11t-38-23l-11-12h3q3-1 8-2t10-5 12-7 10-11 8-15 3-20q0-22-14-39t-45-18"/><path id="u" d="M96 585q56 81 153 81 48 0 96-26t78-92q37-83 37-228 0-155-43-237-20-42-55-67t-61-31-51-7q-26 0-52 6t-61 32-55 67q-43 82-43 237 0 174 57 265m225 12q-30 32-71 32-42 0-72-32-25-26-33-72t-8-192q0-158 8-208t36-79q28-30 69-30 40 0 68 30 29 30 36 84t8 203q0 145-8 191t-33 73"/><path id="v" d="M84 237v13q0 13 14 20h581q15-8 15-20t-15-20H98q-14 7-14 20z"/><path id="w" d="m213 578-13-5q-14-5-40-10t-58-7H83v46h19q47 2 87 15t56 24 28 22q2 3 12 3 9 0 17-6V361l1-300q7-7 12-9t24-4 62-2h26V0h-11q-21 3-159 3-136 0-157-3H88v46h64q16 0 25 1t16 3 8 2 6 5 6 4z"/><path id="y" d="M109 429q-27 0-43 18t-16 44q0 71 53 123t132 52q91 0 152-56t62-145q0-43-20-82t-48-68-80-74q-36-31-100-92l-59-56 76-1q157 0 167 5 7 2 24 89v3h40v-3q-1-3-13-91T421 3V0H50v31q0 7 6 15t30 35q29 32 50 56 9 10 34 37t34 37 29 33 28 34 23 30 21 32 15 29 13 32 7 30 3 33q0 63-34 109t-97 46q-33 0-58-17t-35-33-10-19q0-1 5-1 18 0 37-14t19-46q0-25-16-42t-45-18"/><path id="z" d="M56 237v13q0 13 14 20h299v150l1 150q10 13 19 13 13 0 20-15V270h298q15-8 15-20t-15-20H409V-68q-8-14-18-14h-4q-12 0-18 14v298H70q-14 7-14 20z"/><path id="A" d="m213 578-13-5q-14-5-40-10t-58-7H83v46h19q47 2 87 15t56 24 28 22q2 3 12 3 9 0 17-6V361l1-300q7-7 12-9t24-4 62-2h26V0h-11q-21 3-159 3-136 0-157-3H88v46h64q16 0 25 1t16 3 8 2 6 5 6 4z"/><path id="B" d="M109 429q-27 0-43 18t-16 44q0 71 53 123t132 52q91 0 152-56t62-145q0-43-20-82t-48-68-80-74q-36-31-100-92l-59-56 76-1q157 0 167 5 7 2 24 89v3h40v-3q-1-3-13-91T421 3V0H50v31q0 7 6 15t30 35q29 32 50 56 9 10 34 37t34 37 29 33 28 34 23 30 21 32 15 29 13 32 7 30 3 33q0 63-34 109t-97 46q-33 0-58-17t-35-33-10-19q0-1 5-1 18 0 37-14t19-46q0-25-16-42t-45-18"/><path id="C" d="M84 237v13q0 13 14 20h581q15-8 15-20t-15-20H98q-14 7-14 20z"/><path id="D" d="m213 578-13-5q-14-5-40-10t-58-7H83v46h19q47 2 87 15t56 24 28 22q2 3 12 3 9 0 17-6V361l1-300q7-7 12-9t24-4 62-2h26V0h-11q-21 3-159 3-136 0-157-3H88v46h64q16 0 25 1t16 3 8 2 6 5 6 4z"/><path id="E" d="M84 237v13q0 13 14 20h581q15-8 15-20t-15-20H98q-14 7-14 20z"/><path id="F" d="M434-231q0-13-6-19h-18q-129 0-180 66-5 7-8 12t-5 11-4 13-2 15-1 22-1 27V53q-1 89-5 100-1 1-1 2-14 36-50 56t-71 20q-11 0-14 3t-3 16 3 16 14 3q34 0 70 20t51 56q5 11 5 32t1 152v50q0 55 6 77t29 42q26 26 80 42 37 8 53 9h13q11 0 18 1h20q6-6 6-18 0-13-3-16-2-3-16-3-53-3-83-24t-36-42q-5-13-5-148v-82q0-47-3-64t-17-39q-31-43-87-59l-14-5 14-5q18-6 36-15t42-34 28-59q1-6 1-136 0-135 5-148 10-27 43-45t76-21q14 0 16-3 3-3 3-15"/><path id="G" d="M234 637h-8q-25 0-30 1t-5 11q0 27 11 33 2 1 97 1h88q11 0 14-6 211-496 215-509l54 213q53 211 53 225 0 27-64 31-24 0-24 11 0 2 2 12 4 16 6 19t10 4q3 0 31-1t83-2q50 0 76 1t30 1q15 0 15-10 0-22-8-30-2-5-22-5-71-4-89-40L620 7q-2-7-21-7-14 0-17 2-3 3-129 303L326 604l-65-260Q196 88 196 79q5-33 72-33h10q6-5 6-8t-2-19q-4-13-10-19h-13q-31 2-108 2H63Q49 2 46 1q-15 0-15 9 0 4 3 16t5 14q2 6 23 6 68 3 88 39 4 6 71 277l68 272q-2 1-55 3"/><path id="K" d="M229 286q-13 134-13 150 0 18 24 28h5q4 0 6 1 12-1 22-9t10-20q0-17-6-80t-7-70l58 42q56 41 61 44t10 3q13 0 24-10t12-27q0-13-10-23-5-3-68-33t-68-32l66-31 70-35q9-9 9-23 0-15-9-25t-24-11q-8 0-18 6t-55 40l-58 42q13-134 13-150 0-10-7-19t-26-9-26 9-8 19q0 17 6 80t7 70l-58-42q-56-41-61-44-4-3-10-3-13 0-24 10t-12 27v8q0 3 3 6t5 6 9 7 13 7 19 9 25 11 32 15l40 20-136 65q-9 9-9 23 0 15 9 25t24 11q8 0 18-6t55-40z"/><path id="L" d="M65 731q0 14 3 16t20 3q83 0 128-25t63-55q9-21 10-35t2-134q1-139 2-144 13-45 52-66t72-22q11 0 14-3t3-16-3-16-14-3q-37 0-72-21t-47-53q-5-14-6-36t-1-149v-51q0-55-6-77t-29-42q-54-52-167-52-18 0-21 3t-3 17v7q0 1 1 5t3 4 8 1q14 0 31 3t38 10 37 23 24 38q1 5 2 142l1 136q13 57 70 91 35 17 50 20-25 7-50 20-55 34-68 82l-2 10-1 136q-1 137-2 142-12 40-53 56t-77 17q-9 0-10 3t-2 15"/><path id="n" d="m219 659 155-354L71 33c-9-8-13-14-13-18C58 5 69 0 90 0h521c23 0 28 0 34 19l72 189c1 3 3 9 5 17 0 10-5 15-16 15-7 0-13-5-17-16-31-73-66-122-106-145-36-21-96-31-180-31H145l304 274c9 8 14 15 14 21L331 644h235c66 0 110-5 133-15 37-17 56-53 56-109 0-10-4-42-4-51v-4c3-8 8-12 16-12 10 0 16 9 18 28 7 62 13 124 21 185 0 11-11 17-32 17H253c-23 0-34-1-34-24"/></defs><g transform="matrix(.68 0 0 .68 -2.219 -1.486)"><g fill="#0071bc" stroke-width="0" data-mml-node="mtd" style="fill:#b56;stroke:none" transform="matrix(.00575 0 0 -.00575 74.894 21.831)"><use xlink:href="#a" data-c="1D70E" style="fill:#b56;stroke:none"/><g data-mjx-texclass="ORD" data-mml-node="TeXAtom" style="fill:#b56;stroke:none" transform="translate(604 -176.7)scale(.707)"><use xlink:href="#b" data-c="28" style="fill:#b56;stroke:none"/><use xlink:href="#c" data-c="33" style="fill:#b56;stroke:none" transform="translate(389)"/><use xlink:href="#d" data-c="29" style="fill:#b56;stroke:none" transform="translate(889)"/></g></g><a xlink:href="https://pdglive.lbl.gov/Particle.action?init=0&amp;node=M070&amp;home=MXXX025" stroke-width="0" transform="translate(-16.444 -59.706)"><g fill="#17365c"><use xlink:href="#e" data-c="1D43D" style="fill:#048;stroke:none" transform="matrix(.00718 0 0 -.00718 20.465 95.727)"/><use xlink:href="#f" data-c="2F" style="fill:#048;stroke:none" transform="matrix(.00718 0 0 -.00718 25.012 95.727)"/><use xlink:href="#g" data-c="1D713" style="fill:#048;stroke:none" transform="matrix(.00718 0 0 -.00718 28.604 95.727)"/></g></a><a xlink:href="https://pdglive.lbl.gov/Particle.action?init=0&amp;node=S012&amp;home=MXXX020" transform="translate(-15.83 -59.706)"><g fill="#17365c" stroke-width="0"><use xlink:href="#h" data-c="1D43E" style="fill:#048;stroke:none" transform="matrix(.00718 0 0 -.00718 100.087 92.854)"/><use xlink:href="#i" data-c="30" style="fill:#048;stroke:none" transform="matrix(.00508 0 0 -.00508 107.084 90.202)"/><use xlink:href="#j" data-c="1D446" style="fill:#048;stroke:none" transform="matrix(.00508 0 0 -.00508 106.423 95.188)"/></g></a><a xlink:href="https://pdglive.lbl.gov/Particle.action?init=0&amp;node=S016&amp;home=BXXX005" fill="#17365c" stroke-width="0" transform="translate(-16.444 -59.706)"><use xlink:href="#k" data-c="1D45D" style="fill:#048;stroke:none" transform="matrix(.00718 0 0 -.00718 102.877 112.105)"/><use xlink:href="#l" data-c="AF" style="fill:#048;stroke:none" transform="matrix(.00718 0 0 -.00718 103.486 112.083)"/></a><g transform="translate(-20.89 -63.06)"><use xlink:href="#m" data-c="2B" style="fill:#048;stroke:none;stroke-width:0" transform="matrix(.00508 0 0 -.00508 110.074 73.444)"/><use xlink:href="#n" data-c="1D6F4" style="fill:#048;fill-opacity:1;stroke:#000;stroke-width:0" transform="matrix(.00718 0 0 -.00718 104.107 76.052)"/></g><path fill="#999" stroke="#999" stroke-linecap="round" stroke-linejoin="round" stroke-miterlimit="6" stroke-width=".25" d="M19.674 34.225h10.3"/><path fill="#999" stroke="#999" stroke-linecap="round" stroke-linejoin="round" stroke-miterlimit="6" stroke-width=".8" d="m44.255 30.676 15.375-7.657"/><g fill="#8dae10" stroke-width="0" data-mml-node="mtd" transform="matrix(.00575 0 0 -.00575 32.189 36.163)"><use xlink:href="#o" data-c="1D43F" style="fill:#da3;stroke:none"/><use xlink:href="#p" data-c="2C" style="fill:#da3;stroke:none" transform="translate(681)"/><use xlink:href="#q" data-c="1D446" style="fill:#da3;stroke:none" transform="translate(1125.7)"/></g><g fill="#8dae10" stroke-width="0" data-mml-node="mtd" transform="matrix(.00575 0 0 -.00575 60.672 22.24)"><use xlink:href="#r" data-c="2113" style="fill:#da3;stroke:none"/><use xlink:href="#p" data-c="2C" style="fill:#da3;stroke:none" transform="translate(417)"/><use xlink:href="#s" data-c="1D460" style="fill:#da3;stroke:none" transform="translate(861.7)"/></g><path fill="#999" stroke="#999" stroke-linecap="round" stroke-linejoin="round" stroke-miterlimit="6" stroke-width=".25" d="m68.88 18.413 12.383-6.166M44.255 36.675l38.817 13.57M68.88 23.079l14.193 6.833"/><g fill="#999" data-mml-node="msup" style="stroke:#000;stroke-width:0" transform="matrix(.00718 0 0 -.00718 98.215 33.166)"><use xlink:href="#u" data-c="30"/><use xlink:href="#v" data-c="2212" transform="translate(533 413)scale(.707)"/></g><g fill="#999" data-mml-node="msup" style="stroke:#000;stroke-width:0" transform="matrix(.00575 0 0 -.00575 97.045 11.865)"><g data-mml-node="mfrac"><use xlink:href="#w" data-c="31" transform="translate(220 676)"/><use xlink:href="#y" data-c="32" transform="translate(220 -686)"/><path stroke="none" d="M120 220h700v60H120z"/></g><use xlink:href="#z" data-c="2B" transform="translate(973 1069.1)scale(.707)"/></g><g fill="#999" data-mml-node="msup" style="stroke:#000;stroke-width:0" transform="matrix(.00575 0 0 -.00575 97.045 52.705)"><g data-mml-node="mfrac"><use xlink:href="#A" data-c="31" transform="translate(220 676)"/><use xlink:href="#B" data-c="32" transform="translate(220 -686)"/><path stroke="none" d="M120 220h700v60H120z"/></g><use xlink:href="#C" data-c="2212" transform="translate(973 1069.1)scale(.707)"/></g><g fill="#999" data-mml-node="msup" style="stroke:#000;stroke-width:0" transform="matrix(.00718 0 0 -.00718 3.834 46.919)"><use xlink:href="#D" data-c="31"/><g data-mjx-texclass="ORD" data-mml-node="TeXAtom" transform="translate(533 413)scale(.707)"><use xlink:href="#E" data-c="2212"/><use xlink:href="#E" data-c="2212" transform="translate(778)"/></g></g><g fill="#999" data-mml-node="mrow" style="stroke:#000;stroke-width:0" transform="matrix(.00718 0 0 -.00718 36.084 23.227)"><use xlink:href="#F" data-c="7B"/><g data-mml-node="msup" transform="translate(500)"><use xlink:href="#G" data-c="1D441"/><use xlink:href="#K" data-c="2217" transform="translate(975.3 413)scale(.707)"/></g><use xlink:href="#L" data-c="7D" transform="translate(1878.8)"/></g></g><metadata><rdf:RDF><cc:Work><dc:creator><cc:Agent><dc:title>Remco de Boer</dc:title></cc:Agent></dc:creator><cc:license rdf:resource="http://creativecommons.org/licenses/by/4.0/"/></cc:Work><cc:License rdf:about="http://creativecommons.org/licenses/by/4.0/"><cc:permits rdf:resource="http://creativecommons.org/ns#Reproduction"/><cc:permits rdf:resource="http://creativecommons.org/ns#Distribution"/><cc:requires rdf:resource="http://creativecommons.org/ns#Notice"/><cc:requires rdf:resource="http://creativecommons.org/ns#Attribution"/><cc:permits rdf:resource="http://creativecommons.org/ns#DerivativeWorks"/></cc:License></rdf:RDF></metadata></svg>