<svg xmlns="http://www.w3.org/2000/svg" xmlns:cc="http://creativecommons.org/ns#" xmlns:dc="http://purl.org/dc/elements/1.1/" xmlns:inkscape="http://www.inkscape.org/namespaces/inkscape" xmlns:rdf="http://www.w3.org/1999/02/22-rdf-syntax-ns#" xmlns:sodipodi="http://sodipodi.sourceforge.net/DTD/sodipodi-0.dtd" xmlns:xlink="http://www.w3.org/1999/xlink" inkscape:version="1.4.2 (1:1.4.2+202505120737+ebf0e940d0)" sodipodi:docname="asymmetry-lab-frame.svg" xml:space="preserve" width="134.476" height="92.493" viewBox="0 0 35.58 24.473"><sodipodi:namedview inkscape:current-layer="svg19" inkscape:cx="67.162" inkscape:cy="46.217" inkscape:deskcolor="#d1d1d1" inkscape:pagecheckerboard="0" inkscape:pageopacity="0" inkscape:showpageshadow="2" inkscape:window-height="1371" inkscape:window-maximized="1" inkscape:window-width="2560" inkscape:window-x="0" inkscape:window-y="32" inkscape:zoom="6.589" bordercolor="#000000" borderopacity=".25" pagecolor="#ffffff"/><defs><path id="b" d="M166 673q0 12 17 21h19q90-3 114-50 6-15 57-158t101-279 50-140q7-20 13-33t9-19 5-9 4-4 1-4-6-9h-68q-25 14-32 29t-51 134l-45 125-14-15q-13-16-47-55t-57-66q-25-29-62-72-51-60-63-70T83-12q-36 0-36 32 0 17 14 32t138 135q30 29 67 65t55 54l17 16q0 1-50 140t-54 150q-20 45-51 45-17 0-17 16"/><path id="c" d="M23 287q1 3 2 8t5 22 10 31 15 33 20 30 26 22 33 9q75 0 96-64l10 9q62 55 118 55 65 0 102-47t37-114q0-108-76-199T249-10q-22 0-39 6-11 5-23 15t-19 17l-7 8q-1-1-22-87t-21-87q0-6 8-7t37-3h25q6-7 6-9t-3-18q-3-12-6-15t-13-4h-11q-9 0-34 1t-62 1q-70 0-89-2h-8q-7 7-7 11 2 27 13 35h20q34 1 39 12 3 6 61 239t61 247q1 5 1 14 0 41-25 41-22 0-37-28t-23-61-12-36q-2-2-16-2H29q-6 6-6 9m155-185q22-76 74-76 30 0 58 23t46 58q18 34 36 108t19 110v6q0 74-61 74-11 0-22-3t-22-9-20-13-17-15l-15-15q-7-7-11-14t-8-10l-3-4q0-1-3-14t-11-44-14-52q-26-106-26-110"/><path id="d" d="M132-11q-34 0-34 33v11l13 28q75 158 109 273l8 24h-32q-38 0-54-3t-39-19q-11-7-22-18t-19-21-9-12q-2-1-15-1-19 0-19 10 0 6 19 35t55 62 71 38q7 2 225 2 160 0 164-1 20-7 20-28 0-31-32-42-6-2-69-2h-64l-3-17q-12-72-12-119 0-52 9-93t19-64 10-28q0-17-14-32t-36-15q-11 0-18 3t-16 24-16 60q-1 9-1 44 0 49 9 105t18 92l10 40h-98l-1-4q0-3-19-79t-43-161-31-97q-11-28-43-28"/><path id="e" d="M145-314c0-16 0-37 21-37 22 0 23 20 23 37V814c0 16-1 37-22 37-22 0-22-20-22-37z"/><path id="f" d="M269 666q-61.5-63-180-63v-39c52 0 95 8 128 24V82c0-18-4-30-13-35s-34-8-74-8H95V0q37.5 3 162 3t162-3v39h-35c-41 0-66 3-74 8s-13 17-13 35v554c0 24-2 30-28 30"/><path id="h" d="M237 666c-51 0-94-18-131-54s-56-78-56-129c0-34 25-59 56-59 30 0 55 26 55 56 0 33-24 56-56 56-3 0-5 0-7-1 19 49 63 92 126 92 82 0 128-71 128-157 0-67-34-139-102-215L62 43C49 28 50 29 50 0h371l29 180h-33c-8-51-15-80-21-89-5-5-35-7-90-7H139l97 95c68 64 154 133 183 186q30 52.5 30 105c0 118-92 196-212 196"/><path id="i" d="M139 106c-32 0-53-24-53-56 0-30 23-55 53-55 14 0 26 4 35 13l1-8c0-63-21-117-63-160-7-8-11-14-11-18 0-10 4-15 13-15s21 12 38 35c34 48 51 101 51 158 0 53-18 106-64 106"/><path id="j" d="M11 187h265v58H11Z"/><path id="k" d="M331 240c1 3 2 7 2 10s-1 6-2 10L111 833c-4 11-12 17-24 17-17 0-26-9-26-27 0-2 1-5 2-9l215-564L63-313c-1-3-2-7-2-10 0-18 9-27 26-27 12 0 20 6 24 17z"/><marker id="a" markerHeight="1" markerWidth="1" orient="auto-start-reverse" preserveAspectRatio="xMidYMid" refX="0" refY="0" style="overflow:visible" viewBox="0 0 1 1"><path d="m0 0 5-5-17.5 5L5 5Z" style="fill:context-stroke;fill-rule:evenodd;stroke:none" transform="scale(-.5)"/></marker></defs><path d="m.611 14.059 34.358.004" style="fill:none;stroke:#919191;stroke-width:.165;stroke-linecap:round;stroke-miterlimit:6;stroke-dasharray:.33,.33;stroke-dashoffset:0;stroke-opacity:1"/><path d="m10.184 19.222-1.12-.61-1.303-.71m2.423-1.327L7.76 17.902m5.473-.71c-1.52.003-2.657-.003-4.177 0m.007 1.42h4.17" style="opacity:.6;fill:none;stroke:#da3;stroke-width:.17325;stroke-linecap:round;stroke-miterlimit:6;stroke-dasharray:none"/><path d="M3.762 14.064h11.697" style="fill:none;stroke:#da3;stroke-width:.4125;stroke-linecap:round;stroke-miterlimit:6;stroke-dasharray:none;marker-end:url(#a)"/><path d="M19.33 15.095 32.589 20.6" style="fill:#ff2a2a;stroke:#048;stroke-width:.4125;stroke-linecap:round;stroke-miterlimit:6;stroke-dasharray:none;marker-end:url(#a)"/><path d="m18.862 13.032 11.735-9.29" style="fill:#ff2a2a;stroke:#048;stroke-width:.4125;stroke-linecap:round;stroke-miterlimit:6;stroke-dasharray:none;marker-end:url(#a)"/><use xlink:href="#b" data-c="1D706" style="opacity:.6;fill:#da3;stroke:none;stroke-width:0" transform="matrix(.00592 0 0 -.00592 9.525 23.872)"/><path d="M3.832 12.367c.114 0 .473.018.587.018q.125 0 .125-.144-.001-.081-.102-.09-.276-.007-.275-.185-.002-.065.078-.21l1.568-2.741.21 2.885c.018.06 0 .12-.042.174q-.065.078-.371.077-.162.002-.162.138-.002.098.114.096c.137 0 .592-.018.73-.018.114 0 .509.018.623.018q.136-.002.137-.138-.002-.098-.173-.096c-.24 0-.264 0-.282-.191l-.263-3.687q-.02-.172-.138-.174-.107 0-.18.126l-1.975 3.447c-.143.258-.293.455-.628.48q-.136.01-.138.137-.002.098.096.096c.09 0 .371-.018.46-.018" style="font-variation-settings:normal;fill:#da3;fill-opacity:1;stroke:none;stroke-width:0;stroke-linecap:butt;stroke-linejoin:miter;stroke-miterlimit:4;stroke-dasharray:none;stroke-dashoffset:0;stroke-opacity:1"/><use xlink:href="#c" data-c="1D45D" style="fill:#048;stroke:#000;stroke-width:0" transform="matrix(.00592 0 0 -.00592 25.367 3.15)"/><use xlink:href="#d" data-c="1D70B" style="fill:#048;stroke:#000;stroke-width:0" transform="matrix(.00592 0 0 -.00592 25.396 23.339)"/><g aria-level="0" data-latex="\left\vert {\tfrac{1}{2}, \text{-}\tfrac{1}{2}} \right\rangle" data-latex-item="\left\vert {\tfrac{1}{2}, \text{-}\tfrac{1}{2}} \right\rangle" data-mjx-texclass="INNER" data-mml-node="TeXAtom" data-semantic-annotation="depth:1" data-semantic-attributes="latex:\Ket{\tfrac{1}{2}, \text{-}\tfrac{1}{2}};texclass:ORD" data-semantic-children="0,10,11" data-semantic-content="0,11" data-semantic-id="12" data-semantic-owns="0 10 11" data-semantic-role="sequence" data-semantic-type="punctuated" data-speech-node="true" style="font-variation-settings:normal;opacity:.6;vector-effect:none;fill:#da3;fill-opacity:1;stroke:none;stroke-width:0;stroke-linecap:butt;stroke-linejoin:miter;stroke-miterlimit:4;stroke-dasharray:none;stroke-dashoffset:0;stroke-opacity:1;-inkscape-stroke:none;stop-color:#000" transform="translate(-.133 -.133)scale(1.25)"><use xlink:href="#e" aria-level="1" data-c="2223" data-latex="\left\vert" data-latex-item="\left\vert" data-mjx-texclass="OPEN" data-mml-node="mo" data-semantic-annotation="nemeth:number;depth:2" data-semantic-attributes="latex:\left\vert ;texclass:OPEN" data-semantic-id="0" data-semantic-operator="punctuated" data-semantic-parent="12" data-semantic-role="vbar" data-semantic-type="punctuation" data-speech-node="true" style="font-variation-settings:normal;vector-effect:none;fill:#da3;fill-opacity:1;stroke:none;stroke-width:0;stroke-linecap:butt;stroke-linejoin:miter;stroke-miterlimit:4;stroke-dasharray:none;stroke-dashoffset:0;stroke-opacity:1;-inkscape-stroke:none;stop-color:#000;stop-opacity:1" transform="matrix(.00287 0 0 -.00287 5.88 9.025)"/><g aria-level="1" data-latex="{\tfrac{1}{2},\text{-}\tfrac{1}{2}}" data-mjx-texclass="ORD" data-mml-node="TeXAtom" data-semantic-annotation="depth:2" data-semantic-attributes="latex:{\tfrac{1}{2},\text{-}\tfrac{1}{2}};texclass:ORD" data-semantic-children="3,4,9" data-semantic-content="4" data-semantic-id="10" data-semantic-owns="3 4 9" data-semantic-parent="12" data-semantic-role="sequence" data-semantic-type="punctuated" data-speech-node="true" style="font-variation-settings:normal;vector-effect:none;fill:#da3;fill-opacity:1;stroke:none;stroke-width:0;stroke-linecap:butt;stroke-linejoin:miter;stroke-miterlimit:4;stroke-dasharray:none;stroke-dashoffset:0;stroke-opacity:1;-inkscape-stroke:none;stop-color:#000;stop-opacity:1"><g data-latex="\tfrac{1}{2}" data-mml-node="mstyle" style="font-variation-settings:normal;vector-effect:none;fill:#da3;fill-opacity:1;stroke:none;stroke-width:0;stroke-linecap:butt;stroke-linejoin:miter;stroke-miterlimit:4;stroke-dasharray:none;stroke-dashoffset:0;stroke-opacity:1;-inkscape-stroke:none;stop-color:#000;stop-opacity:1"><g aria-level="2" data-mml-node="mfrac" data-semantic-annotation="clearspeak:simple;depth:3" data-semantic-attributes="latex:\tfrac{1}{2}" data-semantic-children="1,2" data-semantic-id="3" data-semantic-owns="1 2" data-semantic-parent="10" data-semantic-role="vulgar" data-semantic-type="fraction" data-speech-node="true" style="font-variation-settings:normal;vector-effect:none;fill:#da3;fill-opacity:1;stroke:none;stroke-width:0;stroke-linecap:butt;stroke-linejoin:miter;stroke-miterlimit:4;stroke-dasharray:none;stroke-dashoffset:0;stroke-opacity:1;-inkscape-stroke:none;stop-color:#000;stop-opacity:1"><use xlink:href="#f" aria-level="3" data-c="31" data-latex="1" data-mml-node="mn" data-semantic-annotation="clearspeak:simple;nemeth:number;depth:4" data-semantic-attributes="latex:1" data-semantic-font="normal" data-semantic-id="1" data-semantic-parent="3" data-semantic-role="integer" data-semantic-type="number" data-speech-node="true" style="font-variation-settings:normal;vector-effect:none;fill:#da3;fill-opacity:1;stroke:none;stroke-width:0;stroke-linecap:butt;stroke-linejoin:miter;stroke-miterlimit:4;stroke-dasharray:none;stroke-dashoffset:0;stroke-opacity:1;-inkscape-stroke:none;stop-color:#000;stop-opacity:1" transform="matrix(.00203 0 0 -.00203 7.47 7.893)"/><use xlink:href="#h" aria-level="3" data-c="32" data-latex="2" data-mml-node="mn" data-semantic-annotation="clearspeak:simple;depth:4" data-semantic-attributes="latex:2" data-semantic-font="normal" data-semantic-id="2" data-semantic-parent="3" data-semantic-role="integer" data-semantic-type="number" data-speech-node="true" style="font-variation-settings:normal;vector-effect:none;fill:#da3;fill-opacity:1;stroke:none;stroke-width:0;stroke-linecap:butt;stroke-linejoin:miter;stroke-miterlimit:4;stroke-dasharray:none;stroke-dashoffset:0;stroke-opacity:1;-inkscape-stroke:none;stop-color:#000;stop-opacity:1" transform="matrix(.00203 0 0 -.00203 7.47 10.016)"/><path d="M120 220h553.6v60H120Z" style="font-variation-settings:normal;vector-effect:none;fill:#da3;fill-opacity:1;stroke:none;stroke-width:0;stroke-linecap:butt;stroke-linejoin:miter;stroke-miterlimit:4;stroke-dasharray:none;stroke-dashoffset:0;stroke-opacity:1;-inkscape-stroke:none;stop-color:#000;stop-opacity:1" transform="matrix(.00287 0 0 -.00287 6.838 9.025)"/></g></g><use xlink:href="#i" aria-level="2" data-c="2C" data-latex="," data-mml-node="mo" data-semantic-annotation="nemeth:number;depth:3" data-semantic-attributes="latex:," data-semantic-id="4" data-semantic-operator="punctuated" data-semantic-parent="10" data-semantic-role="comma" data-semantic-type="punctuation" data-speech-node="true" style="font-variation-settings:normal;vector-effect:none;fill:#da3;fill-opacity:1;stroke:none;stroke-width:0;stroke-linecap:butt;stroke-linejoin:miter;stroke-miterlimit:4;stroke-dasharray:none;stroke-dashoffset:0;stroke-opacity:1;-inkscape-stroke:none;stop-color:#000;stop-opacity:1" transform="matrix(.00287 0 0 -.00287 9.118 9.025)"/><g aria-level="2" data-mml-node="mrow" data-semantic-added="true" data-semantic-annotation="clearspeak:simple;depth:3" data-semantic-children="8" data-semantic-content="5" data-semantic-id="9" data-semantic-owns="5 8" data-semantic-parent="10" data-semantic-role="negative" data-semantic-type="prefixop" data-speech-node="true" style="font-variation-settings:normal;vector-effect:none;fill:#da3;fill-opacity:1;stroke:none;stroke-width:0;stroke-linecap:butt;stroke-linejoin:miter;stroke-miterlimit:4;stroke-dasharray:none;stroke-dashoffset:0;stroke-opacity:1;-inkscape-stroke:none;stop-color:#000;stop-opacity:1"><use xlink:href="#j" aria-level="3" data-c="2D" data-latex="\text{-}" data-mml-node="mtext" data-semantic-annotation="general:text;nemeth:number;depth:4" data-semantic-attributes="latex:\text{-}" data-semantic-id="5" data-semantic-operator="prefixop,-" data-semantic-parent="9" data-semantic-role="subtraction" data-semantic-type="operator" data-speech-node="true" style="font-variation-settings:normal;vector-effect:none;fill:#da3;fill-opacity:1;stroke:none;stroke-width:0;stroke-linecap:butt;stroke-linejoin:miter;stroke-miterlimit:4;stroke-dasharray:none;stroke-dashoffset:0;stroke-opacity:1;-inkscape-stroke:none;stop-color:#000;stop-opacity:1" transform="matrix(.00287 0 0 -.00287 10.395 9.025)"/><g data-latex="\tfrac{1}{2}" data-mml-node="mstyle" style="font-variation-settings:normal;vector-effect:none;fill:#da3;fill-opacity:1;stroke:none;stroke-width:0;stroke-linecap:butt;stroke-linejoin:miter;stroke-miterlimit:4;stroke-dasharray:none;stroke-dashoffset:0;stroke-opacity:1;-inkscape-stroke:none;stop-color:#000;stop-opacity:1"><g aria-level="3" data-mml-node="mfrac" data-semantic-annotation="clearspeak:simple;depth:4" data-semantic-attributes="latex:\tfrac{1}{2}" data-semantic-children="6,7" data-semantic-id="8" data-semantic-owns="6 7" data-semantic-parent="9" data-semantic-role="vulgar" data-semantic-type="fraction" data-speech-node="true" style="font-variation-settings:normal;vector-effect:none;fill:#da3;fill-opacity:1;stroke:none;stroke-width:0;stroke-linecap:butt;stroke-linejoin:miter;stroke-miterlimit:4;stroke-dasharray:none;stroke-dashoffset:0;stroke-opacity:1;-inkscape-stroke:none;stop-color:#000;stop-opacity:1"><use xlink:href="#f" aria-level="4" data-c="31" data-latex="1" data-mml-node="mn" data-semantic-annotation="clearspeak:simple;nemeth:number;depth:5" data-semantic-attributes="latex:1" data-semantic-font="normal" data-semantic-id="6" data-semantic-parent="8" data-semantic-role="integer" data-semantic-type="number" data-speech-node="true" style="font-variation-settings:normal;vector-effect:none;fill:#da3;fill-opacity:1;stroke:none;stroke-width:0;stroke-linecap:butt;stroke-linejoin:miter;stroke-miterlimit:4;stroke-dasharray:none;stroke-dashoffset:0;stroke-opacity:1;-inkscape-stroke:none;stop-color:#000;stop-opacity:1" transform="matrix(.00203 0 0 -.00203 11.984 7.893)"/><use xlink:href="#h" aria-level="4" data-c="32" data-latex="2" data-mml-node="mn" data-semantic-annotation="clearspeak:simple;depth:5" data-semantic-attributes="latex:2" data-semantic-font="normal" data-semantic-id="7" data-semantic-parent="8" data-semantic-role="integer" data-semantic-type="number" data-speech-node="true" style="font-variation-settings:normal;vector-effect:none;fill:#da3;fill-opacity:1;stroke:none;stroke-width:0;stroke-linecap:butt;stroke-linejoin:miter;stroke-miterlimit:4;stroke-dasharray:none;stroke-dashoffset:0;stroke-opacity:1;-inkscape-stroke:none;stop-color:#000;stop-opacity:1" transform="matrix(.00203 0 0 -.00203 11.984 10.016)"/><path d="M120 220h553.6v60H120Z" style="font-variation-settings:normal;vector-effect:none;fill:#da3;fill-opacity:1;stroke:none;stroke-width:0;stroke-linecap:butt;stroke-linejoin:miter;stroke-miterlimit:4;stroke-dasharray:none;stroke-dashoffset:0;stroke-opacity:1;-inkscape-stroke:none;stop-color:#000;stop-opacity:1" transform="matrix(.00287 0 0 -.00287 11.352 9.025)"/></g></g></g></g><use xlink:href="#k" aria-level="1" data-c="27000000000" data-latex="\right\rangle" data-latex-item="\right\rangle" data-mjx-texclass="CLOSE" data-mml-node="mo" data-semantic-annotation="nemeth:number;depth:2" data-semantic-attributes="latex:\right\rangle;texclass:CLOSE" data-semantic-id="11" data-semantic-operator="punctuated" data-semantic-parent="12" data-semantic-role="closefence" data-semantic-type="punctuation" data-speech-node="true" style="font-variation-settings:normal;vector-effect:none;fill:#da3;fill-opacity:1;stroke:none;stroke-width:0;stroke-linecap:butt;stroke-linejoin:miter;stroke-miterlimit:4;stroke-dasharray:none;stroke-dashoffset:0;stroke-opacity:1;-inkscape-stroke:none;stop-color:#000;stop-opacity:1" transform="matrix(.00287 0 0 -.00287 13.632 9.025)"/></g><metadata><rdf:RDF><cc:Work><dc:creator><cc:Agent><dc:title>Remco de Boer</dc:title></cc:Agent></dc:creator><cc:license rdf:resource="http://creativecommons.org/licenses/by/4.0/"/></cc:Work><cc:License rdf:about="http://creativecommons.org/licenses/by/4.0/"><cc:permits rdf:resource="http://creativecommons.org/ns#Reproduction"/><cc:permits rdf:resource="http://creativecommons.org/ns#Distribution"/><cc:requires rdf:resource="http://creativecommons.org/ns#Notice"/><cc:requires rdf:resource="http://creativecommons.org/ns#Attribution"/><cc:permits rdf:resource="http://creativecommons.org/ns#DerivativeWorks"/></cc:License></rdf:RDF></metadata></svg>