<svg xmlns="http://www.w3.org/2000/svg" xmlns:cc="http://creativecommons.org/ns#" xmlns:dc="http://purl.org/dc/elements/1.1/" xmlns:inkscape="http://www.inkscape.org/namespaces/inkscape" xmlns:rdf="http://www.w3.org/1999/02/22-rdf-syntax-ns#" xmlns:sodipodi="http://sodipodi.sourceforge.net/DTD/sodipodi-0.dtd" xmlns:xlink="http://www.w3.org/1999/xlink" inkscape:version="1.4.2 (1:1.4.2+202505120737+ebf0e940d0)" sodipodi:docname="asymmetry-cm.svg" xml:space="preserve" width="134.477" height="153.789" viewBox="0 0 35.58 40.691"><sodipodi:namedview inkscape:current-layer="svg35" inkscape:cx="67.187" inkscape:cy="76.818" inkscape:deskcolor="#d1d1d1" inkscape:pagecheckerboard="0" inkscape:pageopacity="0" inkscape:showpageshadow="2" inkscape:window-height="1371" inkscape:window-maximized="1" inkscape:window-width="2560" inkscape:window-x="0" inkscape:window-y="32" inkscape:zoom="6.541" bordercolor="#000000" borderopacity=".25" pagecolor="#ffffff"/><defs><path id="o" d="M166 673q0 12 17 21h19q90-3 114-50 6-15 57-158t101-279 50-140q7-20 13-33t9-19 5-9 4-4 1-4-6-9h-68q-25 14-32 29t-51 134l-45 125-14-15q-13-16-47-55t-57-66q-25-29-62-72-51-60-63-70T83-12q-36 0-36 32 0 17 14 32t138 135q30 29 67 65t55 54l17 16q0 1-50 140t-54 150q-20 45-51 45-17 0-17 16"/><path id="p" d="M23 287q1 3 2 8t5 22 10 31 15 33 20 30 26 22 33 9q75 0 96-64l10 9q62 55 118 55 65 0 102-47t37-114q0-108-76-199T249-10q-22 0-39 6-11 5-23 15t-19 17l-7 8q-1-1-22-87t-21-87q0-6 8-7t37-3h25q6-7 6-9t-3-18q-3-12-6-15t-13-4h-11q-9 0-34 1t-62 1q-70 0-89-2h-8q-7 7-7 11 2 27 13 35h20q34 1 39 12 3 6 61 239t61 247q1 5 1 14 0 41-25 41-22 0-37-28t-23-61-12-36q-2-2-16-2H29q-6 6-6 9m155-185q22-76 74-76 30 0 58 23t46 58q18 34 36 108t19 110v6q0 74-61 74-11 0-22-3t-22-9-20-13-17-15l-15-15q-7-7-11-14t-8-10l-3-4q0-1-3-14t-11-44-14-52q-26-106-26-110"/><path id="q" d="M132-11q-34 0-34 33v11l13 28q75 158 109 273l8 24h-32q-38 0-54-3t-39-19q-11-7-22-18t-19-21-9-12q-2-1-15-1-19 0-19 10 0 6 19 35t55 62 71 38q7 2 225 2 160 0 164-1 20-7 20-28 0-31-32-42-6-2-69-2h-64l-3-17q-12-72-12-119 0-52 9-93t19-64 10-28q0-17-14-32t-36-15q-11 0-18 3t-16 24-16 60q-1 9-1 44 0 49 9 105t18 92l10 40h-98l-1-4q0-3-19-79t-43-161-31-97q-11-28-43-28"/><path id="r" d="M145-314c0-16 0-37 21-37 22 0 23 20 23 37V814c0 16-1 37-22 37-22 0-22-20-22-37z"/><path id="s" d="M269 666q-61.5-63-180-63v-39c52 0 95 8 128 24V82c0-18-4-30-13-35s-34-8-74-8H95V0q37.5 3 162 3t162-3v39h-35c-41 0-66 3-74 8s-13 17-13 35v554c0 24-2 30-28 30"/><path id="t" d="M237 666c-51 0-94-18-131-54s-56-78-56-129c0-34 25-59 56-59 30 0 55 26 55 56 0 33-24 56-56 56-3 0-5 0-7-1 19 49 63 92 126 92 82 0 128-71 128-157 0-67-34-139-102-215L62 43C49 28 50 29 50 0h371l29 180h-33c-8-51-15-80-21-89-5-5-35-7-90-7H139l97 95c68 64 154 133 183 186q30 52.5 30 105c0 118-92 196-212 196"/><path id="u" d="M139 106c-32 0-53-24-53-56 0-30 23-55 53-55 14 0 26 4 35 13l1-8c0-63-21-117-63-160-7-8-11-14-11-18 0-10 4-15 13-15s21 12 38 35c34 48 51 101 51 158 0 53-18 106-64 106"/><path id="v" d="M11 187h265v58H11Z"/><path id="w" d="M331 240c1 3 2 7 2 10s-1 6-2 10L111 833c-4 11-12 17-24 17-17 0-26-9-26-27 0-2 1-5 2-9l215-564L63-313c-1-3-2-7-2-10 0-18 9-27 26-27 12 0 20 6 24 17z"/><path id="y" d="M164-11c45 0 92 27 138 81 80 93 153 265 153 428 0 41-7 84-21 127-18 53-52 80-101 80-45 0-90-27-137-81-80-92-154-264-154-428C42 94 75-11 164-11m168 686c33 0 50-38 50-115 0-43-10-108-30-193H155c25 93 49 162 74 207 37 67 72 101 103 101M145 327h196c-19-81-42-146-67-195-39-75-75-113-110-113-33 0-49 39-49 116q0 75 30 192"/><path id="z" d="M128 3c19 0 79-3 98-3q21 0 21 24c0 9-6 14-17 15-31 1-46 11-46 31 0 7 4 19 13 35l262 458 35-482c3-10 0-20-7-29s-28-13-62-13c-18 0-27-8-27-23 0-11 6-16 19-16 23 0 99 3 122 3 19 0 85-3 104-3 15 0 23 8 23 23 0 11-10 16-29 16-40 0-44 0-47 32l-44 616c-2 19-10 29-23 29q-18 0-30-21L163 119c-24-43-49-76-105-80-15-1-23-9-23-23C35 5 40 0 51 0c15 0 62 3 77 3"/><path id="b" d="M298-11c62 0 115 22 158 67s65 98 65 161c0 61-20 115-61 160s-91 68-152 68c-49 0-93-19-130-58v307L28 683v-38q54 0 66-9c8-6 11-20 11-43V0h31l33 58q48-69 129-69m-4 30c-41 0-75 19-100 58-9 13-13 27-13 40v203c0 13 3 24 10 34 29 41 66 61 113 61 41 0 74-20 100-61 18-30 27-75 27-136 0-108-38-199-137-199"/><path id="c" d="M483 91v59h-32V91c0-39-11-59-32-59-20 0-32 25-32 45v197c0 35-4 61-11 79-24 59-93 95-163 95-77 0-153-43-153-115 0-33 17-50 50-50s49 16 49 49c0 29-15 46-46 49 22 25 55 38 98 38 62 0 100-57 100-122v-33c-78-5-137-17-178-36C66 197 32 154 32 97c0-26 10-48 29-65 32-29 76-43 132-43 59 0 101 25 127 76 7-38 35-71 78-71 53 0 85 42 85 97M200 18c-46 0-84 34-84 80 0 93 97 133 195 138v-95c0-67-44-123-111-123"/><path id="d" d="M251 416q63 0 96-30c-24-3-41-25-41-48 0-33 16-49 49-49s49 17 49 50c0 71-77 109-154 109-62 0-113-22-154-68S34 279 34 216c0-61 21-115 62-160s91-67 152-67c50 0 89 14 117 43 23 23 38 46 46 70 3 9 4 15 4 19 0 9-6 13-17 13-8 0-13-4-16-12-21-67-62-101-125-101-29 0-57 13-85 40-33 31-49 83-49 157 0 100 38 198 128 198"/><path id="e" d="M422 3c20 1 50 0 89-3v39c-24 0-42 3-54 8q-18 7.5-42 42L290 266c-3 9-5 12-5 9 0 1 10 10 31 28 35 31 61 51 78 62 31 19 62 29 94 31v38q-31.5-3-72-3c-46 0-84 1-115 3v-38c19-1 29-8 29-21 0-12-7-24-20-36L178 224v470L28 683v-38q54 0 66-9c8-6 11-20 11-43V79c0-19-4-31-11-35s-29-5-66-5V0l111 3 112-3v39c-37 0-58 1-65 5s-11 16-11 35v100l58 51 16-24c65-90 98-140 98-149q0-18-36-18V0Z"/><path id="f" d="M620 332c14 39 42 60 83 61v38c-31-3-57-4-76-3l-96 3v-38c38-1 57-16 57-44 0-4-1-10-4-19L497 89l-94 264c-3 9-4 14-4 17 0 15 19 23 58 23v38l-107-3c-20-1-51 0-92 3v-38c35 0 56-5 63-14 3-3 11-20 22-51l-81-226-90 252c-3 9-5 14-5 16 0 15 20 23 59 23v38l-112-3-96 3v-38c49 0 62 1 73-32L216 13q9-24 24-24c11 0 19 7 24 22l96 268 97-269q7.5-21 24-21c7 1 15 8 23 21z"/><path id="g" d="M364 378c0 39-37 64-76 64-51 0-90-30-116-91v91L28 431v-38c35 0 56-3 64-9s12-19 12-42V79c0-19-3-31-10-35q-10.5-6-66-6V0l115 3c42 1 85 0 128-3v38h-24c-33 0-54 3-61 8s-10 17-10 35v151c0 43 8 82 23 115 20 43 49 65 88 66q-15-15-15-36c0-31 15-46 46-46 27 0 46 21 46 47"/><path id="h" d="M374-11 527 0v38c-36 0-57 2-65 8s-12 21-12 44v604l-149-11v-38c35 0 57-3 65-9s11-20 11-43V390c-32 37-72 55-120 55-62 0-115-22-158-67s-65-99-65-162c0-61 20-114 61-159s91-68 152-68c51 0 94 19 127 58M261 415c43 0 78-19 103-57 7-11 10-22 10-35V121c0-13-3-24-10-35-28-45-66-67-113-67-41 0-74 20-100 61q-27 45-27 135c0 109 37 200 137 200"/><path id="i" d="M265 705c-89 0-155-72-155-161V434H33v-38h77V79c0-19-3-31-10-35s-29-5-66-5V0l115 3c42 1 85 0 128-3v39h-24c-33 0-54 2-61 7s-10 17-10 35v315h112v38H179v111c0 60 31 130 86 130 8 0 15-1 22-3-15-8-23-22-23-41 0-31 15-47 46-47s47 16 47 48c0 45-47 73-92 73"/><path id="j" d="M249-11c62 0 114 22 157 66s65 97 65 159c0 63-21 118-63 164s-95 70-158 70-115-24-158-70-64-101-64-164c0-62 21-115 64-159s96-66 157-66m1 32c-48 0-84 21-109 64-16 28-24 74-24 137 0 61 8 105 23 133 24 43 60 64 109 64 47 0 83-21 108-62 17-28 25-73 25-135 0-116-34-201-132-201"/><path id="k" d="M364 378c0 39-37 64-76 64-51 0-90-30-116-91v91L28 431v-38c35 0 56-3 64-9s12-19 12-42V79c0-19-3-31-10-35q-10.5-6-66-6V0l115 3c42 1 85 0 128-3v38h-24c-33 0-54 3-61 8s-10 17-10 35v151c0 43 8 82 23 115 20 43 49 65 88 66q-15-15-15-36c0-31 15-46 46-46 27 0 46 21 46 47"/><path id="l" d="M620 332c14 39 42 60 83 61v38c-31-3-57-4-76-3l-96 3v-38c38-1 57-16 57-44 0-4-1-10-4-19L497 89l-94 264c-3 9-4 14-4 17 0 15 19 23 58 23v38l-107-3c-20-1-51 0-92 3v-38c35 0 56-5 63-14 3-3 11-20 22-51l-81-226-90 252c-3 9-5 14-5 16 0 15 20 23 59 23v38l-112-3-96 3v-38c49 0 62 1 73-32L216 13q9-24 24-24c11 0 19 7 24 22l96 268 97-269q7.5-21 24-21c7 1 15 8 23 21z"/><path id="m" d="M483 91v59h-32V91c0-39-11-59-32-59-20 0-32 25-32 45v197c0 35-4 61-11 79-24 59-93 95-163 95-77 0-153-43-153-115 0-33 17-50 50-50s49 16 49 49c0 29-15 46-46 49 22 25 55 38 98 38 62 0 100-57 100-122v-33c-78-5-137-17-178-36C66 197 32 154 32 97c0-26 10-48 29-65 32-29 76-43 132-43 59 0 101 25 127 76 7-38 35-71 78-71 53 0 85 42 85 97M200 18c-46 0-84 34-84 80 0 93 97 133 195 138v-95c0-67-44-123-111-123"/><path id="n" d="M374-11 527 0v38c-36 0-57 2-65 8s-12 21-12 44v604l-149-11v-38c35 0 57-3 65-9s11-20 11-43V390c-32 37-72 55-120 55-62 0-115-22-158-67s-65-99-65-162c0-61 20-114 61-159s91-68 152-68c51 0 94 19 127 58M261 415c43 0 78-19 103-57 7-11 10-22 10-35V121c0-13-3-24-10-35-28-45-66-67-113-67-41 0-74 20-100 61q-27 45-27 135c0 109 37 200 137 200"/><marker id="a" markerHeight="1" markerWidth="1" orient="auto-start-reverse" preserveAspectRatio="xMidYMid" refX="0" refY="0" style="overflow:visible" viewBox="0 0 1 1"><path d="m0 0 5-5-17.5 5L5 5Z" style="fill:context-stroke;fill-rule:evenodd;stroke:none" transform="scale(-.5)"/></marker></defs><path d="m18.63 24.63-7.718 13.302" style="fill:none;stroke:#048;stroke-width:.4125;stroke-linecap:round;stroke-miterlimit:6;stroke-dasharray:none;marker-end:url(#a)"/><g style="opacity:.6"><path d="m-13.79 81.425 95.607.01" style="fill:none;stroke:#b56;stroke-width:.2;stroke-linecap:round;stroke-miterlimit:6;stroke-dasharray:none;stroke-dashoffset:0;stroke-opacity:1" transform="rotate(90 23.318 29.586)scale(.4125)"/><g transform="matrix(.8 0 0 .8 6.54 11.373)"><use xlink:href="#b" data-c="62" style="font-variation-settings:normal;vector-effect:none;fill:#b56;fill-opacity:1;stroke:none;stroke-width:0;stroke-linecap:butt;stroke-linejoin:miter;stroke-miterlimit:4;stroke-dasharray:none;stroke-dashoffset:0;stroke-opacity:1;-inkscape-stroke:none;stop-color:#000" transform="matrix(0 -.00479 -.00479 0 15.267 6.411)"/><use xlink:href="#c" data-c="61" style="font-variation-settings:normal;vector-effect:none;fill:#b56;fill-opacity:1;stroke:none;stroke-width:0;stroke-linecap:butt;stroke-linejoin:miter;stroke-miterlimit:4;stroke-dasharray:none;stroke-dashoffset:0;stroke-opacity:1;-inkscape-stroke:none;stop-color:#000" transform="matrix(0 -.00479 -.00479 0 15.267 3.749)"/><use xlink:href="#d" data-c="63" style="font-variation-settings:normal;vector-effect:none;fill:#b56;fill-opacity:1;stroke:none;stroke-width:0;stroke-linecap:butt;stroke-linejoin:miter;stroke-miterlimit:4;stroke-dasharray:none;stroke-dashoffset:0;stroke-opacity:1;-inkscape-stroke:none;stop-color:#000" transform="matrix(0 -.00479 -.00479 0 15.267 1.354)"/><use xlink:href="#e" data-c="6B" style="font-variation-settings:normal;vector-effect:none;fill:#b56;fill-opacity:1;stroke:none;stroke-width:0;stroke-linecap:butt;stroke-linejoin:miter;stroke-miterlimit:4;stroke-dasharray:none;stroke-dashoffset:0;stroke-opacity:1;-inkscape-stroke:none;stop-color:#000" transform="matrix(0 -.00479 -.00479 0 15.267 -.772)"/><use xlink:href="#f" data-c="77" style="font-variation-settings:normal;vector-effect:none;fill:#b56;fill-opacity:1;stroke:none;stroke-width:0;stroke-linecap:butt;stroke-linejoin:miter;stroke-miterlimit:4;stroke-dasharray:none;stroke-dashoffset:0;stroke-opacity:1;-inkscape-stroke:none;stop-color:#000" transform="matrix(0 -.00479 -.00479 0 15.267 -3.3)"/><use xlink:href="#c" data-c="61" style="font-variation-settings:normal;vector-effect:none;fill:#b56;fill-opacity:1;stroke:none;stroke-width:0;stroke-linecap:butt;stroke-linejoin:miter;stroke-miterlimit:4;stroke-dasharray:none;stroke-dashoffset:0;stroke-opacity:1;-inkscape-stroke:none;stop-color:#000" transform="matrix(0 -.00479 -.00479 0 15.267 -6.758)"/><use xlink:href="#g" data-c="72" style="font-variation-settings:normal;vector-effect:none;fill:#b56;fill-opacity:1;stroke:none;stroke-width:0;stroke-linecap:butt;stroke-linejoin:miter;stroke-miterlimit:4;stroke-dasharray:none;stroke-dashoffset:0;stroke-opacity:1;-inkscape-stroke:none;stop-color:#000" transform="matrix(0 -.00479 -.00479 0 15.267 -9.153)"/><use xlink:href="#h" data-c="64" style="font-variation-settings:normal;vector-effect:none;fill:#b56;fill-opacity:1;stroke:none;stroke-width:0;stroke-linecap:butt;stroke-linejoin:miter;stroke-miterlimit:4;stroke-dasharray:none;stroke-dashoffset:0;stroke-opacity:1;-inkscape-stroke:none;stop-color:#000" transform="matrix(0 -.00479 -.00479 0 15.267 -11.03)"/></g><g transform="matrix(.8 0 0 .8 18.538 6.81)"><use xlink:href="#i" data-c="66" style="font-variation-settings:normal;vector-effect:none;fill:#b56;fill-opacity:1;stroke:none;stroke-width:0;stroke-linecap:butt;stroke-linejoin:miter;stroke-miterlimit:4;stroke-dasharray:none;stroke-dashoffset:0;stroke-opacity:1;-inkscape-stroke:none;stop-color:#000" transform="matrix(0 .00479 .00479 0 1.675 -8.01)"/><use xlink:href="#j" data-c="6F" style="font-variation-settings:normal;vector-effect:none;fill:#b56;fill-opacity:1;stroke:none;stroke-width:0;stroke-linecap:butt;stroke-linejoin:miter;stroke-miterlimit:4;stroke-dasharray:none;stroke-dashoffset:0;stroke-opacity:1;-inkscape-stroke:none;stop-color:#000" transform="matrix(0 .00479 .00479 0 1.675 -6.545)"/><use xlink:href="#k" data-c="72" style="font-variation-settings:normal;vector-effect:none;fill:#b56;fill-opacity:1;stroke:none;stroke-width:0;stroke-linecap:butt;stroke-linejoin:miter;stroke-miterlimit:4;stroke-dasharray:none;stroke-dashoffset:0;stroke-opacity:1;-inkscape-stroke:none;stop-color:#000" transform="matrix(0 .00479 .00479 0 1.675 -4.15)"/><use xlink:href="#l" data-c="77" style="font-variation-settings:normal;vector-effect:none;fill:#b56;fill-opacity:1;stroke:none;stroke-width:0;stroke-linecap:butt;stroke-linejoin:miter;stroke-miterlimit:4;stroke-dasharray:none;stroke-dashoffset:0;stroke-opacity:1;-inkscape-stroke:none;stop-color:#000" transform="matrix(0 .00479 .00479 0 1.675 -2.273)"/><use xlink:href="#m" data-c="61" style="font-variation-settings:normal;vector-effect:none;fill:#b56;fill-opacity:1;stroke:none;stroke-width:0;stroke-linecap:butt;stroke-linejoin:miter;stroke-miterlimit:4;stroke-dasharray:none;stroke-dashoffset:0;stroke-opacity:1;-inkscape-stroke:none;stop-color:#000" transform="matrix(0 .00479 .00479 0 1.675 1.185)"/><use xlink:href="#k" data-c="72" style="font-variation-settings:normal;vector-effect:none;fill:#b56;fill-opacity:1;stroke:none;stroke-width:0;stroke-linecap:butt;stroke-linejoin:miter;stroke-miterlimit:4;stroke-dasharray:none;stroke-dashoffset:0;stroke-opacity:1;-inkscape-stroke:none;stop-color:#000" transform="matrix(0 .00479 .00479 0 1.675 3.58)"/><use xlink:href="#n" data-c="64" style="font-variation-settings:normal;vector-effect:none;fill:#b56;fill-opacity:1;stroke:none;stroke-width:0;stroke-linecap:butt;stroke-linejoin:miter;stroke-miterlimit:4;stroke-dasharray:none;stroke-dashoffset:0;stroke-opacity:1;-inkscape-stroke:none;stop-color:#000" transform="matrix(0 .00479 .00479 0 1.675 5.456)"/></g></g><path d="M24.287 14.952a8.873 10.256 0 0 1 3.9 8.332" style="fill:none;stroke:#b56;stroke-width:.4125;stroke-linecap:round;stroke-miterlimit:6;stroke-dasharray:none"/><path d="m.61 23.445 34.359.004" style="fill:none;stroke:#919191;stroke-width:.165;stroke-linecap:round;stroke-miterlimit:6;stroke-dasharray:.33,.33;stroke-dashoffset:0;stroke-opacity:1"/><path d="m10.195 27.246-1.12-.61-1.303-.71m2.423-1.328-2.423 1.327m5.473-.71c-1.52.003-2.656-.003-4.177 0m.007 1.42h4.17" style="opacity:.6;fill:none;stroke:#da3;stroke-width:.17325;stroke-linecap:round;stroke-miterlimit:6;stroke-dasharray:none"/><path d="m20.048 22.182 7.67-13.22" style="fill:none;stroke:#048;stroke-width:.4125;stroke-linecap:round;stroke-miterlimit:6;stroke-dasharray:none;marker-end:url(#a)"/><use xlink:href="#o" data-c="1D706" style="opacity:.6;fill:#da3;stroke:#000;stroke-width:0" transform="matrix(.00592 0 0 -.00592 9.552 31.745)"/><use xlink:href="#p" data-c="1D45D" style="fill:#048;stroke:none;stroke-width:0" transform="matrix(.00593 0 0 -.00593 28.807 13.342)"/><use xlink:href="#q" data-c="1D70B" style="fill:#048;stroke:none;stroke-width:0" transform="matrix(.00593 0 0 -.00593 13.62 39.191)"/><circle cx="19.315" cy="23.446" r=".584" style="fill:#da3;stroke:none;stroke-width:.20625;stroke-linecap:round;stroke-miterlimit:6;stroke-dasharray:none"/><path d="M19.504 23.457a.133.122 0 0 1 .078.11" style="fill:none;stroke:none;stroke-width:.20625;stroke-linecap:round;stroke-miterlimit:6;stroke-dasharray:none"/><g aria-level="0" data-latex="\left\vert {\tfrac{1}{2}, \text{-}\tfrac{1}{2}} \right\rangle" data-latex-item="\left\vert {\tfrac{1}{2}, \text{-}\tfrac{1}{2}} \right\rangle" data-mjx-texclass="INNER" data-mml-node="TeXAtom" data-semantic-annotation="depth:1" data-semantic-attributes="latex:\Ket{\tfrac{1}{2}, \text{-}\tfrac{1}{2}};texclass:ORD" data-semantic-children="0,10,11" data-semantic-content="0,11" data-semantic-id="12" data-semantic-owns="0 10 11" data-semantic-role="sequence" data-semantic-type="punctuated" data-speech-node="true" style="font-variation-settings:normal;opacity:.6;vector-effect:none;fill:#da3;fill-opacity:1;stroke:none;stroke-width:0;stroke-linecap:butt;stroke-linejoin:miter;stroke-miterlimit:4;stroke-dasharray:none;stroke-dashoffset:0;stroke-opacity:1;-inkscape-stroke:none;stop-color:#000" transform="translate(-6.74 -9.982)scale(.4125)"><use xlink:href="#r" aria-level="1" data-c="2223" data-latex="\left\vert" data-latex-item="\left\vert" data-mjx-texclass="OPEN" data-mml-node="mo" data-semantic-annotation="nemeth:number;depth:2" data-semantic-attributes="latex:\left\vert ;texclass:OPEN" data-semantic-id="0" data-semantic-operator="punctuated" data-semantic-parent="12" data-semantic-role="vbar" data-semantic-type="punctuation" data-speech-node="true" style="font-variation-settings:normal;vector-effect:none;fill:#da3;fill-opacity:1;stroke:none;stroke-width:0;stroke-linecap:butt;stroke-linejoin:miter;stroke-miterlimit:4;stroke-dasharray:none;stroke-dashoffset:0;stroke-opacity:1;-inkscape-stroke:none;stop-color:#000;stop-opacity:1" transform="matrix(.0087 0 0 -.0087 35.614 75.762)"/><g aria-level="1" data-latex="{\tfrac{1}{2},\text{-}\tfrac{1}{2}}" data-mjx-texclass="ORD" data-mml-node="TeXAtom" data-semantic-annotation="depth:2" data-semantic-attributes="latex:{\tfrac{1}{2},\text{-}\tfrac{1}{2}};texclass:ORD" data-semantic-children="3,4,9" data-semantic-content="4" data-semantic-id="10" data-semantic-owns="3 4 9" data-semantic-parent="12" data-semantic-role="sequence" data-semantic-type="punctuated" data-speech-node="true" style="font-variation-settings:normal;vector-effect:none;fill:#da3;fill-opacity:1;stroke:none;stroke-width:0;stroke-linecap:butt;stroke-linejoin:miter;stroke-miterlimit:4;stroke-dasharray:none;stroke-dashoffset:0;stroke-opacity:1;-inkscape-stroke:none;stop-color:#000;stop-opacity:1"><g data-latex="\tfrac{1}{2}" data-mml-node="mstyle" style="font-variation-settings:normal;vector-effect:none;fill:#da3;fill-opacity:1;stroke:none;stroke-width:0;stroke-linecap:butt;stroke-linejoin:miter;stroke-miterlimit:4;stroke-dasharray:none;stroke-dashoffset:0;stroke-opacity:1;-inkscape-stroke:none;stop-color:#000;stop-opacity:1"><g aria-level="2" data-mml-node="mfrac" data-semantic-annotation="clearspeak:simple;depth:3" data-semantic-attributes="latex:\tfrac{1}{2}" data-semantic-children="1,2" data-semantic-id="3" data-semantic-owns="1 2" data-semantic-parent="10" data-semantic-role="vulgar" data-semantic-type="fraction" data-speech-node="true" style="font-variation-settings:normal;vector-effect:none;fill:#da3;fill-opacity:1;stroke:none;stroke-width:0;stroke-linecap:butt;stroke-linejoin:miter;stroke-miterlimit:4;stroke-dasharray:none;stroke-dashoffset:0;stroke-opacity:1;-inkscape-stroke:none;stop-color:#000;stop-opacity:1"><use xlink:href="#s" aria-level="3" data-c="31" data-latex="1" data-mml-node="mn" data-semantic-annotation="clearspeak:simple;nemeth:number;depth:4" data-semantic-attributes="latex:1" data-semantic-font="normal" data-semantic-id="1" data-semantic-parent="3" data-semantic-role="integer" data-semantic-type="number" data-speech-node="true" style="font-variation-settings:normal;vector-effect:none;fill:#da3;fill-opacity:1;stroke:none;stroke-width:0;stroke-linecap:butt;stroke-linejoin:miter;stroke-miterlimit:4;stroke-dasharray:none;stroke-dashoffset:0;stroke-opacity:1;-inkscape-stroke:none;stop-color:#000;stop-opacity:1" transform="matrix(.00616 0 0 -.00616 40.428 72.332)"/><use xlink:href="#t" aria-level="3" data-c="32" data-latex="2" data-mml-node="mn" data-semantic-annotation="clearspeak:simple;depth:4" data-semantic-attributes="latex:2" data-semantic-font="normal" data-semantic-id="2" data-semantic-parent="3" data-semantic-role="integer" data-semantic-type="number" data-speech-node="true" style="font-variation-settings:normal;vector-effect:none;fill:#da3;fill-opacity:1;stroke:none;stroke-width:0;stroke-linecap:butt;stroke-linejoin:miter;stroke-miterlimit:4;stroke-dasharray:none;stroke-dashoffset:0;stroke-opacity:1;-inkscape-stroke:none;stop-color:#000;stop-opacity:1" transform="matrix(.00616 0 0 -.00616 40.428 78.766)"/><path d="M120 220h553.6v60H120Z" style="font-variation-settings:normal;vector-effect:none;fill:#da3;fill-opacity:1;stroke:none;stroke-width:0;stroke-linecap:butt;stroke-linejoin:miter;stroke-miterlimit:4;stroke-dasharray:none;stroke-dashoffset:0;stroke-opacity:1;-inkscape-stroke:none;stop-color:#000;stop-opacity:1" transform="matrix(.0087 0 0 -.0087 38.513 75.762)"/></g></g><use xlink:href="#u" aria-level="2" data-c="2C" data-latex="," data-mml-node="mo" data-semantic-annotation="nemeth:number;depth:3" data-semantic-attributes="latex:," data-semantic-id="4" data-semantic-operator="punctuated" data-semantic-parent="10" data-semantic-role="comma" data-semantic-type="punctuation" data-speech-node="true" style="font-variation-settings:normal;vector-effect:none;fill:#da3;fill-opacity:1;stroke:none;stroke-width:0;stroke-linecap:butt;stroke-linejoin:miter;stroke-miterlimit:4;stroke-dasharray:none;stroke-dashoffset:0;stroke-opacity:1;-inkscape-stroke:none;stop-color:#000;stop-opacity:1" transform="matrix(.0087 0 0 -.0087 45.422 75.762)"/><g aria-level="2" data-mml-node="mrow" data-semantic-added="true" data-semantic-annotation="clearspeak:simple;depth:3" data-semantic-children="8" data-semantic-content="5" data-semantic-id="9" data-semantic-owns="5 8" data-semantic-parent="10" data-semantic-role="negative" data-semantic-type="prefixop" data-speech-node="true" style="font-variation-settings:normal;vector-effect:none;fill:#da3;fill-opacity:1;stroke:none;stroke-width:0;stroke-linecap:butt;stroke-linejoin:miter;stroke-miterlimit:4;stroke-dasharray:none;stroke-dashoffset:0;stroke-opacity:1;-inkscape-stroke:none;stop-color:#000;stop-opacity:1"><use xlink:href="#v" aria-level="3" data-c="2D" data-latex="\text{-}" data-mml-node="mtext" data-semantic-annotation="general:text;nemeth:number;depth:4" data-semantic-attributes="latex:\text{-}" data-semantic-id="5" data-semantic-operator="prefixop,-" data-semantic-parent="9" data-semantic-role="subtraction" data-semantic-type="operator" data-speech-node="true" style="font-variation-settings:normal;vector-effect:none;fill:#da3;fill-opacity:1;stroke:none;stroke-width:0;stroke-linecap:butt;stroke-linejoin:miter;stroke-miterlimit:4;stroke-dasharray:none;stroke-dashoffset:0;stroke-opacity:1;-inkscape-stroke:none;stop-color:#000;stop-opacity:1" transform="matrix(.0087 0 0 -.0087 49.293 75.762)"/><g data-latex="\tfrac{1}{2}" data-mml-node="mstyle" style="font-variation-settings:normal;vector-effect:none;fill:#da3;fill-opacity:1;stroke:none;stroke-width:0;stroke-linecap:butt;stroke-linejoin:miter;stroke-miterlimit:4;stroke-dasharray:none;stroke-dashoffset:0;stroke-opacity:1;-inkscape-stroke:none;stop-color:#000;stop-opacity:1"><g aria-level="3" data-mml-node="mfrac" data-semantic-annotation="clearspeak:simple;depth:4" data-semantic-attributes="latex:\tfrac{1}{2}" data-semantic-children="6,7" data-semantic-id="8" data-semantic-owns="6 7" data-semantic-parent="9" data-semantic-role="vulgar" data-semantic-type="fraction" data-speech-node="true" style="font-variation-settings:normal;vector-effect:none;fill:#da3;fill-opacity:1;stroke:none;stroke-width:0;stroke-linecap:butt;stroke-linejoin:miter;stroke-miterlimit:4;stroke-dasharray:none;stroke-dashoffset:0;stroke-opacity:1;-inkscape-stroke:none;stop-color:#000;stop-opacity:1"><use xlink:href="#s" aria-level="4" data-c="31" data-latex="1" data-mml-node="mn" data-semantic-annotation="clearspeak:simple;nemeth:number;depth:5" data-semantic-attributes="latex:1" data-semantic-font="normal" data-semantic-id="6" data-semantic-parent="8" data-semantic-role="integer" data-semantic-type="number" data-speech-node="true" style="font-variation-settings:normal;vector-effect:none;fill:#da3;fill-opacity:1;stroke:none;stroke-width:0;stroke-linecap:butt;stroke-linejoin:miter;stroke-miterlimit:4;stroke-dasharray:none;stroke-dashoffset:0;stroke-opacity:1;-inkscape-stroke:none;stop-color:#000;stop-opacity:1" transform="matrix(.00616 0 0 -.00616 54.108 72.332)"/><use xlink:href="#t" aria-level="4" data-c="32" data-latex="2" data-mml-node="mn" data-semantic-annotation="clearspeak:simple;depth:5" data-semantic-attributes="latex:2" data-semantic-font="normal" data-semantic-id="7" data-semantic-parent="8" data-semantic-role="integer" data-semantic-type="number" data-speech-node="true" style="font-variation-settings:normal;vector-effect:none;fill:#da3;fill-opacity:1;stroke:none;stroke-width:0;stroke-linecap:butt;stroke-linejoin:miter;stroke-miterlimit:4;stroke-dasharray:none;stroke-dashoffset:0;stroke-opacity:1;-inkscape-stroke:none;stop-color:#000;stop-opacity:1" transform="matrix(.00616 0 0 -.00616 54.108 78.766)"/><path d="M120 220h553.6v60H120Z" style="font-variation-settings:normal;vector-effect:none;fill:#da3;fill-opacity:1;stroke:none;stroke-width:0;stroke-linecap:butt;stroke-linejoin:miter;stroke-miterlimit:4;stroke-dasharray:none;stroke-dashoffset:0;stroke-opacity:1;-inkscape-stroke:none;stop-color:#000;stop-opacity:1" transform="matrix(.0087 0 0 -.0087 52.192 75.762)"/></g></g></g></g><use xlink:href="#w" aria-level="1" data-c="27000000000" data-latex="\right\rangle" data-latex-item="\right\rangle" data-mjx-texclass="CLOSE" data-mml-node="mo" data-semantic-annotation="nemeth:number;depth:2" data-semantic-attributes="latex:\right\rangle;texclass:CLOSE" data-semantic-id="11" data-semantic-operator="punctuated" data-semantic-parent="12" data-semantic-role="closefence" data-semantic-type="punctuation" data-speech-node="true" style="font-variation-settings:normal;vector-effect:none;fill:#da3;fill-opacity:1;stroke:none;stroke-width:0;stroke-linecap:butt;stroke-linejoin:miter;stroke-miterlimit:4;stroke-dasharray:none;stroke-dashoffset:0;stroke-opacity:1;-inkscape-stroke:none;stop-color:#000;stop-opacity:1" transform="matrix(.0087 0 0 -.0087 59.102 75.762)"/></g><use xlink:href="#y" data-c="1D703" style="font-variation-settings:normal;vector-effect:none;fill:#b56;fill-opacity:1;stroke:none;stroke-width:0;stroke-linecap:butt;stroke-linejoin:miter;stroke-miterlimit:4;stroke-dasharray:none;stroke-dashoffset:0;stroke-opacity:1;-inkscape-stroke:none;stop-color:#000" transform="matrix(.00599 0 0 -.00599 23.06 22.33)"/><use xlink:href="#z" data-c="1D6EC" style="font-variation-settings:normal;opacity:1;vector-effect:none;fill:#da3;fill-opacity:1;stroke:none;stroke-width:0;stroke-linecap:butt;stroke-linejoin:miter;stroke-miterlimit:4;stroke-dasharray:none;stroke-dashoffset:0;stroke-opacity:1;-inkscape-stroke:none;stop-color:#000;stop-opacity:1" transform="matrix(.00599 0 0 -.00599 4.094 22.456)"/><metadata><rdf:RDF><cc:Work><dc:creator><cc:Agent><dc:title>Remco de Boer</dc:title></cc:Agent></dc:creator><cc:license rdf:resource="http://creativecommons.org/licenses/by/4.0/"/></cc:Work><cc:License rdf:about="http://creativecommons.org/licenses/by/4.0/"><cc:permits rdf:resource="http://creativecommons.org/ns#Reproduction"/><cc:permits rdf:resource="http://creativecommons.org/ns#Distribution"/><cc:requires rdf:resource="http://creativecommons.org/ns#Notice"/><cc:requires rdf:resource="http://creativecommons.org/ns#Attribution"/><cc:permits rdf:resource="http://creativecommons.org/ns#DerivativeWorks"/></cc:License></rdf:RDF></metadata></svg>