<svg xmlns="http://www.w3.org/2000/svg" xmlns:cc="http://creativecommons.org/ns#" xmlns:dc="http://purl.org/dc/elements/1.1/" xmlns:inkscape="http://www.inkscape.org/namespaces/inkscape" xmlns:rdf="http://www.w3.org/1999/02/22-rdf-syntax-ns#" xmlns:sodipodi="http://sodipodi.sourceforge.net/DTD/sodipodi-0.dtd" xmlns:xlink="http://www.w3.org/1999/xlink" inkscape:version="1.4.2 (1:1.4.2+202505120737+ebf0e940d0)" sodipodi:docname="jpsi-to-pbar-sigma-k.svg" xml:space="preserve" width="171.439" height="102.1" viewBox="0 0 171.439 102.1"><sodipodi:namedview inkscape:current-layer="svg13" inkscape:cx="85.623" inkscape:cy="50.987" inkscape:deskcolor="#d1d1d1" inkscape:pagecheckerboard="0" inkscape:pageopacity="0" inkscape:showpageshadow="2" inkscape:window-height="1371" inkscape:window-maximized="1" inkscape:window-width="2560" inkscape:window-x="0" inkscape:window-y="32" inkscape:zoom="5.168" bordercolor="#000000" borderopacity=".25" pagecolor="#ffffff"/><defs><pattern xlink:href="#a" id="b" patternTransform="matrix(1.86666 0 0 -1.86666 88.162 50.687)"/><pattern id="a" width="4.981" height="4.981" x="0" y="0" patternUnits="userSpaceOnUse"><path d="M0 2.989 3.088-.1" style="fill:none;stroke:#da3;stroke-opacity:1;stroke-width:.3985;stroke-linecap:butt;stroke-linejoin:miter;stroke-miterlimit:10;stroke-dasharray:none" transform="translate(.996 .996)"/></pattern></defs><path d="M10.75 43.986c.154-.615.176-.766 1.203-.766.306 0 .504 0 .504-.35 0-.176-.11-.242-.261-.242-.461 0-1.598.066-2.057.066-.613 0-2.123-.066-2.735-.066-.175 0-.394 0-.394.374 0 .216.153.216.635.216.414 0 .612 0 1.071.023.46.065.59.13.59.373a1.3 1.3 0 0 1-.086.392l-2.145 8.53c-.434 1.819-1.704 2.8-2.669 2.8-.48 0-1.465-.195-1.771-1.157a1.228 1.228 0 0 0 1.443-1.159c0-.592-.503-.788-.831-.788S2 52.451 2 53.718c0 1.16.986 2.035 2.473 2.035 1.706 0 3.631-1.225 4.09-3.084zm9.15-1.882c.087-.243.087-.329.087-.351a.373.373 0 0 0-.373-.371.36.36 0 0 0-.304.175l-6.453 17.718c-.088.241-.088.329-.088.35a.37.37 0 0 0 .373.373c.239 0 .284-.13.392-.46zm10.111.808a1 1 0 0 0 .045-.284c0-.175-.13-.196-.218-.196-.176 0-.198.043-.286.372l-3.084 12.294c-1.4-.176-2.122-.853-2.122-2.08 0-.371 0-.853 1.008-3.455.086-.243.216-.547.216-.918a1.493 1.493 0 0 0-1.53-1.53c-1.774 0-2.45 2.71-2.45 2.863 0 .197.174.197.219.197.174 0 .196-.043.284-.35.504-1.75 1.247-2.297 1.881-2.297.153 0 .482 0 .482.59 0 .482-.198.964-.439 1.598-.896 2.341-.896 2.823-.896 3.15 0 1.773 1.466 2.538 3.237 2.646-.153.657-.153.7-.414 1.686-.045.196-.417 1.706-.417 1.771 0 .023 0 .176.219.176.045 0 .13 0 .175-.068.043-.042.153-.502.219-.765l.7-2.777c.7 0 2.318 0 4.069-1.99.765-.853 1.157-1.663 1.355-2.233.176-.459.592-2.077.592-2.888 0-1.049-.504-1.312-.833-1.312-.459 0-.918.482-.918.896 0 .243.11.351.286.504.196.198.655.68.655 1.576 0 1.204-.963 2.712-1.619 3.39-1.64 1.663-2.822 1.663-3.5 1.663zm0 0" aria-label="J/ψ" style="fill:#048;fill-opacity:1;fill-rule:nonzero;stroke:none;stroke-width:1.86666"/><path d="M152.568 7.206c-.022-.065-.11-.218-.11-.261 0-.023.349-.286.547-.439l3.26-2.514c1.75-1.27 2.47-1.357 3.018-1.4.153-.023.35-.045.35-.374 0-.085-.065-.218-.218-.218-.394 0-.877.065-1.314.065-.678 0-1.4-.065-2.055-.065-.131 0-.374 0-.374.373 0 .131.112.196.243.219.392.02.568.13.568.392 0 .328-.547.746-.678.855l-7.24 5.577 1.487-5.973c.175-.678.196-.851 1.553-.851.482 0 .635 0 .635-.374 0-.173-.153-.218-.262-.218-.504 0-1.86.065-2.363.065-.547 0-1.861-.065-2.408-.065-.13 0-.371 0-.371.373 0 .219.175.219.547.219.242 0 .569.02.787.02.306.045.417.112.417.308 0 .066-.023.13-.088.35l-2.494 9.995c-.175.723-.218.878-1.684.878-.306 0-.526 0-.526.349 0 .218.243.218.285.218.523 0 1.837-.065 2.362-.065.394 0 .81.02 1.181.02.417 0 .831.045 1.225.045.13 0 .373 0 .373-.373 0-.196-.175-.196-.526-.196-.7 0-1.202 0-1.202-.35 0-.13.108-.526.153-.81.261-.96.504-1.946.743-2.93l2.78-2.145 2.164 5.012c.219.482.219.525.219.635 0 .57-.81.59-.963.59-.219 0-.415 0-.415.373 0 .196.219.196.262.196.744 0 1.51-.065 2.253-.065.416 0 1.422.065 1.838.065.088 0 .327 0 .327-.373 0-.196-.196-.196-.371-.196-.766-.02-1.007-.196-1.29-.853zm0 0" aria-label="K" style="fill:#048;fill-opacity:1;fill-rule:nonzero;stroke:none;stroke-width:1.86666"/><path d="M162.766 51c.175-.174.22-.218.22-.327a2 2 0 0 0-.088-.263l-2.428-5.49h4.528c2.778 0 3.63.415 3.63 2.406 0 .327-.087.7-.087.962 0 .045.023.242.243.242.216 0 .239-.155.261-.483l.35-3.214.044-.264c0-.24-.153-.24-.526-.24h-9.8c-.372 0-.547 0-.547.373 0 .043 0 .086.11.304l2.8 6.388-5.71 5.163c-.219.176-.24.196-.24.284 0 .2.174.2.524.2h9.8c.438 0 .46-.023.569-.307l1.357-3.565c0-.045.088-.286.088-.286 0-.108-.066-.218-.219-.218s-.198.11-.261.261c-1.14 2.78-2.192 3.35-5.427 3.35h-5.077zm0 0" aria-label="Σ" style="fill:#048;fill-opacity:1;fill-rule:nonzero;stroke:none;stroke-width:1.86666"/><path d="M156.565 86.1v-.59h-6.716v.59zm0 0" aria-label="¯" style="fill:#048;fill-opacity:1;fill-rule:nonzero;stroke:none;stroke-width:1.86666"/><path d="M147.816 98.767c-.153.635-.175.765-1.008.765-.218 0-.414 0-.414.35 0 .152.087.218.24.218.504 0 1.027-.065 1.554-.065.612 0 1.246.065 1.836.065.11 0 .351 0 .351-.374 0-.196-.198-.196-.459-.196-.92 0-.92-.13-.92-.306 0-.218.788-3.259.896-3.718.265.547.767 1.182 1.73 1.182 2.143 0 4.484-2.713 4.484-5.447 0-1.751-1.072-2.976-2.494-2.976-.918 0-1.816.68-2.427 1.4-.175-1.006-.985-1.4-1.663-1.4-.853 0-1.226.723-1.38 1.072-.348.634-.59 1.75-.59 1.794 0 .197.197.197.242.197.175 0 .196-.022.306-.438.306-1.313.677-2.209 1.357-2.209.327 0 .567.154.567.854 0 .436-.043.634-.13.94zm3.28-8.073c.13-.504.634-1.027.963-1.313.657-.569 1.182-.7 1.51-.7.743 0 1.18.656 1.18 1.75s-.612 3.238-.94 3.938c-.634 1.312-1.53 1.925-2.21 1.925-1.224 0-1.465-1.553-1.465-1.662 0-.044 0-.067.043-.308zm0 0" aria-label="p" style="fill:#048;fill-opacity:1;fill-rule:nonzero;stroke:none;stroke-width:1.86666"/><path d="M108.005 50.687c0-10.957-8.886-19.842-19.843-19.842S68.32 39.73 68.32 50.687c0 10.958 8.886 19.843 19.843 19.843s19.843-8.885 19.843-19.843z" style="fill:url(#b);fill-opacity:1;fill-rule:nonzero;stroke:#da3;stroke-width:1.4882;stroke-linecap:butt;stroke-linejoin:miter;stroke-miterlimit:10;stroke-dasharray:none;stroke-opacity:1"/><path d="M40.402 50.687h27.173" style="fill:none;stroke:#da3;stroke-width:1.48775;stroke-linecap:butt;stroke-linejoin:miter;stroke-miterlimit:10;stroke-dasharray:5.57914,5.57914;stroke-dashoffset:0;stroke-opacity:1"/><path d="m105.29 62.106 35.12 23.415" style="fill:none;stroke:#da3;stroke-width:1.48775;stroke-linecap:butt;stroke-linejoin:miter;stroke-miterlimit:10;stroke-dasharray:none;stroke-opacity:1"/><path d="m112.718 67.058 7.416 11.075 5.658-8.488z" style="fill:#da3;fill-opacity:1;fill-rule:nonzero;stroke:none;stroke-width:1.86666"/><path d="M108.75 50.687h39.134" style="fill:none;stroke:#da3;stroke-width:1.48775;stroke-linecap:butt;stroke-linejoin:miter;stroke-miterlimit:10;stroke-dasharray:none;stroke-opacity:1"/><path d="m135.194 50.687-12.312-5.1v10.2z" style="fill:#da3;fill-opacity:1;fill-rule:nonzero;stroke:none;stroke-width:1.86666"/><path d="m105.29 39.267 31.235-20.824" style="fill:none;stroke:#da3;stroke-width:1.48775;stroke-linecap:butt;stroke-linejoin:miter;stroke-miterlimit:10;stroke-dasharray:5.57914,5.57914;stroke-dashoffset:3.71942;stroke-opacity:1"/><metadata><rdf:RDF><cc:Work><dc:creator><cc:Agent><dc:title>Remco de Boer</dc:title></cc:Agent></dc:creator><cc:license rdf:resource="http://creativecommons.org/licenses/by/4.0/"/></cc:Work><cc:License rdf:about="http://creativecommons.org/licenses/by/4.0/"><cc:permits rdf:resource="http://creativecommons.org/ns#Reproduction"/><cc:permits rdf:resource="http://creativecommons.org/ns#Distribution"/><cc:requires rdf:resource="http://creativecommons.org/ns#Notice"/><cc:requires rdf:resource="http://creativecommons.org/ns#Attribution"/><cc:permits rdf:resource="http://creativecommons.org/ns#DerivativeWorks"/></cc:License></rdf:RDF></metadata></svg>