<svg xmlns="http://www.w3.org/2000/svg" xmlns:cc="http://creativecommons.org/ns#" xmlns:dc="http://purl.org/dc/elements/1.1/" xmlns:inkscape="http://www.inkscape.org/namespaces/inkscape" xmlns:rdf="http://www.w3.org/1999/02/22-rdf-syntax-ns#" xmlns:sodipodi="http://sodipodi.sourceforge.net/DTD/sodipodi-0.dtd" xmlns:xlink="http://www.w3.org/1999/xlink" inkscape:version="1.4.2 (1:1.4.2+202505120737+ebf0e940d0)" sodipodi:docname="jpsi-reconstruction-scheme.svg" xml:space="preserve" width="207.017" height="107.281" viewBox="0 0 54.773 28.385"><sodipodi:namedview inkscape:current-layer="svg23" inkscape:cx="103.392" inkscape:cy="53.623" inkscape:deskcolor="#d1d1d1" inkscape:pagecheckerboard="0" inkscape:pageopacity="0" inkscape:showpageshadow="2" inkscape:window-height="1371" inkscape:window-maximized="1" inkscape:window-width="2560" inkscape:window-x="0" inkscape:window-y="32" inkscape:zoom="4.28" bordercolor="#000000" borderopacity=".25" pagecolor="#ffffff"/><defs><path id="a" d="M447 625q0 12-93 12h-25q-6 5-6 8t2 19q4 13 10 19h17q41-2 146-2h70q27 0 37 1t14 0q14 0 14-10 0-2-3-14-4-16-7-18t-19-3q-52 0-59-14-4-13-62-247-63-248-64-249-22-63-86-106T195-22q-58 0-98 30T57 88q0 42 23 64t52 22q45 0 50-44 0-32-18-50t-41-24q-8-2-8-3t7-9q26-29 75-29 38 0 74 32t53 83q4 12 63 250t60 245"/><path id="b" d="M423 750q9 0 15-6t6-14q0-5-173-482T92-240q-7-10-17-10-7 0-13 5t-6 14q0 10 174 488t177 483q4 10 16 10"/><path id="c" d="M161 441q41 0 65-24t24-59q0-20-32-106t-31-125q3-42 27-66 21-18 43-24 18-8 31-8h1l82 331q84 331 85 332 3 2 16 2 20 0 20-7 0-9-81-331-82-328-82-329t6-1q86 0 163 88t78 164q0 24-8 41t-18 24-18 18-8 23q0 21 17 40t42 19q19 0 35-18t16-59q0-29-11-78t-18-68q-32-95-113-163T329-11h-10l-23-93q-24-94-24-95-2-6-20-6h-13q-6 6-6 8 0 5 23 95t23 93q-7 1-14 1-159 22-159 147 0 35 33 125t34 115v14q0 3-4 7t-11 4h-4q-23 0-42-19t-30-41-17-42-8-22-16-2H27q-6 6-6 9 0 12 13 46t48 71 79 37"/><path id="d" d="M23 287q1 3 2 8t5 22 10 31 15 33 20 30 26 22 33 9q75 0 96-64l10 9q62 55 118 55 65 0 102-47t37-114q0-108-76-199T249-10q-22 0-39 6-11 5-23 15t-19 17l-7 8q-1-1-22-87t-21-87q0-6 8-7t37-3h25q6-7 6-9t-3-18q-3-12-6-15t-13-4h-11q-9 0-34 1t-62 1q-70 0-89-2h-8q-7 7-7 11 2 27 13 35h20q34 1 39 12 3 6 61 239t61 247q1 5 1 14 0 41-25 41-22 0-37-28t-23-61-12-36q-2-2-16-2H29q-6 6-6 9m155-185q22-76 74-76 30 0 58 23t46 58q18 34 36 108t19 110v6q0 74-61 74-11 0-22-3t-22-9-20-13-17-15l-15-15q-7-7-11-14t-8-10l-3-4q0-1-3-14t-11-44-14-52q-26-106-26-110"/><path id="e" d="M69 544v46h361v-46z"/><path id="k" d="M56 237v13q0 13 14 20h299v150l1 150q10 13 19 13 13 0 20-15V270h298q15-8 15-20t-15-20H409V-68q-8-14-18-14h-4q-12 0-18 14v298H70q-14 7-14 20z"/><path id="f" d="M285 628q0 7-57 9-23 0-30 1t-7 9q0 2 2 14 6 20 10 21 2 1 11 1h5q41-2 136-2h63q29 0 45 1t20 0q17 0 17-8 0-5-3-14-1-2-1-6t-1-6l-2-4q-1-2-3-3l-4-2q-2-1-7-1t-9-1-14 0q-40-1-51-3t-18-11l-81-318q1 0 184 144t188 148q14 14 14 23 0 15-25 17-16 0-16 11 0 2 3 14t5 15q3 5 17 5 4 0 35-1t80-1q23 0 48 1t30 1q20 0 20-10 0-22-8-30-3-5-19-5-75-5-136-51-16-10-70-52t-100-79l-47-37 9-22q9-22 28-67t35-85q75-177 80-183 2-2 5-4 14-10 51-11h21q6-8 6-9t-3-18q-4-13-10-19h-11q-40 3-95 3-122 0-137-3h-10q-6 6-6 9t2 18q4 13 6 16t11 3h3q50 0 50 25 0 4-27 70t-32 75l-58 138-136-106-23-93q-23-92-23-97 0-7 8-9t50-3h31q6-9 6-11 0-16-7-30-5-5-16-5-3 0-37 1T180 2H85Q52 2 49 1 31 1 31 11q0 2 3 14 4 16 8 18t23 3q27 0 60 3 14 3 19 12 3 4 72 278t69 289"/><path id="g" d="M96 585q56 81 153 81 48 0 96-26t78-92q37-83 37-228 0-155-43-237-20-42-55-67t-61-31-51-7q-26 0-52 6t-61 32-55 67q-43 82-43 237 0 174 57 265m225 12q-30 32-71 32-42 0-72-32-25-26-33-72t-8-192q0-158 8-208t36-79q28-30 69-30 40 0 68 30 29 30 36 84t8 203q0 145-8 191t-33 73"/><path id="h" d="M308 24q59 0 108 52t50 121q0 63-52 87-106 27-136 37t-42 20q-60 42-60 121 0 61 32 111t65 75q29 25 70 40t64 16h18q96 0 139-64 1 0 13 13t26 29 20 22h4q3 0 5 1 13 0 13-7t-28-121-32-118-16-3q-20 0-20 9 0 6 1 10 0 3 1 19t2 26q0 34-9 59t-18 37-25 25q-36 21-82 21-57 0-106-46t-50-106q0-30 15-52t41-31q4-2 70-19t67-18q34-11 66-48t32-100q0-26-8-56-5-22-18-49t-36-59-66-60-94-38q-12-2-34-2-99 0-154 55l-10 11-28-31Q83-14 78-18t-13-4q-13 0-13 8 0 3 58 235 2 6 20 6h13q6-6 6-11 0-2-1-9t-4-21-2-33q2-39 18-66t43-40 52-18 53-5"/><path id="i" d="M132-11q-34 0-34 33v11l13 28q75 158 109 273l8 24h-32q-38 0-54-3t-39-19q-11-7-22-18t-19-21-9-12q-2-1-15-1-19 0-19 10 0 6 19 35t55 62 71 38q7 2 225 2 160 0 164-1 20-7 20-28 0-31-32-42-6-2-69-2h-64l-3-17q-12-72-12-119 0-52 9-93t19-64 10-28q0-17-14-32t-36-15q-11 0-18 3t-16 24-16 60q-1 9-1 44 0 49 9 105t18 92l10 40h-98l-1-4q0-3-19-79t-43-161-31-97q-11-28-43-28"/><path id="m" d="M84 237v13q0 13 14 20h581q15-8 15-20t-15-20H98q-14 7-14 20z"/><path id="o" d="M31 249q-20 0-20 9 0 17 15 46t40 61 63 53 77 23q27 0 33-1 48-11 79-54t53-131q14-60 14-85 0-4 1-4l12 27q20 51 45 107t43 91 22 39q2 1 16 1h13q6-6 6-9 0-4-21-44t-59-127-72-180q-6-16-13-65t-21-106q-16-65-27-90t-27-26q-17 0-17 28 0 50 54 220l6 19 1 18q1 10 1 31 0 157-57 217-40 38-95 38-48 0-88-26t-57-69q-2-9-4-9-2-2-16-2"/><path id="r" d="m219 659 155-354L71 33c-9-8-13-14-13-18C58 5 69 0 90 0h521c23 0 28 0 34 19l72 189c1 3 3 9 5 17 0 10-5 15-16 15-7 0-13-5-17-16-31-73-66-122-106-145-36-21-96-31-180-31H145l304 274c9 8 14 15 14 21L331 644h235c66 0 110-5 133-15 37-17 56-53 56-109 0-10-4-42-4-51v-4c3-8 8-12 16-12 10 0 16 9 18 28 7 62 13 124 21 185 0 11-11 17-32 17H253c-23 0-34-1-34-24"/><path id="s" d="M698 274H413v285q0 24-24 24t-24-24V274H80q-24 0-24-24t24-24h285V-59q0-24 24-24t24 24v285h285q24 0 24 24c0 13-11 24-24 24"/><marker id="q" markerHeight="1" markerWidth="1" orient="auto-start-reverse" overflow="visible" preserveAspectRatio="xMidYMid" viewBox="0 0 1 1"><path fill="context-stroke" fill-rule="evenodd" d="M-1.4-2.8 6.3 0l-7.7 2.8C0 1.169 0-1.162-1.4-2.8"/></marker><marker id="p" markerHeight="1" markerWidth="1" orient="auto-start-reverse" overflow="visible" preserveAspectRatio="xMidYMid" viewBox="0 0 1 1"><path fill="context-stroke" fill-rule="evenodd" d="M-1.4-2.8 6.3 0l-7.7 2.8C0 1.169 0-1.162-1.4-2.8"/></marker></defs><g data-mml-node="mi" style="fill:#999;stroke-width:0" transform="matrix(.00479 0 0 -.00479 .52 4.817)"><use xlink:href="#a" data-c="1D43D" style="stroke:none"/></g><g data-mjx-texclass="ORD" data-mml-node="TeXAtom" style="fill:#999;stroke-width:0"><use xlink:href="#b" data-c="2F" data-mml-node="mo" style="stroke:none" transform="matrix(.00479 0 0 -.00479 3.552 4.817)"/></g><g data-mml-node="mi" style="fill:#999;stroke-width:0" transform="matrix(.00479 0 0 -.00479 5.946 4.817)"><use xlink:href="#c" data-c="1D713" style="stroke:none"/></g><g fill="#17365c" data-mml-node="mover" style="stroke-width:0"><use xlink:href="#d" data-c="1D45D" data-mml-node="mi" style="fill:#048;stroke:none" transform="matrix(.00479 0 0 -.00479 21.716 4.817)"/><use xlink:href="#e" data-c="AF" data-mml-node="mo" style="fill:#048;stroke:none" transform="matrix(.00479 0 0 -.00479 22.122 4.802)"/></g><g fill="#8dae10" data-mml-node="msubsup" style="fill:#da3;stroke:none;stroke-width:0"><use xlink:href="#f" data-c="1D43E" data-mml-node="mi" style="fill:#da3;stroke:none" transform="matrix(.00479 0 0 -.00479 31.945 4.817)"/><use xlink:href="#g" data-c="30" data-mml-node="mn" style="fill:#da3;stroke:none" transform="matrix(.00339 0 0 -.00339 36.61 3.049)"/><use xlink:href="#h" data-c="1D446" data-mml-node="mi" style="fill:#da3;stroke:none" transform="matrix(.00339 0 0 -.00339 36.17 6.373)"/></g><g fill="#17365c" data-mml-node="msup" style="stroke-width:0"><use xlink:href="#i" data-c="1D70B" data-mml-node="mi" style="fill:#048;stroke:none" transform="matrix(.00479 0 0 -.00479 39.834 12.746)"/><use xlink:href="#k" data-c="2B" data-mml-node="mo" style="fill:#048;stroke:none" transform="matrix(.00339 0 0 -.00339 42.722 11.007)"/></g><g fill="#17365c" data-mml-node="msup" style="stroke-width:0"><use xlink:href="#i" data-c="1D70B" data-mml-node="mi" style="fill:#048;stroke:none" transform="matrix(.00479 0 0 -.00479 45.595 12.746)"/><use xlink:href="#m" data-c="2212" data-mml-node="mo" style="fill:#048;stroke:none" transform="matrix(.00339 0 0 -.00339 48.483 11.007)"/></g><g fill="#8dae10" data-mml-node="msup" style="fill:#da3;stroke:none;stroke-width:0"><use xlink:href="#i" data-c="1D70B" data-mml-node="mi" style="fill:#da3;stroke:none" transform="matrix(.00479 0 0 -.00479 39.834 19.852)"/><use xlink:href="#g" data-c="30" data-mml-node="mn" style="fill:#da3;stroke:none" transform="matrix(.00339 0 0 -.00339 42.722 18.114)"/></g><g fill="#17365c" data-mml-node="mi" style="stroke-width:0" transform="matrix(.00479 0 0 -.00479 44.654 19.852)"><use xlink:href="#d" data-c="1D45D" style="fill:#048;stroke:none"/></g><g fill="#17365c" data-mml-node="mtr" style="stroke-width:0"><g data-mml-node="mtd"><use xlink:href="#o" data-c="1D6FE" data-mml-node="mi" style="fill:#048;stroke:none" transform="matrix(.00479 0 0 -.00479 48.779 26.557)"/><use xlink:href="#o" data-c="1D6FE" data-mml-node="mi" style="fill:#048;stroke:none" transform="matrix(.00479 0 0 -.00479 51.38 26.557)"/></g></g><path marker-end="url(#p)" d="M11.043 3.646h6.975" style="fill:none;stroke:#999;stroke-width:.25;stroke-linecap:round;stroke-linejoin:round;stroke-miterlimit:6"/><path marker-end="url(#p)" d="M33.816 6.835v4.905h2.78" style="fill:none;stroke:#999;stroke-width:.25;stroke-linecap:round;stroke-linejoin:round;stroke-miterlimit:6"/><path marker-end="url(#p)" d="m27.182 6.835.017 12.14h9.397" style="fill:none;stroke:#999;stroke-width:.25;stroke-linecap:round;stroke-linejoin:round;stroke-miterlimit:6"/><path marker-start="url(#q)" d="M45.97 26.054h-4.89v-4.28" style="fill:none;stroke:#999;stroke-width:.25;stroke-linecap:round;stroke-linejoin:round;stroke-miterlimit:6"/><g style="fill:#da3;stroke:none" transform="translate(1.109)"><use xlink:href="#r" data-c="1D6F4" style="fill:#da3;stroke:none;stroke-width:0" transform="matrix(.00479 0 0 -.00479 23.994 4.821)"/><use xlink:href="#s" data-c="2B" style="fill:#da3;stroke:none;stroke-width:0" transform="matrix(.00339 0 0 -.00339 28.258 2.844)"/></g><metadata><rdf:RDF><cc:Work><dc:creator><cc:Agent><dc:title>Remco de Boer</dc:title></cc:Agent></dc:creator><cc:license rdf:resource="http://creativecommons.org/licenses/by/4.0/"/></cc:Work><cc:License rdf:about="http://creativecommons.org/licenses/by/4.0/"><cc:permits rdf:resource="http://creativecommons.org/ns#Reproduction"/><cc:permits rdf:resource="http://creativecommons.org/ns#Distribution"/><cc:requires rdf:resource="http://creativecommons.org/ns#Notice"/><cc:requires rdf:resource="http://creativecommons.org/ns#Attribution"/><cc:permits rdf:resource="http://creativecommons.org/ns#DerivativeWorks"/></cc:License></rdf:RDF></metadata></svg>