<svg xmlns="http://www.w3.org/2000/svg" xmlns:cc="http://creativecommons.org/ns#" xmlns:dc="http://purl.org/dc/elements/1.1/" xmlns:inkscape="http://www.inkscape.org/namespaces/inkscape" xmlns:rdf="http://www.w3.org/1999/02/22-rdf-syntax-ns#" xmlns:sodipodi="http://sodipodi.sourceforge.net/DTD/sodipodi-0.dtd" xmlns:xlink="http://www.w3.org/1999/xlink" inkscape:version="1.4.2 (1:1.4.2+202505120737+ebf0e940d0)" sodipodi:docname="p-gamma-to-sigma-k.svg" width="154.818" height="90.789" viewBox="0 0 154.818 90.789"><sodipodi:namedview inkscape:current-layer="svg11" inkscape:cx="77.322" inkscape:cy="45.345" inkscape:deskcolor="#d1d1d1" inkscape:pagecheckerboard="0" inkscape:pageopacity="0" inkscape:showpageshadow="2" inkscape:window-height="1371" inkscape:window-maximized="1" inkscape:window-width="2560" inkscape:window-x="0" inkscape:window-y="32" inkscape:zoom="5.723" bordercolor="#000000" borderopacity=".25" pagecolor="#ffffff"/><defs><pattern xlink:href="#a" id="b" patternTransform="matrix(1.86666 0 0 -1.86666 76.058 45.396)"/><pattern id="a" width="4.981" height="4.981" x="0" y="0" patternUnits="userSpaceOnUse"><path d="M0 2.989 3.088-.1" style="fill:none;stroke:#da3;stroke-opacity:1;stroke-width:.3985;stroke-linecap:butt;stroke-linejoin:miter;stroke-miterlimit:10;stroke-dasharray:none" transform="translate(.996 .996)"/></pattern></defs><path d="M2.706 5.83c.722-2.147 2.757-2.167 2.953-2.167 2.8 0 3.02 3.259 3.02 4.724 0 1.139-.11 1.466-.22 1.839-.414 1.355-.984 3.5-.984 3.98 0 .22.11.35.241.35.241 0 .394-.416.612-1.116.417-1.575.613-2.624.678-3.192.045-.263.067-.504.153-.746.592-1.837 1.773-4.592 2.516-6.08.131-.218.374-.612.374-.7 0-.176-.198-.176-.243-.176-.043 0-.153 0-.218.131-.962 1.751-1.706 3.61-2.45 5.492-.022-.57-.044-1.99-.765-3.784C7.935 3.246 7.192 2.328 5.9 2.328c-2.318 0-3.63 2.822-3.63 3.412 0 .176.175.176.35.176zm0 0" aria-label="γ" style="fill:#048;fill-opacity:1;fill-rule:nonzero;stroke:none;stroke-width:1.86666"/><path d="M3.422 86.908c-.153.635-.175.765-1.006.765-.218 0-.416 0-.416.35 0 .153.088.22.243.22.502 0 1.026-.067 1.55-.067.615 0 1.248.067 1.84.067.108 0 .349 0 .349-.374 0-.196-.196-.196-.46-.196-.918 0-.918-.13-.918-.306 0-.218.788-3.259.896-3.718.263.547.765 1.18 1.729 1.18 2.144 0 4.485-2.713 4.485-5.447 0-1.75-1.073-2.974-2.494-2.974-.92 0-1.816.678-2.428 1.4-.176-1.008-.984-1.4-1.662-1.4-.855 0-1.226.72-1.38 1.072-.35.634-.589 1.749-.589 1.792 0 .197.196.197.239.197.175 0 .198-.02.308-.436.306-1.313.678-2.21 1.355-2.21.329 0 .57.153.57.853 0 .438-.045.634-.131.94zm3.282-8.073c.13-.504.635-1.027.963-1.312.655-.568 1.18-.7 1.508-.7.745 0 1.182.657 1.182 1.75 0 1.094-.612 3.237-.94 3.94-.635 1.31-1.531 1.922-2.209 1.922-1.226 0-1.467-1.553-1.467-1.662 0-.044 0-.065.045-.306zm0 0" aria-label="p" style="fill:#048;fill-opacity:1;fill-rule:nonzero;stroke:none;stroke-width:1.86666"/><path d="M145.753 7.208c-.02-.067-.108-.22-.108-.263 0-.023.349-.286.547-.439l3.259-2.514c1.749-1.27 2.471-1.357 3.018-1.4.153-.023.35-.045.35-.374 0-.085-.066-.218-.22-.218-.391 0-.875.065-1.311.065-.678 0-1.4-.065-2.056-.065-.13 0-.373 0-.373.373 0 .131.11.196.243.219.392.02.567.13.567.392 0 .328-.547.746-.677.855l-7.243 5.577 1.49-5.973c.173-.678.196-.851 1.553-.851.48 0 .634 0 .634-.374 0-.173-.155-.218-.263-.218-.504 0-1.86.065-2.363.065-.547 0-1.86-.065-2.406-.065-.131 0-.374 0-.374.373 0 .219.178.219.55.219.24 0 .569.02.787.02.306.045.414.112.414.308 0 .066-.02.13-.086.35l-2.493 9.995c-.176.723-.22.878-1.686.878-.306 0-.525 0-.525.349 0 .218.241.218.284.218.527 0 1.839-.065 2.363-.065.392 0 .81.02 1.182.02.414 0 .83.045 1.224.045.131 0 .374 0 .374-.373 0-.196-.176-.196-.527-.196-.7 0-1.202 0-1.202-.35 0-.13.109-.526.153-.81.262-.96.504-1.946.743-2.93l2.778-2.145 2.165 5.01c.22.482.22.525.22.635 0 .57-.81.59-.963.59-.218 0-.416 0-.416.373 0 .196.22.196.261.196.747 0 1.512-.065 2.255-.065.417 0 1.423.065 1.837.065.088 0 .329 0 .329-.373 0-.196-.196-.196-.374-.196-.765-.02-1.004-.196-1.288-.853zm0 0" aria-label="K" style="fill:#048;fill-opacity:1;fill-rule:nonzero;stroke:none;stroke-width:1.86666"/><path d="M145.37 82.752c.175-.175.218-.218.218-.329a2 2 0 0 0-.088-.26l-2.426-5.493h4.526c2.78 0 3.633.417 3.633 2.408 0 .327-.088.699-.088.962 0 .043.023.24.241.24s.24-.153.261-.481l.351-3.216.043-.262c0-.242-.153-.242-.522-.242h-9.8c-.374 0-.55 0-.55.373 0 .045 0 .088.11.306l2.8 6.388-5.71 5.163c-.218.174-.24.196-.24.284 0 .196.177.196.526.196h9.8c.437 0 .46-.02.568-.306l1.357-3.566c0-.043.088-.283.088-.283 0-.11-.068-.219-.22-.219-.154 0-.197.108-.262.262-1.139 2.779-2.188 3.346-5.426 3.346h-5.078zm0 0" aria-label="Σ" style="fill:#048;fill-opacity:1;fill-rule:nonzero;stroke:none;stroke-width:1.86666"/><path d="M95.9 45.396c0-10.958-8.885-19.843-19.842-19.843-10.958 0-19.843 8.885-19.843 19.843S65.1 65.238 76.058 65.238 95.9 56.353 95.9 45.396z" style="fill:url(#b);fill-opacity:1;fill-rule:nonzero;stroke:#da3;stroke-width:1.48775;stroke-linecap:butt;stroke-linejoin:miter;stroke-miterlimit:10;stroke-dasharray:none;stroke-opacity:1"/><path d="M19.17 14.762c.507.394 1.028.504 1.568.103.823-.35 1.732-.719 2.625-.434.564.275.924.9 1.061 1.517.499 1.51.364 3.24 1.176 4.63.32.539.849.694 1.442.727 1.855-.268 3.41-1.561 5.27-1.785.607.008 1.097.233 1.43.753.897 1.676.607 3.756 1.472 5.449.342.502.8.786 1.415.778 1.893-.172 3.472-1.56 5.361-1.77.606.009 1.096.234 1.428.754.899 1.675.61 3.756 1.473 5.45.341.501.8.787 1.417.778 1.892-.173 3.472-1.56 5.359-1.77.607.008 1.097.234 1.43.754.897 1.674.608 3.756 1.472 5.449.35.585.795.742 1.364.322l1.999-.83M18.518 76.38l39.414-21.223" style="fill:none;stroke:#da3;stroke-width:1.48775;stroke-linecap:butt;stroke-linejoin:miter;stroke-miterlimit:10;stroke-dasharray:none;stroke-opacity:1"/><path d="m44.274 62.513-13.26 1.346 4.836 8.98z" style="fill:#da3;fill-opacity:1;fill-rule:nonzero;stroke:none;stroke-width:1.86666"/><path d="m94.183 55.157 36.307 19.551" style="fill:none;stroke:#da3;stroke-width:1.48775;stroke-linecap:butt;stroke-linejoin:miter;stroke-miterlimit:10;stroke-dasharray:none;stroke-opacity:1"/><path d="m118.39 68.191-8.424-10.326-4.835 8.98z" style="fill:#da3;fill-opacity:1;fill-rule:nonzero;stroke:none;stroke-width:1.86666"/><path d="m94.183 35.635 35.53-19.133" style="fill:none;stroke:#da3;stroke-width:1.48775;stroke-linecap:butt;stroke-linejoin:miter;stroke-miterlimit:10;stroke-dasharray:5.57914,5.57914;stroke-dashoffset:2.23165;stroke-opacity:1"/><metadata><rdf:RDF><cc:Work><dc:creator><cc:Agent><dc:title>Remco de Boer</dc:title></cc:Agent></dc:creator><cc:license rdf:resource="http://creativecommons.org/licenses/by/4.0/"/></cc:Work><cc:License rdf:about="http://creativecommons.org/licenses/by/4.0/"><cc:permits rdf:resource="http://creativecommons.org/ns#Reproduction"/><cc:permits rdf:resource="http://creativecommons.org/ns#Distribution"/><cc:requires rdf:resource="http://creativecommons.org/ns#Notice"/><cc:requires rdf:resource="http://creativecommons.org/ns#Attribution"/><cc:permits rdf:resource="http://creativecommons.org/ns#DerivativeWorks"/></cc:License></rdf:RDF></metadata></svg>