<svg xmlns="http://www.w3.org/2000/svg" xmlns:cc="http://creativecommons.org/ns#" xmlns:dc="http://purl.org/dc/elements/1.1/" xmlns:inkscape="http://www.inkscape.org/namespaces/inkscape" xmlns:rdf="http://www.w3.org/1999/02/22-rdf-syntax-ns#" xmlns:sodipodi="http://sodipodi.sourceforge.net/DTD/sodipodi-0.dtd" xmlns:xlink="http://www.w3.org/1999/xlink" inkscape:version="1.4.2 (1:1.4.2+202505120737+ebf0e940d0)" sodipodi:docname="parallelisation-parameter-space.svg" id="svg208" width="539.745" height="448.087" viewBox="0 0 404.809 336.065"><sodipodi:namedview inkscape:current-layer="svg208" inkscape:cx="270.177" inkscape:cy="223.878" inkscape:deskcolor="#d1d1d1" inkscape:pagecheckerboard="0" inkscape:pageopacity="0" inkscape:showpageshadow="2" inkscape:window-height="1371" inkscape:window-maximized="1" inkscape:window-width="2560" inkscape:window-x="0" inkscape:window-y="32" inkscape:zoom="1.642" id="namedview1" bordercolor="#000000" borderopacity=".25" pagecolor="#ffffff"/><defs id="defs1"><style id="style1" type="text/css">*{stroke-linejoin:round;stroke-linecap:butt}</style></defs><g id="figure_1" transform="translate(-8.015 -4.55)"><g id="axes_1"><g id="matplotlib.axis_1"><g id="xtick_1"><g id="line2d_1"><defs id="defs2"><path id="m0f6143dc4e" d="M0 0v3.5" style="stroke:#000;stroke-width:.8"/></defs><g id="g2"><use xlink:href="#m0f6143dc4e" id="use2" x="50.174" y="96.141" style="stroke:#000;stroke-width:.8"/></g></g></g><g id="xtick_2"><g id="line2d_2"><g id="g3"><use xlink:href="#m0f6143dc4e" id="use3" x="147.498" y="96.141" style="stroke:#000;stroke-width:.8"/></g></g></g><g id="xtick_3"><g id="line2d_3"><g id="g4"><use xlink:href="#m0f6143dc4e" id="use4" x="244.822" y="96.141" style="stroke:#000;stroke-width:.8"/></g></g></g><g id="xtick_4"><g id="line2d_4"><g id="g5"><use xlink:href="#m0f6143dc4e" id="use5" x="342.147" y="96.141" style="stroke:#000;stroke-width:.8"/></g></g></g><g id="xtick_5"><g id="line2d_5"><defs id="defs5"><path id="m83976c66a4" d="M0 0v2" style="stroke:#000;stroke-width:.6"/></defs><g id="g6"><use xlink:href="#m83976c66a4" id="use6" x="79.471" y="96.141" style="stroke:#000;stroke-width:.6"/></g></g></g><g id="xtick_6"><g id="line2d_6"><g id="g7"><use xlink:href="#m83976c66a4" id="use7" x="96.609" y="96.141" style="stroke:#000;stroke-width:.6"/></g></g></g><g id="xtick_7"><g id="line2d_7"><g id="g8"><use xlink:href="#m83976c66a4" id="use8" x="108.769" y="96.141" style="stroke:#000;stroke-width:.6"/></g></g></g><g id="xtick_8"><g id="line2d_8"><g id="g9"><use xlink:href="#m83976c66a4" id="use9" x="118.2" y="96.141" style="stroke:#000;stroke-width:.6"/></g></g></g><g id="xtick_9"><g id="line2d_9"><g id="g10"><use xlink:href="#m83976c66a4" id="use10" x="125.907" y="96.141" style="stroke:#000;stroke-width:.6"/></g></g></g><g id="xtick_10"><g id="line2d_10"><g id="g11"><use xlink:href="#m83976c66a4" id="use11" x="132.422" y="96.141" style="stroke:#000;stroke-width:.6"/></g></g></g><g id="xtick_11"><g id="line2d_11"><g id="g12"><use xlink:href="#m83976c66a4" id="use12" x="138.066" y="96.141" style="stroke:#000;stroke-width:.6"/></g></g></g><g id="xtick_12"><g id="line2d_12"><g id="g13"><use xlink:href="#m83976c66a4" id="use13" x="143.045" y="96.141" style="stroke:#000;stroke-width:.6"/></g></g></g><g id="xtick_13"><g id="line2d_13"><g id="g14"><use xlink:href="#m83976c66a4" id="use14" x="176.796" y="96.141" style="stroke:#000;stroke-width:.6"/></g></g></g><g id="xtick_14"><g id="line2d_14"><g id="g15"><use xlink:href="#m83976c66a4" id="use15" x="193.934" y="96.141" style="stroke:#000;stroke-width:.6"/></g></g></g><g id="xtick_15"><g id="line2d_15"><g id="g16"><use xlink:href="#m83976c66a4" id="use16" x="206.093" y="96.141" style="stroke:#000;stroke-width:.6"/></g></g></g><g id="xtick_16"><g id="line2d_16"><g id="g17"><use xlink:href="#m83976c66a4" id="use17" x="215.525" y="96.141" style="stroke:#000;stroke-width:.6"/></g></g></g><g id="xtick_17"><g id="line2d_17"><g id="g18"><use xlink:href="#m83976c66a4" id="use18" x="223.231" y="96.141" style="stroke:#000;stroke-width:.6"/></g></g></g><g id="xtick_18"><g id="line2d_18"><g id="g19"><use xlink:href="#m83976c66a4" id="use19" x="229.747" y="96.141" style="stroke:#000;stroke-width:.6"/></g></g></g><g id="xtick_19"><g id="line2d_19"><g id="g20"><use xlink:href="#m83976c66a4" id="use20" x="235.391" y="96.141" style="stroke:#000;stroke-width:.6"/></g></g></g><g id="xtick_20"><g id="line2d_20"><g id="g21"><use xlink:href="#m83976c66a4" id="use21" x="240.369" y="96.141" style="stroke:#000;stroke-width:.6"/></g></g></g><g id="xtick_21"><g id="line2d_21"><g id="g22"><use xlink:href="#m83976c66a4" id="use22" x="274.12" y="96.141" style="stroke:#000;stroke-width:.6"/></g></g></g><g id="xtick_22"><g id="line2d_22"><g id="g23"><use xlink:href="#m83976c66a4" id="use23" x="291.258" y="96.141" style="stroke:#000;stroke-width:.6"/></g></g></g><g id="xtick_23"><g id="line2d_23"><g id="g24"><use xlink:href="#m83976c66a4" id="use24" x="303.418" y="96.141" style="stroke:#000;stroke-width:.6"/></g></g></g><g id="xtick_24"><g id="line2d_24"><g id="g25"><use xlink:href="#m83976c66a4" id="use25" x="312.849" y="96.141" style="stroke:#000;stroke-width:.6"/></g></g></g><g id="xtick_25"><g id="line2d_25"><g id="g26"><use xlink:href="#m83976c66a4" id="use26" x="320.556" y="96.141" style="stroke:#000;stroke-width:.6"/></g></g></g><g id="xtick_26"><g id="line2d_26"><g id="g27"><use xlink:href="#m83976c66a4" id="use27" x="327.071" y="96.141" style="stroke:#000;stroke-width:.6"/></g></g></g><g id="xtick_27"><g id="line2d_27"><g id="g28"><use xlink:href="#m83976c66a4" id="use28" x="332.715" y="96.141" style="stroke:#000;stroke-width:.6"/></g></g></g><g id="xtick_28"><g id="line2d_28"><g id="g29"><use xlink:href="#m83976c66a4" id="use29" x="337.694" y="96.141" style="stroke:#000;stroke-width:.6"/></g></g></g><g id="xtick_29"><g id="line2d_29"><g id="g30"><use xlink:href="#m83976c66a4" id="use30" x="371.444" y="96.141" style="stroke:#000;stroke-width:.6"/></g></g></g><g id="xtick_30"><g id="line2d_30"><g id="g31"><use xlink:href="#m83976c66a4" id="use31" x="388.582" y="96.141" style="stroke:#000;stroke-width:.6"/></g></g></g><g id="xtick_31"><g id="line2d_31"><g id="g32"><use xlink:href="#m83976c66a4" id="use32" x="400.742" y="96.141" style="stroke:#000;stroke-width:.6"/></g></g></g><g id="xtick_32"><g id="line2d_32"><g id="g33"><use xlink:href="#m83976c66a4" id="use33" x="410.174" y="96.141" style="stroke:#000;stroke-width:.6"/></g></g></g></g><g id="matplotlib.axis_2"><g id="ytick_1"><g id="line2d_33"><defs id="defs33"><path id="m7c1becb6a2" d="M0 0h-3.5" style="stroke:#000;stroke-width:.8"/></defs><g id="g34"><use xlink:href="#m7c1becb6a2" id="use34" x="50.174" y="96.141" style="stroke:#000;stroke-width:.8"/></g></g><g id="text_1"><g id="g35" transform="matrix(.13 0 0 -.13 36.833 100.638)"><defs id="defs34"><path id="CMR17-30" d="M2688 2025c0 391-6 1055-275 1566-237 448-615 607-947 607-308 0-698-140-941-601-256-479-282-1073-282-1572 0-364 7-919 205-1406 275-658 768-747 1018-747 294 0 742 121 1004 728 192 442 218 959 218 1425M1466-26c-410 0-653 351-743 838-70 376-70 926-70 1284 0 492 0 901 83 1291 122 542 480 709 730 709 262 0 601-173 723-696 83-364 89-793 89-1304 0-416 0-927-76-1304-135-697-512-818-736-818" transform="scale(.01563)"/></defs><use xlink:href="#CMR17-30" id="use35" transform="scale(.99626)"/></g></g></g><g id="ytick_2"><g id="line2d_34"><g id="g36"><use xlink:href="#m7c1becb6a2" id="use36" x="50.174" y="59.377" style="stroke:#000;stroke-width:.8"/></g></g><g id="text_2"><g id="g39" transform="matrix(.13 0 0 -.13 24.151 63.874)"><defs id="defs36"><path id="CMR17-31" d="M1702 4058c0 134-6 134-96 134-249-276-627-365-985-365-19 0-51 0-58-19-6-13-6-26-6-160 198 0 531 38 787 191V461c0-225-13-301-563-301H589V0h1869v160h-192c-551 0-564 70-564 298z" transform="scale(.01563)"/></defs><use xlink:href="#CMR17-31" id="use37" transform="scale(.99626)"/><use xlink:href="#CMR17-30" id="use38" transform="translate(45.69)scale(.99626)"/><use xlink:href="#CMR17-30" id="use39" transform="translate(91.381)scale(.99626)"/></g></g></g><g id="ytick_3"><g id="line2d_35"><g id="g40"><use xlink:href="#m7c1becb6a2" id="use40" x="50.174" y="22.613" style="stroke:#000;stroke-width:.8"/></g></g><g id="text_3"><g id="g43" transform="matrix(.13 0 0 -.13 24.151 27.11)"><defs id="defs40"><path id="CMR17-32" d="M2669 989h-115c-64-453-116-530-141-569-32-51-493-51-583-51H602c230 250 678 703 1222 1228 390 370 845 805 845 1438 0 755-602 1189-1274 1189-704 0-1133-620-1133-1194 0-250 186-282 263-282 64 0 256 39 256 262 0 197-167 254-256 254-39 0-77-6-103-19 122 545 493 813 884 813 556 0 921-441 921-1023 0-556-326-1035-691-1451L262 146V0h2253z" transform="scale(.01563)"/></defs><use xlink:href="#CMR17-32" id="use41" transform="scale(.99626)"/><use xlink:href="#CMR17-30" id="use42" transform="translate(45.69)scale(.99626)"/><use xlink:href="#CMR17-30" id="use43" transform="translate(91.381)scale(.99626)"/></g></g></g><g id="text_4" transform="translate(3)"><g id="g55" transform="matrix(0 -.13 -.13 0 16.914 88.198)"><defs id="defs43"><path id="CMR17-49" d="M1261 3905c0 287 77 287 537 287v160H301v-160c461 0 537 0 537-287V447c0-287-76-287-537-287V0h1497v160c-460 0-537 0-537 287z" transform="scale(.01563)"/><path id="CMR17-74" d="M966 2560h896v165H966v1179H851c-13-659-237-1236-781-1236v-108h557V771c0-121 0-835 743-835 377 0 595 370 595 841v363h-115V783c0-439-173-732-442-732-186 0-442 127-442 707Z" transform="scale(.01563)"/><path id="CMR17-65" d="M2438 1472c26 26 26 39 26 104 0 662-346 1240-1075 1240-679 0-1216-647-1216-1433C173 551 781-64 1459-64c717 0 999 671 999 804 0 44-39 44-52 44-44 0-51-13-76-88-141-431-493-645-826-645-275 0-550 152-723 429-199 323-199 696-199 992Zm-1849 96c45 937 537 1146 793 1146 436 0 730-417 736-1146z" transform="scale(.01563)"/><path id="CMR17-72" d="M960 1497c0 615 262 1191 742 1191 45 0 90-6 135-26 0 0-141-45-141-210 0-154 122-218 218-218 76 0 217 45 217 224 0 205-205 332-422 332-487 0-698-473-762-697h-6v697l-743-70v-166c378 0 436-39 436-346V428c0-244-26-275-436-275V-13C352 0 646 0 813 0c185 0 512 0 685-13v166c-461 0-538 0-538 287z" transform="scale(.01563)"/><path id="CMR17-61" d="M2304 1653c0 419 0 641-269 890-237 209-512 273-729 273-506 0-871-409-871-845 0-243 192-243 231-243 83 0 230 50 230 226 0 158-122 227-230 227-26 0-58-7-77-13 134 424 480 546 704 546 320 0 672-285 672-829v-285c-378 0-832-51-1191-243-403-224-518-544-518-787 0-493 576-634 915-634 352 0 679 203 819 575 13-278 192-529 474-529 134 0 474 88 474 585v353h-116V562c0-384-172-434-256-434-262 0-262 330-262 610zm-339-783c0-553-397-832-749-832-320 0-570 237-570 532 0 191 84 530 455 735 307 173 659 199 864 199z" transform="scale(.01563)"/><path id="CMR17-69" d="M992 3909c0 140-115 261-262 261-141 0-263-114-263-261 0-140 115-261 263-261 140 0 262 115 262 261M243 2706v-165c359 0 410-39 410-344V427c0-243-26-274-435-274V-13C371 0 646 0 806 0c154 0 416 0 564-13v166c-378 0-391 38-391 267v2356z" transform="scale(.01563)"/><path id="CMR17-6f" d="M2758 1356c0 820-595 1460-1292 1460-698 0-1293-640-1293-1460C173 551 768-64 1466-64c697 0 1292 615 1292 1420M1466 51c-301 0-557 179-704 429-160 287-180 646-180 928 0 269 13 602 180 890 128 211 377 416 704 416 288 0 531-160 684-384 199-301 199-723 199-922 0-250-13-633-186-941-179-294-454-416-697-416" transform="scale(.01563)"/><path id="CMR17-6e" d="M2656 1933c0 326-64 857-819 857-506 0-768-390-864-646h-7v646l-755-70v-166c378 0 435-39 435-346V428c0-244-25-275-435-275V-13C365 0 646 0 813 0c166 0 454 0 608-13v166c-410 0-435 25-435 275v1230c0 589 358 1030 806 1030 474 0 525-422 525-730V428c0-244-26-275-435-275V-13c153 13 435 13 601 13 167 0 455 0 608-13v166c-409 0-435 25-435 275z" transform="scale(.01563)"/><path id="CMR17-73" d="M1978 2697c0 116-7 122-45 122-26 0-32-6-109-102-19-26-77-91-96-116-205 218-493 218-602 218-710 0-966-372-966-743 0-578 653-711 838-751 404-82 544-108 679-224 83-76 224-217 224-447 0-270-154-616-743-616-556 0-755 422-870 983-19 89-19 96-70 96-52 0-58-7-58-134V63c0-114 6-121 45-121 32 0 38 7 70 58 39 57 135 211 173 276C576 103 800-64 1158-64c634 0 973 347 973 848 0 328-173 501-256 578-192 199-416 244-685 295-352 78-800 168-800 560 0 166 90 520 736 520 685 0 724-643 736-849 7-32 39-39 58-39 58 0 58 20 58 129z" transform="scale(.01563)"/><path id="CMR17-2f" d="M2605 4545c32 82 32 95 32 108 0 76-58 115-109 115-77 0-102-51-128-128L326-1377c-32-83-32-96-32-109 0-76 58-114 109-114 77 0 103 51 128 127z" transform="scale(.01563)"/></defs><use xlink:href="#CMR17-49" id="use44" transform="scale(.99626)"/><use xlink:href="#CMR17-74" id="use45" transform="translate(32.638)scale(.99626)"/><use xlink:href="#CMR17-65" id="use46" transform="translate(67.92)scale(.99626)"/><use xlink:href="#CMR17-72" id="use47" transform="translate(108.405)scale(.99626)"/><use xlink:href="#CMR17-61" id="use48" transform="translate(143.686)scale(.99626)"/><use xlink:href="#CMR17-74" id="use49" transform="translate(189.376)scale(.99626)"/><use xlink:href="#CMR17-69" id="use50" transform="translate(224.657)scale(.99626)"/><use xlink:href="#CMR17-6f" id="use51" transform="translate(249.528)scale(.99626)"/><use xlink:href="#CMR17-6e" id="use52" transform="translate(295.218)scale(.99626)"/><use xlink:href="#CMR17-73" id="use53" transform="translate(346.114)scale(.99626)"/><use xlink:href="#CMR17-2f" id="use54" transform="translate(411.991)scale(.99626)"/><use xlink:href="#CMR17-73" id="use55" transform="translate(487.757)scale(.99626)"/></g></g></g><g id="line2d_36"><path id="path55" d="m50.174 87.244 29.297.441L96.61 85.59l21.591-4.154 29.298-4.743 46.436-24.3 50.888-22.868 46.436-7.206 50.889-5.772 46.435-2.095 12.16-2.243 9.432-1.176" clip-path="url(#p3e4a395cfe)" style="fill:none;stroke:#1f77b4;stroke-width:1.5;stroke-linecap:square"/></g><g id="patch_3"><path id="path56" d="M50.174 96.141V7.2" style="fill:none;stroke:#000;stroke-width:.8;stroke-linecap:square;stroke-linejoin:miter"/></g><g id="patch_4"><path id="path57" d="M410.174 96.141V7.2" style="fill:none;stroke:#000;stroke-width:.8;stroke-linecap:square;stroke-linejoin:miter"/></g><g id="patch_5"><path id="path58" d="M50.174 96.141h360" style="fill:none;stroke:#000;stroke-width:.8;stroke-linecap:square;stroke-linejoin:miter"/></g><g id="patch_6"><path id="path59" d="M50.174 7.2h360" style="fill:none;stroke:#000;stroke-width:.8;stroke-linecap:square;stroke-linejoin:miter"/></g></g><g id="axes_2"><g id="matplotlib.axis_3"><g id="xtick_33"><g id="line2d_37"><g id="g60"><use xlink:href="#m0f6143dc4e" id="use60" x="50.174" y="202.871" style="stroke:#000;stroke-width:.8"/></g></g></g><g id="xtick_34"><g id="line2d_38"><g id="g61"><use xlink:href="#m0f6143dc4e" id="use61" x="147.498" y="202.871" style="stroke:#000;stroke-width:.8"/></g></g></g><g id="xtick_35"><g id="line2d_39"><g id="g62"><use xlink:href="#m0f6143dc4e" id="use62" x="244.822" y="202.871" style="stroke:#000;stroke-width:.8"/></g></g></g><g id="xtick_36"><g id="line2d_40"><g id="g63"><use xlink:href="#m0f6143dc4e" id="use63" x="342.147" y="202.871" style="stroke:#000;stroke-width:.8"/></g></g></g><g id="xtick_37"><g id="line2d_41"><g id="g64"><use xlink:href="#m83976c66a4" id="use64" x="79.471" y="202.871" style="stroke:#000;stroke-width:.6"/></g></g></g><g id="xtick_38"><g id="line2d_42"><g id="g65"><use xlink:href="#m83976c66a4" id="use65" x="96.609" y="202.871" style="stroke:#000;stroke-width:.6"/></g></g></g><g id="xtick_39"><g id="line2d_43"><g id="g66"><use xlink:href="#m83976c66a4" id="use66" x="108.769" y="202.871" style="stroke:#000;stroke-width:.6"/></g></g></g><g id="xtick_40"><g id="line2d_44"><g id="g67"><use xlink:href="#m83976c66a4" id="use67" x="118.2" y="202.871" style="stroke:#000;stroke-width:.6"/></g></g></g><g id="xtick_41"><g id="line2d_45"><g id="g68"><use xlink:href="#m83976c66a4" id="use68" x="125.907" y="202.871" style="stroke:#000;stroke-width:.6"/></g></g></g><g id="xtick_42"><g id="line2d_46"><g id="g69"><use xlink:href="#m83976c66a4" id="use69" x="132.422" y="202.871" style="stroke:#000;stroke-width:.6"/></g></g></g><g id="xtick_43"><g id="line2d_47"><g id="g70"><use xlink:href="#m83976c66a4" id="use70" x="138.066" y="202.871" style="stroke:#000;stroke-width:.6"/></g></g></g><g id="xtick_44"><g id="line2d_48"><g id="g71"><use xlink:href="#m83976c66a4" id="use71" x="143.045" y="202.871" style="stroke:#000;stroke-width:.6"/></g></g></g><g id="xtick_45"><g id="line2d_49"><g id="g72"><use xlink:href="#m83976c66a4" id="use72" x="176.796" y="202.871" style="stroke:#000;stroke-width:.6"/></g></g></g><g id="xtick_46"><g id="line2d_50"><g id="g73"><use xlink:href="#m83976c66a4" id="use73" x="193.934" y="202.871" style="stroke:#000;stroke-width:.6"/></g></g></g><g id="xtick_47"><g id="line2d_51"><g id="g74"><use xlink:href="#m83976c66a4" id="use74" x="206.093" y="202.871" style="stroke:#000;stroke-width:.6"/></g></g></g><g id="xtick_48"><g id="line2d_52"><g id="g75"><use xlink:href="#m83976c66a4" id="use75" x="215.525" y="202.871" style="stroke:#000;stroke-width:.6"/></g></g></g><g id="xtick_49"><g id="line2d_53"><g id="g76"><use xlink:href="#m83976c66a4" id="use76" x="223.231" y="202.871" style="stroke:#000;stroke-width:.6"/></g></g></g><g id="xtick_50"><g id="line2d_54"><g id="g77"><use xlink:href="#m83976c66a4" id="use77" x="229.747" y="202.871" style="stroke:#000;stroke-width:.6"/></g></g></g><g id="xtick_51"><g id="line2d_55"><g id="g78"><use xlink:href="#m83976c66a4" id="use78" x="235.391" y="202.871" style="stroke:#000;stroke-width:.6"/></g></g></g><g id="xtick_52"><g id="line2d_56"><g id="g79"><use xlink:href="#m83976c66a4" id="use79" x="240.369" y="202.871" style="stroke:#000;stroke-width:.6"/></g></g></g><g id="xtick_53"><g id="line2d_57"><g id="g80"><use xlink:href="#m83976c66a4" id="use80" x="274.12" y="202.871" style="stroke:#000;stroke-width:.6"/></g></g></g><g id="xtick_54"><g id="line2d_58"><g id="g81"><use xlink:href="#m83976c66a4" id="use81" x="291.258" y="202.871" style="stroke:#000;stroke-width:.6"/></g></g></g><g id="xtick_55"><g id="line2d_59"><g id="g82"><use xlink:href="#m83976c66a4" id="use82" x="303.418" y="202.871" style="stroke:#000;stroke-width:.6"/></g></g></g><g id="xtick_56"><g id="line2d_60"><g id="g83"><use xlink:href="#m83976c66a4" id="use83" x="312.849" y="202.871" style="stroke:#000;stroke-width:.6"/></g></g></g><g id="xtick_57"><g id="line2d_61"><g id="g84"><use xlink:href="#m83976c66a4" id="use84" x="320.556" y="202.871" style="stroke:#000;stroke-width:.6"/></g></g></g><g id="xtick_58"><g id="line2d_62"><g id="g85"><use xlink:href="#m83976c66a4" id="use85" x="327.071" y="202.871" style="stroke:#000;stroke-width:.6"/></g></g></g><g id="xtick_59"><g id="line2d_63"><g id="g86"><use xlink:href="#m83976c66a4" id="use86" x="332.715" y="202.871" style="stroke:#000;stroke-width:.6"/></g></g></g><g id="xtick_60"><g id="line2d_64"><g id="g87"><use xlink:href="#m83976c66a4" id="use87" x="337.694" y="202.871" style="stroke:#000;stroke-width:.6"/></g></g></g><g id="xtick_61"><g id="line2d_65"><g id="g88"><use xlink:href="#m83976c66a4" id="use88" x="371.444" y="202.871" style="stroke:#000;stroke-width:.6"/></g></g></g><g id="xtick_62"><g id="line2d_66"><g id="g89"><use xlink:href="#m83976c66a4" id="use89" x="388.582" y="202.871" style="stroke:#000;stroke-width:.6"/></g></g></g><g id="xtick_63"><g id="line2d_67"><g id="g90"><use xlink:href="#m83976c66a4" id="use90" x="400.742" y="202.871" style="stroke:#000;stroke-width:.6"/></g></g></g><g id="xtick_64"><g id="line2d_68"><g id="g91"><use xlink:href="#m83976c66a4" id="use91" x="410.174" y="202.871" style="stroke:#000;stroke-width:.6"/></g></g></g></g><g id="matplotlib.axis_4"><g id="ytick_4"><g id="line2d_69"><g id="g92"><use xlink:href="#m7c1becb6a2" id="use92" x="50.174" y="202.871" style="stroke:#000;stroke-width:.8"/></g></g><g id="text_5"><g id="g93" transform="matrix(.13 0 0 -.13 36.833 207.368)"><use xlink:href="#CMR17-30" id="use93" transform="scale(.99626)"/></g></g></g><g id="ytick_5"><g id="line2d_70"><g id="g94"><use xlink:href="#m7c1becb6a2" id="use94" x="50.174" y="144.175" style="stroke:#000;stroke-width:.8"/></g></g><g id="text_6"><g id="g96" transform="matrix(.13 0 0 -.13 30.492 148.672)"><defs id="defs94"><path id="CMR17-35" d="M730 3692c64-26 326-108 595-108 595 0 921 327 1107 516 0 57 0 92-38 92-7 0-20 0-71-29-224-105-486-190-806-190-192 0-480 26-794 166-70 32-83 32-89 32-32 0-39-7-39-134V2203c0-114 0-146 64-146 32 0 45 13 77 57 205 287 486 408 806 408 224 0 704-140 704-1233 0-204 0-574-192-868-160-262-409-396-684-396-423 0-852 295-967 789 26-7 77-19 103-19 83 0 243 45 243 243 0 172-122 242-243 242-148 0-244-90-244-269 0-557 442-1139 1120-1139 660 0 1287 568 1287 1392 0 766-499 1360-1120 1360-327 0-602-121-819-350z" transform="scale(.01563)"/></defs><use xlink:href="#CMR17-35" id="use95" transform="scale(.99626)"/><use xlink:href="#CMR17-30" id="use96" transform="translate(45.69)scale(.99626)"/></g></g></g><g id="text_7"><g id="g111" transform="matrix(0 -.13 -.13 0 23.254 206.923)"><defs id="defs96"><path id="CMR17-45" d="M3885 1615h-115C3629 676 3546 166 2419 166h-889c-256 0-269 31-269 248v1762h601c602 0 660-216 660-746h115v1651h-115c0-524-58-739-660-739h-601v1571c0 215 13 247 269 247h876c992 0 1108-391 1197-1231h115l-153 1396H326v-165c442 0 512 0 512-286V451c0-285-70-285-512-285V0h3328z" transform="scale(.01563)"/><path id="CMR17-76" d="M2502 2163c58 141 160 397 532 397v166h-404c-134 0-345 0-473 6v-166c160-13 249-89 249-255 0-58 0-71-38-160L1664 377 902 2286c-38 83-38 95-38 121 0 153 211 153 307 153v172c-153-6-435-6-595-6-173 0-371 0-512 6v-172c243 0 378 0 454-198L1446 44c39-95 45-108 103-108 57 0 64 13 102 108z" transform="scale(.01563)"/><path id="CMR17-6c" d="m979 4396-761-70v-166c377 0 435-38 435-343V426c0-242-26-273-435-273V-13C371 0 653 0 813 0c166 0 448 0 601-13v166c-409 0-435 25-435 273z" transform="scale(.01563)"/><path id="CMR17-2e" d="M1062 261c0 159-128 261-262 261-128 0-262-102-262-261S666 0 800 0c128 0 262 102 262 261" transform="scale(.01563)"/><path id="CMR17-6d" d="M4326 1933c0 319-57 857-819 857-435 0-736-294-851-639h-6c-77 525-455 639-813 639-506 0-768-390-864-646h-7v646l-755-70v-166c378 0 435-39 435-346V428c0-244-25-275-435-275V-13C365 0 646 0 813 0c166 0 454 0 608-13v166c-410 0-435 25-435 275v1230c0 589 358 1030 806 1030 474 0 525-422 525-730V428c0-244-26-275-435-275V-13c153 13 435 13 601 13 167 0 455 0 608-13v166c-409 0-435 25-435 275v1230c0 589 358 1030 806 1030 474 0 525-422 525-730V428c0-244-25-275-435-275V-13c154 13 435 13 602 13 166 0 454 0 608-13v166c-410 0-436 25-436 275z" transform="scale(.01563)"/><path id="CMR17-28" d="M1958-1561c0 6 0 19-19 38C1645-1224 858-407 858 1581s774 2798 1088 3116c0 7 12 20 12 39s-19 32-44 32c-71 0-615-472-928-1174-320-707-410-1395-410-2006 0-460 45-1237 429-2059 307-664 832-1129 909-1129 32 0 44 13 44 39" transform="scale(.01563)"/><path id="CMR17-29" d="M1683 1581c0 459-45 1236-429 2058-307 664-832 1129-908 1129-20 0-45-7-45-39 0-12 6-19 13-32 307-319 1088-1129 1088-3113 0-1991-775-2801-1088-3121-7-12-13-19-13-31 0-32 25-32 45-32 70 0 614 472 928 1174 320 707 409 1395 409 2007" transform="scale(.01563)"/></defs><use xlink:href="#CMR17-45" id="use97" transform="scale(.99626)"/><use xlink:href="#CMR17-76" id="use98" transform="translate(62.586)scale(.99626)"/><use xlink:href="#CMR17-61" id="use99" transform="translate(105.674)scale(.99626)"/><use xlink:href="#CMR17-6c" id="use100" transform="translate(151.365)scale(.99626)"/><use xlink:href="#CMR17-2e" id="use101" transform="translate(176.236)scale(.99626)"/><use xlink:href="#CMR17-74" id="use102" transform="translate(241.593)scale(.99626)"/><use xlink:href="#CMR17-69" id="use103" transform="translate(276.873)scale(.99626)"/><use xlink:href="#CMR17-6d" id="use104" transform="translate(301.744)scale(.99626)"/><use xlink:href="#CMR17-65" id="use105" transform="translate(378.664)scale(.99626)"/><use xlink:href="#CMR17-28" id="use106" transform="translate(449.226)scale(.99626)"/><use xlink:href="#CMR17-6d" id="use107" transform="translate(484.506)scale(.99626)"/><use xlink:href="#CMR17-69" id="use108" transform="translate(561.426)scale(.99626)"/><use xlink:href="#CMR17-6e" id="use109" transform="translate(586.297)scale(.99626)"/><use xlink:href="#CMR17-2e" id="use110" transform="translate(637.192)scale(.99626)"/><use xlink:href="#CMR17-29" id="use111" transform="translate(662.064)scale(.99626)"/></g></g></g><g id="line2d_71"><path id="path111" d="m50.174 121.87 29.297-4.108 17.138 17.022 21.591 19.135 29.298 11.973 46.436 20.544 50.888 5.635 46.436 1.056 50.889.704 46.435.235 12.16.235 9.432.117" clip-path="url(#p9511fef391)" style="fill:none;stroke:#1f77b4;stroke-width:1.5;stroke-linecap:square"/></g><g id="patch_8"><path id="path112" d="M50.174 202.87v-88.94" style="fill:none;stroke:#000;stroke-width:.8;stroke-linecap:square;stroke-linejoin:miter"/></g><g id="patch_9"><path id="path113" d="M410.174 202.87v-88.94" style="fill:none;stroke:#000;stroke-width:.8;stroke-linecap:square;stroke-linejoin:miter"/></g><g id="patch_10"><path id="path114" d="M50.174 202.87h360" style="fill:none;stroke:#000;stroke-width:.8;stroke-linecap:square;stroke-linejoin:miter"/></g><g id="patch_11"><path id="path115" d="M50.174 113.93h360" style="fill:none;stroke:#000;stroke-width:.8;stroke-linecap:square;stroke-linejoin:miter"/></g></g><g id="axes_3"><g id="matplotlib.axis_5"><g id="xtick_65"><g id="line2d_72"><g id="g116"><use xlink:href="#m0f6143dc4e" id="use116" x="50.174" y="309.6" style="stroke:#000;stroke-width:.8"/></g></g><g id="text_8"><g id="g119" transform="matrix(.13 0 0 -.13 41.503 325.594)"><use xlink:href="#CMR17-31" id="use117" transform="scale(.99626)"/><use xlink:href="#CMR17-30" id="use118" transform="translate(45.69)scale(.99626)"/><use xlink:href="#CMR17-30" id="use119" transform="translate(91.381 36.154)scale(.69738)"/></g></g></g><g id="xtick_66"><g id="line2d_73"><g id="g120"><use xlink:href="#m0f6143dc4e" id="use120" x="147.498" y="309.6" style="stroke:#000;stroke-width:.8"/></g></g><g id="text_9"><g id="g123" transform="matrix(.13 0 0 -.13 138.828 325.594)"><use xlink:href="#CMR17-31" id="use121" transform="scale(.99626)"/><use xlink:href="#CMR17-30" id="use122" transform="translate(45.69)scale(.99626)"/><use xlink:href="#CMR17-31" id="use123" transform="translate(91.381 36.154)scale(.69738)"/></g></g></g><g id="xtick_67"><g id="line2d_74"><g id="g124"><use xlink:href="#m0f6143dc4e" id="use124" x="244.822" y="309.6" style="stroke:#000;stroke-width:.8"/></g></g><g id="text_10"><g id="g127" transform="matrix(.13 0 0 -.13 236.152 325.594)"><use xlink:href="#CMR17-31" id="use125" transform="scale(.99626)"/><use xlink:href="#CMR17-30" id="use126" transform="translate(45.69)scale(.99626)"/><use xlink:href="#CMR17-32" id="use127" transform="translate(91.381 36.154)scale(.69738)"/></g></g></g><g id="xtick_68"><g id="line2d_75"><g id="g128"><use xlink:href="#m0f6143dc4e" id="use128" x="342.147" y="309.6" style="stroke:#000;stroke-width:.8"/></g></g><g id="text_11"><g id="g131" transform="matrix(.13 0 0 -.13 333.477 325.594)"><defs id="defs128"><path id="CMR17-33" d="M1414 2157c570 0 820-495 820-1067 0-770-410-1065-781-1065-339 0-890 169-1063 668 32-13 64-13 96-13 154 0 269 102 269 268 0 185-141 268-269 268-108 0-275-51-275-290 0-591 576-1054 1255-1054 710 0 1254 558 1254 1213 0 622-512 1072-1120 1142 486 101 954 529 954 1102 0 491-506 850-1082 850-582 0-1094-350-1094-850 0-219 166-257 249-257 135 0 250 83 250 249 0 165-115 248-250 248-25 0-57 0-83-12 186 402 691 475 915 475s647-107 647-712c0-177-26-492-244-770-192-246-409-246-620-266-32 0-180-15-205-15-45-6-71-12-71-61 0-45 7-51 135-51z" transform="scale(.01563)"/></defs><use xlink:href="#CMR17-31" id="use129" transform="scale(.99626)"/><use xlink:href="#CMR17-30" id="use130" transform="translate(45.69)scale(.99626)"/><use xlink:href="#CMR17-33" id="use131" transform="translate(91.381 36.154)scale(.69738)"/></g></g></g><g id="xtick_69"><g id="line2d_76"><g id="g132"><use xlink:href="#m83976c66a4" id="use132" x="79.471" y="309.6" style="stroke:#000;stroke-width:.6"/></g></g></g><g id="xtick_70"><g id="line2d_77"><g id="g133"><use xlink:href="#m83976c66a4" id="use133" x="96.609" y="309.6" style="stroke:#000;stroke-width:.6"/></g></g></g><g id="xtick_71"><g id="line2d_78"><g id="g134"><use xlink:href="#m83976c66a4" id="use134" x="108.769" y="309.6" style="stroke:#000;stroke-width:.6"/></g></g></g><g id="xtick_72"><g id="line2d_79"><g id="g135"><use xlink:href="#m83976c66a4" id="use135" x="118.2" y="309.6" style="stroke:#000;stroke-width:.6"/></g></g></g><g id="xtick_73"><g id="line2d_80"><g id="g136"><use xlink:href="#m83976c66a4" id="use136" x="125.907" y="309.6" style="stroke:#000;stroke-width:.6"/></g></g></g><g id="xtick_74"><g id="line2d_81"><g id="g137"><use xlink:href="#m83976c66a4" id="use137" x="132.422" y="309.6" style="stroke:#000;stroke-width:.6"/></g></g></g><g id="xtick_75"><g id="line2d_82"><g id="g138"><use xlink:href="#m83976c66a4" id="use138" x="138.066" y="309.6" style="stroke:#000;stroke-width:.6"/></g></g></g><g id="xtick_76"><g id="line2d_83"><g id="g139"><use xlink:href="#m83976c66a4" id="use139" x="143.045" y="309.6" style="stroke:#000;stroke-width:.6"/></g></g></g><g id="xtick_77"><g id="line2d_84"><g id="g140"><use xlink:href="#m83976c66a4" id="use140" x="176.796" y="309.6" style="stroke:#000;stroke-width:.6"/></g></g></g><g id="xtick_78"><g id="line2d_85"><g id="g141"><use xlink:href="#m83976c66a4" id="use141" x="193.934" y="309.6" style="stroke:#000;stroke-width:.6"/></g></g></g><g id="xtick_79"><g id="line2d_86"><g id="g142"><use xlink:href="#m83976c66a4" id="use142" x="206.093" y="309.6" style="stroke:#000;stroke-width:.6"/></g></g></g><g id="xtick_80"><g id="line2d_87"><g id="g143"><use xlink:href="#m83976c66a4" id="use143" x="215.525" y="309.6" style="stroke:#000;stroke-width:.6"/></g></g></g><g id="xtick_81"><g id="line2d_88"><g id="g144"><use xlink:href="#m83976c66a4" id="use144" x="223.231" y="309.6" style="stroke:#000;stroke-width:.6"/></g></g></g><g id="xtick_82"><g id="line2d_89"><g id="g145"><use xlink:href="#m83976c66a4" id="use145" x="229.747" y="309.6" style="stroke:#000;stroke-width:.6"/></g></g></g><g id="xtick_83"><g id="line2d_90"><g id="g146"><use xlink:href="#m83976c66a4" id="use146" x="235.391" y="309.6" style="stroke:#000;stroke-width:.6"/></g></g></g><g id="xtick_84"><g id="line2d_91"><g id="g147"><use xlink:href="#m83976c66a4" id="use147" x="240.369" y="309.6" style="stroke:#000;stroke-width:.6"/></g></g></g><g id="xtick_85"><g id="line2d_92"><g id="g148"><use xlink:href="#m83976c66a4" id="use148" x="274.12" y="309.6" style="stroke:#000;stroke-width:.6"/></g></g></g><g id="xtick_86"><g id="line2d_93"><g id="g149"><use xlink:href="#m83976c66a4" id="use149" x="291.258" y="309.6" style="stroke:#000;stroke-width:.6"/></g></g></g><g id="xtick_87"><g id="line2d_94"><g id="g150"><use xlink:href="#m83976c66a4" id="use150" x="303.418" y="309.6" style="stroke:#000;stroke-width:.6"/></g></g></g><g id="xtick_88"><g id="line2d_95"><g id="g151"><use xlink:href="#m83976c66a4" id="use151" x="312.849" y="309.6" style="stroke:#000;stroke-width:.6"/></g></g></g><g id="xtick_89"><g id="line2d_96"><g id="g152"><use xlink:href="#m83976c66a4" id="use152" x="320.556" y="309.6" style="stroke:#000;stroke-width:.6"/></g></g></g><g id="xtick_90"><g id="line2d_97"><g id="g153"><use xlink:href="#m83976c66a4" id="use153" x="327.071" y="309.6" style="stroke:#000;stroke-width:.6"/></g></g></g><g id="xtick_91"><g id="line2d_98"><g id="g154"><use xlink:href="#m83976c66a4" id="use154" x="332.715" y="309.6" style="stroke:#000;stroke-width:.6"/></g></g></g><g id="xtick_92"><g id="line2d_99"><g id="g155"><use xlink:href="#m83976c66a4" id="use155" x="337.694" y="309.6" style="stroke:#000;stroke-width:.6"/></g></g></g><g id="xtick_93"><g id="line2d_100"><g id="g156"><use xlink:href="#m83976c66a4" id="use156" x="371.444" y="309.6" style="stroke:#000;stroke-width:.6"/></g></g></g><g id="xtick_94"><g id="line2d_101"><g id="g157"><use xlink:href="#m83976c66a4" id="use157" x="388.582" y="309.6" style="stroke:#000;stroke-width:.6"/></g></g></g><g id="xtick_95"><g id="line2d_102"><g id="g158"><use xlink:href="#m83976c66a4" id="use158" x="400.742" y="309.6" style="stroke:#000;stroke-width:.6"/></g></g></g><g id="xtick_96"><g id="line2d_103"><g id="g159"><use xlink:href="#m83976c66a4" id="use159" x="410.174" y="309.6" style="stroke:#000;stroke-width:.6"/></g></g></g><g id="text_12" transform="translate(0 -3)"><g id="g168" transform="matrix(.13 0 0 -.13 199.844 341.106)"><defs id="defs159"><path id="CMR17-43" d="M3974 4289c0 114-6 121-44 121-26 0-32-7-77-83l-282-535c-313 395-697 624-1190 624-1095 0-2087-960-2087-2268 0-1322 992-2276 2093-2276 979 0 1587 858 1587 1589 0 63 0 89-57 89-51 0-51-19-58-76C3808 585 3168 38 2477 38 1824 38 781 495 781 2147c0 1658 1062 2103 1683 2103 723 0 1248-622 1370-1505 12-77 12-90 70-90 70 0 70 13 70 128z" transform="scale(.01563)"/><path id="CMR17-68" d="M2656 1933c0 326-64 857-819 857-525 0-781-422-858-633h-6v2239l-762-70v-166c378 0 435-38 435-343V426c0-242-25-273-435-273V-13C365 0 646 0 813 0c166 0 454 0 608-13v166c-410 0-435 25-435 275v1230c0 589 358 1030 806 1030 474 0 525-422 525-730V428c0-244-26-275-435-275V-13c153 13 435 13 601 13 167 0 455 0 608-13v166c-409 0-435 25-435 275z" transform="scale(.01563)"/><path id="CMR17-75" d="M1882 2693v-165c377 0 435-39 435-342V1032c0-532-288-994-762-994-525 0-569 310-569 640v2085l-775-70v-165c256 0 429 0 435-254V1058c0-425 0-697 167-875 83-82 243-247 704-247 544 0 755 441 806 570h7V-63h761v191c-377 0-435 38-435 345v2290z" transform="scale(.01563)"/><path id="CMR17-6b" d="M1670 1673c-6 13-38 51-38 70 0 13 454 428 512 479 365 306 595 338 762 338v173c-39 0-52 0-58-13h-314c-179 0-454 0-627 13v-167c90-7 154-58 154-147 0-128-128-249-135-249l-966-881v3107l-762-70v-166c378 0 436-38 436-343V426c0-242-26-273-436-273V-13C352 0 634 0 794 0s441 0 595-13v166c-410 0-435 25-435 275v702l441 402 647-958c76-115 140-205 140-288 0-114-115-133-192-133V-13c154 13 429 13 589 13h461v153c-301 0-371 57-563 338z" transform="scale(.01563)"/><path id="CMR17-7a" d="M2310 2605c52 65 52 77 52 90 0 57-26 57-141 57H275l-64-992h115c45 621 116 890 852 890h780L128 96c0-96 6-96 141-96h2022l90 1152h-115c-52-710-135-1037-916-1037H531Z" transform="scale(.01563)"/></defs><use xlink:href="#CMR17-43" id="use160" transform="scale(.99626)"/><use xlink:href="#CMR17-68" id="use161" transform="translate(66.51)scale(.99626)"/><use xlink:href="#CMR17-75" id="use162" transform="translate(114.803)scale(.99626)"/><use xlink:href="#CMR17-6e" id="use163" transform="translate(165.698)scale(.99626)"/><use xlink:href="#CMR17-6b" id="use164" transform="translate(216.594)scale(.99626)"/><use xlink:href="#CMR17-73" id="use165" transform="translate(294.962)scale(.99626)"/><use xlink:href="#CMR17-69" id="use166" transform="translate(330.764)scale(.99626)"/><use xlink:href="#CMR17-7a" id="use167" transform="translate(355.635)scale(.99626)"/><use xlink:href="#CMR17-65" id="use168" transform="translate(396.12)scale(.99626)"/></g></g></g><g id="matplotlib.axis_6"><g id="ytick_6"><g id="line2d_104"><g id="g169"><use xlink:href="#m7c1becb6a2" id="use169" x="50.174" y="309.6" style="stroke:#000;stroke-width:.8"/></g></g><g id="text_13"><g id="g170" transform="matrix(.13 0 0 -.13 36.833 314.097)"><use xlink:href="#CMR17-30" id="use170" transform="scale(.99626)"/></g></g></g><g id="ytick_7"><g id="line2d_105"><g id="g171"><use xlink:href="#m7c1becb6a2" id="use171" x="50.174" y="267.108" style="stroke:#000;stroke-width:.8"/></g></g><g id="text_14"><g id="g173" transform="matrix(.13 0 0 -.13 30.492 271.605)"><defs id="defs171"><path id="CMR17-36" d="M678 2176c0 1514 717 1856 1133 1856 135 0 461-23 589-256-102 0-294 0-294-223 0-172 140-230 230-230 58 0 230 25 230 237 0 394-320 619-761 619-762 0-1562-789-1562-2195C243 253 966-128 1478-128c621 0 1210 555 1210 1411 0 798-518 1379-1171 1379-391 0-679-255-839-702zM1478 25c-787 0-787 1175-787 1411 0 460 218 1124 813 1124 109 0 422 0 634-440 115-250 115-511 115-831 0-345 0-599-135-855-140-263-345-409-640-409" transform="scale(.01563)"/></defs><use xlink:href="#CMR17-31" id="use172" transform="scale(.99626)"/><use xlink:href="#CMR17-36" id="use173" transform="translate(45.69)scale(.99626)"/></g></g></g><g id="ytick_8"><g id="line2d_106"><g id="g174"><use xlink:href="#m7c1becb6a2" id="use174" x="50.174" y="224.616" style="stroke:#000;stroke-width:.8"/></g></g><g id="text_15"><g id="g176" transform="matrix(.13 0 0 -.13 30.492 229.113)"><use xlink:href="#CMR17-33" id="use175" transform="scale(.99626)"/><use xlink:href="#CMR17-32" id="use176" transform="translate(45.69)scale(.99626)"/></g></g></g><g id="text_16"><g id="g186" transform="matrix(0 -.13 -.13 0 23.254 304.535)"><defs id="defs176"><path id="CMR17-4d" d="M1338 4224c-39 96-45 96-180 96H339v-160c442 0 512 0 512-285V610c0-159 0-457-512-457V-13C486 0 755 0 915 0s429 0 576-13v166c-512 0-512 298-512 457v3525h7L2490 89c25-64 38-102 89-102s64 38 90 102l1517 4077h6V438c0-285-70-285-512-285V-13c173 13 518 13 704 13s538 0 710-13v166c-441 0-512 0-512 285v3437c0 285 71 285 512 285v160h-812c-135 0-141-6-180-102L2720 502Z" transform="scale(.01563)"/><path id="CMR17-79" d="M2496 2197c160 389 448 389 538 389v166h-404c-134 0-345 0-473 6v-166c243-19 249-198 249-249 0-63-12-95-44-172L1664 449 902 2306c-32 76-32 120-32 127 0 140 148 153 301 153v172c-153-6-429-6-589-6-172 0-377 0-518 6v-172c346 0 384-32 467-236L1485 15c-288-753-455-1193-858-1193-70 0-230 19-345 134 147 13 211 102 211 211 0 108-77 204-205 204-141 0-211-96-211-211 0-255 262-440 550-440 371 0 602 358 730 676z" transform="scale(.01563)"/><path id="CMR17-47" d="M3974 1233c0 240 20 272 416 272v165c-153-6-499-6-672-6h-921v-159h192c550 0 563-71 563-304V774c0-711-832-711-1030-711-660 0-1741 448-1741 2097 0 1648 1062 2090 1683 2090 723 0 1248-624 1370-1509 12-77 12-90 70-90 70 0 70 13 70 128v1509c0 114-6 121-44 121-26 0-32-7-77-83l-282-535c-313 396-697 625-1190 625-1095 0-2087-960-2087-2268 0-1303 973-2276 2100-2276 518 0 1024 184 1222 545 109-259 288-437 320-437s38 7 38 120z" transform="scale(.01563)"/><path id="CMR17-42" d="M333 4352v-166c441 0 512 0 512-286V452c0-286-71-286-512-286V0h2201c820 0 1351 583 1351 1164 0 577-525 1069-1210 1069 615 123 1043 538 1043 1031 0 538-524 1088-1350 1088zm915-2048v1633c0 218 13 249 269 249h819c634 0 915-512 915-909 0-486-390-973-1081-973zm269-2138c-256 0-269 31-269 247v1789h1184c659 0 979-577 979-1040s-365-996-1062-996z" transform="scale(.01563)"/></defs><use xlink:href="#CMR17-4d" id="use177" transform="scale(.99626)"/><use xlink:href="#CMR17-65" id="use178" transform="translate(84.687)scale(.99626)"/><use xlink:href="#CMR17-6d" id="use179" transform="translate(125.173)scale(.99626)"/><use xlink:href="#CMR17-6f" id="use180" transform="translate(202.092)scale(.99626)"/><use xlink:href="#CMR17-72" id="use181" transform="translate(247.783)scale(.99626)"/><use xlink:href="#CMR17-79" id="use182" transform="translate(283.063)scale(.99626)"/><use xlink:href="#CMR17-28" id="use183" transform="translate(361.432)scale(.99626)"/><use xlink:href="#CMR17-47" id="use184" transform="translate(396.713)scale(.99626)"/><use xlink:href="#CMR17-42" id="use185" transform="translate(469.068)scale(.99626)"/><use xlink:href="#CMR17-29" id="use186" transform="translate(534.257)scale(.99626)"/></g></g></g><g id="line2d_107"><path id="path186" d="M50.174 302.96H79.47l17.138.266H118.2l29.298.531 46.436-.398 50.888-.61 46.436-3.108 50.889-10.889 46.435-29.346 12.16-15.138 9.432-15.137" clip-path="url(#p4a61f2a75e)" style="fill:none;stroke:#1f77b4;stroke-width:1.5;stroke-linecap:square"/></g><g id="line2d_108"><path id="path187" d="M50.174 224.616h360" clip-path="url(#p4a61f2a75e)" style="fill:none;stroke:#b56;stroke-width:1.5;stroke-dasharray:1.5,2.475;stroke-dashoffset:0"/></g><g id="patch_13"><path id="path188" d="M50.174 309.6v-88.941" style="fill:none;stroke:#000;stroke-width:.8;stroke-linecap:square;stroke-linejoin:miter"/></g><g id="patch_14"><path id="path189" d="M410.174 309.6v-88.941" style="fill:none;stroke:#000;stroke-width:.8;stroke-linecap:square;stroke-linejoin:miter"/></g><g id="patch_15"><path id="path190" d="M50.174 309.6h360" style="fill:none;stroke:#000;stroke-width:.8;stroke-linecap:square;stroke-linejoin:miter"/></g><g id="patch_16"><path id="path191" d="M50.174 220.659h360" style="fill:none;stroke:#000;stroke-width:.8;stroke-linecap:square;stroke-linejoin:miter"/></g><g id="text_17"><g id="g206" style="fill:#b56" transform="matrix(.13 0 0 -.13 55.574 238.447)"><defs id="defs191"><path id="CMR17-3a" d="M1062 2491c0 159-128 261-262 261-128 0-262-102-262-261s128-261 262-261c128 0 262 102 262 261m0-2230c0 159-128 261-262 261-128 0-262-102-262-261S666 0 800 0c128 0 262 102 262 261" transform="scale(.01563)"/></defs><use xlink:href="#CMR17-4d" id="use191" transform="scale(.99626)"/><use xlink:href="#CMR17-65" id="use192" transform="translate(84.687)scale(.99626)"/><use xlink:href="#CMR17-6d" id="use193" transform="translate(125.173)scale(.99626)"/><use xlink:href="#CMR17-6f" id="use194" transform="translate(202.092)scale(.99626)"/><use xlink:href="#CMR17-72" id="use195" transform="translate(247.783)scale(.99626)"/><use xlink:href="#CMR17-79" id="use196" transform="translate(283.063)scale(.99626)"/><use xlink:href="#CMR17-6c" id="use197" transform="translate(361.432)scale(.99626)"/><use xlink:href="#CMR17-69" id="use198" transform="translate(386.303)scale(.99626)"/><use xlink:href="#CMR17-6d" id="use199" transform="translate(411.174)scale(.99626)"/><use xlink:href="#CMR17-69" id="use200" transform="translate(488.094)scale(.99626)"/><use xlink:href="#CMR17-74" id="use201" transform="translate(512.965)scale(.99626)"/><use xlink:href="#CMR17-3a" id="use202" transform="translate(548.246)scale(.99626)"/><use xlink:href="#CMR17-33" id="use203" transform="translate(613.603)scale(.99626)"/><use xlink:href="#CMR17-32" id="use204" transform="translate(659.293)scale(.99626)"/><use xlink:href="#CMR17-47" id="use205" transform="translate(735.06)scale(.99626)"/><use xlink:href="#CMR17-42" id="use206" transform="translate(807.415)scale(.99626)"/></g></g></g></g><defs id="defs208"><clipPath id="p3e4a395cfe"><path id="rect206" d="M50.174 7.2h360v88.941h-360z"/></clipPath><clipPath id="p9511fef391"><path id="rect207" d="M50.174 113.929h360v88.941h-360z"/></clipPath><clipPath id="p4a61f2a75e"><path id="rect208" d="M50.174 220.659h360V309.6h-360z"/></clipPath></defs><metadata id="metadata1"><rdf:RDF><cc:Work><dc:creator><cc:Agent><dc:title>Remco de Boer</dc:title></cc:Agent></dc:creator><cc:license rdf:resource="http://creativecommons.org/licenses/by/4.0/"/></cc:Work><cc:License rdf:about="http://creativecommons.org/licenses/by/4.0/"><cc:permits rdf:resource="http://creativecommons.org/ns#Reproduction"/><cc:permits rdf:resource="http://creativecommons.org/ns#Distribution"/><cc:requires rdf:resource="http://creativecommons.org/ns#Notice"/><cc:requires rdf:resource="http://creativecommons.org/ns#Attribution"/><cc:permits rdf:resource="http://creativecommons.org/ns#DerivativeWorks"/></cc:License></rdf:RDF></metadata></svg>