<svg xmlns="http://www.w3.org/2000/svg" xmlns:xlink="http://www.w3.org/1999/xlink" xml:space="preserve" width="476.954" height="238.523" viewBox="0 0 63.097 31.554"><defs><path id="f" d="M657 442c-61 0-114-30-159-89-9 59-47 89-115 89-59 0-110-26-152-79-8 44-43 79-94 79-41 0-71-33-92-98-11-32-16-51-16-57 0-9 5-14 16-14 5 0 8 1 11 3 5 9 8 16 10 23 18 76 41 114 68 114q27 0 27-42c0-13-5-40-16-81L88 63c-4-12-9-38-9-44 0-20 11-30 32-30 20 0 34 10 41 30 1 5 8 30 19 73l21 89 30 114c11 23 28 46 50 70q43.5 48 108 48c33 0 49-22 49-65q0-19.5-15-81l-27-114c-7-29-23-89-31-121-1-7-2-11-2-13q0-30 33-30c11 0 19 3 26 10 15 15 16 22 22 49l59 237c3 13 17 36 41 68 30 40 70 60 119 60 33 0 49-22 49-65 0-39-20-112-61-219-9-23-13-42-13-55 0-49 37-85 85-85 45 0 79 25 104 75 20 40 30 67 30 80 0 9-5 14-16 14-7-1-14-10-19-21-22-79-54-119-97-119-13 0-20 10-20 29 0 15 6 37 18 68 41 107 61 180 61 218 0 71-47 109-118 109"/><path id="g" d="M249-22c141 0 211 114 211 342 0 153-32 255-95 305-35 27-74 41-115 41-141 0-211-115-211-346C39 136 88-22 249-22m112 546c7-35 10-99 10-192 0-92-4-160-11-204Q340.5 8 249 8c-23 0-46 9-67 26-27 23-43 70-50 142-3 25-4 77-4 156 0 87 3 148 8 181 9 55 27 90 55 105 22 12 41 18 58 18 65 0 101-53 112-112"/><path id="j" d="M355 442c-44 0-86-23-127-69-11 46-42 69-91 69-41 0-71-33-92-98-10-33-15-52-15-58 0-9 5-14 16-14 5 0 8 1 11 3 5 9 8 16 9 23 18 76 41 114 68 114 18 0 27-14 27-41 0-15-2-32-7-50L44-118c-9-33-10-37-49-37-18 0-27-8-27-23 0-11 6-16 17-16 15 0 67 3 82 3 19 0 79-3 98-3 15 0 22 8 22 24 0 10-9 15-28 15-18 0-45-1-45 11 0 13 41 170 45 187 20-37 50-56 90-56 65 0 122 33 172 100 46 61 69 126 69 193 0 87-52 162-135 162m-3-30c39 0 59-30 59-89 0-27-6-63-17-108-23-87-52-144-87-173-21-17-40-26-59-26-29 0-49 13-60 40-9 21-14 36-14 44l51 209c5 22 23 45 51 68s53 35 76 35"/><path id="k" d="M-69 599c9 3 13 8 13 17s-4 14-13 17c-36 12-62 34-78 67-3 7-9 11-16 11-13 0-19-6-19-18 0-15 13-35 39-59h-310c-13 0-19-6-19-18s6-18 19-18h310c-26-24-39-44-39-59 0-12 6-18 19-18 7 0 13 4 16 11 16 33 42 55 78 67"/><path id="l" d="M555 683H235c-23 0-34-1-34-23 0-11 11-16 33-16 20 0 60 3 60-13 0-2-1-8-4-18L158 82c-6-22-16-35-30-40-7-2-25-3-56-3-22 0-32-2-32-23C40 5 46 0 59 0l125 3 64-1c11 0 51-2 64-2q24 0 24 24c0 10-11 15-32 15-40 0-60 4-60 13 0 0 1 3 3 16l60 244h165c65 0 127 20 185 59 65 43 97 96 97 159 0 99-94 153-199 153m-31-39c87 0 130-30 130-90 0-56-28-131-57-157q-57-51-150-51H313l66 264c8 34 8 34 50 34z"/><path id="m" d="M355 442c-44 0-86-23-127-69-11 46-42 69-91 69-41 0-71-33-92-98-10-33-15-52-15-58 0-9 5-14 16-14 5 0 8 1 11 3 5 9 8 16 9 23 18 76 41 114 68 114 18 0 27-14 27-41 0-15-2-32-7-50L44-118c-9-33-10-37-49-37-18 0-27-8-27-23 0-11 6-16 17-16 15 0 67 3 82 3 19 0 79-3 98-3 15 0 22 8 22 24 0 10-9 15-28 15-18 0-45-1-45 11 0 13 41 170 45 187 20-37 50-56 90-56 65 0 122 33 172 100 46 61 69 126 69 193 0 87-52 162-135 162m-3-30c39 0 59-30 59-89 0-27-6-63-17-108-23-87-52-144-87-173-21-17-40-26-59-26-29 0-49 13-60 40-9 21-14 36-14 44l51 209c5 22 23 45 51 68s53 35 76 35"/><path id="n" d="M-69 599c9 3 13 8 13 17s-4 14-13 17c-36 12-62 34-78 67-3 7-9 11-16 11-13 0-19-6-19-18 0-15 13-35 39-59h-310c-13 0-19-6-19-18s6-18 19-18h310c-26-24-39-44-39-59 0-12 6-18 19-18 7 0 13 4 16 11 16 33 42 55 78 67"/><path id="o" d="M306-24c29 0 60 5 93 14-3-38-4-62-4-71 0-75 29-113 86-113 61 0 108 49 131 94 25 52 38 86 38 102 0 9-5 14-15 14-7 0-12-4-15-13-15-46-56-93-112-93-51 0-58 41-66 96 84 33 155 90 212 172s86 167 86 256c0 79-23 143-70 194s-109 77-186 77c-53 0-106-13-159-40-108-53-187-137-238-250-25-57-38-113-38-170C49 88 151-24 306-24m339 490c0-61-15-131-45-212-35-93-89-162-164-206q-6 33-18 60-19.5 45-72 45c-55 0-105-50-105-105 0-9 1-18 3-25-67 31-100 94-100 190 0 42 8 93 25 153q52.5 190.5 189 270 64.5 36 120 36c110 0 167-91 167-206M346 123c37 0 56-27 56-80 0-9-3-14-9-16Q351 9 312 9q-42 0-42 39c0 38 38 75 76 75"/><path id="p" d="M364 378c0 39-37 64-76 64-51 0-90-30-116-91v91L28 431v-38c35 0 56-3 64-9s12-19 12-42V79c0-19-3-31-10-35q-10.5-6-66-6V0l115 3c42 1 85 0 128-3v38h-24c-33 0-54 3-61 8s-10 17-10 35v151c0 43 8 82 23 115 20 43 49 65 88 66q-15-15-15-36c0-31 15-46 46-46 27 0 46 21 46 47"/><path id="q" d="M415 251c0 115-67 197-179 197-60 0-110-23-151-70-38-44-57-97-57-158 0-63 21-116 63-162q63-69 156-69c57 0 101 20 131 59 25 33 37 57 37 73 0 10-6 15-17 15-8 0-13-5-16-16q-33-99-129-99c-45 0-80 21-107 64-19 31-28 78-29 142h270c22 0 28 2 28 24m-89 98c11-33 16-65 16-94H118c3 66 20 111 50 134 25 20 47 30 68 30 45 0 75-23 90-70"/><path id="r" d="M360 130c0 76-52 124-155 144-47 9-77 20-93 31s-24 27-24 46c0 47 35 70 105 70 68 0 105-38 110-115 1-8 6-12 16-12 11 0 17 9 17 27v99c0 19-5 28-15 28-11 0-26-18-36-26-25 17-56 26-92 26-89 0-160-40-160-125 0-34 14-63 43-86 35-29 68-35 131-46 65-13 98-42 98-87 0-57-35-86-106-86-69 0-113 46-132 137-3 13-8 20-17 20-11 0-17-10-17-29V17c0-19 5-28 15-28 3 0 8 3 16 10 18 16 10 13 28 31 29-27 65-41 107-41 95 0 161 49 161 141"/><path id="s" d="M332 126v60h-32v-58c0-50-18-106-62-106-41 0-61 34-61 102v271h139v38H177v182h-32c-1-33-4-62-11-88-17-66-56-100-115-103v-29h83V126c0-59 18-97 53-116 27-14 52-21 77-21 66 0 100 66 100 137"/><path id="t" d="M265 705c-89 0-155-72-155-161V434H33v-38h77V79c0-19-3-31-10-35s-29-5-66-5V0l115 3c42 1 85 0 128-3v39h-24c-33 0-54 2-61 7s-10 17-10 35v315h112v38H179v111c0 60 31 130 86 130 8 0 15-1 22-3-15-8-23-22-23-41 0-31 15-47 46-47s47 16 47 48c0 45-47 73-92 73"/><path id="v" d="M483 91v59h-32V91c0-39-11-59-32-59-20 0-32 25-32 45v197c0 35-4 61-11 79-24 59-93 95-163 95-77 0-153-43-153-115 0-33 17-50 50-50s49 16 49 49c0 29-15 46-46 49 22 25 55 38 98 38 62 0 100-57 100-122v-33c-78-5-137-17-178-36C66 197 32 154 32 97c0-26 10-48 29-65 32-29 76-43 132-43 59 0 101 25 127 76 7-38 35-71 78-71 53 0 85 42 85 97M200 18c-46 0-84 34-84 80 0 93 97 133 195 138v-95c0-67-44-123-111-123"/><path id="w" d="M315 413c46 0 69-35 69-106V79c0-19-3-31-10-35s-30-6-67-6V0l116 3 115-3v38q-55.5 0-66 6c-7 4-11 16-11 35v180c0 80 52 154 129 154 47 0 70-35 70-106V79c0-19-4-31-11-35s-30-6-67-6V0l116 3 115-3v38c-32 0-53 1-63 4s-14 10-14 22v187c0 47-2 80-5 99-10 61-55 92-134 92-63 0-110-29-142-88-14 59-58 88-133 88-63 0-111-30-143-90v90L32 431v-38q54 0 66-9c8-6 11-19 11-42V79c0-19-4-31-11-35q-10.5-6-66-6V0l116 3 115-3v38c-37 0-60 2-67 6s-11 16-11 35v180c0 81 53 154 130 154"/><path id="x" d="M249-11c62 0 114 22 157 66s65 97 65 159c0 63-21 118-63 164s-95 70-158 70-115-24-158-70-64-101-64-164c0-62 21-115 64-159s96-66 157-66m1 32c-48 0-84 21-109 64-16 28-24 74-24 137 0 61 8 105 23 133 24 43 60 64 109 64 47 0 83-21 108-62 17-28 25-73 25-135 0-116-34-201-132-201"/><path id="y" d="M834 683c-17 0-76-3-93-3-20 0-90 3-110 3-15 0-23-8-23-24 0-9 5-14 16-15 24-3 36-11 36-26q0-13.5-18-33L486 417c-29 68-57 135-86 203 1 2 2 4 5 6 9 10 26 16 50 18 16 2 24 10 24 23 0 11-6 16-19 16-24 0-101-3-125-3-21 0-90 3-111 3-15 0-22-8-22-24q0-15 27-15c45 0 59 0 71-29l116-273-208-223c-3-3-7-7-12-10-41-43-88-67-143-70-17-1-26-10-26-25 3-9 4-14 17-14 17 0 76 3 93 3 21 0 90-3 111-3 15 0 22 8 22 24 0 9-5 14-16 15-24 2-36 11-36 26 0 10 9 24 26 42 62 66 125 132 186 199 34-81 69-161 102-243-1-2-2-4-5-7-9-9-25-14-49-17-15-2-23-10-23-23 0-11 6-16 19-16l125 3c21 0 91-3 109-3 15 0 23 8 23 23 0 10-7 15-22 16-31 0-51 1-58 5s-15 16-23 36L501 383c68 72 119 126 152 163 24 25 40 42 49 49 37 31 78 47 123 49 21 1 26 6 26 25-3 9-4 14-17 14"/><path id="A" d="M298-13c62 0 115 22 158 67s65 98 65 161c0 61-20 113-59 157-41 47-91 70-151 70-51 0-95-20-133-59v59L28 431v-38c37 0 59-2 66-7s11-18 11-39v-462c0-19-4-31-11-35s-29-5-66-5v-39l114 3 115-3v39c-37 0-58 1-65 5s-11 16-11 35V44c22-31 65-57 117-57m6 422c41 0 73-23 98-69 19-39 29-80 29-125q0-70.5-33-129c-26-47-61-70-104-70-42 0-75 20-100 59-9 13-13 26-13 39v219c29 51 70 76 123 76"/><path id="C" d="M364 378c0 39-37 64-76 64-51 0-90-30-116-91v91L28 431v-38c35 0 56-3 64-9s12-19 12-42V79c0-19-3-31-10-35q-10.5-6-66-6V0l115 3c42 1 85 0 128-3v38h-24c-33 0-54 3-61 8s-10 17-10 35v151c0 43 8 82 23 115 20 43 49 65 88 66q-15-15-15-36c0-31 15-46 46-46 27 0 46 21 46 47"/><path id="D" d="M249-11c62 0 114 22 157 66s65 97 65 159c0 63-21 118-63 164s-95 70-158 70-115-24-158-70-64-101-64-164c0-62 21-115 64-159s96-66 157-66m1 32c-48 0-84 21-109 64-16 28-24 74-24 137 0 61 8 105 23 133 24 43 60 64 109 64 47 0 83-21 108-62 17-28 25-73 25-135 0-116-34-201-132-201"/><path id="E" d="M374-11 527 0v38c-36 0-57 2-65 8s-12 21-12 44v604l-149-11v-38c35 0 57-3 65-9s11-20 11-43V390c-32 37-72 55-120 55-62 0-115-22-158-67s-65-99-65-162c0-61 20-114 61-159s91-68 152-68c51 0 94 19 127 58M261 415c43 0 78-19 103-57 7-11 10-22 10-35V121c0-13-3-24-10-35-28-45-66-67-113-67-41 0-74 20-100 61q-27 45-27 135c0 109 37 200 137 200"/><path id="F" d="M267 18c-69 0-82 29-82 94v330L32 431v-38c39 0 62-4 68-11s9-32 9-76V159c0-39 3-69 10-92 15-52 70-78 143-78 54 0 95 25 123 76v-76L535 0v38c-36 0-57 2-65 8s-12 20-12 43v353l-152-11v-38c35 0 56-3 64-9s12-19 12-42V167c0-79-42-149-115-149"/><path id="G" d="M251 416q63 0 96-30c-24-3-41-25-41-48 0-33 16-49 49-49s49 17 49 50c0 71-77 109-154 109-62 0-113-22-154-68S34 279 34 216c0-61 21-115 62-160s91-67 152-67c50 0 89 14 117 43 23 23 38 46 46 70 3 9 4 15 4 19 0 9-6 13-17 13-8 0-13-4-16-12-21-67-62-101-125-101-29 0-57 13-85 40-33 31-49 83-49 157 0 100 38 198 128 198"/><path id="H" d="M332 126v60h-32v-58c0-50-18-106-62-106-41 0-61 34-61 102v271h139v38H177v182h-32c-1-33-4-62-11-88-17-66-56-100-115-103v-29h83V126c0-59 18-97 53-116 27-14 52-21 77-21 66 0 100 66 100 137"/><path id="I" d="M194 601c0 30-25 56-55 56s-56-26-56-56 25-57 55-57c31 0 56 26 56 57M143 3l104-3v39c-33 0-53 2-59 6s-8 15-8 33v367L37 433v-38c33 0 54-3 61-8s10-19 10-42V79c0-19-3-31-10-35s-29-5-65-5V0Z"/><path id="J" d="M314 413c45 0 68-35 68-106V79c0-19-3-31-10-35q-10.5-6-66-6V0l115 3 114-3v38c-32 0-53 1-63 4s-14 10-14 22v187c0 47-1 80-4 99-10 61-55 92-134 92q-94.5 0-141-90v90L32 431v-38q54 0 66-9c8-6 11-19 11-42V79c0-19-4-31-11-35q-10.5-6-66-6V0l115 3 114-3v38c-37 0-58 2-65 6s-11 16-11 35v180c0 81 51 154 129 154"/><path id="K" d="m144 3 111-3v39c-36 0-58 1-65 5s-10 16-10 35v615L33 683v-38c35 0 57-3 64-9s11-20 11-43V79c0-19-3-31-10-35s-29-5-65-5V0Z"/><path id="L" d="M483 91v59h-32V91c0-39-11-59-32-59-20 0-32 25-32 45v197c0 35-4 61-11 79-24 59-93 95-163 95-77 0-153-43-153-115 0-33 17-50 50-50s49 16 49 49c0 29-15 46-46 49 22 25 55 38 98 38 62 0 100-57 100-122v-33c-78-5-137-17-178-36C66 197 32 154 32 97c0-26 10-48 29-65 32-29 76-43 132-43 59 0 101 25 127 76 7-38 35-71 78-71 53 0 85 42 85 97M200 18c-46 0-84 34-84 80 0 93 97 133 195 138v-95c0-67-44-123-111-123"/><path id="M" d="M415 251c0 115-67 197-179 197-60 0-110-23-151-70-38-44-57-97-57-158 0-63 21-116 63-162q63-69 156-69c57 0 101 20 131 59 25 33 37 57 37 73 0 10-6 15-17 15-8 0-13-5-16-16q-33-99-129-99c-45 0-80 21-107 64-19 31-28 78-29 142h270c22 0 28 2 28 24m-89 98c11-33 16-65 16-94H118c3 66 20 111 50 134 25 20 47 30 68 30 45 0 75-23 90-70"/><path id="N" d="M163 442q-67.5 0-105-75c-19-39-29-66-29-81 0-9 5-14 16-14 14 0 15 6 19 21 23 79 55 119 96 119 13 0 20-9 20-27 0-16-5-39-16-68-38-103-57-172-57-209 0-76 47-121 124-121 33 0 64 12 92 36q-52.5-198-165-198-51 0-69 33 60 3 60 57c0 25-13 38-40 38-37 0-59-31-59-68 0-55 50-90 108-90C273-205 367-99 392-1l94 378c3 11 4 19 4 24 0 20-11 30-32 30-16 0-29-8-38-23-6-21-11-39-14-54L342 97c-10-36-63-81-108-81-38 0-57 25-57 76 0 42 17 106 50 192 13 35 20 59 20 73 0 49-35 85-84 85"/><path id="O" d="M298-13c62 0 115 22 158 67s65 98 65 161c0 61-20 113-59 157-41 47-91 70-151 70-51 0-95-20-133-59v59L28 431v-38c37 0 59-2 66-7s11-18 11-39v-462c0-19-4-31-11-35s-29-5-66-5v-39l114 3 115-3v39c-37 0-58 1-65 5s-11 16-11 35V44c22-31 65-57 117-57m6 422c41 0 73-23 98-69 19-39 29-80 29-125q0-70.5-33-129c-26-47-61-70-104-70-42 0-75 20-100 59-9 13-13 26-13 39v219c29 51 70 76 123 76"/><path id="P" d="M364 378c0 39-37 64-76 64-51 0-90-30-116-91v91L28 431v-38c35 0 56-3 64-9s12-19 12-42V79c0-19-3-31-10-35q-10.5-6-66-6V0l115 3c42 1 85 0 128-3v38h-24c-33 0-54 3-61 8s-10 17-10 35v151c0 43 8 82 23 115 20 43 49 65 88 66q-15-15-15-36c0-31 15-46 46-46 27 0 46 21 46 47"/><path id="Q" d="M249-11c62 0 114 22 157 66s65 97 65 159c0 63-21 118-63 164s-95 70-158 70-115-24-158-70-64-101-64-164c0-62 21-115 64-159s96-66 157-66m1 32c-48 0-84 21-109 64-16 28-24 74-24 137 0 61 8 105 23 133 24 43 60 64 109 64 47 0 83-21 108-62 17-28 25-73 25-135 0-116-34-201-132-201"/><path id="R" d="M374-11 527 0v38c-36 0-57 2-65 8s-12 21-12 44v604l-149-11v-38c35 0 57-3 65-9s11-20 11-43V390c-32 37-72 55-120 55-62 0-115-22-158-67s-65-99-65-162c0-61 20-114 61-159s91-68 152-68c51 0 94 19 127 58M261 415c43 0 78-19 103-57 7-11 10-22 10-35V121c0-13-3-24-10-35-28-45-66-67-113-67-41 0-74 20-100 61q-27 45-27 135c0 109 37 200 137 200"/><path id="S" d="M527 373c0 46-45 69-95 69-43 0-77-23-103-69-21 46-56 69-107 69-49 0-89-23-121-68-27-39-41-68-41-87 0-9 5-14 15-14 9 0 15 5 17 14 19 58 61 126 128 126 33 0 49-21 49-62 0-21-18-99-53-233-17-67-47-100-90-100-14 0-27 3-38 8q39 15 39 54c0 26-13 39-40 39-33 0-58-28-58-61 0-46 47-69 96-69 42 0 76 23 103 69 19-46 55-69 107-69 48 0 88 23 120 68 27 39 41 68 41 87 0 9-5 14-15 14-9 0-14-5-17-14-17-57-62-126-127-126-33 0-50 20-50 61 0 13 5 41 16 86l34 135c19 75 50 113 94 113 14 0 27-3 38-8-27-9-40-27-40-54 0-26 14-39 41-39 32 0 57 29 57 61"/><path id="T" d="M298-13c62 0 115 22 158 67s65 98 65 161c0 61-20 113-59 157-41 47-91 70-151 70-51 0-95-20-133-59v59L28 431v-38c37 0 59-2 66-7s11-18 11-39v-462c0-19-4-31-11-35s-29-5-66-5v-39l114 3 115-3v39c-37 0-58 1-65 5s-11 16-11 35V44c22-31 65-57 117-57m6 422c41 0 73-23 98-69 19-39 29-80 29-125q0-70.5-33-129c-26-47-61-70-104-70-42 0-75 20-100 59-9 13-13 26-13 39v219c29 51 70 76 123 76"/><path id="U" d="M364 378c0 39-37 64-76 64-51 0-90-30-116-91v91L28 431v-38c35 0 56-3 64-9s12-19 12-42V79c0-19-3-31-10-35q-10.5-6-66-6V0l115 3c42 1 85 0 128-3v38h-24c-33 0-54 3-61 8s-10 17-10 35v151c0 43 8 82 23 115 20 43 49 65 88 66q-15-15-15-36c0-31 15-46 46-46 27 0 46 21 46 47"/><path id="V" d="M249-11c62 0 114 22 157 66s65 97 65 159c0 63-21 118-63 164s-95 70-158 70-115-24-158-70-64-101-64-164c0-62 21-115 64-159s96-66 157-66m1 32c-48 0-84 21-109 64-16 28-24 74-24 137 0 61 8 105 23 133 24 43 60 64 109 64 47 0 83-21 108-62 17-28 25-73 25-135 0-116-34-201-132-201"/><path id="W" d="M374-11 527 0v38c-36 0-57 2-65 8s-12 21-12 44v604l-149-11v-38c35 0 57-3 65-9s11-20 11-43V390c-32 37-72 55-120 55-62 0-115-22-158-67s-65-99-65-162c0-61 20-114 61-159s91-68 152-68c51 0 94 19 127 58M261 415c43 0 78-19 103-57 7-11 10-22 10-35V121c0-13-3-24-10-35-28-45-66-67-113-67-41 0-74 20-100 61q-27 45-27 135c0 109 37 200 137 200"/><path id="X" d="m162 92-17-2c48 47 85 81 110 104l96 89c23 21 47 47 70 76 31 38 46 61 46 69 0 9-5 14-15 14-7 0-13-4-18-13-25-41-48-61-70-61s-38 18-47 30c-24 29-48 44-71 44-26 0-53-12-81-38q-42-39-42-78c0-10 5-15 16-15 7 0 13 5 17 14 11 29 38 43 79 43 14 0 34-5 61-14 24-9 47-14 68-15-56-55-99-95-130-122l-89-83c-15-15-34-35-55-60C59 35 43 12 43 3s5-14 16-14c6 0 12 5 19 15 25 39 52 59 80 59 16 0 34-12 54-37s43-37 66-37c34 0 68 18 104 53q54 52.5 54 102c0 9-5 14-16 14q-10.5 0-18-15c-15-43-58-80-114-80-24 0-102 29-126 29"/><path id="Y" d="M298-13c62 0 115 22 158 67s65 98 65 161c0 61-20 113-59 157-41 47-91 70-151 70-51 0-95-20-133-59v59L28 431v-38c37 0 59-2 66-7s11-18 11-39v-462c0-19-4-31-11-35s-29-5-66-5v-39l114 3 115-3v39c-37 0-58 1-65 5s-11 16-11 35V44c22-31 65-57 117-57m6 422c41 0 73-23 98-69 19-39 29-80 29-125q0-70.5-33-129c-26-47-61-70-104-70-42 0-75 20-100 59-9 13-13 26-13 39v219c29 51 70 76 123 76"/><path id="Z" d="M364 378c0 39-37 64-76 64-51 0-90-30-116-91v91L28 431v-38c35 0 56-3 64-9s12-19 12-42V79c0-19-3-31-10-35q-10.5-6-66-6V0l115 3c42 1 85 0 128-3v38h-24c-33 0-54 3-61 8s-10 17-10 35v151c0 43 8 82 23 115 20 43 49 65 88 66q-15-15-15-36c0-31 15-46 46-46 27 0 46 21 46 47"/><path id="aa" d="M249-11c62 0 114 22 157 66s65 97 65 159c0 63-21 118-63 164s-95 70-158 70-115-24-158-70-64-101-64-164c0-62 21-115 64-159s96-66 157-66m1 32c-48 0-84 21-109 64-16 28-24 74-24 137 0 61 8 105 23 133 24 43 60 64 109 64 47 0 83-21 108-62 17-28 25-73 25-135 0-116-34-201-132-201"/><path id="ab" d="M374-11 527 0v38c-36 0-57 2-65 8s-12 21-12 44v604l-149-11v-38c35 0 57-3 65-9s11-20 11-43V390c-32 37-72 55-120 55-62 0-115-22-158-67s-65-99-65-162c0-61 20-114 61-159s91-68 152-68c51 0 94 19 127 58M261 415c43 0 78-19 103-57 7-11 10-22 10-35V121c0-13-3-24-10-35-28-45-66-67-113-67-41 0-74 20-100 61q-27 45-27 135c0 109 37 200 137 200"/><path id="ac" d="m162 92-17-2c48 47 85 81 110 104l96 89c23 21 47 47 70 76 31 38 46 61 46 69 0 9-5 14-15 14-7 0-13-4-18-13-25-41-48-61-70-61s-38 18-47 30c-24 29-48 44-71 44-26 0-53-12-81-38q-42-39-42-78c0-10 5-15 16-15 7 0 13 5 17 14 11 29 38 43 79 43 14 0 34-5 61-14 24-9 47-14 68-15-56-55-99-95-130-122l-89-83c-15-15-34-35-55-60C59 35 43 12 43 3s5-14 16-14c6 0 12 5 19 15 25 39 52 59 80 59 16 0 34-12 54-37s43-37 66-37c34 0 68 18 104 53q54 52.5 54 102c0 9-5 14-16 14q-10.5 0-18-15c-15-43-58-80-114-80-24 0-102 29-126 29"/><path id="ad" d="M374-11 527 0v38c-36 0-57 2-65 8s-12 21-12 44v604l-149-11v-38c35 0 57-3 65-9s11-20 11-43V390c-32 37-72 55-120 55-62 0-115-22-158-67s-65-99-65-162c0-61 20-114 61-159s91-68 152-68c51 0 94 19 127 58M261 415c43 0 78-19 103-57 7-11 10-22 10-35V121c0-13-3-24-10-35-28-45-66-67-113-67-41 0-74 20-100 61q-27 45-27 135c0 109 37 200 137 200"/><path id="ae" d="M415 251c0 115-67 197-179 197-60 0-110-23-151-70-38-44-57-97-57-158 0-63 21-116 63-162q63-69 156-69c57 0 101 20 131 59 25 33 37 57 37 73 0 10-6 15-17 15-8 0-13-5-16-16q-33-99-129-99c-45 0-80 21-107 64-19 31-28 78-29 142h270c22 0 28 2 28 24m-89 98c11-33 16-65 16-94H118c3 66 20 111 50 134 25 20 47 30 68 30 45 0 75-23 90-70"/><path id="af" d="M251 416q63 0 96-30c-24-3-41-25-41-48 0-33 16-49 49-49s49 17 49 50c0 71-77 109-154 109-62 0-113-22-154-68S34 279 34 216c0-61 21-115 62-160s91-67 152-67c50 0 89 14 117 43 23 23 38 46 46 70 3 9 4 15 4 19 0 9-6 13-17 13-8 0-13-4-16-12-21-67-62-101-125-101-29 0-57 13-85 40-33 31-49 83-49 157 0 100 38 198 128 198"/><path id="ag" d="M483 91v59h-32V91c0-39-11-59-32-59-20 0-32 25-32 45v197c0 35-4 61-11 79-24 59-93 95-163 95-77 0-153-43-153-115 0-33 17-50 50-50s49 16 49 49c0 29-15 46-46 49 22 25 55 38 98 38 62 0 100-57 100-122v-33c-78-5-137-17-178-36C66 197 32 154 32 97c0-26 10-48 29-65 32-29 76-43 132-43 59 0 101 25 127 76 7-38 35-71 78-71 53 0 85 42 85 97M200 18c-46 0-84 34-84 80 0 93 97 133 195 138v-95c0-67-44-123-111-123"/><path id="ah" d="M113-205c55 0 99 38 130 115l173 422c17 40 47 60 92 60v39q-49.5-4.5-78-3l-89 3v-38c31-1 46-14 46-39 0-6-2-13-6-22L286 98 180 354c-3 8-5 14-6 17 0 14 19 21 56 21v39l-112-3q-36-1.5-99 3v-39c53 0 66 2 80-32L246 1l-24-56c-27-64-46-120-109-120-14 0-26 4-37 11 23 5 34 20 34 44 0 30-15 45-46 45-30 0-45-15-45-46 0-49 45-84 94-84"/><path id="ai" d="M374-11 527 0v38c-36 0-57 2-65 8s-12 21-12 44v604l-149-11v-38c35 0 57-3 65-9s11-20 11-43V390c-32 37-72 55-120 55-62 0-115-22-158-67s-65-99-65-162c0-61 20-114 61-159s91-68 152-68c51 0 94 19 127 58M261 415c43 0 78-19 103-57 7-11 10-22 10-35V121c0-13-3-24-10-35-28-45-66-67-113-67-41 0-74 20-100 61q-27 45-27 135c0 109 37 200 137 200"/><path id="ak" d="M415 251c0 115-67 197-179 197-60 0-110-23-151-70-38-44-57-97-57-158 0-63 21-116 63-162q63-69 156-69c57 0 101 20 131 59 25 33 37 57 37 73 0 10-6 15-17 15-8 0-13-5-16-16q-33-99-129-99c-45 0-80 21-107 64-19 31-28 78-29 142h270c22 0 28 2 28 24m-89 98c11-33 16-65 16-94H118c3 66 20 111 50 134 25 20 47 30 68 30 45 0 75-23 90-70"/><path id="al" d="M251 416q63 0 96-30c-24-3-41-25-41-48 0-33 16-49 49-49s49 17 49 50c0 71-77 109-154 109-62 0-113-22-154-68S34 279 34 216c0-61 21-115 62-160s91-67 152-67c50 0 89 14 117 43 23 23 38 46 46 70 3 9 4 15 4 19 0 9-6 13-17 13-8 0-13-4-16-12-21-67-62-101-125-101-29 0-57 13-85 40-33 31-49 83-49 157 0 100 38 198 128 198"/><path id="am" d="M483 91v59h-32V91c0-39-11-59-32-59-20 0-32 25-32 45v197c0 35-4 61-11 79-24 59-93 95-163 95-77 0-153-43-153-115 0-33 17-50 50-50s49 16 49 49c0 29-15 46-46 49 22 25 55 38 98 38 62 0 100-57 100-122v-33c-78-5-137-17-178-36C66 197 32 154 32 97c0-26 10-48 29-65 32-29 76-43 132-43 59 0 101 25 127 76 7-38 35-71 78-71 53 0 85 42 85 97M200 18c-46 0-84 34-84 80 0 93 97 133 195 138v-95c0-67-44-123-111-123"/><path id="an" d="M113-205c55 0 99 38 130 115l173 422c17 40 47 60 92 60v39q-49.5-4.5-78-3l-89 3v-38c31-1 46-14 46-39 0-6-2-13-6-22L286 98 180 354c-3 8-5 14-6 17 0 14 19 21 56 21v39l-112-3q-36-1.5-99 3v-39c53 0 66 2 80-32L246 1l-24-56c-27-64-46-120-109-120-14 0-26 4-37 11 23 5 34 20 34 44 0 30-15 45-46 45-30 0-45-15-45-46 0-49 45-84 94-84"/><path id="ao" d="M298-13c62 0 115 22 158 67s65 98 65 161c0 61-20 113-59 157-41 47-91 70-151 70-51 0-95-20-133-59v59L28 431v-38c37 0 59-2 66-7s11-18 11-39v-462c0-19-4-31-11-35s-29-5-66-5v-39l114 3 115-3v39c-37 0-58 1-65 5s-11 16-11 35V44c22-31 65-57 117-57m6 422c41 0 73-23 98-69 19-39 29-80 29-125q0-70.5-33-129c-26-47-61-70-104-70-42 0-75 20-100 59-9 13-13 26-13 39v219c29 51 70 76 123 76"/><path id="ap" d="m144 3 111-3v39c-36 0-58 1-65 5s-10 16-10 35v615L33 683v-38c35 0 57-3 64-9s11-20 11-43V79c0-19-3-31-10-35s-29-5-65-5V0Z"/><path id="aq" d="M314 413c45 0 68-35 68-106V79c0-19-3-31-10-35q-10.5-6-66-6V0l115 3 114-3v38c-32 0-53 1-63 4s-14 10-14 22v187c0 47-1 80-4 99-10 61-55 92-134 92q-94.5 0-141-90v90L32 431v-38q54 0 66-9c8-6 11-19 11-42V79c0-19-4-31-11-35q-10.5-6-66-6V0l115 3 114-3v38c-37 0-58 2-65 6s-11 16-11 35v180c0 81 51 154 129 154"/><path id="ar" d="M364 378c0 39-37 64-76 64-51 0-90-30-116-91v91L28 431v-38c35 0 56-3 64-9s12-19 12-42V79c0-19-3-31-10-35q-10.5-6-66-6V0l115 3c42 1 85 0 128-3v38h-24c-33 0-54 3-61 8s-10 17-10 35v151c0 43 8 82 23 115 20 43 49 65 88 66q-15-15-15-36c0-31 15-46 46-46 27 0 46 21 46 47"/><path id="as" d="M415 251c0 115-67 197-179 197-60 0-110-23-151-70-38-44-57-97-57-158 0-63 21-116 63-162q63-69 156-69c57 0 101 20 131 59 25 33 37 57 37 73 0 10-6 15-17 15-8 0-13-5-16-16q-33-99-129-99c-45 0-80 21-107 64-19 31-28 78-29 142h270c22 0 28 2 28 24m-89 98c11-33 16-65 16-94H118c3 66 20 111 50 134 25 20 47 30 68 30 45 0 75-23 90-70"/><path id="at" d="M360 130c0 76-52 124-155 144-47 9-77 20-93 31s-24 27-24 46c0 47 35 70 105 70 68 0 105-38 110-115 1-8 6-12 16-12 11 0 17 9 17 27v99c0 19-5 28-15 28-11 0-26-18-36-26-25 17-56 26-92 26-89 0-160-40-160-125 0-34 14-63 43-86 35-29 68-35 131-46 65-13 98-42 98-87 0-57-35-86-106-86-69 0-113 46-132 137-3 13-8 20-17 20-11 0-17-10-17-29V17c0-19 5-28 15-28 3 0 8 3 16 10 18 16 10 13 28 31 29-27 65-41 107-41 95 0 161 49 161 141"/><path id="au" d="M332 126v60h-32v-58c0-50-18-106-62-106-41 0-61 34-61 102v271h139v38H177v182h-32c-1-33-4-62-11-88-17-66-56-100-115-103v-29h83V126c0-59 18-97 53-116 27-14 52-21 77-21 66 0 100 66 100 137"/><path id="av" d="M265 705c-89 0-155-72-155-161V434H33v-38h77V79c0-19-3-31-10-35s-29-5-66-5V0l115 3c42 1 85 0 128-3v39h-24c-33 0-54 2-61 7s-10 17-10 35v315h112v38H179v111c0 60 31 130 86 130 8 0 15-1 22-3-15-8-23-22-23-41 0-31 15-47 46-47s47 16 47 48c0 45-47 73-92 73"/><path id="ax" d="M483 91v59h-32V91c0-39-11-59-32-59-20 0-32 25-32 45v197c0 35-4 61-11 79-24 59-93 95-163 95-77 0-153-43-153-115 0-33 17-50 50-50s49 16 49 49c0 29-15 46-46 49 22 25 55 38 98 38 62 0 100-57 100-122v-33c-78-5-137-17-178-36C66 197 32 154 32 97c0-26 10-48 29-65 32-29 76-43 132-43 59 0 101 25 127 76 7-38 35-71 78-71 53 0 85 42 85 97M200 18c-46 0-84 34-84 80 0 93 97 133 195 138v-95c0-67-44-123-111-123"/><path id="ay" d="M315 413c46 0 69-35 69-106V79c0-19-3-31-10-35s-30-6-67-6V0l116 3 115-3v38q-55.5 0-66 6c-7 4-11 16-11 35v180c0 80 52 154 129 154 47 0 70-35 70-106V79c0-19-4-31-11-35s-30-6-67-6V0l116 3 115-3v38c-32 0-53 1-63 4s-14 10-14 22v187c0 47-2 80-5 99-10 61-55 92-134 92-63 0-110-29-142-88-14 59-58 88-133 88-63 0-111-30-143-90v90L32 431v-38q54 0 66-9c8-6 11-19 11-42V79c0-19-4-31-11-35q-10.5-6-66-6V0l116 3 115-3v38c-37 0-60 2-67 6s-11 16-11 35v180c0 81 53 154 130 154"/><path id="az" d="M249-11c62 0 114 22 157 66s65 97 65 159c0 63-21 118-63 164s-95 70-158 70-115-24-158-70-64-101-64-164c0-62 21-115 64-159s96-66 157-66m1 32c-48 0-84 21-109 64-16 28-24 74-24 137 0 61 8 105 23 133 24 43 60 64 109 64 47 0 83-21 108-62 17-28 25-73 25-135 0-116-34-201-132-201"/><path id="aA" d="M137 3c18 0 80-3 99-3 15 0 22 8 22 23 0 9-6 15-19 16-29 1-43 11-43 30 0 9 9 29 28 59 27 45 46 78 59 100h243c0-7 1-21 4-43 7-73 11-113 11-118 0-19-22-28-67-28-19 0-28-8-28-24q0-15 18-15c24 0 100 3 124 3 20 0 91-3 111-3 15 0 22 8 22 24q0 15-27 15c-28 0-45 2-50 5s-9 12-10 27l-60 618c-3 19-2 27-23 27-12 0-22-6-29-19L178 120c-30-50-70-77-119-81q-24-1.5-24-24C35 5 41 0 52 0c16 0 69 3 85 3m355 574 30-310H307Z"/><path id="a" d="M385 445c19 79 39 156 57 235v3c-3 7-8 11-16 11-9 0-15-8-18-23l-57-226c-75-3-143-31-204-83-65-55-98-119-98-192C49 62 132-7 237-13c-19-79-33-136-42-170-1-3-1-6-1-7 0-10 5-15 16-15s14 6 17 18l44 173c75 3 143 31 204 83 65 56 98 120 98 193 0 107-85 174-188 183m-8-30c76-5 124-52 124-132 0-40-9-80-27-119C442 92 369 26 278 17M121 149c0 40 9 80 27 119 32 72 105 137 195 147L244 16c-75 6-123 53-123 133"/><path id="aC" d="M164-11c45 0 92 27 138 81 80 93 153 265 153 428 0 41-7 84-21 127-18 53-52 80-101 80-45 0-90-27-137-81-80-92-154-264-154-428C42 94 75-11 164-11m168 686c33 0 50-38 50-115 0-43-10-108-30-193H155c25 93 49 162 74 207 37 67 72 101 103 101M145 327h196c-19-81-42-146-67-195-39-75-75-113-110-113-33 0-49 39-49 116q0 75 30 192"/><path id="b" d="M61 372c4-7 3-13 15-13 8 0 14 4 17 13 7 19 27 40 48 40 45 0 108-210 127-278 5-16 7-26 8-31L43-160q-12-13.5-12-18c0-11 5-16 16-16q7.5 0 18 12L287 67c28-93 50-156 65-191 5-13 11-25 18-35 17-26 64-46 108-46 36 0 87 32 87 68q0 15-15 15c-7 0-13-5-18-16-9-25-25-37-48-37-31 0-76 103-135 310l233 262q12 13.5 12 18c0 11-5 16-16 16-5 0-11-4-18-13L338 171c-31 100-54 166-68 197-7 15-17 30-31 44-19 20-49 30-92 30-38 0-86-34-86-70"/><path id="aE" d="M86-13c11 0 23 7 36 22l233 276c35-96 61-168 78-217 11-31 18-49 23-56 11-15 30-23 56-23h21c10 1 15 5 15 14 0 2-2 6-6 11-7 7-14 22-22 45L319 621c-17 49-58 73-123 73-15 0-22-5-22-15 0-7 6-12 17-15 14-4 23-9 28-15 7-8 17-28 28-60l95-267L72 53C59 40 53 29 53 20c0-18 15-33 33-33"/><path id="aF" d="M249-22c141 0 211 114 211 342 0 153-32 255-95 305-35 27-74 41-115 41-141 0-211-115-211-346C39 136 88-22 249-22m112 546c7-35 10-99 10-192 0-92-4-160-11-204Q340.5 8 249 8c-23 0-46 9-67 26-27 23-43 70-50 142-3 25-4 77-4 156 0 87 3 148 8 181 9 55 27 90 55 105 22 12 41 18 58 18 65 0 101-53 112-112"/><path id="aG" d="M355 442c-44 0-86-23-127-69-11 46-42 69-91 69-41 0-71-33-92-98-10-33-15-52-15-58 0-9 5-14 16-14 5 0 8 1 11 3 5 9 8 16 9 23 18 76 41 114 68 114 18 0 27-14 27-41 0-15-2-32-7-50L44-118c-9-33-10-37-49-37-18 0-27-8-27-23 0-11 6-16 17-16 15 0 67 3 82 3 19 0 79-3 98-3 15 0 22 8 22 24 0 10-9 15-28 15-18 0-45-1-45 11 0 13 41 170 45 187 20-37 50-56 90-56 65 0 122 33 172 100 46 61 69 126 69 193 0 87-52 162-135 162m-3-30c39 0 59-30 59-89 0-27-6-63-17-108-23-87-52-144-87-173-21-17-40-26-59-26-29 0-49 13-60 40-9 21-14 36-14 44l51 209c5 22 23 45 51 68s53 35 76 35"/><path id="aH" d="M-69 599c9 3 13 8 13 17s-4 14-13 17c-36 12-62 34-78 67-3 7-9 11-16 11-13 0-19-6-19-18 0-15 13-35 39-59h-310c-13 0-19-6-19-18s6-18 19-18h310c-26-24-39-44-39-59 0-12 6-18 19-18 7 0 13 4 16 11 16 33 42 55 78 67"/><path id="aI" d="M756 543c0 91-90 140-188 140H236c-23 0-33-1-33-24 0-16 20-15 32-15 30-1 48-3 53-4s7-4 7-9c0-2-1-8-4-18L159 82c-5-22-15-35-30-40-7-2-25-3-56-3-21 0-31-8-31-24C42 5 52 0 73 0h353c65 0 125 20 182 59 63 43 95 96 95 158 0 79-65 127-136 141 88 21 189 88 189 185M554 644c69 0 104-32 104-97 0-51-20-93-62-127s-89-50-140-50H317l60 240c8 34 8 34 50 34m155-345c14-23 21-46 21-71 0-52-20-97-61-134s-87-55-140-55H267c-10 0-17 0-21 1-6 0-9 2-9 5 0 1 0 4 1 8 31 127 55 223 71 287h184c43 0 72-14 89-41"/><path id="aJ" d="M355 442c-44 0-86-23-127-69-11 46-42 69-91 69-41 0-71-33-92-98-10-33-15-52-15-58 0-9 5-14 16-14 5 0 8 1 11 3 5 9 8 16 9 23 18 76 41 114 68 114 18 0 27-14 27-41 0-15-2-32-7-50L44-118c-9-33-10-37-49-37-18 0-27-8-27-23 0-11 6-16 17-16 15 0 67 3 82 3 19 0 79-3 98-3 15 0 22 8 22 24 0 10-9 15-28 15-18 0-45-1-45 11 0 13 41 170 45 187 20-37 50-56 90-56 65 0 122 33 172 100 46 61 69 126 69 193 0 87-52 162-135 162m-3-30c39 0 59-30 59-89 0-27-6-63-17-108-23-87-52-144-87-173-21-17-40-26-59-26-29 0-49 13-60 40-9 21-14 36-14 44l51 209c5 22 23 45 51 68s53 35 76 35"/><path id="aK" d="M-69 599c9 3 13 8 13 17s-4 14-13 17c-36 12-62 34-78 67-3 7-9 11-16 11-13 0-19-6-19-18 0-15 13-35 39-59h-310c-13 0-19-6-19-18s6-18 19-18h310c-26-24-39-44-39-59 0-12 6-18 19-18 7 0 13 4 16 11 16 33 42 55 78 67"/><path id="aL" d="M148 218c0 128 56 258 119 330 51 59 139 118 238 118 104 0 155-79 155-187 0-9-3-41-3-50s6-14 19-14c5 0 9 1 12 2 5 7 8 14 10 21l62 253c0 9-5 14-15 14-4 0-10-4-18-13l-65-73c-39 57-94 86-165 86-55 0-109-13-164-38-111-52-192-134-244-246q-39-82.5-39-168c0-80 25-145 76-197s116-78 196-78c79 0 151 29 216 86 27 23 50 51 69 82 27 45 41 76 41 95 0 9-5 14-16 14-9 0-14-4-16-13-21-65-54-117-99-154-57-47-117-71-179-71-120 0-190 81-190 201"/><path id="aM" d="M355 442c-44 0-86-23-127-69-11 46-42 69-91 69-41 0-71-33-92-98-10-33-15-52-15-58 0-9 5-14 16-14 5 0 8 1 11 3 5 9 8 16 9 23 18 76 41 114 68 114 18 0 27-14 27-41 0-15-2-32-7-50L44-118c-9-33-10-37-49-37-18 0-27-8-27-23 0-11 6-16 17-16 15 0 67 3 82 3 19 0 79-3 98-3 15 0 22 8 22 24 0 10-9 15-28 15-18 0-45-1-45 11 0 13 41 170 45 187 20-37 50-56 90-56 65 0 122 33 172 100 46 61 69 126 69 193 0 87-52 162-135 162m-3-30c39 0 59-30 59-89 0-27-6-63-17-108-23-87-52-144-87-173-21-17-40-26-59-26-29 0-49 13-60 40-9 21-14 36-14 44l51 209c5 22 23 45 51 68s53 35 76 35"/><path id="aN" d="M-69 599c9 3 13 8 13 17s-4 14-13 17c-36 12-62 34-78 67-3 7-9 11-16 11-13 0-19-6-19-18 0-15 13-35 39-59h-310c-13 0-19-6-19-18s6-18 19-18h310c-26-24-39-44-39-59 0-12 6-18 19-18 7 0 13 4 16 11 16 33 42 55 78 67"/><path id="aO" d="M756 543c0 91-90 140-188 140H236c-23 0-33-1-33-24 0-16 20-15 32-15 30-1 48-3 53-4s7-4 7-9c0-2-1-8-4-18L159 82c-5-22-15-35-30-40-7-2-25-3-56-3-21 0-31-8-31-24C42 5 52 0 73 0h353c65 0 125 20 182 59 63 43 95 96 95 158 0 79-65 127-136 141 88 21 189 88 189 185M554 644c69 0 104-32 104-97 0-51-20-93-62-127s-89-50-140-50H317l60 240c8 34 8 34 50 34m155-345c14-23 21-46 21-71 0-52-20-97-61-134s-87-55-140-55H267c-10 0-17 0-21 1-6 0-9 2-9 5 0 1 0 4 1 8 31 127 55 223 71 287h184c43 0 72-14 89-41"/><path id="aP" d="M698 274H413v285q0 24-24 24t-24-24V274H80q-24 0-24-24t24-24h285V-59q0-24 24-24t24 24v285h285q24 0 24 24c0 13-11 24-24 24"/><path id="aQ" d="M148 218c0 128 56 258 119 330 51 59 139 118 238 118 104 0 155-79 155-187 0-9-3-41-3-50s6-14 19-14c5 0 9 1 12 2 5 7 8 14 10 21l62 253c0 9-5 14-15 14-4 0-10-4-18-13l-65-73c-39 57-94 86-165 86-55 0-109-13-164-38-111-52-192-134-244-246q-39-82.5-39-168c0-80 25-145 76-197s116-78 196-78c79 0 151 29 216 86 27 23 50 51 69 82 27 45 41 76 41 95 0 9-5 14-16 14-9 0-14-4-16-13-21-65-54-117-99-154-57-47-117-71-179-71-120 0-190 81-190 201"/><path id="aR" d="M355 442c-44 0-86-23-127-69-11 46-42 69-91 69-41 0-71-33-92-98-10-33-15-52-15-58 0-9 5-14 16-14 5 0 8 1 11 3 5 9 8 16 9 23 18 76 41 114 68 114 18 0 27-14 27-41 0-15-2-32-7-50L44-118c-9-33-10-37-49-37-18 0-27-8-27-23 0-11 6-16 17-16 15 0 67 3 82 3 19 0 79-3 98-3 15 0 22 8 22 24 0 10-9 15-28 15-18 0-45-1-45 11 0 13 41 170 45 187 20-37 50-56 90-56 65 0 122 33 172 100 46 61 69 126 69 193 0 87-52 162-135 162m-3-30c39 0 59-30 59-89 0-27-6-63-17-108-23-87-52-144-87-173-21-17-40-26-59-26-29 0-49 13-60 40-9 21-14 36-14 44l51 209c5 22 23 45 51 68s53 35 76 35"/><path id="aS" d="M-69 599c9 3 13 8 13 17s-4 14-13 17c-36 12-62 34-78 67-3 7-9 11-16 11-13 0-19-6-19-18 0-15 13-35 39-59h-310c-13 0-19-6-19-18s6-18 19-18h310c-26-24-39-44-39-59 0-12 6-18 19-18 7 0 13 4 16 11 16 33 42 55 78 67"/><path id="aT" d="M298-13c62 0 115 22 158 67s65 98 65 161c0 61-20 113-59 157-41 47-91 70-151 70-51 0-95-20-133-59v59L28 431v-38c37 0 59-2 66-7s11-18 11-39v-462c0-19-4-31-11-35s-29-5-66-5v-39l114 3 115-3v39c-37 0-58 1-65 5s-11 16-11 35V44c22-31 65-57 117-57m6 422c41 0 73-23 98-69 19-39 29-80 29-125q0-70.5-33-129c-26-47-61-70-104-70-42 0-75 20-100 59-9 13-13 26-13 39v219c29 51 70 76 123 76"/><path id="aU" d="M364 378c0 39-37 64-76 64-51 0-90-30-116-91v91L28 431v-38c35 0 56-3 64-9s12-19 12-42V79c0-19-3-31-10-35q-10.5-6-66-6V0l115 3c42 1 85 0 128-3v38h-24c-33 0-54 3-61 8s-10 17-10 35v151c0 43 8 82 23 115 20 43 49 65 88 66q-15-15-15-36c0-31 15-46 46-46 27 0 46 21 46 47"/><path id="aV" d="M249-11c62 0 114 22 157 66s65 97 65 159c0 63-21 118-63 164s-95 70-158 70-115-24-158-70-64-101-64-164c0-62 21-115 64-159s96-66 157-66m1 32c-48 0-84 21-109 64-16 28-24 74-24 137 0 61 8 105 23 133 24 43 60 64 109 64 47 0 83-21 108-62 17-28 25-73 25-135 0-116-34-201-132-201"/><path id="aW" d="M374-11 527 0v38c-36 0-57 2-65 8s-12 21-12 44v604l-149-11v-38c35 0 57-3 65-9s11-20 11-43V390c-32 37-72 55-120 55-62 0-115-22-158-67s-65-99-65-162c0-61 20-114 61-159s91-68 152-68c51 0 94 19 127 58M261 415c43 0 78-19 103-57 7-11 10-22 10-35V121c0-13-3-24-10-35-28-45-66-67-113-67-41 0-74 20-100 61q-27 45-27 135c0 109 37 200 137 200"/><path id="aX" d="M137 3c18 0 80-3 99-3 15 0 22 8 22 23 0 9-6 15-19 16-29 1-43 11-43 30 0 9 9 29 28 59 27 45 46 78 59 100h243c0-7 1-21 4-43 7-73 11-113 11-118 0-19-22-28-67-28-19 0-28-8-28-24q0-15 18-15c24 0 100 3 124 3 20 0 91-3 111-3 15 0 22 8 22 24q0 15-27 15c-28 0-45 2-50 5s-9 12-10 27l-60 618c-3 19-2 27-23 27-12 0-22-6-29-19L178 120c-30-50-70-77-119-81q-24-1.5-24-24C35 5 41 0 52 0c16 0 69 3 85 3m355 574 30-310H307Z"/><path id="aY" d="M355 442c-44 0-86-23-127-69-11 46-42 69-91 69-41 0-71-33-92-98-10-33-15-52-15-58 0-9 5-14 16-14 5 0 8 1 11 3 5 9 8 16 9 23 18 76 41 114 68 114 18 0 27-14 27-41 0-15-2-32-7-50L44-118c-9-33-10-37-49-37-18 0-27-8-27-23 0-11 6-16 17-16 15 0 67 3 82 3 19 0 79-3 98-3 15 0 22 8 22 24 0 10-9 15-28 15-18 0-45-1-45 11 0 13 41 170 45 187 20-37 50-56 90-56 65 0 122 33 172 100 46 61 69 126 69 193 0 87-52 162-135 162m-3-30c39 0 59-30 59-89 0-27-6-63-17-108-23-87-52-144-87-173-21-17-40-26-59-26-29 0-49 13-60 40-9 21-14 36-14 44l51 209c5 22 23 45 51 68s53 35 76 35"/><path id="aZ" d="M-69 599c9 3 13 8 13 17s-4 14-13 17c-36 12-62 34-78 67-3 7-9 11-16 11-13 0-19-6-19-18 0-15 13-35 39-59h-310c-13 0-19-6-19-18s6-18 19-18h310c-26-24-39-44-39-59 0-12 6-18 19-18 7 0 13 4 16 11 16 33 42 55 78 67"/><path id="ba" d="M567 683H235c-23 0-34-1-34-23 0-11 11-16 33-16 20 0 60 3 60-13 0-2-1-8-4-18L158 82c-5-22-15-35-30-40-7-2-25-3-56-3-22 0-32-2-32-23C40 5 51 0 72 0h327c68 0 133 20 196 61 107 69 209 204 209 368 0 148-91 254-237 254m143-217c0-113-51-250-103-317C550 76 475 39 381 39H270c-11 0-18 0-22 1-6 0-9 2-9 5 0 2 2 9 5 22l135 543c9 33 8 34 50 34h106c112 0 175-66 175-178"/><path id="bb" d="M355 442c-44 0-86-23-127-69-11 46-42 69-91 69-41 0-71-33-92-98-10-33-15-52-15-58 0-9 5-14 16-14 5 0 8 1 11 3 5 9 8 16 9 23 18 76 41 114 68 114 18 0 27-14 27-41 0-15-2-32-7-50L44-118c-9-33-10-37-49-37-18 0-27-8-27-23 0-11 6-16 17-16 15 0 67 3 82 3 19 0 79-3 98-3 15 0 22 8 22 24 0 10-9 15-28 15-18 0-45-1-45 11 0 13 41 170 45 187 20-37 50-56 90-56 65 0 122 33 172 100 46 61 69 126 69 193 0 87-52 162-135 162m-3-30c39 0 59-30 59-89 0-27-6-63-17-108-23-87-52-144-87-173-21-17-40-26-59-26-29 0-49 13-60 40-9 21-14 36-14 44l51 209c5 22 23 45 51 68s53 35 76 35"/><path id="bc" d="M-69 599c9 3 13 8 13 17s-4 14-13 17c-36 12-62 34-78 67-3 7-9 11-16 11-13 0-19-6-19-18 0-15 13-35 39-59h-310c-13 0-19-6-19-18s6-18 19-18h310c-26-24-39-44-39-59 0-12 6-18 19-18 7 0 13 4 16 11 16 33 42 55 78 67"/><path id="bd" d="M834 683c-17 0-76-3-93-3-20 0-90 3-110 3-15 0-23-8-23-24 0-9 5-14 16-15 24-3 36-11 36-26q0-13.5-18-33L486 417c-29 68-57 135-86 203 1 2 2 4 5 6 9 10 26 16 50 18 16 2 24 10 24 23 0 11-6 16-19 16-24 0-101-3-125-3-21 0-90 3-111 3-15 0-22-8-22-24q0-15 27-15c45 0 59 0 71-29l116-273-208-223c-3-3-7-7-12-10-41-43-88-67-143-70-17-1-26-10-26-25 3-9 4-14 17-14 17 0 76 3 93 3 21 0 90-3 111-3 15 0 22 8 22 24 0 9-5 14-16 15-24 2-36 11-36 26 0 10 9 24 26 42 62 66 125 132 186 199 34-81 69-161 102-243-1-2-2-4-5-7-9-9-25-14-49-17-15-2-23-10-23-23 0-11 6-16 19-16l125 3c21 0 91-3 109-3 15 0 23 8 23 23 0 10-7 15-22 16-31 0-51 1-58 5s-15 16-23 36L501 383c68 72 119 126 152 163 24 25 40 42 49 49 37 31 78 47 123 49 21 1 26 6 26 25-3 9-4 14-17 14"/><marker id="e" markerHeight="2.598" markerWidth="3.465" orient="auto" overflow="visible" preserveAspectRatio="xMidYMid" viewBox="0 0 3.465 2.598"><path fill="context-stroke" fill-rule="evenodd" stroke="context-stroke" stroke-linejoin="round" stroke-width=".188" d="M1.926 1.21-1.352.005l3.278-1.206a2.05 2.05 0 0 0 0 2.411z"/></marker><marker id="d" markerHeight="9.526" markerWidth="12.706" orient="auto" overflow="visible" preserveAspectRatio="xMidYMid" viewBox="0 0 12.706 9.526"><path fill="context-stroke" fill-rule="evenodd" stroke="context-stroke" stroke-linejoin="round" stroke-width=".688" d="M-10.69-4.437 1.328-.017-10.69 4.401c1.92-2.61 1.908-6.18 0-8.84z"/></marker><marker id="i" orient="auto" overflow="visible"><path fill="context-stroke" fill-rule="evenodd" stroke="context-stroke" stroke-linejoin="round" stroke-width=".188" d="M1.926 1.21-1.352.005l3.278-1.206a2.05 2.05 0 0 0 0 2.411z"/></marker><clipPath id="c"><path d="M115 17h257.7v113H115Z"/></clipPath></defs><g transform="translate(0 .265)"><path d="M18.353 16.84c-.055 1.42.663 2.17.9 2.463" style="fill:none;stroke:red;stroke-width:.22;stroke-dasharray:none;stroke-opacity:1"/><use xlink:href="#a" data-c="1D719" style="fill:red;fill-opacity:1;stroke:none;stroke-width:0" transform="matrix(.003 0 0 -.003 16.169 19.571)"/></g><g transform="translate(0 .265)"><path d="M37.264 13.011c.263-1.173 1.217-2.398 2.287-2.779" style="fill:none;stroke:red;stroke-width:.22;stroke-dasharray:none;stroke-opacity:1"/><use xlink:href="#b" data-c="1D712" style="fill:red;fill-opacity:1;stroke:none;stroke-width:0" transform="matrix(.003 0 0 -.003 35.75 10.821)"/></g><path fill="#33b08f" fill-opacity=".8" fill-rule="evenodd" stroke="#000" stroke-width=".167" d="M38.131 8.37 46.9 21.563l12.068-5.79 3.735-1.793-9.036-11.521-3.136 1.194z" style="fill:#b56"/><path fill="#ebb133" fill-opacity=".8" fill-rule="evenodd" stroke="#000" stroke-width=".186" d="m.585 7.963 13.03-2.187 19.688 7.615-16.838 4.183z" style="fill:#da3"/><path fill="#76c2ed" fill-opacity=".8" stroke="#000" stroke-width=".167" d="m30.393 10.785-12.1 9.592 15.38 10.804 14.02-14.074z" style="display:inline;fill:#7ad"/><g clip-path="url(#c)" transform="translate(-6.293 -3.331)scale(.22225)"><path fill="none" stroke="#878787" stroke-dasharray="1.13386, 0.566929" stroke-linejoin="bevel" stroke-width=".567" marker-end="url(#d)" d="m115.82 128.82 194.12-84.418"/></g><path fill="none" stroke="#000" stroke-linecap="round" stroke-width=".315" marker-start="url(#e)" d="m24.381 23.142 7.491-3.275"/><path fill="none" stroke="#000" stroke-linecap="round" stroke-width=".315" marker-start="url(#e)" d="m48.106 5.496-5.208 9.107"/><path fill="none" stroke="#000" stroke-linecap="round" stroke-width=".315" marker-start="url(#e)" d="m53.47 15.029-10.122.194"/><path fill="none" stroke="#878787" stroke-dasharray="0.400001, 0.2" stroke-linejoin="bevel" stroke-width=".126" marker-end="url(#d)" d="M12.05 9.64c7.343-1.544 8.82-1.828 16.163-3.373"/><path fill="none" stroke="#878787" stroke-dasharray="0.400001, 0.2" stroke-linejoin="bevel" stroke-width=".126" marker-end="url(#d)" d="M12.05 9.64V.475"/><path stroke-linejoin="bevel" d="m16.797 13.908-1.288-.636a.52.52 0 0 1-.195-.46c.024-.277.244-.484.49-.463a.4.4 0 0 1 .175.057l1.274.738" style="fill:#fff;stroke:#000;stroke-width:.089" transform="translate(0 .265)"/><path stroke-linecap="round" d="M16.805 13.778c.036-.418.368-.73.742-.699a.62.62 0 0 1 .397.193l1.07 1.404-1.615-.085c-.357-.03-.63-.394-.594-.813z" style="fill:#fff;stroke:#000;stroke-width:.089" transform="translate(0 .265)"/><g transform="translate(0 .265)"><use xlink:href="#f" aria-level="1" data-c="1D45A" data-latex="m" data-mml-node="mi" data-semantic-annotation="clearspeak:simple;nemeth:number;depth:2" data-semantic-attributes="latex:m" data-semantic-font="italic" data-semantic-id="0" data-semantic-parent="2" data-semantic-role="latinletter" data-semantic-type="identifier" data-speech-node="true" style="stroke:#000;stroke-width:0" transform="matrix(.00241 0 0 -.00241 12.522 14.46)"/><use xlink:href="#g" aria-level="1" data-c="30" data-latex="0" data-mml-node="mn" data-semantic-annotation="clearspeak:simple;depth:2" data-semantic-attributes="latex:0" data-semantic-font="normal" data-semantic-id="1" data-semantic-parent="2" data-semantic-role="integer" data-semantic-type="number" data-speech-node="true" style="stroke:#000;stroke-width:0" transform="matrix(.0017 0 0 -.0017 14.72 14.823)"/></g><path fill="none" stroke="#000" stroke-linecap="round" stroke-width=".315" marker-start="url(#e)" d="m12.389 9.052 1.28-2.713"/><path fill="none" stroke="#000" stroke-linecap="round" stroke-width=".315" marker-start="url(#i)" d="m2.831 8.51 8.647 1.104"/><path fill="none" stroke="gray" stroke-linecap="round" stroke-miterlimit="6" stroke-opacity=".502" stroke-width=".095" d="m52.775 27.998-.627-7.536m-7.867 7.956-4.31-2.856" opacity=".5"/><path fill="none" stroke="#ebb232" stroke-linecap="round" stroke-miterlimit="6" stroke-width=".095" d="M18.567 7.195 20.99 2.98" opacity=".5" style="stroke:#da3"/><g aria-level="0" data-latex="\vec{p}_{\!P}" data-mml-node="msub" data-semantic-annotation="depth:1" data-semantic-attributes="latex:\vec{p}_{\!P}" data-semantic-children="2,4" data-semantic-id="5" data-semantic-owns="2 4" data-semantic-role="latinletter" data-semantic-type="subscript" data-speech-node="true" style="fill:#000;stroke:none;stroke-width:0"><g data-latex="\vec{p}" data-mjx-texclass="ORD" data-mml-node="TeXAtom" style="stroke:none"><g aria-level="1" data-mml-node="mover" data-semantic-annotation="depth:2" data-semantic-attributes="latex:\vec{p};texclass:ORD" data-semantic-children="0,1" data-semantic-id="2" data-semantic-owns="0 1" data-semantic-parent="5" data-semantic-role="latinletter" data-semantic-type="overscore" data-speech-node="true" style="stroke:none"><use xlink:href="#j" aria-level="2" data-c="1D45D" data-latex="p" data-mml-node="mi" data-semantic-annotation="clearspeak:simple;nemeth:number;depth:3" data-semantic-attributes="latex:p" data-semantic-font="italic" data-semantic-id="0" data-semantic-parent="2" data-semantic-role="latinletter" data-semantic-type="identifier" data-speech-node="true" style="stroke:none" transform="matrix(.0024 0 0 -.0024 .518 6.858)"/><use xlink:href="#k" aria-level="2" data-c="20D7" data-mml-node="mo" data-semantic-annotation="accent:arrow;depth:3" data-semantic-id="1" data-semantic-parent="2" data-semantic-role="overaccent" data-semantic-type="relation" data-speech-node="true" style="stroke:none" transform="matrix(.0024 0 0 -.0024 1.973 6.796)"/></g></g><g data-latex="{\!P}" data-mjx-texclass="ORD" data-mml-node="TeXAtom" style="stroke:none"><use xlink:href="#l" aria-level="1" data-c="1D443" data-latex="P" data-mml-node="mi" data-semantic-annotation="clearspeak:simple;depth:2" data-semantic-attributes="latex:{\!P};texclass:ORD" data-semantic-font="italic" data-semantic-id="4" data-semantic-parent="5" data-semantic-role="latinletter" data-semantic-type="identifier" data-speech-node="true" style="stroke:none" transform="matrix(.0017 0 0 -.0017 1.652 7.217)"/></g></g><g aria-level="0" data-latex="\vec{p}_{\!Q}" data-mml-node="msub" data-semantic-annotation="depth:1" data-semantic-attributes="latex:\vec{p}_{\!Q}" data-semantic-children="2,4" data-semantic-id="5" data-semantic-owns="2 4" data-semantic-role="latinletter" data-semantic-type="subscript" data-speech-node="true" style="fill:#000;stroke:none;stroke-width:0"><g data-latex="\vec{p}" data-mjx-texclass="ORD" data-mml-node="TeXAtom" style="stroke:none"><g aria-level="1" data-mml-node="mover" data-semantic-annotation="depth:2" data-semantic-attributes="latex:\vec{p};texclass:ORD" data-semantic-children="0,1" data-semantic-id="2" data-semantic-owns="0 1" data-semantic-parent="5" data-semantic-role="latinletter" data-semantic-type="overscore" data-speech-node="true" style="stroke:none"><use xlink:href="#m" aria-level="2" data-c="1D45D" data-latex="p" data-mml-node="mi" data-semantic-annotation="clearspeak:simple;nemeth:number;depth:3" data-semantic-attributes="latex:p" data-semantic-font="italic" data-semantic-id="0" data-semantic-parent="2" data-semantic-role="latinletter" data-semantic-type="identifier" data-speech-node="true" style="stroke:none" transform="matrix(.0024 0 0 -.0024 13.735 4.887)"/><use xlink:href="#n" aria-level="2" data-c="20D7" data-mml-node="mo" data-semantic-annotation="accent:arrow;depth:3" data-semantic-id="1" data-semantic-parent="2" data-semantic-role="overaccent" data-semantic-type="relation" data-speech-node="true" style="stroke:none" transform="matrix(.0024 0 0 -.0024 15.19 4.825)"/></g></g><g data-latex="{\!Q}" data-mjx-texclass="ORD" data-mml-node="TeXAtom" style="stroke:none"><use xlink:href="#o" aria-level="1" data-c="1D444" data-latex="Q" data-mml-node="mi" data-semantic-annotation="clearspeak:simple;depth:2" data-semantic-attributes="latex:{\!Q};texclass:ORD" data-semantic-font="italic" data-semantic-id="4" data-semantic-parent="5" data-semantic-role="latinletter" data-semantic-type="identifier" data-speech-node="true" style="stroke:none" transform="matrix(.0017 0 0 -.0017 14.869 5.246)"/></g></g><g aria-level="0" data-latex="\text{rest frame of }X" data-mml-node="math" data-semantic-annotation="depth:1" data-semantic-attributes="latex:\text{rest frame of }X" data-semantic-children="0,1" data-semantic-collapsed="(3 (c 2) 0 1)" data-semantic-id="3" data-semantic-owns="0 1" data-semantic-role="text" data-semantic-structure="(3 0 1)" data-semantic-type="punctuated" data-speech-node="true" style="font-variation-settings:normal;opacity:.5;vector-effect:none;fill:#da3;fill-opacity:1;stroke:none;stroke-width:0;stroke-linecap:butt;stroke-linejoin:miter;stroke-miterlimit:4;stroke-dasharray:none;stroke-dashoffset:0;stroke-opacity:1;-inkscape-stroke:none;stop-color:#000;stop-opacity:1" transform="matrix(.0024 0 0 -.0024 14.891 2.25)"><use xlink:href="#p" data-c="72" style="font-variation-settings:normal;vector-effect:none;fill:#da3;fill-opacity:1;stroke:none;stroke-width:0;stroke-linecap:butt;stroke-linejoin:miter;stroke-miterlimit:4;stroke-dasharray:none;stroke-dashoffset:0;stroke-opacity:1;-inkscape-stroke:none;stop-color:#000"/><use xlink:href="#q" data-c="65" style="font-variation-settings:normal;vector-effect:none;fill:#da3;fill-opacity:1;stroke:none;stroke-width:0;stroke-linecap:butt;stroke-linejoin:miter;stroke-miterlimit:4;stroke-dasharray:none;stroke-dashoffset:0;stroke-opacity:1;-inkscape-stroke:none;stop-color:#000" transform="translate(392)"/><use xlink:href="#r" data-c="73" style="font-variation-settings:normal;vector-effect:none;fill:#da3;fill-opacity:1;stroke:none;stroke-width:0;stroke-linecap:butt;stroke-linejoin:miter;stroke-miterlimit:4;stroke-dasharray:none;stroke-dashoffset:0;stroke-opacity:1;-inkscape-stroke:none;stop-color:#000" transform="translate(836)"/><use xlink:href="#s" data-c="74" style="font-variation-settings:normal;vector-effect:none;fill:#da3;fill-opacity:1;stroke:none;stroke-width:0;stroke-linecap:butt;stroke-linejoin:miter;stroke-miterlimit:4;stroke-dasharray:none;stroke-dashoffset:0;stroke-opacity:1;-inkscape-stroke:none;stop-color:#000" transform="translate(1230)"/><use xlink:href="#t" data-c="66" style="font-variation-settings:normal;vector-effect:none;fill:#da3;fill-opacity:1;stroke:none;stroke-width:0;stroke-linecap:butt;stroke-linejoin:miter;stroke-miterlimit:4;stroke-dasharray:none;stroke-dashoffset:0;stroke-opacity:1;-inkscape-stroke:none;stop-color:#000" transform="translate(1951)"/><use xlink:href="#p" data-c="72" style="font-variation-settings:normal;vector-effect:none;fill:#da3;fill-opacity:1;stroke:none;stroke-width:0;stroke-linecap:butt;stroke-linejoin:miter;stroke-miterlimit:4;stroke-dasharray:none;stroke-dashoffset:0;stroke-opacity:1;-inkscape-stroke:none;stop-color:#000" transform="translate(2257)"/><use xlink:href="#v" data-c="61" style="font-variation-settings:normal;vector-effect:none;fill:#da3;fill-opacity:1;stroke:none;stroke-width:0;stroke-linecap:butt;stroke-linejoin:miter;stroke-miterlimit:4;stroke-dasharray:none;stroke-dashoffset:0;stroke-opacity:1;-inkscape-stroke:none;stop-color:#000" transform="translate(2649)"/><use xlink:href="#w" data-c="6D" style="font-variation-settings:normal;vector-effect:none;fill:#da3;fill-opacity:1;stroke:none;stroke-width:0;stroke-linecap:butt;stroke-linejoin:miter;stroke-miterlimit:4;stroke-dasharray:none;stroke-dashoffset:0;stroke-opacity:1;-inkscape-stroke:none;stop-color:#000" transform="translate(3149)"/><use xlink:href="#q" data-c="65" style="font-variation-settings:normal;vector-effect:none;fill:#da3;fill-opacity:1;stroke:none;stroke-width:0;stroke-linecap:butt;stroke-linejoin:miter;stroke-miterlimit:4;stroke-dasharray:none;stroke-dashoffset:0;stroke-opacity:1;-inkscape-stroke:none;stop-color:#000" transform="translate(3982)"/><use xlink:href="#x" data-c="6F" style="font-variation-settings:normal;vector-effect:none;fill:#da3;fill-opacity:1;stroke:none;stroke-width:0;stroke-linecap:butt;stroke-linejoin:miter;stroke-miterlimit:4;stroke-dasharray:none;stroke-dashoffset:0;stroke-opacity:1;-inkscape-stroke:none;stop-color:#000" transform="translate(4758)"/><use xlink:href="#t" data-c="66" style="font-variation-settings:normal;vector-effect:none;fill:#da3;fill-opacity:1;stroke:none;stroke-width:0;stroke-linecap:butt;stroke-linejoin:miter;stroke-miterlimit:4;stroke-dasharray:none;stroke-dashoffset:0;stroke-opacity:1;-inkscape-stroke:none;stop-color:#000" transform="translate(5258)"/><use xlink:href="#y" data-c="1D44B" style="font-variation-settings:normal;vector-effect:none;fill:#da3;fill-opacity:1;stroke:none;stroke-width:0;stroke-linecap:butt;stroke-linejoin:miter;stroke-miterlimit:4;stroke-dasharray:none;stroke-dashoffset:0;stroke-opacity:1;-inkscape-stroke:none;stop-color:#000" transform="translate(5896)"/></g><g style="font-variation-settings:normal;opacity:1;vector-effect:none;fill:#da3;fill-opacity:1;stroke:none;stroke-width:0;stroke-linecap:butt;stroke-linejoin:miter;stroke-miterlimit:4;stroke-dasharray:none;stroke-dashoffset:0;stroke-opacity:1;-inkscape-stroke:none;stop-color:#000;stop-opacity:1"><g style="font-variation-settings:normal;vector-effect:none;fill:#da3;fill-opacity:1;stroke:none;stroke-width:0;stroke-linecap:butt;stroke-linejoin:miter;stroke-miterlimit:4;stroke-dasharray:none;stroke-dashoffset:0;stroke-opacity:1;-inkscape-stroke:none;stop-color:#000;stop-opacity:1" transform="translate(7.652 23.516)"><use xlink:href="#A" data-c="70" style="font-variation-settings:normal;vector-effect:none;fill:#da3;fill-opacity:1;stroke:none;stroke-width:0;stroke-linecap:butt;stroke-linejoin:miter;stroke-miterlimit:4;stroke-dasharray:none;stroke-dashoffset:0;stroke-opacity:1;-inkscape-stroke:none;stop-color:#000;stop-opacity:1" transform="matrix(.0024 0 0 -.0024 -7.262 -6.81)"/><use xlink:href="#C" data-c="72" style="font-variation-settings:normal;vector-effect:none;fill:#da3;fill-opacity:1;stroke:none;stroke-width:0;stroke-linecap:butt;stroke-linejoin:miter;stroke-miterlimit:4;stroke-dasharray:none;stroke-dashoffset:0;stroke-opacity:1;-inkscape-stroke:none;stop-color:#000;stop-opacity:1" transform="matrix(.0024 0 0 -.0024 -5.93 -6.81)"/><use xlink:href="#D" data-c="6F" style="font-variation-settings:normal;vector-effect:none;fill:#da3;fill-opacity:1;stroke:none;stroke-width:0;stroke-linecap:butt;stroke-linejoin:miter;stroke-miterlimit:4;stroke-dasharray:none;stroke-dashoffset:0;stroke-opacity:1;-inkscape-stroke:none;stop-color:#000;stop-opacity:1" transform="matrix(.0024 0 0 -.0024 -4.992 -6.81)"/><use xlink:href="#E" data-c="64" style="font-variation-settings:normal;vector-effect:none;fill:#da3;fill-opacity:1;stroke:none;stroke-width:0;stroke-linecap:butt;stroke-linejoin:miter;stroke-miterlimit:4;stroke-dasharray:none;stroke-dashoffset:0;stroke-opacity:1;-inkscape-stroke:none;stop-color:#000;stop-opacity:1" transform="matrix(.0024 0 0 -.0024 -3.795 -6.81)"/><use xlink:href="#F" data-c="75" style="font-variation-settings:normal;vector-effect:none;fill:#da3;fill-opacity:1;stroke:none;stroke-width:0;stroke-linecap:butt;stroke-linejoin:miter;stroke-miterlimit:4;stroke-dasharray:none;stroke-dashoffset:0;stroke-opacity:1;-inkscape-stroke:none;stop-color:#000;stop-opacity:1" transform="matrix(.0024 0 0 -.0024 -2.464 -6.81)"/><use xlink:href="#G" data-c="63" style="font-variation-settings:normal;vector-effect:none;fill:#da3;fill-opacity:1;stroke:none;stroke-width:0;stroke-linecap:butt;stroke-linejoin:miter;stroke-miterlimit:4;stroke-dasharray:none;stroke-dashoffset:0;stroke-opacity:1;-inkscape-stroke:none;stop-color:#000;stop-opacity:1" transform="matrix(.0024 0 0 -.0024 -1.132 -6.81)"/><use xlink:href="#H" data-c="74" style="font-variation-settings:normal;vector-effect:none;fill:#da3;fill-opacity:1;stroke:none;stroke-width:0;stroke-linecap:butt;stroke-linejoin:miter;stroke-miterlimit:4;stroke-dasharray:none;stroke-dashoffset:0;stroke-opacity:1;-inkscape-stroke:none;stop-color:#000;stop-opacity:1" transform="matrix(.0024 0 0 -.0024 -.07 -6.81)"/><use xlink:href="#I" data-c="69" style="font-variation-settings:normal;vector-effect:none;fill:#da3;fill-opacity:1;stroke:none;stroke-width:0;stroke-linecap:butt;stroke-linejoin:miter;stroke-miterlimit:4;stroke-dasharray:none;stroke-dashoffset:0;stroke-opacity:1;-inkscape-stroke:none;stop-color:#000;stop-opacity:1" transform="matrix(.0024 0 0 -.0024 .862 -6.81)"/><use xlink:href="#D" data-c="6F" style="font-variation-settings:normal;vector-effect:none;fill:#da3;fill-opacity:1;stroke:none;stroke-width:0;stroke-linecap:butt;stroke-linejoin:miter;stroke-miterlimit:4;stroke-dasharray:none;stroke-dashoffset:0;stroke-opacity:1;-inkscape-stroke:none;stop-color:#000;stop-opacity:1" transform="matrix(.0024 0 0 -.0024 1.528 -6.81)"/><use xlink:href="#J" data-c="6E" style="font-variation-settings:normal;vector-effect:none;fill:#da3;fill-opacity:1;stroke:none;stroke-width:0;stroke-linecap:butt;stroke-linejoin:miter;stroke-miterlimit:4;stroke-dasharray:none;stroke-dashoffset:0;stroke-opacity:1;-inkscape-stroke:none;stop-color:#000;stop-opacity:1" transform="matrix(.0024 0 0 -.0024 2.725 -6.81)"/></g><g style="font-variation-settings:normal;vector-effect:none;fill:#da3;fill-opacity:1;stroke:none;stroke-width:0;stroke-linecap:butt;stroke-linejoin:miter;stroke-miterlimit:4;stroke-dasharray:none;stroke-dashoffset:0;stroke-opacity:1;-inkscape-stroke:none;stop-color:#000;stop-opacity:1" transform="translate(-1.586 26.08)"><use xlink:href="#A" data-c="70" style="font-variation-settings:normal;vector-effect:none;fill:#da3;fill-opacity:1;stroke:none;stroke-width:0;stroke-linecap:butt;stroke-linejoin:miter;stroke-miterlimit:4;stroke-dasharray:none;stroke-dashoffset:0;stroke-opacity:1;-inkscape-stroke:none;stop-color:#000;stop-opacity:1" transform="matrix(.0024 0 0 -.0024 4.851 -6.81)"/><use xlink:href="#K" data-c="6C" style="font-variation-settings:normal;vector-effect:none;fill:#da3;fill-opacity:1;stroke:none;stroke-width:0;stroke-linecap:butt;stroke-linejoin:miter;stroke-miterlimit:4;stroke-dasharray:none;stroke-dashoffset:0;stroke-opacity:1;-inkscape-stroke:none;stop-color:#000;stop-opacity:1" transform="matrix(.0024 0 0 -.0024 6.182 -6.81)"/><use xlink:href="#L" data-c="61" style="font-variation-settings:normal;vector-effect:none;fill:#da3;fill-opacity:1;stroke:none;stroke-width:0;stroke-linecap:butt;stroke-linejoin:miter;stroke-miterlimit:4;stroke-dasharray:none;stroke-dashoffset:0;stroke-opacity:1;-inkscape-stroke:none;stop-color:#000;stop-opacity:1" transform="matrix(.0024 0 0 -.0024 6.848 -6.81)"/><use xlink:href="#J" data-c="6E" style="font-variation-settings:normal;vector-effect:none;fill:#da3;fill-opacity:1;stroke:none;stroke-width:0;stroke-linecap:butt;stroke-linejoin:miter;stroke-miterlimit:4;stroke-dasharray:none;stroke-dashoffset:0;stroke-opacity:1;-inkscape-stroke:none;stop-color:#000;stop-opacity:1" transform="matrix(.0024 0 0 -.0024 8.045 -6.81)"/><use xlink:href="#M" data-c="65" style="font-variation-settings:normal;vector-effect:none;fill:#da3;fill-opacity:1;stroke:none;stroke-width:0;stroke-linecap:butt;stroke-linejoin:miter;stroke-miterlimit:4;stroke-dasharray:none;stroke-dashoffset:0;stroke-opacity:1;-inkscape-stroke:none;stop-color:#000;stop-opacity:1" transform="matrix(.0024 0 0 -.0024 9.376 -6.81)"/></g></g><g aria-level="0" data-latex="y_\text{prod}" data-mml-node="msub" data-semantic-annotation="depth:1" data-semantic-attributes="latex:y_\text{prod}" data-semantic-children="0,1" data-semantic-id="2" data-semantic-owns="0 1" data-semantic-role="latinletter" data-semantic-type="subscript" data-speech-node="true" style="fill:#878787;fill-opacity:1;stroke:#000;stroke-width:0"><use xlink:href="#N" aria-level="1" data-c="1D466" data-latex="y" data-mml-node="mi" data-semantic-annotation="clearspeak:simple;nemeth:number;depth:2" data-semantic-attributes="latex:y" data-semantic-font="italic" data-semantic-id="0" data-semantic-parent="2" data-semantic-role="latinletter" data-semantic-type="identifier" data-speech-node="true" style="fill:#878787;fill-opacity:1" transform="matrix(.0024 0 0 -.0024 5.993 1.483)"/><g aria-level="1" data-latex="{prod}" data-mml-node="mtext" data-semantic-annotation="clearspeak:unit;depth:2" data-semantic-attributes="latex:{prod}" data-semantic-font="normal" data-semantic-id="1" data-semantic-parent="2" data-semantic-role="unknown" data-semantic-type="text" data-speech-node="true" style="fill:#878787;fill-opacity:1" transform="matrix(.0017 0 0 -.0017 7.245 1.842)"><use xlink:href="#O" data-c="70" style="fill:#878787;fill-opacity:1"/><use xlink:href="#P" data-c="72" style="fill:#878787;fill-opacity:1" transform="translate(556)"/><use xlink:href="#Q" data-c="6F" style="fill:#878787;fill-opacity:1" transform="translate(948)"/><use xlink:href="#R" data-c="64" style="fill:#878787;fill-opacity:1" transform="translate(1448)"/></g></g><g aria-level="0" data-latex="x_\text{prod}" data-mml-node="msub" data-semantic-annotation="depth:1" data-semantic-attributes="latex:x_\text{prod}" data-semantic-children="0,1" data-semantic-id="2" data-semantic-owns="0 1" data-semantic-role="latinletter" data-semantic-type="subscript" data-speech-node="true" style="fill:#878787;fill-opacity:1;stroke:none;stroke-width:0"><use xlink:href="#S" aria-level="1" data-c="1D465" data-latex="x" data-mml-node="mi" data-semantic-annotation="clearspeak:simple;nemeth:number;depth:2" data-semantic-attributes="latex:x" data-semantic-font="italic" data-semantic-id="0" data-semantic-parent="2" data-semantic-role="latinletter" data-semantic-type="identifier" data-speech-node="true" style="fill:#878787;fill-opacity:1;stroke:none" transform="matrix(.0024 0 0 -.0024 22.55 5.05)"/><g aria-level="1" data-latex="{prod}" data-mml-node="mtext" data-semantic-annotation="clearspeak:unit;depth:2" data-semantic-attributes="latex:{prod}" data-semantic-font="normal" data-semantic-id="1" data-semantic-parent="2" data-semantic-role="unknown" data-semantic-type="text" data-speech-node="true" style="fill:#878787;fill-opacity:1;stroke:none" transform="matrix(.0017 0 0 -.0017 23.998 5.409)"><use xlink:href="#T" data-c="70" style="fill:#878787;fill-opacity:1;stroke:none"/><use xlink:href="#U" data-c="72" style="fill:#878787;fill-opacity:1;stroke:none" transform="translate(556)"/><use xlink:href="#V" data-c="6F" style="fill:#878787;fill-opacity:1;stroke:none" transform="translate(948)"/><use xlink:href="#W" data-c="64" style="fill:#878787;fill-opacity:1;stroke:none" transform="translate(1448)"/></g></g><g aria-level="0" data-latex="z_\text{prod}" data-mml-node="msub" data-semantic-annotation="depth:1" data-semantic-attributes="latex:z_\text{prod}" data-semantic-children="0,1" data-semantic-id="2" data-semantic-owns="0 1" data-semantic-role="latinletter" data-semantic-type="subscript" data-speech-node="true" style="font-variation-settings:normal;opacity:1;vector-effect:none;fill:#878787;fill-opacity:1;stroke:none;stroke-width:0;stroke-linecap:butt;stroke-linejoin:miter;stroke-miterlimit:4;stroke-dasharray:none;stroke-dashoffset:0;stroke-opacity:1;-inkscape-stroke:none;stop-color:#000;stop-opacity:1"><use xlink:href="#X" aria-level="1" data-c="1D467" data-latex="z" data-mml-node="mi" data-semantic-annotation="clearspeak:simple;nemeth:number;depth:2" data-semantic-attributes="latex:z" data-semantic-font="italic" data-semantic-id="0" data-semantic-parent="2" data-semantic-role="latinletter" data-semantic-type="identifier" data-speech-node="true" style="font-variation-settings:normal;vector-effect:none;fill:#878787;fill-opacity:1;stroke:none;stroke-width:0;stroke-linecap:butt;stroke-linejoin:miter;stroke-miterlimit:4;stroke-dasharray:none;stroke-dashoffset:0;stroke-opacity:1;-inkscape-stroke:none;stop-color:#000;stop-opacity:1" transform="matrix(.0024 0 0 -.0024 44.462 24.228)"/><g aria-level="1" data-latex="{prod}" data-mml-node="mtext" data-semantic-annotation="clearspeak:unit;depth:2" data-semantic-attributes="latex:{prod}" data-semantic-font="normal" data-semantic-id="1" data-semantic-parent="2" data-semantic-role="unknown" data-semantic-type="text" data-speech-node="true" style="font-variation-settings:normal;vector-effect:none;fill:#878787;fill-opacity:1;stroke:none;stroke-width:0;stroke-linecap:butt;stroke-linejoin:miter;stroke-miterlimit:4;stroke-dasharray:none;stroke-dashoffset:0;stroke-opacity:1;-inkscape-stroke:none;stop-color:#000;stop-opacity:1" transform="matrix(.0017 0 0 -.0017 45.654 24.587)"><use xlink:href="#Y" data-c="70" style="font-variation-settings:normal;vector-effect:none;fill:#878787;fill-opacity:1;stroke:none;stroke-width:0;stroke-linecap:butt;stroke-linejoin:miter;stroke-miterlimit:4;stroke-dasharray:none;stroke-dashoffset:0;stroke-opacity:1;-inkscape-stroke:none;stop-color:#000;stop-opacity:1"/><use xlink:href="#Z" data-c="72" style="font-variation-settings:normal;vector-effect:none;fill:#878787;fill-opacity:1;stroke:none;stroke-width:0;stroke-linecap:butt;stroke-linejoin:miter;stroke-miterlimit:4;stroke-dasharray:none;stroke-dashoffset:0;stroke-opacity:1;-inkscape-stroke:none;stop-color:#000;stop-opacity:1" transform="translate(556)"/><use xlink:href="#aa" data-c="6F" style="font-variation-settings:normal;vector-effect:none;fill:#878787;fill-opacity:1;stroke:none;stroke-width:0;stroke-linecap:butt;stroke-linejoin:miter;stroke-miterlimit:4;stroke-dasharray:none;stroke-dashoffset:0;stroke-opacity:1;-inkscape-stroke:none;stop-color:#000;stop-opacity:1" transform="translate(948)"/><use xlink:href="#ab" data-c="64" style="font-variation-settings:normal;vector-effect:none;fill:#878787;fill-opacity:1;stroke:none;stroke-width:0;stroke-linecap:butt;stroke-linejoin:miter;stroke-miterlimit:4;stroke-dasharray:none;stroke-dashoffset:0;stroke-opacity:1;-inkscape-stroke:none;stop-color:#000;stop-opacity:1" transform="translate(1448)"/></g></g><g aria-level="0" data-latex="z_\text{decay}" data-mml-node="msub" data-semantic-annotation="depth:1" data-semantic-attributes="latex:z_\text{decay}" data-semantic-children="0,1" data-semantic-id="2" data-semantic-owns="0 1" data-semantic-role="latinletter" data-semantic-type="subscript" data-speech-node="true" style="font-variation-settings:normal;opacity:1;vector-effect:none;fill:#878787;fill-opacity:1;stroke:none;stroke-width:0;stroke-linecap:butt;stroke-linejoin:miter;stroke-miterlimit:4;stroke-dasharray:none;stroke-dashoffset:0;stroke-opacity:1;-inkscape-stroke:none;stop-color:#000;stop-opacity:1"><use xlink:href="#ac" aria-level="1" data-c="1D467" data-latex="z" data-mml-node="mi" data-semantic-annotation="clearspeak:simple;nemeth:number;depth:2" data-semantic-attributes="latex:z" data-semantic-font="italic" data-semantic-id="0" data-semantic-parent="2" data-semantic-role="latinletter" data-semantic-type="identifier" data-speech-node="true" style="font-variation-settings:normal;vector-effect:none;fill:#878787;fill-opacity:1;stroke:none;stroke-width:0;stroke-linecap:butt;stroke-linejoin:miter;stroke-miterlimit:4;stroke-dasharray:none;stroke-dashoffset:0;stroke-opacity:1;-inkscape-stroke:none;stop-color:#000;stop-opacity:1" transform="matrix(.0024 0 0 -.0024 56.993 5.07)"/><g aria-level="1" data-latex="{decay}" data-mml-node="mtext" data-semantic-annotation="clearspeak:unit;depth:2" data-semantic-attributes="latex:{decay}" data-semantic-font="normal" data-semantic-id="1" data-semantic-parent="2" data-semantic-role="unknown" data-semantic-type="text" data-speech-node="true" style="font-variation-settings:normal;vector-effect:none;fill:#878787;fill-opacity:1;stroke:none;stroke-width:0;stroke-linecap:butt;stroke-linejoin:miter;stroke-miterlimit:4;stroke-dasharray:none;stroke-dashoffset:0;stroke-opacity:1;-inkscape-stroke:none;stop-color:#000;stop-opacity:1" transform="matrix(.0017 0 0 -.0017 58.186 5.43)"><use xlink:href="#ad" data-c="64" style="font-variation-settings:normal;vector-effect:none;fill:#878787;fill-opacity:1;stroke:none;stroke-width:0;stroke-linecap:butt;stroke-linejoin:miter;stroke-miterlimit:4;stroke-dasharray:none;stroke-dashoffset:0;stroke-opacity:1;-inkscape-stroke:none;stop-color:#000;stop-opacity:1"/><use xlink:href="#ae" data-c="65" style="font-variation-settings:normal;vector-effect:none;fill:#878787;fill-opacity:1;stroke:none;stroke-width:0;stroke-linecap:butt;stroke-linejoin:miter;stroke-miterlimit:4;stroke-dasharray:none;stroke-dashoffset:0;stroke-opacity:1;-inkscape-stroke:none;stop-color:#000;stop-opacity:1" transform="translate(556)"/><use xlink:href="#af" data-c="63" style="font-variation-settings:normal;vector-effect:none;fill:#878787;fill-opacity:1;stroke:none;stroke-width:0;stroke-linecap:butt;stroke-linejoin:miter;stroke-miterlimit:4;stroke-dasharray:none;stroke-dashoffset:0;stroke-opacity:1;-inkscape-stroke:none;stop-color:#000;stop-opacity:1" transform="translate(1000)"/><use xlink:href="#ag" data-c="61" style="font-variation-settings:normal;vector-effect:none;fill:#878787;fill-opacity:1;stroke:none;stroke-width:0;stroke-linecap:butt;stroke-linejoin:miter;stroke-miterlimit:4;stroke-dasharray:none;stroke-dashoffset:0;stroke-opacity:1;-inkscape-stroke:none;stop-color:#000;stop-opacity:1" transform="translate(1444)"/><use xlink:href="#ah" data-c="79" style="font-variation-settings:normal;vector-effect:none;fill:#878787;fill-opacity:1;stroke:none;stroke-width:0;stroke-linecap:butt;stroke-linejoin:miter;stroke-miterlimit:4;stroke-dasharray:none;stroke-dashoffset:0;stroke-opacity:1;-inkscape-stroke:none;stop-color:#000;stop-opacity:1" transform="translate(1944)"/></g></g><g style="font-variation-settings:normal;opacity:1;vector-effect:none;fill:#7ad;fill-opacity:1;stroke:none;stroke-width:0;stroke-linecap:butt;stroke-linejoin:miter;stroke-miterlimit:4;stroke-dasharray:none;stroke-dashoffset:0;stroke-opacity:1;-inkscape-stroke:none;stop-color:#000;stop-opacity:1"><g style="font-variation-settings:normal;vector-effect:none;fill:#7ad;fill-opacity:1;stroke:none;stroke-width:0;stroke-linecap:butt;stroke-linejoin:miter;stroke-miterlimit:4;stroke-dasharray:none;stroke-dashoffset:0;stroke-opacity:1;-inkscape-stroke:none;stop-color:#000;stop-opacity:1" transform="translate(.398 .316)"><use xlink:href="#ai" data-c="64" style="font-variation-settings:normal;vector-effect:none;fill:#7ad;fill-opacity:1;stroke:none;stroke-width:0;stroke-linecap:butt;stroke-linejoin:miter;stroke-miterlimit:4;stroke-dasharray:none;stroke-dashoffset:0;stroke-opacity:1;-inkscape-stroke:none;stop-color:#000;stop-opacity:1" transform="matrix(.0024 0 0 -.0024 19.04 27.342)"/><use xlink:href="#ak" data-c="65" style="font-variation-settings:normal;vector-effect:none;fill:#7ad;fill-opacity:1;stroke:none;stroke-width:0;stroke-linecap:butt;stroke-linejoin:miter;stroke-miterlimit:4;stroke-dasharray:none;stroke-dashoffset:0;stroke-opacity:1;-inkscape-stroke:none;stop-color:#000;stop-opacity:1" transform="matrix(.0024 0 0 -.0024 20.37 27.342)"/><use xlink:href="#al" data-c="63" style="font-variation-settings:normal;vector-effect:none;fill:#7ad;fill-opacity:1;stroke:none;stroke-width:0;stroke-linecap:butt;stroke-linejoin:miter;stroke-miterlimit:4;stroke-dasharray:none;stroke-dashoffset:0;stroke-opacity:1;-inkscape-stroke:none;stop-color:#000;stop-opacity:1" transform="matrix(.0024 0 0 -.0024 21.434 27.342)"/><use xlink:href="#am" data-c="61" style="font-variation-settings:normal;vector-effect:none;fill:#7ad;fill-opacity:1;stroke:none;stroke-width:0;stroke-linecap:butt;stroke-linejoin:miter;stroke-miterlimit:4;stroke-dasharray:none;stroke-dashoffset:0;stroke-opacity:1;-inkscape-stroke:none;stop-color:#000;stop-opacity:1" transform="matrix(.0024 0 0 -.0024 22.497 27.342)"/><use xlink:href="#an" data-c="79" style="font-variation-settings:normal;vector-effect:none;fill:#7ad;fill-opacity:1;stroke:none;stroke-width:0;stroke-linecap:butt;stroke-linejoin:miter;stroke-miterlimit:4;stroke-dasharray:none;stroke-dashoffset:0;stroke-opacity:1;-inkscape-stroke:none;stop-color:#000;stop-opacity:1" transform="matrix(.0024 0 0 -.0024 23.694 27.342)"/></g><g style="font-variation-settings:normal;vector-effect:none;fill:#7ad;fill-opacity:1;stroke:none;stroke-width:0;stroke-linecap:butt;stroke-linejoin:miter;stroke-miterlimit:4;stroke-dasharray:none;stroke-dashoffset:0;stroke-opacity:1;-inkscape-stroke:none;stop-color:#000;stop-opacity:1" transform="translate(-6.133 2.745)"><use xlink:href="#ao" data-c="70" style="font-variation-settings:normal;vector-effect:none;fill:#7ad;fill-opacity:1;stroke:none;stroke-width:0;stroke-linecap:butt;stroke-linejoin:miter;stroke-miterlimit:4;stroke-dasharray:none;stroke-dashoffset:0;stroke-opacity:1;-inkscape-stroke:none;stop-color:#000;stop-opacity:1" transform="matrix(.0024 0 0 -.0024 25.753 27.342)"/><use xlink:href="#ap" data-c="6C" style="font-variation-settings:normal;vector-effect:none;fill:#7ad;fill-opacity:1;stroke:none;stroke-width:0;stroke-linecap:butt;stroke-linejoin:miter;stroke-miterlimit:4;stroke-dasharray:none;stroke-dashoffset:0;stroke-opacity:1;-inkscape-stroke:none;stop-color:#000;stop-opacity:1" transform="matrix(.0024 0 0 -.0024 27.085 27.342)"/><use xlink:href="#am" data-c="61" style="font-variation-settings:normal;vector-effect:none;fill:#7ad;fill-opacity:1;stroke:none;stroke-width:0;stroke-linecap:butt;stroke-linejoin:miter;stroke-miterlimit:4;stroke-dasharray:none;stroke-dashoffset:0;stroke-opacity:1;-inkscape-stroke:none;stop-color:#000;stop-opacity:1" transform="matrix(.0024 0 0 -.0024 27.75 27.342)"/><use xlink:href="#aq" data-c="6E" style="font-variation-settings:normal;vector-effect:none;fill:#7ad;fill-opacity:1;stroke:none;stroke-width:0;stroke-linecap:butt;stroke-linejoin:miter;stroke-miterlimit:4;stroke-dasharray:none;stroke-dashoffset:0;stroke-opacity:1;-inkscape-stroke:none;stop-color:#000;stop-opacity:1" transform="matrix(.0024 0 0 -.0024 28.947 27.342)"/><use xlink:href="#ak" data-c="65" style="font-variation-settings:normal;vector-effect:none;fill:#7ad;fill-opacity:1;stroke:none;stroke-width:0;stroke-linecap:butt;stroke-linejoin:miter;stroke-miterlimit:4;stroke-dasharray:none;stroke-dashoffset:0;stroke-opacity:1;-inkscape-stroke:none;stop-color:#000;stop-opacity:1" transform="matrix(.0024 0 0 -.0024 30.279 27.342)"/></g></g><g aria-level="0" data-latex="\text{rest frame of }A" data-mml-node="math" data-semantic-annotation="depth:1" data-semantic-attributes="latex:\text{rest frame of }A" data-semantic-children="0,1" data-semantic-collapsed="(3 (c 2) 0 1)" data-semantic-id="3" data-semantic-owns="0 1" data-semantic-role="text" data-semantic-structure="(3 0 1)" data-semantic-type="punctuated" data-speech-node="true" style="font-variation-settings:normal;opacity:.5;vector-effect:none;fill:gray;fill-opacity:1;stroke:none;stroke-width:0;stroke-linecap:butt;stroke-linejoin:miter;stroke-miterlimit:4;stroke-dasharray:none;stroke-dashoffset:0;stroke-opacity:1;-inkscape-stroke:none;stop-color:#000;stop-opacity:1" transform="matrix(.0024 0 0 -.0024 44.27 30.293)"><use xlink:href="#ar" data-c="72" style="font-variation-settings:normal;vector-effect:none;fill:gray;fill-opacity:1;stroke:none;stroke-width:0;stroke-linecap:butt;stroke-linejoin:miter;stroke-miterlimit:4;stroke-dasharray:none;stroke-dashoffset:0;stroke-opacity:1;-inkscape-stroke:none;stop-color:#000"/><use xlink:href="#as" data-c="65" style="font-variation-settings:normal;vector-effect:none;fill:gray;fill-opacity:1;stroke:none;stroke-width:0;stroke-linecap:butt;stroke-linejoin:miter;stroke-miterlimit:4;stroke-dasharray:none;stroke-dashoffset:0;stroke-opacity:1;-inkscape-stroke:none;stop-color:#000" transform="translate(392)"/><use xlink:href="#at" data-c="73" style="font-variation-settings:normal;vector-effect:none;fill:gray;fill-opacity:1;stroke:none;stroke-width:0;stroke-linecap:butt;stroke-linejoin:miter;stroke-miterlimit:4;stroke-dasharray:none;stroke-dashoffset:0;stroke-opacity:1;-inkscape-stroke:none;stop-color:#000" transform="translate(836)"/><use xlink:href="#au" data-c="74" style="font-variation-settings:normal;vector-effect:none;fill:gray;fill-opacity:1;stroke:none;stroke-width:0;stroke-linecap:butt;stroke-linejoin:miter;stroke-miterlimit:4;stroke-dasharray:none;stroke-dashoffset:0;stroke-opacity:1;-inkscape-stroke:none;stop-color:#000" transform="translate(1230)"/><use xlink:href="#av" data-c="66" style="font-variation-settings:normal;vector-effect:none;fill:gray;fill-opacity:1;stroke:none;stroke-width:0;stroke-linecap:butt;stroke-linejoin:miter;stroke-miterlimit:4;stroke-dasharray:none;stroke-dashoffset:0;stroke-opacity:1;-inkscape-stroke:none;stop-color:#000" transform="translate(1951)"/><use xlink:href="#ar" data-c="72" style="font-variation-settings:normal;vector-effect:none;fill:gray;fill-opacity:1;stroke:none;stroke-width:0;stroke-linecap:butt;stroke-linejoin:miter;stroke-miterlimit:4;stroke-dasharray:none;stroke-dashoffset:0;stroke-opacity:1;-inkscape-stroke:none;stop-color:#000" transform="translate(2257)"/><use xlink:href="#ax" data-c="61" style="font-variation-settings:normal;vector-effect:none;fill:gray;fill-opacity:1;stroke:none;stroke-width:0;stroke-linecap:butt;stroke-linejoin:miter;stroke-miterlimit:4;stroke-dasharray:none;stroke-dashoffset:0;stroke-opacity:1;-inkscape-stroke:none;stop-color:#000" transform="translate(2649)"/><use xlink:href="#ay" data-c="6D" style="font-variation-settings:normal;vector-effect:none;fill:gray;fill-opacity:1;stroke:none;stroke-width:0;stroke-linecap:butt;stroke-linejoin:miter;stroke-miterlimit:4;stroke-dasharray:none;stroke-dashoffset:0;stroke-opacity:1;-inkscape-stroke:none;stop-color:#000" transform="translate(3149)"/><use xlink:href="#as" data-c="65" style="font-variation-settings:normal;vector-effect:none;fill:gray;fill-opacity:1;stroke:none;stroke-width:0;stroke-linecap:butt;stroke-linejoin:miter;stroke-miterlimit:4;stroke-dasharray:none;stroke-dashoffset:0;stroke-opacity:1;-inkscape-stroke:none;stop-color:#000" transform="translate(3982)"/><use xlink:href="#az" data-c="6F" style="font-variation-settings:normal;vector-effect:none;fill:gray;fill-opacity:1;stroke:none;stroke-width:0;stroke-linecap:butt;stroke-linejoin:miter;stroke-miterlimit:4;stroke-dasharray:none;stroke-dashoffset:0;stroke-opacity:1;-inkscape-stroke:none;stop-color:#000" transform="translate(4758)"/><use xlink:href="#av" data-c="66" style="font-variation-settings:normal;vector-effect:none;fill:gray;fill-opacity:1;stroke:none;stroke-width:0;stroke-linecap:butt;stroke-linejoin:miter;stroke-miterlimit:4;stroke-dasharray:none;stroke-dashoffset:0;stroke-opacity:1;-inkscape-stroke:none;stop-color:#000" transform="translate(5258)"/><use xlink:href="#aA" data-c="1D434" style="font-variation-settings:normal;vector-effect:none;fill:gray;fill-opacity:1;stroke:none;stroke-width:0;stroke-linecap:butt;stroke-linejoin:miter;stroke-miterlimit:4;stroke-dasharray:none;stroke-dashoffset:0;stroke-opacity:1;-inkscape-stroke:none;stop-color:#000" transform="translate(5896)"/></g><g transform="translate(0 .265)"><path fill="none" stroke="red" stroke-width=".22" d="M36.312 21.249c.474-.978.4-2.337-.11-3.365"/><use xlink:href="#aC" data-c="1D703" style="fill:red;fill-opacity:1;stroke:none;stroke-width:0" transform="matrix(.003 0 0 -.003 37.194 20.483)"/></g><g fill="#fff" stroke-width=".111" style="stroke:#000"><path d="m50.392 9.365 1.42.179-.972 1.18"/><path stroke-linecap="round" d="M51.03 10.135c.018.439-.267.806-.636.821s-.682-.33-.699-.77.268-.807.636-.821h.065c.34.026.618.355.634.77z"/><path stroke-linecap="round" stroke-linejoin="bevel" d="M50.322 9.642c.243-.01.45.218.462.508a.54.54 0 0 1-.24.491l-1.743.751a.3.3 0 0 1-.117.025c-.244.01-.45-.218-.463-.509-.008-.221.098-.415.258-.5l1.724-.725c.033-.011.09-.037.12-.041z"/></g><g transform="translate(13.597 12.727)"><use xlink:href="#aE" data-c="1D706" style="fill:#000;stroke:#000;stroke-width:0" transform="matrix(.0024 0 0 -.0024 33.47 -3.468)"/><use xlink:href="#aF" data-c="30" style="fill:#000;stroke:#000;stroke-width:0" transform="matrix(.0017 0 0 -.0017 34.945 -3.11)"/></g><g aria-level="0" data-latex="\vec{p}_{\!B}" data-mml-node="msub" data-semantic-annotation="depth:1" data-semantic-attributes="latex:\vec{p}_{\!B}" data-semantic-children="2,4" data-semantic-id="5" data-semantic-owns="2 4" data-semantic-role="latinletter" data-semantic-type="subscript" data-speech-node="true" style="fill:#000;stroke:#000;stroke-width:0"><g data-latex="\vec{p}" data-mjx-texclass="ORD" data-mml-node="TeXAtom"><g aria-level="1" data-mml-node="mover" data-semantic-annotation="depth:2" data-semantic-attributes="latex:\vec{p};texclass:ORD" data-semantic-children="0,1" data-semantic-id="2" data-semantic-owns="0 1" data-semantic-parent="5" data-semantic-role="latinletter" data-semantic-type="overscore" data-speech-node="true"><use xlink:href="#aG" aria-level="2" data-c="1D45D" data-latex="p" data-mml-node="mi" data-semantic-annotation="clearspeak:simple;nemeth:number;depth:3" data-semantic-attributes="latex:p" data-semantic-font="italic" data-semantic-id="0" data-semantic-parent="2" data-semantic-role="latinletter" data-semantic-type="identifier" data-speech-node="true" transform="matrix(.0024 0 0 -.0024 42.185 9.092)"/><use xlink:href="#aH" aria-level="2" data-c="20D7" data-mml-node="mo" data-semantic-annotation="accent:arrow;depth:3" data-semantic-id="1" data-semantic-parent="2" data-semantic-role="overaccent" data-semantic-type="relation" data-speech-node="true" transform="matrix(.0024 0 0 -.0024 43.64 9.03)"/></g></g><g data-latex="{\!B}" data-mjx-texclass="ORD" data-mml-node="TeXAtom"><use xlink:href="#aI" aria-level="1" data-c="1D435" data-latex="B" data-mml-node="mi" data-semantic-annotation="clearspeak:simple;depth:2" data-semantic-attributes="latex:{\!B};texclass:ORD" data-semantic-font="italic" data-semantic-id="4" data-semantic-parent="5" data-semantic-role="latinletter" data-semantic-type="identifier" data-speech-node="true" transform="matrix(.0017 0 0 -.0017 43.319 9.451)"/></g></g><g aria-level="0" data-latex="\vec{p}_{\!C}" data-mml-node="msub" data-semantic-annotation="depth:1" data-semantic-attributes="latex:\vec{p}_{\!C}" data-semantic-children="2,4" data-semantic-id="5" data-semantic-owns="2 4" data-semantic-role="latinletter" data-semantic-type="subscript" data-speech-node="true" style="fill:#000;stroke:#000;stroke-width:0"><g data-latex="\vec{p}" data-mjx-texclass="ORD" data-mml-node="TeXAtom"><g aria-level="1" data-mml-node="mover" data-semantic-annotation="depth:2" data-semantic-attributes="latex:\vec{p};texclass:ORD" data-semantic-children="0,1" data-semantic-id="2" data-semantic-owns="0 1" data-semantic-parent="5" data-semantic-role="latinletter" data-semantic-type="overscore" data-speech-node="true"><use xlink:href="#aJ" aria-level="2" data-c="1D45D" data-latex="p" data-mml-node="mi" data-semantic-annotation="clearspeak:simple;nemeth:number;depth:3" data-semantic-attributes="latex:p" data-semantic-font="italic" data-semantic-id="0" data-semantic-parent="2" data-semantic-role="latinletter" data-semantic-type="identifier" data-speech-node="true" transform="matrix(.0024 0 0 -.0024 49.883 17.71)"/><use xlink:href="#aK" aria-level="2" data-c="20D7" data-mml-node="mo" data-semantic-annotation="accent:arrow;depth:3" data-semantic-id="1" data-semantic-parent="2" data-semantic-role="overaccent" data-semantic-type="relation" data-speech-node="true" transform="matrix(.0024 0 0 -.0024 51.337 17.648)"/></g></g><g data-latex="{\!C}" data-mjx-texclass="ORD" data-mml-node="TeXAtom"><use xlink:href="#aL" aria-level="1" data-c="1D436" data-latex="C" data-mml-node="mi" data-semantic-annotation="clearspeak:simple;depth:2" data-semantic-attributes="latex:{\!C};texclass:ORD" data-semantic-font="italic" data-semantic-id="4" data-semantic-parent="5" data-semantic-role="latinletter" data-semantic-type="identifier" data-speech-node="true" transform="matrix(.0017 0 0 -.0017 51.016 18.07)"/></g></g><g aria-level="0" data-latex="\vec{p}_{\!B} + \vec{p}_{\!C}" data-mml-node="math" data-semantic-annotation="depth:1" data-semantic-attributes="latex:\vec{p}_{\!B} + \vec{p}_{\!C}" data-semantic-children="5,12" data-semantic-content="6" data-semantic-id="13" data-semantic-owns="5 6 12" data-semantic-role="addition" data-semantic-structure="(13 (5 (2 0 1) 4) 6 (12 (9 7 8) 11))" data-semantic-type="infixop" data-speech-node="true" style="fill:#000;stroke:#000;stroke-width:0"><g aria-level="1" data-latex="\vec{p}_{\!B}" data-mml-node="msub" data-semantic-annotation="depth:2" data-semantic-attributes="latex:\vec{p}_{\!B}" data-semantic-children="2,4" data-semantic-id="5" data-semantic-owns="2 4" data-semantic-parent="13" data-semantic-role="latinletter" data-semantic-type="subscript" data-speech-node="true"><g data-latex="\vec{p}" data-mjx-texclass="ORD" data-mml-node="TeXAtom"><g aria-level="2" data-mml-node="mover" data-semantic-annotation="depth:3" data-semantic-attributes="latex:\vec{p};texclass:ORD" data-semantic-children="0,1" data-semantic-id="2" data-semantic-owns="0 1" data-semantic-parent="5" data-semantic-role="latinletter" data-semantic-type="overscore" data-speech-node="true"><use xlink:href="#aM" aria-level="3" data-c="1D45D" data-latex="p" data-mml-node="mi" data-semantic-annotation="clearspeak:simple;nemeth:number;depth:4" data-semantic-attributes="latex:p" data-semantic-font="italic" data-semantic-id="0" data-semantic-parent="2" data-semantic-role="latinletter" data-semantic-type="identifier" data-speech-node="true" transform="matrix(.0024 0 0 -.0024 31.522 15.85)"/><use xlink:href="#aN" aria-level="3" data-c="20D7" data-mml-node="mo" data-semantic-annotation="accent:arrow;depth:4" data-semantic-id="1" data-semantic-parent="2" data-semantic-role="overaccent" data-semantic-type="relation" data-speech-node="true" transform="matrix(.0024 0 0 -.0024 32.976 15.788)"/></g></g><g data-latex="{\!B}" data-mjx-texclass="ORD" data-mml-node="TeXAtom"><use xlink:href="#aO" aria-level="2" data-c="1D435" data-latex="B" data-mml-node="mi" data-semantic-annotation="clearspeak:simple;depth:3" data-semantic-attributes="latex:{\!B};texclass:ORD" data-semantic-font="italic" data-semantic-id="4" data-semantic-parent="5" data-semantic-role="latinletter" data-semantic-type="identifier" data-speech-node="true" transform="matrix(.0017 0 0 -.0017 32.655 16.21)"/></g></g><use xlink:href="#aP" aria-level="1" data-c="2B" data-latex="+" data-mml-node="mo" data-semantic-annotation="depth:2" data-semantic-attributes="latex:+" data-semantic-id="6" data-semantic-operator="infixop,+" data-semantic-parent="13" data-semantic-role="addition" data-semantic-type="operator" data-speech-node="true" transform="matrix(.0024 0 0 -.0024 34.592 15.85)"/><g aria-level="1" data-latex="\vec{p}_{\!C}" data-mml-node="msub" data-semantic-annotation="depth:2" data-semantic-attributes="latex:\vec{p}_{\!C}" data-semantic-children="9,11" data-semantic-id="12" data-semantic-owns="9 11" data-semantic-parent="13" data-semantic-role="latinletter" data-semantic-type="subscript" data-speech-node="true"><g data-latex="\vec{p}" data-mjx-texclass="ORD" data-mml-node="TeXAtom"><g aria-level="2" data-mml-node="mover" data-semantic-annotation="depth:3" data-semantic-attributes="latex:\vec{p};texclass:ORD" data-semantic-children="7,8" data-semantic-id="9" data-semantic-owns="7 8" data-semantic-parent="12" data-semantic-role="latinletter" data-semantic-type="overscore" data-speech-node="true"><use xlink:href="#aM" aria-level="3" data-c="1D45D" data-latex="p" data-mml-node="mi" data-semantic-annotation="clearspeak:simple;depth:4" data-semantic-attributes="latex:p" data-semantic-font="italic" data-semantic-id="7" data-semantic-parent="9" data-semantic-role="latinletter" data-semantic-type="identifier" data-speech-node="true" transform="matrix(.0024 0 0 -.0024 36.987 15.85)"/><use xlink:href="#aN" aria-level="3" data-c="20D7" data-mml-node="mo" data-semantic-annotation="accent:arrow;depth:4" data-semantic-id="8" data-semantic-parent="9" data-semantic-role="overaccent" data-semantic-type="relation" data-speech-node="true" transform="matrix(.0024 0 0 -.0024 38.442 15.788)"/></g></g><g data-latex="{\!C}" data-mjx-texclass="ORD" data-mml-node="TeXAtom"><use xlink:href="#aQ" aria-level="2" data-c="1D436" data-latex="C" data-mml-node="mi" data-semantic-annotation="clearspeak:simple;depth:3" data-semantic-attributes="latex:{\!C};texclass:ORD" data-semantic-font="italic" data-semantic-id="11" data-semantic-parent="12" data-semantic-role="latinletter" data-semantic-type="identifier" data-speech-node="true" transform="matrix(.0017 0 0 -.0017 38.121 16.21)"/></g></g></g><g aria-level="0" data-latex="\vec{p}_{\!A}^\text{prod}" data-mml-node="msubsup" data-semantic-annotation="depth:1" data-semantic-attributes="latex:\vec{p}_{\!A}^\text{prod}" data-semantic-children="2,4,5" data-semantic-collapsed="(7 (6 2 4) 5)" data-semantic-id="7" data-semantic-owns="2 4 5" data-semantic-role="latinletter" data-semantic-type="subsup" data-speech-node="true" style="fill:#000;stroke:#000;stroke-width:0"><g data-latex="\vec{p}" data-mjx-texclass="ORD" data-mml-node="TeXAtom"><g aria-level="2" data-mml-node="mover" data-semantic-annotation="depth:3" data-semantic-attributes="latex:\vec{p};texclass:ORD" data-semantic-children="0,1" data-semantic-id="2" data-semantic-owns="0 1" data-semantic-parent="7" data-semantic-role="latinletter" data-semantic-type="overscore" data-speech-node="true"><use xlink:href="#aR" aria-level="3" data-c="1D45D" data-latex="p" data-mml-node="mi" data-semantic-annotation="clearspeak:simple;nemeth:number;depth:4" data-semantic-attributes="latex:p" data-semantic-font="italic" data-semantic-id="0" data-semantic-parent="2" data-semantic-role="latinletter" data-semantic-type="identifier" data-speech-node="true" transform="matrix(.0024 0 0 -.0024 21.117 13.156)"/><use xlink:href="#aS" aria-level="3" data-c="20D7" data-mml-node="mo" data-semantic-annotation="accent:arrow;depth:4" data-semantic-id="1" data-semantic-parent="2" data-semantic-role="overaccent" data-semantic-type="relation" data-speech-node="true" transform="matrix(.0024 0 0 -.0024 22.571 13.094)"/></g></g><g aria-level="1" data-latex="{prod}" data-mml-node="mtext" data-semantic-annotation="clearspeak:unit;depth:2" data-semantic-attributes="latex:{prod}" data-semantic-font="normal" data-semantic-id="5" data-semantic-parent="7" data-semantic-role="unknown" data-semantic-type="text" data-speech-node="true" transform="matrix(.0017 0 0 -.0017 22.65 11.981)"><use xlink:href="#aT" data-c="70"/><use xlink:href="#aU" data-c="72" transform="translate(556)"/><use xlink:href="#aV" data-c="6F" transform="translate(948)"/><use xlink:href="#aW" data-c="64" transform="translate(1448)"/></g><g data-latex="{\!A}" data-mjx-texclass="ORD" data-mml-node="TeXAtom"><use xlink:href="#aX" aria-level="2" data-c="1D434" data-latex="A" data-mml-node="mi" data-semantic-annotation="clearspeak:simple;depth:3" data-semantic-attributes="latex:{\!A};texclass:ORD" data-semantic-font="italic" data-semantic-id="4" data-semantic-parent="7" data-semantic-role="latinletter" data-semantic-type="identifier" data-speech-node="true" transform="matrix(.0017 0 0 -.0017 22.25 13.953)"/></g></g><g aria-level="0" data-latex="\vec{p}_{\!D}" data-mml-node="msub" data-semantic-annotation="depth:1" data-semantic-attributes="latex:\vec{p}_{\!D}" data-semantic-children="2,4" data-semantic-id="5" data-semantic-owns="2 4" data-semantic-role="latinletter" data-semantic-type="subscript" data-speech-node="true" style="fill:#000;stroke:#000;stroke-width:0"><g data-latex="\vec{p}" data-mjx-texclass="ORD" data-mml-node="TeXAtom"><g aria-level="1" data-mml-node="mover" data-semantic-annotation="depth:2" data-semantic-attributes="latex:\vec{p};texclass:ORD" data-semantic-children="0,1" data-semantic-id="2" data-semantic-owns="0 1" data-semantic-parent="5" data-semantic-role="latinletter" data-semantic-type="overscore" data-speech-node="true"><use xlink:href="#aY" aria-level="2" data-c="1D45D" data-latex="p" data-mml-node="mi" data-semantic-annotation="clearspeak:simple;nemeth:number;depth:3" data-semantic-attributes="latex:p" data-semantic-font="italic" data-semantic-id="0" data-semantic-parent="2" data-semantic-role="latinletter" data-semantic-type="identifier" data-speech-node="true" transform="matrix(.0024 0 0 -.0024 26.394 24.506)"/><use xlink:href="#aZ" aria-level="2" data-c="20D7" data-mml-node="mo" data-semantic-annotation="accent:arrow;depth:3" data-semantic-id="1" data-semantic-parent="2" data-semantic-role="overaccent" data-semantic-type="relation" data-speech-node="true" transform="matrix(.0024 0 0 -.0024 27.849 24.444)"/></g></g><g data-latex="{\!D}" data-mjx-texclass="ORD" data-mml-node="TeXAtom"><use xlink:href="#ba" aria-level="1" data-c="1D437" data-latex="D" data-mml-node="mi" data-semantic-annotation="clearspeak:simple;depth:2" data-semantic-attributes="latex:{\!D};texclass:ORD" data-semantic-font="italic" data-semantic-id="4" data-semantic-parent="5" data-semantic-role="latinletter" data-semantic-type="identifier" data-speech-node="true" transform="matrix(.0017 0 0 -.0017 27.528 24.866)"/></g></g><g aria-level="0" data-latex="\vec{p}_{\!X}" data-mml-node="msub" data-semantic-annotation="depth:1" data-semantic-attributes="latex:\vec{p}_{\!X}" data-semantic-children="2,4" data-semantic-id="5" data-semantic-owns="2 4" data-semantic-role="latinletter" data-semantic-type="subscript" data-speech-node="true" style="fill:#000;stroke:#000;stroke-width:0"><g data-latex="\vec{p}" data-mjx-texclass="ORD" data-mml-node="TeXAtom"><g aria-level="1" data-mml-node="mover" data-semantic-annotation="depth:2" data-semantic-attributes="latex:\vec{p};texclass:ORD" data-semantic-children="0,1" data-semantic-id="2" data-semantic-owns="0 1" data-semantic-parent="5" data-semantic-role="latinletter" data-semantic-type="overscore" data-speech-node="true"><use xlink:href="#bb" aria-level="2" data-c="1D45D" data-latex="p" data-mml-node="mi" data-semantic-annotation="clearspeak:simple;nemeth:number;depth:3" data-semantic-attributes="latex:p" data-semantic-font="italic" data-semantic-id="0" data-semantic-parent="2" data-semantic-role="latinletter" data-semantic-type="identifier" data-speech-node="true" transform="matrix(.0024 0 0 -.0024 23.256 18.448)"/><use xlink:href="#bc" aria-level="2" data-c="20D7" data-mml-node="mo" data-semantic-annotation="accent:arrow;depth:3" data-semantic-id="1" data-semantic-parent="2" data-semantic-role="overaccent" data-semantic-type="relation" data-speech-node="true" transform="matrix(.0024 0 0 -.0024 24.71 18.386)"/></g></g><g data-latex="{\!X}" data-mjx-texclass="ORD" data-mml-node="TeXAtom"><use xlink:href="#bd" aria-level="1" data-c="1D44B" data-latex="X" data-mml-node="mi" data-semantic-annotation="clearspeak:simple;depth:2" data-semantic-attributes="latex:{\!X};texclass:ORD" data-semantic-font="italic" data-semantic-id="4" data-semantic-parent="5" data-semantic-role="latinletter" data-semantic-type="identifier" data-speech-node="true" transform="matrix(.0017 0 0 -.0017 24.39 18.808)"/></g></g><path fill="none" stroke="#000" stroke-linecap="round" stroke-width=".189" d="m41.61 15.495-8.938 3.85m9.082-3.587-8.938 3.85m8.618-3.43.531-.677-.886-.03"/><path fill="none" stroke="#878787" stroke-dasharray="0.400001, 0.2" stroke-linejoin="bevel" stroke-width=".126" marker-end="url(#d)" d="m.292 3.877 46.315 22.738"/><path fill="none" stroke="#000" stroke-linecap="round" stroke-width=".315" marker-start="url(#e)" d="m20.39 13.734-7.724-3.797"/><path fill="none" stroke="#000" stroke-linecap="round" stroke-width=".315" marker-start="url(#e)" d="m25.582 16.284 6.39 3.13"/></svg>