<svg xmlns="http://www.w3.org/2000/svg" xmlns:cc="http://creativecommons.org/ns#" xmlns:dc="http://purl.org/dc/elements/1.1/" xmlns:inkscape="http://www.inkscape.org/namespaces/inkscape" xmlns:rdf="http://www.w3.org/1999/02/22-rdf-syntax-ns#" xmlns:sodipodi="http://sodipodi.sourceforge.net/DTD/sodipodi-0.dtd" xmlns:xlink="http://www.w3.org/1999/xlink" inkscape:version="1.4.2 (1:1.4.2+202505120737+ebf0e940d0)" sodipodi:docname="polarimeter-norm-angle-definitions.svg" xml:space="preserve" width="313.671" height="158.531" viewBox="0 0 82.992 41.945"><sodipodi:namedview inkscape:current-layer="svg50" inkscape:cx="156.658" inkscape:cy="79.126" inkscape:deskcolor="#d1d1d1" inkscape:pagecheckerboard="0" inkscape:pageopacity="0" inkscape:showpageshadow="2" inkscape:window-height="1371" inkscape:window-maximized="1" inkscape:window-width="2560" inkscape:window-x="0" inkscape:window-y="32" inkscape:zoom="2.825" bordercolor="#000000" borderopacity=".25" pagecolor="#ffffff"/><defs><path id="b" d="M310 442c-69 0-131-30-186-89S41 229 41 159c0-98 66-170 164-170 69 0 137 27 205 80 15-53 46-80 92-80 36 0 87 38 87 74 0 9-5 13-16 13-7 0-13-4-16-12-8-21-29-46-52-46-17 0-26 32-26 97 0 14 3 25 9 32 27 33 51 71 70 113 25 54 40 94 44 120v4c-3 7-9 10-16 10-5-1-11-9-18-23-21-72-50-134-89-185v50c0 116-58 206-169 206m93-231c0-59 1-95 2-108-65-57-131-85-198-85-57 0-85 35-85 104 0 58 33 166 56 202 38 59 82 89 131 89 31 0 52-12 65-36 7-12 12-24 17-35 8-23 12-84 12-131"/><path id="c" d="M-69 599c9 3 13 8 13 17s-4 14-13 17c-36 12-62 34-78 67-3 7-9 11-16 11-13 0-19-6-19-18 0-15 13-35 39-59h-310c-13 0-19-6-19-18s6-18 19-18h310c-26-24-39-44-39-59 0-12 6-18 19-18 7 0 13 4 16 11 16 33 42 55 78 67"/><path id="d" d="M318-248c9 0 14 5 14 14 0 3-2 7-5 11-52 40-94 106-125 197-27 79-41 157-41 234v84c0 77 14 155 41 234 31 91 73 157 125 197 3 3 5 7 5 11 0 9-5 14-14 14-1 0-4-1-7-3-60-46-110-114-151-205-39-87-59-169-59-248v-84c0-79 20-161 59-248 41-91 91-159 151-205 3-2 6-3 7-3"/><path id="e" d="M284 621c0 27-13 40-40 40-28 0-56-28-56-56 0-27 14-40 41-40 28 0 55 28 55 56m-25-483c-22-79-54-119-95-119-13 0-20 9-20 28 0 17 29 103 88 259q12 34.5 12 54c0 49-34 85-83 85-43 0-77-25-102-76q-30-61.5-30-81c0-9 5-13 16-13 13 0 15 6 19 20 23 80 54 120 94 120 13 0 20-9 20-28 0-14-3-30-10-49-23-63-47-130-67-183-15-40-23-67-23-81 0-49 36-85 84-85q64.5 0 102 75c19 39 29 66 29 81 0 9-5 14-16 14-3 0-18-9-18-21"/><path id="f" d="M78-245c60 46 110 114 151 205 39 87 59 169 59 248v84c0 79-20 161-59 248-41 91-91 159-151 205-3 2-6 3-7 3-9 0-14-5-14-14 0-4 2-8 5-11 52-40 94-106 125-197 27-79 41-157 41-234v-84c0-77-14-155-41-234-31-91-73-157-125-197-3-4-5-8-5-11 0-9 5-14 14-14 1 0 4 1 7 3"/><path id="g" d="M452 664c0 15-8 25-24 29-51 13-89 19-113 19-71 0-114-40-114-106 0-39 19-95 58-168C156 412 76 321 51 220c-5-21-8-42-8-61 0-38 9-72 28-101 30-46 74-69 131-69 42 0 80 19 115 58 55 63 83 143 83 238 0 61-20 117-61 168l-7 9c-65 84-97 140-97 168 0 6 1 11 4 15 10 18 26 27 49 26 17 0 38-8 63-23 31-19 50-28 57-28 22 0 44 18 44 44M111 131c0 57 14 112 43 166 31 60 71 98 120 113 22-38 37-77 46-116 3-15 4-32 4-49 0-28-3-54-9-79-25-98-63-147-112-147-57 0-92 47-92 112"/><path id="h" d="M267 25c0 48-18 122-53 221-33 89-49 158-49 208 0 122 76 221 195 221s196-99 196-221c0-49-19-126-56-229-31-88-46-155-46-200 0-24 4-25 29-25h161l34 168h-33q-9-48-18-75c-4-11-13-17-26-20-3-1-15-1-36-1h-74q15 57 87 162 87 130.5 87 219c0 75-33 137-98 186-59 44-128 66-206 66q-118.5 0-207-66c-65-48-98-110-98-186q0-87 87-219c38-56 71-105 87-162h-74c-34 0-54 5-59 14-10 32-17 59-21 82H43L77 0h162c23 0 28 2 28 25"/><path id="i" d="M318-248c9 0 14 5 14 14 0 3-2 7-5 11-52 40-94 106-125 197-27 79-41 157-41 234v84c0 77 14 155 41 234 31 91 73 157 125 197 3 3 5 7 5 11 0 9-5 14-14 14-1 0-4-1-7-3-60-46-110-114-151-205-39-87-59-169-59-248v-84c0-79 20-161 59-248 41-91 91-159 151-205 3-2 6-3 7-3"/><path id="j" d="M284 621c0 27-13 40-40 40-28 0-56-28-56-56 0-27 14-40 41-40 28 0 55 28 55 56m-25-483c-22-79-54-119-95-119-13 0-20 9-20 28 0 17 29 103 88 259q12 34.5 12 54c0 49-34 85-83 85-43 0-77-25-102-76q-30-61.5-30-81c0-9 5-13 16-13 13 0 15 6 19 20 23 80 54 120 94 120 13 0 20-9 20-28 0-14-3-30-10-49-23-63-47-130-67-183-15-40-23-67-23-81 0-49 36-85 84-85q64.5 0 102 75c19 39 29 66 29 81 0 9-5 14-16 14-3 0-18-9-18-21"/><path id="k" d="M78-245c60 46 110 114 151 205 39 87 59 169 59 248v84c0 79-20 161-59 248-41 91-91 159-151 205-3 2-6 3-7 3-9 0-14-5-14-14 0-4 2-8 5-11 52-40 94-106 125-197 27-79 41-157 41-234v-84c0-77-14-155-41-234-31-91-73-157-125-197-3-4-5-8-5-11 0-9 5-14 14-14 1 0 4 1 7 3"/><path id="l" d="M164-11c45 0 92 27 138 81 80 93 153 265 153 428 0 41-7 84-21 127-18 53-52 80-101 80-45 0-90-27-137-81-80-92-154-264-154-428C42 94 75-11 164-11m168 686c33 0 50-38 50-115 0-43-10-108-30-193H155c25 93 49 162 74 207 37 67 72 101 103 101M145 327h196c-19-81-42-146-67-195-39-75-75-113-110-113-33 0-49 39-49 116q0 75 30 192"/><path id="n" d="M318-248c9 0 14 5 14 14 0 3-2 7-5 11-52 40-94 106-125 197-27 79-41 157-41 234v84c0 77 14 155 41 234 31 91 73 157 125 197 3 3 5 7 5 11 0 9-5 14-14 14-1 0-4-1-7-3-60-46-110-114-151-205-39-87-59-169-59-248v-84c0-79 20-161 59-248 41-91 91-159 151-205 3-2 6-3 7-3"/><path id="o" d="M284 621c0 27-13 40-40 40-28 0-56-28-56-56 0-27 14-40 41-40 28 0 55 28 55 56m-25-483c-22-79-54-119-95-119-13 0-20 9-20 28 0 17 29 103 88 259q12 34.5 12 54c0 49-34 85-83 85-43 0-77-25-102-76q-30-61.5-30-81c0-9 5-13 16-13 13 0 15 6 19 20 23 80 54 120 94 120 13 0 20-9 20-28 0-14-3-30-10-49-23-63-47-130-67-183-15-40-23-67-23-81 0-49 36-85 84-85q64.5 0 102 75c19 39 29 66 29 81 0 9-5 14-16 14-3 0-18-9-18-21"/><path id="p" d="M78-245c60 46 110 114 151 205 39 87 59 169 59 248v84c0 79-20 161-59 248-41 91-91 159-151 205-3 2-6 3-7 3-9 0-14-5-14-14 0-4 2-8 5-11 52-40 94-106 125-197 27-79 41-157 41-234v-84c0-77-14-155-41-234-31-91-73-157-125-197-3-4-5-8-5-11 0-9 5-14 14-14 1 0 4 1 7 3"/><path id="q" d="M310 442c-69 0-131-30-186-89S41 229 41 159c0-98 66-170 164-170 69 0 137 27 205 80 15-53 46-80 92-80 36 0 87 38 87 74 0 9-5 13-16 13-7 0-13-4-16-12-8-21-29-46-52-46-17 0-26 32-26 97 0 14 3 25 9 32 27 33 51 71 70 113 25 54 40 94 44 120v4c-3 7-9 10-16 10-5-1-11-9-18-23-21-72-50-134-89-185v50c0 116-58 206-169 206m93-231c0-59 1-95 2-108-65-57-131-85-198-85-57 0-85 35-85 104 0 58 33 166 56 202 38 59 82 89 131 89 31 0 52-12 65-36 7-12 12-24 17-35 8-23 12-84 12-131"/><path id="r" d="M-69 599c9 3 13 8 13 17s-4 14-13 17c-36 12-62 34-78 67-3 7-9 11-16 11-13 0-19-6-19-18 0-15 13-35 39-59h-310c-13 0-19-6-19-18s6-18 19-18h310c-26-24-39-44-39-59 0-12 6-18 19-18 7 0 13 4 16 11 16 33 42 55 78 67"/><path id="s" d="M374-11 527 0v38c-36 0-57 2-65 8s-12 21-12 44v604l-149-11v-38c35 0 57-3 65-9s11-20 11-43V390c-32 37-72 55-120 55-62 0-115-22-158-67s-65-99-65-162c0-61 20-114 61-159s91-68 152-68c51 0 94 19 127 58M261 415c43 0 78-19 103-57 7-11 10-22 10-35V121c0-13-3-24-10-35-28-45-66-67-113-67-41 0-74 20-100 61q-27 45-27 135c0 109 37 200 137 200"/><path id="t" d="M415 251c0 115-67 197-179 197-60 0-110-23-151-70-38-44-57-97-57-158 0-63 21-116 63-162q63-69 156-69c57 0 101 20 131 59 25 33 37 57 37 73 0 10-6 15-17 15-8 0-13-5-16-16q-33-99-129-99c-45 0-80 21-107 64-19 31-28 78-29 142h270c22 0 28 2 28 24m-89 98c11-33 16-65 16-94H118c3 66 20 111 50 134 25 20 47 30 68 30 45 0 75-23 90-70"/><path id="u" d="M265 705c-89 0-155-72-155-161V434H33v-38h77V79c0-19-3-31-10-35s-29-5-66-5V0l115 3c42 1 85 0 128-3v39h-24c-33 0-54 2-61 7s-10 17-10 35v315h112v38H179v111c0 60 31 130 86 130 8 0 15-1 22-3-15-8-23-22-23-41 0-31 15-47 46-47s47 16 47 48c0 45-47 73-92 73"/><path id="v" d="M483 91v59h-32V91c0-39-11-59-32-59-20 0-32 25-32 45v197c0 35-4 61-11 79-24 59-93 95-163 95-77 0-153-43-153-115 0-33 17-50 50-50s49 16 49 49c0 29-15 46-46 49 22 25 55 38 98 38 62 0 100-57 100-122v-33c-78-5-137-17-178-36C66 197 32 154 32 97c0-26 10-48 29-65 32-29 76-43 132-43 59 0 101 25 127 76 7-38 35-71 78-71 53 0 85 42 85 97M200 18c-46 0-84 34-84 80 0 93 97 133 195 138v-95c0-67-44-123-111-123"/><path id="w" d="M267 18c-69 0-82 29-82 94v330L32 431v-38c39 0 62-4 68-11s9-32 9-76V159c0-39 3-69 10-92 15-52 70-78 143-78 54 0 95 25 123 76v-76L535 0v38c-36 0-57 2-65 8s-12 20-12 43v353l-152-11v-38c35 0 56-3 64-9s12-19 12-42V167c0-79-42-149-115-149"/><path id="x" d="m144 3 111-3v39c-36 0-58 1-65 5s-10 16-10 35v615L33 683v-38c35 0 57-3 64-9s11-20 11-43V79c0-19-3-31-10-35s-29-5-65-5V0Z"/><path id="y" d="M332 126v60h-32v-58c0-50-18-106-62-106-41 0-61 34-61 102v271h139v38H177v182h-32c-1-33-4-62-11-88-17-66-56-100-115-103v-29h83V126c0-59 18-97 53-116 27-14 52-21 77-21 66 0 100 66 100 137"/><path id="z" d="M145-434c0-16 0-37 21-37 22 0 23 20 23 37V934c0 16-1 37-22 37-22 0-22-20-22-37z"/><path id="A" d="M310 442c-69 0-131-30-186-89S41 229 41 159c0-98 66-170 164-170 69 0 137 27 205 80 15-53 46-80 92-80 36 0 87 38 87 74 0 9-5 13-16 13-7 0-13-4-16-12-8-21-29-46-52-46-17 0-26 32-26 97 0 14 3 25 9 32 27 33 51 71 70 113 25 54 40 94 44 120v4c-3 7-9 10-16 10-5-1-11-9-18-23-21-72-50-134-89-185v50c0 116-58 206-169 206m93-231c0-59 1-95 2-108-65-57-131-85-198-85-57 0-85 35-85 104 0 58 33 166 56 202 38 59 82 89 131 89 31 0 52-12 65-36 7-12 12-24 17-35 8-23 12-84 12-131"/><path id="B" d="M-69 599c9 3 13 8 13 17s-4 14-13 17c-36 12-62 34-78 67-3 7-9 11-16 11-13 0-19-6-19-18 0-15 13-35 39-59h-310c-13 0-19-6-19-18s6-18 19-18h310c-26-24-39-44-39-59 0-12 6-18 19-18 7 0 13 4 16 11 16 33 42 55 78 67"/><path id="C" d="M318-248c9 0 14 5 14 14 0 3-2 7-5 11-52 40-94 106-125 197-27 79-41 157-41 234v84c0 77 14 155 41 234 31 91 73 157 125 197 3 3 5 7 5 11 0 9-5 14-14 14-1 0-4-1-7-3-60-46-110-114-151-205-39-87-59-169-59-248v-84c0-79 20-161 59-248 41-91 91-159 151-205 3-2 6-3 7-3"/><path id="D" d="M284 621c0 27-13 40-40 40-28 0-56-28-56-56 0-27 14-40 41-40 28 0 55 28 55 56m-25-483c-22-79-54-119-95-119-13 0-20 9-20 28 0 17 29 103 88 259q12 34.5 12 54c0 49-34 85-83 85-43 0-77-25-102-76q-30-61.5-30-81c0-9 5-13 16-13 13 0 15 6 19 20 23 80 54 120 94 120 13 0 20-9 20-28 0-14-3-30-10-49-23-63-47-130-67-183-15-40-23-67-23-81 0-49 36-85 84-85q64.5 0 102 75c19 39 29 66 29 81 0 9-5 14-16 14-3 0-18-9-18-21"/><path id="E" d="M78-245c60 46 110 114 151 205 39 87 59 169 59 248v84c0 79-20 161-59 248-41 91-91 159-151 205-3 2-6 3-7 3-9 0-14-5-14-14 0-4 2-8 5-11 52-40 94-106 125-197 27-79 41-157 41-234v-84c0-77-14-155-41-234-31-91-73-157-125-197-3-4-5-8-5-11 0-9 5-14 14-14 1 0 4 1 7 3"/><path id="F" d="M698 270H80c-16 0-24-7-24-20s8-20 24-20h618c16 0 24 7 24 20 0 12-12 20-24 20"/><path id="G" d="M374-11 527 0v38c-36 0-57 2-65 8s-12 21-12 44v604l-149-11v-38c35 0 57-3 65-9s11-20 11-43V390c-32 37-72 55-120 55-62 0-115-22-158-67s-65-99-65-162c0-61 20-114 61-159s91-68 152-68c51 0 94 19 127 58M261 415c43 0 78-19 103-57 7-11 10-22 10-35V121c0-13-3-24-10-35-28-45-66-67-113-67-41 0-74 20-100 61q-27 45-27 135c0 109 37 200 137 200"/><path id="H" d="M415 251c0 115-67 197-179 197-60 0-110-23-151-70-38-44-57-97-57-158 0-63 21-116 63-162q63-69 156-69c57 0 101 20 131 59 25 33 37 57 37 73 0 10-6 15-17 15-8 0-13-5-16-16q-33-99-129-99c-45 0-80 21-107 64-19 31-28 78-29 142h270c22 0 28 2 28 24m-89 98c11-33 16-65 16-94H118c3 66 20 111 50 134 25 20 47 30 68 30 45 0 75-23 90-70"/><path id="I" d="M265 705c-89 0-155-72-155-161V434H33v-38h77V79c0-19-3-31-10-35s-29-5-66-5V0l115 3c42 1 85 0 128-3v39h-24c-33 0-54 2-61 7s-10 17-10 35v315h112v38H179v111c0 60 31 130 86 130 8 0 15-1 22-3-15-8-23-22-23-41 0-31 15-47 46-47s47 16 47 48c0 45-47 73-92 73"/><path id="J" d="M483 91v59h-32V91c0-39-11-59-32-59-20 0-32 25-32 45v197c0 35-4 61-11 79-24 59-93 95-163 95-77 0-153-43-153-115 0-33 17-50 50-50s49 16 49 49c0 29-15 46-46 49 22 25 55 38 98 38 62 0 100-57 100-122v-33c-78-5-137-17-178-36C66 197 32 154 32 97c0-26 10-48 29-65 32-29 76-43 132-43 59 0 101 25 127 76 7-38 35-71 78-71 53 0 85 42 85 97M200 18c-46 0-84 34-84 80 0 93 97 133 195 138v-95c0-67-44-123-111-123"/><path id="K" d="M267 18c-69 0-82 29-82 94v330L32 431v-38c39 0 62-4 68-11s9-32 9-76V159c0-39 3-69 10-92 15-52 70-78 143-78 54 0 95 25 123 76v-76L535 0v38c-36 0-57 2-65 8s-12 20-12 43v353l-152-11v-38c35 0 56-3 64-9s12-19 12-42V167c0-79-42-149-115-149"/><path id="L" d="m144 3 111-3v39c-36 0-58 1-65 5s-10 16-10 35v615L33 683v-38c35 0 57-3 64-9s11-20 11-43V79c0-19-3-31-10-35s-29-5-65-5V0Z"/><path id="M" d="M332 126v60h-32v-58c0-50-18-106-62-106-41 0-61 34-61 102v271h139v38H177v182h-32c-1-33-4-62-11-88-17-66-56-100-115-103v-29h83V126c0-59 18-97 53-116 27-14 52-21 77-21 66 0 100 66 100 137"/><marker id="a" markerHeight="1" markerWidth="1" orient="auto-start-reverse" preserveAspectRatio="xMidYMid" refX="0" refY="0" style="overflow:visible" viewBox="0 0 1 1"><path d="m0 0 5-5-17.5 5L5 5Z" style="fill:context-stroke;fill-rule:evenodd;stroke:none" transform="scale(-.5)"/></marker></defs><path d="M216.667 102.274a9.975 17.25 10.608 0 0-2 .294v-.001L180.903 112.9l27.645 22.093a9.975 17.25 10.608 0 0 2.743 1.29 9.975 17.25 10.608 0 0 12.981-15.12 9.975 17.25 10.608 0 0-6.629-18.792 9.975 17.25 10.608 0 0-.976-.098" style="fill:#da3;fill-opacity:.3;stroke-width:0;stroke-linecap:round" transform="translate(-180.11 -95.233)"/><path d="M231.511 118.63c.308-1.369.616-2.736.59-4.206-.025-1.47-.384-3.04-.744-4.61" style="fill:none;stroke:#b56;stroke-width:.529167;stroke-linecap:round;stroke-dasharray:none;stroke-opacity:1" transform="translate(-210.607 -97.177)"/><path d="m229.877 121.876 4.782-22.742" style="fill:none;stroke:#b56;stroke-width:.529167;stroke-linecap:round;stroke-dasharray:none;stroke-opacity:1" transform="translate(-180.14 -95.233)"/><path d="m181.47 113.01 50.114-13.287" style="fill:none;stroke:#048;stroke-width:.529167;stroke-linecap:round;stroke-dasharray:none;stroke-opacity:1;marker-end:url(#a)" transform="translate(-180.11 -95.233)"/><path d="m181.47 113.01 45.252 8.51" style="fill:none;stroke:#048;stroke-width:.529167;stroke-linecap:round;stroke-dasharray:none;stroke-opacity:1;marker-end:url(#a)" transform="translate(-180.11 -95.233)"/><path d="M208.541 134.988c-3.699-2.963-5.272-10.058-3.879-17.496 1.4-7.473 5.464-13.535 10.005-14.925L180.903 112.9z" style="fill:#da3;fill-opacity:.542857;stroke:none;stroke-width:0;stroke-linecap:round;stroke-dasharray:none;stroke-opacity:1" transform="translate(-180.11 -95.233)"/><g style="display:inline"><g aria-level="0" data-latex="\vec{\alpha}^{(i)}" data-mml-node="msup" data-semantic-annotation="depth:1" data-semantic-attributes="latex:\vec{\alpha}^{(i)}" data-semantic-children="2,6" data-semantic-id="7" data-semantic-owns="2 6" data-semantic-role="greekletter" data-semantic-type="superscript" data-speech-node="true" style="fill:#048;stroke:none;stroke-width:0"><g data-latex="\vec{\alpha}" data-mjx-texclass="ORD" data-mml-node="TeXAtom" style="fill:#048;stroke:none"><g aria-level="1" data-mml-node="mover" data-semantic-annotation="depth:2" data-semantic-attributes="latex:\vec{\alpha};texclass:ORD" data-semantic-children="0,1" data-semantic-id="2" data-semantic-owns="0 1" data-semantic-parent="7" data-semantic-role="greekletter" data-semantic-type="overscore" data-speech-node="true" style="fill:#048;stroke:none"><use xlink:href="#b" aria-level="2" data-c="1D6FC" data-latex="\alpha" data-mml-node="mi" data-semantic-annotation="clearspeak:simple;nemeth:number;depth:3" data-semantic-attributes="latex:\alpha" data-semantic-font="italic" data-semantic-id="0" data-semantic-parent="2" data-semantic-role="greekletter" data-semantic-type="identifier" data-speech-node="true" style="fill:#048;stroke:none" transform="matrix(.00479 0 0 -.00479 39.859 5.304)"/><use xlink:href="#c" aria-level="2" data-c="20D7" data-mml-node="mo" data-semantic-annotation="accent:arrow;depth:3" data-semantic-id="1" data-semantic-parent="2" data-semantic-role="overaccent" data-semantic-type="relation" data-speech-node="true" style="fill:#048;stroke:none" transform="matrix(.00479 0 0 -.00479 43 5.18)"/></g></g><g aria-level="1" data-latex="{(i)}" data-mjx-texclass="ORD" data-mml-node="TeXAtom" data-semantic-annotation="depth:2" data-semantic-attributes="latex:{(i)};texclass:ORD" data-semantic-children="4" data-semantic-content="3,5" data-semantic-id="6" data-semantic-owns="3 4 5" data-semantic-parent="7" data-semantic-role="leftright" data-semantic-type="fenced" data-speech-node="true" style="fill:#048;stroke:none"><use xlink:href="#d" aria-level="2" data-c="28" data-latex="(" data-mml-node="mo" data-semantic-annotation="depth:3" data-semantic-attributes="latex:(" data-semantic-id="3" data-semantic-operator="fenced" data-semantic-parent="6" data-semantic-role="open" data-semantic-type="fence" data-speech-node="true" style="fill:#048;stroke:none" transform="matrix(.00339 0 0 -.00339 43.158 3.326)"/><use xlink:href="#e" aria-level="2" data-c="1D456" data-latex="i" data-mml-node="mi" data-semantic-annotation="clearspeak:simple;depth:3" data-semantic-attributes="latex:i" data-semantic-font="italic" data-semantic-id="4" data-semantic-parent="6" data-semantic-role="latinletter" data-semantic-type="identifier" data-speech-node="true" style="fill:#048;stroke:none" transform="matrix(.00339 0 0 -.00339 44.475 3.326)"/><use xlink:href="#f" aria-level="2" data-c="29" data-latex=")" data-mml-node="mo" data-semantic-annotation="depth:3" data-semantic-attributes="latex:)" data-semantic-id="5" data-semantic-operator="fenced" data-semantic-parent="6" data-semantic-role="close" data-semantic-type="fence" data-speech-node="true" style="fill:#048;stroke:none" transform="matrix(.00339 0 0 -.00339 45.644 3.326)"/></g></g><g aria-level="0" data-latex="\delta\Omega^{(i)}" data-mml-node="math" data-semantic-annotation="clearspeak:unit;depth:1" data-semantic-attributes="latex:\delta\Omega^{(i)}" data-semantic-children="0,6" data-semantic-content="7" data-semantic-id="8" data-semantic-owns="0 7 6" data-semantic-role="implicit" data-semantic-structure="(8 0 7 (6 1 (5 2 3 4)))" data-semantic-type="infixop" data-speech-node="true" style="fill:#b56;stroke:none;stroke-width:0"><use xlink:href="#g" aria-level="1" data-c="1D6FF" data-latex="\delta" data-mml-node="mi" data-semantic-annotation="clearspeak:simple;nemeth:number;depth:2" data-semantic-attributes="latex:\delta" data-semantic-font="italic" data-semantic-id="0" data-semantic-parent="8" data-semantic-role="greekletter" data-semantic-type="identifier" data-speech-node="true" style="fill:#b56;stroke:none" transform="matrix(.00479 0 0 -.00479 29.03 33.187)"/><g aria-level="1" data-latex="\Omega^{(i)}" data-mml-node="msup" data-semantic-annotation="depth:2" data-semantic-attributes="latex:\Omega^{(i)}" data-semantic-children="1,5" data-semantic-id="6" data-semantic-owns="1 5" data-semantic-parent="8" data-semantic-role="greekletter" data-semantic-type="superscript" data-speech-node="true" style="fill:#b56;stroke:none"><use xlink:href="#h" aria-level="2" data-c="3A9" data-latex="\Omega" data-mml-node="mi" data-semantic-annotation="clearspeak:simple;depth:3" data-semantic-attributes="latex:\Omega" data-semantic-font="normal" data-semantic-id="1" data-semantic-parent="6" data-semantic-role="greekletter" data-semantic-type="identifier" data-speech-node="true" style="fill:#b56;stroke:none" transform="matrix(.00479 0 0 -.00479 31.195 33.187)"/><g aria-level="2" data-latex="{(i)}" data-mjx-texclass="ORD" data-mml-node="TeXAtom" data-semantic-annotation="depth:3" data-semantic-attributes="latex:{(i)};texclass:ORD" data-semantic-children="3" data-semantic-content="2,4" data-semantic-id="5" data-semantic-owns="2 3 4" data-semantic-parent="6" data-semantic-role="leftright" data-semantic-type="fenced" data-speech-node="true" style="fill:#b56;stroke:none"><use xlink:href="#i" aria-level="3" data-c="28" data-latex="(" data-mml-node="mo" data-semantic-annotation="depth:4" data-semantic-attributes="latex:(" data-semantic-id="2" data-semantic-operator="fenced" data-semantic-parent="5" data-semantic-role="open" data-semantic-type="fence" data-speech-node="true" style="fill:#b56;stroke:none" transform="matrix(.00339 0 0 -.00339 34.81 31.21)"/><use xlink:href="#j" aria-level="3" data-c="1D456" data-latex="i" data-mml-node="mi" data-semantic-annotation="clearspeak:simple;depth:4" data-semantic-attributes="latex:i" data-semantic-font="italic" data-semantic-id="3" data-semantic-parent="5" data-semantic-role="latinletter" data-semantic-type="identifier" data-speech-node="true" style="fill:#b56;stroke:none" transform="matrix(.00339 0 0 -.00339 36.127 31.21)"/><use xlink:href="#k" aria-level="3" data-c="29" data-latex=")" data-mml-node="mo" data-semantic-annotation="depth:4" data-semantic-attributes="latex:)" data-semantic-id="4" data-semantic-operator="fenced" data-semantic-parent="5" data-semantic-role="close" data-semantic-type="fence" data-speech-node="true" style="fill:#b56;stroke:none" transform="matrix(.00339 0 0 -.00339 37.295 31.21)"/></g></g></g><g aria-level="0" data-latex="\theta^{(i)}" data-mml-node="msup" data-semantic-annotation="depth:1" data-semantic-attributes="latex:\theta^{(i)}" data-semantic-children="0,4" data-semantic-id="5" data-semantic-owns="0 4" data-semantic-role="greekletter" data-semantic-type="superscript" data-speech-node="true" style="fill:#b56;stroke:none;stroke-width:0"><use xlink:href="#l" aria-level="1" data-c="1D703" data-latex="\theta" data-mml-node="mi" data-semantic-annotation="clearspeak:simple;nemeth:number;depth:2" data-semantic-attributes="latex:\theta" data-semantic-font="italic" data-semantic-id="0" data-semantic-parent="5" data-semantic-role="greekletter" data-semantic-type="identifier" data-speech-node="true" style="fill:#b56;stroke:none" transform="matrix(.00479 0 0 -.00479 13.12 19.19)"/><g aria-level="1" data-latex="{(i)}" data-mjx-texclass="ORD" data-mml-node="TeXAtom" data-semantic-annotation="depth:2" data-semantic-attributes="latex:{(i)};texclass:ORD" data-semantic-children="2" data-semantic-content="1,3" data-semantic-id="4" data-semantic-owns="1 2 3" data-semantic-parent="5" data-semantic-role="leftright" data-semantic-type="fenced" data-speech-node="true" style="fill:#b56;stroke:none"><use xlink:href="#n" aria-level="2" data-c="28" data-latex="(" data-mml-node="mo" data-semantic-annotation="depth:3" data-semantic-attributes="latex:(" data-semantic-id="1" data-semantic-operator="fenced" data-semantic-parent="4" data-semantic-role="open" data-semantic-type="fence" data-speech-node="true" style="fill:#b56;stroke:none" transform="matrix(.00339 0 0 -.00339 15.525 17.212)"/><use xlink:href="#o" aria-level="2" data-c="1D456" data-latex="i" data-mml-node="mi" data-semantic-annotation="clearspeak:simple;depth:3" data-semantic-attributes="latex:i" data-semantic-font="italic" data-semantic-id="2" data-semantic-parent="4" data-semantic-role="latinletter" data-semantic-type="identifier" data-speech-node="true" style="fill:#b56;stroke:none" transform="matrix(.00339 0 0 -.00339 16.841 17.212)"/><use xlink:href="#p" aria-level="2" data-c="29" data-latex=")" data-mml-node="mo" data-semantic-annotation="depth:3" data-semantic-attributes="latex:)" data-semantic-id="3" data-semantic-operator="fenced" data-semantic-parent="4" data-semantic-role="close" data-semantic-type="fence" data-speech-node="true" style="fill:#b56;stroke:none" transform="matrix(.00339 0 0 -.00339 18.01 17.212)"/></g></g><g aria-level="0" data-latex="\vec{\alpha}^\text{default}" data-mml-node="msup" data-semantic-annotation="depth:1" data-semantic-attributes="latex:\vec{\alpha}^\text{default}" data-semantic-children="2,3" data-semantic-id="4" data-semantic-owns="2 3" data-semantic-role="greekletter" data-semantic-type="superscript" data-speech-node="true" style="fill:#048;stroke:none;stroke-width:0"><g data-latex="\vec{\alpha}" data-mjx-texclass="ORD" data-mml-node="TeXAtom" style="fill:#048;stroke:none"><g aria-level="1" data-mml-node="mover" data-semantic-annotation="depth:2" data-semantic-attributes="latex:\vec{\alpha};texclass:ORD" data-semantic-children="0,1" data-semantic-id="2" data-semantic-owns="0 1" data-semantic-parent="4" data-semantic-role="greekletter" data-semantic-type="overscore" data-speech-node="true" style="fill:#048;stroke:none"><use xlink:href="#q" aria-level="2" data-c="1D6FC" data-latex="\alpha" data-mml-node="mi" data-semantic-annotation="clearspeak:simple;nemeth:number;depth:3" data-semantic-attributes="latex:\alpha" data-semantic-font="italic" data-semantic-id="0" data-semantic-parent="2" data-semantic-role="greekletter" data-semantic-type="identifier" data-speech-node="true" style="fill:#048;stroke:none" transform="matrix(.00479 0 0 -.00479 44.56 32.617)"/><use xlink:href="#r" aria-level="2" data-c="20D7" data-mml-node="mo" data-semantic-annotation="accent:arrow;depth:3" data-semantic-id="1" data-semantic-parent="2" data-semantic-role="overaccent" data-semantic-type="relation" data-speech-node="true" style="fill:#048;stroke:none" transform="matrix(.00479 0 0 -.00479 47.702 32.493)"/></g></g><g aria-level="1" data-latex="{default}" data-mml-node="mtext" data-semantic-annotation="clearspeak:unit;depth:2" data-semantic-attributes="latex:{default}" data-semantic-font="normal" data-semantic-id="3" data-semantic-parent="4" data-semantic-role="unknown" data-semantic-type="text" data-speech-node="true" style="fill:#048;stroke:none" transform="matrix(.00339 0 0 -.00339 47.86 30.64)"><use xlink:href="#s" data-c="64" style="fill:#048;stroke:none"/><use xlink:href="#t" data-c="65" style="fill:#048;stroke:none" transform="translate(556)"/><use xlink:href="#u" data-c="66" style="fill:#048;stroke:none" transform="translate(1000)"/><use xlink:href="#v" data-c="61" style="fill:#048;stroke:none" transform="translate(1306)"/><use xlink:href="#w" data-c="75" style="fill:#048;stroke:none" transform="translate(1806)"/><use xlink:href="#x" data-c="6C" style="fill:#048;stroke:none" transform="translate(2362)"/><use xlink:href="#y" data-c="74" style="fill:#048;stroke:none" transform="translate(2640)"/></g></g><g aria-level="0" data-latex="\left|\vec{\alpha}^{(i)} - \vec{\alpha}^\text{default}\right|" data-latex-item="\left|\vec{\alpha}^{(i)} - \vec{\alpha}^\text{default}\right|" data-mjx-texclass="INNER" data-mml-node="TeXAtom" data-semantic-annotation="depth:1" data-semantic-attributes="latex:\left|\vec{\alpha}^{(i)} - \vec{\alpha}^\text{default}\right|;texclass:INNER" data-semantic-children="16" data-semantic-content="0,15" data-semantic-id="17" data-semantic-owns="0 16 15" data-semantic-role="neutral" data-semantic-type="fenced" data-speech-node="true" style="fill:#b56;stroke:none;stroke-width:0"><use xlink:href="#z" aria-level="1" data-c="2223" data-latex="\left|" data-latex-item="\left|" data-mjx-texclass="OPEN" data-mml-node="mo" data-semantic-annotation="depth:2" data-semantic-attributes="latex:\left|;texclass:OPEN" data-semantic-id="0" data-semantic-operator="fenced" data-semantic-parent="17" data-semantic-role="neutral" data-semantic-type="fence" data-speech-node="true" style="fill:#b56;stroke:none" transform="matrix(.00479 0 0 -.00479 53.77 18.776)"/><g aria-level="1" data-mml-node="mrow" data-semantic-added="true" data-semantic-annotation="depth:2" data-semantic-children="8,14" data-semantic-content="9" data-semantic-id="16" data-semantic-owns="8 9 14" data-semantic-parent="17" data-semantic-role="subtraction" data-semantic-type="infixop" data-speech-node="true" style="fill:#b56;stroke:none"><g aria-level="2" data-latex="\vec{\alpha}^{(i)}" data-mml-node="msup" data-semantic-annotation="depth:3" data-semantic-attributes="latex:\vec{\alpha}^{(i)}" data-semantic-children="3,7" data-semantic-id="8" data-semantic-owns="3 7" data-semantic-parent="16" data-semantic-role="greekletter" data-semantic-type="superscript" data-speech-node="true" style="fill:#b56;stroke:none"><g data-latex="\vec{\alpha}" data-mjx-texclass="ORD" data-mml-node="TeXAtom" style="fill:#b56;stroke:none"><g aria-level="3" data-mml-node="mover" data-semantic-annotation="depth:4" data-semantic-attributes="latex:\vec{\alpha};texclass:ORD" data-semantic-children="1,2" data-semantic-id="3" data-semantic-owns="1 2" data-semantic-parent="8" data-semantic-role="greekletter" data-semantic-type="overscore" data-speech-node="true" style="fill:#b56;stroke:none"><use xlink:href="#A" aria-level="4" data-c="1D6FC" data-latex="\alpha" data-mml-node="mi" data-semantic-annotation="clearspeak:simple;depth:5" data-semantic-attributes="latex:\alpha" data-semantic-font="italic" data-semantic-id="1" data-semantic-parent="3" data-semantic-role="greekletter" data-semantic-type="identifier" data-speech-node="true" style="fill:#b56;stroke:none" transform="matrix(.00479 0 0 -.00479 55.364 18.776)"/><use xlink:href="#B" aria-level="4" data-c="20D7" data-mml-node="mo" data-semantic-annotation="accent:arrow;depth:5" data-semantic-id="2" data-semantic-parent="3" data-semantic-role="overaccent" data-semantic-type="relation" data-speech-node="true" style="fill:#b56;stroke:none" transform="matrix(.00479 0 0 -.00479 58.505 18.651)"/></g></g><g aria-level="3" data-latex="{(i)}" data-mjx-texclass="ORD" data-mml-node="TeXAtom" data-semantic-annotation="depth:4" data-semantic-attributes="latex:{(i)};texclass:ORD" data-semantic-children="5" data-semantic-content="4,6" data-semantic-id="7" data-semantic-owns="4 5 6" data-semantic-parent="8" data-semantic-role="leftright" data-semantic-type="fenced" data-speech-node="true" style="fill:#b56;stroke:none"><use xlink:href="#C" aria-level="4" data-c="28" data-latex="(" data-mml-node="mo" data-semantic-annotation="depth:5" data-semantic-attributes="latex:(" data-semantic-id="4" data-semantic-operator="fenced" data-semantic-parent="7" data-semantic-role="open" data-semantic-type="fence" data-speech-node="true" style="fill:#b56;stroke:none" transform="matrix(.00339 0 0 -.00339 58.663 16.798)"/><use xlink:href="#D" aria-level="4" data-c="1D456" data-latex="i" data-mml-node="mi" data-semantic-annotation="clearspeak:simple;depth:5" data-semantic-attributes="latex:i" data-semantic-font="italic" data-semantic-id="5" data-semantic-parent="7" data-semantic-role="latinletter" data-semantic-type="identifier" data-speech-node="true" style="fill:#b56;stroke:none" transform="matrix(.00339 0 0 -.00339 59.98 16.798)"/><use xlink:href="#E" aria-level="4" data-c="29" data-latex=")" data-mml-node="mo" data-semantic-annotation="depth:5" data-semantic-attributes="latex:)" data-semantic-id="6" data-semantic-operator="fenced" data-semantic-parent="7" data-semantic-role="close" data-semantic-type="fence" data-speech-node="true" style="fill:#b56;stroke:none" transform="matrix(.00339 0 0 -.00339 61.147 16.798)"/></g></g><use xlink:href="#F" aria-level="2" data-c="2212" data-latex="-" data-mml-node="mo" data-semantic-annotation="depth:3" data-semantic-attributes="latex:-" data-semantic-id="9" data-semantic-operator="infixop,−" data-semantic-parent="16" data-semantic-role="subtraction" data-semantic-type="operator" data-speech-node="true" style="fill:#b56;stroke:none" transform="matrix(.00479 0 0 -.00479 63.045 18.776)"/><g aria-level="2" data-latex="\text{default}" data-mml-node="msup" data-semantic-annotation="depth:3" data-semantic-attributes="latex:\text{default}" data-semantic-children="12,13" data-semantic-id="14" data-semantic-owns="12 13" data-semantic-parent="16" data-semantic-role="greekletter" data-semantic-type="superscript" data-speech-node="true" style="fill:#b56;stroke:none"><g data-latex="\vec{\alpha}" data-mjx-texclass="ORD" data-mml-node="TeXAtom" style="fill:#b56;stroke:none"><g aria-level="3" data-mml-node="mover" data-semantic-annotation="depth:4" data-semantic-attributes="latex:\vec{\alpha};texclass:ORD" data-semantic-children="10,11" data-semantic-id="12" data-semantic-owns="10 11" data-semantic-parent="14" data-semantic-role="greekletter" data-semantic-type="overscore" data-speech-node="true" style="fill:#b56;stroke:none"><use xlink:href="#A" aria-level="4" data-c="1D6FC" data-latex="\alpha" data-mml-node="mi" data-semantic-annotation="clearspeak:simple;depth:5" data-semantic-attributes="latex:\alpha" data-semantic-font="italic" data-semantic-id="10" data-semantic-parent="12" data-semantic-role="greekletter" data-semantic-type="identifier" data-speech-node="true" style="fill:#b56;stroke:none" transform="matrix(.00479 0 0 -.00479 67.5 18.776)"/><use xlink:href="#B" aria-level="4" data-c="20D7" data-mml-node="mo" data-semantic-annotation="accent:arrow;depth:5" data-semantic-id="11" data-semantic-parent="12" data-semantic-role="overaccent" data-semantic-type="relation" data-speech-node="true" style="fill:#b56;stroke:none" transform="matrix(.00479 0 0 -.00479 70.64 18.651)"/></g></g><g aria-level="3" data-latex="{default}" data-mml-node="mtext" data-semantic-annotation="clearspeak:unit;depth:4" data-semantic-attributes="latex:{default}" data-semantic-font="normal" data-semantic-id="13" data-semantic-parent="14" data-semantic-role="unknown" data-semantic-type="text" data-speech-node="true" style="fill:#b56;stroke:none" transform="matrix(.00339 0 0 -.00339 70.798 16.798)"><use xlink:href="#G" data-c="64" style="fill:#b56;stroke:none"/><use xlink:href="#H" data-c="65" style="fill:#b56;stroke:none" transform="translate(556)"/><use xlink:href="#I" data-c="66" style="fill:#b56;stroke:none" transform="translate(1000)"/><use xlink:href="#J" data-c="61" style="fill:#b56;stroke:none" transform="translate(1306)"/><use xlink:href="#K" data-c="75" style="fill:#b56;stroke:none" transform="translate(1806)"/><use xlink:href="#L" data-c="6C" style="fill:#b56;stroke:none" transform="translate(2362)"/><use xlink:href="#M" data-c="74" style="fill:#b56;stroke:none" transform="translate(2640)"/></g></g></g><use xlink:href="#z" aria-level="1" data-c="2223" data-latex="\right|" data-latex-item="\right|" data-mjx-texclass="CLOSE" data-mml-node="mo" data-semantic-annotation="depth:2" data-semantic-attributes="latex:\right|;texclass:CLOSE" data-semantic-id="15" data-semantic-operator="fenced" data-semantic-parent="17" data-semantic-role="neutral" data-semantic-type="fence" data-speech-node="true" style="fill:#b56;stroke:none" transform="matrix(.00479 0 0 -.00479 81.293 18.776)"/></g></g><metadata><rdf:RDF><cc:Work><dc:creator><cc:Agent><dc:title>Remco de Boer</dc:title></cc:Agent></dc:creator><cc:license rdf:resource="http://creativecommons.org/licenses/by/4.0/"/></cc:Work><cc:License rdf:about="http://creativecommons.org/licenses/by/4.0/"><cc:permits rdf:resource="http://creativecommons.org/ns#Reproduction"/><cc:permits rdf:resource="http://creativecommons.org/ns#Distribution"/><cc:requires rdf:resource="http://creativecommons.org/ns#Notice"/><cc:requires rdf:resource="http://creativecommons.org/ns#Attribution"/><cc:permits rdf:resource="http://creativecommons.org/ns#DerivativeWorks"/></cc:License></rdf:RDF></metadata></svg>