<svg xmlns="http://www.w3.org/2000/svg" xmlns:cc="http://creativecommons.org/ns#" xmlns:dc="http://purl.org/dc/elements/1.1/" xmlns:inkscape="http://www.inkscape.org/namespaces/inkscape" xmlns:rdf="http://www.w3.org/1999/02/22-rdf-syntax-ns#" xmlns:sodipodi="http://sodipodi.sourceforge.net/DTD/sodipodi-0.dtd" xmlns:xlink="http://www.w3.org/1999/xlink" inkscape:version="1.4.2 (1:1.4.2+202505120737+ebf0e940d0)" sodipodi:docname="aligning-baryons-logo.svg" xml:space="preserve" width="362.222" height="220.298" viewBox="0 0 47.918 29.143"><sodipodi:namedview inkscape:current-layer="svg11" inkscape:cx="180.907" inkscape:cy="110.179" inkscape:deskcolor="#d1d1d1" inkscape:pagecheckerboard="0" inkscape:pageopacity="0" inkscape:showpageshadow="2" inkscape:window-height="1371" inkscape:window-maximized="1" inkscape:window-width="2560" inkscape:window-x="0" inkscape:window-y="32" inkscape:zoom="2.446" bordercolor="#000000" borderopacity=".25" pagecolor="#ffffff"/><defs><linearGradient id="b"><stop offset="0" style="stop-color:#da3;stop-opacity:1"/><stop offset="1" style="stop-color:#da3;stop-opacity:0"/></linearGradient><linearGradient id="a"><stop offset="0" style="stop-color:#da3;stop-opacity:1"/><stop offset="1" style="stop-color:#da3;stop-opacity:0"/></linearGradient><linearGradient xlink:href="#a" id="c" x1="21.729" x2="44.73" y1="10.818" y2="10.818" gradientUnits="userSpaceOnUse"/><linearGradient xlink:href="#b" id="e" x1="22.372" x2="44.638" y1="9.405" y2="9.405" gradientUnits="userSpaceOnUse"/><linearGradient xlink:href="#a" id="d" x1="22.019" x2="42.261" y1="12.27" y2="8.446" gradientUnits="userSpaceOnUse"/><linearGradient xlink:href="#b" id="f" x1="22.566" x2="44.541" y1="11.777" y2="6.259" gradientUnits="userSpaceOnUse"/></defs><path fill="#ebb133" fill-opacity=".8" fill-rule="evenodd" d="m8.985 8.89 2.335-1.44 29.635 1.405-.416 3.268-1.33 1.629z" style="opacity:.5;fill:#da3;stroke:none;stroke-width:0;stroke-dasharray:none"/><g style="opacity:1;fill:url(#c);stroke-width:.999985;stroke-dasharray:none" transform="translate(4.908 -.812)"><path d="M42.275 8.163a.3.3 0 0 0-.126.028c-2.72 1.204-4.093 2.132-7.14 2.774-2.951.62-5.479.733-8.828.827l1.287-1.36-5.74 1.814 5.833 1.492-1.36-1.286c3.351-.093 5.913-.202 8.944-.841 3.131-.66 4.552-1.61 7.271-2.815a.33.33 0 0 0-.141-.633" style="baseline-shift:baseline;display:inline;overflow:visible;fill:url(#d);stroke-width:.999985;stroke-linecap:round;stroke-linejoin:round;stroke-dasharray:none;stop-color:#000;stop-opacity:1"/></g><path fill="#76c2ed" fill-opacity=".8" d="M16.622.397 2.082 15.37l24.87 13.375L47.256 3.908Z" style="display:inline;opacity:.5;fill:#7ad;stroke:none;stroke-width:0;stroke-dasharray:none"/><g style="opacity:1"><path d="m26.728 16.514-.044.002a.33.33 0 0 0-.295.363l1.016 9.966-1.449-1.18 2.234 5.59 1.056-5.926-1.181 1.451-1.018-9.967a.33.33 0 0 0-.32-.299" style="baseline-shift:baseline;display:inline;overflow:visible;vector-effect:none;fill:#048;stroke-linecap:round;stroke-linejoin:round;stop-color:#000;stop-opacity:1" transform="translate(-1.883 -4.341)"/></g><path fill="#ebb133" fill-opacity=".8" fill-rule="evenodd" d="M.397 14.183 8.985 8.89l30.224 4.862 1.331-1.628-.865 6.791Z" style="opacity:.5;fill:#da3;stroke:none;stroke-width:0;stroke-dasharray:none"/><g style="opacity:1"><path d="m35.874 7.15-5.422 2.615 1.866.108-5.122 4.561a.33.33 0 0 0-.026.466.33.33 0 0 0 .467.028l5.122-4.562-.108 1.869z" style="baseline-shift:baseline;display:inline;overflow:visible;vector-effect:none;fill:#048;stroke-linecap:round;stroke-linejoin:round;stop-color:#000;stop-opacity:1" transform="translate(-1.883 -4.341)"/></g><g style="opacity:1"><path d="m18.14 6.7 2.822 5.317.037-1.868 4.647 4.828a.33.33 0 0 0 .467.01.33.33 0 0 0 .01-.467l-4.647-4.83 1.87.036z" style="baseline-shift:baseline;display:inline;overflow:visible;vector-effect:none;fill:#048;stroke-linecap:round;stroke-linejoin:round;stop-color:#000;stop-opacity:1" transform="translate(-1.883 -4.341)"/></g><g style="opacity:1;fill:url(#e)" transform="matrix(-1 0 0 1 45.594 -.68)"><path d="M44.328 5.72a.33.33 0 0 1 .254.145.33.33 0 0 1-.09.46c-2.313 1.565-4.659 3.155-7.683 4.091-2.933.908-6.445 1.189-9.96 1.454l1.418 1.22-5.895-1.216 5.647-2.082-1.22 1.418c3.513-.265 6.989-.55 9.814-1.425 2.914-.902 5.196-2.442 7.51-4.008a.33.33 0 0 1 .205-.057" style="baseline-shift:baseline;display:inline;overflow:visible;vector-effect:none;fill:url(#f);fill-opacity:1;stroke-linecap:round;stroke-linejoin:round;stop-color:#000;stop-opacity:1"/></g><metadata><rdf:RDF><cc:Work><dc:creator><cc:Agent><dc:title>Remco de Boer</dc:title></cc:Agent></dc:creator><cc:license rdf:resource="http://creativecommons.org/licenses/by/4.0/"/></cc:Work><cc:License rdf:about="http://creativecommons.org/licenses/by/4.0/"><cc:permits rdf:resource="http://creativecommons.org/ns#Reproduction"/><cc:permits rdf:resource="http://creativecommons.org/ns#Distribution"/><cc:requires rdf:resource="http://creativecommons.org/ns#Notice"/><cc:requires rdf:resource="http://creativecommons.org/ns#Attribution"/><cc:permits rdf:resource="http://creativecommons.org/ns#DerivativeWorks"/></cc:License></rdf:RDF></metadata></svg>