<svg xmlns="http://www.w3.org/2000/svg" xmlns:cc="http://creativecommons.org/ns#" xmlns:dc="http://purl.org/dc/elements/1.1/" xmlns:inkscape="http://www.inkscape.org/namespaces/inkscape" xmlns:rdf="http://www.w3.org/1999/02/22-rdf-syntax-ns#" xmlns:sodipodi="http://sodipodi.sourceforge.net/DTD/sodipodi-0.dtd" xmlns:xlink="http://www.w3.org/1999/xlink" inkscape:version="1.4.2 (1:1.4.2+202505120737+ebf0e940d0)" sodipodi:docname="aligning-baryons.svg" xml:space="preserve" width="413.151" height="305.767" viewBox="0 0 54.656 40.449"><sodipodi:namedview inkscape:current-layer="svg82" inkscape:cx="206.342" inkscape:cy="152.717" inkscape:deskcolor="#d1d1d1" inkscape:pagecheckerboard="0" inkscape:pageopacity="0" inkscape:showpageshadow="2" inkscape:window-height="1371" inkscape:window-maximized="1" inkscape:window-width="2560" inkscape:window-x="0" inkscape:window-y="32" inkscape:zoom="2.144" bordercolor="#000000" borderopacity=".25" pagecolor="#ffffff"/><defs><radialGradient id="a" cx="50.001" cy="50.001" r="50.001" fx="40.001" fy="60.001" gradientUnits="userSpaceOnUse"><stop offset="0" stop-color="#fff"/><stop offset=".18" stop-color="#fefefe"/><stop offset=".36" stop-color="#b2b2b2"/><stop offset=".5" stop-color="#7f7f7f"/><stop offset="1"/></radialGradient><radialGradient id="h" cx="50.001" cy="50.001" r="50.001" fx="40.001" fy="60.001" gradientTransform="matrix(.16001 0 0 -.16001 114.316 125.964)" gradientUnits="userSpaceOnUse"><stop offset="0" stop-color="#fff4ec" style="stop-color:#ffedfc;stop-opacity:1"/><stop offset=".23" stop-color="#ffc79f" style="stop-color:#ff9eef;stop-opacity:1"/><stop offset=".492" stop-color="#b37f59" style="stop-color:#b359a4;stop-opacity:1"/><stop offset=".751" stop-color="#805b40" style="stop-color:#40804b;stop-opacity:1"/><stop offset="1"/></radialGradient><radialGradient id="j" cx="50.001" cy="50.001" r="50.001" fx="40.001" fy="60.001" gradientUnits="userSpaceOnUse"><stop offset="0" stop-color="#fff"/><stop offset=".18" stop-color="#fefefe"/><stop offset=".36" stop-color="#b2b2b2"/><stop offset=".5" stop-color="#7f7f7f"/><stop offset="1"/></radialGradient><radialGradient id="b" cx="50.001" cy="50.001" r="50.001" fx="40.001" fy="60.001" gradientTransform="matrix(.16001 0 0 -.16001 114.316 125.964)" gradientUnits="userSpaceOnUse"><stop offset="0" stop-color="#ecf5ff"/><stop offset=".23" stop-color="#9fcfff"/><stop offset=".492" stop-color="#5986b3"/><stop offset=".751" stop-color="#406080"/><stop offset="1"/></radialGradient><radialGradient id="c" cx="50.001" cy="50.001" r="50.001" fx="40.001" fy="60.001" gradientTransform="matrix(.16001 0 0 -.16001 114.316 125.964)" gradientUnits="userSpaceOnUse"><stop offset="0" stop-color="#fff4ec"/><stop offset=".23" stop-color="#ffc79f"/><stop offset=".492" stop-color="#b37f59"/><stop offset=".751" stop-color="#805b40"/><stop offset="1"/></radialGradient><radialGradient xlink:href="#a" id="D" cx="50.001" cy="50.001" r="50.001" fx="40.001" fy="60.001" gradientTransform="matrix(.78326 -.52622 .79465 .8474 -28.896 33.942)" gradientUnits="userSpaceOnUse"/><radialGradient xlink:href="#b" id="E" cx="50.001" cy="50.001" r="50.001" fx="40.001" fy="60.001" gradientTransform="matrix(.16001 0 0 -.16001 114.316 125.964)" gradientUnits="userSpaceOnUse"/><radialGradient xlink:href="#c" id="u" cx="50.001" cy="50.001" r="50.001" fx="40.001" fy="60.001" gradientTransform="matrix(.16001 0 0 -.16001 114.316 125.964)" gradientUnits="userSpaceOnUse"/><radialGradient xlink:href="#c" id="v" cx="50.001" cy="50.001" r="50.001" fx="40.001" fy="60.001" gradientTransform="matrix(.16001 0 0 -.16001 114.316 125.964)" gradientUnits="userSpaceOnUse"/><radialGradient xlink:href="#c" id="x" cx="50.001" cy="50.001" r="50.001" fx="40.001" fy="60.001" gradientTransform="matrix(.16001 0 0 -.16001 114.316 125.964)" gradientUnits="userSpaceOnUse"/><radialGradient xlink:href="#f" id="K" cx="50.001" cy="50.001" r="50.001" fx="40.001" fy="60.001" gradientTransform="matrix(.331 -.7987 .94423 .28035 -13.762 75.92)" gradientUnits="userSpaceOnUse"/><radialGradient id="f" cx="50.001" cy="50.001" r="50.001" fx="40.001" fy="60.001" gradientUnits="userSpaceOnUse"><stop offset="0" stop-color="#fff" style="stop-color:#fff;stop-opacity:1"/><stop offset=".18" stop-color="#fefefe" style="stop-color:#eee;stop-opacity:1"/><stop offset=".36" stop-color="#b2b2b2" style="stop-color:#d9d9d9;stop-opacity:1"/><stop offset=".5" stop-color="#7f7f7f" style="stop-color:#b2b2b2;stop-opacity:1"/><stop offset="1" style="stop-color:#3f3f3f;stop-opacity:1"/></radialGradient><radialGradient xlink:href="#g" id="M" cx="50.001" cy="50.001" r="50.001" fx="40.001" fy="60.001" gradientTransform="matrix(.16001 0 0 -.16001 114.316 125.964)" gradientUnits="userSpaceOnUse"/><radialGradient id="g" cx="50.001" cy="50.001" r="50.001" fx="40.001" fy="60.001" gradientTransform="matrix(.16001 0 0 -.16001 114.316 125.964)" gradientUnits="userSpaceOnUse"><stop offset="0" stop-color="#ecf5ff"/><stop offset=".23" stop-color="#9fcfff"/><stop offset=".492" stop-color="#5986b3"/><stop offset=".751" stop-color="#406080"/><stop offset="1"/></radialGradient><radialGradient id="k" cx="50.001" cy="50.001" r="50.001" fx="40.001" fy="60.001" gradientTransform="matrix(.16001 0 0 -.16001 114.316 125.964)" gradientUnits="userSpaceOnUse"><stop offset="0" stop-color="#fff4ec"/><stop offset=".23" stop-color="#ffc79f"/><stop offset=".492" stop-color="#b37f59"/><stop offset=".751" stop-color="#805b40"/><stop offset="1"/></radialGradient><radialGradient id="i" cx="50.001" cy="50.001" r="50.001" fx="40.001" fy="60.001" gradientTransform="matrix(.16001 0 0 -.16001 114.316 125.964)" gradientUnits="userSpaceOnUse"><stop offset="0" stop-color="#fff4ec" style="stop-color:#edfff0;stop-opacity:1"/><stop offset=".23" stop-color="#ffc79f" style="stop-color:#9fffaf;stop-opacity:1"/><stop offset=".492" stop-color="#b37f59" style="stop-color:#59b368;stop-opacity:1"/><stop offset=".751" stop-color="#805b40" style="stop-color:#40804b;stop-opacity:1"/><stop offset="1"/></radialGradient><radialGradient xlink:href="#h" id="I" cx="50.001" cy="50.001" r="50.001" fx="40.001" fy="60.001" gradientTransform="matrix(.16001 0 0 -.16001 114.316 125.964)" gradientUnits="userSpaceOnUse"/><radialGradient xlink:href="#i" id="o" cx="50.001" cy="50.001" r="50.001" fx="40.001" fy="60.001" gradientTransform="matrix(.16001 0 0 -.16001 114.316 125.964)" gradientUnits="userSpaceOnUse"/><radialGradient xlink:href="#c" id="F" cx="50.001" cy="50.001" r="50.001" fx="40.001" fy="60.001" gradientTransform="matrix(.16001 0 0 -.16001 114.316 125.964)" gradientUnits="userSpaceOnUse"/><radialGradient xlink:href="#j" id="s" cx="50.001" cy="50.001" r="50.001" fx="40.001" fy="60.001" gradientUnits="userSpaceOnUse"/><radialGradient xlink:href="#k" id="N" cx="50.001" cy="50.001" r="50.001" fx="40.001" fy="60.001" gradientTransform="matrix(.16001 0 0 -.16001 114.316 125.964)" gradientUnits="userSpaceOnUse"/><radialGradient xlink:href="#k" id="O" cx="50.001" cy="50.001" r="50.001" fx="40.001" fy="60.001" gradientTransform="matrix(0 .16001 .16001 0 114.316 109.963)" gradientUnits="userSpaceOnUse"/><radialGradient xlink:href="#j" id="y" cx="50.001" cy="50.001" r="50.001" fx="40.001" fy="60.001" gradientUnits="userSpaceOnUse"/><radialGradient xlink:href="#b" id="z" cx="50.001" cy="50.001" r="50.001" fx="40.001" fy="60.001" gradientTransform="matrix(.16001 0 0 -.16001 114.316 125.964)" gradientUnits="userSpaceOnUse"/><radialGradient xlink:href="#b" id="A" cx="50.001" cy="50.001" r="50.001" fx="40.001" fy="60.001" gradientTransform="matrix(.16001 0 0 -.16001 114.316 125.964)" gradientUnits="userSpaceOnUse"/><radialGradient xlink:href="#b" id="B" cx="50.001" cy="50.001" r="50.001" fx="40.001" fy="60.001" gradientTransform="matrix(.16001 0 0 -.16001 114.316 125.964)" gradientUnits="userSpaceOnUse"/><clipPath id="r"><path d="M113.65 80.128c0-31.311-25.382-56.694-56.693-56.694C25.645 23.434.263 48.817.263 80.128s25.382 56.694 56.694 56.694c31.311 0 56.693-25.383 56.693-56.694"/></clipPath><clipPath id="t"><path stroke-width=".265" d="M126.317 117.964c0-5.333-8-5.333-8 0s8 5.333 8 0"/></clipPath><clipPath id="C"><path d="M89.474 258.854c16.672-11.674 15.628-41.929-2.332-67.578-17.96-25.648-46.032-36.977-62.704-25.304-16.672 11.674-15.627 41.929 2.332 67.578 17.96 25.648 46.033 36.977 62.704 25.304"/></clipPath><clipPath id="J"><path d="M89.474 258.854c16.672-11.674 15.628-41.929-2.332-67.578-17.96-25.648-46.032-36.977-62.704-25.304-16.672 11.674-15.627 41.929 2.332 67.578 17.96 25.648 46.033 36.977 62.704 25.304"/></clipPath><clipPath id="L"><path stroke-width=".265" d="M126.317 117.964a4 4 0 1 0-8 0 4 4 0 0 0 8 0"/></clipPath><clipPath id="n"><path stroke-width=".265" d="M126.317 117.964a4 4 0 1 0-8 0 4 4 0 0 0 8 0"/></clipPath><linearGradient id="m"><stop offset="0" style="stop-color:#da3;stop-opacity:1"/><stop offset="1" style="stop-color:#da3;stop-opacity:0"/></linearGradient><linearGradient id="l"><stop offset="0" style="stop-color:#da3;stop-opacity:0"/><stop offset="1" style="stop-color:#da3;stop-opacity:1"/></linearGradient><linearGradient xlink:href="#l" id="G" x1=".49" x2="27.117" y1="12.588" y2="12.588" gradientUnits="userSpaceOnUse"/><linearGradient xlink:href="#l" id="H" x1="5.307" x2="26.389" y1="10.675" y2="15.11" gradientUnits="userSpaceOnUse"/><linearGradient xlink:href="#m" id="p" x1="29.702" x2="53.657" y1="14.25" y2="14.25" gradientUnits="userSpaceOnUse"/></defs><g style="opacity:.6"><path fill="url(#c)" d="M114.316 125.964h16.002v-16.001h-16.002z" clip-path="url(#n)" style="opacity:.8;fill:url(#o)" transform="rotate(8.304 106.309 228.648)scale(.18632)"/><path d="M15.87 3.154a.08.08 0 0 0-.078-.078h-.715a.08.08 0 0 0-.08.078.08.08 0 0 0 .08.08h.715a.08.08 0 0 0 .078-.08" style="baseline-shift:baseline;display:inline;overflow:visible;vector-effect:none;fill:#555;fill-opacity:.5;stroke-linecap:round;stroke-linejoin:round;stop-color:#000" transform="translate(38.08 8.929)"/></g><path fill="#ebb133" fill-opacity=".8" fill-rule="evenodd" d="m11.41 12.897 1.793-1.105 30.958 1.669-.416 3.269-1.728 2.115z" style="opacity:.45;fill:#da3;stroke:none;stroke-width:0;stroke-dasharray:none"/><g style="opacity:1;fill:url(#p)"><g style="fill:url(#p)"><path d="M53.396 11.86a.3.3 0 0 0-.105.03c-8.44 3.48-12.053 3.922-21.557 3.624a1.3 1.3 0 0 1 .306-.562l-2.338.759 2.279.92a1.3 1.3 0 0 1-.266-.587c9.53.295 13.3-.17 21.777-3.667a.265.265 0 0 0-.096-.518m-21.415 4.77.001.002z" style="baseline-shift:baseline;display:inline;overflow:visible;vector-effect:none;fill-rule:evenodd;stop-color:#000;stop-opacity:1;fill:url(#p)"/></g></g><path fill="#76c2ed" fill-opacity=".8" d="M18.505 4.738 3.965 19.711l26.193 13.64L50.462 8.514Z" style="display:inline;opacity:.45;fill:#7ad;stroke:none;stroke-width:0;stroke-dasharray:none"/><g fill="none" stroke="#000" stroke-miterlimit="10" stroke-width=".532" clip-path="url(#r)" transform="translate(24.08 31.47)scale(.06273)"><path fill="url(#d)" d="M0 0h100v100H0Z" opacity=".5" style="fill:url(#s)" transform="matrix(2.268 0 0 -2.268 -56.443 193.528)"/></g><path fill="url(#e)" d="M114.316 125.964h16.002v-16.001h-16.002z" clip-path="url(#t)" style="font-variation-settings:normal;opacity:1;vector-effect:none;fill:url(#u);fill-opacity:1;stroke-width:1.13516;stroke-linecap:butt;stroke-linejoin:miter;stroke-miterlimit:4;stroke-dasharray:none;stroke-dashoffset:0;stroke-opacity:1;-inkscape-stroke:none;stop-color:#000;stop-opacity:1" transform="rotate(8.48 -22 35.718)scale(.23677)"/><path fill="url(#e)" d="M114.316 125.964h16.002v-16.001h-16.002z" clip-path="url(#t)" style="font-variation-settings:normal;opacity:1;vector-effect:none;fill:url(#v);fill-opacity:1;stroke-width:1.13516;stroke-linecap:butt;stroke-linejoin:miter;stroke-miterlimit:4;stroke-dasharray:none;stroke-dashoffset:0;stroke-opacity:1;-inkscape-stroke:none;stop-color:#000;stop-opacity:1" transform="rotate(6.417 -38.642 4.029)scale(.23677)"/><path fill="url(#e)" d="M114.316 125.964h16.002v-16.001h-16.002z" clip-path="url(#t)" style="font-variation-settings:normal;opacity:1;vector-effect:none;fill:url(#x);fill-opacity:1;stroke-width:1.13516;stroke-linecap:butt;stroke-linejoin:miter;stroke-miterlimit:4;stroke-dasharray:none;stroke-dashoffset:0;stroke-opacity:1;-inkscape-stroke:none;stop-color:#000;stop-opacity:1" transform="rotate(3.591 -142.305 10.64)scale(.23677)"/><g style="opacity:.9"><g fill="none" stroke="#000" stroke-miterlimit="10" stroke-width=".532" clip-path="url(#r)" transform="translate(12.22 .492)scale(.04478)"><path fill="url(#d)" d="M0 0h100v100H0Z" opacity=".5" style="fill:url(#y)" transform="matrix(2.268 0 0 -2.268 -56.443 193.528)"/></g><path fill="url(#e)" d="M114.316 125.964h16.002v-16.001h-16.002z" clip-path="url(#t)" style="fill:url(#z)" transform="translate(-4.499 -15.362)scale(.16923)"/><path fill="url(#e)" d="M114.316 125.964h16.002v-16.001h-16.002z" clip-path="url(#t)" style="fill:url(#A)" transform="translate(-6.194 -17.383)scale(.16923)"/><path fill="url(#e)" d="M114.316 125.964h16.002v-16.001h-16.002z" clip-path="url(#t)" style="fill:url(#B)" transform="translate(-7.097 -14.904)scale(.16923)"/></g><g style="opacity:.9"><g clip-path="url(#C)" transform="rotate(-62.52 18.215 -23.627)scale(.03746)"><path fill="url(#d)" d="M0 0h100v100H0Z" opacity=".5" style="fill:url(#D)" transform="matrix(1.96781 0 0 -2.32485 -41.434 328.656)"/></g><path fill="url(#e)" d="M114.316 125.964h16.002v-16.001h-16.002z" clip-path="url(#t)" style="fill:url(#E)" transform="rotate(13.212 83.62 104.123)scale(.15001)"/><path fill="url(#c)" d="M114.316 125.964h16.002v-16.001h-16.002z" clip-path="url(#t)" style="fill:url(#F)" transform="rotate(-.51 -1358.107 -2196.002)scale(.15001)"/></g><g style="opacity:1"><path d="M19.182 8.459a.265.265 0 0 0-.373.02.265.265 0 0 0 .02.373l5.718 5.154a.265.265 0 0 0 .375-.02.265.265 0 0 0-.02-.375z" style="baseline-shift:baseline;display:inline;overflow:visible;vector-effect:none;fill:#048;stroke-linecap:round;stroke-linejoin:round;stop-color:#000;stop-opacity:1"/><path d="m19.889 9.452 1.236-.065-2.861-1.4 1.69 2.7Z" style="baseline-shift:baseline;display:inline;overflow:visible;vector-effect:none;fill:#048;fill-rule:evenodd;stop-color:#000;stop-opacity:1"/></g><g style="opacity:1"><path d="M26.877 17.613a.265.265 0 0 0-.25.278l.623 11.984a.265.265 0 0 0 .277.25.265.265 0 0 0 .25-.277l-.623-11.985a.265.265 0 0 0-.277-.25" style="baseline-shift:baseline;display:inline;overflow:visible;vector-effect:none;fill:#048;stroke-linecap:round;stroke-linejoin:round;stop-color:#000;stop-opacity:1"/><path d="m27.452 28.673-.919-.828 1.033 3.013.715-3.104z" style="baseline-shift:baseline;display:inline;overflow:visible;vector-effect:none;fill:#048;fill-rule:evenodd;stop-color:#000;stop-opacity:1"/></g><g style="opacity:1;fill:url(#G)" transform="translate(-4.414)"><path d="M5.523 10.52a.265.265 0 0 0-.095.51c7.018 3.467 10.983 3.774 19.653 4.328a1.3 1.3 0 0 1-.324.555l2.36-.691-2.252-.985a1.3 1.3 0 0 1 .25.591c-8.632-.552-12.534-.854-19.453-4.272a.27.27 0 0 0-.139-.036" style="baseline-shift:baseline;display:inline;overflow:visible;vector-effect:none;fill:url(#H);stroke-linecap:round;stroke-linejoin:round;stop-color:#000;stop-opacity:1"/></g><g style="opacity:1"><path d="m34.209 8.56-5.31 4.534a.265.265 0 0 0-.03.373.265.265 0 0 0 .373.03l5.31-4.534a.265.265 0 0 0 .03-.373.265.265 0 0 0-.373-.03" style="baseline-shift:baseline;display:inline;overflow:visible;vector-effect:none;fill:#048;stroke-linecap:round;stroke-linejoin:round;stop-color:#000;stop-opacity:1"/><path d="m33.475 9.533-.097 1.234 1.761-2.654-2.897 1.323z" style="baseline-shift:baseline;display:inline;overflow:visible;vector-effect:none;fill:#048;fill-rule:evenodd;stop-color:#000;stop-opacity:1"/></g><g style="opacity:.6"><path fill="url(#c)" d="M114.316 125.964h16.002v-16.001h-16.002z" clip-path="url(#n)" style="opacity:.8;fill:url(#I)" transform="rotate(4.07 170.124 -288.231)scale(.18632)"/><path d="M3.05 4.006a.08.08 0 0 0-.077.078v.279h-.279a.08.08 0 0 0-.08.078.08.08 0 0 0 .08.08h.279V4.8a.08.08 0 0 0 .078.08.08.08 0 0 0 .08-.08v-.28h.278a.08.08 0 0 0 .078-.08.08.08 0 0 0-.078-.078h-.278v-.279a.08.08 0 0 0-.08-.078" style="baseline-shift:baseline;display:inline;overflow:visible;opacity:1;vector-effect:none;fill:#555;fill-opacity:.5;stroke-linecap:round;stroke-linejoin:round;stop-color:#000;stop-opacity:1" transform="translate(-1.908 6.298)"/></g><path fill="#ebb133" fill-opacity=".8" fill-rule="evenodd" d="m2.28 18.524 9.13-5.627 30.607 5.948 1.728-2.115-.294 2.313-.57 4.478z" style="opacity:.45;fill:#da3;stroke:none;stroke-width:0;stroke-dasharray:none"/><g clip-path="url(#J)" transform="rotate(-89.319 17.444 .525)scale(.04615)"><path fill="url(#d)" d="M0 0h100v100H0Z" opacity=".5" style="fill:url(#K);opacity:1" transform="matrix(1.96781 0 0 -2.32485 -41.434 328.656)"/></g><path fill="url(#e)" d="M114.316 125.964h16.002v-16.001h-16.002z" clip-path="url(#L)" style="fill:url(#M)" transform="rotate(9.249 68.679 49.083)scale(.18467)"/><path fill="url(#c)" d="M114.316 125.964h16.002v-16.001h-16.002z" clip-path="url(#L)" style="fill:url(#N)" transform="rotate(-89.319 21.263 17.343)scale(.18467)"/><path fill="url(#c)" d="M114.316 125.964h16.002v-16.001h-16.002z" clip-path="url(#L)" style="fill:url(#O)" transform="rotate(-89.319 21.263 17.343)scale(.18467)"/><metadata><rdf:RDF><cc:Work><dc:creator><cc:Agent><dc:title>Remco de Boer</dc:title></cc:Agent></dc:creator><cc:license rdf:resource="http://creativecommons.org/licenses/by/4.0/"/></cc:Work><cc:License rdf:about="http://creativecommons.org/licenses/by/4.0/"><cc:permits rdf:resource="http://creativecommons.org/ns#Reproduction"/><cc:permits rdf:resource="http://creativecommons.org/ns#Distribution"/><cc:requires rdf:resource="http://creativecommons.org/ns#Notice"/><cc:requires rdf:resource="http://creativecommons.org/ns#Attribution"/><cc:permits rdf:resource="http://creativecommons.org/ns#DerivativeWorks"/></cc:License></rdf:RDF></metadata></svg>