<svg xmlns="http://www.w3.org/2000/svg" width="252.437" height="15.71"><path d="M240.893 15.491h1.42V5.736h.037l3.759 6.942h1.15l3.72-6.942h.039v9.755h1.42V3.325h-1.803l-3.912 7.453h-.039l-3.989-7.453h-1.802zm-7.901.219c2.838 0 4.756-1.607 4.756-4.274V3.325h-1.457v8.001c.076 2.01-1.19 3.142-3.26 3.142-1.918 0-3.299-1.023-3.299-3.179V3.325h-1.457v8.184c0 2.96 2.224 4.201 4.717 4.201m-17.297-.219h1.458V9.828h6.481v5.663h1.458V3.325h-1.458v5.26h-6.481v-5.26h-1.458zm-7.325.219c2.531 0 4.526-1.352 4.526-3.653v-.439h-1.381v.256c0 1.644-1.266 2.63-3.145 2.63-1.994 0-3.452-1.169-3.452-3.032V7.417c0-1.937 1.496-3.07 3.375-3.07s3.222.95 3.222 2.595v.438h1.38v-.584c0-2.266-2.032-3.654-4.563-3.654-2.8 0-4.871 1.68-4.871 4.275v4.238c0 2.667 2.186 4.055 4.909 4.055m-9.09-4.274c0 1.973-1.572 3.069-3.413 3.069-1.994 0-3.452-1.17-3.452-3.033V7.49c0-2.046 1.496-3.179 3.375-3.179 2.071 0 3.49 1.096 3.49 2.96zm-3.451-8.33c-2.608 0-4.833 1.607-4.833 4.384v4.165c0 2.667 2.225 4.055 4.871 4.055s4.832-1.644 4.832-4.384V7.307c0-2.667-2.147-4.201-4.87-4.201M184.17 14.322h-3.299V9.828h3.26c1.573 0 2.762.658 2.762 2.192 0 1.571-1.19 2.302-2.724 2.302m-3.299-9.828h3.145c1.457 0 2.531.621 2.531 2.046 0 1.461-1.189 2.119-2.608 2.119h-3.068zm4.87 4.64v-.037c1.458-.365 2.225-1.498 2.225-2.74 0-2.01-1.419-3.032-3.643-3.032h-4.91V15.49h5.063c1.995 0 3.874-1.096 3.874-3.398 0-1.425-.882-2.667-2.608-2.96m-19.482 6.359h2.378V5.261h3.681V3.325h-9.741V5.26h3.682zm-8.783-13.262h2.11V0h-2.11zm-3.606 0h2.149V0h-2.148zm1.036 8.731 1.726-4.859h.039l1.764 4.86zm2.954-7.635h-2.187l-4.755 12.166h2.34l.996-2.594h4.871l.92 2.594h2.532zm-13.002 12.166h2.378V5.261h3.643V3.325h-9.703V5.26h3.682zm-8.399 0h2.378V3.325h-2.378zm-7.441.183c2.8 0 4.91-1.462 4.91-3.69 0-2.192-1.381-3.07-2.915-3.398l-2.186-.512c-.998-.255-1.88-.657-1.88-1.498 0-1.096.997-1.534 2.071-1.534 1.228 0 2.186.365 2.723 1.388l1.956-.804c-.805-1.826-2.377-2.52-4.487-2.52-2.493 0-4.564 1.351-4.564 3.617 0 2.155 1.342 2.886 3.03 3.324l2.186.475c.959.293 1.726.694 1.726 1.608 0 1.132-1.189 1.607-2.493 1.607-1.419 0-2.608-.657-3.068-1.863l-2.186.804c.69 2.082 2.838 2.996 5.177 2.996m-11.582-6.65h-2.378v-3.8h2.34c1.342 0 2.339.476 2.339 1.9 0 1.28-.92 1.9-2.301 1.9m2.11 1.644c1.725-.548 2.53-2.082 2.53-3.507 0-2.521-1.955-3.836-4.333-3.836h-5.063V15.49h2.378v-4.53h2.071l2.992 4.53h2.57zm-18.448 4.823h8.936v-1.973h-6.559v-3.215h5.753v-2.01h-5.753V5.335h6.482v-2.01h-8.86zm-8.668.073h2.301l4.257-12.24H96.61l-2.876 8.952h-.038l-2.877-8.951h-2.608zm-8.706-.073h2.378V3.325h-2.378zm-13.232 0h2.301V7.197h.039l5.522 8.294h2.34V3.325h-2.301v8.293h-.039l-5.56-8.293h-2.302zM0 15.528h2.378V10.96h2.07l2.992 4.567h2.608l-3.183-4.823c1.726-.548 2.531-2.083 2.531-3.508 0-2.52-1.956-3.836-4.333-3.836H0ZM2.378 9.06v-3.8h2.34c1.342 0 2.339.475 2.339 1.9 0 1.279-.92 1.9-2.301 1.9zm14.612 6.65c2.953 0 4.986-1.645 4.986-4.531V3.36h-2.378v7.71c0 1.716-.882 2.593-2.608 2.593-1.88 0-2.608-1.096-2.608-2.594V3.361h-2.416v7.965c0 2.923 2.033 4.384 5.024 4.384m7.978-.183h2.377V10.34h5.101v5.188h2.378V3.36h-2.378v4.97h-5.1V3.36h-2.378Zm12.886 0h2.378V10.96h2.071l2.991 4.567h2.608l-3.183-4.823c1.726-.548 2.531-2.083 2.531-3.508 0-2.52-1.917-3.836-4.333-3.836h-5.063Zm2.378-6.467v-3.8h2.378c1.304 0 2.34.475 2.34 1.9 0 1.279-.921 1.9-2.302 1.9zm9.205 2.23h5.139V9.535h-5.14zm8.13-.037V3.325h2.378v7.672c0 1.498.729 2.594 2.608 2.594 1.726 0 2.608-.84 2.608-2.594V3.325h2.378v7.782c0 2.886-2.033 4.53-4.986 4.53s-4.986-1.461-4.986-4.384" style="fill:#003560;fill-opacity:1;fill-rule:nonzero;stroke:none"/></svg>