<svg xmlns="http://www.w3.org/2000/svg" xmlns:cc="http://creativecommons.org/ns#" xmlns:dc="http://purl.org/dc/elements/1.1/" xmlns:inkscape="http://www.inkscape.org/namespaces/inkscape" xmlns:rdf="http://www.w3.org/1999/02/22-rdf-syntax-ns#" xmlns:sodipodi="http://sodipodi.sourceforge.net/DTD/sodipodi-0.dtd" xmlns:xlink="http://www.w3.org/1999/xlink" inkscape:version="1.4.2 (1:1.4.2+202505120737+ebf0e940d0)" sodipodi:docname="4-body-topology-2.svg" width="222.643" height="164.568" viewBox="0 0 58.908 43.542"><sodipodi:namedview inkscape:current-layer="svg18" inkscape:cx="111.196" inkscape:cy="82.297" inkscape:deskcolor="#d1d1d1" inkscape:pagecheckerboard="0" inkscape:pageopacity="0" inkscape:showpageshadow="2" inkscape:window-height="1371" inkscape:window-maximized="1" inkscape:window-width="2560" inkscape:window-x="0" inkscape:window-y="32" inkscape:zoom="3.979" bordercolor="#000000" borderopacity=".25" pagecolor="#ffffff"/><defs><path id="a" d="M96 585q56 81 153 81 48 0 96-26t78-92q37-83 37-228 0-155-43-237-20-42-55-67t-61-31-51-7q-26 0-52 6t-61 32-55 67q-43 82-43 237 0 174 57 265m225 12q-30 32-71 32-42 0-72-32-25-26-33-72t-8-192q0-158 8-208t36-79q28-30 69-30 40 0 68 30 29 30 36 84t8 203q0 145-8 191t-33 73"/><path id="e" d="m213 578-13-5q-14-5-40-10t-58-7H83v46h19q47 2 87 15t56 24 28 22q2 3 12 3 9 0 17-6V361l1-300q7-7 12-9t24-4 62-2h26V0h-11q-21 3-159 3-136 0-157-3H88v46h64q16 0 25 1t16 3 8 2 6 5 6 4z"/><path id="d" d="M109 429q-27 0-43 18t-16 44q0 71 53 123t132 52q91 0 152-56t62-145q0-43-20-82t-48-68-80-74q-36-31-100-92l-59-56 76-1q157 0 167 5 7 2 24 89v3h40v-3q-1-3-13-91T421 3V0H50v31q0 7 6 15t30 35q29 32 50 56 9 10 34 37t34 37 29 33 28 34 23 30 21 32 15 29 13 32 7 30 3 33q0 63-34 109t-97 46q-33 0-58-17t-35-33-10-19q0-1 5-1 18 0 37-14t19-46q0-25-16-42t-45-18"/><path id="c" d="M127 463q-27 0-42 17t-16 44q0 55 48 98t116 43q35 0 44-1 74-12 113-53t40-89q0-52-34-101t-94-71l-3-2q0-1 9-3t29-9 38-21q82-53 82-140 0-79-62-138T238-22q-80 0-138 43T42 130q0 28 18 45t45 18q28 0 46-18t18-45q0-11-3-20t-7-16-11-12-12-8-10-4-8-3l-4-1q51-45 124-45 55 0 83 53 17 33 17 101v20q0 95-64 127-15 6-61 7l-42 1-3 2q-2 3-2 16 0 18 8 18 28 0 58 5 34 5 62 42t28 112v8q0 57-35 79-22 14-47 14-32 0-59-11t-38-23-11-12h3q3-1 8-2t10-5 12-7 10-11 8-15 3-20q0-22-14-39t-45-18"/><path id="b" d="M462 0q-18 3-129 3-116 0-134-3h-9v46h58q7 0 17 2t14 5 7 8q1 2 1 54v50H28v46l151 231q153 232 155 233 2 2 21 2h18l6-6V211h92v-46h-92V66q0-7 6-12 8-7 57-8h29V0zM293 211v334L74 212l109-1z"/><path id="g" d="M127 463q-27 0-42 17t-16 44q0 55 48 98t116 43q35 0 44-1 74-12 113-53t40-89q0-52-34-101t-94-71l-3-2q0-1 9-3t29-9 38-21q82-53 82-140 0-79-62-138T238-22q-80 0-138 43T42 130q0 28 18 45t45 18q28 0 46-18t18-45q0-11-3-20t-7-16-11-12-12-8-10-4-8-3l-4-1q51-45 124-45 55 0 83 53 17 33 17 101v20q0 95-64 127-15 6-61 7l-42 1-3 2q-2 3-2 16 0 18 8 18 28 0 58 5 34 5 62 42t28 112v8q0 57-35 79-22 14-47 14-32 0-59-11t-38-23-11-12h3q3-1 8-2t10-5 12-7 10-11 8-15 3-20q0-22-14-39t-45-18"/><path id="f" d="M462 0q-18 3-129 3-116 0-134-3h-9v46h58q7 0 17 2t14 5 7 8q1 2 1 54v50H28v46l151 231q153 232 155 233 2 2 21 2h18l6-6V211h92v-46h-92V66q0-7 6-12 8-7 57-8h29V0zM293 211v334L74 212l109-1z"/><path id="m" d="M94 250q0 69 10 131t23 107 37 88 38 67 42 52 33 34 25 21h17q14 0 14-9 0-3-17-21t-41-53-49-86-42-138-17-193 17-192 41-139 49-86 42-53 17-21q0-9-15-9h-16l-28 24q-94 85-137 212T94 250"/><path id="o" d="m213 578-13-5q-14-5-40-10t-58-7H83v46h19q47 2 87 15t56 24 28 22q2 3 12 3 9 0 17-6V361l1-300q7-7 12-9t24-4 62-2h26V0h-11q-21 3-159 3-136 0-157-3H88v46h64q16 0 25 1t16 3 8 2 6 5 6 4z"/><path id="n" d="M109 429q-27 0-43 18t-16 44q0 71 53 123t132 52q91 0 152-56t62-145q0-43-20-82t-48-68-80-74q-36-31-100-92l-59-56 76-1q157 0 167 5 7 2 24 89v3h40v-3q-1-3-13-91T421 3V0H50v31q0 7 6 15t30 35q29 32 50 56 9 10 34 37t34 37 29 33 28 34 23 30 21 32 15 29 13 32 7 30 3 33q0 63-34 109t-97 46q-33 0-58-17t-35-33-10-19q0-1 5-1 18 0 37-14t19-46q0-25-16-42t-45-18"/><path id="j" d="m60 749 4 1h22l28-24q94-85 137-212t43-264q0-68-10-131T261 12t-37-88-38-67-41-51-32-33-23-19l-4-4H63q-3 0-5 3t-3 9q1 1 11 13Q221-64 221 250T66 725q-10 12-11 13 0 8 5 11"/><path id="l" d="M127 463q-27 0-42 17t-16 44q0 55 48 98t116 43q35 0 44-1 74-12 113-53t40-89q0-52-34-101t-94-71l-3-2q0-1 9-3t29-9 38-21q82-53 82-140 0-79-62-138T238-22q-80 0-138 43T42 130q0 28 18 45t45 18q28 0 46-18t18-45q0-11-3-20t-7-16-11-12-12-8-10-4-8-3l-4-1q51-45 124-45 55 0 83 53 17 33 17 101v20q0 95-64 127-15 6-61 7l-42 1-3 2q-2 3-2 16 0 18 8 18 28 0 58 5 34 5 62 42t28 112v8q0 57-35 79-22 14-47 14-32 0-59-11t-38-23-11-12h3q3-1 8-2t10-5 12-7 10-11 8-15 3-20q0-22-14-39t-45-18"/><path id="k" d="M462 0q-18 3-129 3-116 0-134-3h-9v46h58q7 0 17 2t14 5 7 8q1 2 1 54v50H28v46l151 231q153 232 155 233 2 2 21 2h18l6-6V211h92v-46h-92V66q0-7 6-12 8-7 57-8h29V0zM293 211v334L74 212l109-1z"/><path id="i" d="m213 578-13-5q-14-5-40-10t-58-7H83v46h19q47 2 87 15t56 24 28 22q2 3 12 3 9 0 17-6V361l1-300q7-7 12-9t24-4 62-2h26V0h-11q-21 3-159 3-136 0-157-3H88v46h64q16 0 25 1t16 3 8 2 6 5 6 4z"/><path id="h" d="M109 429q-27 0-43 18t-16 44q0 71 53 123t132 52q91 0 152-56t62-145q0-43-20-82t-48-68-80-74q-36-31-100-92l-59-56 76-1q157 0 167 5 7 2 24 89v3h40v-3q-1-3-13-91T421 3V0H50v31q0 7 6 15t30 35q29 32 50 56 9 10 34 37t34 37 29 33 28 34 23 30 21 32 15 29 13 32 7 30 3 33q0 63-34 109t-97 46q-33 0-58-17t-35-33-10-19q0-1 5-1 18 0 37-14t19-46q0-25-16-42t-45-18"/></defs><g fill="#17365c" stroke-width="0"><use xlink:href="#a" data-c="30" style="fill:#048;stroke:none" transform="matrix(.00559 0 0 -.00559 -.218 23.571)"/><use xlink:href="#b" data-c="34" style="fill:#048;stroke:none" transform="matrix(.00559 0 0 -.00559 55.926 43.542)"/><use xlink:href="#c" data-c="33" style="fill:#048;stroke:none" transform="matrix(.00559 0 0 -.00559 56.353 30.144)"/><use xlink:href="#d" data-c="32" style="fill:#048;stroke:none" transform="matrix(.00559 0 0 -.00559 56.29 16.936)"/><use xlink:href="#e" data-c="31" style="fill:#048;stroke:none" transform="matrix(.0056 0 0 -.0056 56.285 3.723)"/></g><path fill="none" stroke="#8dae10" stroke-linecap="round" stroke-width=".7" d="m27.053 25.626 11.303 6.185m6.943-23.455 9.589-5.16m-28.13 15.108 11.493-6.166m-33.998 9.69h5.786m35.586 13.961 9.397 5.142M45.424 11.22l9.114 3.17m-8.89 18.653 8.888-3.822" style="stroke:#da3"/><g fill="#17365c" stroke-width="0"><g stroke="#000" data-mml-node="mn" transform="matrix(.00479 0 0 -.00479 39.327 35.572)"><use xlink:href="#f" data-c="34" style="fill:#048;stroke:none" transform="translate(500)"/><use xlink:href="#g" data-c="33" style="fill:#048;stroke:none"/></g><g stroke="#000" data-mml-node="mn" transform="matrix(.00479 0 0 -.00479 39.343 12.33)"><use xlink:href="#h" data-c="32" style="fill:#048;stroke:none" transform="translate(500)"/><use xlink:href="#i" data-c="31" style="fill:#048;stroke:none"/></g><g data-mml-node="math" transform="matrix(.00479 0 0 -.00479 11.524 23.194)"><use xlink:href="#j" data-c="29" style="fill:#048;stroke:none" transform="translate(3167)"/><use xlink:href="#k" data-c="34" style="fill:#048;stroke:none" transform="translate(2667)"/><use xlink:href="#l" data-c="33" style="fill:#048;stroke:none" transform="translate(2167)"/><use xlink:href="#m" data-c="28" style="fill:#048;stroke:none" transform="translate(1778)"/><use xlink:href="#j" data-c="29" style="fill:#048;stroke:none" transform="translate(1389)"/><use xlink:href="#n" data-c="32" style="fill:#048;stroke:none" transform="translate(889)"/><use xlink:href="#o" data-c="31" style="fill:#048;stroke:none" transform="translate(389)"/><use xlink:href="#m" data-c="28" style="fill:#048;stroke:none"/></g></g><metadata><rdf:RDF><cc:Work><dc:creator><cc:Agent><dc:title>Remco de Boer</dc:title></cc:Agent></dc:creator><cc:license rdf:resource="http://creativecommons.org/licenses/by/4.0/"/></cc:Work><cc:License rdf:about="http://creativecommons.org/licenses/by/4.0/"><cc:permits rdf:resource="http://creativecommons.org/ns#Reproduction"/><cc:permits rdf:resource="http://creativecommons.org/ns#Distribution"/><cc:requires rdf:resource="http://creativecommons.org/ns#Notice"/><cc:requires rdf:resource="http://creativecommons.org/ns#Attribution"/><cc:permits rdf:resource="http://creativecommons.org/ns#DerivativeWorks"/></cc:License></rdf:RDF></metadata></svg>