<svg xmlns="http://www.w3.org/2000/svg" xmlns:cc="http://creativecommons.org/ns#" xmlns:dc="http://purl.org/dc/elements/1.1/" xmlns:inkscape="http://www.inkscape.org/namespaces/inkscape" xmlns:rdf="http://www.w3.org/1999/02/22-rdf-syntax-ns#" xmlns:sodipodi="http://sodipodi.sourceforge.net/DTD/sodipodi-0.dtd" xmlns:xlink="http://www.w3.org/1999/xlink" inkscape:version="1.4.2 (1:1.4.2+202505120737+ebf0e940d0)" sodipodi:docname="helicity-basis.svg" width="216.683" height="220.986" viewBox="0 0 57.331 58.469"><sodipodi:namedview inkscape:current-layer="svg30" inkscape:cx="108.219" inkscape:cy="110.42" inkscape:deskcolor="#d1d1d1" inkscape:pagecheckerboard="0" inkscape:pageopacity="0" inkscape:showpageshadow="2" inkscape:window-height="1371" inkscape:window-maximized="1" inkscape:window-width="2560" inkscape:window-x="0" inkscape:window-y="32" inkscape:zoom="4.089" bordercolor="#000000" borderopacity=".25" pagecolor="#ffffff"/><defs><path id="b" d="M52 289q7 42 54 97t116 56q35 0 64-18t43-45q42 63 101 63 37 0 64-22t28-59q0-29-14-47t-27-22-23-4q-19 0-31 11t-12 29q0 46 50 63-11 13-40 13-13 0-19-2-38-16-56-66-60-221-60-258 0-28 16-40t35-12q37 0 73 33t49 81q3 10 6 11t16 2h4q15 0 15-8 0-1-2-11-16-57-62-101T333-11q-70 0-106 63-41-62-94-62h-6q-49 0-70 26T35 71q0 32 19 52t45 20q43 0 43-42 0-20-12-35t-23-20-13-5l-3-1q0-1 6-4t16-7 19-3q36 0 62 45 9 16 23 68t28 108 16 66q5 27 5 39 0 28-15 40t-34 12q-40 0-75-32t-49-82q-2-9-5-10t-16-2H58q-6 6-6 11"/><path id="c" d="M21 287q0 14 15 48t48 71 74 36q41 0 66-23t26-64q-2-19-3-21 0-3-16-46t-33-97-16-86q0-43 14-60t42-18q23 0 43 11t31 23 27 33q0 1 5 20t14 59 19 74q38 150 42 157 13 27 43 27 13 0 21-7t11-12 2-9q0-13-49-210T391-23q-28-83-97-132t-138-50q-45 0-79 22t-34 66q0 22 7 37t19 22 20 10 17 3q44 0 44-42 0-20-12-35t-23-20-13-5l-3-1q2-5 19-12t34-7h8q17 0 26 2 33 9 61 38t43 62 23 56 8 30l-6-4q-6-4-19-11T270-6q-20-5-39-5-46 0-81 22t-46 71q-1 7-1 31 0 57 35 149t35 117v14q0 3-4 7t-11 4h-4q-23 0-42-19t-30-41-17-42-8-22-16-2H27q-6 6-6 9"/><path id="d" d="M347 338q-10 0-53 11t-63 11-34-4-23-10-12-11-7-11l-2-4q-3-3-15-3-21 0-21 8 0 5 3 14 13 39 43 67t66 34q12 2 17 2 25 0 45-17t38-33 38-17q22 0 44 33t23 33q1 1 15 1h13q6-6 6-8 0-4-5-14t-14-21-17-22-14-19l-7-9q-43-51-136-135T160 106l-12-12 15-1q22 0 64-11t63-11q38 0 70 19t42 50q4 9 7 11t15 2q19 0 19-10 0-5-1-9-17-62-66-103t-98-42q-26 0-46 17t-39 34-38 17q-44 0-79-60-6-8-17-8H41q-6 6-6 9 0 15 58 86 39 45 132 130t115 108q12 16 7 16"/><path id="e" d="M137 683q1 0 72 5t73 6q12 0 12-9 0-11-36-151-38-148-38-151 0-2 7 5 61 54 130 54 54 0 87-27t34-79q0-51-38-158T402 50q1-14 5-19t15-5q28 0 52 30t39 82q3 11 6 13t16 2q20 0 20-8 0-1-4-15-16-59-51-97-34-43-81-43h-5q-47 0-68 27t-21 57q0 16 36 118t37 153q0 59-44 59h-5q-83 0-144-98l-7-13-34-135Q132 28 127 16q-13-27-44-27-14 0-24 9T48 16q0 14 73 304l74 296q0 13-7 16t-39 5h-21q-6 6-6 8t2 19q5 19 13 19"/><path id="f" d="M35 200q0 102 39 215t106 195 139 94h8q7 0 12 1 54-4 84-49 39-60 39-161 0-115-45-234T302 66 168-10h-7q-36 0-62 20T60 63t-19 67-6 70m348 366q0 102-53 102-36 0-70-45t-56-102-34-100-13-50q49-1 97-1l97 1q1 1 8 33t16 80 8 82M113 132q0-106 53-106 15 0 32 10t41 38 48 87 48 146l5 17H145q0-3-9-38t-16-78-7-76"/><path id="g" d="M409 688q4 6 12 6h21q6-6 6-8 0-7-30-123-7-28-14-59t-12-46l-4-16q0-1 9-1t32-6 48-17q44-21 73-61t29-97-31-109-77-86-97-54-95-21h-4l-24-95q-6-23-13-55-8-32-11-38t-12-7h-6q-20 0-20 7 0 5 22 95l23 92q0 1-8 1-5 0-20 2T161 6t-54 30-45 53-19 82q0 60 33 113t81 86 97 52 88 19q5 0 6 4l30 122q31 119 31 121M122 150q0-34 12-59t33-38 36-18 34-8h7l93 377q-4 0-11-1t-29-8-42-16-44-29-41-46q-18-28-33-67-15-46-15-87m378 132q0 38-16 65t-40 38-39 15-24 4h-3l-46-187-48-188q0-2 1-2 8 0 32 6t40 14q43 19 74 53t44 70 19 64 6 48"/><path id="h" d="M23 287q1 3 2 8t5 22 10 31 15 33 20 30 26 22 33 9q75 0 96-64l10 9q62 55 118 55 65 0 102-47t37-114q0-108-76-199T249-10q-22 0-39 6-11 5-23 15t-19 17l-7 8q-1-1-22-87t-21-87q0-6 8-7t37-3h25q6-7 6-9t-3-18q-3-12-6-15t-13-4h-11q-9 0-34 1t-62 1q-70 0-89-2h-8q-7 7-7 11 2 27 13 35h20q34 1 39 12 3 6 61 239t61 247q1 5 1 14 0 41-25 41-22 0-37-28t-23-61-12-36q-2-2-16-2H29q-6 6-6 9m155-185q22-76 74-76 30 0 58 23t46 58q18 34 36 108t19 110v6q0 74-61 74-11 0-22-3t-22-9-20-13-17-15-15-15-11-14-8-10l-3-4q0-1-3-14t-11-44-14-52q-26-106-26-110"/><path id="i" d="M377 694q0 8 5 14t15 6q7 0 12-5 5-4 10-19 10-37 41-57 11-7 11-18 0-9-3-12t-14-9q-43-22-75-63-2-2-5-6t-5-6-5-2-7-1q-7 0-13 5t-7 15q0 19 47 59H213l-171 1q-13 9-13 19 0 7 13 20h359q-24 38-24 59"/><marker id="j" markerHeight=".7" markerWidth=".9" orient="auto-start-reverse" overflow="visible" preserveAspectRatio="none" viewBox="0 0 1 1"><path fill="context-stroke" fill-rule="evenodd" d="M-1.4-2.8 6.3 0l-7.7 2.8C0 1.169 0-1.162-1.4-2.8"/></marker><marker id="a" markerHeight=".6" markerWidth=".8" orient="auto-start-reverse" overflow="visible" preserveAspectRatio="none" viewBox="0 0 1 1"><path fill="context-stroke" fill-rule="evenodd" d="M-1.4-2.8 6.3 0l-7.7 2.8C0 1.169 0-1.162-1.4-2.8"/></marker></defs><g stroke="red" stroke-linecap="round" stroke-linejoin="round" stroke-miterlimit="6" stroke-width=".148"><path fill="red" fill-opacity=".3" stroke-opacity=".3" d="M20.189 31.339c.757.424 1.514.848 2.241 1.47a10.8 10.8 0 0 1 1.945 2.245c.52.802.863 1.587 1.206 2.372l-5.392 3.34" style="stroke:#b56;stroke-opacity:1;fill:#b56;fill-opacity:.3019608"/><path fill="none" d="M20.189 31.339c.757.424 1.514.848 2.241 1.47a10.8 10.8 0 0 1 1.945 2.245c.52.802.863 1.587 1.206 2.372" style="stroke:#b56;stroke-opacity:1"/></g><path fill="red" fill-opacity=".3" d="M16.173 44.303c1.09.16 2.18.32 3.48.35s2.81-.068 4.054-.29c1.244-.22 2.222-.564 3.2-.908l-6.718-2.69" style="fill:#b56;fill-opacity:.3019608"/><g stroke-linecap="round" stroke-linejoin="round" stroke-miterlimit="6"><path fill="none" stroke="red" stroke-width=".148" d="M26.906 43.456c-.977.344-1.955.687-3.199.909-1.244.22-2.754.32-4.054.29s-2.39-.19-3.48-.35" style="stroke:#b56;stroke-opacity:1"/><g fill="#00f" stroke="#000" stroke-width="1.2" marker-end="url(#a)" transform="matrix(.37 0 0 .37 -9.03 -25.193)"><path d="M78.971 178.264V85.467"/><path d="m78.971 178.264 83.927 15.282"/><path d="m78.971 178.264-40.6 35.771"/></g><g fill="#00f" stroke="red"><path stroke-dasharray=".185, .37" stroke-width=".185" d="M38.2 47.978V29.627m0 18.351-18.012-7.213" style="stroke:#b56;stroke-opacity:1"/><path stroke-width="1.2" marker-end="url(#a)" d="m78.971 178.54 43.997-27.249" style="stroke:#b56;stroke-opacity:1" transform="matrix(.37 0 0 .37 -9.03 -25.295)"/></g></g><g fill="#666" stroke="#000" stroke-width="0"><use xlink:href="#b" data-c="1D465" data-mml-node="mi" transform="matrix(.00487 0 0 -.00487 -.17 58.415)"/><use xlink:href="#c" data-c="1D466" data-mml-node="mi" transform="matrix(.00487 0 0 -.00487 54.913 47.937)"/><use xlink:href="#d" data-c="1D467" data-mml-node="mi" transform="matrix(.00487 0 0 -.00487 19.155 2.154)"/><g data-mml-node="msub"><use xlink:href="#b" data-c="1D465" data-mml-node="mi" transform="matrix(.00487 0 0 -.00487 44.19 41.262)"/><use xlink:href="#e" data-c="210E" data-mml-node="mi" transform="matrix(.00344 0 0 -.00344 47.138 41.993)"/></g><g data-mml-node="msub"><use xlink:href="#c" data-c="1D466" data-mml-node="mi" transform="matrix(.00487 0 0 -.00487 45.152 30.34)"/><use xlink:href="#e" data-c="210E" data-mml-node="mi" transform="matrix(.00344 0 0 -.00344 47.7 31.07)"/></g><g data-mml-node="msub"><use xlink:href="#d" data-c="1D467" data-mml-node="mi" transform="matrix(.00487 0 0 -.00487 46.899 24.816)"/><use xlink:href="#e" data-c="210E" data-mml-node="mi" transform="matrix(.00344 0 0 -.00344 49.325 25.547)"/></g></g><g fill="red" stroke-width="0"><use xlink:href="#f" data-c="1D703" data-mml-node="mi" style="stroke:none;fill:#b56" transform="matrix(.00487 0 0 -.00487 23.446 32.897)"/><use xlink:href="#g" data-c="1D719" data-mml-node="mi" style="stroke:none;fill:#b56" transform="matrix(.00487 0 0 -.00487 19.415 48.87)"/><g data-mjx-texclass="ORD" data-mml-node="TeXAtom"><g data-mml-node="mover"><use xlink:href="#h" data-c="1D45D" data-mml-node="mi" style="stroke:none;fill:#b56" transform="matrix(.00487 0 0 -.00487 30.563 39.101)"/><use xlink:href="#i" data-c="20D7" data-mml-node="mo" style="stroke:none;fill:#b56" transform="matrix(.00487 0 0 -.00487 30.976 38.95)"/></g></g></g><g fill="#00f" stroke="#000" stroke-linecap="round" stroke-linejoin="round" stroke-miterlimit="6" stroke-width=".7" marker-end="url(#j)" transform="matrix(.37 0 0 .37 -9.03 -25.193)"><path d="m127.653 148.159 17.207-9.437"/><path d="m127.653 148.159 12.907-3.345"/><path d="m127.653 148.159 10.764 24.859"/></g><path fill="none" stroke="#048" stroke-linecap="round" stroke-linejoin="round" stroke-miterlimit="6" stroke-width=".312" d="m42.657 24.413-2.758.498m2.758-.498-1.848 2.107m-.91-1.61c-.009.355-.017.71.135.978.151.269.463.45.775.632m-4.147.58c.013.224.025.448.125.625s.29.31.478.441m3.219-1.82-3.219 1.82m2.616-2.886-3.219 1.82"/><path fill="#048" d="M36.287 25.062q.078.001.172-.105l1.116-1.322q.251.689.373 1.04c.053.148.086.234.11.267q.08.109.268.11h.101c.048-.004.072-.023.072-.067q0-.015-.029-.052a.6.6 0 0 1-.105-.216l-.963-2.69q-.121-.351-.589-.35-.106 0-.105.072.002.05.081.071.1.03.134.072a1 1 0 0 1 .135.288l.454 1.278-1.292 1.288q-.093.093-.091.158a.16.16 0 0 0 .158.158" aria-level="1" data-latex="\lambda" data-mml-node="mi" data-semantic-annotation="clearspeak:simple;depth:2" data-semantic-attributes="latex:\lambda" data-semantic-font="italic" data-semantic-id="1" data-semantic-parent="3" data-semantic-role="greekletter" data-semantic-type="identifier" data-speech-node="true"/><metadata><rdf:RDF><cc:Work><dc:creator><cc:Agent><dc:title>Remco de Boer</dc:title></cc:Agent></dc:creator><cc:license rdf:resource="http://creativecommons.org/licenses/by/4.0/"/></cc:Work><cc:License rdf:about="http://creativecommons.org/licenses/by/4.0/"><cc:permits rdf:resource="http://creativecommons.org/ns#Reproduction"/><cc:permits rdf:resource="http://creativecommons.org/ns#Distribution"/><cc:requires rdf:resource="http://creativecommons.org/ns#Notice"/><cc:requires rdf:resource="http://creativecommons.org/ns#Attribution"/><cc:permits rdf:resource="http://creativecommons.org/ns#DerivativeWorks"/></cc:License></rdf:RDF></metadata></svg>