<svg xmlns="http://www.w3.org/2000/svg" xmlns:cc="http://creativecommons.org/ns#" xmlns:dc="http://purl.org/dc/elements/1.1/" xmlns:inkscape="http://www.inkscape.org/namespaces/inkscape" xmlns:rdf="http://www.w3.org/1999/02/22-rdf-syntax-ns#" xmlns:sodipodi="http://sodipodi.sourceforge.net/DTD/sodipodi-0.dtd" xmlns:xlink="http://www.w3.org/1999/xlink" inkscape:version="1.4.2 (1:1.4.2+202505120737+ebf0e940d0)" sodipodi:docname="space-fixed-cm-frame.svg" width="256.76" height="233.695" viewBox="0 0 67.934 61.832"><sodipodi:namedview inkscape:current-layer="svg42" inkscape:cx="128.525" inkscape:cy="116.933" inkscape:deskcolor="#d1d1d1" inkscape:pagecheckerboard="0" inkscape:pageopacity="0" inkscape:showpageshadow="2" inkscape:window-height="1371" inkscape:window-maximized="1" inkscape:window-width="2560" inkscape:window-x="0" inkscape:window-y="32" inkscape:zoom="3.451" bordercolor="#000000" borderopacity=".25" pagecolor="#ffffff"/><defs><path id="a" d="M409 688q4 6 12 6h21q6-6 6-8 0-7-30-123-7-28-14-59t-12-46l-4-16q0-1 9-1t32-6 48-17q44-21 73-61t29-97-31-109-77-86-97-54-95-21h-4l-24-95q-6-23-13-55-8-32-11-38t-12-7h-6q-20 0-20 7 0 5 22 95l23 92q0 1-8 1-5 0-20 2T161 6t-54 30-45 53-19 82q0 60 33 113t81 86 97 52 88 19q5 0 6 4l30 122q31 119 31 121M122 150q0-34 12-59t33-38 36-18 34-8h7l93 377q-4 0-11-1t-29-8-42-16-44-29-41-46q-18-28-33-67-15-46-15-87m378 132q0 38-16 65t-40 38-39 15-24 4h-3l-46-187-48-188q0-2 1-2 8 0 32 6t40 14q43 19 74 53t44 70 19 64 6 48"/><path id="b" d="M35 200q0 102 39 215t106 195 139 94h8q7 0 12 1 54-4 84-49 39-60 39-161 0-115-45-234T302 66 168-10h-7q-36 0-62 20T60 63t-19 67-6 70m348 366q0 102-53 102-36 0-70-45t-56-102-34-100-13-50q49-1 97-1l97 1q1 1 8 33t16 80 8 82M113 132q0-106 53-106 15 0 32 10t41 38 48 87 48 146l5 17H145q0-3-9-38t-16-78-7-76"/><path id="c" d="M576-125q0-22-29-50t-60-29h-11q-82 0-113 47-29 43-70 183l-9 33q-1-1-36-40t-78-85-78-85-39-40q-4-3-10-3-7 0-12 5t-6 12 13 23T151-30l121 132-7 29q-76 274-130 274-31 0-48-47-1-7-19-7-20 0-20 10 0 8 8 25t33 37 59 19q76 0 110-42 18-25 39-80t33-98l11-42q3 0 114 123t118 126q6 2 9 2 18 0 18-17 0-7-13-22T477 270Q356 138 353 134l9-32q30-112 66-191t62-79q14 0 27 12t19 30q3 10 7 11t14 1 14-1q5-3 5-10"/><path id="d" d="M52 289q7 42 54 97t116 56q35 0 64-18t43-45q42 63 101 63 37 0 64-22t28-59q0-29-14-47t-27-22-23-4q-19 0-31 11t-12 29q0 46 50 63-11 13-40 13-13 0-19-2-38-16-56-66-60-221-60-258 0-28 16-40t35-12q37 0 73 33t49 81q3 10 6 11t16 2h4q15 0 15-8 0-1-2-11-16-57-62-101T333-11q-70 0-106 63-41-62-94-62h-6q-49 0-70 26T35 71q0 32 19 52t45 20q43 0 43-42 0-20-12-35t-23-20-13-5l-3-1q0-1 6-4t16-7 19-3q36 0 62 45 9 16 23 68t28 108 16 66q5 27 5 39 0 28-15 40t-34 12q-40 0-75-32t-49-82q-2-9-5-10t-16-2H58q-6 6-6 11"/><path id="e" d="M21 287q0 14 15 48t48 71 74 36q41 0 66-23t26-64q-2-19-3-21 0-3-16-46t-33-97-16-86q0-43 14-60t42-18q23 0 43 11t31 23 27 33q0 1 5 20t14 59 19 74q38 150 42 157 13 27 43 27 13 0 21-7t11-12 2-9q0-13-49-210T391-23q-28-83-97-132t-138-50q-45 0-79 22t-34 66q0 22 7 37t19 22 20 10 17 3q44 0 44-42 0-20-12-35t-23-20-13-5l-3-1q2-5 19-12t34-7h8q17 0 26 2 33 9 61 38t43 62 23 56 8 30l-6-4q-6-4-19-11T270-6q-20-5-39-5-46 0-81 22t-46 71q-1 7-1 31 0 57 35 149t35 117v14q0 3-4 7t-11 4h-4q-23 0-42-19t-30-41-17-42-8-22-16-2H27q-6 6-6 9"/><path id="f" d="M347 338q-10 0-53 11t-63 11-34-4-23-10-12-11-7-11l-2-4q-3-3-15-3-21 0-21 8 0 5 3 14 13 39 43 67t66 34q12 2 17 2 25 0 45-17t38-33 38-17q22 0 44 33t23 33q1 1 15 1h13q6-6 6-8 0-4-5-14t-14-21-17-22-14-19l-7-9q-43-51-136-135T160 106l-12-12 15-1q22 0 64-11t63-11q38 0 70 19t42 50q4 9 7 11t15 2q19 0 19-10 0-5-1-9-17-62-66-103t-98-42q-26 0-46 17t-39 34-38 17q-44 0-79-60-6-8-17-8H41q-6 6-6 9 0 15 58 86 39 45 132 130t115 108q12 16 7 16"/><path id="g" d="M23 287q1 3 2 8t5 22 10 31 15 33 20 30 26 22 33 9q75 0 96-64l10 9q62 55 118 55 65 0 102-47t37-114q0-108-76-199T249-10q-22 0-39 6-11 5-23 15t-19 17l-7 8q-1-1-22-87t-21-87q0-6 8-7t37-3h25q6-7 6-9t-3-18q-3-12-6-15t-13-4h-11q-9 0-34 1t-62 1q-70 0-89-2h-8q-7 7-7 11 2 27 13 35h20q34 1 39 12 3 6 61 239t61 247q1 5 1 14 0 41-25 41-22 0-37-28t-23-61-12-36q-2-2-16-2H29q-6 6-6 9m155-185q22-76 74-76 30 0 58 23t46 58q18 34 36 108t19 110v6q0 74-61 74-11 0-22-3t-22-9-20-13-17-15-15-15-11-14-8-10l-3-4q0-1-3-14t-11-44-14-52q-26-106-26-110"/><path id="h" d="M377 694q0 8 5 14t15 6q7 0 12-5 5-4 10-19 10-37 41-57 11-7 11-18 0-9-3-12t-14-9q-43-22-75-63-2-2-5-6t-5-6-5-2-7-1q-7 0-13 5t-7 15q0 19 47 59H213l-171 1q-13 9-13 19 0 7 13 20h359q-24 38-24 59"/><path id="i" d="m213 578-13-5q-14-5-40-10t-58-7H83v46h19q47 2 87 15t56 24 28 22q2 3 12 3 9 0 17-6V361l1-300q7-7 12-9t24-4 62-2h26V0h-11q-21 3-159 3-136 0-157-3H88v46h64q16 0 25 1t16 3 8 2 6 5 6 4z"/><path id="j" d="M109 429q-27 0-43 18t-16 44q0 71 53 123t132 52q91 0 152-56t62-145q0-43-20-82t-48-68-80-74q-36-31-100-92l-59-56 76-1q157 0 167 5 7 2 24 89v3h40v-3q-1-3-13-91T421 3V0H50v31q0 7 6 15t30 35q29 32 50 56 9 10 34 37t34 37 29 33 28 34 23 30 21 32 15 29 13 32 7 30 3 33q0 63-34 109t-97 46q-33 0-58-17t-35-33-10-19q0-1 5-1 18 0 37-14t19-46q0-25-16-42t-45-18"/><path id="k" d="M127 463q-27 0-42 17t-16 44q0 55 48 98t116 43q35 0 44-1 74-12 113-53t40-89q0-52-34-101t-94-71l-3-2q0-1 9-3t29-9 38-21q82-53 82-140 0-79-62-138T238-22q-80 0-138 43T42 130q0 28 18 45t45 18q28 0 46-18t18-45q0-11-3-20t-7-16-11-12-12-8-10-4-8-3l-4-1q51-45 124-45 55 0 83 53 17 33 17 101v20q0 95-64 127-15 6-61 7l-42 1-3 2q-2 3-2 16 0 18 8 18 28 0 58 5 34 5 62 42t28 112v8q0 57-35 79-22 14-47 14-32 0-59-11t-38-23-11-12h3q3-1 8-2t10-5 12-7 10-11 8-15 3-20q0-22-14-39t-45-18"/><path id="l" d="M23 287q1 3 2 8t5 22 10 31 15 33 20 30 26 22 33 9q75 0 96-64l10 9q62 55 118 55 65 0 102-47t37-114q0-108-76-199T249-10q-22 0-39 6-11 5-23 15t-19 17l-7 8q-1-1-22-87t-21-87q0-6 8-7t37-3h25q6-7 6-9t-3-18q-3-12-6-15t-13-4h-11q-9 0-34 1t-62 1q-70 0-89-2h-8q-7 7-7 11 2 27 13 35h20q34 1 39 12 3 6 61 239t61 247q1 5 1 14 0 41-25 41-22 0-37-28t-23-61-12-36q-2-2-16-2H29q-6 6-6 9m155-185q22-76 74-76 30 0 58 23t46 58q18 34 36 108t19 110v6q0 74-61 74-11 0-22-3t-22-9-20-13-17-15-15-15-11-14-8-10l-3-4q0-1-3-14t-11-44-14-52q-26-106-26-110"/><path id="n" d="M377 694q0 8 5 14t15 6q7 0 12-5 5-4 10-19 10-37 41-57 11-7 11-18 0-9-3-12t-14-9q-43-22-75-63-2-2-5-6t-5-6-5-2-7-1q-7 0-13 5t-7 15q0 19 47 59H213l-171 1q-13 9-13 19 0 7 13 20h359q-24 38-24 59"/><path id="q" d="M96 585q56 81 153 81 48 0 96-26t78-92q37-83 37-228 0-155-43-237-20-42-55-67t-61-31-51-7q-26 0-52 6t-61 32-55 67q-43 82-43 237 0 174 57 265m225 12q-30 32-71 32-42 0-72-32-25-26-33-72t-8-192q0-158 8-208t36-79q28-30 69-30 40 0 68 30 29 30 36 84t8 203q0 145-8 191t-33 73"/><path id="r" d="M56 347q0 13 14 20h637q15-8 15-20 0-11-14-19l-318-1H72q-16 5-16 20m0-194q0 15 16 20h636q14-10 14-20 0-13-15-20H70q-14 7-14 20"/><marker id="s" markerHeight=".2" markerUnits="userSpaceOnUse" markerWidth=".2" orient="auto-start-reverse" overflow="visible" preserveAspectRatio="xMidYMid" viewBox="0 0 1 1"><path fill="context-stroke" fill-rule="evenodd" d="m0 0-2.5 2.5L6.25 0-2.5-2.5z"/></marker><marker id="t" markerHeight="1" markerWidth="1" orient="auto-start-reverse" overflow="visible" preserveAspectRatio="xMidYMid" viewBox="0 0 1 1"><path fill="context-stroke" fill-rule="evenodd" d="m0 0-2.5 2.5L6.25 0-2.5-2.5z"/></marker></defs><path fill="#048" fill-opacity=".2" fill-rule="evenodd" stroke="gray" stroke-width=".529" d="m.365 16.918 15.203 44.584L61.61 47.13 47.611 15.214z"/><g fill="#b56" stroke-width="0" transform="translate(-87.243 -67.888)"><use xlink:href="#a" data-c="1D719" transform="matrix(.00479 0 0 -.00479 99.708 113.285)"/><use xlink:href="#b" data-c="1D703" transform="matrix(.00479 0 0 -.00479 127.39 98.885)"/><use xlink:href="#c" data-c="1D712" transform="matrix(.00479 0 0 -.00479 97.541 106.95)"/></g><g stroke-width="0"><g transform="translate(-87.243 -67.888)"><use xlink:href="#d" data-c="1D465" transform="matrix(.00479 0 0 -.00479 90.095 125.378)"/><use xlink:href="#e" data-c="1D466" transform="matrix(.00479 0 0 -.00479 152.8 109.923)"/><use xlink:href="#f" data-c="1D467" transform="matrix(.00479 0 0 -.00479 115.581 70.005)"/></g><g fill="#048" data-mml-node="msub"><g transform="matrix(.75575 -.12933 .39957 .79947 -4.244 6.056)"><g data-mjx-texclass="ORD" data-mml-node="TeXAtom"><g data-mml-node="mover"><use xlink:href="#g" data-c="1D45D" data-mml-node="mi" transform="matrix(.00479 0 0 -.00479 12.46 21.317)"/><use xlink:href="#h" data-c="20D7" data-mml-node="mo" transform="matrix(.00479 0 0 -.00479 12.865 21.169)"/></g></g><use xlink:href="#i" data-c="31" data-mml-node="mn" transform="matrix(.00339 0 0 -.00339 15.026 22.036)"/></g><g transform="matrix(.94185 -.27564 .34333 .96126 -17.224 7.619)"><g data-mjx-texclass="ORD" data-mml-node="TeXAtom"><g data-mml-node="mover"><use xlink:href="#g" data-c="1D45D" data-mml-node="mi" transform="matrix(.00479 0 0 -.00479 17.254 56.17)"/><use xlink:href="#h" data-c="20D7" data-mml-node="mo" transform="matrix(.00479 0 0 -.00479 17.66 56.022)"/></g></g><use xlink:href="#j" data-c="32" data-mml-node="mn" transform="matrix(.00339 0 0 -.00339 19.82 56.889)"/></g><g transform="matrix(.70734 -.15966 .46174 .78399 .704 14.272)"><g data-mjx-texclass="ORD" data-mml-node="TeXAtom"><g data-mml-node="mover"><use xlink:href="#g" data-c="1D45D" data-mml-node="mi" transform="matrix(.00479 0 0 -.00479 47.239 29.843)"/><use xlink:href="#h" data-c="20D7" data-mml-node="mo" transform="matrix(.00479 0 0 -.00479 47.645 29.695)"/></g></g><use xlink:href="#k" data-c="33" data-mml-node="mn" transform="matrix(.00339 0 0 -.00339 49.805 30.561)"/></g></g><g stroke="#000" data-mml-node="math" transform="translate(5.503 6.354)scale(.80733)"><g data-mml-node="msub"><g data-mjx-texclass="ORD" data-mml-node="TeXAtom"><g data-mml-node="mover"><use xlink:href="#l" data-c="1D45D" data-mml-node="mi" transform="matrix(.00479 0 0 -.00479 29.702 41.378)"/><use xlink:href="#n" data-c="20D7" data-mml-node="mo" transform="matrix(.00479 0 0 -.00479 30.108 41.23)"/></g></g><use xlink:href="#q" data-c="30" data-mml-node="mn" transform="matrix(.00339 0 0 -.00339 32.269 42.096)"/></g><use xlink:href="#r" data-c="3D" data-mml-node="mo" transform="matrix(.00479 0 0 -.00479 34.473 41.378)"/><use xlink:href="#q" data-c="30" data-mml-node="mn" transform="matrix(.00479 0 0 -.00479 38.47 41.378)"/></g><g fill="gray" data-mml-node="msubsup"><g data-mjx-texclass="ORD" data-mml-node="TeXAtom"><path d="M49.98 43.986q-.081.028-.105-.017-.045-.087-.044-.362t.053-.476q.06-.262.227-.498t.448-.337q.379-.131.715.087t.573.663q.246.47.285.967t-.095.904-.414.708-.633.434q-.448.154-.899-.083t-.74-.788q-.196-.374-.253-.763t-.004-.698.162-.556.217-.393.187-.172q.068-.023.096.031.046.087-.07.261-.087.122-.148.283t-.112.41.01.577.234.668q.265.505.659.72t.796.08q.533-.184.654-.856t-.25-1.382q-.084-.16-.19-.295t-.244-.255-.318-.154-.356.02q-.043.015-.062.027-.1.067-.142.238t-.041.315.014.286q.01.104-.011.17-.063.179-.2.236" data-mml-node="mi"/><g data-mml-node="msub"><path d="M51.463 40.684q-.02-.038.015-.085l.058-.02q.276-.084.428.043.043.042.438.45t.775.794.387.399q.055.057.095.093t.059.051.03.024.019.009.01.012-.003.035l-.205.07q-.1-.018-.145-.06t-.38-.378l-.347-.356-.017.063q-.012.065-.048.226t-.06.272l-.066.296q-.052.247-.072.291t-.066.065q-.108.037-.162-.066-.029-.055-.012-.118t.188-.578l.092-.28.075-.23.024-.07-.387-.399-.416-.427q-.136-.124-.23-.092-.05.018-.077-.034" data-mml-node="mi"/><path d="M53.714 41.465q.022-.226.229-.297.102-.035.236-.011t.275.152q.178.162.351.492.185.353.191.572.008.11-.037.193t-.093.115-.1.054q-.055.019-.118.024t-.168-.028-.197-.112q-.19-.155-.375-.508-.207-.397-.194-.646m.465-.193q-.102-.05-.19-.02-.09.03-.115.126-.022.077.016.188t.212.443q.188.36.265.468t.17.153q.096.048.184.018.085-.03.109-.118.026-.09-.024-.218t-.225-.468q-.173-.33-.245-.43t-.157-.142" data-mml-node="mn"/></g><path d="M55.77 47.089q.022.042.014.067l-.054.02q-.389.133-.654-.026l-.044-.03q-.017-.013-.034-.03t-.034-.039-.031-.046-.04-.07-.049-.086-.062-.119-.08-.151l-.089-.171q-.153-.286-.184-.317-.004-.002-.006-.005-.103-.102-.245-.129t-.248.01q-.033.01-.047.004t-.036-.048-.018-.055.037-.024q.102-.035.177-.137t.06-.234q-.004-.04-.04-.108t-.253-.49l-.084-.162q-.093-.177-.112-.254t.016-.166q.035-.11.17-.218.098-.064.145-.084l.039-.014q.033-.012.053-.022l.06-.02q.028.013.048.051.022.042.018.055 0 .012-.043.026-.155.065-.21.164t-.037.173q.007.047.235.482l.138.264q.08.151.099.21t.014.143q-.02.17-.162.28l-.034.03.05.002q.065 0 .135.011t.183.066.184.161q.014.018.233.437.228.435.265.472.075.076.205.1t.265-.011q.042-.015.053-.007.014.006.034.045" data-mml-node="mo"/><path d="M54.944 43.935q-.02-.038.016-.085l.057-.02q.276-.084.428.043.043.042.438.45t.775.793.387.4q.055.057.095.092t.059.052.03.024.019.009.01.012-.003.035l-.205.07q-.099-.019-.145-.06t-.38-.378l-.347-.356-.016.063q-.013.065-.05.226t-.06.271l-.065.297q-.052.246-.072.291t-.065.065q-.109.037-.163-.066-.029-.055-.012-.118t.188-.578l.092-.28.075-.23.024-.07q-.001-.003-.387-.399t-.415-.427q-.137-.124-.23-.092-.051.018-.078-.034" data-mml-node="mi"/><path d="M56.298 43.247q-.023-.045-.018-.054t.055-.03q.25-.087.428-.053t.283.111q.062.059.089.103t.232.43q.238.446.25.461.114.132.267.159t.254-.004q.033-.012.047-.005t.037.048.017.055-.037.024q-.111.039-.181.143t-.052.22q.008.05.042.122t.249.48l.086.165q.093.177.112.254t-.017.166q-.075.223-.415.34-.054.02-.069.013t-.037-.052l-.012-.022-.006-.017q-.004-.014.003-.016t.022-.012q.042-.014.088-.042t.098-.071.073-.113.008-.147q-.005-.018-.234-.46l-.226-.44q-.057-.196.057-.365.077-.091.117-.117-.087.004-.184-.012-.223-.052-.343-.194l-.023-.03-.233-.437q-.234-.44-.245-.455-.104-.117-.255-.126t-.26.026q-.027.01-.036 0t-.03-.046" data-mml-node="mo"/></g></g></g><g fill="none" stroke-linecap="round" stroke-linejoin="round" stroke-miterlimit="6"><path stroke="#000" stroke-dasharray="0.4, 0.8" stroke-width=".4" d="M29.51 34.38Q14.913 40.44.32 46.503"/><path stroke="#b56" stroke-width=".3" marker-end="url(#s)" d="M14.875 40.417c-.194-.815-.376-1.58-.425-2.229-.05-.65.065-1.109.147-1.436"/><path stroke="#b56" stroke-width=".3" marker-end="url(#s)" d="M18.872 43.741c-.621-.22-1.243-.441-1.787-.831s-1.009-.95-1.474-1.51"/><g stroke="#000" stroke-width=".6" marker-end="url(#t)"><path d="M29.508 34.38V7.356"/><path d="M29.508 34.38 8.654 52.807"/><path d="m29.508 34.38 31.167 5.864"/></g><path stroke="#048" stroke-width=".6" marker-end="url(#t)" d="m29.508 34.38 17.141-1.836"/><g stroke="#048"><path stroke-dasharray="0.4, 0.8" stroke-width=".4" d="M29.51 34.38 8.18 36.074"/><path stroke-width=".6" marker-end="url(#t)" d="m116.751 102.268-6.63 14.616" transform="translate(-87.243 -67.888)"/><path stroke-width=".6" marker-end="url(#t)" d="m116.751 51.752-10.51 9.273" transform="matrix(1 0 0 -1 -87.243 86.132)"/><path stroke-dasharray="0.3, 0.3" stroke-width=".3" d="m29.51 34.38 15.1-10.92"/><path stroke-width=".1" d="m32.07 32.527 2.474-.371-2.635 1.932"/></g><path stroke="#b56" stroke-width=".3" marker-end="url(#s)" d="M39.467 36.254c.342-2.469-.065-5.618-.954-6.783"/></g><metadata><rdf:RDF><cc:Work><dc:creator><cc:Agent><dc:title>Remco de Boer</dc:title></cc:Agent></dc:creator><cc:license rdf:resource="http://creativecommons.org/licenses/by/4.0/"/></cc:Work><cc:License rdf:about="http://creativecommons.org/licenses/by/4.0/"><cc:permits rdf:resource="http://creativecommons.org/ns#Reproduction"/><cc:permits rdf:resource="http://creativecommons.org/ns#Distribution"/><cc:requires rdf:resource="http://creativecommons.org/ns#Notice"/><cc:requires rdf:resource="http://creativecommons.org/ns#Attribution"/><cc:permits rdf:resource="http://creativecommons.org/ns#DerivativeWorks"/></cc:License></rdf:RDF></metadata></svg>