<svg xmlns="http://www.w3.org/2000/svg" xmlns:cc="http://creativecommons.org/ns#" xmlns:dc="http://purl.org/dc/elements/1.1/" xmlns:inkscape="http://www.inkscape.org/namespaces/inkscape" xmlns:rdf="http://www.w3.org/1999/02/22-rdf-syntax-ns#" xmlns:sodipodi="http://sodipodi.sourceforge.net/DTD/sodipodi-0.dtd" xmlns:xlink="http://www.w3.org/1999/xlink" inkscape:version="1.4.2 (1:1.4.2+202505120737+ebf0e940d0)" sodipodi:docname="three-body-decay-variables.svg" width="311.016" height="120.234" viewBox="0 0 82.29 31.812"><sodipodi:namedview inkscape:current-layer="svg89" inkscape:cx="155.332" inkscape:cy="60.202" inkscape:deskcolor="#d1d1d1" inkscape:pagecheckerboard="0" inkscape:pageopacity="0" inkscape:showpageshadow="2" inkscape:window-height="1371" inkscape:window-maximized="1" inkscape:window-width="2560" inkscape:window-x="0" inkscape:window-y="32" inkscape:zoom="2.849" bordercolor="#000000" borderopacity=".25" pagecolor="#ffffff"/><defs><path id="i" d="M23 287q1 3 2 8t5 22 10 31 15 33 20 30 26 22 33 9q75 0 96-64l10 9q62 55 118 55 65 0 102-47t37-114q0-108-76-199T249-10q-22 0-39 6-11 5-23 15t-19 17l-7 8q-1-1-22-87t-21-87q0-6 8-7t37-3h25q6-7 6-9t-3-18q-3-12-6-15t-13-4h-11q-9 0-34 1t-62 1q-70 0-89-2h-8q-7 7-7 11 2 27 13 35h20q34 1 39 12 3 6 61 239t61 247q1 5 1 14 0 41-25 41-22 0-37-28t-23-61-12-36q-2-2-16-2H29q-6 6-6 9m155-185q22-76 74-76 30 0 58 23t46 58q18 34 36 108t19 110v6q0 74-61 74-11 0-22-3t-22-9-20-13-17-15-15-15-11-14-8-10l-3-4q0-1-3-14t-11-44-14-52q-26-106-26-110"/><path id="j" d="m213 578-13-5q-14-5-40-10t-58-7H83v46h19q47 2 87 15t56 24 28 22q2 3 12 3 9 0 17-6V361l1-300q7-7 12-9t24-4 62-2h26V0h-11q-21 3-159 3-136 0-157-3H88v46h64q16 0 25 1t16 3 8 2 6 5 6 4z"/><path id="k" d="M109 429q-27 0-43 18t-16 44q0 71 53 123t132 52q91 0 152-56t62-145q0-43-20-82t-48-68-80-74q-36-31-100-92l-59-56 76-1q157 0 167 5 7 2 24 89v3h40v-3q-1-3-13-91T421 3V0H50v31q0 7 6 15t30 35q29 32 50 56 9 10 34 37t34 37 29 33 28 34 23 30 21 32 15 29 13 32 7 30 3 33q0 63-34 109t-97 46q-33 0-58-17t-35-33-10-19q0-1 5-1 18 0 37-14t19-46q0-25-16-42t-45-18"/><path id="m" d="M127 463q-27 0-42 17t-16 44q0 55 48 98t116 43q35 0 44-1 74-12 113-53t40-89q0-52-34-101t-94-71l-3-2q0-1 9-3t29-9 38-21q82-53 82-140 0-79-62-138T238-22q-80 0-138 43T42 130q0 28 18 45t45 18q28 0 46-18t18-45q0-11-3-20t-7-16-11-12-12-8-10-4-8-3l-4-1q51-45 124-45 55 0 83 53 17 33 17 101v20q0 95-64 127-15 6-61 7l-42 1-3 2q-2 3-2 16 0 18 8 18 28 0 58 5 34 5 62 42t28 112v8q0 57-35 79-22 14-47 14-32 0-59-11t-38-23-11-12h3q3-1 8-2t10-5 12-7 10-11 8-15 3-20q0-22-14-39t-45-18"/><path id="o" d="M184-11q-68 0-110 45T31 147q0 100 73 186t170 97q1 1 140 1h138q1-1 3-2t4-2 3-2 3-3 2-2 2-4 1-4 1-5 1-6q0-44-65-44h-17q-10 0-14 1h-60l5-10q18-38 18-85 0-110-80-192T184-11m177 289q0 80-85 80-124 0-161-174-1-4-1-6-8-37-8-61 0-50 25-70t57-21q54 0 99 47 29 30 47 80t22 80 5 45"/><path id="p" d="m213 578-13-5q-14-5-40-10t-58-7H83v46h19q47 2 87 15t56 24 28 22q2 3 12 3 9 0 17-6V361l1-300q7-7 12-9t24-4 62-2h26V0h-11q-21 3-159 3-136 0-157-3H88v46h64q16 0 25 1t16 3 8 2 6 5 6 4z"/><path id="x" d="M184-11q-68 0-110 45T31 147q0 100 73 186t170 97q1 1 140 1h138q1-1 3-2t4-2 3-2 3-3 2-2 2-4 1-4 1-5 1-6q0-44-65-44h-17q-10 0-14 1h-60l5-10q18-38 18-85 0-110-80-192T184-11m177 289q0 80-85 80-124 0-161-174-1-4-1-6-8-37-8-61 0-50 25-70t57-21q54 0 99 47 29 30 47 80t22 80 5 45"/><path id="y" d="M127 463q-27 0-42 17t-16 44q0 55 48 98t116 43q35 0 44-1 74-12 113-53t40-89q0-52-34-101t-94-71l-3-2q0-1 9-3t29-9 38-21q82-53 82-140 0-79-62-138T238-22q-80 0-138 43T42 130q0 28 18 45t45 18q28 0 46-18t18-45q0-11-3-20t-7-16-11-12-12-8-10-4-8-3l-4-1q51-45 124-45 55 0 83 53 17 33 17 101v20q0 95-64 127-15 6-61 7l-42 1-3 2q-2 3-2 16 0 18 8 18 28 0 58 5 34 5 62 42t28 112v8q0 57-35 79-22 14-47 14-32 0-59-11t-38-23-11-12h3q3-1 8-2t10-5 12-7 10-11 8-15 3-20q0-22-14-39t-45-18"/><path id="z" d="M184-11q-68 0-110 45T31 147q0 100 73 186t170 97q1 1 140 1h138q1-1 3-2t4-2 3-2 3-3 2-2 2-4 1-4 1-5 1-6q0-44-65-44h-17q-10 0-14 1h-60l5-10q18-38 18-85 0-110-80-192T184-11m177 289q0 80-85 80-124 0-161-174-1-4-1-6-8-37-8-61 0-50 25-70t57-21q54 0 99 47 29 30 47 80t22 80 5 45"/><path id="A" d="M109 429q-27 0-43 18t-16 44q0 71 53 123t132 52q91 0 152-56t62-145q0-43-20-82t-48-68-80-74q-36-31-100-92l-59-56 76-1q157 0 167 5 7 2 24 89v3h40v-3q-1-3-13-91T421 3V0H50v31q0 7 6 15t30 35q29 32 50 56 9 10 34 37t34 37 29 33 28 34 23 30 21 32 15 29 13 32 7 30 3 33q0 63-34 109t-97 46q-33 0-58-17t-35-33-10-19q0-1 5-1 18 0 37-14t19-46q0-25-16-42t-45-18"/><path id="w" d="M384 150v116q0 38 5 43 2 1 66 1 41 0 43-1 4-1 5-11 1-15 1-148V12q0-20-5-21h-1q-2-1-54-1t-54 1q-4 1-5 11-1 15-1 148"/><path id="r" d="M170 875q0 17 2 20t17 4h22l11-6q123-67 198-178t83-239q1-9 1-246V21q0-30-5-30h-1q-2-1-54-1-42 0-50 1t-9 5q-1 2-1 244v126q0 103-4 147t-22 96q-16 48-39 89t-48 69-44 45-38 31-18 13-1 19"/><path id="s" d="M384-239v182q0 61 5 66 2 1 66 1 41 0 43-1 3-1 4-4 2-10 2-235v-81q0-50 1-70 0-105-13-170t-57-140q-78-129-213-202l-11-6h-16q-19 0-22 3t-3 22q0 16 1 19t13 9q78 53 128 137t66 184q0 1 1 3 4 29 5 171z"/><path id="t" d="M389 1159q2 1 66 1 41 0 43-1 3-1 4-4 2-10 2-230V782q0-106 7-166t35-126q17-44 41-82t46-63 41-41 31-26 12-10q1-1 1-18t-1-18q0-1-20-16t-49-47-60-76-54-117-29-155q-1-12-1-246v-204q0-29-5-30h-1q-2-1-54-1t-54 1q-3 1-4 4-2 10-2 231 0 233 1 242 9 133 78 243t182 180l14 9-14 9q-106 66-178 175t-82 248q-1 10-1 191 0 280 1 282z"/><path id="B" d="M31 1143q0 11 18 11h10q13 0 16-2t14-16q101-123 180-263t132-288 88-291T544-8t28-291 11-284v-60q0-9-6-11-2-1-69-1-43 0-45 1-4 1-5 7t-1 38q0 551-86 949t-271 697q-13 22-39 61t-30 45"/><path id="C" d="M56-644h-6q-19 0-19 9 0 3 6 13 32 43 63 95 186 299 271 697t86 949q0 42 5 45 2 1 58 1 55 0 57-1 5-2 5-11t1-60q-2-183-13-341t-43-352-85-360-142-343T89-626q-11-14-14-16t-14-2z"/><path id="D" d="M308 428q-19 0-19 10 0 19 29 70t60 85q39 45 97 78t124 34q89 0 133-62t45-160q0-103-44-198T620 123 464 18 293-22q-105 0-170 73T58 245q0 82 29 158t72 130 90 93 84 59 55 20q16 0 16-12 0-19-41-44-30-17-59-43t-65-69-58-108-23-139q0-111 56-176t150-66q125 0 219 117t94 273q0 35-7 67t-22 63-47 49-73 19q-10 0-15-1-27-6-53-35t-41-56-27-54q-9-20-20-31-31-29-64-31"/><path id="E" d="M166 673q0 12 17 21h19q90-3 114-50 6-15 57-158t101-279 50-140q7-20 13-33t9-19 5-9 4-4 1-4-6-9h-68q-25 14-32 29t-51 134l-45 125-14-15q-13-16-47-55t-57-66q-25-29-62-72-51-60-63-70T83-12q-36 0-36 32 0 17 14 32t138 135q30 29 67 65t55 54l17 16q0 1-50 140t-54 150q-20 45-51 45-17 0-17 16"/><path id="F" d="M96 585q56 81 153 81 48 0 96-26t78-92q37-83 37-228 0-155-43-237-20-42-55-67t-61-31-51-7q-26 0-52 6t-61 32-55 67q-43 82-43 237 0 174 57 265m225 12q-30 32-71 32-42 0-72-32-25-26-33-72t-8-192q0-158 8-208t36-79q28-30 69-30 40 0 68 30 29 30 36 84t8 203q0 145-8 191t-33 73"/><path id="I" d="M434-231q0-13-6-19h-18q-129 0-180 66-5 7-8 12t-5 11-4 13-2 15-1 22-1 27 0 37 0 47v53q-1 89-5 100-1 1-1 2-14 36-50 56t-71 20q-11 0-14 3t-3 16 3 16 14 3q34 0 70 20t51 56q5 11 5 32t1 152v50q0 55 6 77t29 42q26 26 80 42 37 8 53 9h13q11 0 18 1h20q6-6 6-18 0-13-3-16-2-3-16-3-53-3-83-24t-36-42q-5-13-5-148v-82q0-47-3-64t-17-39q-31-43-87-59l-14-5 14-5q18-6 36-15t42-34 28-59q1-6 1-136 0-135 5-148 10-27 43-45t76-21q14 0 16-3 3-3 3-15"/><path id="J" d="M65 731q0 14 3 16t20 3q83 0 128-25t63-55q9-21 10-35t2-134q1-139 2-144 13-45 52-66t72-22q11 0 14-3t3-16-3-16-14-3q-37 0-72-21t-47-53q-5-14-6-36t-1-149v-51q0-55-6-77t-29-42q-54-52-167-52-18 0-21 3t-3 17v7q0 1 1 5t3 4 8 1q14 0 31 3t38 10 37 23 24 38q1 5 2 142l1 136q13 57 70 91 35 17 50 20-25 7-50 20-55 34-68 82l-2 10-1 136q-1 137-2 142-12 40-53 56t-77 17q-9 0-10 3t-2 15"/><path id="a" d="M572 142c0 9-5 14-16 14-8 0-14-7-17-20-20-80-44-120-71-120-17 0-26 14-26 42 0 17 6 51 19 101l28 107c9 36 17 61 23 92l6 28c2 7 3 12 3 14 0 21-11 31-33 31s-36-12-42-37l-72-286c0-11-16-31-48-61-22-21-47-31-76-31-46 0-69 27-69 82 0 19 4 46 13 83l42 166c8 31 13 53 15 64 0 21-11 31-33 31s-36-13-43-39L33-169c-2-8-3-13-3-16 0-21 11-31 32-31 15 0 27 8 38 23 3 7 20 76 53 207q36-27 93-27c59 0 98 31 129 67 11-37 44-67 91-67 69 0 90 81 106 155"/><path id="b" d="M237 666c-51 0-94-18-131-54s-56-78-56-129c0-34 25-59 56-59 30 0 55 26 55 56 0 33-24 56-56 56-3 0-5 0-7-1 19 49 63 92 126 92 82 0 128-71 128-157 0-67-34-139-102-215L62 43C49 28 50 29 50 0h371l29 180h-33c-8-51-15-80-21-89-5-5-35-7-90-7H139l97 95c68 64 154 133 183 186q30 52.5 30 105c0 118-92 196-212 196"/><path id="c" d="M249-22c141 0 211 114 211 342 0 153-32 255-95 305-35 27-74 41-115 41-141 0-211-115-211-346C39 136 88-22 249-22m112 546c7-35 10-99 10-192 0-92-4-160-11-204Q340.5 8 249 8c-23 0-46 9-67 26-27 23-43 70-50 142-3 25-4 77-4 156 0 87 3 148 8 181 9 55 27 90 55 105 22 12 41 18 58 18 65 0 101-53 112-112"/><path id="d" d="M139 106c-32 0-53-24-53-56 0-30 23-55 53-55 14 0 26 4 35 13l1-8c0-63-21-117-63-160-7-8-11-14-11-18 0-10 4-15 13-15s21 12 38 35c34 48 51 101 51 158 0 53-18 106-64 106"/><path id="e" d="M139-250c13 0 20 8 20 24v952c0 16-7 24-20 24s-20-8-20-24v-952c0-16 7-24 20-24"/><path id="f" d="M397 621c0 27-14 40-41 40-28 0-56-28-56-56 0-27 13-40 40-40 28 0 57 28 57 56M267 444c-53 0-98-40-120-75-27-43-40-70-40-82 0-9 5-13 15-13 5 0 8 1 11 2 5 8 8 15 11 20 32 79 72 118 120 118 18 0 27-14 27-41 0-15-2-32-7-50L192-46c-14-58-54-129-117-129-9 0-18 1-27 4 25 10 37 28 37 53 0 26-14 39-41 39-32 0-57-29-57-61 0-44 43-65 90-65q64.5 0 120 45c35 29 57 66 68 109l91 362c3 13 5 26 5 38 0 55-39 95-94 95"/><path id="g" d="M86-13c11 0 23 7 36 22l233 276c35-96 61-168 78-217 11-31 18-49 23-56 11-15 30-23 56-23h21c10 1 15 5 15 14 0 2-2 6-6 11-7 7-14 22-22 45L319 621c-17 49-58 73-123 73-15 0-22-5-22-15 0-7 6-12 17-15 14-4 23-9 28-15 7-8 17-28 28-60l95-267L72 53C59 40 53 29 53 20c0-18 15-33 33-33"/><path id="h" d="M278 242c1 2 1 5 1 8s0 6-1 8L98 735c-4 10-11 15-22 15-15 0-23-8-23-24 0-3 0-6 1-8l177-468L54-217c-1-2-1-5-1-9 0-16 8-24 23-24 11 0 18 5 22 15z"/><path id="K" d="M269 666q-61.5-63-180-63v-39c52 0 95 8 128 24V82c0-18-4-30-13-35s-34-8-74-8H95V0q37.5 3 162 3c124.5 0 137-1 162-3v39h-35c-41 0-66 3-74 8s-13 17-13 35v554c0 24-2 30-28 30"/><path id="L" d="M303 353c66 25 128 88 128 173 0 43-21 78-62 105-36 23-77 35-123 35-45 0-84-12-119-35-39-26-59-60-59-103 0-33 22-56 54-56s54 23 54 55c0 33-19 51-57 53 26 35 67 53 123 53 60 0 90-35 90-106 0-42-8-77-23-106-27-48-64-57-126-57-12-2-18-7-18-16 0-15 7-15 27-15h43c75 0 113-53 113-160 0-85-31-159-107-159-65 0-113 22-142 66 35-1 61 25 61 59s-25 59-59 59c-39 0-59-20-59-61 0-49 22-88 66-119 39-27 85-40 136-40 57 0 106 19 149 56s64 83 64 139c0 94-74 159-154 180"/></defs><g fill="gray" stroke-width="0" aria-level="1" data-latex="{l}" data-latex-item="{l}" data-mml-node="mtr" data-semantic-annotation="depth:2" data-semantic-attributes="latex:{l}" data-semantic-children="17" data-semantic-id="19" data-semantic-owns="17" data-semantic-parent="80" data-semantic-role="multiline" data-semantic-type="line" data-speech-node="true"><g data-mml-node="mtd"><g aria-level="2" data-mml-node="mrow" data-semantic-added="true" data-semantic-annotation="depth:3" data-semantic-children="4,5,16" data-semantic-content="5" data-semantic-id="17" data-semantic-owns="4 5 16" data-semantic-parent="19" data-semantic-role="sequence" data-semantic-type="punctuated" data-speech-node="true"><g fill="#048" aria-level="3" data-latex="\mu_0^2" data-mml-node="msubsup" data-semantic-annotation="depth:4" data-semantic-attributes="latex:\mu_0^2" data-semantic-children="0,1,2" data-semantic-collapsed="(4 (3 0 1) 2)" data-semantic-id="4" data-semantic-owns="0 1 2" data-semantic-parent="17" data-semantic-role="greekletter" data-semantic-type="subsup" data-speech-node="true"><use xlink:href="#a" aria-level="5" data-c="1D707" data-latex="\mu" data-mml-node="mi" data-semantic-annotation="clearspeak:simple;nemeth:number;depth:6" data-semantic-attributes="latex:\mu" data-semantic-font="italic" data-semantic-id="0" data-semantic-parent="4" data-semantic-role="greekletter" data-semantic-type="identifier" data-speech-node="true" transform="matrix(.00479 0 0 -.00479 -.144 17.59)"/><use xlink:href="#b" aria-level="4" data-c="32" data-latex="2" data-mml-node="mn" data-semantic-annotation="clearspeak:simple;depth:5" data-semantic-attributes="latex:2" data-semantic-font="normal" data-semantic-id="2" data-semantic-parent="4" data-semantic-role="integer" data-semantic-type="number" data-speech-node="true" transform="matrix(.00339 0 0 -.00339 2.902 15.852)"/><use xlink:href="#c" aria-level="5" data-c="30" data-latex="0" data-mml-node="mn" data-semantic-annotation="clearspeak:simple;depth:6" data-semantic-attributes="latex:0" data-semantic-font="normal" data-semantic-id="1" data-semantic-parent="4" data-semantic-role="integer" data-semantic-type="number" data-speech-node="true" transform="matrix(.00339 0 0 -.00339 2.902 18.969)"/></g><use xlink:href="#d" aria-level="3" data-c="2C" data-latex="," data-mml-node="mo" data-semantic-annotation="nemeth:number;depth:4" data-semantic-attributes="latex:," data-semantic-id="5" data-semantic-operator="punctuated" data-semantic-parent="17" data-semantic-role="comma" data-semantic-type="punctuation" data-speech-node="true" transform="matrix(.00479 0 0 -.00479 4.835 17.59)"/><g aria-level="3" data-latex="{\vert{j_0,\lambda_0}\rangle}" data-mjx-texclass="ORD" data-mml-node="TeXAtom" data-semantic-annotation="depth:4" data-semantic-attributes="latex:{\vert{j_0,\lambda_0}\rangle};texclass:ORD" data-semantic-children="6,14,15" data-semantic-content="6,15" data-semantic-id="16" data-semantic-owns="6 14 15" data-semantic-parent="17" data-semantic-role="sequence" data-semantic-type="punctuated" data-speech-node="true"><use xlink:href="#e" aria-level="4" data-c="7C" data-latex="\vert" data-mjx-texclass="ORD" data-mml-node="mo" data-semantic-annotation="nemeth:number;depth:5" data-semantic-attributes="latex:\vert;texclass:ORD" data-semantic-id="6" data-semantic-operator="punctuated" data-semantic-parent="16" data-semantic-role="vbar" data-semantic-type="punctuation" data-speech-node="true" transform="matrix(.00479 0 0 -.00479 6.964 17.59)"/><g aria-level="4" data-latex="{j_0,\lambda_0}" data-mjx-texclass="ORD" data-mml-node="TeXAtom" data-semantic-annotation="depth:5" data-semantic-attributes="latex:{j_0,\lambda_0};texclass:ORD" data-semantic-children="9,10,13" data-semantic-content="10" data-semantic-id="14" data-semantic-owns="9 10 13" data-semantic-parent="16" data-semantic-role="sequence" data-semantic-type="punctuated" data-speech-node="true"><g aria-level="5" data-latex="j_0" data-mml-node="msub" data-semantic-annotation="depth:6" data-semantic-attributes="latex:j_0" data-semantic-children="7,8" data-semantic-id="9" data-semantic-owns="7 8" data-semantic-parent="14" data-semantic-role="latinletter" data-semantic-type="subscript" data-speech-node="true"><use xlink:href="#f" aria-level="6" data-c="1D457" data-latex="j" data-mml-node="mi" data-semantic-annotation="clearspeak:simple;nemeth:number;depth:7" data-semantic-attributes="latex:j" data-semantic-font="italic" data-semantic-id="7" data-semantic-parent="9" data-semantic-role="latinletter" data-semantic-type="identifier" data-speech-node="true" transform="matrix(.00479 0 0 -.00479 8.295 17.59)"/><use xlink:href="#c" aria-level="6" data-c="30" data-latex="0" data-mml-node="mn" data-semantic-annotation="clearspeak:simple;depth:7" data-semantic-attributes="latex:0" data-semantic-font="normal" data-semantic-id="8" data-semantic-parent="9" data-semantic-role="integer" data-semantic-type="number" data-speech-node="true" transform="matrix(.00339 0 0 -.00339 10.426 18.308)"/></g><use xlink:href="#d" aria-level="5" data-c="2C" data-latex="," data-mml-node="mo" data-semantic-annotation="nemeth:number;depth:6" data-semantic-attributes="latex:," data-semantic-id="10" data-semantic-operator="punctuated" data-semantic-parent="14" data-semantic-role="comma" data-semantic-type="punctuation" data-speech-node="true" transform="matrix(.00479 0 0 -.00479 12.36 17.59)"/><g aria-level="5" data-latex="\lambda_0" data-mml-node="msub" data-semantic-annotation="depth:6" data-semantic-attributes="latex:\lambda_0" data-semantic-children="11,12" data-semantic-id="13" data-semantic-owns="11 12" data-semantic-parent="14" data-semantic-role="greekletter" data-semantic-type="subscript" data-speech-node="true"><use xlink:href="#g" aria-level="6" data-c="1D706" data-latex="\lambda" data-mml-node="mi" data-semantic-annotation="clearspeak:simple;nemeth:number;depth:7" data-semantic-attributes="latex:\lambda" data-semantic-font="italic" data-semantic-id="11" data-semantic-parent="13" data-semantic-role="greekletter" data-semantic-type="identifier" data-speech-node="true" transform="matrix(.00479 0 0 -.00479 14.488 17.59)"/><use xlink:href="#c" aria-level="6" data-c="30" data-latex="0" data-mml-node="mn" data-semantic-annotation="clearspeak:simple;depth:7" data-semantic-attributes="latex:0" data-semantic-font="normal" data-semantic-id="12" data-semantic-parent="13" data-semantic-role="integer" data-semantic-type="number" data-speech-node="true" transform="matrix(.00339 0 0 -.00339 17.438 18.308)"/></g></g><use xlink:href="#h" aria-level="4" data-c="27000000000" data-latex="\rangle" data-mml-node="mo" data-semantic-annotation="nemeth:number;depth:5" data-semantic-attributes="latex:\rangle" data-semantic-id="15" data-semantic-operator="punctuated" data-semantic-parent="16" data-semantic-role="closefence" data-semantic-type="punctuation" data-speech-node="true" transform="matrix(.00479 0 0 -.00479 19.37 17.59)"/></g></g></g></g><g fill="gray" stroke="#000" stroke-width="0"><g transform="translate(-3.461 -.102)"><use xlink:href="#i" data-c="1D45D" data-mml-node="mi" transform="matrix(.00479 0 0 -.00479 37.816 6.039)"/><use xlink:href="#j" data-c="31" data-mml-node="mn" transform="matrix(.00339 0 0 -.00339 40.383 6.757)"/></g><g transform="translate(-3.61 -.003)"><use xlink:href="#i" data-c="1D45D" data-mml-node="mi" transform="matrix(.00479 0 0 -.00479 41.397 14.701)"/><use xlink:href="#k" data-c="32" data-mml-node="mn" transform="matrix(.00339 0 0 -.00339 43.964 15.42)"/></g><g transform="translate(-3.461 .125)"><use xlink:href="#i" data-c="1D45D" data-mml-node="mi" transform="matrix(.00479 0 0 -.00479 37.816 27.19)"/><use xlink:href="#m" data-c="33" data-mml-node="mn" transform="matrix(.00339 0 0 -.00339 40.383 27.908)"/></g></g><g stroke="gray" stroke-linecap="round" stroke-linejoin="round" stroke-miterlimit="6" stroke-width=".529" transform="translate(-1.631 -1.601)"><path fill="none" d="M38.538 17.94h5.278m-7.681-4.903 7.68-7.52m-7.681 17.325 7.682 7.52"/><circle cx="32.336" cy="17.939" r="6.202" fill="#004487" fill-opacity=".2"/><path fill="none" d="M23.274 17.94h2.86"/></g><g fill="#048" stroke="#000" stroke-width="0"><g data-mml-node="msub" transform="translate(-1.162 -.003)"><use xlink:href="#o" data-c="1D70E" data-mml-node="mi" transform="matrix(.00479 0 0 -.00479 71.637 23.664)"/><use xlink:href="#p" data-c="31" data-mml-node="mn" transform="matrix(.00339 0 0 -.00339 74.53 24.383)"/></g><g fill="gray" data-mml-node="mo" transform="matrix(.00479 0 0 -.00479 66.243 23.906)"><use xlink:href="#r" data-c="23AB" transform="translate(0 1251)"/><use xlink:href="#s" data-c="23AD" transform="translate(0 -751)"/><use xlink:href="#t" data-c="23AC"/><svg width="889" height="281" y="1060" viewBox="0 49.5 889 281"><use xlink:href="#w" data-c="23AA" transform="scale(1 1.382)"/></svg><svg width="889" height="281" y="-841" viewBox="0 49.5 889 281"><use xlink:href="#w" data-c="23AA" transform="scale(1 1.382)"/></svg></g><g data-mml-node="msub" transform="translate(-1.162 -.003)"><use xlink:href="#x" data-c="1D70E" data-mml-node="mi" transform="matrix(.00479 0 0 -.00479 69.087 10.13)"/><use xlink:href="#y" data-c="33" data-mml-node="mn" transform="matrix(.00339 0 0 -.00339 71.98 10.848)"/></g><g fill="gray" data-mml-node="mo" transform="matrix(.00479 0 0 -.00479 63.663 10.425)"><use xlink:href="#r" data-c="23AB" transform="translate(0 1251)"/><use xlink:href="#s" data-c="23AD" transform="translate(0 -751)"/><use xlink:href="#t" data-c="23AC"/><svg width="889" height="281" y="1060" viewBox="0 49.5 889 281"><use xlink:href="#w" data-c="23AA" transform="scale(1 1.382)"/></svg><svg width="889" height="281" y="-841" viewBox="0 49.5 889 281"><use xlink:href="#w" data-c="23AA" transform="scale(1 1.382)"/></svg></g><g data-mml-node="msub" transform="translate(-1.689 -.003)"><use xlink:href="#z" data-c="1D70E" data-mml-node="mi" transform="matrix(.00479 0 0 -.00479 79.57 17.151)"/><use xlink:href="#A" data-c="32" data-mml-node="mn" transform="matrix(.00338 0 0 -.00338 82.461 17.87)"/></g><g fill="gray" data-mml-node="mo" transform="matrix(.00479 0 0 -.00482 74.161 17.111)"><rect width="126.068" height="3130.873" x="456.932" y="-1817.873" fill-rule="evenodd" stroke="none" rx="1.289" ry="1.289" transform="scale(1 -1)"/><use xlink:href="#B" data-c="239E" transform="translate(0 2396)"/><use xlink:href="#C" data-c="23A0" transform="translate(0 -2406)"/></g></g><g fill="gray" stroke-width="0"><g stroke="#000" data-mml-node="msubsup"><g data-mjx-texclass="ORD" data-mml-node="TeXAtom" transform="translate(-1.631 -1.601)"><use xlink:href="#D" data-c="4F" data-mml-node="mi" transform="matrix(.00479 0 0 -.00479 27.345 19.106)"/><g data-mml-node="msub"><use xlink:href="#E" data-c="1D706" data-mml-node="mi" transform="matrix(.00339 0 0 -.00339 31.315 16.852)"/><use xlink:href="#F" data-c="30" data-mml-node="mn" transform="matrix(.0024 0 0 -.0024 33.4 17.36)"/></g><use xlink:href="#I" data-c="7B" data-mml-node="mo" transform="matrix(.00339 0 0 -.00339 31.315 20.814)"/><use xlink:href="#E" data-c="1D706" data-mml-node="mi" transform="matrix(.00339 0 0 -.00339 33.007 20.814)"/><use xlink:href="#J" data-c="7D" data-mml-node="mo" transform="matrix(.00339 0 0 -.00339 34.981 20.814)"/></g></g><g aria-level="1" data-latex="{l}" data-latex-item="{l}" data-mml-node="mtr" data-semantic-annotation="depth:2" data-semantic-attributes="latex:{l}" data-semantic-children="37" data-semantic-id="39" data-semantic-owns="37" data-semantic-parent="80" data-semantic-role="multiline" data-semantic-type="line" data-speech-node="true"><g data-mml-node="mtd"><g aria-level="2" data-mml-node="mrow" data-semantic-added="true" data-semantic-annotation="depth:3" data-semantic-children="24,25,36" data-semantic-content="25" data-semantic-id="37" data-semantic-owns="24 25 36" data-semantic-parent="39" data-semantic-role="sequence" data-semantic-type="punctuated" data-speech-node="true"><g fill="#048" aria-level="3" data-latex="\mu_1^2" data-mml-node="msubsup" data-semantic-annotation="depth:4" data-semantic-attributes="latex:\mu_1^2" data-semantic-children="20,21,22" data-semantic-collapsed="(24 (23 20 21) 22)" data-semantic-id="24" data-semantic-owns="20 21 22" data-semantic-parent="37" data-semantic-role="greekletter" data-semantic-type="subsup" data-speech-node="true"><use xlink:href="#a" aria-level="5" data-c="1D707" data-latex="\mu" data-mml-node="mi" data-semantic-annotation="clearspeak:simple;nemeth:number;depth:6" data-semantic-attributes="latex:\mu" data-semantic-font="italic" data-semantic-id="20" data-semantic-parent="24" data-semantic-role="greekletter" data-semantic-type="identifier" data-speech-node="true" transform="matrix(.00479 0 0 -.00479 43.186 4.276)"/><use xlink:href="#b" aria-level="4" data-c="32" data-latex="2" data-mml-node="mn" data-semantic-annotation="clearspeak:simple;depth:5" data-semantic-attributes="latex:2" data-semantic-font="normal" data-semantic-id="22" data-semantic-parent="24" data-semantic-role="integer" data-semantic-type="number" data-speech-node="true" transform="matrix(.00339 0 0 -.00339 46.232 2.537)"/><use xlink:href="#K" aria-level="5" data-c="31" data-latex="1" data-mml-node="mn" data-semantic-annotation="clearspeak:simple;depth:6" data-semantic-attributes="latex:1" data-semantic-font="normal" data-semantic-id="21" data-semantic-parent="24" data-semantic-role="integer" data-semantic-type="number" data-speech-node="true" transform="matrix(.00339 0 0 -.00339 46.232 5.654)"/></g><use xlink:href="#d" aria-level="3" data-c="2C" data-latex="," data-mml-node="mo" data-semantic-annotation="nemeth:number;depth:4" data-semantic-attributes="latex:," data-semantic-id="25" data-semantic-operator="punctuated" data-semantic-parent="37" data-semantic-role="comma" data-semantic-type="punctuation" data-speech-node="true" transform="matrix(.00479 0 0 -.00479 48.165 4.276)"/><g aria-level="3" data-latex="{\vert{j_1,\lambda_1}\rangle}" data-mjx-texclass="ORD" data-mml-node="TeXAtom" data-semantic-annotation="depth:4" data-semantic-attributes="latex:{\vert{j_1,\lambda_1}\rangle};texclass:ORD" data-semantic-children="26,34,35" data-semantic-content="26,35" data-semantic-id="36" data-semantic-owns="26 34 35" data-semantic-parent="37" data-semantic-role="sequence" data-semantic-type="punctuated" data-speech-node="true"><use xlink:href="#e" aria-level="4" data-c="7C" data-latex="\vert" data-mjx-texclass="ORD" data-mml-node="mo" data-semantic-annotation="nemeth:number;depth:5" data-semantic-attributes="latex:\vert;texclass:ORD" data-semantic-id="26" data-semantic-operator="punctuated" data-semantic-parent="36" data-semantic-role="vbar" data-semantic-type="punctuation" data-speech-node="true" transform="matrix(.00479 0 0 -.00479 50.294 4.276)"/><g aria-level="4" data-latex="{j_1,\lambda_1}" data-mjx-texclass="ORD" data-mml-node="TeXAtom" data-semantic-annotation="depth:5" data-semantic-attributes="latex:{j_1,\lambda_1};texclass:ORD" data-semantic-children="29,30,33" data-semantic-content="30" data-semantic-id="34" data-semantic-owns="29 30 33" data-semantic-parent="36" data-semantic-role="sequence" data-semantic-type="punctuated" data-speech-node="true"><g aria-level="5" data-latex="j_1" data-mml-node="msub" data-semantic-annotation="depth:6" data-semantic-attributes="latex:j_1" data-semantic-children="27,28" data-semantic-id="29" data-semantic-owns="27 28" data-semantic-parent="34" data-semantic-role="latinletter" data-semantic-type="subscript" data-speech-node="true"><use xlink:href="#f" aria-level="6" data-c="1D457" data-latex="j" data-mml-node="mi" data-semantic-annotation="clearspeak:simple;nemeth:number;depth:7" data-semantic-attributes="latex:j" data-semantic-font="italic" data-semantic-id="27" data-semantic-parent="29" data-semantic-role="latinletter" data-semantic-type="identifier" data-speech-node="true" transform="matrix(.00479 0 0 -.00479 51.625 4.276)"/><use xlink:href="#K" aria-level="6" data-c="31" data-latex="1" data-mml-node="mn" data-semantic-annotation="clearspeak:simple;depth:7" data-semantic-attributes="latex:1" data-semantic-font="normal" data-semantic-id="28" data-semantic-parent="29" data-semantic-role="integer" data-semantic-type="number" data-speech-node="true" transform="matrix(.00339 0 0 -.00339 53.756 4.994)"/></g><use xlink:href="#d" aria-level="5" data-c="2C" data-latex="," data-mml-node="mo" data-semantic-annotation="nemeth:number;depth:6" data-semantic-attributes="latex:," data-semantic-id="30" data-semantic-operator="punctuated" data-semantic-parent="34" data-semantic-role="comma" data-semantic-type="punctuation" data-speech-node="true" transform="matrix(.00479 0 0 -.00479 55.689 4.276)"/><g aria-level="5" data-latex="\lambda_1" data-mml-node="msub" data-semantic-annotation="depth:6" data-semantic-attributes="latex:\lambda_1" data-semantic-children="31,32" data-semantic-id="33" data-semantic-owns="31 32" data-semantic-parent="34" data-semantic-role="greekletter" data-semantic-type="subscript" data-speech-node="true"><use xlink:href="#g" aria-level="6" data-c="1D706" data-latex="\lambda" data-mml-node="mi" data-semantic-annotation="clearspeak:simple;nemeth:number;depth:7" data-semantic-attributes="latex:\lambda" data-semantic-font="italic" data-semantic-id="31" data-semantic-parent="33" data-semantic-role="greekletter" data-semantic-type="identifier" data-speech-node="true" transform="matrix(.00479 0 0 -.00479 57.818 4.276)"/><use xlink:href="#K" aria-level="6" data-c="31" data-latex="1" data-mml-node="mn" data-semantic-annotation="clearspeak:simple;depth:7" data-semantic-attributes="latex:1" data-semantic-font="normal" data-semantic-id="32" data-semantic-parent="33" data-semantic-role="integer" data-semantic-type="number" data-speech-node="true" transform="matrix(.00339 0 0 -.00339 60.768 4.994)"/></g></g><use xlink:href="#h" aria-level="4" data-c="27000000000" data-latex="\rangle" data-mml-node="mo" data-semantic-annotation="nemeth:number;depth:5" data-semantic-attributes="latex:\rangle" data-semantic-id="35" data-semantic-operator="punctuated" data-semantic-parent="36" data-semantic-role="closefence" data-semantic-type="punctuation" data-speech-node="true" transform="matrix(.00479 0 0 -.00479 62.7 4.276)"/></g></g></g></g><g aria-level="1" data-latex="{l}" data-latex-item="{l}" data-mml-node="mtr" data-semantic-annotation="depth:2" data-semantic-attributes="latex:{l}" data-semantic-children="57" data-semantic-id="59" data-semantic-owns="57" data-semantic-parent="80" data-semantic-role="multiline" data-semantic-type="line" data-speech-node="true"><g data-mml-node="mtd"><g aria-level="2" data-mml-node="mrow" data-semantic-added="true" data-semantic-annotation="depth:3" data-semantic-children="44,45,56" data-semantic-content="45" data-semantic-id="57" data-semantic-owns="44 45 56" data-semantic-parent="59" data-semantic-role="sequence" data-semantic-type="punctuated" data-speech-node="true"><g fill="#048" aria-level="3" data-latex="\mu_2^2" data-mml-node="msubsup" data-semantic-annotation="depth:4" data-semantic-attributes="latex:\mu_2^2" data-semantic-children="40,41,42" data-semantic-collapsed="(44 (43 40 41) 42)" data-semantic-id="44" data-semantic-owns="40 41 42" data-semantic-parent="57" data-semantic-role="greekletter" data-semantic-type="subsup" data-speech-node="true"><use xlink:href="#a" aria-level="5" data-c="1D707" data-latex="\mu" data-mml-node="mi" data-semantic-annotation="clearspeak:simple;nemeth:number;depth:6" data-semantic-attributes="latex:\mu" data-semantic-font="italic" data-semantic-id="40" data-semantic-parent="44" data-semantic-role="greekletter" data-semantic-type="identifier" data-speech-node="true" transform="matrix(.00479 0 0 -.00479 43.186 17.407)"/><use xlink:href="#b" aria-level="4" data-c="32" data-latex="2" data-mml-node="mn" data-semantic-annotation="clearspeak:simple;depth:5" data-semantic-attributes="latex:2" data-semantic-font="normal" data-semantic-id="42" data-semantic-parent="44" data-semantic-role="integer" data-semantic-type="number" data-speech-node="true" transform="matrix(.00339 0 0 -.00339 46.232 15.669)"/><use xlink:href="#b" aria-level="5" data-c="32" data-latex="2" data-mml-node="mn" data-semantic-annotation="clearspeak:simple;depth:6" data-semantic-attributes="latex:2" data-semantic-font="normal" data-semantic-id="41" data-semantic-parent="44" data-semantic-role="integer" data-semantic-type="number" data-speech-node="true" transform="matrix(.00339 0 0 -.00339 46.232 18.786)"/></g><use xlink:href="#d" aria-level="3" data-c="2C" data-latex="," data-mml-node="mo" data-semantic-annotation="nemeth:number;depth:4" data-semantic-attributes="latex:," data-semantic-id="45" data-semantic-operator="punctuated" data-semantic-parent="57" data-semantic-role="comma" data-semantic-type="punctuation" data-speech-node="true" transform="matrix(.00479 0 0 -.00479 48.165 17.407)"/><g aria-level="3" data-latex="{\vert{j_2,\lambda_2}\rangle}" data-mjx-texclass="ORD" data-mml-node="TeXAtom" data-semantic-annotation="depth:4" data-semantic-attributes="latex:{\vert{j_2,\lambda_2}\rangle};texclass:ORD" data-semantic-children="46,54,55" data-semantic-content="46,55" data-semantic-id="56" data-semantic-owns="46 54 55" data-semantic-parent="57" data-semantic-role="sequence" data-semantic-type="punctuated" data-speech-node="true"><use xlink:href="#e" aria-level="4" data-c="7C" data-latex="\vert" data-mjx-texclass="ORD" data-mml-node="mo" data-semantic-annotation="nemeth:number;depth:5" data-semantic-attributes="latex:\vert;texclass:ORD" data-semantic-id="46" data-semantic-operator="punctuated" data-semantic-parent="56" data-semantic-role="vbar" data-semantic-type="punctuation" data-speech-node="true" transform="matrix(.00479 0 0 -.00479 50.294 17.407)"/><g aria-level="4" data-latex="{j_2,\lambda_2}" data-mjx-texclass="ORD" data-mml-node="TeXAtom" data-semantic-annotation="depth:5" data-semantic-attributes="latex:{j_2,\lambda_2};texclass:ORD" data-semantic-children="49,50,53" data-semantic-content="50" data-semantic-id="54" data-semantic-owns="49 50 53" data-semantic-parent="56" data-semantic-role="sequence" data-semantic-type="punctuated" data-speech-node="true"><g aria-level="5" data-latex="j_2" data-mml-node="msub" data-semantic-annotation="depth:6" data-semantic-attributes="latex:j_2" data-semantic-children="47,48" data-semantic-id="49" data-semantic-owns="47 48" data-semantic-parent="54" data-semantic-role="latinletter" data-semantic-type="subscript" data-speech-node="true"><use xlink:href="#f" aria-level="6" data-c="1D457" data-latex="j" data-mml-node="mi" data-semantic-annotation="clearspeak:simple;nemeth:number;depth:7" data-semantic-attributes="latex:j" data-semantic-font="italic" data-semantic-id="47" data-semantic-parent="49" data-semantic-role="latinletter" data-semantic-type="identifier" data-speech-node="true" transform="matrix(.00479 0 0 -.00479 51.625 17.407)"/><use xlink:href="#b" aria-level="6" data-c="32" data-latex="2" data-mml-node="mn" data-semantic-annotation="clearspeak:simple;depth:7" data-semantic-attributes="latex:2" data-semantic-font="normal" data-semantic-id="48" data-semantic-parent="49" data-semantic-role="integer" data-semantic-type="number" data-speech-node="true" transform="matrix(.00339 0 0 -.00339 53.756 18.125)"/></g><use xlink:href="#d" aria-level="5" data-c="2C" data-latex="," data-mml-node="mo" data-semantic-annotation="nemeth:number;depth:6" data-semantic-attributes="latex:," data-semantic-id="50" data-semantic-operator="punctuated" data-semantic-parent="54" data-semantic-role="comma" data-semantic-type="punctuation" data-speech-node="true" transform="matrix(.00479 0 0 -.00479 55.689 17.407)"/><g aria-level="5" data-latex="\lambda_2" data-mml-node="msub" data-semantic-annotation="depth:6" data-semantic-attributes="latex:\lambda_2" data-semantic-children="51,52" data-semantic-id="53" data-semantic-owns="51 52" data-semantic-parent="54" data-semantic-role="greekletter" data-semantic-type="subscript" data-speech-node="true"><use xlink:href="#g" aria-level="6" data-c="1D706" data-latex="\lambda" data-mml-node="mi" data-semantic-annotation="clearspeak:simple;nemeth:number;depth:7" data-semantic-attributes="latex:\lambda" data-semantic-font="italic" data-semantic-id="51" data-semantic-parent="53" data-semantic-role="greekletter" data-semantic-type="identifier" data-speech-node="true" transform="matrix(.00479 0 0 -.00479 57.818 17.407)"/><use xlink:href="#b" aria-level="6" data-c="32" data-latex="2" data-mml-node="mn" data-semantic-annotation="clearspeak:simple;depth:7" data-semantic-attributes="latex:2" data-semantic-font="normal" data-semantic-id="52" data-semantic-parent="53" data-semantic-role="integer" data-semantic-type="number" data-speech-node="true" transform="matrix(.00339 0 0 -.00339 60.768 18.125)"/></g></g><use xlink:href="#h" aria-level="4" data-c="27000000000" data-latex="\rangle" data-mml-node="mo" data-semantic-annotation="nemeth:number;depth:5" data-semantic-attributes="latex:\rangle" data-semantic-id="55" data-semantic-operator="punctuated" data-semantic-parent="56" data-semantic-role="closefence" data-semantic-type="punctuation" data-speech-node="true" transform="matrix(.00479 0 0 -.00479 62.7 17.407)"/></g></g></g></g><g aria-level="1" data-latex="{l}" data-latex-item="{l}" data-mml-node="mtr" data-semantic-annotation="depth:2" data-semantic-attributes="latex:{l}" data-semantic-children="77" data-semantic-id="79" data-semantic-owns="77" data-semantic-parent="80" data-semantic-role="multiline" data-semantic-type="line" data-speech-node="true"><g data-mml-node="mtd"><g aria-level="2" data-mml-node="mrow" data-semantic-added="true" data-semantic-annotation="depth:3" data-semantic-children="64,65,76" data-semantic-content="65" data-semantic-id="77" data-semantic-owns="64 65 76" data-semantic-parent="79" data-semantic-role="sequence" data-semantic-type="punctuated" data-speech-node="true"><g fill="#048" aria-level="3" data-latex="\mu_3^2" data-mml-node="msubsup" data-semantic-annotation="depth:4" data-semantic-attributes="latex:\mu_3^2" data-semantic-children="60,61,62" data-semantic-collapsed="(64 (63 60 61) 62)" data-semantic-id="64" data-semantic-owns="60 61 62" data-semantic-parent="77" data-semantic-role="greekletter" data-semantic-type="subsup" data-speech-node="true"><use xlink:href="#a" aria-level="5" data-c="1D707" data-latex="\mu" data-mml-node="mi" data-semantic-annotation="clearspeak:simple;nemeth:number;depth:6" data-semantic-attributes="latex:\mu" data-semantic-font="italic" data-semantic-id="60" data-semantic-parent="64" data-semantic-role="greekletter" data-semantic-type="identifier" data-speech-node="true" transform="matrix(.00479 0 0 -.00479 43.186 30.225)"/><use xlink:href="#b" aria-level="4" data-c="32" data-latex="2" data-mml-node="mn" data-semantic-annotation="clearspeak:simple;depth:5" data-semantic-attributes="latex:2" data-semantic-font="normal" data-semantic-id="62" data-semantic-parent="64" data-semantic-role="integer" data-semantic-type="number" data-speech-node="true" transform="matrix(.00339 0 0 -.00339 46.232 28.486)"/><use xlink:href="#L" aria-level="5" data-c="33" data-latex="3" data-mml-node="mn" data-semantic-annotation="clearspeak:simple;depth:6" data-semantic-attributes="latex:3" data-semantic-font="normal" data-semantic-id="61" data-semantic-parent="64" data-semantic-role="integer" data-semantic-type="number" data-speech-node="true" transform="matrix(.00339 0 0 -.00339 46.232 31.603)"/></g><use xlink:href="#d" aria-level="3" data-c="2C" data-latex="," data-mml-node="mo" data-semantic-annotation="nemeth:number;depth:4" data-semantic-attributes="latex:," data-semantic-id="65" data-semantic-operator="punctuated" data-semantic-parent="77" data-semantic-role="comma" data-semantic-type="punctuation" data-speech-node="true" transform="matrix(.00479 0 0 -.00479 48.165 30.225)"/><g aria-level="3" data-latex="{\vert{j_3,\lambda_3}\rangle}" data-mjx-texclass="ORD" data-mml-node="TeXAtom" data-semantic-annotation="depth:4" data-semantic-attributes="latex:{\vert{j_3,\lambda_3}\rangle};texclass:ORD" data-semantic-children="66,74,75" data-semantic-content="66,75" data-semantic-id="76" data-semantic-owns="66 74 75" data-semantic-parent="77" data-semantic-role="sequence" data-semantic-type="punctuated" data-speech-node="true"><use xlink:href="#e" aria-level="4" data-c="7C" data-latex="\vert" data-mjx-texclass="ORD" data-mml-node="mo" data-semantic-annotation="nemeth:number;depth:5" data-semantic-attributes="latex:\vert;texclass:ORD" data-semantic-id="66" data-semantic-operator="punctuated" data-semantic-parent="76" data-semantic-role="vbar" data-semantic-type="punctuation" data-speech-node="true" transform="matrix(.00479 0 0 -.00479 50.294 30.225)"/><g aria-level="4" data-latex="{j_3,\lambda_3}" data-mjx-texclass="ORD" data-mml-node="TeXAtom" data-semantic-annotation="depth:5" data-semantic-attributes="latex:{j_3,\lambda_3};texclass:ORD" data-semantic-children="69,70,73" data-semantic-content="70" data-semantic-id="74" data-semantic-owns="69 70 73" data-semantic-parent="76" data-semantic-role="sequence" data-semantic-type="punctuated" data-speech-node="true"><g aria-level="5" data-latex="j_3" data-mml-node="msub" data-semantic-annotation="depth:6" data-semantic-attributes="latex:j_3" data-semantic-children="67,68" data-semantic-id="69" data-semantic-owns="67 68" data-semantic-parent="74" data-semantic-role="latinletter" data-semantic-type="subscript" data-speech-node="true"><use xlink:href="#f" aria-level="6" data-c="1D457" data-latex="j" data-mml-node="mi" data-semantic-annotation="clearspeak:simple;nemeth:number;depth:7" data-semantic-attributes="latex:j" data-semantic-font="italic" data-semantic-id="67" data-semantic-parent="69" data-semantic-role="latinletter" data-semantic-type="identifier" data-speech-node="true" transform="matrix(.00479 0 0 -.00479 51.625 30.225)"/><use xlink:href="#L" aria-level="6" data-c="33" data-latex="3" data-mml-node="mn" data-semantic-annotation="clearspeak:simple;depth:7" data-semantic-attributes="latex:3" data-semantic-font="normal" data-semantic-id="68" data-semantic-parent="69" data-semantic-role="integer" data-semantic-type="number" data-speech-node="true" transform="matrix(.00339 0 0 -.00339 53.756 30.943)"/></g><use xlink:href="#d" aria-level="5" data-c="2C" data-latex="," data-mml-node="mo" data-semantic-annotation="nemeth:number;depth:6" data-semantic-attributes="latex:," data-semantic-id="70" data-semantic-operator="punctuated" data-semantic-parent="74" data-semantic-role="comma" data-semantic-type="punctuation" data-speech-node="true" transform="matrix(.00479 0 0 -.00479 55.689 30.225)"/><g aria-level="5" data-latex="\lambda_3" data-mml-node="msub" data-semantic-annotation="depth:6" data-semantic-attributes="latex:\lambda_3" data-semantic-children="71,72" data-semantic-id="73" data-semantic-owns="71 72" data-semantic-parent="74" data-semantic-role="greekletter" data-semantic-type="subscript" data-speech-node="true"><use xlink:href="#g" aria-level="6" data-c="1D706" data-latex="\lambda" data-mml-node="mi" data-semantic-annotation="clearspeak:simple;nemeth:number;depth:7" data-semantic-attributes="latex:\lambda" data-semantic-font="italic" data-semantic-id="71" data-semantic-parent="73" data-semantic-role="greekletter" data-semantic-type="identifier" data-speech-node="true" transform="matrix(.00479 0 0 -.00479 57.818 30.225)"/><use xlink:href="#L" aria-level="6" data-c="33" data-latex="3" data-mml-node="mn" data-semantic-annotation="clearspeak:simple;depth:7" data-semantic-attributes="latex:3" data-semantic-font="normal" data-semantic-id="72" data-semantic-parent="73" data-semantic-role="integer" data-semantic-type="number" data-speech-node="true" transform="matrix(.00339 0 0 -.00339 60.768 30.943)"/></g></g><use xlink:href="#h" aria-level="4" data-c="27000000000" data-latex="\rangle" data-mml-node="mo" data-semantic-annotation="nemeth:number;depth:5" data-semantic-attributes="latex:\rangle" data-semantic-id="75" data-semantic-operator="punctuated" data-semantic-parent="76" data-semantic-role="closefence" data-semantic-type="punctuation" data-speech-node="true" transform="matrix(.00479 0 0 -.00479 62.7 30.225)"/></g></g></g></g></g><metadata><rdf:RDF><cc:Work><dc:creator><cc:Agent><dc:title>Remco de Boer</dc:title></cc:Agent></dc:creator><cc:license rdf:resource="http://creativecommons.org/licenses/by/4.0/"/></cc:Work><cc:License rdf:about="http://creativecommons.org/licenses/by/4.0/"><cc:permits rdf:resource="http://creativecommons.org/ns#Reproduction"/><cc:permits rdf:resource="http://creativecommons.org/ns#Distribution"/><cc:requires rdf:resource="http://creativecommons.org/ns#Notice"/><cc:requires rdf:resource="http://creativecommons.org/ns#Attribution"/><cc:permits rdf:resource="http://creativecommons.org/ns#DerivativeWorks"/></cc:License></rdf:RDF></metadata></svg>