<svg xmlns="http://www.w3.org/2000/svg" xmlns:cc="http://creativecommons.org/ns#" xmlns:dc="http://purl.org/dc/elements/1.1/" xmlns:inkscape="http://www.inkscape.org/namespaces/inkscape" xmlns:rdf="http://www.w3.org/1999/02/22-rdf-syntax-ns#" xmlns:sodipodi="http://sodipodi.sourceforge.net/DTD/sodipodi-0.dtd" xmlns:xlink="http://www.w3.org/1999/xlink" inkscape:version="1.4.2 (1:1.4.2+202505120737+ebf0e940d0)" sodipodi:docname="two-stage-coupling-scheme.svg" width="203.793" height="144.831" viewBox="0 0 203.793 144.831"><sodipodi:namedview inkscape:current-layer="svg17" inkscape:cx="101.781" inkscape:cy="72.34" inkscape:deskcolor="#d1d1d1" inkscape:pagecheckerboard="0" inkscape:pageopacity="0" inkscape:showpageshadow="2" inkscape:window-height="1371" inkscape:window-maximized="1" inkscape:window-width="2560" inkscape:window-x="0" inkscape:window-y="32" inkscape:zoom="4.348" bordercolor="#000000" borderopacity=".25" pagecolor="#ffffff"/><defs><path id="c" d="M174 114q0-18-5-32t-10-19-15-16l11-2q28-5 48-5 68 0 87 64 4 14 4 46t1 230v244H154v62h15q27-3 196-3 134 0 152 3h10v-62h-81V153q0-30-5-45Q413 32 315 2q-49-13-107-13-48 0-90 9T42 37 8 114v8q0 28 22 52t61 24 61-24 22-52z"/><path id="f" d="M33 157q0 101 76 192t171 92q51 0 90-49 16 30 46 30 13 0 23-8t10-20q0-13-37-160T374 68q0-25 7-33t21-9q9 1 20 9 21 20 41 96 6 20 10 21 2 1 10 1h4q19 0 19-9 0-6-5-27t-20-54-32-50Q436 0 417-8q-8-2-24-2-34 0-57 15t-30 31l-6 15q-1 1-4-1l-4-4q-59-56-120-56-55 0-97 40T33 157m318 171q0 6-5 22t-23 35-46 20q-35 0-67-31t-50-81q-29-79-41-164v-11q0-8-1-12 0-45 18-62t43-18q38 0 75 33t44 51q2 4 27 107t26 111"/><path id="g" d="M56 347q0 13 14 20h637q15-8 15-20 0-11-14-19l-318-1H72q-16 5-16 20m0-194q0 15 16 20h636q14-10 14-20 0-13-15-20H70q-14 7-14 20"/><path id="d" d="m213 578-13-5q-14-5-40-10t-58-7H83v46h19q47 2 87 15t56 24 28 22q2 3 12 3 9 0 17-6V361l1-300q7-7 12-9t24-4 62-2h26V0h-11q-21 3-159 3-136 0-157-3H88v46h64q16 0 25 1t16 3 8 2 6 5 6 4z"/><path id="e" d="M109 429q-27 0-43 18t-16 44q0 71 53 123t132 52q91 0 152-56t62-145q0-43-20-82t-48-68-80-74q-36-31-100-92l-59-56 76-1q157 0 167 5 7 2 24 89v3h40v-3q-1-3-13-91T421 3V0H50v31q0 7 6 15t30 35q29 32 50 56 9 10 34 37t34 37 29 33 28 34 23 30 21 32 15 29 13 32 7 30 3 33q0 63-34 109t-97 46q-33 0-58-17t-35-33-10-19q0-1 5-1 18 0 37-14t19-46q0-25-16-42t-45-18"/><path id="i" d="M643 285q-2-5-14-137T612 4V0H39v62h108v562H39v62h12q24-3 177-3 187 2 197 3h14v-62H304V62h74q114 0 161 76 12 18 19 40t11 36 7 41 5 34h62z"/><path id="k" d="M64 493q0 89 56 143t144 60h8q8 1 13 1 95 0 169-52l26 24q4 3 8 7l7 7 5 5q2 2 4 3l4 2q2 1 3 2t3 1 3 1 5 0q14 0 17-6t3-39V532q0-25 1-32 0-28-3-35t-16-7h-19q-16 0-20 3t-6 17q-7 51-30 86t-56 50-57 20-49 5q-59 0-84-29t-26-66q0-27 18-51t52-36q6-3 96-21t132-45q99-65 99-184v-7q0-37-15-80Q517 12 389-9q-9-1-43-1-38 0-71 5T221 7t-37 15-24 13-9 5l-25-23q-4-3-8-7l-7-7-5-5q-2-2-4-3l-4-2q-2-1-3-2t-3-1-3-1-5 0q-14 0-17 7t-3 39v118q0 25-1 32v26q0 8 6 12t8 4 17 1h6q18 0 22-3t4-20q4-80 67-117t152-37q63 0 89 31t26 75q0 39-21 64t-51 36q-4 2-83 19t-84 19q-66 18-111 71T64 493"/><clipPath id="b"><path d="M-.004 0h271.015v284.016H-.004Z" clip-rule="evenodd"/></clipPath><marker id="a" markerHeight="1" markerWidth="1" orient="auto-start-reverse" overflow="visible" preserveAspectRatio="xMidYMid" refX="4" viewBox="0 0 1 1"><path fill="context-stroke" fill-rule="evenodd" d="m0 0-2.5 2.5L6.25 0-2.5-2.5Z"/></marker></defs><g fill="none" stroke="#17365c" stroke-miterlimit="10" stroke-width="1.8" marker-end="url(#a)" transform="translate(2 2)"><path d="M162.242 177.172c-.413 16.042-9.936 23.751-18.962 31.333" clip-path="url(#b)" style="stroke:#048" transform="matrix(-.99995 0 0 .99995 260.31 -145.194)"/><path d="M162.242 177.172c-.413 16.042-9.936 23.751-18.962 31.333" clip-path="url(#b)" style="stroke:#048" transform="translate(17.258 -145.194)scale(.99995)"/><path d="M162.242 177.172c-.413 16.042-9.936 23.751-18.962 31.333" clip-path="url(#b)" style="stroke:#048" transform="matrix(-.99995 0 0 .99995 181.234 -93.2)"/><path d="M162.242 177.172c-.413 16.042-9.936 23.751-18.962 31.333" clip-path="url(#b)" style="stroke:#048" transform="translate(-23.45 -93.2)scale(.99995)"/></g><path fill="#aec7e8" stroke="#17365c" stroke-miterlimit="10" stroke-width="3" d="M-19.038-14.547h38.076v29.094h-38.076Z" style="fill:#da3;fill-opacity:.5;stroke:#048" transform="translate(100.202 18.046)scale(.99995)"/><g fill="#17365c" stroke-width="0" data-mml-node="mtr" transform="translate(8.049 -10.7)"><use xlink:href="#c" data-c="1D409" data-mml-node="mi" style="fill:#048;stroke:none" transform="matrix(.0181 0 0 -.0181 82.554 34.175)"/><use xlink:href="#d" data-c="31" data-mml-node="mn" style="fill:#048;stroke:none" transform="matrix(.0128 0 0 -.0128 93.902 36.89)"/></g><path fill="#ffbb78" stroke="#17365c" stroke-miterlimit="10" stroke-width="3" d="M-19.038-14.547h38.076v29.094h-38.076Z" style="fill:#da3;fill-opacity:.5;stroke:#048" transform="translate(181.256 18.046)scale(.99995)"/><g fill="#17365c" stroke-width="0" data-mml-node="mtr" transform="translate(-35.951 -10.7)"><use xlink:href="#c" data-c="1D409" data-mml-node="mi" style="fill:#048;stroke:none" transform="matrix(.0181 0 0 -.0181 207.793 34.175)"/><use xlink:href="#e" data-c="32" data-mml-node="mn" style="fill:#048;stroke:none" transform="matrix(.0128 0 0 -.0128 219.142 36.89)"/></g><path fill="#98df8a" stroke="#17365c" stroke-miterlimit="10" stroke-width="3" d="M-36.679-16.786H36.68v33.572h-73.36z" style="fill:#da3;fill-opacity:.5;stroke:#048" transform="translate(80.89 124.546)scale(.99995)"/><g fill="#17365c" stroke-width="0" data-mml-node="mtr"><g data-mml-node="mtd" transform="translate(-13.951 -116.7)"><g data-mml-node="msub"><g data-mjx-texclass="ORD" data-mml-node="TeXAtom"><use xlink:href="#c" data-c="1D409" data-mml-node="mi" style="fill:#048;stroke:none" transform="matrix(.0181 0 0 -.0181 66.611 248.239)"/></g><use xlink:href="#f" data-c="1D44E" data-mml-node="mi" style="fill:#048;stroke:none" transform="matrix(.0128 0 0 -.0128 77.96 250.954)"/></g><use xlink:href="#g" data-c="3D" data-mml-node="mo" style="fill:#048;stroke:none" transform="matrix(.0181 0 0 -.0181 90.661 248.239)"/><g data-mjx-texclass="ORD" data-mml-node="TeXAtom"><use xlink:href="#c" data-c="1D409" data-mml-node="mi" style="fill:#048;stroke:none" transform="matrix(.0181 0 0 -.0181 109.77 248.239)"/></g></g></g><g transform="translate(-13.951 -64.7)"><path fill="#98df8a" stroke="#17365c" stroke-miterlimit="10" d="M-19.038-14.547h38.076v29.094h-38.076Z" style="fill:#47a;fill-opacity:.5;stroke:#048" transform="translate(35.488 135.664)scale(.99995)"/><use xlink:href="#i" fill="#17365c" stroke-width="0" data-c="1D40B" data-mml-node="mi" style="fill:#048;stroke:none" transform="matrix(.0181 0 0 -.0181 28.78 141.873)"/><path fill="#98df8a" stroke="#17365c" stroke-miterlimit="10" d="M-19.038-14.547h38.076v29.094h-38.076Z" style="fill:#47a;fill-opacity:.5;stroke:#048" transform="translate(154.734 135.664)scale(.99995)"/><use xlink:href="#k" fill="#17365c" stroke-width="0" data-c="1D412" data-mml-node="mi" style="fill:#048;stroke:none" transform="matrix(.0181 0 0 -.0181 148.969 141.873)"/></g><metadata><rdf:RDF><cc:Work><dc:creator><cc:Agent><dc:title>Remco de Boer</dc:title></cc:Agent></dc:creator><cc:license rdf:resource="http://creativecommons.org/licenses/by/4.0/"/></cc:Work><cc:License rdf:about="http://creativecommons.org/licenses/by/4.0/"><cc:permits rdf:resource="http://creativecommons.org/ns#Reproduction"/><cc:permits rdf:resource="http://creativecommons.org/ns#Distribution"/><cc:requires rdf:resource="http://creativecommons.org/ns#Notice"/><cc:requires rdf:resource="http://creativecommons.org/ns#Attribution"/><cc:permits rdf:resource="http://creativecommons.org/ns#DerivativeWorks"/></cc:License></rdf:RDF></metadata></svg>