<svg xmlns="http://www.w3.org/2000/svg" xmlns:cc="http://creativecommons.org/ns#" xmlns:dc="http://purl.org/dc/elements/1.1/" xmlns:inkscape="http://www.inkscape.org/namespaces/inkscape" xmlns:rdf="http://www.w3.org/1999/02/22-rdf-syntax-ns#" xmlns:sodipodi="http://sodipodi.sourceforge.net/DTD/sodipodi-0.dtd" xmlns:xlink="http://www.w3.org/1999/xlink" inkscape:version="1.4.2 (1:1.4.2+202505120737+ebf0e940d0)" sodipodi:docname="two-particle-state-helicity.svg" width="255.961" height="119.482" viewBox="0 0 67.723 31.613"><sodipodi:namedview inkscape:current-layer="svg23" inkscape:cx="127.836" inkscape:cy="59.657" inkscape:deskcolor="#d1d1d1" inkscape:pagecheckerboard="0" inkscape:pageopacity="0" inkscape:showpageshadow="2" inkscape:window-height="1371" inkscape:window-maximized="1" inkscape:window-width="2560" inkscape:window-x="0" inkscape:window-y="32" inkscape:zoom="3.461" bordercolor="#000000" borderopacity=".25" pagecolor="#ffffff"/><defs><marker id="f" markerHeight="1" markerWidth="1" orient="auto-start-reverse" overflow="visible" preserveAspectRatio="xMidYMid" viewBox="0 0 1 1"><path fill="none" stroke="context-stroke" d="m-2.75 3 3-3-3-3"/></marker><marker id="a" markerHeight="1" markerWidth="1" orient="auto-start-reverse" overflow="visible" preserveAspectRatio="xMidYMid" viewBox="0 0 1 1"><path fill="context-stroke" fill-rule="evenodd" d="M-1.4-2.8 6.3 0l-7.7 2.8C0 1.169 0-1.162-1.4-2.8"/></marker><marker id="b" markerHeight="1" markerWidth="1" orient="auto-start-reverse" overflow="visible" preserveAspectRatio="xMidYMid" viewBox="0 0 1 1"><path fill="context-stroke" fill-rule="evenodd" d="m0 0-2.5 2.5L6.25 0-2.5-2.5z"/></marker><marker id="c" markerHeight="1" markerWidth="1" orient="auto-start-reverse" overflow="visible" preserveAspectRatio="xMidYMid" viewBox="0 0 1 1"><path fill="none" stroke="context-stroke" d="m-2.75 3 3-3-3-3"/></marker><marker id="g" markerHeight="1" markerWidth="1" orient="auto-start-reverse" overflow="visible" preserveAspectRatio="xMidYMid" viewBox="0 0 1 1"><path fill="none" stroke="context-stroke" d="m-2.75 3 3-3-3-3"/></marker><marker id="d" markerHeight="1" markerWidth="1" orient="auto-start-reverse" overflow="visible" preserveAspectRatio="xMidYMid" viewBox="0 0 1 1"><path fill="none" stroke="context-stroke" d="m-2.75 3 3-3-3-3"/></marker><path id="e" d="M23 287q1 3 2 8t5 22 10 31 15 33 20 30 26 22 33 9q75 0 96-64l10 9q62 55 118 55 65 0 102-47t37-114q0-108-76-199T249-10q-22 0-39 6-11 5-23 15t-19 17l-7 8q-1-1-22-87t-21-87q0-6 8-7t37-3h25q6-7 6-9t-3-18q-3-12-6-15t-13-4h-11q-9 0-34 1t-62 1q-70 0-89-2h-8q-7 7-7 11 2 27 13 35h20q34 1 39 12 3 6 61 239t61 247q1 5 1 14 0 41-25 41-22 0-37-28t-23-61-12-36q-2-2-16-2H29q-6 6-6 9m155-185q22-76 74-76 30 0 58 23t46 58q18 34 36 108t19 110v6q0 74-61 74-11 0-22-3t-22-9-20-13-17-15-15-15-11-14-8-10l-3-4q0-1-3-14t-11-44-14-52q-26-106-26-110"/></defs><g transform="scale(.36)"><path fill="none" stroke="#000" stroke-linecap="round" stroke-width="2" marker-end="url(#a)" marker-start="url(#b)" d="m24.955 82.06 127.5-59.614"/><circle cx="88.749" cy="52.232" r="3.236"/><path fill="none" stroke="#db7a05" stroke-linecap="round" stroke-width="1.5" marker-end="url(#c)" marker-mid="url(#c)" d="m13.764 87.064 20.879-9.534"/><path d="M41.295 79.878q-.827 0-1.382.546-.555.544-.556 1.289 0 .271.169.46.167.188.45.188.303-.01.47-.188a.62.62 0 0 0 .169-.44q0-.335-.2-.482-.199-.147-.387-.147-.052 0-.052-.01 0-.031.105-.199c.105-.168.192-.227.366-.346a1.04 1.04 0 0 1 .607-.178q.66 0 1.017.482t.356 1.142q0 .2-.031.346-.032.147-.074.315a1.3 1.3 0 0 1-.136.335 5 5 0 0 0-.157.304q-.062.136-.221.334a10 10 0 0 0-.24.315q-.084.115-.293.356l-.304.346q-.094.106-.356.388t-.357.388q-.22.25-.523.585-.252.284-.314.368a.26.26 0 0 0-.064.157v.325h3.888v-.033q.031-.04.157-.962t.136-.954v-.032h-.419v.032q-.179.911-.252.932-.104.052-1.75.052l-.796-.01.618-.587a30 30 0 0 1 1.048-.963q.544-.472.838-.777.293-.303.503-.712.21-.408.21-.858-.01-.933-.65-1.52-.639-.587-1.593-.587"/><path fill="#db7a05" d="M20.168 59.665q-.26.138-.26.323 0 .244.26.244.476 0 .782.69l.827 2.297q.766 2.131.766 2.147l-.26.245q-.276.275-.843.827l-1.025.995q-1.901 1.839-2.116 2.07a.7.7 0 0 0-.215.49q0 .49.553.49a.72.72 0 0 0 .428-.169q.184-.153.966-1.071.566-.66.95-1.105.351-.413.872-1.01.523-.599.721-.844l.215-.23.69 1.917q.675 1.822.78 2.052.109.23.492.445h1.042a.5.5 0 0 0 .09-.139q.017-.046-.015-.061a.2.2 0 0 1-.061-.061 2 2 0 0 1-.078-.138q-.047-.091-.138-.29a6 6 0 0 1-.198-.507q-.001-.06-.767-2.145t-1.547-4.275-.873-2.421q-.368-.72-1.748-.766zm9.18 5.717q-.855 0-1.428.564-.574.563-.574 1.332-.001.282.172.478.173.195.466.195.314-.01.488-.195a.64.64 0 0 0 .174-.457q0-.345-.207-.498a.68.68 0 0 0-.4-.152q-.055.001-.055-.01 0-.032.11-.206.107-.174.378-.358.27-.183.628-.183.682 0 1.05.498.37.498.37 1.18-.001.207-.034.358t-.076.326a1.4 1.4 0 0 1-.14.347 4 4 0 0 0-.162.312q-.065.141-.228.348-.162.206-.248.326a7 7 0 0 1-.305.367 30 30 0 0 1-.681.759l-.369.4a48 48 0 0 1-.542.607q-.26.292-.325.379a.3.3 0 0 0-.064.164v.335h4.019v-.033q.032-.044.162-.997t.14-.986v-.031h-.433v.031q-.185.943-.26.964-.108.055-1.809.055l-.824-.012.64-.605q.694-.66 1.084-.997.563-.488.866-.802t.52-.736q.216-.423.216-.888-.01-.965-.671-1.572-.66-.606-1.647-.607M4.422 59.508a.7.7 0 0 0-.16.302q-.032.255-.032.302c0 .047.032.076.096.129h.398q1.478 0 1.478.19-.015.112-.955 3.897c-.94 3.785-.958 3.848-1 3.976q-.27.81-.843 1.32-.573.508-1.178.508-.78 0-1.193-.46-.111-.128-.111-.145c0-.017.042-.026.127-.048q.366-.095.652-.38c.286-.286.287-.456.287-.795q-.08-.7-.795-.7-.462 0-.827.35Q0 68.303 0 68.97q0 .795.637 1.272.636.477 1.558.478 1.177 0 2.194-.684 1.019-.683 1.368-1.685.015-.016 1.018-3.96.922-3.722.985-3.93.112-.222.94-.221.254-.016.301-.048c.047-.032.07-.117.112-.287q.048-.191.048-.223 0-.159-.223-.158-.063-.015-.223 0c-.16.015-.303.016-.589.016H7.014q-1.67 0-2.323-.033zm6.665 5.76q-.888 0-1.485.584-.595.585-.595 1.384 0 .293.18.494.18.203.484.203.325-.012.505-.203a.66.66 0 0 0 .18-.472q0-.36-.213-.517c-.213-.157-.282-.157-.417-.157q-.055 0-.055-.012 0-.034.112-.213c.112-.18.205-.244.393-.371s.405-.192.652-.192q.709 0 1.092.518.381.517.38 1.226 0 .213-.032.37-.034.157-.079.337c-.045.18-.078.24-.146.36q-.101.18-.17.326-.067.146-.235.36c-.168.213-.199.255-.259.337s-.164.21-.314.383-.259.296-.326.37q-.102.113-.383.416l-.383.417q-.236.27-.561.629-.27.304-.338.395a.3.3 0 0 0-.067.168v.348h4.171v-.034q.033-.044.168-1.034.136-.99.148-1.023v-.034h-.45v.034q-.192.979-.271 1.001-.112.056-1.876.055l-.855-.01.662-.63q.72-.687 1.125-1.035.585-.506.9-.831c.314-.325.39-.473.54-.766q.225-.439.225-.922-.012-1-.697-1.63-.686-.629-1.71-.628z"/><path d="M165.224 23.663q-.104 0-.125.032-.126.115-.294.231-.168.114-.586.251c-.419.136-.583.143-.911.157h-.2v.483h.2q.335-.021.607-.074a3 3 0 0 0 .42-.105l.135-.052v5.417q-.01-.01-.063.042-.052.052-.062.052c-.01 0-.035.007-.085.021a1 1 0 0 1-.167.03q-.095.01-.262.012h-.67v.481h.125q.221-.031 1.645-.031 1.446 0 1.666.031h.116v-.48h-.273q-.45-.001-.65-.023a1.3 1.3 0 0 1-.251-.041.4.4 0 0 1-.126-.094l-.01-3.144v-3.132a.3.3 0 0 0-.179-.064"/><path fill="#db7a05" d="M152.74 0q-.261.138-.261.323 0 .244.261.244.475 0 .78.69a944 944 0 0 1 1.595 4.444l-.262.245q-.274.275-.841.827l-1.027.995q-1.9 1.839-2.114 2.07a.7.7 0 0 0-.215.49q0 .49.55.49a.73.73 0 0 0 .43-.169q.185-.153.967-1.071l.949-1.105q.353-.413.873-1.01c.52-.598.588-.68.721-.844l.214-.23.69 1.917q.674 1.823.782 2.052.106.23.49.445h1.041a.5.5 0 0 0 .093-.139q.014-.046-.016-.061a.2.2 0 0 1-.062-.061 2 2 0 0 1-.076-.138q-.047-.091-.137-.29a6 6 0 0 1-.2-.507q0-.06-.766-2.145t-1.548-4.275q-.78-2.19-.873-2.421-.367-.72-1.747-.766zm9.721 5.717q-.107 0-.129.034-.13.118-.304.238-.172.119-.605.26a3.5 3.5 0 0 1-.943.161h-.207v.5h.207q.346-.022.629-.076.281-.054.433-.11l.14-.052v5.6q-.01-.01-.064.043-.055.054-.066.054a1 1 0 0 0-.087.022q-.075.022-.173.033-.098.01-.272.01h-.693v.5h.13q.228-.034 1.7-.034 1.497 0 1.724.033h.12v-.5h-.284a7 7 0 0 1-.671-.02 1.3 1.3 0 0 1-.26-.044.4.4 0 0 1-.13-.097l-.01-3.25v-3.24a.3.3 0 0 0-.186-.064zM137.52 0a.7.7 0 0 0-.154.295q-.031.248-.032.295c0 .047.032.074.094.125h.387q1.443 0 1.444.186-.015.11-.932 3.802-.915 3.693-.978 3.88-.264.791-.822 1.288c-.558.497-.754.495-1.148.495q-.76.001-1.164-.448-.109-.124-.109-.141c0-.017.042-.026.124-.047q.357-.093.637-.372c.28-.279.28-.444.28-.775q-.079-.684-.778-.684-.449 0-.805.342c-.356.342-.357.559-.357.993q0 .776.62 1.241c.62.465.92.466 1.52.466q1.149 0 2.143-.667t1.333-1.644q.016-.015.993-3.865.9-3.631.964-3.834.108-.216.914-.216.249-.015.295-.047.046-.03.109-.28.046-.185.047-.217 0-.155-.218-.154-.062-.015-.216 0a6 6 0 0 1-.575.015h-1.087A54 54 0 0 1 137.785 0zm7.053 5.621q-.11 0-.132.032-.132.12-.307.241c-.175.121-.322.168-.614.263s-.611.151-.955.166h-.208v.504h.208q.35-.021.637-.077.285-.054.438-.109l.143-.055v5.671q-.011-.01-.066.046-.054.053-.065.053a1 1 0 0 0-.089.022 1 1 0 0 1-.174.034 3 3 0 0 1-.275.011h-.701v.505h.13q.231-.034 1.724-.034 1.514 0 1.743.034h.121v-.505h-.285q-.47 0-.68-.021a1.3 1.3 0 0 1-.264-.046.4.4 0 0 1-.131-.098l-.012-3.292v-3.28a.3.3 0 0 0-.186-.065M96.359 31.587q-.261.138-.261.323 0 .244.261.244.475 0 .78.69a944 944 0 0 1 1.595 4.444l-.262.245q-.274.275-.841.827l-1.027.995q-1.9 1.839-2.114 2.07a.7.7 0 0 0-.215.49q0 .49.55.49a.73.73 0 0 0 .43-.169q.185-.153.967-1.071l.949-1.105q.352-.414.873-1.01c.521-.597.588-.68.721-.844l.214-.23.69 1.917q.674 1.823.782 2.052.105.23.49.445h1.041a.5.5 0 0 0 .093-.139q.014-.046-.016-.061a.2.2 0 0 1-.062-.061 2 2 0 0 1-.076-.138q-.047-.092-.137-.29a6 6 0 0 1-.2-.507q0-.06-.766-2.145t-1.548-4.275q-.78-2.19-.873-2.421-.367-.72-1.747-.766z"/><path fill="none" stroke="#0369ad" stroke-linecap="round" stroke-width="1.5" marker-end="url(#d)" marker-mid="url(#d)" d="m88.704 52.253.437-26.815"/><path fill="#0369ad" d="M93.152 11.96a1 1 0 0 0-.17.014q-.102.015-.116 0t-.071.03q-.057.041-.057.027t-.028.043a.3.3 0 0 0-.03.072q0 .014-.013.071-.015.058-.03.1a2 2 0 0 0-.027.157q0 .129.1.142.1.015.442.015.813.03.813.114-.015.185-.942 3.923-.928 3.738-.984 3.824-.271.57-1.27.571-.285.001-.314.086a1 1 0 0 0-.072.214 1.4 1.4 0 0 0-.042.2q0 .1.057.129c.057.029.129.027.271.027q.072 0 .527-.014a28 28 0 0 1 1.799 0q.342.015.485.014h.171a.7.7 0 0 0 .157-.014q.057-.029.114-.257.057-.2.043-.257t-.1-.128h-.143q-.942 0-1.027-.471 0-.129.956-3.924l.97-3.852.556 4.38q.557 4.366.585 4.423.043.1.258.1a.46.46 0 0 0 .228-.043l.056-.028q.072-.07 2.87-4.523l2.767-4.409-.499 2.012q-.499 2.01-1.013 4.038c-.514 2.028-.523 2.045-.542 2.083q-.072.129-.272.171-.47.043-.856.043-.27.015-.328.043c-.058.028-.076.105-.114.258q-.029.171-.029.198 0 .143.243.144.056-.014.5-.014h1.311q.8 0 1.314.014.513.013.584.013.157 0 .23-.07a.94.94 0 0 0 .1-.429.5.5 0 0 0-.087-.157h-.442a2.3 2.3 0 0 0-.471-.027.46.46 0 0 1-.342-.087q-.016-.014-.016-.07.015-.044 1-4.01c.985-3.967.999-3.991 1.027-4.039a.4.4 0 0 1 .257-.157q.157-.028.727-.041.471 0 .528-.087 0-.014.044-.184.043-.172.043-.244 0-.156-.485-.157a4 4 0 0 1-.415.014h-1.94l-.086.03a.2.2 0 0 0-.057.042l-.042.042q-.028.029-2.526 4.01-.685 1.084-1.256 1.998-.57.912-.914 1.426l-.328.528-.512-3.981a454 454 0 0 0-.529-4.023q-.056-.071-.228-.072h-1.298q-.3-.014-.642-.014zm13.825 7.45q-.959.01-1.725.93-.766.917-.767 1.937 0 .876.424 1.28c.424.404.61.403.98.403q.615 0 1.21-.564l.04-.041q.03-.02.04-.01l.06.152q.071.16.303.312c.232.152.346.151.575.151q.161 0 .241-.02a1 1 0 0 0 .324-.21q.171-.173.323-.506c.152-.333.168-.402.202-.544q.05-.211.05-.272 0-.09-.192-.091h-.04a.3.3 0 0 0-.101.009q-.04.01-.1.213-.202.766-.415.968a.44.44 0 0 1-.201.091q-.141-.01-.211-.09-.07-.082-.071-.333.01-.192.383-1.676c.373-1.484.373-1.526.373-1.614a.25.25 0 0 0-.102-.202.36.36 0 0 0-.23-.08q-.303 0-.464.302-.394-.494-.909-.494zm-.03.364q.282.01.464.202c.182.192.198.245.231.353a1 1 0 0 1 .051.221q-.01.082-.262 1.122-.252 1.037-.272 1.078-.07.18-.444.514c-.374.334-.502.334-.758.334a.65.65 0 0 1-.432-.182q-.182-.17-.182-.625a.5.5 0 0 0 .009-.122v-.11q.121-.858.414-1.654.181-.506.504-.818.322-.313.676-.313zm-29.15-7.8a.65.65 0 0 0-.143.271q-.029.229-.028.271c.001.042.028.068.085.116h.357q1.328 0 1.328.17-.015.101-.857 3.496-.84 3.396-.9 3.567-.241.728-.755 1.184-.514.457-1.057.456-.7 0-1.07-.412a.6.6 0 0 1-.099-.13q0-.015.114-.043.329-.085.586-.342c.257-.257.255-.408.255-.713q-.07-.628-.713-.628-.414 0-.742.314c-.328.314-.328.514-.328.913q0 .714.571 1.141.57.429 1.399.429 1.055 0 1.968-.613c.913-.613 1.018-.913 1.227-1.513q.015-.015.913-3.553.829-3.338.886-3.525.1-.199.84-.198.229-.015.272-.044c.043-.029.062-.105.1-.257q.043-.17.043-.2 0-.142-.2-.142a.7.7 0 0 0-.2 0q-.142.014-.527.014h-1q-1.498 0-2.083-.029zm6.434 7.437q-.958.01-1.724.929-.768.918-.767 1.937 0 .876.423 1.28c.423.404.61.403.98.403q.615 0 1.21-.563l.04-.042q.03-.02.04-.01l.06.152q.071.16.304.312c.233.152.345.151.574.151q.161 0 .242-.02a1 1 0 0 0 .323-.21q.172-.173.324-.506.15-.332.201-.544.05-.211.05-.272 0-.09-.191-.091h-.04a.3.3 0 0 0-.102.01q-.04.01-.1.212-.203.766-.414.968a.44.44 0 0 1-.202.091q-.14-.01-.211-.09c-.071-.08-.07-.165-.07-.333q.01-.192.383-1.676.372-1.482.372-1.614 0-.12-.101-.202c-.101-.082-.144-.08-.231-.08q-.303 0-.466.302-.393-.495-.907-.494m-.03.363q.283.01.465.202c.182.192.197.245.23.353s.051.181.051.222a30 30 0 0 1-.261 1.12q-.254 1.039-.273 1.079-.07.18-.444.514-.373.334-.757.334a.65.65 0 0 1-.433-.181q-.182-.172-.182-.626a.6.6 0 0 0 .01-.121v-.111q.12-.858.414-1.654.18-.505.503-.818c.323-.313.441-.313.676-.313"/><path d="M93.758 56.69q-1.518.016-2.732 1.47-1.213 1.453-1.213 3.066v.002q0 1.389.67 2.027t1.55.639q.974 0 1.916-.895l.063-.063c.033-.024.054-.026.064-.017l.097.24q.112.255.479.494.367.24.91.24.255 0 .383-.034.302-.127.51-.334.272-.273.512-.8.238-.526.318-.861.08-.336.081-.431 0-.144-.303-.145h-.065q-.128 0-.159.017-.065.015-.16.336-.32 1.213-.655 1.532-.175.127-.319.143-.224-.016-.336-.143-.111-.127-.11-.527.016-.303.607-2.65.59-2.347.588-2.555.001-.192-.158-.319c-.16-.127-.228-.13-.367-.13q-.48 0-.734.48-.623-.782-1.437-.782m-.048.576q.446.015.734.319.287.304.367.56.08.255.08.35-.015.127-.415 1.773t-.432 1.708q-.112.288-.702.815t-1.198.526q-.399-.015-.685-.286c-.286-.272-.288-.512-.288-.991q.016-.063.016-.192v-.175a12.7 12.7 0 0 1 .654-2.619q.288-.798.799-1.293.51-.496 1.07-.495"/><path fill="#237f23" d="M65.48 39.022a1 1 0 0 0-.227.016q-.166.135-.166.498 0 .09.015.12.03.062.546.062l-.002-.001q.862.03.862.135 0 .228-1.043 4.373-1.044 4.147-1.09 4.207-.075.135-.287.181a10 10 0 0 1-.908.046h-.09a1 1 0 0 0-.226.016q-.077.03-.152.318a.7.7 0 0 0-.032.213q0 .15 1.27.15h2.693q.892.015 1.876.016h1.15q.439.013.65-.016.21-.03.243-.046.03-.015.06-.09.03-.166.394-1.12.362-.953.665-1.816.302-.86.302-.891a.5.5 0 0 0-.09-.167h-.198a.5.5 0 0 0-.256.046q-.046.075-.258.635a9 9 0 0 1-.452 1.014q-.273.5-.637.831a4.3 4.3 0 0 1-.664.515 2.4 2.4 0 0 1-.757.272q-.454.09-.74.106-.288.016-.773.016H66.9a31 31 0 0 0-.893-.031q-.136 0-.137-.06l.137-.544q.136-.562.409-1.666l.514-2.087q.908-3.63 1.014-3.994.105-.363.21-.423.183-.121 1.227-.137h.575q.06-.06.135-.287.033-.228.033-.273-.001-.046-.091-.136h-.182q-.317.047-2.45.046a36 36 0 0 1-1.923-.046zm18.082-.322a.2.2 0 0 1-.075.016h-.06q-.09.09-.303.333-.21.24-.393.438-.18.196-.198.197-.65-.968-2.103-.968h-.271q-.348.015-.968.241a3.4 3.4 0 0 0-1.06.606q-.499.378-.983 1.134a3.06 3.06 0 0 0-.485 1.68q0 1.196.908 1.83.18.152.635.302.455.152 2.059.56.787.364.786 1.317-.015 1.044-.757 1.83-.74.786-1.632.787-.424 0-.802-.075a3.3 3.3 0 0 1-.787-.273 1.5 1.5 0 0 1-.65-.604q-.24-.408-.273-1a2 2 0 0 1 .032-.499q.044-.211.06-.317.015-.105.016-.137-.001-.076-.092-.166h-.195q-.271 0-.304.09-.877 3.51-.877 3.556 0 .12.196.12.121.002.197-.06.076-.06.423-.468l.425-.47.15.167q.833.832 2.33.832.333 0 .515-.032.771-.15 1.422-.575.651-.423 1-.908.347-.483.543-.891a3.6 3.6 0 0 0 .273-.742q.12-.453.12-.847 0-.953-.483-1.514-.484-.559-.999-.725-.014-.015-1.014-.273-.998-.255-1.058-.287a1.2 1.2 0 0 1-.62-.47 1.36 1.36 0 0 1-.227-.786q.013-.908.756-1.603.74-.697 1.603-.697.696 0 1.241.318.243.197.379.379.135.18.271.558t.137.894q-.013.15-.031.393-.016.242-.016.287a.7.7 0 0 0-.016.152q0 .136.304.136.18.014.241-.046.06-.06.484-1.785.423-1.725.424-1.83 0-.105-.197-.106z"/><path fill="#c83737" d="M126.041 37.33a.21.21 0 0 0-.184.092h.001q0 .028-.471 1.84l-.457 1.857q-.014.06-.092.061-.591 0-1.338.289a7.3 7.3 0 0 0-1.476.79c-.73.502-.898.771-1.233 1.31a3.2 3.2 0 0 0-.502 1.719q-.03.715.29 1.248.318.533.684.806c.366.272.517.334.822.456s.533.193.684.214q.228.03.305.03.12 0 .122.016l-.35 1.4q-.335 1.37-.335 1.445 0 .108.304.106h.092q.137-.015.182-.106.045-.09.167-.578.107-.487.199-.837l.364-1.446h.061q.67-.015 1.446-.32a6.4 6.4 0 0 0 1.475-.82 4.4 4.4 0 0 0 1.173-1.31 3.2 3.2 0 0 0 .472-1.658q0-.868-.442-1.476a2.9 2.9 0 0 0-1.11-.928 4.6 4.6 0 0 0-.73-.26 2.3 2.3 0 0 0-.489-.091q-.138 0-.136-.014l.06-.244q.076-.228.183-.7.106-.471.213-.897.457-1.766.457-1.872 0-.032-.092-.122h-.197zm-1.278 4.412-1.415 5.738h-.107a3.3 3.3 0 0 1-.517-.122c-.23-.076-.334-.143-.548-.274a1.35 1.35 0 0 1-.502-.578 2.1 2.1 0 0 1-.182-.898q0-.625.228-1.323.227-.594.502-1.021.259-.396.624-.7.364-.304.669-.441a6 6 0 0 1 .64-.244 4 4 0 0 1 .44-.122 1 1 0 0 1 .168-.015m.624 0h.046q.138 0 .365.061.228.063.593.23.366.166.61.576c.243.411.242.604.242.99q0 .304-.092.73c-.092.425-.156.61-.287.974a3.3 3.3 0 0 1-.67 1.066c-.471.517-.69.614-1.127.806q-.242.12-.61.213a2.5 2.5 0 0 1-.486.092q-.015 0-.015-.031l.73-2.86zm12.308-4.58q-.09.015-.183.015h-.122q-1.095.183-2.115 1.43c-1.02 1.248-1.216 1.822-1.612 2.967q-.594 1.72-.594 3.272 0 .548.092 1.065c.092.517.158.684.29 1.02q.195.503.592.806.396.305.944.305h.107q.972 0 2.039-1.157 1.064-1.156 1.749-2.967c.685-1.811.685-2.394.685-3.56q0-1.536-.593-2.45a1.61 1.61 0 0 0-1.279-.746m-.137.563q.806 0 .806 1.553.016.517-.122 1.247c-.138.73-.172.892-.241 1.217q-.048.255-.123.502l-1.476.016q-.731 0-1.476-.016.015-.105.198-.76c.183-.655.294-.944.517-1.522a6.3 6.3 0 0 1 .852-1.552c.518-.685.7-.685 1.065-.685m-2.815 5.235h2.967l-.076.258a21 21 0 0 1-.73 2.223q-.365.897-.73 1.322c-.366.426-.452.478-.624.579s-.334.152-.487.152q-.805 0-.805-1.613 0-.501.106-1.157c.105-.655.151-.831.242-1.186q.081-.285.138-.578"/><path fill="none" stroke="#c83737" stroke-linecap="round" stroke-width=".9" d="M163.87 17.109 88.706 52.253"/><use xlink:href="#e" fill="#c83737" stroke-width="0" data-c="1D45D" transform="matrix(.01664 0 0 -.01664 118.975 29.7)"/><g fill="none"><path stroke="#c83737" stroke-dasharray="1, 1" d="m163.869 52.232-75.163.021"/><path stroke="#c83737" d="M139.95 28.516a56.5 56.5 0 0 1 5.23 23.72"/><path stroke="#db7a05" stroke-linecap="round" stroke-width="1.5" marker-end="url(#f)" marker-mid="url(#f)" d="m88.704 52.253 10.297-4.814"/><path stroke="#db7a05" stroke-linecap="round" stroke-width="1.5" marker-end="url(#g)" marker-mid="url(#g)" d="m163.87 17.109 22.95-10.764"/></g></g><metadata><rdf:RDF><cc:Work><dc:creator><cc:Agent><dc:title>Remco de Boer</dc:title></cc:Agent></dc:creator><cc:license rdf:resource="http://creativecommons.org/licenses/by/4.0/"/></cc:Work><cc:License rdf:about="http://creativecommons.org/licenses/by/4.0/"><cc:permits rdf:resource="http://creativecommons.org/ns#Reproduction"/><cc:permits rdf:resource="http://creativecommons.org/ns#Distribution"/><cc:requires rdf:resource="http://creativecommons.org/ns#Notice"/><cc:requires rdf:resource="http://creativecommons.org/ns#Attribution"/><cc:permits rdf:resource="http://creativecommons.org/ns#DerivativeWorks"/></cc:License></rdf:RDF></metadata></svg>