<svg xmlns="http://www.w3.org/2000/svg" xmlns:cc="http://creativecommons.org/ns#" xmlns:dc="http://purl.org/dc/elements/1.1/" xmlns:inkscape="http://www.inkscape.org/namespaces/inkscape" xmlns:rdf="http://www.w3.org/1999/02/22-rdf-syntax-ns#" xmlns:sodipodi="http://sodipodi.sourceforge.net/DTD/sodipodi-0.dtd" inkscape:version="1.4.2 (1:1.4.2+202505120737+ebf0e940d0)" sodipodi:docname="two-particle-state-canonical.svg" width="249.032" height="148.663" viewBox="0 0 65.89 39.334"><sodipodi:namedview inkscape:current-layer="svg22" inkscape:cx="124.375" inkscape:cy="74.344" inkscape:deskcolor="#d1d1d1" inkscape:pagecheckerboard="0" inkscape:pageopacity="0" inkscape:showpageshadow="2" inkscape:window-height="1371" inkscape:window-maximized="1" inkscape:window-width="2560" inkscape:window-x="0" inkscape:window-y="32" inkscape:zoom="3.558" bordercolor="#000000" borderopacity=".25" pagecolor="#ffffff"/><defs><marker id="c" markerHeight="1" markerWidth="1" orient="auto-start-reverse" overflow="visible" preserveAspectRatio="xMidYMid" viewBox="0 0 1 1"><path fill="none" stroke="context-stroke" d="m-2.75 3 3-3-3-3"/></marker><marker id="a" markerHeight="1" markerWidth="1" orient="auto-start-reverse" overflow="visible" preserveAspectRatio="xMidYMid" viewBox="0 0 1 1"><path fill="context-stroke" fill-rule="evenodd" d="M-1.4-2.8 6.3 0l-7.7 2.8C0 1.169 0-1.162-1.4-2.8"/></marker><marker id="b" markerHeight="1" markerWidth="1" orient="auto-start-reverse" overflow="visible" preserveAspectRatio="xMidYMid" viewBox="0 0 1 1"><path fill="context-stroke" fill-rule="evenodd" d="m0 0-2.5 2.5L6.25 0-2.5-2.5z"/></marker><marker id="e" markerHeight="1" markerWidth="1" orient="auto-start-reverse" overflow="visible" preserveAspectRatio="xMidYMid" viewBox="0 0 1 1"><path fill="none" stroke="context-stroke" d="m-2.75 3 3-3-3-3"/></marker><marker id="d" markerHeight="1" markerWidth="1" orient="auto-start-reverse" overflow="visible" preserveAspectRatio="xMidYMid" viewBox="0 0 1 1"><path fill="none" stroke="context-stroke" d="m-2.75 3 3-3-3-3"/></marker></defs><g transform="scale(.36)"><path fill="none" stroke="#000" stroke-linecap="round" stroke-width="2" marker-end="url(#a)" marker-start="url(#b)" d="m25.767 103.5 127.5-59.614"/><circle cx="89.561" cy="73.677" r="3.236"/><path d="M40.866 101.133q-.825 0-1.382.546c-.555.545-.556.793-.556 1.289q0 .27.17.46a.57.57 0 0 0 .449.188q.304-.01.471-.188a.62.62 0 0 0 .168-.44q0-.335-.2-.482a.66.66 0 0 0-.387-.147q-.052 0-.052-.01 0-.031.105-.2c.105-.167.192-.227.366-.345a1.04 1.04 0 0 1 .607-.178q.66 0 1.017.482t.356 1.142q0 .2-.031.346-.032.146-.074.315a1.3 1.3 0 0 1-.136.334q-.084.15-.156.305-.064.136-.221.334c-.157.198-.185.238-.24.314q-.14.185-.294.357-.21.24-.304.345-.095.106-.356.388c-.261.282-.294.319-.356.388q-.22.252-.524.586a8 8 0 0 0-.314.367.26.26 0 0 0-.064.158v.325h3.888v-.033q.031-.04.157-.962t.136-.954v-.031h-.419v.032q-.178.91-.252.932-.104.052-1.75.052l-.795-.01.617-.588q.513-.493 1.049-.963.544-.472.837-.776c.293-.304.364-.44.504-.712s.209-.559.209-.858q-.01-.933-.65-1.52-.638-.587-1.592-.587"/><path fill="#0369ad" d="M19.767 67.12a1 1 0 0 0-.16.013q-.092.013-.105 0t-.065.027q-.053.039-.053.025c0-.014-.01.005-.027.04a.2.2 0 0 0-.026.067q0 .014-.012.066l-.027.092a2 2 0 0 0-.028.145q0 .12.093.131.093.015.41.015.752.025.752.105-.015.17-.872 3.626-.856 3.456-.91 3.535-.25.527-1.174.528-.264 0-.29.08a.8.8 0 0 0-.066.197q-.04.158-.04.184 0 .093.053.12.053.025.25.025.067 0 .489-.013a26 26 0 0 1 1.663 0q.316.014.448.013h.158a.6.6 0 0 0 .145-.013q.053-.026.106-.237.052-.185.04-.238-.014-.052-.093-.118h-.132q-.87 0-.95-.436 0-.118.884-3.627l.897-3.56.514 4.048q.514 4.036.54 4.089.04.092.239.092a.4.4 0 0 0 .21-.04l.053-.025q.066-.066 2.65-4.181l2.56-4.076-.462 1.86q-.462 1.859-.936 3.732c-.474 1.873-.483 1.89-.5 1.926q-.067.118-.251.158-.435.04-.792.04-.25.013-.303.04-.053.026-.107.237a2 2 0 0 0-.025.184q0 .132.223.132.053-.013.463-.013h1.213q.738 0 1.213.013.475.014.54.013.145 0 .211-.065a.9.9 0 0 0 .093-.396.5.5 0 0 0-.079-.145h-.408q-.29-.04-.436-.026c-.146.014-.172 0-.225-.027a.5.5 0 0 1-.092-.053q-.013-.012-.013-.065.014-.04.924-3.707c.91-3.667.923-3.689.95-3.733a.38.38 0 0 1 .237-.145q.145-.026.672-.038.435 0 .488-.08 0-.013.04-.171c.04-.158.039-.18.039-.225q0-.145-.449-.145-.079.013-.381.013h-1.794l-.08.027a.2.2 0 0 0-.052.04l-.04.038q-.027.027-2.335 3.707-.632 1.002-1.16 1.846a56 56 0 0 1-.844 1.319l-.304.488-.474-3.68q-.475-3.666-.488-3.718-.053-.066-.212-.067h-1.2a13 13 0 0 0-.594-.013zm12.36 4.79q-.737 0-1.231.484c-.494.484-.494.706-.494 1.148q0 .242.15.41a.51.51 0 0 0 .4.168q.27-.01.42-.168c.15-.158.149-.236.149-.392q0-.298-.177-.428c-.177-.13-.234-.131-.346-.131q-.046 0-.045-.01 0-.028.092-.177.093-.15.326-.307c.233-.157.336-.16.541-.16q.588 0 .905.43c.317.43.316.625.316 1.017q0 .177-.027.307c-.027.13-.04.18-.065.28q-.037.149-.121.298-.083.15-.14.27c-.057.12-.103.18-.196.298q-.14.178-.215.28a5 5 0 0 1-.26.318l-.271.307q-.084.094-.317.345-.233.252-.316.346-.197.224-.467.521-.224.253-.28.327c-.055.074-.056.096-.056.14v.289h3.459v-.029q.029-.036.14-.857c.112-.82.116-.83.122-.848v-.029h-.373v.029q-.159.81-.224.83-.093.046-1.557.045l-.709-.008.55-.522q.596-.57.932-.859.485-.42.746-.689.261-.27.448-.635c.187-.365.187-.497.187-.764q-.01-.831-.578-1.353-.57-.521-1.418-.52m-28.46-4.778a.6.6 0 0 0-.132.25q-.027.212-.027.251c0 .04.027.063.08.107h.33q1.225 0 1.225.158-.012.092-.791 3.231c-.78 3.14-.795 3.192-.83 3.297q-.225.674-.7 1.095-.474.421-.976.421-.645 0-.99-.381a.6.6 0 0 1-.092-.12q0-.013.106-.04.303-.078.54-.316.238-.237.238-.659-.065-.58-.659-.58a.97.97 0 0 0-.686.29Q0 74.427 0 74.98q0 .66.528 1.055.528.396 1.293.396.975 0 1.819-.567t1.135-1.398q.013-.013.844-3.284.765-3.087.817-3.259.092-.184.779-.183.21-.014.25-.04t.093-.238q.04-.158.04-.185 0-.131-.186-.13a.6.6 0 0 0-.185 0q-.131.012-.488.012h-.922q-1.386 0-1.926-.027zm5.528 4.778q-.737-.001-1.231.484c-.494.485-.494.706-.494 1.147q0 .243.149.41a.51.51 0 0 0 .401.168.57.57 0 0 0 .419-.168.55.55 0 0 0 .15-.392q0-.298-.177-.428c-.177-.13-.234-.131-.346-.131q-.046 0-.046-.01 0-.028.093-.177.092-.148.326-.307c.234-.16.336-.16.54-.16q.59 0 .906.43.317.429.316 1.017 0 .177-.027.307c-.027.13-.04.18-.065.28q-.037.149-.121.298-.085.15-.141.27c-.056.12-.102.18-.195.298a10 10 0 0 0-.215.28q-.075.104-.26.318-.187.215-.271.308l-.318.344-.317.346q-.195.224-.466.521a7 7 0 0 0-.28.328.24.24 0 0 0-.055.14v.288h3.459v-.028q.027-.037.14-.857c.112-.82.116-.83.122-.849v-.028h-.373v.028q-.16.812-.225.83-.093.046-1.556.046l-.71-.009.55-.522q.598-.57.933-.859.485-.419.746-.689t.448-.635q.187-.363.187-.764-.01-.83-.578-1.353-.57-.521-1.418-.52"/><path d="M164.762 44.45q-.105 0-.125.032a3 3 0 0 1-.294.23q-.168.116-.586.252a2.7 2.7 0 0 1-.912.157h-.199v.482h.2q.335-.02.606-.073a3 3 0 0 0 .42-.105l.136-.052v5.417q-.01-.01-.064.041-.052.052-.061.052c-.01 0-.035.008-.085.022a1 1 0 0 1-.168.03q-.094.01-.26.011h-.672v.482h.126q.22-.031 1.645-.031 1.446 0 1.666.03h.115v-.48h-.272q-.45 0-.65-.022a1.3 1.3 0 0 1-.251-.042.4.4 0 0 1-.126-.093l-.01-3.144v-3.133a.3.3 0 0 0-.179-.063"/><path fill="#0369ad" d="M169.43.002q-.063 0-.152.012t-.101 0-.064.026q-.051.037-.051.025 0-.013-.025.038a.2.2 0 0 0-.026.064 1 1 0 0 1-.037.152 2 2 0 0 0-.025.14q0 .113.088.125.09.014.393.014.722.025.722.101-.012.164-.836 3.485c-.824 3.32-.841 3.346-.875 3.396q-.24.507-1.127.508-.254 0-.28.076a.8.8 0 0 0-.062.19q-.038.152-.038.177 0 .09.05.115c.05.025.114.025.24.025q.065 0 .47-.013a25 25 0 0 1 1.597 0q.304.013.43.013h.152q.09 0 .14-.013.05-.025.101-.228.051-.178.038-.229-.012-.05-.089-.113h-.125q-.837 0-.913-.419 0-.114.848-3.485l.862-3.422.495 3.89q.495 3.879.52 3.93.038.088.227.088a.4.4 0 0 0 .204-.038l.05-.024q.064-.064 2.548-4.018l2.458-3.917-.443 1.787q-.444 1.787-.9 3.587c-.456 1.8-.465 1.817-.482 1.85q-.063.115-.24.152a9 9 0 0 1-.761.039q-.24.012-.292.038-.05.025-.1.229-.027.151-.027.176 0 .127.216.127.051-.012.444-.012h1.166q.71 0 1.166.012.457.013.52.013.14 0 .202-.063a.84.84 0 0 0 .09-.38.5.5 0 0 0-.077-.14h-.393a2 2 0 0 0-.419-.025.4.4 0 0 1-.303-.076q-.013-.014-.013-.063.012-.04.887-3.563.875-3.522.912-3.586a.36.36 0 0 1 .229-.14q.14-.024.647-.037.418 0 .468-.076 0-.013.038-.165a.8.8 0 0 0 .038-.216q0-.14-.43-.14-.077.014-.369.013h-1.723l-.075.026a.2.2 0 0 0-.051.038l-.038.037q-.025.026-2.244 3.562-.608.964-1.115 1.775t-.811 1.266l-.291.47-.457-3.537q-.456-3.522-.47-3.573-.05-.063-.202-.064h-1.153a12 12 0 0 0-.57-.012zm12.325 4.603q-.09 0-.107.026a2 2 0 0 1-.251.197q-.144.099-.502.215a3 3 0 0 1-.78.135h-.17v.412h.17q.286-.018.52-.063c.234-.045.274-.06.358-.089l.116-.045v4.632q-.008-.009-.053.037-.044.045-.053.044l-.073.017a1 1 0 0 1-.142.028 2 2 0 0 1-.224.01h-.574v.411h.107q.189-.027 1.408-.027 1.236 0 1.424.027h.098v-.412h-.232q-.385 0-.556-.018a1 1 0 0 1-.214-.036.4.4 0 0 1-.108-.081l-.01-2.688V4.658a.25.25 0 0 0-.152-.053M154.7 0a.6.6 0 0 0-.126.24q-.026.204-.026.242c0 .038.026.06.077.102h.316q1.179 0 1.179.152-.013.09-.76 3.105-.75 3.017-.8 3.168-.215.647-.671 1.052t-.937.405q-.621 0-.951-.366a.5.5 0 0 1-.089-.115q0-.014.101-.038.292-.076.52-.304c.228-.228.229-.363.229-.634q-.065-.557-.635-.558a.93.93 0 0 0-.658.28q-.291.278-.292.81 0 .634.507 1.014t1.242.38q.938.001 1.75-.544.81-.544 1.088-1.343.013-.013.811-3.156.736-2.966.787-3.131.09-.178.747-.177.202-.012.24-.038.039-.025.09-.229.038-.152.038-.177 0-.127-.178-.126a.6.6 0 0 0-.176 0 6 6 0 0 1-.47.012h-.887q-1.332-.001-1.85-.026zm5.76 4.59q-.09 0-.108.027a2 2 0 0 1-.25.197q-.144.099-.502.215a3 3 0 0 1-.78.135h-.17v.412h.17q.287-.018.52-.063c.233-.045.275-.06.359-.089l.116-.045v4.632q-.01-.009-.053.037-.045.045-.054.044l-.072.017a1 1 0 0 1-.143.028 2 2 0 0 1-.224.01h-.573v.411h.107q.188-.027 1.407-.027 1.237 0 1.424.027h.099v-.412h-.233q-.386 0-.555-.017a1 1 0 0 1-.216-.037.4.4 0 0 1-.107-.081l-.01-2.688V4.644a.25.25 0 0 0-.152-.053zM92.921 33.065a1 1 0 0 0-.17.014q-.102.015-.116 0t-.071.03q-.057.041-.057.027t-.028.043a.3.3 0 0 0-.03.072q0 .014-.013.071-.015.058-.03.1a2 2 0 0 0-.027.157q0 .129.1.142.1.015.442.015.813.03.813.114-.015.185-.942 3.923-.928 3.738-.984 3.824-.271.57-1.27.571-.285.001-.314.086-.029.043-.072.214c-.043.171-.042.18-.042.2q0 .1.057.128c.057.028.129.028.271.028q.072 0 .527-.014a28 28 0 0 1 1.799 0q.342.014.485.014h.171a.7.7 0 0 0 .157-.014q.057-.029.114-.257.057-.2.043-.257t-.1-.128h-.143q-.942 0-1.027-.471 0-.129.956-3.924l.97-3.852.556 4.38q.557 4.365.585 4.423.043.1.258.1a.46.46 0 0 0 .228-.043l.056-.028q.072-.07 2.87-4.523l2.767-4.409-.499 2.012q-.499 2.01-1.013 4.038c-.514 2.028-.523 2.045-.542 2.083q-.072.129-.272.171-.47.043-.856.043-.27.015-.328.043c-.058.028-.076.105-.114.258q-.029.171-.029.198 0 .143.243.144.056-.014.5-.014h1.311q.8 0 1.314.014.513.013.584.013.157 0 .23-.07a.94.94 0 0 0 .1-.429.5.5 0 0 0-.087-.157h-.442a2.3 2.3 0 0 0-.471-.027.46.46 0 0 1-.342-.087q-.016-.014-.016-.07.015-.044 1-4.01c.985-3.967.999-3.991 1.027-4.039a.4.4 0 0 1 .257-.157q.157-.028.727-.041.471 0 .528-.087 0-.014.044-.184.043-.172.043-.244 0-.156-.485-.157a4 4 0 0 1-.415.014h-1.94l-.086.03a.2.2 0 0 0-.057.042l-.042.042q-.028.029-2.526 4.01-.685 1.085-1.256 1.998-.57.912-.914 1.426l-.328.528-.512-3.981a454 454 0 0 0-.529-4.023q-.056-.071-.228-.072h-1.298q-.3-.014-.642-.014zm13.825 7.45q-.959.01-1.725.93-.766.917-.767 1.937 0 .876.424 1.28c.424.404.61.403.98.403q.615 0 1.21-.564l.04-.041q.03-.02.04-.01l.06.152q.071.16.303.312c.232.152.346.151.575.151q.161 0 .241-.02a1 1 0 0 0 .324-.211q.171-.172.323-.505c.152-.333.168-.402.202-.544q.05-.211.05-.272 0-.09-.192-.091h-.04a.3.3 0 0 0-.101.009q-.04.01-.1.213-.202.766-.415.968a.44.44 0 0 1-.201.091q-.141-.01-.211-.09-.07-.082-.071-.333.01-.192.383-1.676c.373-1.484.373-1.526.373-1.614a.25.25 0 0 0-.102-.202.36.36 0 0 0-.23-.08q-.303 0-.464.302-.394-.494-.909-.494zm-.03.364q.282.01.464.202c.182.192.198.245.231.353a1 1 0 0 1 .051.221q-.01.082-.262 1.122-.252 1.037-.272 1.078-.07.18-.444.514c-.374.334-.502.334-.758.334a.65.65 0 0 1-.432-.182q-.182-.17-.182-.625a.5.5 0 0 0 .009-.122v-.11q.121-.858.414-1.654.181-.506.504-.818.322-.313.676-.313zm-29.149-7.801a.65.65 0 0 0-.143.271q-.029.229-.028.271c.001.042.028.068.085.116h.357q1.328 0 1.328.17-.015.101-.857 3.496-.84 3.396-.9 3.567-.241.728-.755 1.184-.514.457-1.057.456-.7 0-1.07-.412a.6.6 0 0 1-.099-.13q0-.015.114-.043.329-.085.586-.342c.257-.257.255-.408.255-.713q-.07-.627-.713-.628-.414 0-.742.314c-.328.314-.328.514-.328.913q0 .714.571 1.141.57.429 1.399.429 1.055 0 1.968-.613c.913-.613 1.018-.913 1.227-1.513q.015-.015.913-3.553.828-3.338.886-3.525.1-.199.84-.198.229-.015.272-.044c.043-.029.062-.105.1-.257q.043-.17.043-.2 0-.142-.2-.142a.7.7 0 0 0-.2 0q-.142.014-.527.014h-1q-1.498 0-2.083-.029zm6.434 7.437q-.958.01-1.725.929-.766.918-.766 1.937 0 .876.423 1.28c.423.404.61.403.98.403q.615 0 1.21-.563l.04-.042q.03-.02.04-.01l.06.152q.071.16.304.312c.233.152.345.151.574.151q.162 0 .242-.02a1 1 0 0 0 .323-.21q.172-.173.324-.506.15-.332.201-.544.05-.211.05-.272 0-.09-.191-.091h-.04a.3.3 0 0 0-.102.01q-.04.01-.1.212-.203.766-.414.968a.44.44 0 0 1-.202.091q-.14-.01-.211-.09c-.071-.08-.07-.165-.07-.333q.01-.192.383-1.676.372-1.482.372-1.614 0-.12-.101-.202c-.101-.082-.144-.08-.231-.08q-.303 0-.466.302-.393-.495-.907-.494m-.03.363q.283.01.465.202c.182.192.197.245.23.353s.051.181.051.222a30 30 0 0 1-.261 1.12q-.254 1.039-.273 1.079-.07.18-.444.514-.373.334-.757.334a.65.65 0 0 1-.433-.181q-.182-.172-.182-.626a.6.6 0 0 0 .01-.121v-.111q.12-.858.414-1.654.18-.505.503-.818c.323-.313.441-.313.676-.313"/><path d="M93.46 79.568q-1.517.016-2.73 1.47t-1.214 3.066v.002q0 1.388.67 2.027t1.55.639q.974 0 1.916-.895l.063-.064q.049-.033.065-.016l.096.24q.112.255.479.493.367.24.91.24.255.002.383-.033.302-.127.51-.334.272-.273.512-.8.238-.526.318-.861.08-.336.081-.431 0-.145-.303-.145H96.7q-.128 0-.159.017-.065.016-.16.336-.32 1.213-.655 1.532-.175.126-.319.143-.224-.016-.336-.143-.111-.128-.11-.527.016-.303.607-2.651.59-2.347.588-2.555.001-.19-.158-.318c-.16-.128-.228-.13-.367-.13q-.479 0-.734.48-.623-.782-1.437-.782m-.047.576q.446.015.734.319.287.304.367.56.08.255.08.35-.015.127-.415 1.773-.4 1.644-.432 1.708-.11.287-.702.815-.59.526-1.198.525-.398-.014-.685-.286c-.288-.271-.288-.511-.288-.99q.016-.063.016-.192v-.176a12.7 12.7 0 0 1 .654-2.618q.288-.798.799-1.293.51-.496 1.07-.496z"/><path fill="#237f23" d="M82.377 62.414a.2.2 0 0 1-.075.016h-.06q-.09.09-.303.333-.21.24-.393.438-.18.196-.198.197-.65-.968-2.103-.968h-.271q-.348.015-.968.241a3.4 3.4 0 0 0-1.06.606q-.499.378-.983 1.134a3.06 3.06 0 0 0-.485 1.68q0 1.195.908 1.83.18.152.635.302.455.152 2.059.56.787.364.786 1.317-.015 1.044-.757 1.83-.74.787-1.632.787-.424 0-.802-.075a3.3 3.3 0 0 1-.787-.273 1.5 1.5 0 0 1-.65-.604q-.24-.408-.273-1a2 2 0 0 1 .032-.499q.044-.211.06-.317.015-.105.016-.137-.001-.076-.092-.166h-.195q-.271 0-.304.09-.877 3.51-.877 3.556 0 .12.196.12.121.001.197-.06.076-.06.423-.468l.425-.47.15.167q.833.832 2.33.832.333 0 .515-.032.771-.15 1.422-.575.651-.423 1-.908.347-.483.543-.891a3.6 3.6 0 0 0 .273-.742q.12-.453.12-.847 0-.953-.483-1.514-.484-.559-.999-.725-.014-.015-1.014-.273-.998-.255-1.058-.287a1.2 1.2 0 0 1-.62-.47 1.36 1.36 0 0 1-.227-.786q.013-.908.756-1.603.74-.697 1.603-.697.696 0 1.241.318.243.197.379.379.135.18.271.558t.137.894q-.013.15-.031.393-.016.243-.016.287a.7.7 0 0 0-.016.152q0 .136.304.136.18.015.241-.046.06-.06.484-1.785.423-1.725.424-1.83 0-.106-.197-.106zm-18.082.322a1 1 0 0 0-.227.016q-.166.135-.166.498 0 .09.015.12.03.062.546.062l-.002-.001q.862.03.862.135 0 .228-1.043 4.373-1.044 4.147-1.09 4.207-.075.135-.287.181a10 10 0 0 1-.908.046h-.09a1 1 0 0 0-.226.016q-.077.03-.152.318a.7.7 0 0 0-.032.213q0 .15 1.27.15h2.693q.892.016 1.876.016h1.15q.439.013.65-.016.21-.03.243-.046.03-.015.06-.09.03-.166.394-1.12.362-.953.665-1.816.302-.86.302-.891a.5.5 0 0 0-.09-.167h-.198a.5.5 0 0 0-.256.046q-.046.075-.258.635a9 9 0 0 1-.452 1.014q-.273.5-.637.831a4.3 4.3 0 0 1-.664.515 2.4 2.4 0 0 1-.757.272q-.454.09-.74.107-.288.014-.773.015h-.257a31 31 0 0 0-.893-.031q-.136 0-.137-.06l.137-.544q.136-.561.409-1.666l.514-2.087q.908-3.63 1.014-3.994.105-.363.21-.423.183-.121 1.227-.137h.575q.06-.06.135-.287.033-.228.033-.273-.001-.046-.091-.136h-.182q-.317.047-2.45.046a36 36 0 0 1-1.923-.046z"/><path fill="#c83737" d="M126.851 58.77a.21.21 0 0 0-.182.092q0 .03-.472 1.84l-.457 1.857q-.015.06-.092.061-.591 0-1.337.29a7 7 0 0 0-1.477.791c-.73.504-.897.77-1.232 1.308a3.2 3.2 0 0 0-.503 1.72q-.03.715.29 1.248.32.532.684.805c.365.275.518.335.822.457s.533.194.685.213q.227.03.304.031.121 0 .122.015l-.35 1.4q-.333 1.37-.335 1.445 0 .108.305.107h.092q.135-.014.182-.107.045-.092.167-.577.106-.487.198-.837l.366-1.446h.06q.67-.015 1.445-.32a6.4 6.4 0 0 0 1.477-.822 4.4 4.4 0 0 0 1.172-1.307q.471-.794.471-1.66c0-.866-.147-1.069-.442-1.475-.285-.4-.667-.72-1.11-.93a4.6 4.6 0 0 0-.73-.257 2.3 2.3 0 0 0-.488-.092q-.135 0-.136-.015l.06-.244q.075-.228.183-.699c.108-.471.142-.614.212-.898q.457-1.767.457-1.872 0-.03-.092-.122h-.196zm-1.277 4.412-1.415 5.739h-.108a3 3 0 0 1-.517-.123c-.23-.077-.334-.142-.548-.274a1.35 1.35 0 0 1-.501-.578 2.1 2.1 0 0 1-.184-.897q0-.625.23-1.324a5.6 5.6 0 0 1 .501-1.02q.258-.396.625-.7.363-.305.669-.44.303-.139.64-.245a4 4 0 0 1 .44-.122 1 1 0 0 1 .168-.016m.623 0h.046q.138 0 .365.062.23.06.594.228.365.168.608.579c.244.41.244.603.244.989q0 .303-.092.73c-.092.425-.157.61-.29.974q-.195.547-.668 1.065c-.471.517-.69.614-1.127.807q-.24.12-.608.213-.366.092-.488.092-.015 0-.015-.032l.732-2.86zm12.308-4.58q-.09.015-.182.016h-.122q-1.095.183-2.116 1.43c-1.02 1.248-1.216 1.821-1.612 2.968q-.593 1.719-.593 3.271 0 .547.092 1.065.09.518.288 1.02t.594.805q.397.305.943.305h.107q.972 0 2.039-1.156c1.067-1.156 1.294-1.76 1.75-2.967.685-1.811.684-2.394.684-3.561q0-1.535-.593-2.45a1.61 1.61 0 0 0-1.279-.746m-.137.563q.808 0 .808 1.553.015.517-.122 1.248-.139.73-.244 1.216a5 5 0 0 1-.122.503l-1.476.015q-.731 0-1.476-.015.016-.105.198-.761.183-.655.517-1.522a6.4 6.4 0 0 1 .852-1.552c.518-.686.7-.685 1.065-.685m-2.814 5.235h2.967l-.076.259a21 21 0 0 1-.73 2.222q-.366.897-.731 1.322c-.366.426-.451.477-.624.58s-.334.152-.486.152q-.807 0-.807-1.614 0-.501.107-1.156c.106-.655.151-.831.243-1.186q.081-.287.137-.579"/><path fill="none" stroke="#c83737" stroke-linecap="round" stroke-width=".9" d="M164.68 38.55 89.516 73.692"/><path fill="#c83737" d="M120.168 46.366q.016-.051.033-.134.016-.083.083-.365t.167-.517.25-.548.333-.5q.182-.183.431-.366t.55-.15q1.248 0 1.597 1.065l.166-.15q1.031-.915 1.964-.915 1.08 0 1.696.782t.617 1.898q0 1.796-1.265 3.31t-2.862 1.53q-.366 0-.65-.099-.182-.084-.381-.25t-.316-.282l-.118-.134q-.016.018-.365 1.448t-.35 1.447q0 .1.133.117t.616.05h.416q.1.116.1.15t-.05.298q-.05.2-.1.25t-.216.067h-.184q-.15 0-.564-.017t-1.032-.016q-1.165 0-1.481.033h-.134q-.116-.117-.116-.184.034-.448.217-.581h.333q.565-.017.649-.2.049-.1 1.014-3.976.966-3.877 1.015-4.11.016-.083.016-.232 0-.682-.416-.682-.366 0-.615.465t-.383 1.015-.199.599q-.034.033-.267.033h-.232q-.1-.1-.1-.15m2.578 3.078q.367 1.265 1.232 1.265.499 0 .966-.383.464-.383.765-.966.299-.565.598-1.796t.316-1.83v-.1q0-1.23-1.014-1.23-.184 0-.366.049-.184.05-.367.15t-.332.216-.283.25l-.25.249q-.116.116-.184.233-.065.116-.132.166l-.05.067q0 .017-.05.233t-.183.731q-.133.517-.232.866-.434 1.763-.434 1.83"/><g fill="none"><path stroke="#c83737" stroke-dasharray="1, 1" d="m164.68 73.672-75.164.021"/><path stroke="#c83737" d="M140.76 49.956a56.5 56.5 0 0 1 5.231 23.72"/><g stroke="#0369ad" stroke-linecap="round" stroke-width="1.5"><path marker-end="url(#c)" marker-mid="url(#c)" d="m89.516 73.698.437-26.815"/><path marker-end="url(#d)" marker-mid="url(#d)" d="m164.68 38.554.437-26.815"/><path marker-end="url(#e)" marker-mid="url(#e)" d="m14.576 108.51.437-26.815"/></g></g></g><metadata><rdf:RDF><cc:Work><dc:creator><cc:Agent><dc:title>Remco de Boer</dc:title></cc:Agent></dc:creator><cc:license rdf:resource="http://creativecommons.org/licenses/by/4.0/"/></cc:Work><cc:License rdf:about="http://creativecommons.org/licenses/by/4.0/"><cc:permits rdf:resource="http://creativecommons.org/ns#Reproduction"/><cc:permits rdf:resource="http://creativecommons.org/ns#Distribution"/><cc:requires rdf:resource="http://creativecommons.org/ns#Notice"/><cc:requires rdf:resource="http://creativecommons.org/ns#Attribution"/><cc:permits rdf:resource="http://creativecommons.org/ns#DerivativeWorks"/></cc:License></rdf:RDF></metadata></svg>