<svg xmlns="http://www.w3.org/2000/svg" xmlns:cc="http://creativecommons.org/ns#" xmlns:dc="http://purl.org/dc/elements/1.1/" xmlns:inkscape="http://www.inkscape.org/namespaces/inkscape" xmlns:rdf="http://www.w3.org/1999/02/22-rdf-syntax-ns#" xmlns:sodipodi="http://sodipodi.sourceforge.net/DTD/sodipodi-0.dtd" xmlns:xlink="http://www.w3.org/1999/xlink" inkscape:version="1.4.2 (1:1.4.2+202505120737+ebf0e940d0)" sodipodi:docname="zyz-euler-angles.svg" xml:space="preserve" width="66mm" height="56mm" viewBox="0 0 66 56"><sodipodi:namedview inkscape:current-layer="svg26" inkscape:cx="124.584" inkscape:cy="105.72" inkscape:deskcolor="#d1d1d1" inkscape:document-units="mm" inkscape:pagecheckerboard="0" inkscape:pageopacity="0" inkscape:showpageshadow="2" inkscape:window-height="1371" inkscape:window-maximized="1" inkscape:window-width="2560" inkscape:window-x="0" inkscape:window-y="32" inkscape:zoom="3.552" bordercolor="#000000" borderopacity=".25" pagecolor="#ffffff"/><defs><path id="b" d="M52 289q7 42 54 97t116 56q35 0 64-18t43-45q42 63 101 63 37 0 64-22t28-59q0-29-14-47t-27-22-23-4q-19 0-31 11t-12 29q0 46 50 63-11 13-40 13-13 0-19-2-38-16-56-66-60-221-60-258 0-28 16-40t35-12q37 0 73 33t49 81q3 10 6 11t16 2h4q15 0 15-8 0-1-2-11-16-57-62-101T333-11q-70 0-106 63-41-62-94-62h-6q-49 0-70 26T35 71q0 32 19 52t45 20q43 0 43-42 0-20-12-35t-23-20-13-5l-3-1q0-1 6-4t16-7 19-3q36 0 62 45 9 16 23 68t28 108 16 66q5 27 5 39 0 28-15 40t-34 12q-40 0-75-32t-49-82q-2-9-5-10t-16-2H58q-6 6-6 11"/><path id="c" d="M21 287q0 14 15 48t48 71 74 36q41 0 66-23t26-64q-2-19-3-21 0-3-16-46t-33-97-16-86q0-43 14-60t42-18q23 0 43 11t31 23 27 33q0 1 5 20t14 59 19 74q38 150 42 157 13 27 43 27 13 0 21-7t11-12 2-9q0-13-49-210T391-23q-28-83-97-132t-138-50q-45 0-79 22t-34 66q0 22 7 37t19 22 20 10 17 3q44 0 44-42 0-20-12-35t-23-20-13-5l-3-1q2-5 19-12t34-7h8q17 0 26 2 33 9 61 38t43 62 23 56 8 30l-6-4q-6-4-19-11T270-6q-20-5-39-5-46 0-81 22t-46 71q-1 7-1 31 0 57 35 149t35 117v14q0 3-4 7t-11 4h-4q-23 0-42-19t-30-41-17-42-8-22-16-2H27q-6 6-6 9"/><path id="d" d="M347 338q-10 0-53 11t-63 11-34-4-23-10-12-11-7-11l-2-4q-3-3-15-3-21 0-21 8 0 5 3 14 13 39 43 67t66 34q12 2 17 2 25 0 45-17t38-33 38-17q22 0 44 33t23 33q1 1 15 1h13q6-6 6-8 0-4-5-14t-14-21-17-22-14-19l-7-9q-43-51-136-135T160 106l-12-12 15-1q22 0 64-11t63-11q38 0 70 19t42 50q4 9 7 11t15 2q19 0 19-10 0-5-1-9-17-62-66-103t-98-42q-26 0-46 17t-39 34-38 17q-44 0-79-60-6-8-17-8H41q-6 6-6 9 0 15 58 86 39 45 132 130t115 108q12 16 7 16"/><path id="e" d="M79 43q-6 0-27 6T30 61q0 7 55 232t61 235q15 32 52 32 20 0 42-15t22-44q0-5-2-15-1-7-87-223T84 45t-5-2"/><path id="f" d="M34 156q0 114 86 200t189 86q70 0 112-40t57-98q6-29 7-67v-29q49 74 75 166 4 14 6 16t16 3q21 0 21-8 0-9-9-39t-36-85-61-100l-11-14 1-24q2-56 8-76t19-21q14 2 26 11t17 23q2 7 5 8t15 2q20 0 20-8 0-6-6-19-12-24-35-38t-44-15h-7q-67 0-91 72l-3 7-11-8q-10-8-30-20t-45-23-58-20-64-9q-79 0-124 50T34 156M208 26q49 0 98 21t73 43l24 22q-2 143-7 178-14 115-92 115-69 0-121-73-27-40-44-108t-18-104q0-49 25-71t62-23"/><path id="g" d="M29-194q-6 6-6 8 0 3 79 320t84 331q22 68 57 119t66 74q56 47 120 47h2q62 0 102-38t40-97q0-105-104-174l13-13q51-51 51-131 0-113-85-187T257-10q-30 0-54 8t-38 19-22 23-12 19-5 6L62-188q-2-6-20-6zm324 625q39 0 74-12l5 3 7 7 10 10q7 7 12 14t11 18 12 24 9 29 8 36q2 9 2 33 0 18-1 23-15 51-76 51-42 0-79-24t-61-61-39-68-23-59q-5-16-38-147t-34-140q-1-5-1-21 0-48 22-79 31-42 87-42 42 0 89 25t76 86q16 34 24 77t8 65q0 58-35 93-42-14-75-14h-10q-79 0-79 31 0 7 3 14 14 28 92 28"/><path id="h" d="M31 249q-20 0-20 9 0 17 15 46t40 61 63 53 77 23q27 0 33-1 48-11 79-54t53-131q14-60 14-85 0-4 1-4l12 27q20 51 45 107t43 91 22 39q2 1 16 1h13q6-6 6-9 0-4-21-44t-59-127-72-180q-6-16-13-65t-21-106q-16-65-27-90t-27-26q-17 0-17 28 0 50 54 220l6 19 1 18q1 10 1 31 0 157-57 217-40 38-95 38-48 0-88-26t-57-69q-2-9-4-9-2-2-16-2"/><marker id="a" markerHeight=".6" markerWidth=".7" orient="auto-start-reverse" overflow="visible" preserveAspectRatio="none" viewBox="0 0 1 1"><path fill="context-stroke" fill-rule="evenodd" d="M-1.4-2.8 6.3 0l-7.7 2.8C0 1.169 0-1.162-1.4-2.8"/></marker></defs><g transform="matrix(.33 0 0 .33 -2.562 -21.053)"><path fill="#0c0" fill-opacity=".3" d="m102.98 128.24 5.842-1.24 4.429-2.434-16.99-13.702" style="fill:#b56;fill-opacity:.301961" transform="translate(14.5 33.518)"/><path fill="none" stroke="#0c0" stroke-linecap="round" stroke-linejoin="round" stroke-miterlimit="6" stroke-width=".5" d="M102.98 128.24c1.947-.414 3.894-.827 5.606-1.44 1.712-.612 3.189-1.423 4.665-2.234" style="stroke:#b56;stroke-opacity:1" transform="translate(14.5 33.518)"/><path fill="#00f" fill-opacity=".3" d="m119.66 115.95-2.566 4.635-3.841 3.983-16.99-13.702" style="fill:#048;fill-opacity:.301961" transform="translate(14.5 33.518)"/><path fill="none" stroke="#00f" stroke-linecap="round" stroke-linejoin="round" stroke-miterlimit="6" stroke-width=".5" d="M104.36 132.45c1.387-1.274 2.774-2.547 3.842-3.983 1.067-1.437 1.816-3.036 2.565-4.635" style="stroke:#048;stroke-opacity:1" transform="translate(23.396 25.639)"/><path fill="red" fill-opacity=".3" d="m89.443 96.596 3.288-2.979 3.533-2.202v19.452" style="fill:#da3;fill-opacity:.301961" transform="translate(14.5 33.518)"/><path fill="none" stroke="red" stroke-linecap="round" stroke-linejoin="round" stroke-miterlimit="6" stroke-width=".5" d="M103.94 130.11c1.076-1.058 2.151-2.115 3.288-2.979s2.335-1.533 3.533-2.202" style="stroke:#da3;stroke-opacity:1"/><path stroke="#00f" stroke-dasharray="2" stroke-linecap="round" stroke-linejoin="round" stroke-miterlimit="6" marker-end="url(#a)" d="m110.55 144.51 55.961 45.132" style="stroke:#048;stroke-opacity:1;stroke-width:1.21212121;stroke-dasharray:2.42424243;stroke-dashoffset:0" transform="translate(.217 -.13)"/><g stroke="#000"><g stroke-linecap="round" stroke-linejoin="round" stroke-miterlimit="6" stroke-width="1.2" marker-end="url(#a)"><path d="M110.767 144.38V82.586"/><path d="m110.767 144.38 21.504 55.61"/><path d="m110.767 144.38-82.64 14.814"/></g><g stroke-dasharray="2.4" stroke-linecap="round" stroke-linejoin="round" stroke-miterlimit="6" stroke-width="1.2" marker-end="url(#a)"><path d="M110.767 144.38 78.51 214.038"/><path d="m110.767 144.38 75.777 16.465"/><path d="M110.767 144.38 89.536 99.962"/></g><g stroke-width="0"><use xlink:href="#b" data-c="1D465" data-mml-node="mi" transform="matrix(.01437 0 0 -.01437 9.537 164.25)"/><use xlink:href="#c" data-c="1D466" data-mml-node="mi" transform="matrix(.01437 0 0 -.01437 138.02 208.41)"/><use xlink:href="#d" data-c="1D467" data-mml-node="mi" transform="matrix(.01437 0 0 -.01437 111.3 71.301)"/><g data-mml-node="msup"><use xlink:href="#b" data-c="1D465" data-mml-node="mi" transform="matrix(.01437 0 0 -.01437 72.765 232.18)"/><use xlink:href="#e" data-c="2032" data-mml-node="mo" transform="matrix(.01016 0 0 -.01016 81.457 226.965)"/></g><g data-mml-node="msup"><use xlink:href="#c" data-c="1D466" data-mml-node="mi" transform="matrix(.01437 0 0 -.01437 195.31 164.12)"/><use xlink:href="#e" data-c="2032" data-mml-node="mo" transform="matrix(.01016 0 0 -.01016 202.824 158.905)"/></g><g data-mml-node="msup"><use xlink:href="#d" data-c="1D467" data-mml-node="mi" transform="matrix(.01437 0 0 -.01437 79.867 90.634)"/><use xlink:href="#e" data-c="2032" data-mml-node="mo" transform="matrix(.01016 0 0 -.01016 87.022 85.419)"/></g></g></g><use xlink:href="#f" fill="#00f" data-c="1D6FC" style="fill:#048;fill-opacity:1" transform="matrix(.01437 0 0 -.01437 135.5 161.54)"/><use xlink:href="#g" fill="#eb0707" data-c="1D6FD" style="fill:#da3;fill-opacity:1" transform="matrix(.01437 0 0 -.01437 100.15 117.52)"/><use xlink:href="#h" fill="#0c0" data-c="1D6FE" style="fill:#b56;fill-opacity:1" transform="matrix(.01437 0 0 -.01437 123.1 169.93)"/></g><metadata><rdf:RDF><cc:Work><dc:creator><cc:Agent><dc:title>Remco de Boer</dc:title></cc:Agent></dc:creator><cc:license rdf:resource="http://creativecommons.org/licenses/by/4.0/"/></cc:Work><cc:License rdf:about="http://creativecommons.org/licenses/by/4.0/"><cc:permits rdf:resource="http://creativecommons.org/ns#Reproduction"/><cc:permits rdf:resource="http://creativecommons.org/ns#Distribution"/><cc:requires rdf:resource="http://creativecommons.org/ns#Notice"/><cc:requires rdf:resource="http://creativecommons.org/ns#Attribution"/><cc:permits rdf:resource="http://creativecommons.org/ns#DerivativeWorks"/></cc:License></rdf:RDF></metadata></svg>